# Blender 4.4.1
# www.blender.org
mtllib button_Place.mtl
o 平面.001
v -1.000000 0.000000 1.000000
v 1.000000 0.000000 1.000000
v -1.000000 0.000000 -1.000000
v 1.000000 0.000000 -1.000000
v -0.777778 0.000000 1.000000
v -0.555556 0.000000 1.000000
v -0.333333 0.000000 1.000000
v -0.111111 0.000000 1.000000
v 0.111111 0.000000 1.000000
v 0.333333 0.000000 1.000000
v 0.555556 0.000000 1.000000
v 0.777778 0.000000 1.000000
v 0.777778 0.000000 -1.000000
v 0.555556 0.000000 -1.000000
v 0.333333 0.000000 -1.000000
v 0.111111 0.000000 -1.000000
v -0.111111 0.000000 -1.000000
v -0.333333 0.000000 -1.000000
v -0.555556 0.000000 -1.000000
v -0.777778 0.000000 -1.000000
v -1.000000 0.000000 -0.777778
v -1.000000 0.000000 -0.555556
v -1.000000 0.000000 -0.333333
v -1.000000 0.000000 -0.111111
v -1.000000 0.000000 0.111111
v -1.000000 0.000000 0.333333
v -1.000000 0.000000 0.555556
v -1.000000 0.000000 0.777778
v 1.000000 0.000000 0.777778
v 1.000000 0.000000 0.555556
v 1.000000 0.000000 0.333333
v 1.000000 0.000000 0.111111
v 1.000000 0.000000 -0.111111
v 1.000000 0.000000 -0.333333
v 1.000000 0.000000 -0.555556
v 1.000000 0.000000 -0.777778
v -0.777778 0.659324 0.777778
v -0.777778 0.666370 0.555556
v -0.777778 0.765254 0.333333
v -0.777778 0.748064 0.111111
v -0.777778 0.807707 -0.111111
v -0.777778 0.733147 -0.333333
v -0.777778 0.773714 -0.555556
v -0.763076 0.371542 -0.867616
v -0.555556 0.713977 0.777778
v -0.411755 0.761031 0.496918
v -0.530379 0.749035 0.329376
v -0.555556 0.681071 0.111111
v -0.591407 0.738295 -0.111111
v -0.433826 0.771432 -0.333333
v -0.359492 0.684515 -0.459736
v -0.555556 0.607644 -0.777778
v -0.333333 0.811998 0.777778
v -0.333333 0.741018 0.555556
v -0.333333 0.000000 0.333333
v -0.333333 0.000000 0.111111
v -0.333333 0.000000 -0.111111
v -0.333333 0.000000 -0.333333
v -0.238175 0.793123 -0.506938
v -0.333333 0.711601 -0.777778
v -0.111111 0.789235 0.777778
v -0.111111 0.755748 0.616440
v -0.111111 0.000000 0.333333
v -0.111111 0.000000 0.111111
v -0.111111 0.000000 -0.111111
v -0.111111 0.000000 -0.333333
v -0.110458 0.741522 -0.575535
v -0.111111 0.787107 -0.777778
v 0.111111 0.774458 0.777778
v 0.103975 0.758461 0.590252
v 0.111111 0.000000 0.333333
v 0.111111 0.000000 0.111111
v 0.111111 0.000000 -0.111111
v 0.111111 0.000000 -0.333333
v 0.111111 0.736665 -0.555556
v 0.111111 0.764715 -0.777778
v 0.333333 0.831755 0.777778
v 0.321562 0.740106 0.514429
v 0.333333 0.000000 0.333333
v 0.333333 0.000000 0.111111
v 0.333333 0.000000 -0.111111
v 0.428796 0.826522 -0.439539
v 0.316627 0.829008 -0.515018
v 0.333333 0.806737 -0.777778
v 0.555556 0.554115 0.777778
v 0.479919 0.780114 0.353601
v 0.557538 0.719796 0.225152
v 0.568573 0.746293 0.111111
v 0.555556 0.748382 -0.111111
v 0.507583 0.806180 -0.312950
v 0.555556 0.742477 -0.555556
v 0.555556 0.892502 -0.777778
v 0.777778 0.805629 0.777778
v 0.777778 0.829839 0.555556
v 0.777778 0.868482 0.333333
v 0.777778 0.862450 0.111111
v 0.777778 0.747960 -0.111111
v 0.777778 0.772053 -0.333333
v 0.777778 0.901091 -0.555556
v 0.777778 0.931943 -0.777778
vn -0.6383 0.4303 0.6383
vn 0.6588 0.3634 0.6588
vn -0.5785 0.5750 -0.5785
vn 0.6700 0.3195 -0.6700
vn -0.3600 0.3930 0.8461
vn -0.0497 0.2934 0.9547
vn -0.0239 0.2735 0.9616
vn 0.0114 0.2704 0.9627
vn -0.0126 0.2700 0.9628
vn 0.0770 0.2851 0.9554
vn 0.0072 0.3080 0.9513
vn 0.2703 0.3726 0.8878
vn 0.3507 0.3005 -0.8870
vn -0.0349 0.2447 -0.9690
vn -0.0373 0.2624 -0.9642
vn -0.0059 0.2737 -0.9618
vn -0.0172 0.2798 -0.9599
vn -0.0614 0.3013 -0.9516
vn -0.0325 0.3297 -0.9435
vn -0.3130 0.4945 -0.8109
vn -0.7833 0.4556 -0.4229
vn -0.9405 0.3145 -0.1284
vn -0.9599 0.2800 -0.0103
vn -0.9612 0.2759 -0.0048
vn -0.9604 0.2782 0.0130
vn -0.9569 0.2890 0.0275
vn -0.9510 0.3070 0.0354
vn -0.8492 0.4004 0.3444
vn 0.8703 0.3353 0.3608
vn 0.9661 0.2577 0.0181
vn 0.9680 0.2509 0.0093
vn 0.9657 0.2572 -0.0359
vn 0.9616 0.2733 -0.0266
vn 0.9623 0.2685 0.0448
vn 0.9682 0.2459 0.0454
vn 0.8864 0.2997 -0.3529
vn -0.5464 0.6719 0.4999
vn -0.6909 0.7169 0.0930
vn -0.5435 0.8389 0.0308
vn -0.5351 0.8446 0.0201
vn -0.4791 0.8762 0.0516
vn -0.6233 0.7794 -0.0632
vn -0.4884 0.8127 -0.3176
vn -0.4470 0.5032 -0.7396
vn -0.1784 0.7771 0.6035
vn 0.3115 0.8792 -0.3604
vn 0.4861 0.8573 -0.1695
vn 0.7316 0.6802 -0.0456
vn 0.5834 0.8023 0.1265
vn 0.5380 0.8110 0.2297
vn 0.0694 0.9808 0.1825
vn -0.1266 0.6699 -0.7316
vn -0.0732 0.8746 0.4793
vn 0.1823 0.7793 -0.5995
vn 0.5242 0.6893 -0.5001
vn 0.5899 0.8065 -0.0412
vn 0.5887 0.8026 0.0966
vn 0.5284 0.6220 0.5778
vn -0.0226 0.8519 0.5231
vn -0.2657 0.7629 -0.5894
vn 0.0327 0.8512 0.5238
vn 0.0369 0.7827 -0.6213
vn 0.0184 0.8156 -0.5784
vn -0.0000 1.0000 -0.0000
vn 0.0571 0.7999 0.5974
vn 0.0470 0.8043 0.5923
vn -0.0174 0.8394 -0.5432
vn -0.0454 0.8264 0.5612
vn -0.0931 0.7693 -0.6321
vn -0.0654 0.8083 -0.5851
vn -0.1723 0.9699 0.1723
vn -0.2923 0.6859 0.6664
vn -0.2281 0.7450 0.6268
vn -0.0826 0.7969 -0.5985
vn 0.1812 0.8554 0.4852
vn -0.0854 0.8068 -0.5846
vn -0.5395 0.6837 -0.4914
vn -0.5934 0.8049 0.0067
vn -0.6696 0.6842 0.2890
vn -0.2181 0.9173 0.3330
vn -0.2296 0.8430 0.4865
vn -0.1143 0.8057 -0.5812
vn -0.0173 0.5539 0.8324
vn -0.5455 0.7807 -0.3049
vn -0.7555 0.6239 -0.1998
vn -0.7268 0.6851 -0.0490
vn -0.6145 0.7768 0.1376
vn -0.4699 0.8416 0.2663
vn -0.0759 0.9875 0.1380
vn -0.1734 0.8603 -0.4794
vn 0.2952 0.7564 0.5838
vn 0.4174 0.8903 0.1821
vn 0.4362 0.8989 -0.0419
vn 0.3972 0.9130 -0.0934
vn 0.6313 0.7747 -0.0367
vn 0.6192 0.7756 0.1228
vn 0.4548 0.8644 0.2146
vn 0.3930 0.8274 -0.4013
vt 0.888889 0.888889
vt 1.000000 0.888889
vt 1.000000 1.000000
vt 0.888889 1.000000
vt 0.000000 0.888889
vt 0.111111 0.888889
vt 0.111111 1.000000
vt 0.000000 1.000000
vt 0.222222 0.888889
vt 0.222222 1.000000
vt 0.333333 0.888889
vt 0.333333 1.000000
vt 0.444444 0.888889
vt 0.444444 1.000000
vt 0.555556 0.888889
vt 0.555556 1.000000
vt 0.666667 0.888889
vt 0.666667 1.000000
vt 0.777778 0.888889
vt 0.777778 1.000000
vt 0.777778 0.000000
vt 0.888889 0.000000
vt 0.888889 0.111111
vt 0.777778 0.111111
vt 0.888889 0.222222
vt 0.777778 0.222222
vt 0.888889 0.333333
vt 0.777778 0.333333
vt 0.888889 0.444444
vt 0.777778 0.444444
vt 0.888889 0.555556
vt 0.777778 0.555556
vt 0.888889 0.666667
vt 0.777778 0.666667
vt 0.888889 0.777778
vt 0.777778 0.777778
vt 0.666667 0.000000
vt 0.666667 0.111111
vt 0.666667 0.222222
vt 0.666667 0.333333
vt 0.666667 0.444444
vt 0.666667 0.555556
vt 0.666667 0.666667
vt 0.666667 0.777778
vt 0.555556 0.000000
vt 0.555556 0.111111
vt 0.555556 0.222222
vt 0.555556 0.333333
vt 0.555556 0.444444
vt 0.555556 0.555556
vt 0.555556 0.666667
vt 0.555556 0.777778
vt 0.444444 0.000000
vt 0.444444 0.111111
vt 0.444444 0.222222
vt 0.444444 0.333333
vt 0.444444 0.444444
vt 0.444444 0.555556
vt 0.444444 0.666667
vt 0.444444 0.777778
vt 0.333333 0.000000
vt 0.333333 0.111111
vt 0.333333 0.222222
vt 0.333333 0.333333
vt 0.333333 0.444444
vt 0.333333 0.555556
vt 0.333333 0.666667
vt 0.333333 0.777778
vt 0.222222 0.000000
vt 0.222222 0.111111
vt 0.222222 0.222222
vt 0.222222 0.333333
vt 0.222222 0.444444
vt 0.222222 0.555556
vt 0.222222 0.666667
vt 0.222222 0.777778
vt 0.111111 0.000000
vt 0.111111 0.111111
vt 0.111111 0.222222
vt 0.111111 0.333333
vt 0.111111 0.444444
vt 0.111111 0.555556
vt 0.111111 0.666667
vt 0.111111 0.777778
vt 0.000000 0.000000
vt 0.000000 0.111111
vt 0.000000 0.222222
vt 0.000000 0.333333
vt 0.000000 0.444444
vt 0.000000 0.555556
vt 0.000000 0.666667
vt 0.000000 0.777778
vt 1.000000 0.000000
vt 1.000000 0.111111
vt 1.000000 0.222222
vt 1.000000 0.333333
vt 1.000000 0.444444
vt 1.000000 0.555556
vt 1.000000 0.666667
vt 1.000000 0.777778
s 1
f 100/1/98 36/2/36 4/3/4 13/4/13
f 21/5/21 44/6/44 20/7/20 3/8/3
f 44/6/44 52/9/52 19/10/19 20/7/20
f 52/9/52 60/11/60 18/12/18 19/10/19
f 60/11/60 68/13/67 17/14/17 18/12/18
f 68/13/67 76/15/74 16/16/16 17/14/17
f 76/15/74 84/17/82 15/18/15 16/16/16
f 84/17/82 92/19/90 14/20/14 15/18/15
f 92/19/90 100/1/98 13/4/13 14/20/14
f 11/21/11 12/22/12 93/23/91 85/24/83
f 85/24/83 93/23/91 94/25/92 86/26/84
f 86/26/84 94/25/92 95/27/93 87/28/85
f 87/28/85 95/27/93 96/29/94 88/30/86
f 88/30/86 96/29/94 97/31/95 89/32/87
f 89/32/87 97/31/95 98/33/96 90/34/88
f 90/34/88 98/33/96 99/35/97 91/36/89
f 91/36/89 99/35/97 100/1/98 92/19/90
f 10/37/10 11/21/11 85/24/83 77/38/75
f 77/38/75 85/24/83 86/26/84 78/39/76
f 78/39/76 86/26/84 87/28/85 79/40/77
f 79/40/77 87/28/85 88/30/86 80/41/78
f 80/41/78 88/30/86 89/32/87 81/42/79
f 81/42/79 89/32/87 90/34/88 82/43/80
f 82/43/80 90/34/88 91/36/89 83/44/81
f 83/44/81 91/36/89 92/19/90 84/17/82
f 9/45/9 10/37/10 77/38/75 69/46/68
f 69/46/68 77/38/75 78/39/76 70/47/69
f 70/47/69 78/39/76 79/40/77 71/48/70
f 71/48/70 79/40/77 80/41/78 72/49/64
f 72/49/64 80/41/78 81/42/79 73/50/71
f 73/50/71 81/42/79 82/43/80 74/51/72
f 74/51/72 82/43/80 83/44/81 75/52/73
f 75/52/73 83/44/81 84/17/82 76/15/74
f 8/53/8 9/45/9 69/46/68 61/54/61
f 61/54/61 69/46/68 70/47/69 62/55/62
f 62/55/62 70/47/69 71/48/70 63/56/63
f 63/56/63 71/48/70 72/49/64 64/57/64
f 64/57/64 72/49/64 73/50/71 65/58/64
f 65/58/64 73/50/71 74/51/72 66/59/65
f 66/59/65 74/51/72 75/52/73 67/60/66
f 67/60/66 75/52/73 76/15/74 68/13/67
f 7/61/7 8/53/8 61/54/61 53/62/53
f 53/62/53 61/54/61 62/55/62 54/63/54
f 54/63/54 62/55/62 63/56/63 55/64/55
f 55/64/55 63/56/63 64/57/64 56/65/56
f 56/65/56 64/57/64 65/58/64 57/66/57
f 57/66/57 65/58/64 66/59/65 58/67/58
f 58/67/58 66/59/65 67/60/66 59/68/59
f 59/68/59 67/60/66 68/13/67 60/11/60
f 6/69/6 7/61/7 53/62/53 45/70/45
f 45/70/45 53/62/53 54/63/54 46/71/46
f 46/71/46 54/63/54 55/64/55 47/72/47
f 47/72/47 55/64/55 56/65/56 48/73/48
f 48/73/48 56/65/56 57/66/57 49/74/49
f 49/74/49 57/66/57 58/67/58 50/75/50
f 50/75/50 58/67/58 59/68/59 51/76/51
f 51/76/51 59/68/59 60/11/60 52/9/52
f 5/77/5 6/69/6 45/70/45 37/78/37
f 37/78/37 45/70/45 46/71/46 38/79/38
f 38/79/38 46/71/46 47/72/47 39/80/39
f 39/80/39 47/72/47 48/73/48 40/81/40
f 40/81/40 48/73/48 49/74/49 41/82/41
f 41/82/41 49/74/49 50/75/50 42/83/42
f 42/83/42 50/75/50 51/76/51 43/84/43
f 43/84/43 51/76/51 52/9/52 44/6/44
f 1/85/1 5/77/5 37/78/37 28/86/28
f 28/86/28 37/78/37 38/79/38 27/87/27
f 27/87/27 38/79/38 39/80/39 26/88/26
f 26/88/26 39/80/39 40/81/40 25/89/25
f 25/89/25 40/81/40 41/82/41 24/90/24
f 24/90/24 41/82/41 42/83/42 23/91/23
f 23/91/23 42/83/42 43/84/43 22/92/22
f 22/92/22 43/84/43 44/6/44 21/5/21
f 12/22/12 2/93/2 29/94/29 93/23/91
f 93/23/91 29/94/29 30/95/30 94/25/92
f 94/25/92 30/95/30 31/96/31 95/27/93
f 95/27/93 31/96/31 32/97/32 96/29/94
f 96/29/94 32/97/32 33/98/33 97/31/95
f 97/31/95 33/98/33 34/99/34 98/33/96
f 98/33/96 34/99/34 35/100/35 99/35/97
f 99/35/97 35/100/35 36/2/36 100/1/98
