# Blender 4.4.1
# www.blender.org
mtllib button.mtl
o 円柱
v 0.000000 0.525020 -0.557900
v 0.000000 0.719531 -0.557900
v 0.108841 0.525020 -0.547180
v 0.108841 0.719531 -0.547180
v 0.213499 0.525020 -0.515432
v 0.213499 0.719531 -0.515432
v 0.309952 0.525020 -0.463876
v 0.309952 0.719531 -0.463876
v 0.394495 0.525020 -0.394495
v 0.394495 0.719531 -0.394495
v 0.463876 0.525020 -0.309952
v 0.463876 0.719531 -0.309952
v 0.515432 0.525020 -0.213499
v 0.515432 0.719531 -0.213499
v 0.547180 0.525020 -0.108841
v 0.547180 0.719531 -0.108841
v 0.557900 0.525020 0.000000
v 0.557900 0.719531 0.000000
v 0.547180 0.525020 0.108841
v 0.547180 0.719531 0.108841
v 0.515432 0.525020 0.213499
v 0.515432 0.719531 0.213499
v 0.463876 0.525020 0.309952
v 0.463876 0.719531 0.309952
v 0.394495 0.525020 0.394495
v 0.394495 0.719531 0.394495
v 0.309952 0.525020 0.463876
v 0.309952 0.719531 0.463876
v 0.213499 0.525020 0.515432
v 0.213499 0.719531 0.515432
v 0.108841 0.525020 0.547180
v 0.108841 0.719531 0.547180
v 0.000000 0.525020 0.557900
v 0.000000 0.719531 0.557900
v -0.108841 0.525020 0.547180
v -0.108841 0.719531 0.547180
v -0.213499 0.525020 0.515432
v -0.213499 0.719531 0.515432
v -0.309952 0.525020 0.463876
v -0.309952 0.719531 0.463876
v -0.394495 0.525020 0.394495
v -0.394495 0.719531 0.394495
v -0.463876 0.525020 0.309952
v -0.463876 0.719531 0.309952
v -0.515432 0.525020 0.213499
v -0.515432 0.719531 0.213499
v -0.547180 0.525020 0.108841
v -0.547180 0.719531 0.108841
v -0.557900 0.525020 0.000000
v -0.557900 0.719531 0.000000
v -0.547180 0.525020 -0.108841
v -0.547180 0.719531 -0.108841
v -0.515432 0.525020 -0.213499
v -0.515432 0.719531 -0.213499
v -0.463876 0.525020 -0.309952
v -0.463876 0.719531 -0.309952
v -0.394495 0.525020 -0.394495
v -0.394495 0.719531 -0.394495
v -0.309952 0.525020 -0.463876
v -0.309952 0.719531 -0.463876
v -0.213499 0.525020 -0.515432
v -0.213499 0.719531 -0.515432
v -0.108841 0.525020 -0.547180
v -0.108841 0.719531 -0.547180
vn -0.0000 -0.9833 -0.1820
vn -0.0000 0.9833 -0.1820
vn 0.0355 -0.9833 -0.1785
vn 0.0355 0.9833 -0.1785
vn 0.0696 -0.9833 -0.1681
vn 0.0696 0.9833 -0.1681
vn 0.1011 -0.9833 -0.1513
vn 0.1011 0.9833 -0.1513
vn 0.1287 -0.9833 -0.1287
vn 0.1287 0.9833 -0.1287
vn 0.1513 -0.9833 -0.1011
vn 0.1513 0.9833 -0.1011
vn 0.1681 -0.9833 -0.0696
vn 0.1681 0.9833 -0.0696
vn 0.1785 -0.9833 -0.0355
vn 0.1785 0.9833 -0.0355
vn 0.1820 -0.9833 -0.0000
vn 0.1820 0.9833 -0.0000
vn 0.1785 -0.9833 0.0355
vn 0.1785 0.9833 0.0355
vn 0.1681 -0.9833 0.0696
vn 0.1681 0.9833 0.0696
vn 0.1513 -0.9833 0.1011
vn 0.1513 0.9833 0.1011
vn 0.1287 -0.9833 0.1287
vn 0.1287 0.9833 0.1287
vn 0.1011 -0.9833 0.1513
vn 0.1011 0.9833 0.1513
vn 0.0696 -0.9833 0.1681
vn 0.0696 0.9833 0.1681
vn 0.0355 -0.9833 0.1785
vn 0.0355 0.9833 0.1785
vn -0.0000 -0.9833 0.1820
vn -0.0000 0.9833 0.1820
vn -0.0355 -0.9833 0.1785
vn -0.0355 0.9833 0.1785
vn -0.0696 -0.9833 0.1681
vn -0.0696 0.9833 0.1681
vn -0.1011 -0.9833 0.1513
vn -0.1011 0.9833 0.1513
vn -0.1287 -0.9833 0.1287
vn -0.1287 0.9833 0.1287
vn -0.1513 -0.9833 0.1011
vn -0.1513 0.9833 0.1011
vn -0.1681 -0.9833 0.0696
vn -0.1681 0.9833 0.0696
vn -0.1785 -0.9833 0.0355
vn -0.1785 0.9833 0.0355
vn -0.1820 -0.9833 -0.0000
vn -0.1820 0.9833 -0.0000
vn -0.1785 -0.9833 -0.0355
vn -0.1785 0.9833 -0.0355
vn -0.1681 -0.9833 -0.0696
vn -0.1681 0.9833 -0.0696
vn -0.1513 -0.9833 -0.1011
vn -0.1513 0.9833 -0.1011
vn -0.1287 -0.9833 -0.1287
vn -0.1287 0.9833 -0.1287
vn -0.1011 -0.9833 -0.1513
vn -0.1011 0.9833 -0.1513
vn -0.0696 -0.9833 -0.1681
vn -0.0696 0.9833 -0.1681
vn -0.0355 -0.9833 -0.1785
vn -0.0355 0.9833 -0.1785
vt -0.004332 -0.021648
vt 0.515149 -0.021648
vt 0.515149 0.010819
vt -0.004332 0.010820
vt 0.515149 0.043287
vt -0.004332 0.043287
vt 0.515149 0.075755
vt -0.004332 0.075755
vt 0.515149 0.108222
vt -0.004332 0.108222
vt 0.515149 0.140690
vt -0.004332 0.140690
vt 0.515149 0.173157
vt -0.004332 0.173157
vt 0.515149 0.205625
vt -0.004332 0.205625
vt 0.515149 0.238092
vt -0.004332 0.238092
vt 0.515149 0.270560
vt -0.004332 0.270560
vt 0.515149 0.303028
vt -0.004332 0.303028
vt 0.515149 0.335495
vt -0.004332 0.335495
vt 0.515149 0.367963
vt -0.004332 0.367963
vt 0.515149 0.400430
vt -0.004332 0.400430
vt 0.515149 0.432898
vt -0.004332 0.432898
vt 0.515149 0.465365
vt -0.004332 0.465365
vt 0.515149 0.497833
vt -0.004332 0.497833
vt 0.515149 0.530300
vt -0.004332 0.530300
vt 0.515149 0.562768
vt -0.004332 0.562768
vt 0.515149 0.595236
vt -0.004332 0.595236
vt 0.515149 0.627703
vt -0.004332 0.627703
vt 0.515149 0.660171
vt -0.004332 0.660171
vt 0.515149 0.692638
vt -0.004332 0.692638
vt 0.515149 0.725106
vt -0.004332 0.725106
vt 0.515149 0.757573
vt -0.004332 0.757573
vt 0.515149 0.790041
vt -0.004332 0.790041
vt 0.515149 0.822508
vt -0.004332 0.822509
vt 0.515149 0.854976
vt -0.004332 0.854976
vt 0.515149 0.887444
vt -0.004332 0.887444
vt 0.515149 0.919911
vt -0.004332 0.919911
vt 0.515149 0.952379
vt -0.004332 0.952379
vt 0.961820 0.224262
vt 0.961820 0.264921
vt 0.953887 0.304799
vt 0.938328 0.342363
vt 0.915739 0.376170
vt 0.886988 0.404921
vt 0.853181 0.427510
vt 0.815616 0.443070
vt 0.775738 0.451002
vt 0.735079 0.451002
vt 0.695201 0.443070
vt 0.657637 0.427510
vt 0.623830 0.404921
vt 0.595079 0.376170
vt 0.572490 0.342363
vt 0.556930 0.304799
vt 0.548998 0.264921
vt 0.548998 0.224261
vt 0.556930 0.184383
vt 0.572490 0.146819
vt 0.595079 0.113012
vt 0.623830 0.084261
vt 0.657637 0.061672
vt 0.695201 0.046113
vt 0.735079 0.038180
vt 0.775739 0.038180
vt 0.815617 0.046113
vt 0.853181 0.061672
vt 0.886988 0.084261
vt 0.915739 0.113012
vt 0.938328 0.146819
vt 0.953887 0.184383
vt 0.515149 0.984846
vt -0.004332 0.984846
vt 0.515149 1.017314
vt -0.004332 1.017314
vt 0.815617 0.932252
vt 0.853181 0.916692
vt 0.886988 0.894103
vt 0.915739 0.865353
vt 0.938328 0.831546
vt 0.953887 0.793981
vt 0.961819 0.754103
vt 0.961820 0.713444
vt 0.953887 0.673566
vt 0.938328 0.636001
vt 0.915738 0.602194
vt 0.886988 0.573444
vt 0.853181 0.550855
vt 0.815617 0.535295
vt 0.775738 0.527363
vt 0.735079 0.527363
vt 0.695201 0.535295
vt 0.657637 0.550855
vt 0.623830 0.573444
vt 0.595079 0.602194
vt 0.572490 0.636001
vt 0.556930 0.673566
vt 0.548998 0.713444
vt 0.548998 0.754103
vt 0.556930 0.793981
vt 0.572490 0.831546
vt 0.595079 0.865353
vt 0.623830 0.894103
vt 0.657637 0.916692
vt 0.695201 0.932252
vt 0.735079 0.940184
vt 0.775739 0.940184
s 1
usemtl マテリアル.001
f 1/1/1 2/2/2 4/3/4 3/4/3
f 3/4/3 4/3/4 6/5/6 5/6/5
f 5/6/5 6/5/6 8/7/8 7/8/7
f 7/8/7 8/7/8 10/9/10 9/10/9
f 9/10/9 10/9/10 12/11/12 11/12/11
f 11/12/11 12/11/12 14/13/14 13/14/13
f 13/14/13 14/13/14 16/15/16 15/16/15
f 15/16/15 16/15/16 18/17/18 17/18/17
f 17/18/17 18/17/18 20/19/20 19/20/19
f 19/20/19 20/19/20 22/21/22 21/22/21
f 21/22/21 22/21/22 24/23/24 23/24/23
f 23/24/23 24/23/24 26/25/26 25/26/25
f 25/26/25 26/25/26 28/27/28 27/28/27
f 27/28/27 28/27/28 30/29/30 29/30/29
f 29/30/29 30/29/30 32/31/32 31/32/31
f 31/32/31 32/31/32 34/33/34 33/34/33
f 33/34/33 34/33/34 36/35/36 35/36/35
f 35/36/35 36/35/36 38/37/38 37/38/37
f 37/38/37 38/37/38 40/39/40 39/40/39
f 39/40/39 40/39/40 42/41/42 41/42/41
f 41/42/41 42/41/42 44/43/44 43/44/43
f 43/44/43 44/43/44 46/45/46 45/46/45
f 45/46/45 46/45/46 48/47/48 47/48/47
f 47/48/47 48/47/48 50/49/50 49/50/49
f 49/50/49 50/49/50 52/51/52 51/52/51
f 51/52/51 52/51/52 54/53/54 53/54/53
f 53/54/53 54/53/54 56/55/56 55/56/55
f 55/56/55 56/55/56 58/57/58 57/58/57
f 57/58/57 58/57/58 60/59/60 59/60/59
f 59/60/59 60/59/60 62/61/62 61/62/61
f 4/63/4 2/64/2 64/65/64 62/66/62 60/67/60 58/68/58 56/69/56 54/70/54 52/71/52 50/72/50 48/73/48 46/74/46 44/75/44 42/76/42 40/77/40 38/78/38 36/79/36 34/80/34 32/81/32 30/82/30 28/83/28 26/84/26 24/85/24 22/86/22 20/87/20 18/88/18 16/89/16 14/90/14 12/91/12 10/92/10 8/93/8 6/94/6
f 61/62/61 62/61/62 64/95/64 63/96/63
f 63/96/63 64/95/64 2/97/2 1/98/1
f 1/99/1 3/100/3 5/101/5 7/102/7 9/103/9 11/104/11 13/105/13 15/106/15 17/107/17 19/108/19 21/109/21 23/110/23 25/111/25 27/112/27 29/113/29 31/114/31 33/115/33 35/116/35 37/117/37 39/118/39 41/119/41 43/120/43 45/121/45 47/122/47 49/123/49 51/124/51 53/125/53 55/126/55 57/127/57 59/128/59 61/129/61 63/130/63
