# Blender 4.4.1
# www.blender.org
mtllib castle_real.mtl
o 立方体.004
v -57.816410 45.289200 124.009003
v -57.816410 71.929375 124.009003
v -57.816410 45.289200 61.125061
v -57.816410 71.929375 61.125061
v 58.953892 45.289200 124.009003
v 58.953892 71.929375 124.009003
v 58.953892 45.289200 61.125061
v 58.953892 71.929375 61.125061
v 44.357605 45.289200 61.125061
v 29.761316 45.289200 61.125061
v 15.165029 45.289200 61.125061
v 0.568741 45.289200 61.125061
v -14.027547 45.289200 61.125061
v -28.623835 45.289200 61.125061
v -43.220123 45.289200 61.125061
v -43.220123 71.929375 61.125061
v -28.623835 71.929375 61.125061
v -14.027547 71.929375 61.125061
v 0.568741 71.929375 61.125061
v 15.165029 71.929375 61.125061
v 29.761316 71.929375 61.125061
v 44.357605 71.929375 61.125061
v -43.220123 45.289200 124.009003
v -28.623835 45.289200 124.009003
v -14.027547 45.289200 124.009003
v 0.568741 45.289200 124.009003
v 15.165029 45.289200 124.009003
v 29.761316 45.289200 124.009003
v 44.357605 45.289200 124.009003
v 44.357605 71.929375 124.009003
v 29.761316 71.929375 124.009003
v 15.165029 71.929375 124.009003
v 0.568741 71.929375 124.009003
v -14.027547 71.929375 124.009003
v -28.623835 71.929375 124.009003
v -43.220123 71.929375 124.009003
v -57.816410 45.289200 68.985550
v -57.816410 45.289200 76.846046
v -57.816410 45.289200 84.706535
v -57.816410 45.289200 92.567032
v -57.816410 45.289200 100.427528
v -57.816410 45.289200 108.288017
v -57.816410 45.289200 116.148514
v -57.816410 71.929375 116.148514
v -57.816410 71.929375 108.288017
v -57.816410 71.929375 100.427528
v -57.816410 71.929375 92.567032
v -57.816410 71.929375 84.706535
v -57.816410 71.929375 76.846046
v -57.816410 71.929375 68.985550
v 58.953892 45.289200 116.148514
v 58.953892 45.289200 108.288017
v 58.953892 45.289200 100.427528
v 58.953892 45.289200 92.567032
v 58.953892 45.289200 84.706535
v 58.953892 45.289200 76.846046
v 58.953892 45.289200 68.985550
v 58.953892 71.929375 68.985550
v 58.953892 71.929375 76.846046
v 58.953892 71.929375 84.706535
v 58.953892 71.929375 92.567032
v 58.953892 71.929375 100.427528
v 58.953892 71.929375 108.288017
v 58.953892 71.929375 116.148514
v 44.357605 71.929375 68.985550
v 44.357605 71.929375 76.846046
v 44.357605 71.929375 84.706535
v 44.357605 71.929375 92.567032
v 44.357605 71.929375 100.427528
v 44.357605 71.929375 108.288017
v 44.357605 71.929375 116.148514
v 29.761316 71.929375 68.985550
v 29.761316 71.929375 76.846046
v 29.761316 71.929375 84.706535
v 29.761316 71.929375 92.567032
v 29.761316 71.929375 100.427528
v 29.761316 71.929375 108.288017
v 29.761316 71.929375 116.148514
v 15.165029 71.929375 68.985550
v 15.165029 71.929375 76.846046
v 15.165029 71.929375 84.706535
v 15.165029 71.929375 92.567032
v 15.165029 71.929375 100.427528
v 15.165029 71.929375 108.288017
v 15.165029 71.929375 116.148514
v 0.568741 71.929375 68.985550
v 0.568741 71.929375 76.846046
v 0.568741 71.929375 84.706535
v 0.568741 71.929375 92.567032
v 0.568741 71.929375 100.427528
v 0.568741 71.929375 108.288017
v 0.568741 71.929375 116.148514
v -14.027547 71.929375 68.985550
v -14.027547 71.929375 76.846046
v -14.027547 71.929375 84.706535
v -14.027547 71.929375 92.567032
v -14.027547 71.929375 100.427528
v -14.027547 71.929375 108.288017
v -14.027547 71.929375 116.148514
v -28.623835 71.929375 68.985550
v -28.623835 71.929375 76.846046
v -28.623835 71.929375 84.706535
v -28.623835 71.929375 92.567032
v -28.623835 71.929375 100.427528
v -28.623835 71.929375 108.288017
v -28.623835 71.929375 116.148514
v -43.220123 71.929375 68.985550
v -43.220123 71.929375 76.846046
v -43.220123 71.929375 84.706535
v -43.220123 71.929375 92.567032
v -43.220123 71.929375 100.427528
v -43.220123 71.929375 108.288017
v -43.220123 71.929375 116.148514
v -43.220123 45.289200 68.985550
v -43.220123 45.289200 76.846046
v -43.220123 45.289200 84.706535
v -43.220123 45.289200 92.567032
v -43.220123 45.289200 100.427528
v -43.220123 45.289200 108.288017
v -43.220123 45.289200 116.148514
v -28.623835 45.289200 68.985550
v -28.623835 45.289200 76.846046
v -28.623835 45.289200 84.706535
v -28.623835 45.289200 92.567032
v -28.623835 45.289200 100.427528
v -28.623835 45.289200 108.288017
v -28.623835 45.289200 116.148514
v -14.027547 45.289200 68.985550
v -14.027547 45.289200 76.846046
v -14.027547 45.289200 84.706535
v -14.027547 45.289200 92.567032
v -14.027547 45.289200 100.427528
v -14.027547 45.289200 108.288017
v -14.027547 45.289200 116.148514
v 0.568741 45.289200 68.985550
v 0.568741 45.289200 76.846046
v 0.568741 45.289200 84.706535
v 0.568741 45.289200 92.567032
v 0.568741 45.289200 100.427528
v 0.568741 45.289200 108.288017
v 0.568741 45.289200 116.148514
v 15.165029 45.289200 68.985550
v 15.165029 45.289200 76.846046
v 15.165029 45.289200 84.706535
v 15.165029 45.289200 92.567032
v 15.165029 45.289200 100.427528
v 15.165029 45.289200 108.288017
v 15.165029 45.289200 116.148514
v 29.761316 45.289200 68.985550
v 29.761316 45.289200 76.846046
v 29.761316 45.289200 84.706535
v 29.761316 45.289200 92.567032
v 29.761316 45.289200 100.427528
v 29.761316 45.289200 108.288017
v 29.761316 45.289200 116.148514
v 44.357605 45.289200 68.985550
v 44.357605 45.289200 76.846046
v 44.357605 45.289200 84.706535
v 44.357605 45.289200 92.567032
v 44.357605 45.289200 100.427528
v 44.357605 45.289200 108.288017
v 44.357605 45.289200 116.148514
v -57.816410 86.454224 68.985550
v -57.816410 86.454224 61.125061
v 44.357605 86.454224 61.125061
v 58.953892 86.454224 61.125061
v 58.953892 86.454224 116.148514
v 58.953892 86.454224 124.009003
v -43.220123 86.454224 124.009003
v -57.816410 86.454224 124.009003
v -43.220123 86.454224 61.125061
v -14.027547 86.454224 61.125061
v 0.568741 86.454224 61.125061
v 15.165029 86.454224 61.125061
v 44.357605 86.454224 124.009003
v 15.165029 86.454224 124.009003
v 0.568741 86.454224 124.009003
v -14.027547 86.454224 124.009003
v 44.357605 86.454224 116.148514
v 15.165029 86.454224 116.148514
v 0.568741 86.454224 116.148514
v -14.027547 86.454224 116.148514
v -43.220123 86.454224 116.148514
v -57.816410 86.454224 116.148514
v -57.816410 86.454224 100.427528
v -57.816410 86.454224 92.567032
v -57.816410 86.454224 84.706535
v 58.953892 86.454224 68.985550
v 58.953892 86.454224 84.706535
v 58.953892 86.454224 92.567032
v 58.953892 86.454224 100.427528
v 44.357605 86.454224 68.985550
v 44.357605 86.454224 84.706535
v 44.357605 86.454224 92.567032
v 44.357605 86.454224 100.427528
v 15.165029 86.454224 68.985550
v 0.568741 86.454224 68.985550
v -14.027547 86.454224 68.985550
v -43.220123 86.454224 68.985550
v -43.220123 86.454224 84.706535
v -43.220123 86.454224 92.567032
v -43.220123 86.454224 100.427528
v -57.816410 103.120422 68.985550
v -57.816410 103.120422 61.125061
v 44.357605 103.120422 61.125061
v 58.953892 103.120422 61.125061
v 58.953892 103.120422 116.148514
v 58.953892 103.120422 124.009003
v -43.220123 103.120422 124.009003
v -57.816410 103.120422 124.009003
v -43.220123 103.120422 61.125061
v -14.027547 103.120422 61.125061
v 0.568741 103.120422 61.125061
v 15.165029 103.120422 61.125061
v 44.357605 103.120422 124.009003
v 15.165029 103.120422 124.009003
v 0.568741 103.120422 124.009003
v -14.027547 103.120422 124.009003
v 44.357605 103.120422 116.148514
v 15.165029 103.120422 116.148514
v 0.568741 103.120422 116.148514
v -14.027547 103.120422 116.148514
v -43.220123 103.120422 116.148514
v -57.816410 103.120422 116.148514
v -57.816410 103.120422 100.427528
v -57.816410 103.120422 92.567032
v -57.816410 103.120422 84.706535
v 58.953892 103.120422 68.985550
v 58.953892 103.120422 84.706535
v 58.953892 103.120422 92.567032
v 58.953892 103.120422 100.427528
v 44.357605 103.120422 68.985550
v 44.357605 103.120422 84.706535
v 44.357605 103.120422 92.567032
v 44.357605 103.120422 100.427528
v 15.165029 103.120422 68.985550
v 0.568741 103.120422 68.985550
v -14.027547 103.120422 68.985550
v -43.220123 103.120422 68.985550
v -43.220123 103.120422 84.706535
v -43.220123 103.120422 92.567032
v -43.220123 103.120422 100.427528
v -43.220123 80.597443 61.125061
v -28.623835 80.597443 61.125061
v -14.027547 80.597443 61.125061
v 15.165029 80.597443 61.125061
v 29.761316 80.597443 61.125061
v 44.357605 80.597443 61.125061
v 44.357605 80.597443 124.009003
v 29.761316 80.597443 124.009003
v 15.165029 80.597443 124.009003
v -14.027547 80.597443 124.009003
v -28.623835 80.597443 124.009003
v -43.220123 80.597443 124.009003
v 44.357605 80.597443 116.148514
v 29.761316 80.597443 116.148514
v 15.165029 80.597443 116.148514
v -14.027547 80.597443 116.148514
v -28.623835 80.597443 116.148514
v -43.220123 80.597443 116.148514
v -57.816410 80.597443 116.148514
v -57.816410 80.597443 108.288017
v -57.816410 80.597443 100.427528
v -57.816410 80.597443 84.706535
v -57.816410 80.597443 76.846046
v -57.816410 80.597443 68.985550
v 58.953892 80.597443 68.985550
v 58.953892 80.597443 76.846046
v 58.953892 80.597443 84.706535
v 58.953892 80.597443 100.427528
v 58.953892 80.597443 108.288017
v 58.953892 80.597443 116.148514
v 44.357605 80.597443 68.985550
v 44.357605 80.597443 76.846046
v 44.357605 80.597443 84.706535
v 44.357605 80.597443 100.427528
v 44.357605 80.597443 108.288017
v 29.761316 80.597443 68.985550
v 15.165029 80.597443 68.985550
v -14.027547 80.597443 68.985550
v -28.623835 80.597443 68.985550
v -43.220123 80.597443 68.985550
v -43.220123 80.597443 76.846046
v -43.220123 80.597443 84.706535
v -43.220123 80.597443 100.427528
v -43.220123 80.597443 108.288017
v -79.063454 -14.166416 144.683517
v -79.063454 45.745586 144.683517
v -79.063454 -14.166416 40.450550
v -79.063454 45.745586 40.450550
v 80.200935 -14.166416 144.683517
v 80.200935 45.745586 144.683517
v 80.200935 -14.166416 40.450550
v 80.200935 45.745586 40.450550
v -86.426804 -8.084431 89.701981
v -86.426804 74.904213 89.701981
v -84.810394 -8.084431 89.861183
v -84.810394 74.904213 89.861183
v -83.256081 -8.084431 90.332672
v -83.256081 74.904213 90.332672
v -81.823639 -8.084431 91.098335
v -81.823639 74.904213 91.098335
v -80.568077 -8.084431 92.128746
v -80.568077 74.904213 92.128746
v -79.537666 -8.084431 93.384308
v -79.537666 74.904213 93.384308
v -78.772011 -8.084431 94.816757
v -78.772011 74.904213 94.816757
v -78.300522 -8.084431 96.371063
v -78.300522 74.904213 96.371063
v -78.141312 -8.084431 97.987488
v -78.141312 74.904213 97.987488
v -78.300522 -8.084431 99.603912
v -78.300522 74.904213 99.603912
v -78.772011 -8.084431 101.158211
v -78.772011 74.904213 101.158211
v -79.537666 -8.084431 102.590668
v -79.537666 74.904213 102.590668
v -80.568077 -8.084431 103.846222
v -80.568077 74.904213 103.846222
v -81.823639 -8.084431 104.876633
v -81.823639 74.904213 104.876633
v -83.256081 -8.084431 105.642296
v -83.256081 74.904213 105.642296
v -84.810394 -8.084431 106.113792
v -84.810394 74.904213 106.113792
v -86.426804 -8.084431 106.272995
v -86.426804 74.904213 106.272995
v -88.043243 -8.084431 106.113792
v -88.043243 74.904213 106.113792
v -89.597542 -8.084431 105.642296
v -89.597542 74.904213 105.642296
v -91.030006 -8.084431 104.876633
v -91.030006 74.904213 104.876633
v -92.285545 -8.084431 103.846222
v -92.285545 74.904213 103.846222
v -93.315964 -8.084431 102.590668
v -93.315964 74.904213 102.590668
v -94.081627 -8.084431 101.158211
v -94.081627 74.904213 101.158211
v -94.553116 -8.084431 99.603912
v -94.553116 74.904213 99.603912
v -94.712326 -8.084431 97.987488
v -94.712326 74.904213 97.987488
v -94.553116 -8.084431 96.371063
v -94.553116 74.904213 96.371063
v -94.081627 -8.084431 94.816757
v -94.081627 74.904213 94.816757
v -93.315964 -8.084431 93.384308
v -93.315964 74.904213 93.384308
v -92.285545 -8.084431 92.128746
v -92.285545 74.904213 92.128746
v -91.030006 -8.084431 91.098335
v -91.030006 74.904213 91.098335
v -89.597542 -8.084431 90.332672
v -89.597542 74.904213 90.332672
v -88.043243 -8.084431 89.861183
v -88.043243 74.904213 89.861183
v -86.312180 72.164948 85.037338
v -86.312180 77.170029 87.259918
v -86.312180 80.670654 85.037338
v -86.312180 84.215927 87.259918
v -83.785728 72.164948 85.286171
v -84.219330 77.170029 87.466042
v -83.785728 80.670654 85.286171
v -84.219330 84.215927 87.466042
v -81.356361 72.164948 86.023109
v -82.206909 77.170029 88.076508
v -81.356361 80.670654 86.023109
v -82.206909 84.215927 88.076508
v -79.117470 72.164948 87.219833
v -80.352264 77.170029 89.067841
v -79.117470 80.670654 87.219833
v -80.352264 84.215927 89.067841
v -77.155045 72.164948 88.830345
v -78.726639 77.170029 90.401947
v -77.155045 80.670654 88.830345
v -78.726639 84.215927 90.401947
v -77.392540 77.170029 92.027565
v -75.544525 72.164948 90.792770
v -75.544525 80.670654 90.792770
v -77.392540 84.215927 92.027565
v -74.347801 72.164948 93.031677
v -76.401199 77.170029 93.882225
v -76.401199 84.215927 93.882225
v -74.347801 80.670654 93.031677
v -75.790741 77.170029 95.894638
v -73.610863 72.164948 95.461037
v -73.610863 80.670654 95.461037
v -75.790741 84.215927 95.894638
v -75.584618 77.170029 97.987488
v -73.362038 72.164948 97.987488
v -73.362038 80.670654 97.987488
v -75.584618 84.215927 97.987488
v -73.610863 72.164948 100.513931
v -75.790741 77.170029 100.080330
v -73.610863 80.670654 100.513931
v -75.790741 84.215927 100.080330
v -74.347801 72.164948 102.943291
v -76.401199 77.170029 102.092751
v -74.347801 80.670654 102.943291
v -76.401199 84.215927 102.092751
v -75.544525 72.164948 105.182205
v -77.392540 77.170029 103.947403
v -75.544525 80.670654 105.182205
v -77.392540 84.215927 103.947403
v -77.155045 72.164948 107.144623
v -78.726639 77.170029 105.573021
v -77.155045 80.670654 107.144623
v -78.726639 84.215927 105.573021
v -79.117470 72.164948 108.755142
v -80.352264 77.170029 106.907135
v -79.117470 80.670654 108.755142
v -80.352264 84.215927 106.907135
v -81.356361 72.164948 109.951859
v -82.206909 77.170029 107.898468
v -82.206909 84.215927 107.898468
v -81.356361 80.670654 109.951859
v -83.785728 72.164948 110.688797
v -84.219330 77.170029 108.508926
v -84.219330 84.215927 108.508926
v -83.785728 80.670654 110.688797
v -86.312180 77.170029 108.715057
v -86.312180 72.164948 110.937637
v -86.312180 84.215927 108.715057
v -86.312180 80.670654 110.937637
v -88.405029 77.170029 108.508926
v -88.838631 72.164948 110.688797
v -88.405029 84.215927 108.508926
v -88.838631 80.670654 110.688797
v -91.267998 72.164948 109.951859
v -90.417450 77.170029 107.898468
v -90.417450 84.215927 107.898468
v -91.267998 80.670654 109.951859
v -92.272102 77.170029 106.907135
v -93.506897 72.164948 108.755142
v -93.506897 80.670654 108.755142
v -92.272102 84.215927 106.907135
v -95.469322 72.164948 107.144623
v -93.897720 77.170029 105.573021
v -95.469322 80.670654 107.144623
v -93.897720 84.215927 105.573021
v -97.079834 72.164948 105.182205
v -95.231827 77.170029 103.947403
v -97.079834 80.670654 105.182205
v -95.231827 84.215927 103.947403
v -98.276550 72.164948 102.943291
v -96.223160 77.170029 102.092751
v -98.276550 80.670654 102.943291
v -96.223160 84.215927 102.092751
v -99.013496 72.164948 100.513931
v -96.833618 77.170029 100.080330
v -99.013496 80.670654 100.513931
v -96.833618 84.215927 100.080330
v -99.262321 72.164948 97.987488
v -97.039742 77.170029 97.987488
v -99.262321 80.670654 97.987488
v -97.039742 84.215927 97.987488
v -99.013496 72.164948 95.461037
v -96.833618 77.170029 95.894638
v -99.013496 80.670654 95.461037
v -96.833618 84.215927 95.894638
v -98.276550 72.164948 93.031677
v -96.223160 77.170029 93.882225
v -98.276550 80.670654 93.031677
v -96.223160 84.215927 93.882225
v -97.079834 72.164948 90.792770
v -95.231827 77.170029 92.027565
v -97.079834 80.670654 90.792770
v -95.231827 84.215927 92.027565
v -93.897720 77.170029 90.401947
v -95.469322 72.164948 88.830345
v -93.897720 84.215927 90.401947
v -95.469322 80.670654 88.830345
v -92.272102 77.170029 89.067841
v -93.506897 72.164948 87.219833
v -92.272102 84.215927 89.067841
v -93.506897 80.670654 87.219833
v -91.267998 72.164948 86.023109
v -90.417450 77.170029 88.076508
v -91.267998 80.670654 86.023109
v -90.417450 84.215927 88.076508
v -88.405029 77.170029 87.466042
v -88.838631 72.164948 85.286171
v -88.405029 84.215927 87.466042
v -88.838631 80.670654 85.286171
v -83.785728 92.821083 85.286171
v -86.312180 92.821083 85.037338
v -81.356361 92.821083 86.023109
v -77.155045 92.821083 88.830345
v -75.544525 92.821083 90.792770
v -74.347801 92.821083 93.031677
v -73.362038 92.821083 97.987488
v -73.610863 92.821083 100.513931
v -75.544525 92.821083 105.182205
v -77.155045 92.821083 107.144623
v -79.117470 92.821083 108.755142
v -97.940186 92.821083 110.688797
v -100.466629 92.821083 110.937637
v -102.993080 92.821083 110.688797
v -93.506897 92.821083 108.755142
v -95.469322 92.821083 107.144623
v -97.079834 92.821083 105.182205
v -98.276550 92.821083 102.943291
v -99.262321 92.821083 97.987488
v -99.013496 92.821083 95.461037
v -98.276550 92.821083 93.031677
v -95.469322 92.821083 88.830345
v -93.506897 92.821083 87.219833
v -91.267998 92.821083 86.023109
v -93.897720 92.821083 90.401947
v -92.272102 92.821083 89.067841
v -86.312180 92.821083 87.259918
v -90.417450 92.821083 88.076508
v -97.039742 92.821083 97.987488
v -96.223160 92.821083 102.092751
v -93.897720 92.821083 105.573021
v -95.231827 92.821083 103.947403
v -84.219330 92.821083 108.508926
v -86.312180 92.821083 108.715057
v -80.352264 92.821083 106.907135
v -78.726639 92.821083 105.573021
v -78.726639 92.821083 90.401947
v -77.392540 92.821083 92.027565
v -75.584618 92.821083 97.987488
v -76.401199 92.821083 93.882225
v -96.833618 92.821083 95.894638
v -96.223160 92.821083 93.882225
v -92.272102 92.821083 106.907135
v -84.219330 92.821083 87.466042
v -88.405029 92.821083 108.508926
v -82.206909 92.821083 88.076508
v -75.790741 92.821083 100.080330
v -77.392540 92.821083 103.947403
v 86.586105 -8.084431 89.701981
v 86.586105 74.904213 89.701981
v 88.202522 -8.084431 89.861183
v 88.202522 74.904213 89.861183
v 89.756813 -8.084431 90.332672
v 89.756813 74.904213 90.332672
v 91.189262 -8.084431 91.098335
v 91.189262 74.904213 91.098335
v 92.444839 -8.084431 92.128746
v 92.444839 74.904213 92.128746
v 93.475250 -8.084431 93.384308
v 93.475250 74.904213 93.384308
v 94.240891 -8.084431 94.816757
v 94.240891 74.904213 94.816757
v 94.712410 -8.084431 96.371063
v 94.712410 74.904213 96.371063
v 94.871613 -8.084431 97.987488
v 94.871613 74.904213 97.987488
v 94.712410 -8.084431 99.603912
v 94.712410 74.904213 99.603912
v 94.240891 -8.084431 101.158211
v 94.240891 74.904213 101.158211
v 93.475250 -8.084431 102.590668
v 93.475250 74.904213 102.590668
v 92.444839 -8.084431 103.846222
v 92.444839 74.904213 103.846222
v 91.189262 -8.084431 104.876633
v 91.189262 74.904213 104.876633
v 89.756813 -8.084431 105.642296
v 89.756813 74.904213 105.642296
v 88.202522 -8.084431 106.113792
v 88.202522 74.904213 106.113792
v 86.586105 -8.084431 106.272995
v 86.586105 74.904213 106.272995
v 84.969673 -8.084431 106.113792
v 84.969673 74.904213 106.113792
v 83.415382 -8.084431 105.642296
v 83.415382 74.904213 105.642296
v 81.982933 -8.084431 104.876633
v 81.982933 74.904213 104.876633
v 80.727348 -8.084431 103.846222
v 80.727348 74.904213 103.846222
v 79.696953 -8.084431 102.590668
v 79.696953 74.904213 102.590668
v 78.931313 -8.084431 101.158211
v 78.931313 74.904213 101.158211
v 78.459793 -8.084431 99.603912
v 78.459793 74.904213 99.603912
v 78.300598 -8.084431 97.987488
v 78.300598 74.904213 97.987488
v 78.459793 -8.084431 96.371063
v 78.459793 74.904213 96.371063
v 78.931313 -8.084431 94.816757
v 78.931313 74.904213 94.816757
v 79.696953 -8.084431 93.384308
v 79.696953 74.904213 93.384308
v 80.727348 -8.084431 92.128746
v 80.727348 74.904213 92.128746
v 81.982933 -8.084431 91.098335
v 81.982933 74.904213 91.098335
v 83.415382 -8.084431 90.332672
v 83.415382 74.904213 90.332672
v 84.969673 -8.084431 89.861183
v 84.969673 74.904213 89.861183
v 86.700737 72.164948 85.037338
v 86.700737 77.170029 87.259918
v 86.700737 80.670654 85.037338
v 86.700737 84.215927 87.259918
v 89.227188 72.164948 85.286171
v 88.793571 77.170029 87.466042
v 89.227188 80.670654 85.286171
v 88.793571 84.215927 87.466042
v 91.656548 72.164948 86.023109
v 90.806007 77.170029 88.076508
v 91.656548 80.670654 86.023109
v 90.806007 84.215927 88.076508
v 93.895462 72.164948 87.219833
v 92.660652 77.170029 89.067841
v 93.895462 80.670654 87.219833
v 92.660652 84.215927 89.067841
v 95.857864 72.164948 88.830345
v 94.286285 77.170029 90.401947
v 95.857864 80.670654 88.830345
v 94.286285 84.215927 90.401947
v 95.620377 77.170029 92.027565
v 97.468376 72.164948 90.792770
v 97.468376 80.670654 90.792770
v 95.620377 84.215927 92.027565
v 98.665100 72.164948 93.031677
v 96.611717 77.170029 93.882225
v 96.611717 84.215927 93.882225
v 98.665100 80.670654 93.031677
v 97.222168 77.170029 95.894638
v 99.402046 72.164948 95.461037
v 99.402046 80.670654 95.461037
v 97.222168 84.215927 95.894638
v 97.428299 77.170029 97.987488
v 99.650887 72.164948 97.987488
v 99.650887 80.670654 97.987488
v 97.428299 84.215927 97.987488
v 99.402046 72.164948 100.513931
v 97.222168 77.170029 100.080330
v 99.402046 80.670654 100.513931
v 97.222168 84.215927 100.080330
v 98.665100 72.164948 102.943291
v 96.611717 77.170029 102.092751
v 98.665100 80.670654 102.943291
v 96.611717 84.215927 102.092751
v 97.468376 72.164948 105.182205
v 95.620377 77.170029 103.947403
v 97.468376 80.670654 105.182205
v 95.620377 84.215927 103.947403
v 95.857864 72.164948 107.144623
v 94.286285 77.170029 105.573021
v 95.857864 80.670654 107.144623
v 94.286285 84.215927 105.573021
v 93.895462 72.164948 108.755142
v 92.660652 77.170029 106.907135
v 93.895462 80.670654 108.755142
v 92.660652 84.215927 106.907135
v 91.656548 72.164948 109.951859
v 90.806007 77.170029 107.898468
v 90.806007 84.215927 107.898468
v 91.656548 80.670654 109.951859
v 89.227188 72.164948 110.688797
v 88.793571 77.170029 108.508926
v 88.793571 84.215927 108.508926
v 89.227188 80.670654 110.688797
v 86.700737 77.170029 108.715057
v 86.700737 72.164948 110.937637
v 86.700737 84.215927 108.715057
v 86.700737 80.670654 110.937637
v 84.607903 77.170029 108.508926
v 84.174286 72.164948 110.688797
v 84.607903 84.215927 108.508926
v 84.174286 80.670654 110.688797
v 81.744942 72.164948 109.951859
v 82.595474 77.170029 107.898468
v 82.595474 84.215927 107.898468
v 81.744942 80.670654 109.951859
v 80.740822 77.170029 106.907135
v 79.506004 72.164948 108.755142
v 79.506004 80.670654 108.755142
v 80.740822 84.215927 106.907135
v 77.543617 72.164948 107.144623
v 79.115196 77.170029 105.573021
v 77.543617 80.670654 107.144623
v 79.115196 84.215927 105.573021
v 75.933098 72.164948 105.182205
v 77.781113 77.170029 103.947403
v 75.933098 80.670654 105.182205
v 77.781113 84.215927 103.947403
v 74.736366 72.164948 102.943291
v 76.789764 77.170029 102.092751
v 74.736366 80.670654 102.943291
v 76.789764 84.215927 102.092751
v 73.999420 72.164948 100.513931
v 76.179306 77.170029 100.080330
v 73.999420 80.670654 100.513931
v 76.179306 84.215927 100.080330
v 73.750587 72.164948 97.987488
v 75.973167 77.170029 97.987488
v 73.750587 80.670654 97.987488
v 75.973167 84.215927 97.987488
v 73.999420 72.164948 95.461037
v 76.179306 77.170029 95.894638
v 73.999420 80.670654 95.461037
v 76.179306 84.215927 95.894638
v 74.736366 72.164948 93.031677
v 76.789764 77.170029 93.882225
v 74.736366 80.670654 93.031677
v 76.789764 84.215927 93.882225
v 75.933098 72.164948 90.792770
v 77.781113 77.170029 92.027565
v 75.933098 80.670654 90.792770
v 77.781113 84.215927 92.027565
v 79.115196 77.170029 90.401947
v 77.543617 72.164948 88.830345
v 79.115196 84.215927 90.401947
v 77.543617 80.670654 88.830345
v 80.740822 77.170029 89.067841
v 79.506004 72.164948 87.219833
v 80.740822 84.215927 89.067841
v 79.506004 80.670654 87.219833
v 81.744942 72.164948 86.023109
v 82.595474 77.170029 88.076508
v 81.744942 80.670654 86.023109
v 82.595474 84.215927 88.076508
v 84.607903 77.170029 87.466042
v 84.174286 72.164948 85.286171
v 84.607903 84.215927 87.466042
v 84.174286 80.670654 85.286171
v 89.227188 92.821083 85.286171
v 86.700737 92.821083 85.037338
v 91.656548 92.821083 86.023109
v 95.857864 92.821083 88.830345
v 97.468376 92.821083 90.792770
v 98.665100 92.821083 93.031677
v 99.650887 92.821083 97.987488
v 99.402046 92.821083 100.513931
v 97.468376 92.821083 105.182205
v 95.857864 92.821083 107.144623
v 93.895462 92.821083 108.755142
v 89.227188 92.821083 110.688797
v 86.700737 92.821083 110.937637
v 84.174286 92.821083 110.688797
v 79.506004 92.821083 108.755142
v 77.543617 92.821083 107.144623
v 75.933098 92.821083 105.182205
v 74.736366 92.821083 102.943291
v 73.750587 92.821083 97.987488
v 73.999420 92.821083 95.461037
v 74.736366 92.821083 93.031677
v 77.543617 92.821083 88.830345
v 79.506004 92.821083 87.219833
v 81.744942 92.821083 86.023109
v 79.115196 92.821083 90.401947
v 80.740822 92.821083 89.067841
v 86.700737 92.821083 87.259918
v 82.595474 92.821083 88.076508
v 75.973167 92.821083 97.987488
v 76.789764 92.821083 102.092751
v 79.115196 92.821083 105.573021
v 77.781113 92.821083 103.947403
v 88.793571 92.821083 108.508926
v 86.700737 92.821083 108.715057
v 92.660652 92.821083 106.907135
v 94.286285 92.821083 105.573021
v 94.286285 92.821083 90.401947
v 95.620377 92.821083 92.027565
v 97.428299 92.821083 97.987488
v 96.611717 92.821083 93.882225
v 76.179306 92.821083 95.894638
v 76.789764 92.821083 93.882225
v 80.740822 92.821083 106.907135
v 88.793571 92.821083 87.466042
v 84.607903 92.821083 108.508926
v 90.806007 92.821083 88.076508
v 97.222168 92.821083 100.080330
v 95.620377 92.821083 103.947403
vn -1.0000 -0.0000 -0.0000
vn -0.0000 -0.0000 -1.0000
vn 1.0000 -0.0000 -0.0000
vn -0.0000 -0.0000 1.0000
vn -0.0000 -1.0000 -0.0000
vn -0.0000 1.0000 -0.0000
vn 0.0980 -0.0000 -0.9952
vn 0.2903 -0.0000 -0.9569
vn 0.4714 -0.0000 -0.8819
vn 0.6344 -0.0000 -0.7730
vn 0.7730 -0.0000 -0.6344
vn 0.8819 -0.0000 -0.4714
vn 0.9569 -0.0000 -0.2903
vn 0.9952 -0.0000 -0.0980
vn 0.9952 -0.0000 0.0980
vn 0.9569 -0.0000 0.2903
vn 0.8819 -0.0000 0.4714
vn 0.7730 -0.0000 0.6344
vn 0.6344 -0.0000 0.7730
vn 0.4714 -0.0000 0.8819
vn 0.2903 -0.0000 0.9569
vn 0.0980 -0.0000 0.9952
vn -0.0980 -0.0000 0.9952
vn -0.2903 -0.0000 0.9569
vn -0.4714 -0.0000 0.8819
vn -0.6344 -0.0000 0.7730
vn -0.7730 -0.0000 0.6344
vn -0.8819 -0.0000 0.4714
vn -0.9569 -0.0000 0.2903
vn -0.9952 -0.0000 0.0980
vn -0.9952 -0.0000 -0.0980
vn -0.9569 -0.0000 -0.2903
vn -0.8819 -0.0000 -0.4714
vn -0.7730 -0.0000 -0.6344
vn -0.6344 -0.0000 -0.7730
vn -0.4714 -0.0000 -0.8819
vn -0.2903 -0.0000 -0.9569
vn -0.0980 -0.0000 -0.9952
vn 0.0974 0.1134 0.9888
vn -0.0974 -0.1134 0.9888
vn 0.5556 -0.0000 -0.8315
vn 0.2959 -0.1244 -0.9471
vn -0.8315 -0.0000 0.5556
vn 0.8315 -0.0000 -0.5556
vn 0.4450 0.1735 0.8785
vn -0.3841 -0.1497 -0.9111
vn 0.8315 -0.0000 0.5556
vn -0.1951 -0.0000 0.9808
vn 0.3827 -0.0000 -0.9239
vn -0.3827 -0.0000 -0.9239
vn -0.7071 -0.0000 0.7071
vn 0.9239 -0.0000 -0.3827
vn 0.9239 -0.0000 0.3827
vn 0.3827 -0.0000 0.9239
vn -0.7071 -0.0000 -0.7071
vn 0.9808 -0.0000 -0.1951
vn -0.9808 -0.0000 -0.1951
vt 3.499135 -0.905010
vt 3.499135 0.413853
vt -1.559150 -0.905010
vt -1.559150 0.413853
vt -2.281762 0.413853
vt -2.281762 -0.905010
vt -2.281762 -0.905009
vt -2.281762 0.413854
vt -2.281762 -0.905009
vt 2.776522 -0.905009
vt 2.776522 0.413854
vt 3.499135 0.413854
vt 3.499135 -0.905009
vt -1.559150 -0.905009
vt -1.559150 -0.905009
vt -0.113926 0.413853
vt -0.113926 1.132929
vt 1.331298 0.413853
vt 0.608686 0.413853
vt 0.608686 1.132929
vt 1.331298 1.132929
vt -1.559150 0.413854
vt -1.559150 0.842980
vt -2.281762 0.842980
vt -0.836538 0.413854
vt -0.836538 0.842980
vt -1.559150 1.132929
vt 3.499135 1.132929
vt 2.053909 0.413853
vt 2.776522 0.413853
vt 2.776522 0.842980
vt 2.053909 0.842980
vt 3.499135 -0.905009
vt 2.776522 -0.905009
vt 2.053909 -0.905009
vt 2.053909 -0.905009
vt 1.331298 -0.905009
vt 1.331298 -0.905009
vt 0.608686 -0.905009
vt 0.608686 -0.905009
vt -0.113926 -0.905009
vt -0.113926 -0.905009
vt -0.836538 -0.905009
vt -0.836538 -0.905009
vt -0.113926 0.413854
vt 0.608686 0.413854
vt 1.331298 0.413854
vt 2.053909 0.413854
vt 2.776522 -0.905010
vt 2.053909 -0.905010
vt 1.331298 -0.905010
vt 0.608686 -0.905010
vt -0.113926 -0.905010
vt -0.836538 0.413853
vt -0.836538 -0.905010
vt 0.608686 1.132929
vt -0.113926 1.132929
vt 2.776522 1.132929
vt 3.499135 1.132929
vt -1.559150 1.132929
vt -2.281762 1.132929
vt 1.331298 0.842980
vt 3.499135 0.842980
vt -0.113926 0.842980
vt 3.499135 1.958015
vt 2.776522 1.958015
vt -2.281762 1.958015
vt -2.281762 1.132929
vt -1.559150 1.958015
vt 2.776522 1.132929
vt 1.331298 1.132929
vt 1.331298 1.958015
vt -0.113926 1.958015
vt 0.608686 1.958015
vt 4.759618 -0.609434
vt 4.776968 1.524712
vt 2.642822 1.542063
vt 2.625471 -0.592084
vt 0.508675 1.559414
vt 0.491325 -0.574733
vt -1.625471 1.576765
vt -1.642822 -0.557382
vt -3.759618 1.594116
vt -3.776968 -0.540031
vt 0.473974 -2.708879
vt -1.660173 -2.691528
vt 0.526026 3.693560
vt -1.608120 3.710911
vt 3.497004 -1.316562
vt 3.497004 1.502641
vt 3.442093 1.502641
vt 3.442093 -1.316562
vt 3.389291 1.502641
vt 3.389291 -1.316562
vt 3.340630 1.502641
vt 3.340630 -1.316562
vt 3.297977 1.502641
vt 3.297977 -1.316562
vt 3.262973 1.502641
vt 3.262973 -1.316562
vt 3.236963 1.502641
vt 3.236963 -1.316562
vt 3.220946 1.502641
vt 3.220946 -1.316562
vt 3.215538 1.502641
vt 3.215538 -1.316562
vt 3.551916 1.502641
vt 3.551916 -1.316562
vt 3.604716 1.502641
vt 3.604716 -1.316562
vt 3.653378 1.502641
vt 3.653378 -1.316562
vt 3.696030 1.502641
vt 3.696030 -1.316562
vt 3.731035 1.502641
vt 3.731035 -1.316562
vt 3.757044 1.502641
vt 3.757044 -1.316562
vt 3.773062 1.502641
vt 3.773062 -1.316562
vt 3.778470 1.502641
vt 3.778470 -1.316562
vt 3.493109 1.409585
vt 3.493109 1.698532
vt 3.407284 1.698532
vt 3.407284 1.409585
vt 3.324756 1.698532
vt 3.324756 1.409585
vt 3.248698 1.698532
vt 3.248698 1.409585
vt 3.182033 1.698532
vt 3.182033 1.409585
vt 3.127322 1.698532
vt 3.127322 1.409585
vt 3.086668 1.698532
vt 3.086668 1.409585
vt 3.061634 1.698532
vt 3.061634 1.409585
vt 3.053181 1.698532
vt 3.053181 1.409585
vt 3.578936 1.698532
vt 3.578936 1.409585
vt 3.661463 1.698532
vt 3.661463 1.409585
vt 3.737521 1.698532
vt 3.737521 1.409585
vt 3.804186 1.698532
vt 3.804186 1.409585
vt 3.858898 1.698532
vt 3.858898 1.409585
vt 3.899550 1.698532
vt 3.899550 1.409585
vt 3.924585 1.698532
vt 3.924585 1.409585
vt 3.933039 1.698532
vt 3.933039 1.409585
vt 3.053181 2.111294
vt 3.061634 2.111294
vt 3.182033 2.111294
vt 3.127322 2.111294
vt 3.493109 2.111294
vt 3.407284 2.111294
vt 3.086668 2.111294
vt 3.324756 2.111294
vt 3.737521 2.111294
vt 3.804186 2.111294
vt 3.888124 2.111294
vt 3.973950 2.111294
vt 3.933039 2.111294
vt 3.924585 2.111294
vt 3.858898 2.111294
vt 3.661463 2.111294
vt 4.059776 2.111294
vt 3.899550 2.111294
vt 3.248698 2.111294
vt 3.493109 1.579613
vt 3.422014 1.579613
vt 3.422014 1.818969
vt 3.493109 1.818969
vt 3.353650 1.579613
vt 3.353650 1.818969
vt 3.290646 1.579613
vt 3.290646 1.818969
vt 3.235421 1.579613
vt 3.235421 1.818969
vt 3.190101 1.579613
vt 3.190101 1.818969
vt 3.156424 1.579613
vt 3.156424 1.818969
vt 3.135686 1.579613
vt 3.135686 1.818969
vt 3.128684 1.579613
vt 3.128684 1.818969
vt 3.564206 1.579613
vt 3.564206 1.818969
vt 3.632570 1.579613
vt 3.632570 1.818969
vt 3.695574 1.579613
vt 3.695574 1.818969
vt 3.750797 1.579613
vt 3.750797 1.818969
vt 3.796118 1.579613
vt 3.796118 1.818969
vt 3.829795 1.579613
vt 3.829795 1.818969
vt 3.850533 1.579613
vt 3.850533 1.818969
vt 3.857535 1.579613
vt 3.857535 1.818969
vt 3.135686 2.111294
vt 3.128684 2.111294
vt 3.190101 2.111294
vt 3.235421 2.111294
vt 3.422014 2.111294
vt 3.290646 2.111294
vt 3.156424 2.111294
vt 3.353650 2.111294
vt 3.750797 2.111294
vt 3.695574 2.111294
vt 3.857535 2.111294
vt 3.850533 2.111294
vt 3.796118 2.111294
vt 3.632570 2.111294
vt 3.564206 2.111294
vt 3.829795 2.111294
vt -2.380409 -1.316562
vt -2.380409 1.502641
vt -2.435321 1.502641
vt -2.435321 -1.316562
vt -2.488121 1.502641
vt -2.488121 -1.316562
vt -2.536783 1.502641
vt -2.536783 -1.316562
vt -2.579436 1.502641
vt -2.579436 -1.316562
vt -2.614440 1.502641
vt -2.614440 -1.316562
vt -2.640450 1.502641
vt -2.640450 -1.316562
vt -2.656467 1.502641
vt -2.656467 -1.316562
vt -2.661875 1.502641
vt -2.661875 -1.316562
vt -2.325497 1.502641
vt -2.325497 -1.316562
vt -2.272697 1.502641
vt -2.272697 -1.316562
vt -2.224035 1.502641
vt -2.224035 -1.316562
vt -2.181382 1.502641
vt -2.181382 -1.316562
vt -2.146378 1.502641
vt -2.146378 -1.316562
vt -2.120368 1.502641
vt -2.120368 -1.316562
vt -2.104351 1.502641
vt -2.104351 -1.316562
vt -2.098943 1.502641
vt -2.098943 -1.316562
vt -2.384304 1.409585
vt -2.384304 1.698532
vt -2.470129 1.698532
vt -2.470129 1.409585
vt -2.552657 1.698532
vt -2.552657 1.409585
vt -2.628715 1.698532
vt -2.628715 1.409585
vt -2.695380 1.698532
vt -2.695380 1.409585
vt -2.750090 1.698532
vt -2.750090 1.409585
vt -2.790744 1.698532
vt -2.790744 1.409585
vt -2.815779 1.698532
vt -2.815779 1.409585
vt -2.824232 1.698532
vt -2.824232 1.409585
vt -2.298478 1.698532
vt -2.298478 1.409585
vt -2.215950 1.698532
vt -2.215950 1.409585
vt -2.139892 1.698532
vt -2.139892 1.409585
vt -2.073227 1.698532
vt -2.073227 1.409585
vt -2.018517 1.698532
vt -2.018517 1.409585
vt -1.977862 1.698532
vt -1.977862 1.409585
vt -1.952828 1.698532
vt -1.952828 1.409585
vt -1.944375 1.698532
vt -1.944375 1.409585
vt -2.824232 2.111294
vt -2.815779 2.111294
vt -2.695380 2.111294
vt -2.750090 2.111294
vt -2.384304 2.111294
vt -2.470129 2.111294
vt -2.790744 2.111294
vt -2.552657 2.111294
vt -2.139892 2.111294
vt -2.073227 2.111294
vt -1.944375 2.111294
vt -1.952828 2.111294
vt -2.018517 2.111294
vt -2.215950 2.111294
vt -2.298478 2.111294
vt -1.977862 2.111294
vt -2.628715 2.111294
vt -2.384304 1.579613
vt -2.455399 1.579613
vt -2.455399 1.818969
vt -2.384304 1.818969
vt -2.523763 1.579613
vt -2.523763 1.818969
vt -2.586767 1.579613
vt -2.586767 1.818969
vt -2.641992 1.579613
vt -2.641992 1.818969
vt -2.687312 1.579613
vt -2.687312 1.818969
vt -2.720989 1.579613
vt -2.720989 1.818969
vt -2.741726 1.579613
vt -2.741726 1.818969
vt -2.748729 1.579613
vt -2.748729 1.818969
vt -2.313208 1.579613
vt -2.313208 1.818969
vt -2.244843 1.579613
vt -2.244843 1.818969
vt -2.181839 1.579613
vt -2.181839 1.818969
vt -2.126616 1.579613
vt -2.126616 1.818969
vt -2.081295 1.579613
vt -2.081295 1.818969
vt -2.047618 1.579613
vt -2.047618 1.818969
vt -2.026881 1.579613
vt -2.026881 1.818969
vt -2.019878 1.579613
vt -2.019878 1.818969
vt -2.741726 2.111294
vt -2.748729 2.111294
vt -2.687312 2.111294
vt -2.641992 2.111294
vt -2.455399 2.111294
vt -2.586767 2.111294
vt -2.720989 2.111294
vt -2.523763 2.111294
vt -2.126616 2.111294
vt -2.181839 2.111294
vt -2.019878 2.111294
vt -2.026881 2.111294
vt -2.081295 2.111294
vt -2.244843 2.111294
vt -2.313208 2.111294
vt -2.047618 2.111294
s 0
usemtl マテリアル.121
f 37/1/1 50/2/1 4/2/1 3/1/1
f 9/3/2 22/4/2 8/5/2 7/6/2
f 51/7/3 64/8/3 6/8/3 5/9/3
f 23/10/4 36/11/4 2/12/4 1/13/4
f 162/14/5 51/7/5 5/9/5 29/15/5
f 79/16/3 20/16/3 174/17/3 196/17/3
f 93/18/4 86/19/4 197/20/4 198/21/4
f 62/8/2 69/22/2 276/23/2 270/24/2
f 31/25/4 30/22/4 249/23/4 250/26/4
f 22/4/1 65/4/1 192/27/1 165/27/1
f 4/2/1 50/2/1 163/28/1 164/28/1
f 69/22/1 70/22/1 277/23/1 276/23/1
f 17/29/2 16/30/2 243/31/2 244/32/2
f 43/33/5 120/34/5 23/10/5 1/13/5
f 120/34/5 127/35/5 24/36/5 23/10/5
f 127/35/5 134/37/5 25/38/5 24/36/5
f 134/37/5 141/39/5 26/40/5 25/38/5
f 141/39/5 148/41/5 27/42/5 26/40/5
f 148/41/5 155/43/5 28/44/5 27/42/5
f 155/43/5 162/14/5 29/15/5 28/44/5
f 5/9/4 6/8/4 30/22/4 29/15/4
f 29/15/4 30/22/4 31/25/4 28/44/4
f 28/44/4 31/25/4 32/45/4 27/42/4
f 27/42/4 32/45/4 33/46/4 26/40/4
f 26/40/4 33/46/4 34/47/4 25/38/4
f 25/38/4 34/47/4 35/48/4 24/36/4
f 24/36/4 35/48/4 36/11/4 23/10/4
f 3/1/2 4/2/2 16/30/2 15/49/2
f 15/49/2 16/30/2 17/29/2 14/50/2
f 14/50/2 17/29/2 18/18/2 13/51/2
f 13/51/2 18/18/2 19/19/2 12/52/2
f 12/52/2 19/19/2 20/16/2 11/53/2
f 11/53/2 20/16/2 21/54/2 10/55/2
f 10/55/2 21/54/2 22/4/2 9/3/2
f 10/55/5 9/3/5 156/3/5 149/55/5
f 149/55/5 156/3/5 157/3/5 150/55/5
f 150/55/5 157/3/5 158/3/5 151/55/5
f 151/55/5 158/3/5 159/3/5 152/55/5
f 152/55/5 159/3/5 160/14/5 153/43/5
f 153/43/5 160/14/5 161/14/5 154/43/5
f 154/43/5 161/14/5 162/14/5 155/43/5
f 11/53/5 10/55/5 149/55/5 142/53/5
f 142/53/5 149/55/5 150/55/5 143/53/5
f 143/53/5 150/55/5 151/55/5 144/53/5
f 144/53/5 151/55/5 152/55/5 145/53/5
f 145/53/5 152/55/5 153/43/5 146/41/5
f 146/41/5 153/43/5 154/43/5 147/41/5
f 147/41/5 154/43/5 155/43/5 148/41/5
f 12/52/5 11/53/5 142/53/5 135/52/5
f 135/52/5 142/53/5 143/53/5 136/52/5
f 136/52/5 143/53/5 144/53/5 137/52/5
f 137/52/5 144/53/5 145/53/5 138/52/5
f 138/52/5 145/53/5 146/41/5 139/39/5
f 139/39/5 146/41/5 147/41/5 140/39/5
f 140/39/5 147/41/5 148/41/5 141/39/5
f 13/51/5 12/52/5 135/52/5 128/51/5
f 128/51/5 135/52/5 136/52/5 129/51/5
f 129/51/5 136/52/5 137/52/5 130/51/5
f 130/51/5 137/52/5 138/52/5 131/51/5
f 131/51/5 138/52/5 139/39/5 132/37/5
f 132/37/5 139/39/5 140/39/5 133/37/5
f 133/37/5 140/39/5 141/39/5 134/37/5
f 14/50/5 13/51/5 128/51/5 121/50/5
f 121/50/5 128/51/5 129/51/5 122/50/5
f 122/50/5 129/51/5 130/51/5 123/50/5
f 123/50/5 130/51/5 131/51/5 124/50/5
f 124/50/5 131/51/5 132/37/5 125/35/5
f 125/35/5 132/37/5 133/37/5 126/35/5
f 126/35/5 133/37/5 134/37/5 127/35/5
f 15/49/5 14/50/5 121/50/5 114/49/5
f 114/49/5 121/50/5 122/50/5 115/49/5
f 115/49/5 122/50/5 123/50/5 116/49/5
f 116/49/5 123/50/5 124/50/5 117/49/5
f 117/49/5 124/50/5 125/35/5 118/34/5
f 118/34/5 125/35/5 126/35/5 119/34/5
f 119/34/5 126/35/5 127/35/5 120/34/5
f 3/1/5 15/49/5 114/49/5 37/1/5
f 37/1/5 114/49/5 115/49/5 38/1/5
f 38/1/5 115/49/5 116/49/5 39/1/5
f 39/1/5 116/49/5 117/49/5 40/1/5
f 40/1/5 117/49/5 118/34/5 41/33/5
f 41/33/5 118/34/5 119/34/5 42/33/5
f 42/33/5 119/34/5 120/34/5 43/33/5
f 109/11/3 108/30/3 283/31/3 284/31/3
f 100/29/6 107/30/6 108/30/6 101/29/6
f 101/29/6 108/30/6 109/11/6 102/48/6
f 102/48/6 109/11/6 110/11/6 103/48/6
f 103/48/6 110/11/6 111/11/6 104/48/6
f 104/48/6 111/11/6 112/11/6 105/48/6
f 105/48/6 112/11/6 113/11/6 106/48/6
f 113/11/1 36/11/1 254/31/1 260/31/1
f 93/18/6 100/29/6 101/29/6 94/18/6
f 94/18/6 101/29/6 102/48/6 95/47/6
f 95/47/6 102/48/6 103/48/6 96/47/6
f 96/47/6 103/48/6 104/48/6 97/47/6
f 97/47/6 104/48/6 105/48/6 98/47/6
f 98/47/6 105/48/6 106/48/6 99/47/6
f 85/45/2 92/46/2 181/56/2 180/57/2
f 86/19/6 93/18/6 94/18/6 87/19/6
f 87/19/6 94/18/6 95/47/6 88/46/6
f 88/46/6 95/47/6 96/47/6 89/46/6
f 89/46/6 96/47/6 97/47/6 90/46/6
f 90/46/6 97/47/6 98/47/6 91/46/6
f 91/46/6 98/47/6 99/47/6 92/46/6
f 32/45/3 85/45/3 180/57/3 176/57/3
f 79/16/6 86/19/6 87/19/6 80/16/6
f 80/16/6 87/19/6 88/46/6 81/45/6
f 81/45/6 88/46/6 89/46/6 82/45/6
f 82/45/6 89/46/6 90/46/6 83/45/6
f 83/45/6 90/46/6 91/46/6 84/45/6
f 84/45/6 91/46/6 92/46/6 85/45/6
f 67/22/4 60/8/4 269/24/4 275/23/4
f 72/54/6 79/16/6 80/16/6 73/54/6
f 73/54/6 80/16/6 81/45/6 74/25/6
f 74/25/6 81/45/6 82/45/6 75/25/6
f 75/25/6 82/45/6 83/45/6 76/25/6
f 76/25/6 83/45/6 84/45/6 77/25/6
f 77/25/6 84/45/6 85/45/6 78/25/6
f 108/30/3 107/30/3 282/31/3 283/31/3
f 65/4/6 72/54/6 73/54/6 66/4/6
f 66/4/6 73/54/6 74/25/6 67/22/6
f 67/22/6 74/25/6 75/25/6 68/22/6
f 68/22/6 75/25/6 76/25/6 69/22/6
f 69/22/6 76/25/6 77/25/6 70/22/6
f 70/22/6 77/25/6 78/25/6 71/22/6
f 46/12/4 111/11/4 202/58/4 185/59/4
f 66/4/1 67/22/1 275/23/1 274/23/1
f 16/30/1 107/30/1 282/31/1 243/31/1
f 71/22/1 30/22/1 175/60/1 179/60/1
f 62/8/3 61/8/3 190/61/3 191/61/3
f 34/47/3 99/47/3 258/62/3 252/62/3
f 58/5/2 65/4/2 273/23/2 267/24/2
f 109/11/2 48/12/2 187/59/2 200/58/2
f 93/18/3 18/18/3 245/62/3 280/62/3
f 65/4/1 66/4/1 274/23/1 273/23/1
f 48/12/1 47/12/1 186/59/1 187/59/1
f 61/8/3 60/8/3 189/61/3 190/61/3
f 44/12/4 113/11/4 260/31/4 261/63/4
f 79/16/4 72/54/4 278/26/4 279/64/4
f 9/3/5 7/6/5 57/6/5 156/3/5
f 156/3/5 57/6/5 56/6/5 157/3/5
f 157/3/5 56/6/5 55/6/5 158/3/5
f 158/3/5 55/6/5 54/6/5 159/3/5
f 159/3/5 54/6/5 53/7/5 160/14/5
f 160/14/5 53/7/5 52/7/5 161/14/5
f 161/14/5 52/7/5 51/7/5 162/14/5
f 7/6/3 8/5/3 58/5/3 57/6/3
f 57/6/3 58/5/3 59/5/3 56/6/3
f 56/6/3 59/5/3 60/8/3 55/6/3
f 55/6/3 60/8/3 61/8/3 54/6/3
f 54/6/3 61/8/3 62/8/3 53/7/3
f 53/7/3 62/8/3 63/8/3 52/7/3
f 52/7/3 63/8/3 64/8/3 51/7/3
f 1/13/1 2/12/1 44/12/1 43/33/1
f 43/33/1 44/12/1 45/12/1 42/33/1
f 42/33/1 45/12/1 46/12/1 41/33/1
f 41/33/1 46/12/1 47/12/1 40/1/1
f 40/1/1 47/12/1 48/12/1 39/1/1
f 39/1/1 48/12/1 49/2/1 38/1/1
f 38/1/1 49/2/1 50/2/1 37/1/1
f 186/59/1 185/59/1 225/65/1 226/65/1
f 202/58/3 201/58/3 241/66/3 242/66/3
f 168/61/3 167/61/3 207/67/3 208/67/3
f 185/59/4 202/58/4 242/66/4 225/65/4
f 184/59/1 170/59/1 210/65/1 224/65/1
f 201/58/3 200/58/3 240/66/3 241/66/3
f 166/68/2 165/27/2 205/69/2 206/67/2
f 169/58/3 183/58/3 223/66/3 209/66/3
f 199/70/3 171/70/3 211/66/3 239/66/3
f 164/28/1 163/28/1 203/65/1 204/65/1
f 200/58/2 187/59/2 227/65/2 240/66/2
f 182/71/1 178/71/1 218/72/1 222/72/1
f 113/11/2 44/12/2 184/59/2 183/58/2
f 18/18/1 93/18/1 198/21/1 172/21/1
f 65/4/4 58/5/4 188/68/4 192/27/4
f 99/47/1 34/47/1 178/71/1 182/71/1
f 107/30/3 16/30/3 171/70/3 199/70/3
f 8/5/2 22/4/2 165/27/2 166/68/2
f 67/22/1 68/22/1 194/60/1 193/60/1
f 60/8/2 67/22/2 193/60/2 189/61/2
f 16/30/2 4/2/2 164/28/2 171/70/2
f 36/11/3 113/11/3 183/58/3 169/58/3
f 68/22/1 69/22/1 195/60/1 194/60/1
f 30/22/4 6/8/4 168/61/4 175/60/4
f 110/11/3 109/11/3 200/58/3 201/58/3
f 69/22/4 62/8/4 191/61/4 195/60/4
f 111/11/3 110/11/3 201/58/3 202/58/3
f 44/12/1 2/12/1 170/59/1 184/59/1
f 6/8/3 64/8/3 167/61/3 168/61/3
f 92/46/2 99/47/2 182/71/2 181/56/2
f 58/5/3 8/5/3 166/68/3 188/68/3
f 19/19/2 18/18/2 172/21/2 173/20/2
f 33/46/4 32/45/4 176/57/4 177/56/4
f 86/19/4 79/16/4 196/17/4 197/20/4
f 64/8/2 71/22/2 179/60/2 167/61/2
f 20/16/2 19/19/2 173/20/2 174/17/2
f 34/47/4 33/46/4 177/56/4 178/71/4
f 50/2/4 107/30/4 199/70/4 163/28/4
f 47/12/1 46/12/1 185/59/1 186/59/1
f 2/12/4 36/11/4 169/58/4 170/59/4
f 223/66/6 224/65/6 210/65/6 209/66/6
f 207/67/6 219/69/6 215/69/6 208/67/6
f 220/73/6 221/74/6 217/74/6 216/73/6
f 221/74/6 222/72/6 218/72/6 217/74/6
f 213/74/6 212/72/6 238/72/6 237/74/6
f 214/73/6 213/74/6 237/74/6 236/73/6
f 206/67/6 205/69/6 232/69/6 228/67/6
f 229/67/6 233/69/6 234/69/6 230/67/6
f 230/67/6 234/69/6 235/69/6 231/67/6
f 211/66/6 204/65/6 203/65/6 239/66/6
f 240/66/6 227/65/6 226/65/6 241/66/6
f 241/66/6 226/65/6 225/65/6 242/66/6
f 183/58/2 184/59/2 224/65/2 223/66/2
f 170/59/4 169/58/4 209/66/4 210/65/4
f 198/21/4 197/20/4 237/74/4 238/72/4
f 187/59/1 186/59/1 226/65/1 227/65/1
f 171/70/2 164/28/2 204/65/2 211/66/2
f 181/56/2 182/71/2 222/72/2 221/74/2
f 188/68/3 166/68/3 206/67/3 228/67/3
f 173/20/2 172/21/2 212/72/2 213/74/2
f 197/20/4 196/17/4 236/73/4 237/74/4
f 190/61/3 189/61/3 229/67/3 230/67/3
f 174/17/2 173/20/2 213/74/2 214/73/2
f 180/57/2 181/56/2 221/74/2 220/73/2
f 191/61/3 190/61/3 230/67/3 231/67/3
f 175/60/4 168/61/4 208/67/4 215/69/4
f 192/27/4 188/68/4 228/67/4 232/69/4
f 165/27/1 192/27/1 232/69/1 205/69/1
f 177/56/4 176/57/4 216/73/4 217/74/4
f 189/61/2 193/60/2 233/69/2 229/67/2
f 193/60/1 194/60/1 234/69/1 233/69/1
f 178/71/4 177/56/4 217/74/4 218/72/4
f 194/60/1 195/60/1 235/69/1 234/69/1
f 179/60/1 175/60/1 215/69/1 219/69/1
f 195/60/4 191/61/4 231/67/4 235/69/4
f 196/17/3 174/17/3 214/73/3 236/73/3
f 176/57/3 180/57/3 220/73/3 216/73/3
f 167/61/2 179/60/2 219/69/2 207/67/2
f 163/28/4 199/70/4 239/66/4 203/65/4
f 172/21/1 198/21/1 238/72/1 212/72/1
f 255/23/6 256/26/6 250/26/6 249/23/6
f 256/26/6 257/64/6 251/64/6 250/26/6
f 258/62/6 259/32/6 253/32/6 252/62/6
f 259/32/6 260/31/6 254/31/6 253/32/6
f 244/32/6 243/31/6 282/31/6 281/32/6
f 245/62/6 244/32/6 281/32/6 280/62/6
f 247/26/6 246/64/6 279/64/6 278/26/6
f 248/23/6 247/26/6 278/26/6 273/23/6
f 267/24/6 273/23/6 274/23/6 268/24/6
f 268/24/6 274/23/6 275/23/6 269/24/6
f 270/24/6 276/23/6 277/23/6 271/24/6
f 271/24/6 277/23/6 255/23/6 272/24/6
f 282/31/6 266/63/6 265/63/6 283/31/6
f 283/31/6 265/63/6 264/63/6 284/31/6
f 285/31/6 263/63/6 262/63/6 286/31/6
f 286/31/6 262/63/6 261/63/6 260/31/6
f 18/18/2 17/29/2 244/32/2 245/62/2
f 106/48/2 113/11/2 260/31/2 259/32/2
f 70/22/1 71/22/1 255/23/1 277/23/1
f 32/45/4 31/25/4 250/26/4 251/64/4
f 100/29/4 93/18/4 280/62/4 281/32/4
f 78/25/2 85/45/2 257/64/2 256/26/2
f 112/11/3 111/11/3 285/31/3 286/31/3
f 45/12/1 44/12/1 261/63/1 262/63/1
f 71/22/4 64/8/4 272/24/4 255/23/4
f 59/5/3 58/5/3 267/24/3 268/24/3
f 72/54/4 65/4/4 273/23/4 278/26/4
f 113/11/3 112/11/3 286/31/3 260/31/3
f 46/12/1 45/12/1 262/63/1 263/63/1
f 107/30/2 50/2/2 266/63/2 282/31/2
f 60/8/3 59/5/3 268/24/3 269/24/3
f 21/54/2 20/16/2 246/64/2 247/26/2
f 35/48/4 34/47/4 252/62/4 253/32/4
f 22/4/2 21/54/2 247/26/2 248/23/2
f 36/11/4 35/48/4 253/32/4 254/31/4
f 48/12/4 109/11/4 284/31/4 264/63/4
f 49/2/1 48/12/1 264/63/1 265/63/1
f 30/22/3 71/22/3 255/23/3 249/23/3
f 63/8/3 62/8/3 270/24/3 271/24/3
f 50/2/1 49/2/1 265/63/1 266/63/1
f 111/11/2 46/12/2 263/63/2 285/31/2
f 64/8/3 63/8/3 271/24/3 272/24/3
f 99/47/2 106/48/2 259/32/2 258/62/2
f 107/30/4 100/29/4 281/32/4 282/31/4
f 85/45/1 32/45/1 251/64/1 257/64/1
f 65/4/3 22/4/3 248/23/3 273/23/3
f 71/22/2 78/25/2 256/26/2 255/23/2
f 20/16/1 79/16/1 279/64/1 246/64/1
usemtl マテリアル.120
f 287/75/1 288/76/1 290/77/1 289/78/1
f 289/78/2 290/77/2 294/79/2 293/80/2
f 293/80/3 294/79/3 292/81/3 291/82/3
f 291/82/4 292/81/4 288/83/4 287/84/4
f 289/85/5 293/80/5 291/82/5 287/86/5
f 294/79/6 290/87/6 288/88/6 292/81/6
usemtl マテリアル.118
f 295/89/7 296/90/7 298/91/7 297/92/7
f 297/92/8 298/91/8 300/93/8 299/94/8
f 299/94/9 300/93/9 302/95/9 301/96/9
f 301/96/10 302/95/10 304/97/10 303/98/10
f 303/98/11 304/97/11 306/99/11 305/100/11
f 305/100/12 306/99/12 308/101/12 307/102/12
f 307/102/13 308/101/13 310/103/13 309/104/13
f 309/104/14 310/103/14 312/105/14 311/106/14
f 311/106/15 312/105/15 314/103/15 313/104/15
f 313/104/16 314/103/16 316/101/16 315/102/16
f 315/102/17 316/101/17 318/99/17 317/100/17
f 317/100/18 318/99/18 320/97/18 319/98/18
f 319/98/19 320/97/19 322/95/19 321/96/19
f 321/96/20 322/95/20 324/93/20 323/94/20
f 323/94/21 324/93/21 326/91/21 325/92/21
f 325/92/22 326/91/22 328/90/22 327/89/22
f 327/89/23 328/90/23 330/107/23 329/108/23
f 329/108/24 330/107/24 332/109/24 331/110/24
f 331/110/25 332/109/25 334/111/25 333/112/25
f 333/112/26 334/111/26 336/113/26 335/114/26
f 335/114/27 336/113/27 338/115/27 337/116/27
f 337/116/28 338/115/28 340/117/28 339/118/28
f 339/118/29 340/117/29 342/119/29 341/120/29
f 341/120/30 342/119/30 344/121/30 343/122/30
f 343/122/31 344/121/31 346/119/31 345/120/31
f 345/120/32 346/119/32 348/117/32 347/118/32
f 347/118/33 348/117/33 350/115/33 349/116/33
f 349/116/34 350/115/34 352/113/34 351/114/34
f 351/114/35 352/113/35 354/111/35 353/112/35
f 353/112/36 354/111/36 356/109/36 355/110/36
f 298/91/6 296/90/6 358/107/6 356/109/6 354/111/6 352/113/6 350/115/6 348/117/6 346/119/6 344/121/6 342/119/6 340/117/6 338/115/6 336/113/6 334/111/6 332/109/6 330/107/6 328/90/6 326/91/6 324/93/6 322/95/6 320/97/6 318/99/6 316/101/6 314/103/6 312/105/6 310/103/6 308/101/6 306/99/6 304/97/6 302/95/6 300/93/6
f 355/110/37 356/109/37 358/107/37 357/108/37
f 357/108/38 358/107/38 296/90/38 295/89/38
f 295/89/5 297/92/5 299/94/5 301/96/5 303/98/5 305/100/5 307/102/5 309/104/5 311/106/5 313/104/5 315/102/5 317/100/5 319/98/5 321/96/5 323/94/5 325/92/5 327/89/5 329/108/5 331/110/5 333/112/5 335/114/5 337/116/5 339/118/5 341/120/5 343/122/5 345/120/5 347/118/5 349/116/5 351/114/5 353/112/5 355/110/5 357/108/5
f 359/123/7 361/124/7 365/125/7 363/126/7
f 363/126/8 365/125/8 369/127/8 367/128/8
f 367/128/9 369/127/9 373/129/9 371/130/9
f 371/130/10 373/129/10 377/131/10 375/132/10
f 375/132/11 377/131/11 381/133/11 380/134/11
f 380/134/12 381/133/12 386/135/12 383/136/12
f 383/136/13 386/135/13 389/137/13 388/138/13
f 388/138/14 389/137/14 393/139/14 392/140/14
f 392/140/15 393/139/15 397/137/15 395/138/15
f 395/138/16 397/137/16 401/135/16 399/136/16
f 399/136/17 401/135/17 405/133/17 403/134/17
f 403/134/18 405/133/18 409/131/18 407/132/18
f 407/132/19 409/131/19 413/129/19 411/130/19
f 411/130/20 413/129/20 418/127/20 415/128/20
f 415/128/21 418/127/21 422/125/21 419/126/21
f 419/126/22 422/125/22 426/124/22 424/123/22
f 424/123/23 426/124/23 430/141/23 428/142/23
f 428/142/24 430/141/24 434/143/24 431/144/24
f 431/144/25 434/143/25 437/145/25 436/146/25
f 436/146/26 437/145/26 441/147/26 439/148/26
f 439/148/27 441/147/27 445/149/27 443/150/27
f 443/150/28 445/149/28 449/151/28 447/152/28
f 447/152/29 449/151/29 453/153/29 451/154/29
f 451/154/30 453/153/30 457/155/30 455/156/30
f 455/156/31 457/155/31 461/153/31 459/154/31
f 459/154/32 461/153/32 465/151/32 463/152/32
f 463/152/33 465/151/33 469/149/33 467/150/33
f 467/150/34 469/149/34 474/147/34 472/148/34
f 472/148/35 474/147/35 478/145/35 476/146/35
f 476/146/36 478/145/36 481/143/36 479/144/36
f 397/137/15 393/139/15 493/157/15 494/158/15
f 479/144/37 481/143/37 486/141/37 484/142/37
f 484/142/38 486/141/38 361/124/38 359/123/38
f 484/142/5 359/123/5 363/126/5 367/128/5 371/130/5 375/132/5 380/134/5 383/136/5 388/138/5 392/140/5 395/138/5 399/136/5 403/134/5 407/132/5 411/130/5 415/128/5 419/126/5 424/123/5 428/142/5 431/144/5 436/146/5 439/148/5 443/150/5 447/152/5 451/154/5 455/156/5 459/154/5 463/152/5 467/150/5 472/148/5 476/146/5 479/144/5
f 381/133/11 377/131/11 490/159/11 491/160/11
f 365/125/7 361/124/7 488/161/7 487/162/7
f 386/135/12 381/133/12 491/160/12 492/163/12
f 369/127/8 365/125/8 487/162/8 489/164/8
f 441/147/26 437/145/26 501/165/26 502/166/26
f 478/145/35 474/147/35 508/166/35 509/165/35
f 426/124/39 422/125/39 498/167/39 499/168/39
f 461/153/31 457/155/31 505/169/31 506/170/31
f 409/131/18 405/133/18 495/160/18 496/159/18
f 445/149/27 441/147/27 502/166/27 503/171/27
f 481/143/36 478/145/36 509/165/36 510/172/36
f 430/141/40 426/124/40 499/168/40 500/173/40
f 465/151/32 461/153/32 506/170/32 507/174/32
f 413/129/19 409/131/19 496/159/19 497/175/19
f 449/151/28 445/149/28 503/171/28 504/174/28
f 360/176/23 364/177/23 366/178/23 362/179/23
f 364/177/24 368/180/24 370/181/24 366/178/24
f 368/180/25 372/182/25 374/183/25 370/181/25
f 372/182/26 376/184/26 378/185/26 374/183/26
f 376/184/27 379/186/27 382/187/27 378/185/27
f 379/186/28 384/188/28 385/189/28 382/187/28
f 384/188/29 387/190/29 390/191/29 385/189/29
f 387/190/30 391/192/30 394/193/30 390/191/30
f 391/192/31 396/190/31 398/191/31 394/193/31
f 396/190/32 400/188/32 402/189/32 398/191/32
f 400/188/33 404/186/33 406/187/33 402/189/33
f 404/186/34 408/184/34 410/185/34 406/187/34
f 408/184/35 412/182/35 414/183/35 410/185/35
f 412/182/36 416/180/36 417/181/36 414/183/36
f 416/180/37 420/177/37 421/178/37 417/181/37
f 420/177/38 423/176/38 425/179/38 421/178/38
f 423/176/7 427/194/7 429/195/7 425/179/7
f 427/194/8 432/196/8 433/197/8 429/195/8
f 432/196/9 435/198/9 438/199/9 433/197/9
f 435/198/10 440/200/10 442/201/10 438/199/10
f 440/200/11 444/202/11 446/203/11 442/201/11
f 444/202/12 448/204/12 450/205/12 446/203/12
f 448/204/13 452/206/13 454/207/13 450/205/13
f 452/206/14 456/208/14 458/209/14 454/207/14
f 456/208/15 460/206/15 462/207/15 458/209/15
f 460/206/16 464/204/16 466/205/16 462/207/16
f 464/204/17 468/202/17 470/203/17 466/205/17
f 468/202/18 471/200/18 473/201/18 470/203/18
f 471/200/19 475/198/19 477/199/19 473/201/19
f 475/198/20 480/196/20 482/197/20 477/199/20
f 394/193/31 398/191/31 533/210/31 525/211/31
f 480/196/21 483/194/21 485/195/21 482/197/21
f 483/194/22 360/176/22 362/179/22 485/195/22
f 468/202/6 464/204/6 460/206/6 456/208/6 452/206/6 448/204/6 444/202/6 440/200/6 435/198/6 432/196/6 427/194/6 423/176/6 420/177/6 416/180/6 412/182/6 408/184/6 404/186/6 400/188/6 396/190/6 391/192/6 387/190/6 384/188/6 379/186/6 376/184/6 372/182/6 368/180/6 364/177/6 360/176/6 483/194/6 480/196/6 475/198/6 471/200/6
f 406/187/41 534/212/41 495/160/41 405/133/41
f 378/185/27 382/187/27 524/212/27 523/213/27
f 513/161/23 362/179/23 366/178/23 530/214/23
f 496/159/6 495/160/6 534/212/6 522/213/6 521/215/6 497/175/6
f 382/187/28 385/189/28 526/216/28 524/212/28
f 530/214/24 366/178/24 370/181/24 532/217/24
f 438/199/10 442/201/10 517/218/10 529/219/10
f 511/218/19 473/201/19 477/199/19 512/219/19
f 421/178/38 425/179/38 520/161/38 519/214/38
f 515/220/15 458/209/15 462/207/15 527/221/15
f 406/187/34 410/185/34 522/213/34 534/212/34
f 517/218/11 442/201/11 446/203/11 518/222/11
f 512/219/20 477/199/20 482/197/20 514/223/20
f 425/179/7 429/195/7 531/224/7 520/161/7
f 527/221/16 462/207/16 466/205/16 528/225/16
f 410/185/35 414/183/35 521/215/35 522/213/35
f 518/222/12 446/203/12 450/205/12 516/225/12
f 403/134/42 408/184/42 404/186/42 406/187/42 405/133/42
f 497/175/43 521/215/43 414/183/43 413/129/43
f 411/130/44 412/182/44 414/183/44 413/129/44
f 500/173/6 499/168/6 498/167/6 519/214/6 520/161/6 531/224/6
f 419/126/45 420/177/45 421/178/45 519/214/45 498/167/45 422/125/45
f 427/194/46 428/142/46 430/141/46 500/173/46 531/224/46 429/195/46
f 503/171/6 502/166/6 501/165/6 529/219/6 517/218/6 518/222/6 516/225/6 504/174/6
f 436/146/47 435/198/47 438/199/47 529/219/47 501/165/47 437/145/47
f 494/158/6 493/157/6 525/211/6 533/210/6
f 492/163/6 491/160/6 490/159/6 523/213/6 524/212/6 526/216/6
f 489/164/6 487/162/6 488/161/6 513/161/6 530/214/6 532/217/6
f 510/172/6 509/165/6 508/166/6 511/218/6 512/219/6 514/223/6
f 528/225/6 507/174/6 506/170/6 505/169/6 515/220/6 527/221/6
f 393/139/2 391/192/2 394/193/2 525/211/2 493/157/2
f 396/190/48 397/137/48 494/158/48 533/210/48 398/191/48
f 464/204/49 463/152/49 465/151/49 507/174/49 528/225/49 466/205/49
f 448/204/50 447/152/50 449/151/50 504/174/50 516/225/50 450/205/50
f 472/148/51 471/200/51 473/201/51 511/218/51 508/166/51 474/147/51
f 480/196/52 479/144/52 481/143/52 510/172/52 514/223/52 482/197/52
f 359/123/1 360/176/1 362/179/1 513/161/1 488/161/1 361/124/1
f 368/180/53 367/128/53 369/127/53 489/164/53 532/217/53 370/181/53
f 384/188/54 383/136/54 386/135/54 492/163/54 526/216/54 385/189/54
f 375/132/55 376/184/55 378/185/55 523/213/55 490/159/55 377/131/55
usemtl マテリアル.119
f 535/226/7 536/227/7 538/228/7 537/229/7
f 537/229/8 538/228/8 540/230/8 539/231/8
f 539/231/9 540/230/9 542/232/9 541/233/9
f 541/233/10 542/232/10 544/234/10 543/235/10
f 543/235/11 544/234/11 546/236/11 545/237/11
f 545/237/12 546/236/12 548/238/12 547/239/12
f 547/239/13 548/238/13 550/240/13 549/241/13
f 549/241/14 550/240/14 552/242/14 551/243/14
f 551/243/15 552/242/15 554/240/15 553/241/15
f 553/241/16 554/240/16 556/238/16 555/239/16
f 555/239/17 556/238/17 558/236/17 557/237/17
f 557/237/18 558/236/18 560/234/18 559/235/18
f 559/235/19 560/234/19 562/232/19 561/233/19
f 561/233/20 562/232/20 564/230/20 563/231/20
f 563/231/21 564/230/21 566/228/21 565/229/21
f 565/229/22 566/228/22 568/227/22 567/226/22
f 567/226/23 568/227/23 570/244/23 569/245/23
f 569/245/24 570/244/24 572/246/24 571/247/24
f 571/247/25 572/246/25 574/248/25 573/249/25
f 573/249/26 574/248/26 576/250/26 575/251/26
f 575/251/27 576/250/27 578/252/27 577/253/27
f 577/253/28 578/252/28 580/254/28 579/255/28
f 579/255/29 580/254/29 582/256/29 581/257/29
f 581/257/30 582/256/30 584/258/30 583/259/30
f 583/259/31 584/258/31 586/256/31 585/257/31
f 585/257/32 586/256/32 588/254/32 587/255/32
f 587/255/33 588/254/33 590/252/33 589/253/33
f 589/253/34 590/252/34 592/250/34 591/251/34
f 591/251/35 592/250/35 594/248/35 593/249/35
f 593/249/36 594/248/36 596/246/36 595/247/36
f 538/228/6 536/227/6 598/244/6 596/246/6 594/248/6 592/250/6 590/252/6 588/254/6 586/256/6 584/258/6 582/256/6 580/254/6 578/252/6 576/250/6 574/248/6 572/246/6 570/244/6 568/227/6 566/228/6 564/230/6 562/232/6 560/234/6 558/236/6 556/238/6 554/240/6 552/242/6 550/240/6 548/238/6 546/236/6 544/234/6 542/232/6 540/230/6
f 595/247/37 596/246/37 598/244/37 597/245/37
f 597/245/38 598/244/38 536/227/38 535/226/38
f 535/226/5 537/229/5 539/231/5 541/233/5 543/235/5 545/237/5 547/239/5 549/241/5 551/243/5 553/241/5 555/239/5 557/237/5 559/235/5 561/233/5 563/231/5 565/229/5 567/226/5 569/245/5 571/247/5 573/249/5 575/251/5 577/253/5 579/255/5 581/257/5 583/259/5 585/257/5 587/255/5 589/253/5 591/251/5 593/249/5 595/247/5 597/245/5
f 599/260/7 601/261/7 605/262/7 603/263/7
f 603/263/8 605/262/8 609/264/8 607/265/8
f 607/265/9 609/264/9 613/266/9 611/267/9
f 611/267/10 613/266/10 617/268/10 615/269/10
f 615/269/11 617/268/11 621/270/11 620/271/11
f 620/271/12 621/270/12 626/272/12 623/273/12
f 623/273/13 626/272/13 629/274/13 628/275/13
f 628/275/14 629/274/14 633/276/14 632/277/14
f 632/277/15 633/276/15 637/274/15 635/275/15
f 635/275/16 637/274/16 641/272/16 639/273/16
f 639/273/17 641/272/17 645/270/17 643/271/17
f 643/271/18 645/270/18 649/268/18 647/269/18
f 647/269/19 649/268/19 653/266/19 651/267/19
f 651/267/20 653/266/20 658/264/20 655/265/20
f 655/265/21 658/264/21 662/262/21 659/263/21
f 659/263/22 662/262/22 666/261/22 664/260/22
f 664/260/23 666/261/23 670/278/23 668/279/23
f 668/279/24 670/278/24 674/280/24 671/281/24
f 671/281/25 674/280/25 677/282/25 676/283/25
f 676/283/26 677/282/26 681/284/26 679/285/26
f 679/285/27 681/284/27 685/286/27 683/287/27
f 683/287/28 685/286/28 689/288/28 687/289/28
f 687/289/29 689/288/29 693/290/29 691/291/29
f 691/291/30 693/290/30 697/292/30 695/293/30
f 695/293/31 697/292/31 701/290/31 699/291/31
f 699/291/32 701/290/32 705/288/32 703/289/32
f 703/289/33 705/288/33 709/286/33 707/287/33
f 707/287/34 709/286/34 714/284/34 712/285/34
f 712/285/35 714/284/35 718/282/35 716/283/35
f 716/283/36 718/282/36 721/280/36 719/281/36
f 637/274/15 633/276/15 733/294/15 734/295/15
f 719/281/37 721/280/37 726/278/37 724/279/37
f 724/279/38 726/278/38 601/261/38 599/260/38
f 724/279/5 599/260/5 603/263/5 607/265/5 611/267/5 615/269/5 620/271/5 623/273/5 628/275/5 632/277/5 635/275/5 639/273/5 643/271/5 647/269/5 651/267/5 655/265/5 659/263/5 664/260/5 668/279/5 671/281/5 676/283/5 679/285/5 683/287/5 687/289/5 691/291/5 695/293/5 699/291/5 703/289/5 707/287/5 712/285/5 716/283/5 719/281/5
f 621/270/11 617/268/11 730/296/11 731/297/11
f 605/262/7 601/261/7 728/298/7 727/299/7
f 626/272/12 621/270/12 731/297/12 732/300/12
f 609/264/8 605/262/8 727/299/8 729/301/8
f 681/284/26 677/282/26 741/302/26 742/303/26
f 718/282/35 714/284/35 748/303/35 749/302/35
f 666/261/22 662/262/22 738/299/22 739/298/22
f 701/290/31 697/292/31 745/304/31 746/305/31
f 649/268/18 645/270/18 735/297/18 736/296/18
f 685/286/27 681/284/27 742/303/27 743/306/27
f 721/280/36 718/282/36 749/302/36 750/307/36
f 670/278/23 666/261/23 739/298/23 740/308/23
f 705/288/32 701/290/32 746/305/32 747/309/32
f 653/266/19 649/268/19 736/296/19 737/310/19
f 689/288/28 685/286/28 743/306/28 744/309/28
f 600/311/23 604/312/23 606/313/23 602/314/23
f 604/312/24 608/315/24 610/316/24 606/313/24
f 608/315/25 612/317/25 614/318/25 610/316/25
f 612/317/26 616/319/26 618/320/26 614/318/26
f 616/319/27 619/321/27 622/322/27 618/320/27
f 619/321/28 624/323/28 625/324/28 622/322/28
f 624/323/29 627/325/29 630/326/29 625/324/29
f 627/325/30 631/327/30 634/328/30 630/326/30
f 631/327/31 636/325/31 638/326/31 634/328/31
f 636/325/32 640/323/32 642/324/32 638/326/32
f 640/323/33 644/321/33 646/322/33 642/324/33
f 644/321/34 648/319/34 650/320/34 646/322/34
f 648/319/35 652/317/35 654/318/35 650/320/35
f 652/317/36 656/315/36 657/316/36 654/318/36
f 656/315/37 660/312/37 661/313/37 657/316/37
f 660/312/38 663/311/38 665/314/38 661/313/38
f 663/311/7 667/329/7 669/330/7 665/314/7
f 667/329/8 672/331/8 673/332/8 669/330/8
f 672/331/9 675/333/9 678/334/9 673/332/9
f 675/333/10 680/335/10 682/336/10 678/334/10
f 680/335/11 684/337/11 686/338/11 682/336/11
f 684/337/12 688/339/12 690/340/12 686/338/12
f 688/339/13 692/341/13 694/342/13 690/340/13
f 692/341/14 696/343/14 698/344/14 694/342/14
f 696/343/15 700/341/15 702/342/15 698/344/15
f 700/341/16 704/339/16 706/340/16 702/342/16
f 704/339/17 708/337/17 710/338/17 706/340/17
f 708/337/18 711/335/18 713/336/18 710/338/18
f 711/335/19 715/333/19 717/334/19 713/336/19
f 715/333/20 720/331/20 722/332/20 717/334/20
f 634/328/31 638/326/31 773/345/31 765/346/31
f 720/331/21 723/329/21 725/330/21 722/332/21
f 723/329/22 600/311/22 602/314/22 725/330/22
f 708/337/6 704/339/6 700/341/6 696/343/6 692/341/6 688/339/6 684/337/6 680/335/6 675/333/6 672/331/6 667/329/6 663/311/6 660/312/6 656/315/6 652/317/6 648/319/6 644/321/6 640/323/6 636/325/6 631/327/6 627/325/6 624/323/6 619/321/6 616/319/6 612/317/6 608/315/6 604/312/6 600/311/6 723/329/6 720/331/6 715/333/6 711/335/6
f 646/322/41 774/347/41 735/297/41 645/270/41
f 618/320/27 622/322/27 764/347/27 763/348/27
f 753/298/23 602/314/23 606/313/23 770/349/23
f 736/296/6 735/297/6 774/347/6 762/348/6 761/350/6 737/310/6
f 622/322/28 625/324/28 766/351/28 764/347/28
f 770/349/24 606/313/24 610/316/24 772/352/24
f 678/334/10 682/336/10 757/353/10 769/354/10
f 751/353/19 713/336/19 717/334/19 752/354/19
f 661/313/38 665/314/38 760/298/38 759/349/38
f 755/355/15 698/344/15 702/342/15 767/356/15
f 646/322/34 650/320/34 762/348/34 774/347/34
f 757/353/11 682/336/11 686/338/11 758/357/11
f 752/354/20 717/334/20 722/332/20 754/358/20
f 665/314/7 669/330/7 771/359/7 760/298/7
f 767/356/16 702/342/16 706/340/16 768/360/16
f 650/320/35 654/318/35 761/350/35 762/348/35
f 758/357/12 686/338/12 690/340/12 756/360/12
f 643/271/42 648/319/42 644/321/42 646/322/42 645/270/42
f 737/310/43 761/350/43 654/318/43 653/266/43
f 651/267/44 652/317/44 654/318/44 653/266/44
f 740/308/6 739/298/6 738/299/6 759/349/6 760/298/6 771/359/6
f 659/263/56 660/312/56 661/313/56 759/349/56 738/299/56 662/262/56
f 667/329/57 668/279/57 670/278/57 740/308/57 771/359/57 669/330/57
f 743/306/6 742/303/6 741/302/6 769/354/6 757/353/6 758/357/6 756/360/6 744/309/6
f 676/283/47 675/333/47 678/334/47 769/354/47 741/302/47 677/282/47
f 734/295/6 733/294/6 765/346/6 773/345/6
f 732/300/6 731/297/6 730/296/6 763/348/6 764/347/6 766/351/6
f 729/301/6 727/299/6 728/298/6 753/298/6 770/349/6 772/352/6
f 750/307/6 749/302/6 748/303/6 751/353/6 752/354/6 754/358/6
f 768/360/6 747/309/6 746/305/6 745/304/6 755/355/6 767/356/6
f 633/276/2 631/327/2 634/328/2 765/346/2 733/294/2
f 636/325/48 637/274/48 734/295/48 773/345/48 638/326/48
f 704/339/49 703/289/49 705/288/49 747/309/49 768/360/49 706/340/49
f 688/339/50 687/289/50 689/288/50 744/309/50 756/360/50 690/340/50
f 712/285/51 711/335/51 713/336/51 751/353/51 748/303/51 714/284/51
f 720/331/52 719/281/52 721/280/52 750/307/52 754/358/52 722/332/52
f 599/260/1 600/311/1 602/314/1 753/298/1 728/298/1 601/261/1
f 608/315/53 607/265/53 609/264/53 729/301/53 772/352/53 610/316/53
f 624/323/54 623/273/54 626/272/54 732/300/54 766/351/54 625/324/54
f 615/269/55 616/319/55 618/320/55 763/348/55 730/296/55 617/268/55
