{
	"asset":{
		"generator":"Khronos glTF Blender I/O v4.4.56",
		"version":"2.0"
	},
	"scene":0,
	"scenes":[
		{
			"name":"Scene",
			"nodes":[
				0,
				1,
				2,
				3,
				4,
				5,
				6,
				7,
				8,
				9,
				10,
				11,
				12
			]
		}
	],
	"nodes":[
		{
			"mesh":0,
			"name":"\u5e73\u9762",
			"scale":[
				36.9184684753418,
				5.173262596130371,
				36.9184684753418
			]
		},
		{
			"mesh":1,
			"name":"\u5e73\u9762.002",
			"rotation":[
				0.6706302165985107,
				0.22417645156383514,
				0.22417645156383514,
				0.6706303358078003
			],
			"scale":[
				0.36380910873413086,
				1,
				1
			],
			"translation":[
				-4.981079578399658,
				-4.631688117980957,
				5.777441024780273
			]
		},
		{
			"mesh":2,
			"name":"\u5e73\u9762.003",
			"scale":[
				36.81818389892578,
				5.159212589263916,
				36.81818389892578
			],
			"translation":[
				0,
				-0.4318940043449402,
				0
			]
		},
		{
			"mesh":3,
			"name":"\u5e73\u9762.004",
			"scale":[
				37,
				37,
				37
			]
		},
		{
			"mesh":4,
			"name":"\u7acb\u65b9\u4f53",
			"scale":[
				37.09773254394531,
				14.01095199584961,
				1
			],
			"translation":[
				0,
				12.873451232910156,
				16.166521072387695
			]
		},
		{
			"mesh":5,
			"name":"\u7acb\u65b9\u4f53.001",
			"scale":[
				17.96129608154297,
				6.78356409072876,
				0.4841615557670593
			],
			"translation":[
				0,
				5.576309680938721,
				19.738494873046875
			]
		},
		{
			"mesh":6,
			"name":"\u7acb\u65b9\u4f53.047",
			"rotation":[
				0,
				0,
				0.7110785841941833,
				0.7031126022338867
			],
			"scale":[
				10.091901779174805,
				0.1261335015296936,
				0.1261335015296936
			],
			"translation":[
				4.5557942390441895,
				9.959249496459961,
				15.955022811889648
			]
		},
		{
			"mesh":7,
			"name":"\u7acb\u65b9\u4f53.003",
			"scale":[
				0.7596819400787354,
				16.878969192504883,
				1.5646082162857056
			],
			"translation":[
				11.751106262207031,
				15.191495895385742,
				15.943979263305664
			]
		},
		{
			"mesh":8,
			"name":"\u5e73\u9762.005",
			"scale":[
				37,
				37,
				37
			],
			"translation":[
				0,
				-1.0597665309906006,
				0
			]
		},
		{
			"mesh":9,
			"name":"\u5186\u67f1.007",
			"scale":[
				0.4652325212955475,
				1.5391963720321655,
				0.4652325212955475
			],
			"translation":[
				2.971137523651123,
				0.034641265869140625,
				5.247644901275635
			]
		},
		{
			"mesh":10,
			"name":"\u5186\u67f1",
			"scale":[
				0.5550315976142883,
				1.8362916707992554,
				0.5550315976142883
			],
			"translation":[
				-5.243359565734863,
				-3.3438968658447266,
				6.20461368560791
			]
		},
		{
			"mesh":11,
			"name":"\u5186\u67f1.005",
			"scale":[
				0.5550315976142883,
				1.8362916707992554,
				0.5550315976142883
			],
			"translation":[
				5.910350799560547,
				-3.3438968658447266,
				6.20461368560791
			]
		},
		{
			"mesh":12,
			"name":"\u5e73\u9762.001",
			"rotation":[
				0.7016679048538208,
				-0.0875336080789566,
				-0.0875336080789566,
				0.7016679644584656
			],
			"scale":[
				0.36380910873413086,
				1,
				1
			],
			"translation":[
				-4.981079578399658,
				-1.6347112655639648,
				5.777441024780273
			]
		}
	],
	"materials":[
		{
			"doubleSided":true,
			"name":"\u30de\u30c6\u30ea\u30a2\u30eb.016",
			"pbrMetallicRoughness":{
				"baseColorTexture":{
					"index":0
				},
				"metallicFactor":0,
				"roughnessFactor":0.5
			}
		},
		{
			"doubleSided":true,
			"name":"\u30de\u30c6\u30ea\u30a2\u30eb.108",
			"pbrMetallicRoughness":{
				"baseColorTexture":{
					"index":1
				},
				"metallicFactor":0,
				"roughnessFactor":0.5
			}
		},
		{
			"doubleSided":true,
			"name":"\u30de\u30c6\u30ea\u30a2\u30eb.112",
			"pbrMetallicRoughness":{
				"baseColorTexture":{
					"index":2
				},
				"metallicFactor":0,
				"roughnessFactor":0.5
			}
		},
		{
			"doubleSided":true,
			"name":"\u30de\u30c6\u30ea\u30a2\u30eb.109",
			"pbrMetallicRoughness":{
				"baseColorTexture":{
					"index":3
				},
				"metallicFactor":0,
				"roughnessFactor":0.5
			}
		},
		{
			"doubleSided":true,
			"name":"\u30de\u30c6\u30ea\u30a2\u30eb.110",
			"pbrMetallicRoughness":{
				"baseColorTexture":{
					"index":4
				},
				"metallicFactor":0,
				"roughnessFactor":0.5
			}
		},
		{
			"doubleSided":true,
			"name":"\u30de\u30c6\u30ea\u30a2\u30eb.001",
			"pbrMetallicRoughness":{
				"baseColorFactor":[
					0.10306203365325928,
					0.08971695601940155,
					0.08733787387609482,
					1
				],
				"metallicFactor":0,
				"roughnessFactor":0.5
			}
		},
		{
			"doubleSided":true,
			"name":"\u30de\u30c6\u30ea\u30a2\u30eb.111",
			"pbrMetallicRoughness":{
				"baseColorTexture":{
					"index":5
				},
				"metallicFactor":0,
				"roughnessFactor":0.5
			}
		},
		{
			"doubleSided":true,
			"name":"\u30de\u30c6\u30ea\u30a2\u30eb.113",
			"pbrMetallicRoughness":{
				"baseColorTexture":{
					"index":6
				},
				"metallicFactor":0,
				"roughnessFactor":0.5
			}
		},
		{
			"doubleSided":true,
			"name":"\u30de\u30c6\u30ea\u30a2\u30eb.062",
			"pbrMetallicRoughness":{
				"baseColorFactor":[
					0.7990986704826355,
					0.22696606814861298,
					0.05286074057221413,
					1
				],
				"metallicFactor":0,
				"roughnessFactor":0.5
			}
		},
		{
			"doubleSided":true,
			"name":"\u30de\u30c6\u30ea\u30a2\u30eb.059",
			"pbrMetallicRoughness":{
				"baseColorFactor":[
					0.0024279290810227394,
					0.3185472786426544,
					0,
					1
				],
				"metallicFactor":0,
				"roughnessFactor":0.5
			}
		},
		{
			"doubleSided":true,
			"name":"\u30de\u30c6\u30ea\u30a2\u30eb.060",
			"pbrMetallicRoughness":{
				"baseColorFactor":[
					0.0024279290810227394,
					0.3185472786426544,
					0,
					1
				],
				"metallicFactor":0,
				"roughnessFactor":0.5
			}
		},
		{
			"doubleSided":true,
			"name":"\u30de\u30c6\u30ea\u30a2\u30eb.061",
			"pbrMetallicRoughness":{
				"baseColorFactor":[
					0.0024279290810227394,
					0.3185472786426544,
					0,
					1
				],
				"metallicFactor":0,
				"roughnessFactor":0.5
			}
		},
		{
			"doubleSided":true,
			"name":"\u30de\u30c6\u30ea\u30a2\u30eb.003",
			"pbrMetallicRoughness":{
				"baseColorFactor":[
					0.7990986704826355,
					0.22696606814861298,
					0.05286074057221413,
					1
				],
				"metallicFactor":0,
				"roughnessFactor":0.5
			}
		},
		{
			"doubleSided":true,
			"name":"\u30de\u30c6\u30ea\u30a2\u30eb.004",
			"pbrMetallicRoughness":{
				"baseColorFactor":[
					0.7990986704826355,
					0.22696606814861298,
					0.05286074057221413,
					1
				],
				"metallicFactor":0,
				"roughnessFactor":0.5
			}
		},
		{
			"doubleSided":true,
			"name":"\u30de\u30c6\u30ea\u30a2\u30eb",
			"pbrMetallicRoughness":{
				"baseColorFactor":[
					0.7990986704826355,
					0.22696606814861298,
					0.05286074057221413,
					1
				],
				"metallicFactor":0,
				"roughnessFactor":0.5
			}
		},
		{
			"doubleSided":true,
			"name":"\u30de\u30c6\u30ea\u30a2\u30eb.006",
			"pbrMetallicRoughness":{
				"baseColorFactor":[
					0,
					0.7991040349006653,
					0.0241578109562397,
					1
				],
				"metallicFactor":0,
				"roughnessFactor":0.5
			}
		},
		{
			"doubleSided":true,
			"name":"\u30de\u30c6\u30ea\u30a2\u30eb.010",
			"pbrMetallicRoughness":{
				"baseColorFactor":[
					0,
					0.7991040349006653,
					0.0241578109562397,
					1
				],
				"metallicFactor":0,
				"roughnessFactor":0.5
			}
		},
		{
			"doubleSided":true,
			"name":"\u30de\u30c6\u30ea\u30a2\u30eb.011",
			"pbrMetallicRoughness":{
				"baseColorFactor":[
					0,
					0.7991040349006653,
					0.0241578109562397,
					1
				],
				"metallicFactor":0,
				"roughnessFactor":0.5
			}
		},
		{
			"doubleSided":true,
			"name":"\u30de\u30c6\u30ea\u30a2\u30eb.009",
			"pbrMetallicRoughness":{
				"baseColorFactor":[
					0,
					0.7991040349006653,
					0.0241578109562397,
					1
				],
				"metallicFactor":0,
				"roughnessFactor":0.5
			}
		},
		{
			"doubleSided":true,
			"name":"\u30de\u30c6\u30ea\u30a2\u30eb.007",
			"pbrMetallicRoughness":{
				"baseColorFactor":[
					0,
					0.7991040349006653,
					0.0241578109562397,
					1
				],
				"metallicFactor":0,
				"roughnessFactor":0.5
			}
		},
		{
			"doubleSided":true,
			"name":"\u30de\u30c6\u30ea\u30a2\u30eb.008",
			"pbrMetallicRoughness":{
				"baseColorFactor":[
					0,
					0.7991040349006653,
					0.0241578109562397,
					1
				],
				"metallicFactor":0,
				"roughnessFactor":0.5
			}
		},
		{
			"doubleSided":true,
			"name":"\u30de\u30c6\u30ea\u30a2\u30eb.049",
			"pbrMetallicRoughness":{
				"baseColorFactor":[
					0,
					0.7991040349006653,
					0.0241578109562397,
					1
				],
				"metallicFactor":0,
				"roughnessFactor":0.5
			}
		},
		{
			"doubleSided":true,
			"name":"\u30de\u30c6\u30ea\u30a2\u30eb.019",
			"pbrMetallicRoughness":{
				"baseColorFactor":[
					0.7990986704826355,
					0.22696606814861298,
					0.05286074057221413,
					1
				],
				"metallicFactor":0,
				"roughnessFactor":0.5
			}
		},
		{
			"doubleSided":true,
			"name":"\u30de\u30c6\u30ea\u30a2\u30eb.018",
			"pbrMetallicRoughness":{
				"baseColorFactor":[
					0.7990986704826355,
					0.22696606814861298,
					0.05286074057221413,
					1
				],
				"metallicFactor":0,
				"roughnessFactor":0.5
			}
		},
		{
			"doubleSided":true,
			"name":"\u30de\u30c6\u30ea\u30a2\u30eb.017",
			"pbrMetallicRoughness":{
				"baseColorFactor":[
					0.7990986704826355,
					0.22696606814861298,
					0.05286074057221413,
					1
				],
				"metallicFactor":0,
				"roughnessFactor":0.5
			}
		},
		{
			"doubleSided":true,
			"name":"\u30de\u30c6\u30ea\u30a2\u30eb.026",
			"pbrMetallicRoughness":{
				"baseColorFactor":[
					0,
					0.7991040349006653,
					0.0241578109562397,
					1
				],
				"metallicFactor":0,
				"roughnessFactor":0.5
			}
		},
		{
			"doubleSided":true,
			"name":"\u30de\u30c6\u30ea\u30a2\u30eb.020",
			"pbrMetallicRoughness":{
				"baseColorFactor":[
					0,
					0.7991040349006653,
					0.0241578109562397,
					1
				],
				"metallicFactor":0,
				"roughnessFactor":0.5
			}
		},
		{
			"doubleSided":true,
			"name":"\u30de\u30c6\u30ea\u30a2\u30eb.021",
			"pbrMetallicRoughness":{
				"baseColorFactor":[
					0,
					0.7991040349006653,
					0.0241578109562397,
					1
				],
				"metallicFactor":0,
				"roughnessFactor":0.5
			}
		},
		{
			"doubleSided":true,
			"name":"\u30de\u30c6\u30ea\u30a2\u30eb.022",
			"pbrMetallicRoughness":{
				"baseColorFactor":[
					0,
					0.7991040349006653,
					0.0241578109562397,
					1
				],
				"metallicFactor":0,
				"roughnessFactor":0.5
			}
		},
		{
			"doubleSided":true,
			"name":"\u30de\u30c6\u30ea\u30a2\u30eb.023",
			"pbrMetallicRoughness":{
				"baseColorFactor":[
					0,
					0.7991040349006653,
					0.0241578109562397,
					1
				],
				"metallicFactor":0,
				"roughnessFactor":0.5
			}
		},
		{
			"doubleSided":true,
			"name":"\u30de\u30c6\u30ea\u30a2\u30eb.024",
			"pbrMetallicRoughness":{
				"baseColorFactor":[
					0,
					0.7991040349006653,
					0.0241578109562397,
					1
				],
				"metallicFactor":0,
				"roughnessFactor":0.5
			}
		},
		{
			"doubleSided":true,
			"name":"\u30de\u30c6\u30ea\u30a2\u30eb.025",
			"pbrMetallicRoughness":{
				"baseColorFactor":[
					0,
					0.7991040349006653,
					0.0241578109562397,
					1
				],
				"metallicFactor":0,
				"roughnessFactor":0.5
			}
		},
		{
			"doubleSided":true,
			"name":"\u30de\u30c6\u30ea\u30a2\u30eb.107",
			"pbrMetallicRoughness":{
				"baseColorFactor":[
					0.000979604315944016,
					0.8001892566680908,
					0,
					1
				],
				"metallicFactor":0,
				"roughnessFactor":0.5
			}
		}
	],
	"meshes":[
		{
			"name":"\u5e73\u9762",
			"primitives":[
				{
					"attributes":{
						"POSITION":0,
						"NORMAL":1,
						"TEXCOORD_0":2
					},
					"indices":3,
					"material":0
				}
			]
		},
		{
			"name":"\u5e73\u9762.002",
			"primitives":[
				{
					"attributes":{
						"POSITION":4,
						"NORMAL":5,
						"TEXCOORD_0":6
					},
					"indices":7
				}
			]
		},
		{
			"name":"\u5e73\u9762.007",
			"primitives":[
				{
					"attributes":{
						"POSITION":8,
						"NORMAL":9,
						"TEXCOORD_0":10
					},
					"indices":3,
					"material":1
				}
			]
		},
		{
			"name":"\u5e73\u9762.003",
			"primitives":[
				{
					"attributes":{
						"POSITION":11,
						"NORMAL":12,
						"TEXCOORD_0":13
					},
					"indices":14,
					"material":2
				}
			]
		},
		{
			"name":"\u7acb\u65b9\u4f53",
			"primitives":[
				{
					"attributes":{
						"POSITION":15,
						"NORMAL":16,
						"TEXCOORD_0":17
					},
					"indices":18,
					"material":3
				}
			]
		},
		{
			"name":"\u7acb\u65b9\u4f53.001",
			"primitives":[
				{
					"attributes":{
						"POSITION":19,
						"NORMAL":20,
						"TEXCOORD_0":21
					},
					"indices":22,
					"material":4
				}
			]
		},
		{
			"name":"\u7acb\u65b9\u4f53.047",
			"primitives":[
				{
					"attributes":{
						"POSITION":23,
						"NORMAL":24,
						"TEXCOORD_0":25
					},
					"indices":26,
					"material":5
				}
			]
		},
		{
			"name":"\u7acb\u65b9\u4f53.058",
			"primitives":[
				{
					"attributes":{
						"POSITION":27,
						"NORMAL":28,
						"TEXCOORD_0":29
					},
					"indices":30,
					"material":6
				}
			]
		},
		{
			"name":"\u5e73\u9762.004",
			"primitives":[
				{
					"attributes":{
						"POSITION":31,
						"NORMAL":32,
						"TEXCOORD_0":33
					},
					"indices":14,
					"material":7
				}
			]
		},
		{
			"name":"\u5186\u67f1.016",
			"primitives":[
				{
					"attributes":{
						"POSITION":34,
						"NORMAL":35,
						"TEXCOORD_0":36
					},
					"indices":37,
					"material":8
				},
				{
					"attributes":{
						"POSITION":38,
						"NORMAL":39,
						"TEXCOORD_0":40
					},
					"indices":41,
					"material":9
				},
				{
					"attributes":{
						"POSITION":42,
						"NORMAL":43,
						"TEXCOORD_0":44
					},
					"indices":41,
					"material":10
				},
				{
					"attributes":{
						"POSITION":45,
						"NORMAL":46,
						"TEXCOORD_0":47
					},
					"indices":41,
					"material":11
				}
			]
		},
		{
			"name":"\u5186\u67f1",
			"primitives":[
				{
					"attributes":{
						"POSITION":48,
						"NORMAL":49,
						"TEXCOORD_0":50
					},
					"indices":51,
					"material":12
				},
				{
					"attributes":{
						"POSITION":52,
						"NORMAL":53,
						"TEXCOORD_0":54
					},
					"indices":55,
					"material":13
				},
				{
					"attributes":{
						"POSITION":56,
						"NORMAL":57,
						"TEXCOORD_0":58
					},
					"indices":59,
					"material":14
				},
				{
					"attributes":{
						"POSITION":60,
						"NORMAL":61,
						"TEXCOORD_0":62
					},
					"indices":63,
					"material":15
				},
				{
					"attributes":{
						"POSITION":64,
						"NORMAL":65,
						"TEXCOORD_0":66
					},
					"indices":67,
					"material":16
				},
				{
					"attributes":{
						"POSITION":68,
						"NORMAL":69,
						"TEXCOORD_0":70
					},
					"indices":67,
					"material":17
				},
				{
					"attributes":{
						"POSITION":71,
						"NORMAL":72,
						"TEXCOORD_0":73
					},
					"indices":67,
					"material":18
				},
				{
					"attributes":{
						"POSITION":74,
						"NORMAL":75,
						"TEXCOORD_0":76
					},
					"indices":77,
					"material":19
				},
				{
					"attributes":{
						"POSITION":78,
						"NORMAL":79,
						"TEXCOORD_0":80
					},
					"indices":67,
					"material":20
				},
				{
					"attributes":{
						"POSITION":81,
						"NORMAL":82,
						"TEXCOORD_0":83
					},
					"indices":67,
					"material":21
				}
			]
		},
		{
			"name":"\u5186\u67f1.006",
			"primitives":[
				{
					"attributes":{
						"POSITION":84,
						"NORMAL":85,
						"TEXCOORD_0":86
					},
					"indices":87,
					"material":22
				},
				{
					"attributes":{
						"POSITION":88,
						"NORMAL":89,
						"TEXCOORD_0":90
					},
					"indices":91,
					"material":23
				},
				{
					"attributes":{
						"POSITION":92,
						"NORMAL":93,
						"TEXCOORD_0":94
					},
					"indices":95,
					"material":24
				},
				{
					"attributes":{
						"POSITION":96,
						"NORMAL":97,
						"TEXCOORD_0":98
					},
					"indices":99,
					"material":25
				},
				{
					"attributes":{
						"POSITION":100,
						"NORMAL":101,
						"TEXCOORD_0":102
					},
					"indices":99,
					"material":26
				},
				{
					"attributes":{
						"POSITION":103,
						"NORMAL":104,
						"TEXCOORD_0":105
					},
					"indices":99,
					"material":27
				},
				{
					"attributes":{
						"POSITION":106,
						"NORMAL":107,
						"TEXCOORD_0":108
					},
					"indices":99,
					"material":28
				},
				{
					"attributes":{
						"POSITION":109,
						"NORMAL":110,
						"TEXCOORD_0":111
					},
					"indices":99,
					"material":29
				},
				{
					"attributes":{
						"POSITION":112,
						"NORMAL":113,
						"TEXCOORD_0":114
					},
					"indices":99,
					"material":30
				},
				{
					"attributes":{
						"POSITION":115,
						"NORMAL":116,
						"TEXCOORD_0":117
					},
					"indices":99,
					"material":31
				}
			]
		},
		{
			"name":"\u5e73\u9762.001",
			"primitives":[
				{
					"attributes":{
						"POSITION":118,
						"NORMAL":119,
						"TEXCOORD_0":120
					},
					"indices":121,
					"material":32
				}
			]
		}
	],
	"textures":[
		{
			"sampler":0,
			"source":0
		},
		{
			"sampler":0,
			"source":0
		},
		{
			"sampler":0,
			"source":1
		},
		{
			"sampler":0,
			"source":2
		},
		{
			"sampler":0,
			"source":2
		},
		{
			"sampler":0,
			"source":2
		},
		{
			"sampler":0,
			"source":1
		}
	],
	"images":[
		{
			"mimeType":"image/png",
			"name":"ground",
			"uri":"ground.png"
		},
		{
			"mimeType":"image/png",
			"name":"ground",
			"uri":"ground-1.png"
		},
		{
			"mimeType":"image/png",
			"name":"rock",
			"uri":"rock.png"
		}
	],
	"accessors":[
		{
			"bufferView":0,
			"componentType":5126,
			"count":1156,
			"max":[
				1,
				0,
				1
			],
			"min":[
				-1,
				0,
				-1
			],
			"type":"VEC3"
		},
		{
			"bufferView":1,
			"componentType":5126,
			"count":1156,
			"type":"VEC3"
		},
		{
			"bufferView":2,
			"componentType":5126,
			"count":1156,
			"type":"VEC2"
		},
		{
			"bufferView":3,
			"componentType":5123,
			"count":6534,
			"type":"SCALAR"
		},
		{
			"bufferView":4,
			"componentType":5126,
			"count":4,
			"max":[
				1,
				2.978608222292678e-07,
				1
			],
			"min":[
				-1,
				0,
				-1.0000004768371582
			],
			"type":"VEC3"
		},
		{
			"bufferView":5,
			"componentType":5126,
			"count":4,
			"type":"VEC3"
		},
		{
			"bufferView":6,
			"componentType":5126,
			"count":4,
			"type":"VEC2"
		},
		{
			"bufferView":7,
			"componentType":5123,
			"count":6,
			"type":"SCALAR"
		},
		{
			"bufferView":8,
			"componentType":5126,
			"count":1156,
			"max":[
				1,
				0,
				1
			],
			"min":[
				-1,
				0,
				-1
			],
			"type":"VEC3"
		},
		{
			"bufferView":9,
			"componentType":5126,
			"count":1156,
			"type":"VEC3"
		},
		{
			"bufferView":10,
			"componentType":5126,
			"count":1156,
			"type":"VEC2"
		},
		{
			"bufferView":11,
			"componentType":5126,
			"count":1156,
			"max":[
				1,
				0,
				1
			],
			"min":[
				-1,
				0,
				-1
			],
			"type":"VEC3"
		},
		{
			"bufferView":12,
			"componentType":5126,
			"count":1156,
			"type":"VEC3"
		},
		{
			"bufferView":13,
			"componentType":5126,
			"count":1156,
			"type":"VEC2"
		},
		{
			"bufferView":14,
			"componentType":5123,
			"count":6534,
			"type":"SCALAR"
		},
		{
			"bufferView":15,
			"componentType":5126,
			"count":454,
			"max":[
				1,
				2.344285488128662,
				1
			],
			"min":[
				-1,
				-1,
				-1.1441261768341064
			],
			"type":"VEC3"
		},
		{
			"bufferView":16,
			"componentType":5126,
			"count":454,
			"type":"VEC3"
		},
		{
			"bufferView":17,
			"componentType":5126,
			"count":454,
			"type":"VEC2"
		},
		{
			"bufferView":18,
			"componentType":5123,
			"count":1548,
			"type":"SCALAR"
		},
		{
			"bufferView":19,
			"componentType":5126,
			"count":394,
			"max":[
				1.3099331855773926,
				4.116744518280029,
				1
			],
			"min":[
				-1.3099331855773926,
				-1,
				-1.1441261768341064
			],
			"type":"VEC3"
		},
		{
			"bufferView":20,
			"componentType":5126,
			"count":394,
			"type":"VEC3"
		},
		{
			"bufferView":21,
			"componentType":5126,
			"count":394,
			"type":"VEC2"
		},
		{
			"bufferView":22,
			"componentType":5123,
			"count":1308,
			"type":"SCALAR"
		},
		{
			"bufferView":23,
			"componentType":5126,
			"count":1320,
			"max":[
				1.186313271522522,
				117.9141845703125,
				1.5002214908599854
			],
			"min":[
				-1.1682453155517578,
				-45.174835205078125,
				-1.0310362577438354
			],
			"type":"VEC3"
		},
		{
			"bufferView":24,
			"componentType":5126,
			"count":1320,
			"type":"VEC3"
		},
		{
			"bufferView":25,
			"componentType":5126,
			"count":1320,
			"type":"VEC2"
		},
		{
			"bufferView":26,
			"componentType":5123,
			"count":1980,
			"type":"SCALAR"
		},
		{
			"bufferView":27,
			"componentType":5126,
			"count":280,
			"max":[
				0.47399282455444336,
				1.1559207439422607,
				1.000000238418579
			],
			"min":[
				-30.674287796020508,
				-1,
				-1.0000009536743164
			],
			"type":"VEC3"
		},
		{
			"bufferView":28,
			"componentType":5126,
			"count":280,
			"type":"VEC3"
		},
		{
			"bufferView":29,
			"componentType":5126,
			"count":280,
			"type":"VEC2"
		},
		{
			"bufferView":30,
			"componentType":5123,
			"count":648,
			"type":"SCALAR"
		},
		{
			"bufferView":31,
			"componentType":5126,
			"count":1156,
			"max":[
				1,
				0,
				1
			],
			"min":[
				-1,
				0,
				-1
			],
			"type":"VEC3"
		},
		{
			"bufferView":32,
			"componentType":5126,
			"count":1156,
			"type":"VEC3"
		},
		{
			"bufferView":33,
			"componentType":5126,
			"count":1156,
			"type":"VEC2"
		},
		{
			"bufferView":34,
			"componentType":5126,
			"count":192,
			"max":[
				0.5990354418754578,
				1.8336272239685059,
				0.5990354418754578
			],
			"min":[
				-0.5990354418754578,
				-0.16637292504310608,
				-0.599035382270813
			],
			"type":"VEC3"
		},
		{
			"bufferView":35,
			"componentType":5126,
			"count":192,
			"type":"VEC3"
		},
		{
			"bufferView":36,
			"componentType":5126,
			"count":192,
			"type":"VEC2"
		},
		{
			"bufferView":37,
			"componentType":5123,
			"count":372,
			"type":"SCALAR"
		},
		{
			"bufferView":38,
			"componentType":5126,
			"count":128,
			"max":[
				2.8108632564544678,
				1.6216425895690918,
				2.811784029006958
			],
			"min":[
				-2.8170344829559326,
				0.7730722427368164,
				-2.8161137104034424
			],
			"type":"VEC3"
		},
		{
			"bufferView":39,
			"componentType":5126,
			"count":128,
			"type":"VEC3"
		},
		{
			"bufferView":40,
			"componentType":5126,
			"count":128,
			"type":"VEC2"
		},
		{
			"bufferView":41,
			"componentType":5123,
			"count":186,
			"type":"SCALAR"
		},
		{
			"bufferView":42,
			"componentType":5126,
			"count":128,
			"max":[
				2.0504343509674072,
				1.8294763565063477,
				2.0513551235198975
			],
			"min":[
				-2.056605577468872,
				1.2102198600769043,
				-2.055684804916382
			],
			"type":"VEC3"
		},
		{
			"bufferView":43,
			"componentType":5126,
			"count":128,
			"type":"VEC3"
		},
		{
			"bufferView":44,
			"componentType":5126,
			"count":128,
			"type":"VEC2"
		},
		{
			"bufferView":45,
			"componentType":5126,
			"count":128,
			"max":[
				1.5412670373916626,
				1.987114429473877,
				1.5421878099441528
			],
			"min":[
				-1.5474382638931274,
				1.5214014053344727,
				-1.5465174913406372
			],
			"type":"VEC3"
		},
		{
			"bufferView":46,
			"componentType":5126,
			"count":128,
			"type":"VEC3"
		},
		{
			"bufferView":47,
			"componentType":5126,
			"count":128,
			"type":"VEC2"
		},
		{
			"bufferView":48,
			"componentType":5126,
			"count":192,
			"max":[
				0.9712908267974854,
				1.8567767143249512,
				1.0539239645004272
			],
			"min":[
				-1.0254371166229248,
				-0.14322298765182495,
				-0.9428039789199829
			],
			"type":"VEC3"
		},
		{
			"bufferView":49,
			"componentType":5126,
			"count":192,
			"type":"VEC3"
		},
		{
			"bufferView":50,
			"componentType":5126,
			"count":192,
			"type":"VEC2"
		},
		{
			"bufferView":51,
			"componentType":5123,
			"count":372,
			"type":"SCALAR"
		},
		{
			"bufferView":52,
			"componentType":5126,
			"count":576,
			"max":[
				0.282177597284317,
				1.2837409973144531,
				2.190753698348999
			],
			"min":[
				-0.5696885585784912,
				0.7261824607849121,
				0.4562278091907501
			],
			"type":"VEC3"
		},
		{
			"bufferView":53,
			"componentType":5126,
			"count":576,
			"type":"VEC3"
		},
		{
			"bufferView":54,
			"componentType":5126,
			"count":576,
			"type":"VEC2"
		},
		{
			"bufferView":55,
			"componentType":5123,
			"count":948,
			"type":"SCALAR"
		},
		{
			"bufferView":56,
			"componentType":5126,
			"count":576,
			"max":[
				0.42105698585510254,
				0.9040704965591431,
				-0.4067014455795288
			],
			"min":[
				-0.31803077459335327,
				0.446283757686615,
				-2.2132883071899414
			],
			"type":"VEC3"
		},
		{
			"bufferView":57,
			"componentType":5126,
			"count":576,
			"type":"VEC3"
		},
		{
			"bufferView":58,
			"componentType":5126,
			"count":576,
			"type":"VEC2"
		},
		{
			"bufferView":59,
			"componentType":5123,
			"count":948,
			"type":"SCALAR"
		},
		{
			"bufferView":60,
			"componentType":5126,
			"count":240,
			"max":[
				0.8740055561065674,
				1.0166969299316406,
				-1.1517390012741089
			],
			"min":[
				-0.7859538793563843,
				0.6602666974067688,
				-2.759833574295044
			],
			"type":"VEC3"
		},
		{
			"bufferView":61,
			"componentType":5126,
			"count":240,
			"type":"VEC3"
		},
		{
			"bufferView":62,
			"componentType":5126,
			"count":240,
			"type":"VEC2"
		},
		{
			"bufferView":63,
			"componentType":5123,
			"count":240,
			"type":"SCALAR"
		},
		{
			"bufferView":64,
			"componentType":5126,
			"count":240,
			"max":[
				0.8514409065246582,
				1.1552855968475342,
				-1.7791213989257812
			],
			"min":[
				-0.6851180791854858,
				0.7593511939048767,
				-3.2676711082458496
			],
			"type":"VEC3"
		},
		{
			"bufferView":65,
			"componentType":5126,
			"count":240,
			"type":"VEC3"
		},
		{
			"bufferView":66,
			"componentType":5126,
			"count":240,
			"type":"VEC2"
		},
		{
			"bufferView":67,
			"componentType":5123,
			"count":240,
			"type":"SCALAR"
		},
		{
			"bufferView":68,
			"componentType":5126,
			"count":240,
			"max":[
				0.7982529401779175,
				1.1552855968475342,
				-0.8504138588905334
			],
			"min":[
				-0.7383060455322266,
				0.7593511939048767,
				-2.338963508605957
			],
			"type":"VEC3"
		},
		{
			"bufferView":69,
			"componentType":5126,
			"count":240,
			"type":"VEC3"
		},
		{
			"bufferView":70,
			"componentType":5126,
			"count":240,
			"type":"VEC2"
		},
		{
			"bufferView":71,
			"componentType":5126,
			"count":240,
			"max":[
				0.5773715972900391,
				1.5253373384475708,
				3.0063531398773193
			],
			"min":[
				-0.9591872692108154,
				1.129402995109558,
				1.5178035497665405
			],
			"type":"VEC3"
		},
		{
			"bufferView":72,
			"componentType":5126,
			"count":240,
			"type":"VEC3"
		},
		{
			"bufferView":73,
			"componentType":5126,
			"count":240,
			"type":"VEC2"
		},
		{
			"bufferView":74,
			"componentType":5126,
			"count":240,
			"max":[
				0.5580682754516602,
				1.3548393249511719,
				2.825186252593994
			],
			"min":[
				-0.99202561378479,
				1.0619595050811768,
				1.3235242366790771
			],
			"type":"VEC3"
		},
		{
			"bufferView":75,
			"componentType":5126,
			"count":240,
			"type":"VEC3"
		},
		{
			"bufferView":76,
			"componentType":5126,
			"count":240,
			"type":"VEC2"
		},
		{
			"bufferView":77,
			"componentType":5123,
			"count":240,
			"type":"SCALAR"
		},
		{
			"bufferView":78,
			"componentType":5126,
			"count":240,
			"max":[
				0.5639914274215698,
				1.4195595979690552,
				2.108543634414673
			],
			"min":[
				-0.5108221769332886,
				1.1426060199737549,
				1.067312240600586
			],
			"type":"VEC3"
		},
		{
			"bufferView":79,
			"componentType":5126,
			"count":240,
			"type":"VEC3"
		},
		{
			"bufferView":80,
			"componentType":5126,
			"count":240,
			"type":"VEC2"
		},
		{
			"bufferView":81,
			"componentType":5126,
			"count":240,
			"max":[
				1.483186960220337,
				2.317417621612549,
				1.5186336040496826
			],
			"min":[
				-1.5373332500457764,
				1.5391019582748413,
				-1.4075117111206055
			],
			"type":"VEC3"
		},
		{
			"bufferView":82,
			"componentType":5126,
			"count":240,
			"type":"VEC3"
		},
		{
			"bufferView":83,
			"componentType":5126,
			"count":240,
			"type":"VEC2"
		},
		{
			"bufferView":84,
			"componentType":5126,
			"count":192,
			"max":[
				1.3155525922775269,
				1.1403695344924927,
				2.248404026031494
			],
			"min":[
				-0.12172377109527588,
				-0.3016485273838043,
				0.811127781867981
			],
			"type":"VEC3"
		},
		{
			"bufferView":85,
			"componentType":5126,
			"count":192,
			"type":"VEC3"
		},
		{
			"bufferView":86,
			"componentType":5126,
			"count":192,
			"type":"VEC2"
		},
		{
			"bufferView":87,
			"componentType":5123,
			"count":372,
			"type":"SCALAR"
		},
		{
			"bufferView":88,
			"componentType":5126,
			"count":576,
			"max":[
				0.7018569707870483,
				0.45345959067344666,
				3.1038622856140137
			],
			"min":[
				-0.07836830615997314,
				0.12339124083518982,
				1.807814121246338
			],
			"type":"VEC3"
		},
		{
			"bufferView":89,
			"componentType":5126,
			"count":576,
			"type":"VEC3"
		},
		{
			"bufferView":90,
			"componentType":5126,
			"count":576,
			"type":"VEC2"
		},
		{
			"bufferView":91,
			"componentType":5123,
			"count":948,
			"type":"SCALAR"
		},
		{
			"bufferView":92,
			"componentType":5126,
			"count":576,
			"max":[
				1.3271679878234863,
				0.7272053956985474,
				1.3220778703689575
			],
			"min":[
				0.461296021938324,
				0.3252007067203522,
				0.05558645725250244
			],
			"type":"VEC3"
		},
		{
			"bufferView":93,
			"componentType":5126,
			"count":576,
			"type":"VEC3"
		},
		{
			"bufferView":94,
			"componentType":5126,
			"count":576,
			"type":"VEC2"
		},
		{
			"bufferView":95,
			"componentType":5123,
			"count":948,
			"type":"SCALAR"
		},
		{
			"bufferView":96,
			"componentType":5126,
			"count":240,
			"max":[
				1.6350924968719482,
				1.472495675086975,
				2.620457887649536
			],
			"min":[
				-0.44126367568969727,
				0.911323070526123,
				0.43907392024993896
			],
			"type":"VEC3"
		},
		{
			"bufferView":97,
			"componentType":5126,
			"count":240,
			"type":"VEC3"
		},
		{
			"bufferView":98,
			"componentType":5126,
			"count":240,
			"type":"VEC2"
		},
		{
			"bufferView":99,
			"componentType":5123,
			"count":240,
			"type":"SCALAR"
		},
		{
			"bufferView":100,
			"componentType":5126,
			"count":240,
			"max":[
				1.639706015586853,
				0.9013986587524414,
				0.5746086835861206
			],
			"min":[
				0.58344966173172,
				0.6159263849258423,
				-0.5350759029388428
			],
			"type":"VEC3"
		},
		{
			"bufferView":101,
			"componentType":5126,
			"count":240,
			"type":"VEC3"
		},
		{
			"bufferView":102,
			"componentType":5126,
			"count":240,
			"type":"VEC2"
		},
		{
			"bufferView":103,
			"componentType":5126,
			"count":240,
			"max":[
				1.6284910440444946,
				0.778468132019043,
				0.7152208685874939
			],
			"min":[
				0.5629305839538574,
				0.5672991275787354,
				-0.4042384624481201
			],
			"type":"VEC3"
		},
		{
			"bufferView":104,
			"componentType":5126,
			"count":240,
			"type":"VEC3"
		},
		{
			"bufferView":105,
			"componentType":5126,
			"count":240,
			"type":"VEC2"
		},
		{
			"bufferView":106,
			"componentType":5126,
			"count":240,
			"max":[
				1.2069182395935059,
				0.8251320123672485,
				0.8388419151306152
			],
			"min":[
				0.46807336807250977,
				0.6254458427429199,
				0.06262433528900146
			],
			"type":"VEC3"
		},
		{
			"bufferView":107,
			"componentType":5126,
			"count":240,
			"type":"VEC3"
		},
		{
			"bufferView":108,
			"componentType":5126,
			"count":240,
			"type":"VEC2"
		},
		{
			"bufferView":109,
			"componentType":5126,
			"count":240,
			"max":[
				0.7529149055480957,
				0.5346642732620239,
				3.519801616668701
			],
			"min":[
				-0.3881688117980957,
				0.2776748239994049,
				2.3209989070892334
			],
			"type":"VEC3"
		},
		{
			"bufferView":110,
			"componentType":5126,
			"count":240,
			"type":"VEC3"
		},
		{
			"bufferView":111,
			"componentType":5126,
			"count":240,
			"type":"VEC2"
		},
		{
			"bufferView":112,
			"componentType":5126,
			"count":240,
			"max":[
				0.5802080631256104,
				0.6345880031585693,
				3.864224672317505
			],
			"min":[
				-0.4760483503341675,
				0.3491156995296478,
				2.754539966583252
			],
			"type":"VEC3"
		},
		{
			"bufferView":113,
			"componentType":5126,
			"count":240,
			"type":"VEC3"
		},
		{
			"bufferView":114,
			"componentType":5126,
			"count":240,
			"type":"VEC2"
		},
		{
			"bufferView":115,
			"componentType":5126,
			"count":240,
			"max":[
				0.7858226299285889,
				0.6345880031585693,
				3.225815534591675
			],
			"min":[
				-0.2704337239265442,
				0.3491156995296478,
				2.116131067276001
			],
			"type":"VEC3"
		},
		{
			"bufferView":116,
			"componentType":5126,
			"count":240,
			"type":"VEC3"
		},
		{
			"bufferView":117,
			"componentType":5126,
			"count":240,
			"type":"VEC2"
		},
		{
			"bufferView":118,
			"componentType":5126,
			"count":78,
			"max":[
				1.4512152671813965,
				9.163723007077351e-07,
				0.021981030702590942
			],
			"min":[
				-4.3832597732543945,
				-0.010956907644867897,
				-2.471639394760132
			],
			"type":"VEC3"
		},
		{
			"bufferView":119,
			"componentType":5126,
			"count":78,
			"type":"VEC3"
		},
		{
			"bufferView":120,
			"componentType":5126,
			"count":78,
			"type":"VEC2"
		},
		{
			"bufferView":121,
			"componentType":5123,
			"count":162,
			"type":"SCALAR"
		}
	],
	"bufferViews":[
		{
			"buffer":0,
			"byteLength":13872,
			"byteOffset":0,
			"target":34962
		},
		{
			"buffer":0,
			"byteLength":13872,
			"byteOffset":13872,
			"target":34962
		},
		{
			"buffer":0,
			"byteLength":9248,
			"byteOffset":27744,
			"target":34962
		},
		{
			"buffer":0,
			"byteLength":13068,
			"byteOffset":36992,
			"target":34963
		},
		{
			"buffer":0,
			"byteLength":48,
			"byteOffset":50060,
			"target":34962
		},
		{
			"buffer":0,
			"byteLength":48,
			"byteOffset":50108,
			"target":34962
		},
		{
			"buffer":0,
			"byteLength":32,
			"byteOffset":50156,
			"target":34962
		},
		{
			"buffer":0,
			"byteLength":12,
			"byteOffset":50188,
			"target":34963
		},
		{
			"buffer":0,
			"byteLength":13872,
			"byteOffset":50200,
			"target":34962
		},
		{
			"buffer":0,
			"byteLength":13872,
			"byteOffset":64072,
			"target":34962
		},
		{
			"buffer":0,
			"byteLength":9248,
			"byteOffset":77944,
			"target":34962
		},
		{
			"buffer":0,
			"byteLength":13872,
			"byteOffset":87192,
			"target":34962
		},
		{
			"buffer":0,
			"byteLength":13872,
			"byteOffset":101064,
			"target":34962
		},
		{
			"buffer":0,
			"byteLength":9248,
			"byteOffset":114936,
			"target":34962
		},
		{
			"buffer":0,
			"byteLength":13068,
			"byteOffset":124184,
			"target":34963
		},
		{
			"buffer":0,
			"byteLength":5448,
			"byteOffset":137252,
			"target":34962
		},
		{
			"buffer":0,
			"byteLength":5448,
			"byteOffset":142700,
			"target":34962
		},
		{
			"buffer":0,
			"byteLength":3632,
			"byteOffset":148148,
			"target":34962
		},
		{
			"buffer":0,
			"byteLength":3096,
			"byteOffset":151780,
			"target":34963
		},
		{
			"buffer":0,
			"byteLength":4728,
			"byteOffset":154876,
			"target":34962
		},
		{
			"buffer":0,
			"byteLength":4728,
			"byteOffset":159604,
			"target":34962
		},
		{
			"buffer":0,
			"byteLength":3152,
			"byteOffset":164332,
			"target":34962
		},
		{
			"buffer":0,
			"byteLength":2616,
			"byteOffset":167484,
			"target":34963
		},
		{
			"buffer":0,
			"byteLength":15840,
			"byteOffset":170100,
			"target":34962
		},
		{
			"buffer":0,
			"byteLength":15840,
			"byteOffset":185940,
			"target":34962
		},
		{
			"buffer":0,
			"byteLength":10560,
			"byteOffset":201780,
			"target":34962
		},
		{
			"buffer":0,
			"byteLength":3960,
			"byteOffset":212340,
			"target":34963
		},
		{
			"buffer":0,
			"byteLength":3360,
			"byteOffset":216300,
			"target":34962
		},
		{
			"buffer":0,
			"byteLength":3360,
			"byteOffset":219660,
			"target":34962
		},
		{
			"buffer":0,
			"byteLength":2240,
			"byteOffset":223020,
			"target":34962
		},
		{
			"buffer":0,
			"byteLength":1296,
			"byteOffset":225260,
			"target":34963
		},
		{
			"buffer":0,
			"byteLength":13872,
			"byteOffset":226556,
			"target":34962
		},
		{
			"buffer":0,
			"byteLength":13872,
			"byteOffset":240428,
			"target":34962
		},
		{
			"buffer":0,
			"byteLength":9248,
			"byteOffset":254300,
			"target":34962
		},
		{
			"buffer":0,
			"byteLength":2304,
			"byteOffset":263548,
			"target":34962
		},
		{
			"buffer":0,
			"byteLength":2304,
			"byteOffset":265852,
			"target":34962
		},
		{
			"buffer":0,
			"byteLength":1536,
			"byteOffset":268156,
			"target":34962
		},
		{
			"buffer":0,
			"byteLength":744,
			"byteOffset":269692,
			"target":34963
		},
		{
			"buffer":0,
			"byteLength":1536,
			"byteOffset":270436,
			"target":34962
		},
		{
			"buffer":0,
			"byteLength":1536,
			"byteOffset":271972,
			"target":34962
		},
		{
			"buffer":0,
			"byteLength":1024,
			"byteOffset":273508,
			"target":34962
		},
		{
			"buffer":0,
			"byteLength":372,
			"byteOffset":274532,
			"target":34963
		},
		{
			"buffer":0,
			"byteLength":1536,
			"byteOffset":274904,
			"target":34962
		},
		{
			"buffer":0,
			"byteLength":1536,
			"byteOffset":276440,
			"target":34962
		},
		{
			"buffer":0,
			"byteLength":1024,
			"byteOffset":277976,
			"target":34962
		},
		{
			"buffer":0,
			"byteLength":1536,
			"byteOffset":279000,
			"target":34962
		},
		{
			"buffer":0,
			"byteLength":1536,
			"byteOffset":280536,
			"target":34962
		},
		{
			"buffer":0,
			"byteLength":1024,
			"byteOffset":282072,
			"target":34962
		},
		{
			"buffer":0,
			"byteLength":2304,
			"byteOffset":283096,
			"target":34962
		},
		{
			"buffer":0,
			"byteLength":2304,
			"byteOffset":285400,
			"target":34962
		},
		{
			"buffer":0,
			"byteLength":1536,
			"byteOffset":287704,
			"target":34962
		},
		{
			"buffer":0,
			"byteLength":744,
			"byteOffset":289240,
			"target":34963
		},
		{
			"buffer":0,
			"byteLength":6912,
			"byteOffset":289984,
			"target":34962
		},
		{
			"buffer":0,
			"byteLength":6912,
			"byteOffset":296896,
			"target":34962
		},
		{
			"buffer":0,
			"byteLength":4608,
			"byteOffset":303808,
			"target":34962
		},
		{
			"buffer":0,
			"byteLength":1896,
			"byteOffset":308416,
			"target":34963
		},
		{
			"buffer":0,
			"byteLength":6912,
			"byteOffset":310312,
			"target":34962
		},
		{
			"buffer":0,
			"byteLength":6912,
			"byteOffset":317224,
			"target":34962
		},
		{
			"buffer":0,
			"byteLength":4608,
			"byteOffset":324136,
			"target":34962
		},
		{
			"buffer":0,
			"byteLength":1896,
			"byteOffset":328744,
			"target":34963
		},
		{
			"buffer":0,
			"byteLength":2880,
			"byteOffset":330640,
			"target":34962
		},
		{
			"buffer":0,
			"byteLength":2880,
			"byteOffset":333520,
			"target":34962
		},
		{
			"buffer":0,
			"byteLength":1920,
			"byteOffset":336400,
			"target":34962
		},
		{
			"buffer":0,
			"byteLength":480,
			"byteOffset":338320,
			"target":34963
		},
		{
			"buffer":0,
			"byteLength":2880,
			"byteOffset":338800,
			"target":34962
		},
		{
			"buffer":0,
			"byteLength":2880,
			"byteOffset":341680,
			"target":34962
		},
		{
			"buffer":0,
			"byteLength":1920,
			"byteOffset":344560,
			"target":34962
		},
		{
			"buffer":0,
			"byteLength":480,
			"byteOffset":346480,
			"target":34963
		},
		{
			"buffer":0,
			"byteLength":2880,
			"byteOffset":346960,
			"target":34962
		},
		{
			"buffer":0,
			"byteLength":2880,
			"byteOffset":349840,
			"target":34962
		},
		{
			"buffer":0,
			"byteLength":1920,
			"byteOffset":352720,
			"target":34962
		},
		{
			"buffer":0,
			"byteLength":2880,
			"byteOffset":354640,
			"target":34962
		},
		{
			"buffer":0,
			"byteLength":2880,
			"byteOffset":357520,
			"target":34962
		},
		{
			"buffer":0,
			"byteLength":1920,
			"byteOffset":360400,
			"target":34962
		},
		{
			"buffer":0,
			"byteLength":2880,
			"byteOffset":362320,
			"target":34962
		},
		{
			"buffer":0,
			"byteLength":2880,
			"byteOffset":365200,
			"target":34962
		},
		{
			"buffer":0,
			"byteLength":1920,
			"byteOffset":368080,
			"target":34962
		},
		{
			"buffer":0,
			"byteLength":480,
			"byteOffset":370000,
			"target":34963
		},
		{
			"buffer":0,
			"byteLength":2880,
			"byteOffset":370480,
			"target":34962
		},
		{
			"buffer":0,
			"byteLength":2880,
			"byteOffset":373360,
			"target":34962
		},
		{
			"buffer":0,
			"byteLength":1920,
			"byteOffset":376240,
			"target":34962
		},
		{
			"buffer":0,
			"byteLength":2880,
			"byteOffset":378160,
			"target":34962
		},
		{
			"buffer":0,
			"byteLength":2880,
			"byteOffset":381040,
			"target":34962
		},
		{
			"buffer":0,
			"byteLength":1920,
			"byteOffset":383920,
			"target":34962
		},
		{
			"buffer":0,
			"byteLength":2304,
			"byteOffset":385840,
			"target":34962
		},
		{
			"buffer":0,
			"byteLength":2304,
			"byteOffset":388144,
			"target":34962
		},
		{
			"buffer":0,
			"byteLength":1536,
			"byteOffset":390448,
			"target":34962
		},
		{
			"buffer":0,
			"byteLength":744,
			"byteOffset":391984,
			"target":34963
		},
		{
			"buffer":0,
			"byteLength":6912,
			"byteOffset":392728,
			"target":34962
		},
		{
			"buffer":0,
			"byteLength":6912,
			"byteOffset":399640,
			"target":34962
		},
		{
			"buffer":0,
			"byteLength":4608,
			"byteOffset":406552,
			"target":34962
		},
		{
			"buffer":0,
			"byteLength":1896,
			"byteOffset":411160,
			"target":34963
		},
		{
			"buffer":0,
			"byteLength":6912,
			"byteOffset":413056,
			"target":34962
		},
		{
			"buffer":0,
			"byteLength":6912,
			"byteOffset":419968,
			"target":34962
		},
		{
			"buffer":0,
			"byteLength":4608,
			"byteOffset":426880,
			"target":34962
		},
		{
			"buffer":0,
			"byteLength":1896,
			"byteOffset":431488,
			"target":34963
		},
		{
			"buffer":0,
			"byteLength":2880,
			"byteOffset":433384,
			"target":34962
		},
		{
			"buffer":0,
			"byteLength":2880,
			"byteOffset":436264,
			"target":34962
		},
		{
			"buffer":0,
			"byteLength":1920,
			"byteOffset":439144,
			"target":34962
		},
		{
			"buffer":0,
			"byteLength":480,
			"byteOffset":441064,
			"target":34963
		},
		{
			"buffer":0,
			"byteLength":2880,
			"byteOffset":441544,
			"target":34962
		},
		{
			"buffer":0,
			"byteLength":2880,
			"byteOffset":444424,
			"target":34962
		},
		{
			"buffer":0,
			"byteLength":1920,
			"byteOffset":447304,
			"target":34962
		},
		{
			"buffer":0,
			"byteLength":2880,
			"byteOffset":449224,
			"target":34962
		},
		{
			"buffer":0,
			"byteLength":2880,
			"byteOffset":452104,
			"target":34962
		},
		{
			"buffer":0,
			"byteLength":1920,
			"byteOffset":454984,
			"target":34962
		},
		{
			"buffer":0,
			"byteLength":2880,
			"byteOffset":456904,
			"target":34962
		},
		{
			"buffer":0,
			"byteLength":2880,
			"byteOffset":459784,
			"target":34962
		},
		{
			"buffer":0,
			"byteLength":1920,
			"byteOffset":462664,
			"target":34962
		},
		{
			"buffer":0,
			"byteLength":2880,
			"byteOffset":464584,
			"target":34962
		},
		{
			"buffer":0,
			"byteLength":2880,
			"byteOffset":467464,
			"target":34962
		},
		{
			"buffer":0,
			"byteLength":1920,
			"byteOffset":470344,
			"target":34962
		},
		{
			"buffer":0,
			"byteLength":2880,
			"byteOffset":472264,
			"target":34962
		},
		{
			"buffer":0,
			"byteLength":2880,
			"byteOffset":475144,
			"target":34962
		},
		{
			"buffer":0,
			"byteLength":1920,
			"byteOffset":478024,
			"target":34962
		},
		{
			"buffer":0,
			"byteLength":2880,
			"byteOffset":479944,
			"target":34962
		},
		{
			"buffer":0,
			"byteLength":2880,
			"byteOffset":482824,
			"target":34962
		},
		{
			"buffer":0,
			"byteLength":1920,
			"byteOffset":485704,
			"target":34962
		},
		{
			"buffer":0,
			"byteLength":936,
			"byteOffset":487624,
			"target":34962
		},
		{
			"buffer":0,
			"byteLength":936,
			"byteOffset":488560,
			"target":34962
		},
		{
			"buffer":0,
			"byteLength":624,
			"byteOffset":489496,
			"target":34962
		},
		{
			"buffer":0,
			"byteLength":324,
			"byteOffset":490120,
			"target":34963
		}
	],
	"samplers":[
		{
			"magFilter":9729,
			"minFilter":9987
		}
	],
	"buffers":[
		{
			"byteLength":490444,
			"uri":"castle.bin"
		}
	]
}
