# Blender 4.4.1
# www.blender.org
mtllib tutorial.mtl
o 平面
v -30.000000 60.000000 29.999998
v -30.000000 0.000002 29.999998
v -30.000000 60.000000 -29.999998
v -30.000000 0.000002 -29.999998
vn 1.0000 -0.0000 -0.0000
vt 0.000000 0.000000
vt 1.000000 0.000000
vt 1.000000 1.000000
vt 0.000000 1.000000
s 0
usemtl マテリアル.003
f 1/1/1 2/2/1 4/3/1 3/4/1
o 平面.001
v -29.999998 0.000000 29.999998
v 29.999998 0.000000 29.999998
v -29.999998 0.000000 -29.999998
v 29.999998 0.000000 -29.999998
vn -0.0000 1.0000 -0.0000
vt 0.000000 0.000000
vt 1.000000 0.000000
vt 1.000000 1.000000
vt 0.000000 1.000000
s 0
usemtl マテリアル.005
f 5/5/2 6/6/2 8/7/2 7/8/2
o 平面.002
v 30.000000 60.000000 29.999998
v 30.000000 0.000002 29.999998
v 30.000000 60.000000 -29.999998
v 30.000000 0.000002 -29.999998
vn -1.0000 -0.0000 -0.0000
vt 0.000000 0.000000
vt 0.000000 1.000000
vt 1.000000 1.000000
vt 1.000000 0.000000
s 0
usemtl マテリアル
f 9/9/3 11/10/3 12/11/3 10/12/3
o 平面.005
v -29.999998 60.000000 29.999998
v 29.999998 60.000000 29.999998
v -29.999998 60.000000 -29.999998
v 29.999998 60.000000 -29.999998
vn -0.0000 -1.0000 -0.0000
vt 0.000000 0.000000
vt 0.000000 1.000000
vt 1.000000 1.000000
vt 1.000000 0.000000
s 0
usemtl マテリアル.001
f 13/13/4 15/14/4 16/15/4 14/16/4
o 平面.003
v -29.999996 60.000000 -30.000002
v -30.000000 0.000004 -30.000000
v 30.000000 59.999996 -30.000000
v 29.999996 0.000000 -29.999998
vn -0.0000 -0.0000 -1.0000
vt 0.000000 -0.020134
vt 0.000000 0.979867
vt 1.000000 0.979867
vt 1.000000 -0.020134
s 0
usemtl マテリアル
f 17/17/5 19/18/5 20/19/5 18/20/5
o 平面.004
v -29.999996 60.000000 29.999998
v -30.000000 0.000004 30.000000
v 30.000000 59.999996 30.000000
v 29.999996 0.000000 30.000002
vn -0.0000 -0.0000 -1.0000
vt 0.000000 -0.020134
vt 0.000000 0.979867
vt 1.000000 0.979867
vt 1.000000 -0.020134
s 0
usemtl マテリアル.007
f 21/21/6 23/22/6 24/23/6 22/24/6
