# Blender 4.4.1
# www.blender.org
mtllib poisonPlane.mtl
o 平面.001
v 0.000000 1.000000 1.000000
v -0.000000 -1.000000 1.000000
v 0.000000 1.000000 -1.000000
v -0.000000 -1.000000 -1.000000
vn 1.0000 -0.0000 -0.0000
vt 1.000000 0.000000
vt 0.000000 1.000000
vt 0.000000 0.000000
vt 1.000000 1.000000
s 0
usemtl マテリアル.001
f 2/1/1 3/2/1 1/3/1
f 2/1/1 4/4/1 3/2/1
o 平面.002
v 0.000000 -1.000000 1.000000
v -0.000000 1.000000 1.000000
v 0.000000 -1.000000 -1.000000
v -0.000000 1.000000 -1.000000
vn -1.0000 -0.0000 -0.0000
vt 1.000000 0.000000
vt 0.000000 1.000000
vt 0.000000 0.000000
vt 1.000000 1.000000
s 0
usemtl マテリアル.002
f 6/5/2 7/6/2 5/7/2
f 6/5/2 8/8/2 7/6/2
