# Blender 4.4.1
# www.blender.org
mtllib 1.mtl
o テキスト
v 1.104783 2.472247 -0.015609
v 1.104783 1.713666 -0.015609
v 1.197544 1.713666 -0.015609
v 1.197544 2.304761 -0.015609
v 1.203272 2.299436 -0.015609
v 1.209290 2.294111 -0.015609
v 1.215597 2.288785 -0.015609
v 1.222195 2.283460 -0.015609
v 1.229082 2.278135 -0.015609
v 1.236259 2.272810 -0.015609
v 1.243726 2.267485 -0.015609
v 1.251483 2.262160 -0.015609
v 1.259530 2.256835 -0.015609
v 1.267867 2.251509 -0.015609
v 1.276493 2.246184 -0.015609
v 1.285410 2.240859 -0.015609
v 1.294394 2.235645 -0.015609
v 1.303225 2.230652 -0.015609
v 1.311902 2.225882 -0.015609
v 1.320424 2.221333 -0.015609
v 1.328793 2.217007 -0.015609
v 1.337008 2.212902 -0.015609
v 1.345069 2.209019 -0.015609
v 1.352977 2.205358 -0.015609
v 1.360730 2.201919 -0.015609
v 1.368330 2.198701 -0.015609
v 1.375775 2.195706 -0.015609
v 1.383067 2.192932 -0.015609
v 1.383067 2.282602 -0.015609
v 1.370233 2.288807 -0.015609
v 1.357672 2.295228 -0.015609
v 1.345383 2.301862 -0.015609
v 1.333365 2.308712 -0.015609
v 1.321620 2.315777 -0.015609
v 1.310146 2.323056 -0.015609
v 1.298945 2.330550 -0.015609
v 1.288015 2.338258 -0.015609
v 1.277358 2.346182 -0.015609
v 1.266972 2.354320 -0.015609
v 1.256859 2.362673 -0.015609
v 1.247017 2.371240 -0.015609
v 1.237548 2.379894 -0.015609
v 1.228551 2.388504 -0.015609
v 1.220026 2.397071 -0.015609
v 1.211974 2.405596 -0.015609
v 1.204394 2.414078 -0.015609
v 1.197287 2.422516 -0.015609
v 1.190652 2.430912 -0.015609
v 1.184489 2.439265 -0.015609
v 1.178799 2.447575 -0.015609
v 1.173581 2.455842 -0.015609
v 1.168836 2.464066 -0.015609
v 1.164563 2.472247 -0.015609
v 1.104783 2.472247 -0.001609
v 1.104783 1.713666 -0.001609
v 1.197544 1.713666 -0.001609
v 1.197544 2.304761 -0.001609
v 1.203272 2.299436 -0.001609
v 1.209290 2.294111 -0.001609
v 1.215597 2.288785 -0.001609
v 1.222195 2.283460 -0.001609
v 1.229082 2.278135 -0.001609
v 1.236259 2.272810 -0.001609
v 1.243726 2.267485 -0.001609
v 1.251483 2.262160 -0.001609
v 1.259530 2.256835 -0.001609
v 1.267867 2.251509 -0.001609
v 1.276493 2.246184 -0.001609
v 1.285410 2.240859 -0.001609
v 1.294394 2.235645 -0.001609
v 1.303225 2.230652 -0.001609
v 1.311902 2.225882 -0.001609
v 1.320424 2.221333 -0.001609
v 1.328793 2.217007 -0.001609
v 1.337008 2.212902 -0.001609
v 1.345069 2.209019 -0.001609
v 1.352977 2.205358 -0.001609
v 1.360730 2.201919 -0.001609
v 1.368330 2.198701 -0.001609
v 1.375775 2.195706 -0.001609
v 1.383067 2.192932 -0.001609
v 1.383067 2.282602 -0.001609
v 1.370233 2.288807 -0.001609
v 1.357672 2.295228 -0.001609
v 1.345383 2.301862 -0.001609
v 1.333365 2.308712 -0.001609
v 1.321620 2.315777 -0.001609
v 1.310146 2.323056 -0.001609
v 1.298945 2.330550 -0.001609
v 1.288015 2.338258 -0.001609
v 1.277358 2.346182 -0.001609
v 1.266972 2.354320 -0.001609
v 1.256859 2.362673 -0.001609
v 1.247017 2.371240 -0.001609
v 1.237548 2.379894 -0.001609
v 1.228551 2.388504 -0.001609
v 1.220026 2.397071 -0.001609
v 1.211974 2.405596 -0.001609
v 1.204394 2.414078 -0.001609
v 1.197287 2.422516 -0.001609
v 1.190652 2.430912 -0.001609
v 1.184489 2.439265 -0.001609
v 1.178799 2.447575 -0.001609
v 1.173581 2.455842 -0.001609
v 1.168836 2.464066 -0.001609
v 1.164563 2.472247 -0.001609
v 1.104783 2.472247 -0.001609
v 1.104783 2.472247 -0.015609
v 1.104783 1.713666 -0.001609
v 1.104783 1.713666 -0.015609
v 1.197544 1.713666 -0.001609
v 1.197544 1.713666 -0.015609
v 1.197544 2.304761 -0.001609
v 1.197544 2.304761 -0.015609
v 1.203272 2.299436 -0.001609
v 1.203272 2.299436 -0.015609
v 1.209290 2.294111 -0.001609
v 1.209290 2.294111 -0.015609
v 1.215597 2.288785 -0.001609
v 1.215597 2.288785 -0.015609
v 1.222195 2.283460 -0.001609
v 1.222195 2.283460 -0.015609
v 1.229082 2.278135 -0.001609
v 1.229082 2.278135 -0.015609
v 1.236259 2.272810 -0.001609
v 1.236259 2.272810 -0.015609
v 1.243726 2.267485 -0.001609
v 1.243726 2.267485 -0.015609
v 1.251483 2.262160 -0.001609
v 1.251483 2.262160 -0.015609
v 1.259530 2.256835 -0.001609
v 1.259530 2.256835 -0.015609
v 1.267867 2.251509 -0.001609
v 1.267867 2.251509 -0.015609
v 1.276493 2.246184 -0.001609
v 1.276493 2.246184 -0.015609
v 1.285410 2.240859 -0.001609
v 1.285410 2.240859 -0.015609
v 1.294394 2.235645 -0.001609
v 1.294394 2.235645 -0.015609
v 1.303225 2.230652 -0.001609
v 1.303225 2.230652 -0.015609
v 1.311902 2.225882 -0.001609
v 1.311902 2.225882 -0.015609
v 1.320424 2.221333 -0.001609
v 1.320424 2.221333 -0.015609
v 1.328793 2.217007 -0.001609
v 1.328793 2.217007 -0.015609
v 1.337008 2.212902 -0.001609
v 1.337008 2.212902 -0.015609
v 1.345069 2.209019 -0.001609
v 1.345069 2.209019 -0.015609
v 1.352977 2.205358 -0.001609
v 1.352977 2.205358 -0.015609
v 1.360730 2.201919 -0.001609
v 1.360730 2.201919 -0.015609
v 1.368330 2.198701 -0.001609
v 1.368330 2.198701 -0.015609
v 1.375775 2.195706 -0.001609
v 1.375775 2.195706 -0.015609
v 1.383067 2.192932 -0.001609
v 1.383067 2.192932 -0.015609
v 1.383067 2.282602 -0.001609
v 1.383067 2.282602 -0.015609
v 1.370233 2.288807 -0.001609
v 1.370233 2.288807 -0.015609
v 1.357672 2.295228 -0.001609
v 1.357672 2.295228 -0.015609
v 1.345383 2.301862 -0.001609
v 1.345383 2.301862 -0.015609
v 1.333365 2.308712 -0.001609
v 1.333365 2.308712 -0.015609
v 1.321620 2.315777 -0.001609
v 1.321620 2.315777 -0.015609
v 1.310146 2.323056 -0.001609
v 1.310146 2.323056 -0.015609
v 1.298945 2.330550 -0.001609
v 1.298945 2.330550 -0.015609
v 1.288015 2.338258 -0.001609
v 1.288015 2.338258 -0.015609
v 1.277358 2.346182 -0.001609
v 1.277358 2.346182 -0.015609
v 1.266972 2.354320 -0.001609
v 1.266972 2.354320 -0.015609
v 1.256859 2.362673 -0.001609
v 1.256859 2.362673 -0.015609
v 1.247017 2.371240 -0.001609
v 1.247017 2.371240 -0.015609
v 1.237548 2.379894 -0.001609
v 1.237548 2.379894 -0.015609
v 1.228551 2.388504 -0.001609
v 1.228551 2.388504 -0.015609
v 1.220026 2.397071 -0.001609
v 1.220026 2.397071 -0.015609
v 1.211974 2.405596 -0.001609
v 1.211974 2.405596 -0.015609
v 1.204394 2.414078 -0.001609
v 1.204394 2.414078 -0.015609
v 1.197287 2.422516 -0.001609
v 1.197287 2.422516 -0.015609
v 1.190652 2.430912 -0.001609
v 1.190652 2.430912 -0.015609
v 1.184489 2.439265 -0.001609
v 1.184489 2.439265 -0.015609
v 1.178799 2.447575 -0.001609
v 1.178799 2.447575 -0.015609
v 1.173581 2.455842 -0.001609
v 1.173581 2.455842 -0.015609
v 1.168836 2.464066 -0.001609
v 1.168836 2.464066 -0.015609
v 1.164563 2.472247 -0.001609
v 1.164563 2.472247 -0.015609
vn -0.0000 -0.0000 -1.0000
vn -0.0000 -0.0000 1.0000
vn -0.7071 -0.7071 -0.0000
vn -0.7071 0.7071 -0.0000
vn 0.7071 -0.7071 -0.0000
vn 0.3995 -0.9167 -0.0000
vn -0.6718 -0.7407 -0.0000
vn -0.6540 -0.7565 -0.0000
vn -0.6367 -0.7711 -0.0000
vn -0.6199 -0.7847 -0.0000
vn -0.6038 -0.7971 -0.0000
vn -0.5883 -0.8087 -0.0000
vn -0.5733 -0.8193 -0.0000
vn -0.5589 -0.8292 -0.0000
vn -0.5451 -0.8384 -0.0000
vn -0.5318 -0.8468 -0.0000
vn -0.5190 -0.8548 -0.0000
vn -0.5073 -0.8617 -0.0000
vn -0.4971 -0.8677 -0.0000
vn -0.4870 -0.8734 -0.0000
vn -0.4763 -0.8793 -0.0000
vn -0.4651 -0.8853 -0.0000
vn -0.4531 -0.8915 -0.0000
vn -0.4405 -0.8978 -0.0000
vn -0.4271 -0.9042 -0.0000
vn -0.4128 -0.9108 -0.0000
vn -0.3977 -0.9175 -0.0000
vn -0.3816 -0.9243 -0.0000
vn -0.3644 -0.9312 -0.0000
vn 0.5677 -0.8233 -0.0000
vn 0.8471 0.5314 -0.0000
vn 0.5676 -0.8233 -0.0000
vn 0.4452 0.8954 -0.0000
vn 0.4651 0.8852 -0.0000
vn 0.4851 0.8744 -0.0000
vn 0.5054 0.8629 -0.0000
vn 0.5256 0.8507 -0.0000
vn 0.5459 0.8378 -0.0000
vn 0.5662 0.8242 -0.0000
vn 0.5865 0.8099 -0.0000
vn 0.6068 0.7949 -0.0000
vn 0.5866 0.8099 -0.0000
vn 0.6268 0.7791 -0.0000
vn 0.6467 0.7627 -0.0000
vn 0.6656 0.7463 -0.0000
vn 0.6831 0.7304 -0.0000
vn 0.7002 0.7140 -0.0000
vn 0.7180 0.6961 -0.0000
vn 0.7364 0.6766 -0.0000
vn 0.7553 0.6553 -0.0000
vn 0.7748 0.6322 -0.0000
vn 0.7553 0.6554 -0.0000
vn 0.7947 0.6069 -0.0000
vn 0.8150 0.5794 -0.0000
vn 0.7947 0.6070 -0.0000
vn 0.8355 0.5495 -0.0000
vn 0.8561 0.5169 -0.0000
vn 0.8765 0.4815 -0.0000
vn 0.5182 0.8553 -0.0000
vt 0.980769 0.000000
vt 0.000000 0.000000
vt 1.000000 0.000000
vt 0.019231 0.000000
vt 0.961538 0.000000
vt 0.942308 0.000000
vt 0.923077 0.000000
vt 0.903846 0.000000
vt 0.884615 0.000000
vt 0.865385 0.000000
vt 0.846154 0.000000
vt 0.826923 0.000000
vt 0.057692 0.000000
vt 0.807692 0.000000
vt 0.788462 0.000000
vt 0.769231 0.000000
vt 0.750000 0.000000
vt 0.730769 0.000000
vt 0.711538 0.000000
vt 0.692308 0.000000
vt 0.673077 0.000000
vt 0.653846 0.000000
vt 0.634615 0.000000
vt 0.615385 0.000000
vt 0.596154 0.000000
vt 0.076923 0.000000
vt 0.038462 0.000000
vt 0.576923 0.000000
vt 0.096154 0.000000
vt 0.557692 0.000000
vt 0.115385 0.000000
vt 0.538462 0.000000
vt 0.134615 0.000000
vt 0.153846 0.000000
vt 0.519231 0.000000
vt 0.173077 0.000000
vt 0.192308 0.000000
vt 0.211538 0.000000
vt 0.230769 0.000000
vt 0.250000 0.000000
vt 0.269231 0.000000
vt 0.288462 0.000000
vt 0.307692 0.000000
vt 0.326923 0.000000
vt 0.346154 0.000000
vt 0.365385 0.000000
vt 0.384615 0.000000
vt 0.403846 0.000000
vt 0.423077 0.000000
vt 0.442308 0.000000
vt 0.461538 0.000000
vt 0.480769 0.000000
vt 0.500000 0.000000
vt 0.018868 1.000000
vt 0.000000 1.000000
vt 0.037736 1.000000
vt 0.018868 0.000000
vt 0.056604 1.000000
vt 0.037736 0.000000
vt 0.075472 1.000000
vt 0.056604 0.000000
vt 0.094340 1.000000
vt 0.075472 0.000000
vt 0.113208 1.000000
vt 0.094340 0.000000
vt 0.132075 1.000000
vt 0.113208 0.000000
vt 0.150943 1.000000
vt 0.132075 0.000000
vt 0.169811 1.000000
vt 0.150943 0.000000
vt 0.188679 1.000000
vt 0.169811 0.000000
vt 0.207547 1.000000
vt 0.188679 0.000000
vt 0.226415 1.000000
vt 0.207547 0.000000
vt 0.245283 1.000000
vt 0.226415 0.000000
vt 0.264151 1.000000
vt 0.245283 0.000000
vt 0.283019 1.000000
vt 0.264151 0.000000
vt 0.301887 1.000000
vt 0.283019 0.000000
vt 0.320755 1.000000
vt 0.301887 0.000000
vt 0.339623 1.000000
vt 0.320755 0.000000
vt 0.358491 1.000000
vt 0.339623 0.000000
vt 0.377358 1.000000
vt 0.358491 0.000000
vt 0.396226 1.000000
vt 0.377358 0.000000
vt 0.415094 1.000000
vt 0.396226 0.000000
vt 0.433962 1.000000
vt 0.415094 0.000000
vt 0.452830 1.000000
vt 0.433962 0.000000
vt 0.471698 1.000000
vt 0.452830 0.000000
vt 0.490566 1.000000
vt 0.471698 0.000000
vt 0.509434 1.000000
vt 0.490566 0.000000
vt 0.528302 1.000000
vt 0.509434 0.000000
vt 0.547170 1.000000
vt 0.528302 0.000000
vt 0.566038 1.000000
vt 0.547170 0.000000
vt 0.584906 1.000000
vt 0.566038 0.000000
vt 0.603774 1.000000
vt 0.584906 0.000000
vt 0.622642 1.000000
vt 0.603774 0.000000
vt 0.641509 1.000000
vt 0.622642 0.000000
vt 0.660377 1.000000
vt 0.641509 0.000000
vt 0.679245 1.000000
vt 0.660377 0.000000
vt 0.698113 1.000000
vt 0.679245 0.000000
vt 0.716981 1.000000
vt 0.698113 0.000000
vt 0.735849 1.000000
vt 0.716981 0.000000
vt 0.754717 1.000000
vt 0.735849 0.000000
vt 0.773585 1.000000
vt 0.754717 0.000000
vt 0.792453 1.000000
vt 0.773585 0.000000
vt 0.811321 1.000000
vt 0.792453 0.000000
vt 0.830189 1.000000
vt 0.811321 0.000000
vt 0.849057 1.000000
vt 0.830189 0.000000
vt 0.867925 1.000000
vt 0.849057 0.000000
vt 0.886792 1.000000
vt 0.867925 0.000000
vt 0.905660 1.000000
vt 0.886792 0.000000
vt 0.924528 1.000000
vt 0.905660 0.000000
vt 0.943396 1.000000
vt 0.924528 0.000000
vt 0.962264 1.000000
vt 0.943396 0.000000
vt 0.981132 1.000000
vt 0.962264 0.000000
vt 1.000000 1.000000
vt 0.981132 0.000000
s 1
f 52/1/1 1/2/1 53/3/1
f 52/1/1 2/4/1 1/2/1
f 51/5/1 2/4/1 52/1/1
f 50/6/1 2/4/1 51/5/1
f 49/7/1 2/4/1 50/6/1
f 48/8/1 2/4/1 49/7/1
f 47/9/1 2/4/1 48/8/1
f 46/10/1 2/4/1 47/9/1
f 45/11/1 2/4/1 46/10/1
f 44/12/1 4/13/1 45/11/1
f 4/13/1 2/4/1 45/11/1
f 43/14/1 4/13/1 44/12/1
f 42/15/1 4/13/1 43/14/1
f 41/16/1 4/13/1 42/15/1
f 40/17/1 4/13/1 41/16/1
f 39/18/1 4/13/1 40/17/1
f 38/19/1 4/13/1 39/18/1
f 37/20/1 4/13/1 38/19/1
f 36/21/1 4/13/1 37/20/1
f 35/22/1 4/13/1 36/21/1
f 34/23/1 4/13/1 35/22/1
f 33/24/1 4/13/1 34/23/1
f 32/25/1 4/13/1 33/24/1
f 32/25/1 5/26/1 4/13/1
f 3/27/1 2/4/1 4/13/1
f 31/28/1 5/26/1 32/25/1
f 31/28/1 6/29/1 5/26/1
f 30/30/1 6/29/1 31/28/1
f 30/30/1 7/31/1 6/29/1
f 29/32/1 7/31/1 30/30/1
f 29/32/1 8/33/1 7/31/1
f 29/32/1 9/34/1 8/33/1
f 28/35/1 9/34/1 29/32/1
f 28/35/1 10/36/1 9/34/1
f 28/35/1 11/37/1 10/36/1
f 28/35/1 12/38/1 11/37/1
f 28/35/1 13/39/1 12/38/1
f 28/35/1 14/40/1 13/39/1
f 28/35/1 15/41/1 14/40/1
f 28/35/1 16/42/1 15/41/1
f 28/35/1 17/43/1 16/42/1
f 28/35/1 18/44/1 17/43/1
f 28/35/1 19/45/1 18/44/1
f 28/35/1 20/46/1 19/45/1
f 28/35/1 21/47/1 20/46/1
f 28/35/1 22/48/1 21/47/1
f 28/35/1 23/49/1 22/48/1
f 28/35/1 24/50/1 23/49/1
f 28/35/1 25/51/1 24/50/1
f 28/35/1 26/52/1 25/51/1
f 28/35/1 27/53/1 26/52/1
f 105/1/2 106/3/2 54/2/2
f 105/1/2 54/2/2 55/4/2
f 104/5/2 105/1/2 55/4/2
f 103/6/2 104/5/2 55/4/2
f 102/7/2 103/6/2 55/4/2
f 101/8/2 102/7/2 55/4/2
f 100/9/2 101/8/2 55/4/2
f 99/10/2 100/9/2 55/4/2
f 98/11/2 99/10/2 55/4/2
f 97/12/2 98/11/2 57/13/2
f 57/13/2 98/11/2 55/4/2
f 96/14/2 97/12/2 57/13/2
f 95/15/2 96/14/2 57/13/2
f 94/16/2 95/15/2 57/13/2
f 93/17/2 94/16/2 57/13/2
f 92/18/2 93/17/2 57/13/2
f 91/19/2 92/18/2 57/13/2
f 90/20/2 91/19/2 57/13/2
f 89/21/2 90/20/2 57/13/2
f 88/22/2 89/21/2 57/13/2
f 87/23/2 88/22/2 57/13/2
f 86/24/2 87/23/2 57/13/2
f 85/25/2 86/24/2 57/13/2
f 85/25/2 57/13/2 58/26/2
f 56/27/2 57/13/2 55/4/2
f 84/28/2 85/25/2 58/26/2
f 84/28/2 58/26/2 59/29/2
f 83/30/2 84/28/2 59/29/2
f 83/30/2 59/29/2 60/31/2
f 82/32/2 83/30/2 60/31/2
f 82/32/2 60/31/2 61/33/2
f 82/32/2 61/33/2 62/34/2
f 81/35/2 82/32/2 62/34/2
f 81/35/2 62/34/2 63/36/2
f 81/35/2 63/36/2 64/37/2
f 81/35/2 64/37/2 65/38/2
f 81/35/2 65/38/2 66/39/2
f 81/35/2 66/39/2 67/40/2
f 81/35/2 67/40/2 68/41/2
f 81/35/2 68/41/2 69/42/2
f 81/35/2 69/42/2 70/43/2
f 81/35/2 70/43/2 71/44/2
f 81/35/2 71/44/2 72/45/2
f 81/35/2 72/45/2 73/46/2
f 81/35/2 73/46/2 74/47/2
f 81/35/2 74/47/2 75/48/2
f 81/35/2 75/48/2 76/49/2
f 81/35/2 76/49/2 77/50/2
f 81/35/2 77/50/2 78/51/2
f 81/35/2 78/51/2 79/52/2
f 81/35/2 79/52/2 80/53/2
f 110/54/3 107/2/4 108/55/4
f 112/56/5 109/57/3 110/54/3
f 114/58/6 111/59/5 112/56/5
f 116/60/7 113/61/6 114/58/6
f 118/62/8 115/63/7 116/60/7
f 120/64/9 117/65/8 118/62/8
f 122/66/10 119/67/9 120/64/9
f 124/68/11 121/69/10 122/66/10
f 126/70/12 123/71/11 124/68/11
f 128/72/13 125/73/12 126/70/12
f 130/74/14 127/75/13 128/72/13
f 132/76/15 129/77/14 130/74/14
f 134/78/16 131/79/15 132/76/15
f 136/80/17 133/81/16 134/78/16
f 138/82/18 135/83/17 136/80/17
f 140/84/19 137/85/18 138/82/18
f 142/86/20 139/87/19 140/84/19
f 144/88/21 141/89/20 142/86/20
f 146/90/22 143/91/21 144/88/21
f 148/92/23 145/93/22 146/90/22
f 150/94/24 147/95/23 148/92/23
f 152/96/25 149/97/24 150/94/24
f 154/98/26 151/99/25 152/96/25
f 156/100/27 153/101/26 154/98/26
f 158/102/28 155/103/27 156/100/27
f 160/104/29 157/105/28 158/102/28
f 162/106/30 159/107/29 160/104/29
f 164/108/31 161/109/32 162/106/30
f 166/110/33 163/111/31 164/108/31
f 168/112/34 165/113/33 166/110/33
f 170/114/35 167/115/34 168/112/34
f 172/116/36 169/117/35 170/114/35
f 174/118/37 171/119/36 172/116/36
f 176/120/38 173/121/37 174/118/37
f 178/122/39 175/123/38 176/120/38
f 180/124/40 177/125/39 178/122/39
f 182/126/41 179/127/42 180/124/40
f 184/128/43 181/129/41 182/126/41
f 186/130/44 183/131/43 184/128/43
f 188/132/45 185/133/44 186/130/44
f 190/134/46 187/135/45 188/132/45
f 192/136/47 189/137/46 190/134/46
f 194/138/48 191/139/47 192/136/47
f 196/140/49 193/141/48 194/138/48
f 198/142/50 195/143/49 196/140/49
f 200/144/51 197/145/52 198/142/50
f 202/146/53 199/147/51 200/144/51
f 204/148/54 201/149/55 202/146/53
f 206/150/56 203/151/54 204/148/54
f 208/152/57 205/153/56 206/150/56
f 210/154/58 207/155/57 208/152/57
f 212/156/59 209/157/58 210/154/58
f 108/158/4 211/159/59 212/156/59
f 110/54/3 109/57/3 107/2/4
f 112/56/5 111/59/5 109/57/3
f 114/58/6 113/61/6 111/59/5
f 116/60/7 115/63/7 113/61/6
f 118/62/8 117/65/8 115/63/7
f 120/64/9 119/67/9 117/65/8
f 122/66/10 121/69/10 119/67/9
f 124/68/11 123/71/11 121/69/10
f 126/70/12 125/73/12 123/71/11
f 128/72/13 127/75/13 125/73/12
f 130/74/14 129/77/14 127/75/13
f 132/76/15 131/79/15 129/77/14
f 134/78/16 133/81/16 131/79/15
f 136/80/17 135/83/17 133/81/16
f 138/82/18 137/85/18 135/83/17
f 140/84/19 139/87/19 137/85/18
f 142/86/20 141/89/20 139/87/19
f 144/88/21 143/91/21 141/89/20
f 146/90/22 145/93/22 143/91/21
f 148/92/23 147/95/23 145/93/22
f 150/94/24 149/97/24 147/95/23
f 152/96/25 151/99/25 149/97/24
f 154/98/26 153/101/26 151/99/25
f 156/100/27 155/103/27 153/101/26
f 158/102/28 157/105/28 155/103/27
f 160/104/29 159/107/29 157/105/28
f 162/106/30 161/109/32 159/107/29
f 164/108/31 163/111/31 161/109/32
f 166/110/33 165/113/33 163/111/31
f 168/112/34 167/115/34 165/113/33
f 170/114/35 169/117/35 167/115/34
f 172/116/36 171/119/36 169/117/35
f 174/118/37 173/121/37 171/119/36
f 176/120/38 175/123/38 173/121/37
f 178/122/39 177/125/39 175/123/38
f 180/124/40 179/127/42 177/125/39
f 182/126/41 181/129/41 179/127/42
f 184/128/43 183/131/43 181/129/41
f 186/130/44 185/133/44 183/131/43
f 188/132/45 187/135/45 185/133/44
f 190/134/46 189/137/46 187/135/45
f 192/136/47 191/139/47 189/137/46
f 194/138/48 193/141/48 191/139/47
f 196/140/49 195/143/49 193/141/48
f 198/142/50 197/145/52 195/143/49
f 200/144/51 199/147/51 197/145/52
f 202/146/53 201/149/55 199/147/51
f 204/148/54 203/151/54 201/149/55
f 206/150/56 205/153/56 203/151/54
f 208/152/57 207/155/57 205/153/56
f 210/154/58 209/157/58 207/155/57
f 212/156/59 211/159/59 209/157/58
f 108/158/4 107/3/4 211/159/59
