# Blender 4.4.1
# www.blender.org
mtllib 2.mtl
o テキスト
v 1.802820 0.015609 -1.337202
v 1.802820 0.015609 -0.966672
v 1.713666 0.015609 -0.966672
v 1.713666 0.015609 -1.466037
v 1.719231 0.015609 -1.466119
v 1.724760 0.015609 -1.466022
v 1.730253 0.015609 -1.465747
v 1.735711 0.015609 -1.465292
v 1.741133 0.015609 -1.464659
v 1.746519 0.015609 -1.463846
v 1.751869 0.015609 -1.462855
v 1.757183 0.015609 -1.461685
v 1.762462 0.015609 -1.460336
v 1.767705 0.015609 -1.458808
v 1.772912 0.015609 -1.457101
v 1.778083 0.015609 -1.455215
v 1.786576 0.015609 -1.451877
v 1.795047 0.015609 -1.448222
v 1.803496 0.015609 -1.444247
v 1.811924 0.015609 -1.439955
v 1.820331 0.015609 -1.435344
v 1.828716 0.015609 -1.430414
v 1.837079 0.015609 -1.425166
v 1.845421 0.015609 -1.419599
v 1.853742 0.015609 -1.413713
v 1.862041 0.015609 -1.407510
v 1.870319 0.015609 -1.400987
v 1.878575 0.015609 -1.394147
v 1.886928 0.015609 -1.386887
v 1.895495 0.015609 -1.379109
v 1.904277 0.015609 -1.370811
v 1.913274 0.015609 -1.361995
v 1.922486 0.015609 -1.352660
v 1.931912 0.015609 -1.342806
v 1.941554 0.015609 -1.332433
v 1.951409 0.015609 -1.321541
v 1.961480 0.015609 -1.310130
v 1.971765 0.015609 -1.298200
v 1.982265 0.015609 -1.285752
v 1.992980 0.015609 -1.272784
v 2.009523 0.015609 -1.252811
v 2.025482 0.015609 -1.233947
v 2.040859 0.015609 -1.216193
v 2.055651 0.015609 -1.199548
v 2.069861 0.015609 -1.184013
v 2.083487 0.015609 -1.169587
v 2.096530 0.015609 -1.156271
v 2.108989 0.015609 -1.144063
v 2.120865 0.015609 -1.132966
v 2.132158 0.015609 -1.122977
v 2.142867 0.015609 -1.114099
v 2.152993 0.015609 -1.106329
v 2.162783 0.015609 -1.099415
v 2.172483 0.015609 -1.093102
v 2.182094 0.015609 -1.087390
v 2.191615 0.015609 -1.082280
v 2.201047 0.015609 -1.077771
v 2.210389 0.015609 -1.073863
v 2.219642 0.015609 -1.070556
v 2.228806 0.015609 -1.067850
v 2.237880 0.015609 -1.065746
v 2.246864 0.015609 -1.064243
v 2.255759 0.015609 -1.063341
v 2.264565 0.015609 -1.063040
v 2.273635 0.015609 -1.063314
v 2.282465 0.015609 -1.064136
v 2.291056 0.015609 -1.065505
v 2.299407 0.015609 -1.067421
v 2.307518 0.015609 -1.069885
v 2.315390 0.015609 -1.072896
v 2.323022 0.015609 -1.076455
v 2.330414 0.015609 -1.080562
v 2.337566 0.015609 -1.085216
v 2.344478 0.015609 -1.090418
v 2.351151 0.015609 -1.096167
v 2.357584 0.015609 -1.102464
v 2.363633 0.015609 -1.109201
v 2.369157 0.015609 -1.116271
v 2.374155 0.015609 -1.123674
v 2.378627 0.015609 -1.131409
v 2.382572 0.015609 -1.139477
v 2.385992 0.015609 -1.147878
v 2.388885 0.015609 -1.156612
v 2.391253 0.015609 -1.165679
v 2.393094 0.015609 -1.175079
v 2.394409 0.015609 -1.184811
v 2.395198 0.015609 -1.194876
v 2.395461 0.015609 -1.205274
v 2.395182 0.015609 -1.216254
v 2.394345 0.015609 -1.226861
v 2.392949 0.015609 -1.237097
v 2.390995 0.015609 -1.246960
v 2.388483 0.015609 -1.256451
v 2.385412 0.015609 -1.265569
v 2.381783 0.015609 -1.274316
v 2.377596 0.015609 -1.282690
v 2.372850 0.015609 -1.290692
v 2.367547 0.015609 -1.298322
v 2.361685 0.015609 -1.305580
v 2.355265 0.015609 -1.312465
v 2.348350 0.015609 -1.318889
v 2.341007 0.015609 -1.324762
v 2.333234 0.015609 -1.330083
v 2.325031 0.015609 -1.334854
v 2.316399 0.015609 -1.339073
v 2.307338 0.015609 -1.342741
v 2.297847 0.015609 -1.345859
v 2.287927 0.015609 -1.348425
v 2.277577 0.015609 -1.350439
v 2.266798 0.015609 -1.351903
v 2.255589 0.015609 -1.352816
v 2.243951 0.015609 -1.353177
v 2.253742 0.015609 -1.448515
v 2.271169 0.015609 -1.446507
v 2.287891 0.015609 -1.443748
v 2.303908 0.015609 -1.440237
v 2.319219 0.015609 -1.435975
v 2.333826 0.015609 -1.430961
v 2.347728 0.015609 -1.425196
v 2.360924 0.015609 -1.418679
v 2.373416 0.015609 -1.411411
v 2.385203 0.015609 -1.403391
v 2.396284 0.015609 -1.394619
v 2.406661 0.015609 -1.385096
v 2.416332 0.015609 -1.374821
v 2.425263 0.015609 -1.363867
v 2.433417 0.015609 -1.352304
v 2.440795 0.015609 -1.340133
v 2.447396 0.015609 -1.327353
v 2.453220 0.015609 -1.313965
v 2.458268 0.015609 -1.299968
v 2.462539 0.015609 -1.285363
v 2.466034 0.015609 -1.270150
v 2.468752 0.015609 -1.254328
v 2.470694 0.015609 -1.237898
v 2.471859 0.015609 -1.220860
v 2.472247 0.015609 -1.203213
v 2.471828 0.015609 -1.185405
v 2.470572 0.015609 -1.168227
v 2.468478 0.015609 -1.151679
v 2.465547 0.015609 -1.135761
v 2.461779 0.015609 -1.120472
v 2.457173 0.015609 -1.105814
v 2.451730 0.015609 -1.091785
v 2.445449 0.015609 -1.078386
v 2.438331 0.015609 -1.065617
v 2.430375 0.015609 -1.053478
v 2.421582 0.015609 -1.041969
v 2.411952 0.015609 -1.031089
v 2.401702 0.015609 -1.020965
v 2.391052 0.015609 -1.011721
v 2.380001 0.015609 -1.003358
v 2.368549 0.015609 -0.995874
v 2.356696 0.015609 -0.989272
v 2.344442 0.015609 -0.983549
v 2.331788 0.015609 -0.978707
v 2.318733 0.015609 -0.974746
v 2.305276 0.015609 -0.971664
v 2.291420 0.015609 -0.969463
v 2.277162 0.015609 -0.968143
v 2.262503 0.015609 -0.967703
v 2.254956 0.015609 -0.967831
v 2.247430 0.015609 -0.968218
v 2.239925 0.015609 -0.968862
v 2.232442 0.015609 -0.969764
v 2.224980 0.015609 -0.970923
v 2.217540 0.015609 -0.972341
v 2.210121 0.015609 -0.974015
v 2.202724 0.015609 -0.975948
v 2.195348 0.015609 -0.978138
v 2.187994 0.015609 -0.980586
v 2.180661 0.015609 -0.983292
v 2.173349 0.015609 -0.986255
v 2.166017 0.015609 -0.989517
v 2.158619 0.015609 -0.993119
v 2.151157 0.015609 -0.997061
v 2.143631 0.015609 -1.001343
v 2.136041 0.015609 -1.005965
v 2.128386 0.015609 -1.010927
v 2.120667 0.015609 -1.016229
v 2.112883 0.015609 -1.021871
v 2.105035 0.015609 -1.027853
v 2.097122 0.015609 -1.034174
v 2.089145 0.015609 -1.040836
v 2.081104 0.015609 -1.047838
v 2.072779 0.015609 -1.055405
v 2.063954 0.015609 -1.063763
v 2.054628 0.015609 -1.072912
v 2.044801 0.015609 -1.082852
v 2.034472 0.015609 -1.093583
v 2.023643 0.015609 -1.105105
v 2.012313 0.015609 -1.117418
v 2.000481 0.015609 -1.130522
v 1.988149 0.015609 -1.144416
v 1.975316 0.015609 -1.159101
v 1.961981 0.015609 -1.174578
v 1.948146 0.015609 -1.190845
v 1.936778 0.015609 -1.204344
v 1.926036 0.015609 -1.217013
v 1.915921 0.015609 -1.228851
v 1.906432 0.015609 -1.239860
v 1.897569 0.015609 -1.250038
v 1.889333 0.015609 -1.259385
v 1.881722 0.015609 -1.267903
v 1.874738 0.015609 -1.275590
v 1.868381 0.015609 -1.282447
v 1.862649 0.015609 -1.288473
v 1.857544 0.015609 -1.293670
v 1.853065 0.015609 -1.298036
v 1.848898 0.015609 -1.301929
v 1.844727 0.015609 -1.305709
v 1.840552 0.015609 -1.309373
v 1.836374 0.015609 -1.312923
v 1.832192 0.015609 -1.316359
v 1.828007 0.015609 -1.319680
v 1.823818 0.015609 -1.322887
v 1.819625 0.015609 -1.325979
v 1.815429 0.015609 -1.328956
v 1.811230 0.015609 -1.331819
v 1.807027 0.015609 -1.334568
v 1.802820 0.001609 -1.337202
v 1.802820 0.001609 -0.966672
v 1.713666 0.001609 -0.966672
v 1.713666 0.001609 -1.466037
v 1.719231 0.001609 -1.466119
v 1.724760 0.001609 -1.466022
v 1.730253 0.001609 -1.465747
v 1.735711 0.001609 -1.465292
v 1.741133 0.001609 -1.464659
v 1.746519 0.001609 -1.463846
v 1.751869 0.001609 -1.462855
v 1.757183 0.001609 -1.461685
v 1.762462 0.001609 -1.460336
v 1.767705 0.001609 -1.458808
v 1.772912 0.001609 -1.457101
v 1.778083 0.001609 -1.455215
v 1.786576 0.001609 -1.451877
v 1.795047 0.001609 -1.448222
v 1.803496 0.001609 -1.444247
v 1.811924 0.001609 -1.439955
v 1.820331 0.001609 -1.435344
v 1.828716 0.001609 -1.430414
v 1.837079 0.001609 -1.425166
v 1.845421 0.001609 -1.419599
v 1.853742 0.001609 -1.413713
v 1.862041 0.001609 -1.407510
v 1.870319 0.001609 -1.400987
v 1.878575 0.001609 -1.394147
v 1.886928 0.001609 -1.386887
v 1.895495 0.001609 -1.379109
v 1.904277 0.001609 -1.370811
v 1.913274 0.001609 -1.361995
v 1.922486 0.001609 -1.352660
v 1.931912 0.001609 -1.342806
v 1.941554 0.001609 -1.332433
v 1.951409 0.001609 -1.321541
v 1.961480 0.001609 -1.310130
v 1.971765 0.001609 -1.298200
v 1.982265 0.001609 -1.285752
v 1.992980 0.001609 -1.272784
v 2.009523 0.001609 -1.252811
v 2.025482 0.001609 -1.233947
v 2.040859 0.001609 -1.216193
v 2.055651 0.001609 -1.199548
v 2.069861 0.001609 -1.184013
v 2.083487 0.001609 -1.169587
v 2.096530 0.001609 -1.156271
v 2.108989 0.001609 -1.144063
v 2.120865 0.001609 -1.132966
v 2.132158 0.001609 -1.122977
v 2.142867 0.001609 -1.114099
v 2.152993 0.001609 -1.106329
v 2.162783 0.001609 -1.099415
v 2.172483 0.001609 -1.093102
v 2.182094 0.001609 -1.087390
v 2.191615 0.001609 -1.082280
v 2.201047 0.001609 -1.077771
v 2.210389 0.001609 -1.073863
v 2.219642 0.001609 -1.070556
v 2.228806 0.001609 -1.067850
v 2.237880 0.001609 -1.065746
v 2.246864 0.001609 -1.064243
v 2.255759 0.001609 -1.063341
v 2.264565 0.001609 -1.063040
v 2.273635 0.001609 -1.063314
v 2.282465 0.001609 -1.064136
v 2.291056 0.001609 -1.065505
v 2.299407 0.001609 -1.067421
v 2.307518 0.001609 -1.069885
v 2.315390 0.001609 -1.072896
v 2.323022 0.001609 -1.076455
v 2.330414 0.001609 -1.080562
v 2.337566 0.001609 -1.085216
v 2.344478 0.001609 -1.090418
v 2.351151 0.001609 -1.096167
v 2.357584 0.001609 -1.102464
v 2.363633 0.001609 -1.109201
v 2.369157 0.001609 -1.116271
v 2.374155 0.001609 -1.123674
v 2.378627 0.001609 -1.131409
v 2.382572 0.001609 -1.139477
v 2.385992 0.001609 -1.147878
v 2.388885 0.001609 -1.156612
v 2.391253 0.001609 -1.165679
v 2.393094 0.001609 -1.175079
v 2.394409 0.001609 -1.184811
v 2.395198 0.001609 -1.194876
v 2.395461 0.001609 -1.205274
v 2.395182 0.001609 -1.216254
v 2.394345 0.001609 -1.226861
v 2.392949 0.001609 -1.237097
v 2.390995 0.001609 -1.246960
v 2.388483 0.001609 -1.256451
v 2.385412 0.001609 -1.265569
v 2.381783 0.001609 -1.274316
v 2.377596 0.001609 -1.282690
v 2.372850 0.001609 -1.290692
v 2.367547 0.001609 -1.298322
v 2.361685 0.001609 -1.305580
v 2.355265 0.001609 -1.312465
v 2.348350 0.001609 -1.318889
v 2.341007 0.001609 -1.324762
v 2.333234 0.001609 -1.330083
v 2.325031 0.001609 -1.334854
v 2.316399 0.001609 -1.339073
v 2.307338 0.001609 -1.342741
v 2.297847 0.001609 -1.345859
v 2.287927 0.001609 -1.348425
v 2.277577 0.001609 -1.350439
v 2.266798 0.001609 -1.351903
v 2.255589 0.001609 -1.352816
v 2.243951 0.001609 -1.353177
v 2.253742 0.001609 -1.448515
v 2.271169 0.001609 -1.446507
v 2.287891 0.001609 -1.443748
v 2.303908 0.001609 -1.440237
v 2.319219 0.001609 -1.435975
v 2.333826 0.001609 -1.430961
v 2.347728 0.001609 -1.425196
v 2.360924 0.001609 -1.418679
v 2.373416 0.001609 -1.411411
v 2.385203 0.001609 -1.403391
v 2.396284 0.001609 -1.394619
v 2.406661 0.001609 -1.385096
v 2.416332 0.001609 -1.374821
v 2.425263 0.001609 -1.363867
v 2.433417 0.001609 -1.352304
v 2.440795 0.001609 -1.340133
v 2.447396 0.001609 -1.327353
v 2.453220 0.001609 -1.313965
v 2.458268 0.001609 -1.299968
v 2.462539 0.001609 -1.285363
v 2.466034 0.001609 -1.270150
v 2.468752 0.001609 -1.254328
v 2.470694 0.001609 -1.237898
v 2.471859 0.001609 -1.220860
v 2.472247 0.001609 -1.203213
v 2.471828 0.001609 -1.185405
v 2.470572 0.001609 -1.168227
v 2.468478 0.001609 -1.151679
v 2.465547 0.001609 -1.135761
v 2.461779 0.001609 -1.120472
v 2.457173 0.001609 -1.105814
v 2.451730 0.001609 -1.091785
v 2.445449 0.001609 -1.078386
v 2.438331 0.001609 -1.065617
v 2.430375 0.001609 -1.053478
v 2.421582 0.001609 -1.041969
v 2.411952 0.001609 -1.031089
v 2.401702 0.001609 -1.020965
v 2.391052 0.001609 -1.011721
v 2.380001 0.001609 -1.003358
v 2.368549 0.001609 -0.995874
v 2.356696 0.001609 -0.989272
v 2.344442 0.001609 -0.983549
v 2.331788 0.001609 -0.978707
v 2.318733 0.001609 -0.974746
v 2.305276 0.001609 -0.971664
v 2.291420 0.001609 -0.969463
v 2.277162 0.001609 -0.968143
v 2.262503 0.001609 -0.967703
v 2.254956 0.001609 -0.967831
v 2.247430 0.001609 -0.968218
v 2.239925 0.001609 -0.968862
v 2.232442 0.001609 -0.969764
v 2.224980 0.001609 -0.970923
v 2.217540 0.001609 -0.972341
v 2.210121 0.001609 -0.974015
v 2.202724 0.001609 -0.975948
v 2.195348 0.001609 -0.978138
v 2.187994 0.001609 -0.980586
v 2.180661 0.001609 -0.983292
v 2.173349 0.001609 -0.986255
v 2.166017 0.001609 -0.989517
v 2.158619 0.001609 -0.993119
v 2.151157 0.001609 -0.997061
v 2.143631 0.001609 -1.001343
v 2.136041 0.001609 -1.005965
v 2.128386 0.001609 -1.010927
v 2.120667 0.001609 -1.016229
v 2.112883 0.001609 -1.021871
v 2.105035 0.001609 -1.027853
v 2.097122 0.001609 -1.034174
v 2.089145 0.001609 -1.040836
v 2.081104 0.001609 -1.047838
v 2.072779 0.001609 -1.055405
v 2.063954 0.001609 -1.063763
v 2.054628 0.001609 -1.072912
v 2.044801 0.001609 -1.082852
v 2.034472 0.001609 -1.093583
v 2.023643 0.001609 -1.105105
v 2.012313 0.001609 -1.117418
v 2.000481 0.001609 -1.130522
v 1.988149 0.001609 -1.144416
v 1.975316 0.001609 -1.159101
v 1.961981 0.001609 -1.174578
v 1.948146 0.001609 -1.190845
v 1.936778 0.001609 -1.204344
v 1.926036 0.001609 -1.217013
v 1.915921 0.001609 -1.228851
v 1.906432 0.001609 -1.239860
v 1.897569 0.001609 -1.250038
v 1.889333 0.001609 -1.259385
v 1.881722 0.001609 -1.267903
v 1.874738 0.001609 -1.275590
v 1.868381 0.001609 -1.282447
v 1.862649 0.001609 -1.288473
v 1.857544 0.001609 -1.293670
v 1.853065 0.001609 -1.298036
v 1.848898 0.001609 -1.301929
v 1.844727 0.001609 -1.305709
v 1.840552 0.001609 -1.309373
v 1.836374 0.001609 -1.312923
v 1.832192 0.001609 -1.316359
v 1.828007 0.001609 -1.319680
v 1.823818 0.001609 -1.322887
v 1.819625 0.001609 -1.325979
v 1.815429 0.001609 -1.328956
v 1.811230 0.001609 -1.331819
v 1.807027 0.001609 -1.334568
v 1.802820 0.001609 -1.337202
v 1.802820 0.015609 -1.337202
v 1.802820 0.001609 -0.966672
v 1.802820 0.015609 -0.966672
v 1.713666 0.001609 -0.966672
v 1.713666 0.015609 -0.966672
v 1.713666 0.001609 -1.466037
v 1.713666 0.015609 -1.466037
v 1.719231 0.001609 -1.466119
v 1.719231 0.015609 -1.466119
v 1.724760 0.001609 -1.466022
v 1.724760 0.015609 -1.466022
v 1.730253 0.001609 -1.465747
v 1.730253 0.015609 -1.465747
v 1.735711 0.001609 -1.465292
v 1.735711 0.015609 -1.465292
v 1.741133 0.001609 -1.464659
v 1.741133 0.015609 -1.464659
v 1.746519 0.001609 -1.463846
v 1.746519 0.015609 -1.463846
v 1.751869 0.001609 -1.462855
v 1.751869 0.015609 -1.462855
v 1.757183 0.001609 -1.461685
v 1.757183 0.015609 -1.461685
v 1.762462 0.001609 -1.460336
v 1.762462 0.015609 -1.460336
v 1.767705 0.001609 -1.458808
v 1.767705 0.015609 -1.458808
v 1.772912 0.001609 -1.457101
v 1.772912 0.015609 -1.457101
v 1.778083 0.001609 -1.455215
v 1.778083 0.015609 -1.455215
v 1.786576 0.001609 -1.451877
v 1.786576 0.015609 -1.451877
v 1.795047 0.001609 -1.448222
v 1.795047 0.015609 -1.448222
v 1.803496 0.001609 -1.444247
v 1.803496 0.015609 -1.444247
v 1.811924 0.001609 -1.439955
v 1.811924 0.015609 -1.439955
v 1.820331 0.001609 -1.435344
v 1.820331 0.015609 -1.435344
v 1.828716 0.001609 -1.430414
v 1.828716 0.015609 -1.430414
v 1.837079 0.001609 -1.425166
v 1.837079 0.015609 -1.425166
v 1.845421 0.001609 -1.419599
v 1.845421 0.015609 -1.419599
v 1.853742 0.001609 -1.413713
v 1.853742 0.015609 -1.413713
v 1.862041 0.001609 -1.407510
v 1.862041 0.015609 -1.407510
v 1.870319 0.001609 -1.400987
v 1.870319 0.015609 -1.400987
v 1.878575 0.001609 -1.394147
v 1.878575 0.015609 -1.394147
v 1.886928 0.001609 -1.386887
v 1.886928 0.015609 -1.386887
v 1.895495 0.001609 -1.379109
v 1.895495 0.015609 -1.379109
v 1.904277 0.001609 -1.370811
v 1.904277 0.015609 -1.370811
v 1.913274 0.001609 -1.361995
v 1.913274 0.015609 -1.361995
v 1.922486 0.001609 -1.352660
v 1.922486 0.015609 -1.352660
v 1.931912 0.001609 -1.342806
v 1.931912 0.015609 -1.342806
v 1.941554 0.001609 -1.332433
v 1.941554 0.015609 -1.332433
v 1.951409 0.001609 -1.321541
v 1.951409 0.015609 -1.321541
v 1.961480 0.001609 -1.310130
v 1.961480 0.015609 -1.310130
v 1.971765 0.001609 -1.298200
v 1.971765 0.015609 -1.298200
v 1.982265 0.001609 -1.285752
v 1.982265 0.015609 -1.285752
v 1.992980 0.001609 -1.272784
v 1.992980 0.015609 -1.272784
v 2.009523 0.001609 -1.252811
v 2.009523 0.015609 -1.252811
v 2.025482 0.001609 -1.233947
v 2.025482 0.015609 -1.233947
v 2.040859 0.001609 -1.216193
v 2.040859 0.015609 -1.216193
v 2.055651 0.001609 -1.199548
v 2.055651 0.015609 -1.199548
v 2.069861 0.001609 -1.184013
v 2.069861 0.015609 -1.184013
v 2.083487 0.001609 -1.169587
v 2.083487 0.015609 -1.169587
v 2.096530 0.001609 -1.156271
v 2.096530 0.015609 -1.156271
v 2.108989 0.001609 -1.144063
v 2.108989 0.015609 -1.144063
v 2.120865 0.001609 -1.132966
v 2.120865 0.015609 -1.132966
v 2.132158 0.001609 -1.122977
v 2.132158 0.015609 -1.122977
v 2.142867 0.001609 -1.114099
v 2.142867 0.015609 -1.114099
v 2.152993 0.001609 -1.106329
v 2.152993 0.015609 -1.106329
v 2.162783 0.001609 -1.099415
v 2.162783 0.015609 -1.099415
v 2.172483 0.001609 -1.093102
v 2.172483 0.015609 -1.093102
v 2.182094 0.001609 -1.087390
v 2.182094 0.015609 -1.087390
v 2.191615 0.001609 -1.082280
v 2.191615 0.015609 -1.082280
v 2.201047 0.001609 -1.077771
v 2.201047 0.015609 -1.077771
v 2.210389 0.001609 -1.073863
v 2.210389 0.015609 -1.073863
v 2.219642 0.001609 -1.070556
v 2.219642 0.015609 -1.070556
v 2.228806 0.001609 -1.067850
v 2.228806 0.015609 -1.067850
v 2.237880 0.001609 -1.065746
v 2.237880 0.015609 -1.065746
v 2.246864 0.001609 -1.064243
v 2.246864 0.015609 -1.064243
v 2.255759 0.001609 -1.063341
v 2.255759 0.015609 -1.063341
v 2.264565 0.001609 -1.063040
v 2.264565 0.015609 -1.063040
v 2.273635 0.001609 -1.063314
v 2.273635 0.015609 -1.063314
v 2.282465 0.001609 -1.064136
v 2.282465 0.015609 -1.064136
v 2.291056 0.001609 -1.065505
v 2.291056 0.015609 -1.065505
v 2.299407 0.001609 -1.067421
v 2.299407 0.015609 -1.067421
v 2.307518 0.001609 -1.069885
v 2.307518 0.015609 -1.069885
v 2.315390 0.001609 -1.072896
v 2.315390 0.015609 -1.072896
v 2.323022 0.001609 -1.076455
v 2.323022 0.015609 -1.076455
v 2.330414 0.001609 -1.080562
v 2.330414 0.015609 -1.080562
v 2.337566 0.001609 -1.085216
v 2.337566 0.015609 -1.085216
v 2.344478 0.001609 -1.090418
v 2.344478 0.015609 -1.090418
v 2.351151 0.001609 -1.096167
v 2.351151 0.015609 -1.096167
v 2.357584 0.001609 -1.102464
v 2.357584 0.015609 -1.102464
v 2.363633 0.001609 -1.109201
v 2.363633 0.015609 -1.109201
v 2.369157 0.001609 -1.116271
v 2.369157 0.015609 -1.116271
v 2.374155 0.001609 -1.123674
v 2.374155 0.015609 -1.123674
v 2.378627 0.001609 -1.131409
v 2.378627 0.015609 -1.131409
v 2.382572 0.001609 -1.139477
v 2.382572 0.015609 -1.139477
v 2.385992 0.001609 -1.147878
v 2.385992 0.015609 -1.147878
v 2.388885 0.001609 -1.156612
v 2.388885 0.015609 -1.156612
v 2.391253 0.001609 -1.165679
v 2.391253 0.015609 -1.165679
v 2.393094 0.001609 -1.175079
v 2.393094 0.015609 -1.175079
v 2.394409 0.001609 -1.184811
v 2.394409 0.015609 -1.184811
v 2.395198 0.001609 -1.194876
v 2.395198 0.015609 -1.194876
v 2.395461 0.001609 -1.205274
v 2.395461 0.015609 -1.205274
v 2.395182 0.001609 -1.216254
v 2.395182 0.015609 -1.216254
v 2.394345 0.001609 -1.226861
v 2.394345 0.015609 -1.226861
v 2.392949 0.001609 -1.237097
v 2.392949 0.015609 -1.237097
v 2.390995 0.001609 -1.246960
v 2.390995 0.015609 -1.246960
v 2.388483 0.001609 -1.256451
v 2.388483 0.015609 -1.256451
v 2.385412 0.001609 -1.265569
v 2.385412 0.015609 -1.265569
v 2.381783 0.001609 -1.274316
v 2.381783 0.015609 -1.274316
v 2.377596 0.001609 -1.282690
v 2.377596 0.015609 -1.282690
v 2.372850 0.001609 -1.290692
v 2.372850 0.015609 -1.290692
v 2.367547 0.001609 -1.298322
v 2.367547 0.015609 -1.298322
v 2.361685 0.001609 -1.305580
v 2.361685 0.015609 -1.305580
v 2.355265 0.001609 -1.312465
v 2.355265 0.015609 -1.312465
v 2.348350 0.001609 -1.318889
v 2.348350 0.015609 -1.318889
v 2.341007 0.001609 -1.324762
v 2.341007 0.015609 -1.324762
v 2.333234 0.001609 -1.330083
v 2.333234 0.015609 -1.330083
v 2.325031 0.001609 -1.334854
v 2.325031 0.015609 -1.334854
v 2.316399 0.001609 -1.339073
v 2.316399 0.015609 -1.339073
v 2.307338 0.001609 -1.342741
v 2.307338 0.015609 -1.342741
v 2.297847 0.001609 -1.345859
v 2.297847 0.015609 -1.345859
v 2.287927 0.001609 -1.348425
v 2.287927 0.015609 -1.348425
v 2.277577 0.001609 -1.350439
v 2.277577 0.015609 -1.350439
v 2.266798 0.001609 -1.351903
v 2.266798 0.015609 -1.351903
v 2.255589 0.001609 -1.352816
v 2.255589 0.015609 -1.352816
v 2.243951 0.001609 -1.353177
v 2.243951 0.015609 -1.353177
v 2.253742 0.001609 -1.448515
v 2.253742 0.015609 -1.448515
v 2.271169 0.001609 -1.446507
v 2.271169 0.015609 -1.446507
v 2.287891 0.001609 -1.443748
v 2.287891 0.015609 -1.443748
v 2.303908 0.001609 -1.440237
v 2.303908 0.015609 -1.440237
v 2.319219 0.001609 -1.435975
v 2.319219 0.015609 -1.435975
v 2.333826 0.001609 -1.430961
v 2.333826 0.015609 -1.430961
v 2.347728 0.001609 -1.425196
v 2.347728 0.015609 -1.425196
v 2.360924 0.001609 -1.418679
v 2.360924 0.015609 -1.418679
v 2.373416 0.001609 -1.411411
v 2.373416 0.015609 -1.411411
v 2.385203 0.001609 -1.403391
v 2.385203 0.015609 -1.403391
v 2.396284 0.001609 -1.394619
v 2.396284 0.015609 -1.394619
v 2.406661 0.001609 -1.385096
v 2.406661 0.015609 -1.385096
v 2.416332 0.001609 -1.374821
v 2.416332 0.015609 -1.374821
v 2.425263 0.001609 -1.363867
v 2.425263 0.015609 -1.363867
v 2.433417 0.001609 -1.352304
v 2.433417 0.015609 -1.352304
v 2.440795 0.001609 -1.340133
v 2.440795 0.015609 -1.340133
v 2.447396 0.001609 -1.327353
v 2.447396 0.015609 -1.327353
v 2.453220 0.001609 -1.313965
v 2.453220 0.015609 -1.313965
v 2.458268 0.001609 -1.299968
v 2.458268 0.015609 -1.299968
v 2.462539 0.001609 -1.285363
v 2.462539 0.015609 -1.285363
v 2.466034 0.001609 -1.270150
v 2.466034 0.015609 -1.270150
v 2.468752 0.001609 -1.254328
v 2.468752 0.015609 -1.254328
v 2.470694 0.001609 -1.237898
v 2.470694 0.015609 -1.237898
v 2.471859 0.001609 -1.220860
v 2.471859 0.015609 -1.220860
v 2.472247 0.001609 -1.203213
v 2.472247 0.015609 -1.203213
v 2.471828 0.001609 -1.185405
v 2.471828 0.015609 -1.185405
v 2.470572 0.001609 -1.168227
v 2.470572 0.015609 -1.168227
v 2.468478 0.001609 -1.151679
v 2.468478 0.015609 -1.151679
v 2.465547 0.001609 -1.135761
v 2.465547 0.015609 -1.135761
v 2.461779 0.001609 -1.120472
v 2.461779 0.015609 -1.120472
v 2.457173 0.001609 -1.105814
v 2.457173 0.015609 -1.105814
v 2.451730 0.001609 -1.091785
v 2.451730 0.015609 -1.091785
v 2.445449 0.001609 -1.078386
v 2.445449 0.015609 -1.078386
v 2.438331 0.001609 -1.065617
v 2.438331 0.015609 -1.065617
v 2.430375 0.001609 -1.053478
v 2.430375 0.015609 -1.053478
v 2.421582 0.001609 -1.041969
v 2.421582 0.015609 -1.041969
v 2.411952 0.001609 -1.031089
v 2.411952 0.015609 -1.031089
v 2.401702 0.001609 -1.020965
v 2.401702 0.015609 -1.020965
v 2.391052 0.001609 -1.011721
v 2.391052 0.015609 -1.011721
v 2.380001 0.001609 -1.003358
v 2.380001 0.015609 -1.003358
v 2.368549 0.001609 -0.995874
v 2.368549 0.015609 -0.995874
v 2.356696 0.001609 -0.989272
v 2.356696 0.015609 -0.989272
v 2.344442 0.001609 -0.983549
v 2.344442 0.015609 -0.983549
v 2.331788 0.001609 -0.978707
v 2.331788 0.015609 -0.978707
v 2.318733 0.001609 -0.974746
v 2.318733 0.015609 -0.974746
v 2.305276 0.001609 -0.971664
v 2.305276 0.015609 -0.971664
v 2.291420 0.001609 -0.969463
v 2.291420 0.015609 -0.969463
v 2.277162 0.001609 -0.968143
v 2.277162 0.015609 -0.968143
v 2.262503 0.001609 -0.967703
v 2.262503 0.015609 -0.967703
v 2.254956 0.001609 -0.967831
v 2.254956 0.015609 -0.967831
v 2.247430 0.001609 -0.968218
v 2.247430 0.015609 -0.968218
v 2.239925 0.001609 -0.968862
v 2.239925 0.015609 -0.968862
v 2.232442 0.001609 -0.969764
v 2.232442 0.015609 -0.969764
v 2.224980 0.001609 -0.970923
v 2.224980 0.015609 -0.970923
v 2.217540 0.001609 -0.972341
v 2.217540 0.015609 -0.972341
v 2.210121 0.001609 -0.974015
v 2.210121 0.015609 -0.974015
v 2.202724 0.001609 -0.975948
v 2.202724 0.015609 -0.975948
v 2.195348 0.001609 -0.978138
v 2.195348 0.015609 -0.978138
v 2.187994 0.001609 -0.980586
v 2.187994 0.015609 -0.980586
v 2.180661 0.001609 -0.983292
v 2.180661 0.015609 -0.983292
v 2.173349 0.001609 -0.986255
v 2.173349 0.015609 -0.986255
v 2.166017 0.001609 -0.989517
v 2.166017 0.015609 -0.989517
v 2.158619 0.001609 -0.993119
v 2.158619 0.015609 -0.993119
v 2.151157 0.001609 -0.997061
v 2.151157 0.015609 -0.997061
v 2.143631 0.001609 -1.001343
v 2.143631 0.015609 -1.001343
v 2.136041 0.001609 -1.005965
v 2.136041 0.015609 -1.005965
v 2.128386 0.001609 -1.010927
v 2.128386 0.015609 -1.010927
v 2.120667 0.001609 -1.016229
v 2.120667 0.015609 -1.016229
v 2.112883 0.001609 -1.021871
v 2.112883 0.015609 -1.021871
v 2.105035 0.001609 -1.027853
v 2.105035 0.015609 -1.027853
v 2.097122 0.001609 -1.034174
v 2.097122 0.015609 -1.034174
v 2.089145 0.001609 -1.040836
v 2.089145 0.015609 -1.040836
v 2.081104 0.001609 -1.047838
v 2.081104 0.015609 -1.047838
v 2.072779 0.001609 -1.055405
v 2.072779 0.015609 -1.055405
v 2.063954 0.001609 -1.063763
v 2.063954 0.015609 -1.063763
v 2.054628 0.001609 -1.072912
v 2.054628 0.015609 -1.072912
v 2.044801 0.001609 -1.082852
v 2.044801 0.015609 -1.082852
v 2.034472 0.001609 -1.093583
v 2.034472 0.015609 -1.093583
v 2.023643 0.001609 -1.105105
v 2.023643 0.015609 -1.105105
v 2.012313 0.001609 -1.117418
v 2.012313 0.015609 -1.117418
v 2.000481 0.001609 -1.130522
v 2.000481 0.015609 -1.130522
v 1.988149 0.001609 -1.144416
v 1.988149 0.015609 -1.144416
v 1.975316 0.001609 -1.159101
v 1.975316 0.015609 -1.159101
v 1.961981 0.001609 -1.174578
v 1.961981 0.015609 -1.174578
v 1.948146 0.001609 -1.190845
v 1.948146 0.015609 -1.190845
v 1.936778 0.001609 -1.204344
v 1.936778 0.015609 -1.204344
v 1.926036 0.001609 -1.217013
v 1.926036 0.015609 -1.217013
v 1.915921 0.001609 -1.228851
v 1.915921 0.015609 -1.228851
v 1.906432 0.001609 -1.239860
v 1.906432 0.015609 -1.239860
v 1.897569 0.001609 -1.250038
v 1.897569 0.015609 -1.250038
v 1.889333 0.001609 -1.259385
v 1.889333 0.015609 -1.259385
v 1.881722 0.001609 -1.267903
v 1.881722 0.015609 -1.267903
v 1.874738 0.001609 -1.275590
v 1.874738 0.015609 -1.275590
v 1.868381 0.001609 -1.282447
v 1.868381 0.015609 -1.282447
v 1.862649 0.001609 -1.288473
v 1.862649 0.015609 -1.288473
v 1.857544 0.001609 -1.293670
v 1.857544 0.015609 -1.293670
v 1.853065 0.001609 -1.298036
v 1.853065 0.015609 -1.298036
v 1.848898 0.001609 -1.301929
v 1.848898 0.015609 -1.301929
v 1.844727 0.001609 -1.305709
v 1.844727 0.015609 -1.305709
v 1.840552 0.001609 -1.309373
v 1.840552 0.015609 -1.309373
v 1.836374 0.001609 -1.312923
v 1.836374 0.015609 -1.312923
v 1.832192 0.001609 -1.316359
v 1.832192 0.015609 -1.316359
v 1.828007 0.001609 -1.319680
v 1.828007 0.015609 -1.319680
v 1.823818 0.001609 -1.322887
v 1.823818 0.015609 -1.322887
v 1.819625 0.001609 -1.325979
v 1.819625 0.015609 -1.325979
v 1.815429 0.001609 -1.328956
v 1.815429 0.015609 -1.328956
v 1.811230 0.001609 -1.331819
v 1.811230 0.015609 -1.331819
v 1.807027 0.001609 -1.334568
v 1.807027 0.015609 -1.334568
vn -0.0000 1.0000 -0.0000
vn -0.0000 -1.0000 -0.0000
vn 0.7071 -0.0000 0.7071
vn 0.4844 -0.0000 0.8748
vn -0.7071 -0.0000 0.7071
vn -0.7123 -0.0000 -0.7019
vn 0.0013 -0.0000 -1.0000
vn 0.0338 -0.0000 -0.9994
vn 0.0666 -0.0000 -0.9978
vn 0.0995 -0.0000 -0.9950
vn 0.1326 -0.0000 -0.9912
vn 0.1657 -0.0000 -0.9862
vn 0.1986 -0.0000 -0.9801
vn 0.2314 -0.0000 -0.9729
vn 0.2638 -0.0000 -0.9646
vn 0.2957 -0.0000 -0.9553
vn 0.3271 -0.0000 -0.9450
vn 0.3542 -0.0000 -0.9352
vn 0.3810 -0.0000 -0.9246
vn 0.4110 -0.0000 -0.9116
vn 0.4398 -0.0000 -0.8981
vn 0.4675 -0.0000 -0.8840
vn 0.4939 -0.0000 -0.8695
vn 0.4674 -0.0000 -0.8840
vn 0.5192 -0.0000 -0.8546
vn 0.5434 -0.0000 -0.8395
vn 0.5663 -0.0000 -0.8242
vn 0.5881 -0.0000 -0.8088
vn 0.6089 -0.0000 -0.7933
vn 0.6285 -0.0000 -0.7778
vn 0.6470 -0.0000 -0.7625
vn 0.6641 -0.0000 -0.7476
vn 0.6795 -0.0000 -0.7337
vn 0.6934 -0.0000 -0.7206
vn 0.7059 -0.0000 -0.7083
vn 0.7172 -0.0000 -0.6968
vn 0.7276 -0.0000 -0.6860
vn 0.7370 -0.0000 -0.6759
vn 0.7456 -0.0000 -0.6663
vn 0.7536 -0.0000 -0.6574
vn 0.7609 -0.0000 -0.6489
vn 0.7677 -0.0000 -0.6409
vn 0.7705 -0.0000 -0.6374
vn 0.7668 -0.0000 -0.6419
vn 0.7597 -0.0000 -0.6503
vn 0.7517 -0.0000 -0.6595
vn 0.7427 -0.0000 -0.6696
vn 0.7325 -0.0000 -0.6808
vn 0.7207 -0.0000 -0.6932
vn 0.7072 -0.0000 -0.7071
vn 0.6913 -0.0000 -0.7225
vn 0.6727 -0.0000 -0.7399
vn 0.6505 -0.0000 -0.7595
vn 0.6236 -0.0000 -0.7817
vn 0.5929 -0.0000 -0.8053
vn 0.5613 -0.0000 -0.8276
vn 0.5283 -0.0000 -0.8491
vn 0.4920 -0.0000 -0.8706
vn 0.4523 -0.0000 -0.8919
vn 0.4087 -0.0000 -0.9126
vn 0.3613 -0.0000 -0.9324
vn 0.3100 -0.0000 -0.9507
vn 0.2547 -0.0000 -0.9670
vn 0.1956 -0.0000 -0.9807
vn 0.1330 -0.0000 -0.9911
vn 0.0675 -0.0000 -0.9977
vn 0.0020 -0.0000 -1.0000
vn -0.0614 -0.0000 -0.9981
vn -0.1251 -0.0000 -0.9922
vn -0.1906 -0.0000 -0.9817
vn -0.1250 -0.0000 -0.9922
vn -0.2573 -0.0000 -0.9663
vn -0.3242 -0.0000 -0.9460
vn -0.3902 -0.0000 -0.9207
vn -0.4544 -0.0000 -0.8908
vn -0.5158 -0.0000 -0.8567
vn -0.5737 -0.0000 -0.8191
vn -0.6274 -0.0000 -0.7787
vn -0.6765 -0.0000 -0.7365
vn -0.7221 -0.0000 -0.6917
vn -0.7665 -0.0000 -0.6423
vn -0.8089 -0.0000 -0.5880
vn -0.8478 -0.0000 -0.5303
vn -0.8826 -0.0000 -0.4702
vn -0.9128 -0.0000 -0.4084
vn -0.9383 -0.0000 -0.3459
vn -0.9589 -0.0000 -0.2837
vn -0.9749 -0.0000 -0.2225
vn -0.9866 -0.0000 -0.1631
vn -0.9944 -0.0000 -0.1061
vn -0.9987 -0.0000 -0.0517
vn -1.0000 -0.0000 0.0001
vn -0.9986 -0.0000 0.0521
vn -0.9943 -0.0000 0.1070
vn -0.9863 -0.0000 0.1648
vn -0.9743 -0.0000 0.2252
vn -0.9577 -0.0000 0.2877
vn -0.9362 -0.0000 0.3514
vn -0.9096 -0.0000 0.4155
vn -0.8778 -0.0000 0.4790
vn -0.8412 -0.0000 0.5408
vn -0.8000 -0.0000 0.5999
vn -0.7551 -0.0000 0.6556
vn -0.7065 -0.0000 0.7077
vn -0.6531 -0.0000 0.7573
vn -0.5951 -0.0000 0.8036
vn -0.5342 -0.0000 0.8454
vn -0.4713 -0.0000 0.8820
vn -0.4074 -0.0000 0.9132
vn -0.3438 -0.0000 0.9390
vn -0.2814 -0.0000 0.9596
vn -0.2209 -0.0000 0.9753
vn -0.1629 -0.0000 0.9866
vn -0.1079 -0.0000 0.9942
vn -0.0561 -0.0000 0.9984
vn -0.7527 -0.0000 0.6584
vn -0.6263 -0.0000 -0.7795
vn -0.7526 -0.0000 0.6584
vn 0.1387 -0.0000 -0.9903
vn -0.6264 -0.0000 -0.7795
vn 0.1885 -0.0000 -0.9821
vn 0.2412 -0.0000 -0.9705
vn 0.2965 -0.0000 -0.9550
vn 0.3540 -0.0000 -0.9352
vn 0.4132 -0.0000 -0.9107
vn 0.4731 -0.0000 -0.8810
vn 0.5331 -0.0000 -0.8461
vn 0.5920 -0.0000 -0.8060
vn 0.6488 -0.0000 -0.7609
vn 0.7026 -0.0000 -0.7116
vn 0.7521 -0.0000 -0.6591
vn 0.7966 -0.0000 -0.6045
vn 0.8367 -0.0000 -0.5477
vn 0.8723 -0.0000 -0.4889
vn 0.9032 -0.0000 -0.4292
vn 0.9293 -0.0000 -0.3693
vn 0.9507 -0.0000 -0.3101
vn 0.9676 -0.0000 -0.2524
vn 0.9805 -0.0000 -0.1967
vn 0.9897 -0.0000 -0.1434
vn 0.9957 -0.0000 -0.0928
vn 0.9990 -0.0000 -0.0451
vn 1.0000 -0.0000 0.0008
vn 0.9988 -0.0000 0.0482
vn 0.9951 -0.0000 0.0993
vn 0.9882 -0.0000 0.1534
vn 0.9776 -0.0000 0.2103
vn 0.9630 -0.0000 0.2697
vn 0.9437 -0.0000 0.3309
vn 0.9194 -0.0000 0.3933
vn 0.8900 -0.0000 0.4560
vn 0.8555 -0.0000 0.5179
vn 0.8160 -0.0000 0.5780
vn 0.7722 -0.0000 0.6354
vn 0.7262 -0.0000 0.6875
vn 0.6795 -0.0000 0.7337
vn 0.6298 -0.0000 0.7767
vn 0.5756 -0.0000 0.8177
vn 0.5172 -0.0000 0.8559
vn 0.4552 -0.0000 0.8904
vn 0.3905 -0.0000 0.9206
vn 0.3241 -0.0000 0.9460
vn 0.2569 -0.0000 0.9664
vn 0.1901 -0.0000 0.9818
vn 0.2570 -0.0000 0.9664
vn 0.1246 -0.0000 0.9922
vn 0.0612 -0.0000 0.9981
vn 0.0065 -0.0000 1.0000
vn 0.0611 -0.0000 0.9981
vn -0.0342 -0.0000 0.9994
vn -0.0684 -0.0000 0.9977
vn -0.1026 -0.0000 0.9947
vn -0.1366 -0.0000 0.9906
vn -0.1704 -0.0000 0.9854
vn -0.2037 -0.0000 0.9790
vn -0.2365 -0.0000 0.9716
vn -0.2687 -0.0000 0.9632
vn -0.3003 -0.0000 0.9539
vn -0.3310 -0.0000 0.9436
vn -0.3609 -0.0000 0.9326
vn -0.3911 -0.0000 0.9204
vn -0.4222 -0.0000 0.9065
vn -0.4525 -0.0000 0.8918
vn -0.4809 -0.0000 0.8768
vn -0.5074 -0.0000 0.8617
vn -0.5321 -0.0000 0.8467
vn -0.5551 -0.0000 0.8318
vn -0.5766 -0.0000 0.8171
vn -0.5966 -0.0000 0.8026
vn -0.6152 -0.0000 0.7883
vn -0.6326 -0.0000 0.7744
vn -0.6489 -0.0000 0.7609
vn -0.6326 -0.0000 0.7745
vn -0.6647 -0.0000 0.7471
vn -0.6802 -0.0000 0.7330
vn -0.6940 -0.0000 0.7200
vn -0.7057 -0.0000 0.7085
vn -0.7158 -0.0000 0.6983
vn -0.7246 -0.0000 0.6892
vn -0.7323 -0.0000 0.6810
vn -0.7390 -0.0000 0.6737
vn -0.7451 -0.0000 0.6670
vn -0.7504 -0.0000 0.6609
vn -0.7553 -0.0000 0.6554
vn -0.7505 -0.0000 0.6609
vn -0.7597 -0.0000 0.6503
vn -0.7633 -0.0000 0.6460
vn -0.7638 -0.0000 0.6454
vn -0.7615 -0.0000 0.6482
vn -0.7589 -0.0000 0.6513
vn -0.7558 -0.0000 0.6548
vn -0.7522 -0.0000 0.6589
vn -0.7480 -0.0000 0.6637
vn -0.7429 -0.0000 0.6694
vn -0.7367 -0.0000 0.6762
vn -0.7290 -0.0000 0.6845
vn -0.7190 -0.0000 0.6950
vn -0.6904 -0.0000 0.7234
vn -0.6771 -0.0000 0.7359
vn -0.6656 -0.0000 0.7463
vn -0.6536 -0.0000 0.7568
vn -0.6412 -0.0000 0.7674
vn -0.6282 -0.0000 0.7780
vn -0.6147 -0.0000 0.7887
vn -0.6007 -0.0000 0.7995
vn -0.5862 -0.0000 0.8102
vn -0.5710 -0.0000 0.8209
vn -0.5553 -0.0000 0.8316
vn -0.5390 -0.0000 0.8423
vt 0.616438 0.000000
vt 0.625571 0.000000
vt 0.621005 0.000000
vt 0.611872 0.000000
vt 0.630137 0.000000
vt 0.607306 0.000000
vt 0.634703 0.000000
vt 0.602740 0.000000
vt 0.639269 0.000000
vt 0.598173 0.000000
vt 0.643836 0.000000
vt 0.593607 0.000000
vt 0.648402 0.000000
vt 0.589041 0.000000
vt 0.652968 0.000000
vt 0.584475 0.000000
vt 0.657534 0.000000
vt 0.579909 0.000000
vt 0.662100 0.000000
vt 0.575342 0.000000
vt 0.666667 0.000000
vt 0.570776 0.000000
vt 0.671233 0.000000
vt 0.566210 0.000000
vt 0.675799 0.000000
vt 0.561644 0.000000
vt 0.680365 0.000000
vt 0.557078 0.000000
vt 0.397260 0.000000
vt 0.684932 0.000000
vt 0.552511 0.000000
vt 0.401826 0.000000
vt 0.392694 0.000000
vt 0.388128 0.000000
vt 0.406393 0.000000
vt 0.383562 0.000000
vt 0.410959 0.000000
vt 0.378995 0.000000
vt 0.415525 0.000000
vt 0.374429 0.000000
vt 0.689498 0.000000
vt 0.420091 0.000000
vt 0.369863 0.000000
vt 0.424658 0.000000
vt 0.365297 0.000000
vt 0.429224 0.000000
vt 0.547945 0.000000
vt 0.360731 0.000000
vt 0.433790 0.000000
vt 0.694064 0.000000
vt 0.356164 0.000000
vt 0.438356 0.000000
vt 0.351598 0.000000
vt 0.543379 0.000000
vt 0.442922 0.000000
vt 0.347032 0.000000
vt 0.698630 0.000000
vt 0.447489 0.000000
vt 0.342466 0.000000
vt 0.452055 0.000000
vt 0.538813 0.000000
vt 0.337900 0.000000
vt 0.703196 0.000000
vt 0.456621 0.000000
vt 0.333333 0.000000
vt 0.461187 0.000000
vt 0.534247 0.000000
vt 0.328767 0.000000
vt 0.707763 0.000000
vt 0.465753 0.000000
vt 0.324201 0.000000
vt 0.529680 0.000000
vt 0.470320 0.000000
vt 0.712329 0.000000
vt 0.319635 0.000000
vt 0.474886 0.000000
vt 0.315068 0.000000
vt 0.525114 0.000000
vt 0.716895 0.000000
vt 0.479452 0.000000
vt 0.310502 0.000000
vt 0.305936 0.000000
vt 0.484018 0.000000
vt 0.721461 0.000000
vt 0.520548 0.000000
vt 0.301370 0.000000
vt 0.488584 0.000000
vt 0.726027 0.000000
vt 0.296804 0.000000
vt 0.493151 0.000000
vt 0.515982 0.000000
vt 0.292237 0.000000
vt 0.497717 0.000000
vt 0.730594 0.000000
vt 0.287671 0.000000
vt 0.511416 0.000000
vt 0.502283 0.000000
vt 0.283105 0.000000
vt 0.735160 0.000000
vt 0.278539 0.000000
vt 0.506849 0.000000
vt 0.739726 0.000000
vt 0.744292 0.000000
vt 0.273973 0.000000
vt 0.748858 0.000000
vt 0.269406 0.000000
vt 0.753425 0.000000
vt 0.264840 0.000000
vt 0.757991 0.000000
vt 0.260274 0.000000
vt 0.762557 0.000000
vt 0.255708 0.000000
vt 0.767123 0.000000
vt 0.771689 0.000000
vt 0.251142 0.000000
vt 0.776256 0.000000
vt 0.246575 0.000000
vt 0.780822 0.000000
vt 0.242009 0.000000
vt 0.785388 0.000000
vt 0.789954 0.000000
vt 0.237443 0.000000
vt 0.794521 0.000000
vt 0.232877 0.000000
vt 0.799087 0.000000
vt 0.228310 0.000000
vt 0.803653 0.000000
vt 0.808219 0.000000
vt 0.223744 0.000000
vt 0.812785 0.000000
vt 0.219178 0.000000
vt 0.817352 0.000000
vt 0.214612 0.000000
vt 0.821918 0.000000
vt 0.826484 0.000000
vt 0.210046 0.000000
vt 0.831050 0.000000
vt 0.835616 0.000000
vt 0.205479 0.000000
vt 0.840183 0.000000
vt 0.200913 0.000000
vt 0.844749 0.000000
vt 0.849315 0.000000
vt 0.196347 0.000000
vt 0.853881 0.000000
vt 0.191781 0.000000
vt 0.858447 0.000000
vt 0.863014 0.000000
vt 0.187215 0.000000
vt 0.867580 0.000000
vt 0.182648 0.000000
vt 0.872146 0.000000
vt 0.876712 0.000000
vt 0.178082 0.000000
vt 0.881279 0.000000
vt 0.173516 0.000000
vt 0.885845 0.000000
vt 0.168950 0.000000
vt 0.890411 0.000000
vt 0.164384 0.000000
vt 0.894977 0.000000
vt 0.159817 0.000000
vt 0.155251 0.000000
vt 0.899543 0.000000
vt 0.150685 0.000000
vt 0.904110 0.000000
vt 0.146119 0.000000
vt 0.908676 0.000000
vt 0.141553 0.000000
vt 0.913242 0.000000
vt 0.136986 0.000000
vt 0.917808 0.000000
vt 0.132420 0.000000
vt 0.922374 0.000000
vt 0.127854 0.000000
vt 0.926941 0.000000
vt 0.123288 0.000000
vt 0.931507 0.000000
vt 0.118721 0.000000
vt 0.936073 0.000000
vt 0.114155 0.000000
vt 0.940639 0.000000
vt 0.945205 0.000000
vt 0.109589 0.000000
vt 0.949772 0.000000
vt 0.105023 0.000000
vt 0.954338 0.000000
vt 0.958904 0.000000
vt 0.100457 0.000000
vt 0.963470 0.000000
vt 0.968037 0.000000
vt 0.095890 0.000000
vt 0.972603 0.000000
vt 0.977169 0.000000
vt 0.091324 0.000000
vt 0.981735 0.000000
vt 0.986301 0.000000
vt 0.086758 0.000000
vt 0.990868 0.000000
vt 0.995434 0.000000
vt 0.082192 0.000000
vt 1.000000 0.000000
vt 0.000000 0.000000
vt 0.077626 0.000000
vt 0.004566 0.000000
vt 0.009132 0.000000
vt 0.073059 0.000000
vt 0.068493 0.000000
vt 0.063927 0.000000
vt 0.059361 0.000000
vt 0.054795 0.000000
vt 0.050228 0.000000
vt 0.045662 0.000000
vt 0.041096 0.000000
vt 0.036530 0.000000
vt 0.031963 0.000000
vt 0.027397 0.000000
vt 0.022831 0.000000
vt 0.018265 0.000000
vt 0.013699 0.000000
vt 0.004545 1.000000
vt 0.000000 1.000000
vt 0.009091 1.000000
vt 0.004545 0.000000
vt 0.013636 1.000000
vt 0.009091 0.000000
vt 0.018182 1.000000
vt 0.013636 0.000000
vt 0.022727 1.000000
vt 0.018182 0.000000
vt 0.027273 1.000000
vt 0.022727 0.000000
vt 0.031818 1.000000
vt 0.027273 0.000000
vt 0.036364 1.000000
vt 0.031818 0.000000
vt 0.040909 1.000000
vt 0.036364 0.000000
vt 0.045455 1.000000
vt 0.040909 0.000000
vt 0.050000 1.000000
vt 0.045455 0.000000
vt 0.054545 1.000000
vt 0.050000 0.000000
vt 0.059091 1.000000
vt 0.054545 0.000000
vt 0.063636 1.000000
vt 0.059091 0.000000
vt 0.068182 1.000000
vt 0.063636 0.000000
vt 0.072727 1.000000
vt 0.068182 0.000000
vt 0.077273 1.000000
vt 0.072727 0.000000
vt 0.081818 1.000000
vt 0.077273 0.000000
vt 0.086364 1.000000
vt 0.081818 0.000000
vt 0.090909 1.000000
vt 0.086364 0.000000
vt 0.095455 1.000000
vt 0.090909 0.000000
vt 0.100000 1.000000
vt 0.095455 0.000000
vt 0.104545 1.000000
vt 0.100000 0.000000
vt 0.109091 1.000000
vt 0.104545 0.000000
vt 0.113636 1.000000
vt 0.109091 0.000000
vt 0.118182 1.000000
vt 0.113636 0.000000
vt 0.122727 1.000000
vt 0.118182 0.000000
vt 0.127273 1.000000
vt 0.122727 0.000000
vt 0.131818 1.000000
vt 0.127273 0.000000
vt 0.136364 1.000000
vt 0.131818 0.000000
vt 0.140909 1.000000
vt 0.136364 0.000000
vt 0.145455 1.000000
vt 0.140909 0.000000
vt 0.150000 1.000000
vt 0.145455 0.000000
vt 0.154545 1.000000
vt 0.150000 0.000000
vt 0.159091 1.000000
vt 0.154545 0.000000
vt 0.163636 1.000000
vt 0.159091 0.000000
vt 0.168182 1.000000
vt 0.163636 0.000000
vt 0.172727 1.000000
vt 0.168182 0.000000
vt 0.177273 1.000000
vt 0.172727 0.000000
vt 0.181818 1.000000
vt 0.177273 0.000000
vt 0.186364 1.000000
vt 0.181818 0.000000
vt 0.190909 1.000000
vt 0.186364 0.000000
vt 0.195455 1.000000
vt 0.190909 0.000000
vt 0.200000 1.000000
vt 0.195455 0.000000
vt 0.204545 1.000000
vt 0.200000 0.000000
vt 0.209091 1.000000
vt 0.204545 0.000000
vt 0.213636 1.000000
vt 0.209091 0.000000
vt 0.218182 1.000000
vt 0.213636 0.000000
vt 0.222727 1.000000
vt 0.218182 0.000000
vt 0.227273 1.000000
vt 0.222727 0.000000
vt 0.231818 1.000000
vt 0.227273 0.000000
vt 0.236364 1.000000
vt 0.231818 0.000000
vt 0.240909 1.000000
vt 0.236364 0.000000
vt 0.245455 1.000000
vt 0.240909 0.000000
vt 0.250000 1.000000
vt 0.245455 0.000000
vt 0.254545 1.000000
vt 0.250000 0.000000
vt 0.259091 1.000000
vt 0.254545 0.000000
vt 0.263636 1.000000
vt 0.259091 0.000000
vt 0.268182 1.000000
vt 0.263636 0.000000
vt 0.272727 1.000000
vt 0.268182 0.000000
vt 0.277273 1.000000
vt 0.272727 0.000000
vt 0.281818 1.000000
vt 0.277273 0.000000
vt 0.286364 1.000000
vt 0.281818 0.000000
vt 0.290909 1.000000
vt 0.286364 0.000000
vt 0.295455 1.000000
vt 0.290909 0.000000
vt 0.300000 1.000000
vt 0.295455 0.000000
vt 0.304545 1.000000
vt 0.300000 0.000000
vt 0.309091 1.000000
vt 0.304545 0.000000
vt 0.313636 1.000000
vt 0.309091 0.000000
vt 0.318182 1.000000
vt 0.313636 0.000000
vt 0.322727 1.000000
vt 0.318182 0.000000
vt 0.327273 1.000000
vt 0.322727 0.000000
vt 0.331818 1.000000
vt 0.327273 0.000000
vt 0.336364 1.000000
vt 0.331818 0.000000
vt 0.340909 1.000000
vt 0.336364 0.000000
vt 0.345455 1.000000
vt 0.340909 0.000000
vt 0.350000 1.000000
vt 0.345455 0.000000
vt 0.354545 1.000000
vt 0.350000 0.000000
vt 0.359091 1.000000
vt 0.354545 0.000000
vt 0.363636 1.000000
vt 0.359091 0.000000
vt 0.368182 1.000000
vt 0.363636 0.000000
vt 0.372727 1.000000
vt 0.368182 0.000000
vt 0.377273 1.000000
vt 0.372727 0.000000
vt 0.381818 1.000000
vt 0.377273 0.000000
vt 0.386364 1.000000
vt 0.381818 0.000000
vt 0.390909 1.000000
vt 0.386364 0.000000
vt 0.395455 1.000000
vt 0.390909 0.000000
vt 0.400000 1.000000
vt 0.395455 0.000000
vt 0.404545 1.000000
vt 0.400000 0.000000
vt 0.409091 1.000000
vt 0.404545 0.000000
vt 0.413636 1.000000
vt 0.409091 0.000000
vt 0.418182 1.000000
vt 0.413636 0.000000
vt 0.422727 1.000000
vt 0.418182 0.000000
vt 0.427273 1.000000
vt 0.422727 0.000000
vt 0.431818 1.000000
vt 0.427273 0.000000
vt 0.436364 1.000000
vt 0.431818 0.000000
vt 0.440909 1.000000
vt 0.436364 0.000000
vt 0.445455 1.000000
vt 0.440909 0.000000
vt 0.450000 1.000000
vt 0.445455 0.000000
vt 0.454545 1.000000
vt 0.450000 0.000000
vt 0.459091 1.000000
vt 0.454545 0.000000
vt 0.463636 1.000000
vt 0.459091 0.000000
vt 0.468182 1.000000
vt 0.463636 0.000000
vt 0.472727 1.000000
vt 0.468182 0.000000
vt 0.477273 1.000000
vt 0.472727 0.000000
vt 0.481818 1.000000
vt 0.477273 0.000000
vt 0.486364 1.000000
vt 0.481818 0.000000
vt 0.490909 1.000000
vt 0.486364 0.000000
vt 0.495455 1.000000
vt 0.490909 0.000000
vt 0.500000 1.000000
vt 0.495455 0.000000
vt 0.504545 1.000000
vt 0.500000 0.000000
vt 0.509091 1.000000
vt 0.504545 0.000000
vt 0.513636 1.000000
vt 0.509091 0.000000
vt 0.518182 1.000000
vt 0.513636 0.000000
vt 0.522727 1.000000
vt 0.518182 0.000000
vt 0.527273 1.000000
vt 0.522727 0.000000
vt 0.531818 1.000000
vt 0.527273 0.000000
vt 0.536364 1.000000
vt 0.531818 0.000000
vt 0.540909 1.000000
vt 0.536364 0.000000
vt 0.545455 1.000000
vt 0.540909 0.000000
vt 0.550000 1.000000
vt 0.545455 0.000000
vt 0.554545 1.000000
vt 0.550000 0.000000
vt 0.559091 1.000000
vt 0.554545 0.000000
vt 0.563636 1.000000
vt 0.559091 0.000000
vt 0.568182 1.000000
vt 0.563636 0.000000
vt 0.572727 1.000000
vt 0.568182 0.000000
vt 0.577273 1.000000
vt 0.572727 0.000000
vt 0.581818 1.000000
vt 0.577273 0.000000
vt 0.586364 1.000000
vt 0.581818 0.000000
vt 0.590909 1.000000
vt 0.586364 0.000000
vt 0.595455 1.000000
vt 0.590909 0.000000
vt 0.600000 1.000000
vt 0.595455 0.000000
vt 0.604545 1.000000
vt 0.600000 0.000000
vt 0.609091 1.000000
vt 0.604545 0.000000
vt 0.613636 1.000000
vt 0.609091 0.000000
vt 0.618182 1.000000
vt 0.613636 0.000000
vt 0.622727 1.000000
vt 0.618182 0.000000
vt 0.627273 1.000000
vt 0.622727 0.000000
vt 0.631818 1.000000
vt 0.627273 0.000000
vt 0.636364 1.000000
vt 0.631818 0.000000
vt 0.640909 1.000000
vt 0.636364 0.000000
vt 0.645455 1.000000
vt 0.640909 0.000000
vt 0.650000 1.000000
vt 0.645455 0.000000
vt 0.654545 1.000000
vt 0.650000 0.000000
vt 0.659091 1.000000
vt 0.654545 0.000000
vt 0.663636 1.000000
vt 0.659091 0.000000
vt 0.668182 1.000000
vt 0.663636 0.000000
vt 0.672727 1.000000
vt 0.668182 0.000000
vt 0.677273 1.000000
vt 0.672727 0.000000
vt 0.681818 1.000000
vt 0.677273 0.000000
vt 0.686364 1.000000
vt 0.681818 0.000000
vt 0.690909 1.000000
vt 0.686364 0.000000
vt 0.695455 1.000000
vt 0.690909 0.000000
vt 0.700000 1.000000
vt 0.695455 0.000000
vt 0.704545 1.000000
vt 0.700000 0.000000
vt 0.709091 1.000000
vt 0.704545 0.000000
vt 0.713636 1.000000
vt 0.709091 0.000000
vt 0.718182 1.000000
vt 0.713636 0.000000
vt 0.722727 1.000000
vt 0.718182 0.000000
vt 0.727273 1.000000
vt 0.722727 0.000000
vt 0.731818 1.000000
vt 0.727273 0.000000
vt 0.736364 1.000000
vt 0.731818 0.000000
vt 0.740909 1.000000
vt 0.736364 0.000000
vt 0.745455 1.000000
vt 0.740909 0.000000
vt 0.750000 1.000000
vt 0.745455 0.000000
vt 0.754545 1.000000
vt 0.750000 0.000000
vt 0.759091 1.000000
vt 0.754545 0.000000
vt 0.763636 1.000000
vt 0.759091 0.000000
vt 0.768182 1.000000
vt 0.763636 0.000000
vt 0.772727 1.000000
vt 0.768182 0.000000
vt 0.777273 1.000000
vt 0.772727 0.000000
vt 0.781818 1.000000
vt 0.777273 0.000000
vt 0.786364 1.000000
vt 0.781818 0.000000
vt 0.790909 1.000000
vt 0.786364 0.000000
vt 0.795455 1.000000
vt 0.790909 0.000000
vt 0.800000 1.000000
vt 0.795455 0.000000
vt 0.804545 1.000000
vt 0.800000 0.000000
vt 0.809091 1.000000
vt 0.804545 0.000000
vt 0.813636 1.000000
vt 0.809091 0.000000
vt 0.818182 1.000000
vt 0.813636 0.000000
vt 0.822727 1.000000
vt 0.818182 0.000000
vt 0.827273 1.000000
vt 0.822727 0.000000
vt 0.831818 1.000000
vt 0.827273 0.000000
vt 0.836364 1.000000
vt 0.831818 0.000000
vt 0.840909 1.000000
vt 0.836364 0.000000
vt 0.845455 1.000000
vt 0.840909 0.000000
vt 0.850000 1.000000
vt 0.845455 0.000000
vt 0.854545 1.000000
vt 0.850000 0.000000
vt 0.859091 1.000000
vt 0.854545 0.000000
vt 0.863636 1.000000
vt 0.859091 0.000000
vt 0.868182 1.000000
vt 0.863636 0.000000
vt 0.872727 1.000000
vt 0.868182 0.000000
vt 0.877273 1.000000
vt 0.872727 0.000000
vt 0.881818 1.000000
vt 0.877273 0.000000
vt 0.886364 1.000000
vt 0.881818 0.000000
vt 0.890909 1.000000
vt 0.886364 0.000000
vt 0.895455 1.000000
vt 0.890909 0.000000
vt 0.900000 1.000000
vt 0.895455 0.000000
vt 0.904545 1.000000
vt 0.900000 0.000000
vt 0.909091 1.000000
vt 0.904545 0.000000
vt 0.913636 1.000000
vt 0.909091 0.000000
vt 0.918182 1.000000
vt 0.913636 0.000000
vt 0.922727 1.000000
vt 0.918182 0.000000
vt 0.927273 1.000000
vt 0.922727 0.000000
vt 0.931818 1.000000
vt 0.927273 0.000000
vt 0.936364 1.000000
vt 0.931818 0.000000
vt 0.940909 1.000000
vt 0.936364 0.000000
vt 0.945455 1.000000
vt 0.940909 0.000000
vt 0.950000 1.000000
vt 0.945455 0.000000
vt 0.954545 1.000000
vt 0.950000 0.000000
vt 0.959091 1.000000
vt 0.954545 0.000000
vt 0.963636 1.000000
vt 0.959091 0.000000
vt 0.968182 1.000000
vt 0.963636 0.000000
vt 0.972727 1.000000
vt 0.968182 0.000000
vt 0.977273 1.000000
vt 0.972727 0.000000
vt 0.981818 1.000000
vt 0.977273 0.000000
vt 0.986364 1.000000
vt 0.981818 0.000000
vt 0.990909 1.000000
vt 0.986364 0.000000
vt 0.995455 1.000000
vt 0.990909 0.000000
vt 1.000000 1.000000
vt 0.995455 0.000000
s 0
f 136/1/1 138/2/1 137/3/1
f 135/4/1 138/2/1 136/1/1
f 135/4/1 139/5/1 138/2/1
f 134/6/1 139/5/1 135/4/1
f 134/6/1 140/7/1 139/5/1
f 133/8/1 140/7/1 134/6/1
f 133/8/1 141/9/1 140/7/1
f 132/10/1 141/9/1 133/8/1
f 132/10/1 142/11/1 141/9/1
f 131/12/1 142/11/1 132/10/1
f 131/12/1 143/13/1 142/11/1
f 130/14/1 143/13/1 131/12/1
f 130/14/1 144/15/1 143/13/1
f 129/16/1 144/15/1 130/14/1
f 129/16/1 145/17/1 144/15/1
f 128/18/1 145/17/1 129/16/1
f 128/18/1 146/19/1 145/17/1
f 127/20/1 146/19/1 128/18/1
f 127/20/1 147/21/1 146/19/1
f 126/22/1 147/21/1 127/20/1
f 126/22/1 148/23/1 147/21/1
f 125/24/1 148/23/1 126/22/1
f 125/24/1 149/25/1 148/23/1
f 124/26/1 149/25/1 125/24/1
f 124/26/1 150/27/1 149/25/1
f 123/28/1 150/27/1 124/26/1
f 123/28/1 88/29/1 150/27/1
f 88/29/1 151/30/1 150/27/1
f 122/31/1 89/32/1 123/28/1
f 89/32/1 88/29/1 123/28/1
f 87/33/1 151/30/1 88/29/1
f 86/34/1 151/30/1 87/33/1
f 122/31/1 90/35/1 89/32/1
f 85/36/1 151/30/1 86/34/1
f 122/31/1 91/37/1 90/35/1
f 84/38/1 151/30/1 85/36/1
f 122/31/1 92/39/1 91/37/1
f 83/40/1 151/30/1 84/38/1
f 83/40/1 152/41/1 151/30/1
f 122/31/1 93/42/1 92/39/1
f 82/43/1 152/41/1 83/40/1
f 122/31/1 94/44/1 93/42/1
f 81/45/1 152/41/1 82/43/1
f 122/31/1 95/46/1 94/44/1
f 121/47/1 95/46/1 122/31/1
f 80/48/1 152/41/1 81/45/1
f 121/47/1 96/49/1 95/46/1
f 80/48/1 153/50/1 152/41/1
f 79/51/1 153/50/1 80/48/1
f 121/47/1 97/52/1 96/49/1
f 78/53/1 153/50/1 79/51/1
f 120/54/1 97/52/1 121/47/1
f 120/54/1 98/55/1 97/52/1
f 77/56/1 153/50/1 78/53/1
f 77/56/1 154/57/1 153/50/1
f 120/54/1 99/58/1 98/55/1
f 76/59/1 154/57/1 77/56/1
f 120/54/1 100/60/1 99/58/1
f 119/61/1 100/60/1 120/54/1
f 75/62/1 154/57/1 76/59/1
f 75/62/1 155/63/1 154/57/1
f 119/61/1 101/64/1 100/60/1
f 74/65/1 155/63/1 75/62/1
f 119/61/1 102/66/1 101/64/1
f 118/67/1 102/66/1 119/61/1
f 73/68/1 155/63/1 74/65/1
f 73/68/1 156/69/1 155/63/1
f 118/67/1 103/70/1 102/66/1
f 72/71/1 156/69/1 73/68/1
f 117/72/1 103/70/1 118/67/1
f 117/72/1 104/73/1 103/70/1
f 72/71/1 157/74/1 156/69/1
f 71/75/1 157/74/1 72/71/1
f 117/72/1 105/76/1 104/73/1
f 70/77/1 157/74/1 71/75/1
f 116/78/1 105/76/1 117/72/1
f 70/77/1 158/79/1 157/74/1
f 116/78/1 106/80/1 105/76/1
f 69/81/1 158/79/1 70/77/1
f 68/82/1 158/79/1 69/81/1
f 116/78/1 107/83/1 106/80/1
f 68/82/1 159/84/1 158/79/1
f 115/85/1 107/83/1 116/78/1
f 67/86/1 159/84/1 68/82/1
f 115/85/1 108/87/1 107/83/1
f 67/86/1 160/88/1 159/84/1
f 66/89/1 160/88/1 67/86/1
f 115/85/1 109/90/1 108/87/1
f 114/91/1 109/90/1 115/85/1
f 65/92/1 160/88/1 66/89/1
f 114/91/1 110/93/1 109/90/1
f 65/92/1 161/94/1 160/88/1
f 64/95/1 161/94/1 65/92/1
f 113/96/1 110/93/1 114/91/1
f 113/96/1 111/97/1 110/93/1
f 63/98/1 161/94/1 64/95/1
f 63/98/1 162/99/1 161/94/1
f 62/100/1 162/99/1 63/98/1
f 113/96/1 112/101/1 111/97/1
f 62/100/1 163/102/1 162/99/1
f 62/100/1 164/103/1 163/102/1
f 61/104/1 164/103/1 62/100/1
f 61/104/1 165/105/1 164/103/1
f 60/106/1 165/105/1 61/104/1
f 60/106/1 166/107/1 165/105/1
f 59/108/1 166/107/1 60/106/1
f 59/108/1 167/109/1 166/107/1
f 58/110/1 167/109/1 59/108/1
f 58/110/1 168/111/1 167/109/1
f 57/112/1 168/111/1 58/110/1
f 57/112/1 169/113/1 168/111/1
f 57/112/1 170/114/1 169/113/1
f 56/115/1 170/114/1 57/112/1
f 56/115/1 171/116/1 170/114/1
f 55/117/1 171/116/1 56/115/1
f 55/117/1 172/118/1 171/116/1
f 54/119/1 172/118/1 55/117/1
f 54/119/1 173/120/1 172/118/1
f 54/119/1 174/121/1 173/120/1
f 53/122/1 174/121/1 54/119/1
f 53/122/1 175/123/1 174/121/1
f 52/124/1 175/123/1 53/122/1
f 52/124/1 176/125/1 175/123/1
f 51/126/1 176/125/1 52/124/1
f 51/126/1 177/127/1 176/125/1
f 51/126/1 178/128/1 177/127/1
f 50/129/1 178/128/1 51/126/1
f 50/129/1 179/130/1 178/128/1
f 49/131/1 179/130/1 50/129/1
f 49/131/1 180/132/1 179/130/1
f 48/133/1 180/132/1 49/131/1
f 48/133/1 181/134/1 180/132/1
f 48/133/1 182/135/1 181/134/1
f 47/136/1 182/135/1 48/133/1
f 47/136/1 183/137/1 182/135/1
f 47/136/1 184/138/1 183/137/1
f 46/139/1 184/138/1 47/136/1
f 46/139/1 185/140/1 184/138/1
f 45/141/1 185/140/1 46/139/1
f 45/141/1 186/142/1 185/140/1
f 45/141/1 187/143/1 186/142/1
f 44/144/1 187/143/1 45/141/1
f 44/144/1 188/145/1 187/143/1
f 43/146/1 188/145/1 44/144/1
f 43/146/1 189/147/1 188/145/1
f 43/146/1 190/148/1 189/147/1
f 42/149/1 190/148/1 43/146/1
f 42/149/1 191/150/1 190/148/1
f 41/151/1 191/150/1 42/149/1
f 41/151/1 192/152/1 191/150/1
f 41/151/1 193/153/1 192/152/1
f 40/154/1 193/153/1 41/151/1
f 40/154/1 194/155/1 193/153/1
f 39/156/1 194/155/1 40/154/1
f 39/156/1 195/157/1 194/155/1
f 38/158/1 195/157/1 39/156/1
f 38/158/1 196/159/1 195/157/1
f 37/160/1 196/159/1 38/158/1
f 37/160/1 197/161/1 196/159/1
f 36/162/1 197/161/1 37/160/1
f 35/163/1 197/161/1 36/162/1
f 35/163/1 198/164/1 197/161/1
f 34/165/1 198/164/1 35/163/1
f 34/165/1 199/166/1 198/164/1
f 33/167/1 199/166/1 34/165/1
f 33/167/1 200/168/1 199/166/1
f 32/169/1 200/168/1 33/167/1
f 32/169/1 201/170/1 200/168/1
f 31/171/1 201/170/1 32/169/1
f 31/171/1 202/172/1 201/170/1
f 30/173/1 202/172/1 31/171/1
f 30/173/1 203/174/1 202/172/1
f 29/175/1 203/174/1 30/173/1
f 29/175/1 204/176/1 203/174/1
f 28/177/1 204/176/1 29/175/1
f 28/177/1 205/178/1 204/176/1
f 27/179/1 205/178/1 28/177/1
f 27/179/1 206/180/1 205/178/1
f 26/181/1 206/180/1 27/179/1
f 26/181/1 207/182/1 206/180/1
f 26/181/1 208/183/1 207/182/1
f 25/184/1 208/183/1 26/181/1
f 25/184/1 209/185/1 208/183/1
f 24/186/1 209/185/1 25/184/1
f 24/186/1 210/187/1 209/185/1
f 24/186/1 211/188/1 210/187/1
f 23/189/1 211/188/1 24/186/1
f 23/189/1 212/190/1 211/188/1
f 23/189/1 213/191/1 212/190/1
f 22/192/1 213/191/1 23/189/1
f 22/192/1 214/193/1 213/191/1
f 22/192/1 215/194/1 214/193/1
f 21/195/1 215/194/1 22/192/1
f 21/195/1 216/196/1 215/194/1
f 21/195/1 217/197/1 216/196/1
f 20/198/1 217/197/1 21/195/1
f 20/198/1 218/199/1 217/197/1
f 20/198/1 219/200/1 218/199/1
f 19/201/1 219/200/1 20/198/1
f 19/201/1 220/202/1 219/200/1
f 19/201/1 1/203/1 220/202/1
f 18/204/1 1/203/1 19/201/1
f 18/204/1 2/205/1 1/203/1
f 18/204/1 3/206/1 2/205/1
f 17/207/1 3/206/1 18/204/1
f 16/208/1 3/206/1 17/207/1
f 15/209/1 3/206/1 16/208/1
f 14/210/1 3/206/1 15/209/1
f 13/211/1 3/206/1 14/210/1
f 12/212/1 3/206/1 13/211/1
f 11/213/1 3/206/1 12/212/1
f 10/214/1 3/206/1 11/213/1
f 9/215/1 3/206/1 10/214/1
f 8/216/1 3/206/1 9/215/1
f 7/217/1 3/206/1 8/216/1
f 6/218/1 3/206/1 7/217/1
f 5/219/1 3/206/1 6/218/1
f 4/220/1 3/206/1 5/219/1
f 356/1/2 357/3/2 358/2/2
f 355/4/2 356/1/2 358/2/2
f 355/4/2 358/2/2 359/5/2
f 354/6/2 355/4/2 359/5/2
f 354/6/2 359/5/2 360/7/2
f 353/8/2 354/6/2 360/7/2
f 353/8/2 360/7/2 361/9/2
f 352/10/2 353/8/2 361/9/2
f 352/10/2 361/9/2 362/11/2
f 351/12/2 352/10/2 362/11/2
f 351/12/2 362/11/2 363/13/2
f 350/14/2 351/12/2 363/13/2
f 350/14/2 363/13/2 364/15/2
f 349/16/2 350/14/2 364/15/2
f 349/16/2 364/15/2 365/17/2
f 348/18/2 349/16/2 365/17/2
f 348/18/2 365/17/2 366/19/2
f 347/20/2 348/18/2 366/19/2
f 347/20/2 366/19/2 367/21/2
f 346/22/2 347/20/2 367/21/2
f 346/22/2 367/21/2 368/23/2
f 345/24/2 346/22/2 368/23/2
f 345/24/2 368/23/2 369/25/2
f 344/26/2 345/24/2 369/25/2
f 344/26/2 369/25/2 370/27/2
f 343/28/2 344/26/2 370/27/2
f 343/28/2 370/27/2 308/29/2
f 308/29/2 370/27/2 371/30/2
f 342/31/2 343/28/2 309/32/2
f 309/32/2 343/28/2 308/29/2
f 307/33/2 308/29/2 371/30/2
f 306/34/2 307/33/2 371/30/2
f 342/31/2 309/32/2 310/35/2
f 305/36/2 306/34/2 371/30/2
f 342/31/2 310/35/2 311/37/2
f 304/38/2 305/36/2 371/30/2
f 342/31/2 311/37/2 312/39/2
f 303/40/2 304/38/2 371/30/2
f 303/40/2 371/30/2 372/41/2
f 342/31/2 312/39/2 313/42/2
f 302/43/2 303/40/2 372/41/2
f 342/31/2 313/42/2 314/44/2
f 301/45/2 302/43/2 372/41/2
f 342/31/2 314/44/2 315/46/2
f 341/47/2 342/31/2 315/46/2
f 300/48/2 301/45/2 372/41/2
f 341/47/2 315/46/2 316/49/2
f 300/48/2 372/41/2 373/50/2
f 299/51/2 300/48/2 373/50/2
f 341/47/2 316/49/2 317/52/2
f 298/53/2 299/51/2 373/50/2
f 340/54/2 341/47/2 317/52/2
f 340/54/2 317/52/2 318/55/2
f 297/56/2 298/53/2 373/50/2
f 297/56/2 373/50/2 374/57/2
f 340/54/2 318/55/2 319/58/2
f 296/59/2 297/56/2 374/57/2
f 340/54/2 319/58/2 320/60/2
f 339/61/2 340/54/2 320/60/2
f 295/62/2 296/59/2 374/57/2
f 295/62/2 374/57/2 375/63/2
f 339/61/2 320/60/2 321/64/2
f 294/65/2 295/62/2 375/63/2
f 339/61/2 321/64/2 322/66/2
f 338/67/2 339/61/2 322/66/2
f 293/68/2 294/65/2 375/63/2
f 293/68/2 375/63/2 376/69/2
f 338/67/2 322/66/2 323/70/2
f 292/71/2 293/68/2 376/69/2
f 337/72/2 338/67/2 323/70/2
f 337/72/2 323/70/2 324/73/2
f 292/71/2 376/69/2 377/74/2
f 291/75/2 292/71/2 377/74/2
f 337/72/2 324/73/2 325/76/2
f 290/77/2 291/75/2 377/74/2
f 336/78/2 337/72/2 325/76/2
f 290/77/2 377/74/2 378/79/2
f 336/78/2 325/76/2 326/80/2
f 289/81/2 290/77/2 378/79/2
f 288/82/2 289/81/2 378/79/2
f 336/78/2 326/80/2 327/83/2
f 288/82/2 378/79/2 379/84/2
f 335/85/2 336/78/2 327/83/2
f 287/86/2 288/82/2 379/84/2
f 335/85/2 327/83/2 328/87/2
f 287/86/2 379/84/2 380/88/2
f 286/89/2 287/86/2 380/88/2
f 335/85/2 328/87/2 329/90/2
f 334/91/2 335/85/2 329/90/2
f 285/92/2 286/89/2 380/88/2
f 334/91/2 329/90/2 330/93/2
f 285/92/2 380/88/2 381/94/2
f 284/95/2 285/92/2 381/94/2
f 333/96/2 334/91/2 330/93/2
f 333/96/2 330/93/2 331/97/2
f 283/98/2 284/95/2 381/94/2
f 283/98/2 381/94/2 382/99/2
f 282/100/2 283/98/2 382/99/2
f 333/96/2 331/97/2 332/101/2
f 282/100/2 382/99/2 383/102/2
f 282/100/2 383/102/2 384/103/2
f 281/104/2 282/100/2 384/103/2
f 281/104/2 384/103/2 385/105/2
f 280/106/2 281/104/2 385/105/2
f 280/106/2 385/105/2 386/107/2
f 279/108/2 280/106/2 386/107/2
f 279/108/2 386/107/2 387/109/2
f 278/110/2 279/108/2 387/109/2
f 278/110/2 387/109/2 388/111/2
f 277/112/2 278/110/2 388/111/2
f 277/112/2 388/111/2 389/113/2
f 277/112/2 389/113/2 390/114/2
f 276/115/2 277/112/2 390/114/2
f 276/115/2 390/114/2 391/116/2
f 275/117/2 276/115/2 391/116/2
f 275/117/2 391/116/2 392/118/2
f 274/119/2 275/117/2 392/118/2
f 274/119/2 392/118/2 393/120/2
f 274/119/2 393/120/2 394/121/2
f 273/122/2 274/119/2 394/121/2
f 273/122/2 394/121/2 395/123/2
f 272/124/2 273/122/2 395/123/2
f 272/124/2 395/123/2 396/125/2
f 271/126/2 272/124/2 396/125/2
f 271/126/2 396/125/2 397/127/2
f 271/126/2 397/127/2 398/128/2
f 270/129/2 271/126/2 398/128/2
f 270/129/2 398/128/2 399/130/2
f 269/131/2 270/129/2 399/130/2
f 269/131/2 399/130/2 400/132/2
f 268/133/2 269/131/2 400/132/2
f 268/133/2 400/132/2 401/134/2
f 268/133/2 401/134/2 402/135/2
f 267/136/2 268/133/2 402/135/2
f 267/136/2 402/135/2 403/137/2
f 267/136/2 403/137/2 404/138/2
f 266/139/2 267/136/2 404/138/2
f 266/139/2 404/138/2 405/140/2
f 265/141/2 266/139/2 405/140/2
f 265/141/2 405/140/2 406/142/2
f 265/141/2 406/142/2 407/143/2
f 264/144/2 265/141/2 407/143/2
f 264/144/2 407/143/2 408/145/2
f 263/146/2 264/144/2 408/145/2
f 263/146/2 408/145/2 409/147/2
f 263/146/2 409/147/2 410/148/2
f 262/149/2 263/146/2 410/148/2
f 262/149/2 410/148/2 411/150/2
f 261/151/2 262/149/2 411/150/2
f 261/151/2 411/150/2 412/152/2
f 261/151/2 412/152/2 413/153/2
f 260/154/2 261/151/2 413/153/2
f 260/154/2 413/153/2 414/155/2
f 259/156/2 260/154/2 414/155/2
f 259/156/2 414/155/2 415/157/2
f 258/158/2 259/156/2 415/157/2
f 258/158/2 415/157/2 416/159/2
f 257/160/2 258/158/2 416/159/2
f 257/160/2 416/159/2 417/161/2
f 256/162/2 257/160/2 417/161/2
f 255/163/2 256/162/2 417/161/2
f 255/163/2 417/161/2 418/164/2
f 254/165/2 255/163/2 418/164/2
f 254/165/2 418/164/2 419/166/2
f 253/167/2 254/165/2 419/166/2
f 253/167/2 419/166/2 420/168/2
f 252/169/2 253/167/2 420/168/2
f 252/169/2 420/168/2 421/170/2
f 251/171/2 252/169/2 421/170/2
f 251/171/2 421/170/2 422/172/2
f 250/173/2 251/171/2 422/172/2
f 250/173/2 422/172/2 423/174/2
f 249/175/2 250/173/2 423/174/2
f 249/175/2 423/174/2 424/176/2
f 248/177/2 249/175/2 424/176/2
f 248/177/2 424/176/2 425/178/2
f 247/179/2 248/177/2 425/178/2
f 247/179/2 425/178/2 426/180/2
f 246/181/2 247/179/2 426/180/2
f 246/181/2 426/180/2 427/182/2
f 246/181/2 427/182/2 428/183/2
f 245/184/2 246/181/2 428/183/2
f 245/184/2 428/183/2 429/185/2
f 244/186/2 245/184/2 429/185/2
f 244/186/2 429/185/2 430/187/2
f 244/186/2 430/187/2 431/188/2
f 243/189/2 244/186/2 431/188/2
f 243/189/2 431/188/2 432/190/2
f 243/189/2 432/190/2 433/191/2
f 242/192/2 243/189/2 433/191/2
f 242/192/2 433/191/2 434/193/2
f 242/192/2 434/193/2 435/194/2
f 241/195/2 242/192/2 435/194/2
f 241/195/2 435/194/2 436/196/2
f 241/195/2 436/196/2 437/197/2
f 240/198/2 241/195/2 437/197/2
f 240/198/2 437/197/2 438/199/2
f 240/198/2 438/199/2 439/200/2
f 239/201/2 240/198/2 439/200/2
f 239/201/2 439/200/2 440/202/2
f 239/201/2 440/202/2 221/203/2
f 238/204/2 239/201/2 221/203/2
f 238/204/2 221/203/2 222/205/2
f 238/204/2 222/205/2 223/206/2
f 237/207/2 238/204/2 223/206/2
f 236/208/2 237/207/2 223/206/2
f 235/209/2 236/208/2 223/206/2
f 234/210/2 235/209/2 223/206/2
f 233/211/2 234/210/2 223/206/2
f 232/212/2 233/211/2 223/206/2
f 231/213/2 232/212/2 223/206/2
f 230/214/2 231/213/2 223/206/2
f 229/215/2 230/214/2 223/206/2
f 228/216/2 229/215/2 223/206/2
f 227/217/2 228/216/2 223/206/2
f 226/218/2 227/217/2 223/206/2
f 225/219/2 226/218/2 223/206/2
f 224/220/2 225/219/2 223/206/2
s 1
f 444/221/3 441/203/4 442/222/4
f 446/223/5 443/224/3 444/221/3
f 448/225/6 445/226/5 446/223/5
f 450/227/7 447/228/6 448/225/6
f 452/229/8 449/230/7 450/227/7
f 454/231/9 451/232/8 452/229/8
f 456/233/10 453/234/9 454/231/9
f 458/235/11 455/236/10 456/233/10
f 460/237/12 457/238/11 458/235/11
f 462/239/13 459/240/12 460/237/12
f 464/241/14 461/242/13 462/239/13
f 466/243/15 463/244/14 464/241/14
f 468/245/16 465/246/15 466/243/15
f 470/247/17 467/248/16 468/245/16
f 472/249/18 469/250/17 470/247/17
f 474/251/19 471/252/18 472/249/18
f 476/253/20 473/254/19 474/251/19
f 478/255/21 475/256/20 476/253/20
f 480/257/22 477/258/21 478/255/21
f 482/259/23 479/260/24 480/257/22
f 484/261/25 481/262/23 482/259/23
f 486/263/26 483/264/25 484/261/25
f 488/265/27 485/266/26 486/263/26
f 490/267/28 487/268/27 488/265/27
f 492/269/29 489/270/28 490/267/28
f 494/271/30 491/272/29 492/269/29
f 496/273/31 493/274/30 494/271/30
f 498/275/32 495/276/31 496/273/31
f 500/277/33 497/278/32 498/275/32
f 502/279/34 499/280/33 500/277/33
f 504/281/35 501/282/34 502/279/34
f 506/283/36 503/284/35 504/281/35
f 508/285/37 505/286/36 506/283/36
f 510/287/38 507/288/37 508/285/37
f 512/289/39 509/290/38 510/287/38
f 514/291/40 511/292/39 512/289/39
f 516/293/41 513/294/40 514/291/40
f 518/295/42 515/296/41 516/293/41
f 520/297/43 517/298/42 518/295/42
f 522/299/44 519/300/43 520/297/43
f 524/301/45 521/302/44 522/299/44
f 526/303/46 523/304/45 524/301/45
f 528/305/47 525/306/46 526/303/46
f 530/307/48 527/308/47 528/305/47
f 532/309/49 529/310/48 530/307/48
f 534/311/50 531/312/49 532/309/49
f 536/313/51 533/314/50 534/311/50
f 538/315/52 535/316/51 536/313/51
f 540/317/53 537/318/52 538/315/52
f 542/319/54 539/320/53 540/317/53
f 544/321/55 541/322/54 542/319/54
f 546/323/56 543/324/55 544/321/55
f 548/325/57 545/326/56 546/323/56
f 550/327/58 547/328/57 548/325/57
f 552/329/59 549/330/58 550/327/58
f 554/331/60 551/332/59 552/329/59
f 556/333/61 553/334/60 554/331/60
f 558/335/62 555/336/61 556/333/61
f 560/337/63 557/338/62 558/335/62
f 562/339/64 559/340/63 560/337/63
f 564/341/65 561/342/64 562/339/64
f 566/343/66 563/344/65 564/341/65
f 568/345/67 565/346/66 566/343/66
f 570/347/68 567/348/67 568/345/67
f 572/349/69 569/350/68 570/347/68
f 574/351/70 571/352/71 572/349/69
f 576/353/72 573/354/70 574/351/70
f 578/355/73 575/356/72 576/353/72
f 580/357/74 577/358/73 578/355/73
f 582/359/75 579/360/74 580/357/74
f 584/361/76 581/362/75 582/359/75
f 586/363/77 583/364/76 584/361/76
f 588/365/78 585/366/77 586/363/77
f 590/367/79 587/368/78 588/365/78
f 592/369/80 589/370/79 590/367/79
f 594/371/81 591/372/80 592/369/80
f 596/373/82 593/374/81 594/371/81
f 598/375/83 595/376/82 596/373/82
f 600/377/84 597/378/83 598/375/83
f 602/379/85 599/380/84 600/377/84
f 604/381/86 601/382/85 602/379/85
f 606/383/87 603/384/86 604/381/86
f 608/385/88 605/386/87 606/383/87
f 610/387/89 607/388/88 608/385/88
f 612/389/90 609/390/89 610/387/89
f 614/391/91 611/392/90 612/389/90
f 616/393/92 613/394/91 614/391/91
f 618/395/93 615/396/92 616/393/92
f 620/397/94 617/398/93 618/395/93
f 622/399/95 619/400/94 620/397/94
f 624/401/96 621/402/95 622/399/95
f 626/403/97 623/404/96 624/401/96
f 628/405/98 625/406/97 626/403/97
f 630/407/99 627/408/98 628/405/98
f 632/409/100 629/410/99 630/407/99
f 634/411/101 631/412/100 632/409/100
f 636/413/102 633/414/101 634/411/101
f 638/415/103 635/416/102 636/413/102
f 640/417/104 637/418/103 638/415/103
f 642/419/105 639/420/104 640/417/104
f 644/421/106 641/422/105 642/419/105
f 646/423/107 643/424/106 644/421/106
f 648/425/108 645/426/107 646/423/107
f 650/427/109 647/428/108 648/425/108
f 652/429/110 649/430/109 650/427/109
f 654/431/111 651/432/110 652/429/110
f 656/433/112 653/434/111 654/431/111
f 658/435/113 655/436/112 656/433/112
f 660/437/114 657/438/113 658/435/113
f 662/439/115 659/440/114 660/437/114
f 664/441/116 661/442/115 662/439/115
f 666/443/117 663/444/118 664/441/116
f 668/445/119 665/446/120 666/443/117
f 670/447/121 667/448/119 668/445/119
f 672/449/122 669/450/121 670/447/121
f 674/451/123 671/452/122 672/449/122
f 676/453/124 673/454/123 674/451/123
f 678/455/125 675/456/124 676/453/124
f 680/457/126 677/458/125 678/455/125
f 682/459/127 679/460/126 680/457/126
f 684/461/128 681/462/127 682/459/127
f 686/463/129 683/464/128 684/461/128
f 688/465/130 685/466/129 686/463/129
f 690/467/131 687/468/130 688/465/130
f 692/469/132 689/470/131 690/467/131
f 694/471/133 691/472/132 692/469/132
f 696/473/134 693/474/133 694/471/133
f 698/475/135 695/476/134 696/473/134
f 700/477/136 697/478/135 698/475/135
f 702/479/137 699/480/136 700/477/136
f 704/481/138 701/482/137 702/479/137
f 706/483/139 703/484/138 704/481/138
f 708/485/140 705/486/139 706/483/139
f 710/487/141 707/488/140 708/485/140
f 712/489/142 709/490/141 710/487/141
f 714/491/143 711/492/142 712/489/142
f 716/493/144 713/494/143 714/491/143
f 718/495/145 715/496/144 716/493/144
f 720/497/146 717/498/145 718/495/145
f 722/499/147 719/500/146 720/497/146
f 724/501/148 721/502/147 722/499/147
f 726/503/149 723/504/148 724/501/148
f 728/505/150 725/506/149 726/503/149
f 730/507/151 727/508/150 728/505/150
f 732/509/152 729/510/151 730/507/151
f 734/511/153 731/512/152 732/509/152
f 736/513/154 733/514/153 734/511/153
f 738/515/155 735/516/154 736/513/154
f 740/517/156 737/518/155 738/515/155
f 742/519/157 739/520/156 740/517/156
f 744/521/158 741/522/157 742/519/157
f 746/523/159 743/524/158 744/521/158
f 748/525/160 745/526/159 746/523/159
f 750/527/161 747/528/160 748/525/160
f 752/529/162 749/530/161 750/527/161
f 754/531/163 751/532/162 752/529/162
f 756/533/164 753/534/165 754/531/163
f 758/535/166 755/536/164 756/533/164
f 760/537/167 757/538/166 758/535/166
f 762/539/168 759/540/169 760/537/167
f 764/541/170 761/542/168 762/539/168
f 766/543/171 763/544/170 764/541/170
f 768/545/172 765/546/171 766/543/171
f 770/547/173 767/548/172 768/545/172
f 772/549/174 769/550/173 770/547/173
f 774/551/175 771/552/174 772/549/174
f 776/553/176 773/554/175 774/551/175
f 778/555/177 775/556/176 776/553/176
f 780/557/178 777/558/177 778/555/177
f 782/559/179 779/560/178 780/557/178
f 784/561/180 781/562/179 782/559/179
f 786/563/181 783/564/180 784/561/180
f 788/565/182 785/566/181 786/563/181
f 790/567/183 787/568/182 788/565/182
f 792/569/184 789/570/183 790/567/183
f 794/571/185 791/572/184 792/569/184
f 796/573/186 793/574/185 794/571/185
f 798/575/187 795/576/186 796/573/186
f 800/577/188 797/578/187 798/575/187
f 802/579/189 799/580/188 800/577/188
f 804/581/190 801/582/189 802/579/189
f 806/583/191 803/584/190 804/581/190
f 808/585/192 805/586/193 806/583/191
f 810/587/194 807/588/192 808/585/192
f 812/589/195 809/590/194 810/587/194
f 814/591/196 811/592/195 812/589/195
f 816/593/197 813/594/196 814/591/196
f 818/595/198 815/596/197 816/593/197
f 820/597/199 817/598/198 818/595/198
f 822/599/200 819/600/199 820/597/199
f 824/601/201 821/602/200 822/599/200
f 826/603/202 823/604/201 824/601/201
f 828/605/203 825/606/202 826/603/202
f 830/607/204 827/608/205 828/605/203
f 832/609/206 829/610/204 830/607/204
f 834/611/207 831/612/206 832/609/206
f 836/613/208 833/614/207 834/611/207
f 838/615/209 835/616/208 836/613/208
f 840/617/210 837/618/209 838/615/209
f 842/619/211 839/620/210 840/617/210
f 844/621/212 841/622/211 842/619/211
f 846/623/213 843/624/212 844/621/212
f 848/625/214 845/626/213 846/623/213
f 850/627/215 847/628/214 848/625/214
f 852/629/216 849/630/215 850/627/215
f 854/631/217 851/632/216 852/629/216
f 856/633/197 853/634/217 854/631/217
f 858/635/218 855/636/197 856/633/197
f 860/637/219 857/638/218 858/635/218
f 862/639/220 859/640/219 860/637/219
f 864/641/221 861/642/220 862/639/220
f 866/643/222 863/644/221 864/641/221
f 868/645/223 865/646/222 866/643/222
f 870/647/224 867/648/223 868/645/223
f 872/649/225 869/650/224 870/647/224
f 874/651/226 871/652/225 872/649/225
f 876/653/227 873/654/226 874/651/226
f 878/655/228 875/656/227 876/653/227
f 880/657/229 877/658/228 878/655/228
f 442/659/4 879/660/229 880/657/229
f 444/221/3 443/224/3 441/203/4
f 446/223/5 445/226/5 443/224/3
f 448/225/6 447/228/6 445/226/5
f 450/227/7 449/230/7 447/228/6
f 452/229/8 451/232/8 449/230/7
f 454/231/9 453/234/9 451/232/8
f 456/233/10 455/236/10 453/234/9
f 458/235/11 457/238/11 455/236/10
f 460/237/12 459/240/12 457/238/11
f 462/239/13 461/242/13 459/240/12
f 464/241/14 463/244/14 461/242/13
f 466/243/15 465/246/15 463/244/14
f 468/245/16 467/248/16 465/246/15
f 470/247/17 469/250/17 467/248/16
f 472/249/18 471/252/18 469/250/17
f 474/251/19 473/254/19 471/252/18
f 476/253/20 475/256/20 473/254/19
f 478/255/21 477/258/21 475/256/20
f 480/257/22 479/260/24 477/258/21
f 482/259/23 481/262/23 479/260/24
f 484/261/25 483/264/25 481/262/23
f 486/263/26 485/266/26 483/264/25
f 488/265/27 487/268/27 485/266/26
f 490/267/28 489/270/28 487/268/27
f 492/269/29 491/272/29 489/270/28
f 494/271/30 493/274/30 491/272/29
f 496/273/31 495/276/31 493/274/30
f 498/275/32 497/278/32 495/276/31
f 500/277/33 499/280/33 497/278/32
f 502/279/34 501/282/34 499/280/33
f 504/281/35 503/284/35 501/282/34
f 506/283/36 505/286/36 503/284/35
f 508/285/37 507/288/37 505/286/36
f 510/287/38 509/290/38 507/288/37
f 512/289/39 511/292/39 509/290/38
f 514/291/40 513/294/40 511/292/39
f 516/293/41 515/296/41 513/294/40
f 518/295/42 517/298/42 515/296/41
f 520/297/43 519/300/43 517/298/42
f 522/299/44 521/302/44 519/300/43
f 524/301/45 523/304/45 521/302/44
f 526/303/46 525/306/46 523/304/45
f 528/305/47 527/308/47 525/306/46
f 530/307/48 529/310/48 527/308/47
f 532/309/49 531/312/49 529/310/48
f 534/311/50 533/314/50 531/312/49
f 536/313/51 535/316/51 533/314/50
f 538/315/52 537/318/52 535/316/51
f 540/317/53 539/320/53 537/318/52
f 542/319/54 541/322/54 539/320/53
f 544/321/55 543/324/55 541/322/54
f 546/323/56 545/326/56 543/324/55
f 548/325/57 547/328/57 545/326/56
f 550/327/58 549/330/58 547/328/57
f 552/329/59 551/332/59 549/330/58
f 554/331/60 553/334/60 551/332/59
f 556/333/61 555/336/61 553/334/60
f 558/335/62 557/338/62 555/336/61
f 560/337/63 559/340/63 557/338/62
f 562/339/64 561/342/64 559/340/63
f 564/341/65 563/344/65 561/342/64
f 566/343/66 565/346/66 563/344/65
f 568/345/67 567/348/67 565/346/66
f 570/347/68 569/350/68 567/348/67
f 572/349/69 571/352/71 569/350/68
f 574/351/70 573/354/70 571/352/71
f 576/353/72 575/356/72 573/354/70
f 578/355/73 577/358/73 575/356/72
f 580/357/74 579/360/74 577/358/73
f 582/359/75 581/362/75 579/360/74
f 584/361/76 583/364/76 581/362/75
f 586/363/77 585/366/77 583/364/76
f 588/365/78 587/368/78 585/366/77
f 590/367/79 589/370/79 587/368/78
f 592/369/80 591/372/80 589/370/79
f 594/371/81 593/374/81 591/372/80
f 596/373/82 595/376/82 593/374/81
f 598/375/83 597/378/83 595/376/82
f 600/377/84 599/380/84 597/378/83
f 602/379/85 601/382/85 599/380/84
f 604/381/86 603/384/86 601/382/85
f 606/383/87 605/386/87 603/384/86
f 608/385/88 607/388/88 605/386/87
f 610/387/89 609/390/89 607/388/88
f 612/389/90 611/392/90 609/390/89
f 614/391/91 613/394/91 611/392/90
f 616/393/92 615/396/92 613/394/91
f 618/395/93 617/398/93 615/396/92
f 620/397/94 619/400/94 617/398/93
f 622/399/95 621/402/95 619/400/94
f 624/401/96 623/404/96 621/402/95
f 626/403/97 625/406/97 623/404/96
f 628/405/98 627/408/98 625/406/97
f 630/407/99 629/410/99 627/408/98
f 632/409/100 631/412/100 629/410/99
f 634/411/101 633/414/101 631/412/100
f 636/413/102 635/416/102 633/414/101
f 638/415/103 637/418/103 635/416/102
f 640/417/104 639/420/104 637/418/103
f 642/419/105 641/422/105 639/420/104
f 644/421/106 643/424/106 641/422/105
f 646/423/107 645/426/107 643/424/106
f 648/425/108 647/428/108 645/426/107
f 650/427/109 649/430/109 647/428/108
f 652/429/110 651/432/110 649/430/109
f 654/431/111 653/434/111 651/432/110
f 656/433/112 655/436/112 653/434/111
f 658/435/113 657/438/113 655/436/112
f 660/437/114 659/440/114 657/438/113
f 662/439/115 661/442/115 659/440/114
f 664/441/116 663/444/118 661/442/115
f 666/443/117 665/446/120 663/444/118
f 668/445/119 667/448/119 665/446/120
f 670/447/121 669/450/121 667/448/119
f 672/449/122 671/452/122 669/450/121
f 674/451/123 673/454/123 671/452/122
f 676/453/124 675/456/124 673/454/123
f 678/455/125 677/458/125 675/456/124
f 680/457/126 679/460/126 677/458/125
f 682/459/127 681/462/127 679/460/126
f 684/461/128 683/464/128 681/462/127
f 686/463/129 685/466/129 683/464/128
f 688/465/130 687/468/130 685/466/129
f 690/467/131 689/470/131 687/468/130
f 692/469/132 691/472/132 689/470/131
f 694/471/133 693/474/133 691/472/132
f 696/473/134 695/476/134 693/474/133
f 698/475/135 697/478/135 695/476/134
f 700/477/136 699/480/136 697/478/135
f 702/479/137 701/482/137 699/480/136
f 704/481/138 703/484/138 701/482/137
f 706/483/139 705/486/139 703/484/138
f 708/485/140 707/488/140 705/486/139
f 710/487/141 709/490/141 707/488/140
f 712/489/142 711/492/142 709/490/141
f 714/491/143 713/494/143 711/492/142
f 716/493/144 715/496/144 713/494/143
f 718/495/145 717/498/145 715/496/144
f 720/497/146 719/500/146 717/498/145
f 722/499/147 721/502/147 719/500/146
f 724/501/148 723/504/148 721/502/147
f 726/503/149 725/506/149 723/504/148
f 728/505/150 727/508/150 725/506/149
f 730/507/151 729/510/151 727/508/150
f 732/509/152 731/512/152 729/510/151
f 734/511/153 733/514/153 731/512/152
f 736/513/154 735/516/154 733/514/153
f 738/515/155 737/518/155 735/516/154
f 740/517/156 739/520/156 737/518/155
f 742/519/157 741/522/157 739/520/156
f 744/521/158 743/524/158 741/522/157
f 746/523/159 745/526/159 743/524/158
f 748/525/160 747/528/160 745/526/159
f 750/527/161 749/530/161 747/528/160
f 752/529/162 751/532/162 749/530/161
f 754/531/163 753/534/165 751/532/162
f 756/533/164 755/536/164 753/534/165
f 758/535/166 757/538/166 755/536/164
f 760/537/167 759/540/169 757/538/166
f 762/539/168 761/542/168 759/540/169
f 764/541/170 763/544/170 761/542/168
f 766/543/171 765/546/171 763/544/170
f 768/545/172 767/548/172 765/546/171
f 770/547/173 769/550/173 767/548/172
f 772/549/174 771/552/174 769/550/173
f 774/551/175 773/554/175 771/552/174
f 776/553/176 775/556/176 773/554/175
f 778/555/177 777/558/177 775/556/176
f 780/557/178 779/560/178 777/558/177
f 782/559/179 781/562/179 779/560/178
f 784/561/180 783/564/180 781/562/179
f 786/563/181 785/566/181 783/564/180
f 788/565/182 787/568/182 785/566/181
f 790/567/183 789/570/183 787/568/182
f 792/569/184 791/572/184 789/570/183
f 794/571/185 793/574/185 791/572/184
f 796/573/186 795/576/186 793/574/185
f 798/575/187 797/578/187 795/576/186
f 800/577/188 799/580/188 797/578/187
f 802/579/189 801/582/189 799/580/188
f 804/581/190 803/584/190 801/582/189
f 806/583/191 805/586/193 803/584/190
f 808/585/192 807/588/192 805/586/193
f 810/587/194 809/590/194 807/588/192
f 812/589/195 811/592/195 809/590/194
f 814/591/196 813/594/196 811/592/195
f 816/593/197 815/596/197 813/594/196
f 818/595/198 817/598/198 815/596/197
f 820/597/199 819/600/199 817/598/198
f 822/599/200 821/602/200 819/600/199
f 824/601/201 823/604/201 821/602/200
f 826/603/202 825/606/202 823/604/201
f 828/605/203 827/608/205 825/606/202
f 830/607/204 829/610/204 827/608/205
f 832/609/206 831/612/206 829/610/204
f 834/611/207 833/614/207 831/612/206
f 836/613/208 835/616/208 833/614/207
f 838/615/209 837/618/209 835/616/208
f 840/617/210 839/620/210 837/618/209
f 842/619/211 841/622/211 839/620/210
f 844/621/212 843/624/212 841/622/211
f 846/623/213 845/626/213 843/624/212
f 848/625/214 847/628/214 845/626/213
f 850/627/215 849/630/215 847/628/214
f 852/629/216 851/632/216 849/630/215
f 854/631/217 853/634/217 851/632/216
f 856/633/197 855/636/197 853/634/217
f 858/635/218 857/638/218 855/636/197
f 860/637/219 859/640/219 857/638/218
f 862/639/220 861/642/220 859/640/219
f 864/641/221 863/644/221 861/642/220
f 866/643/222 865/646/222 863/644/221
f 868/645/223 867/648/223 865/646/222
f 870/647/224 869/650/224 867/648/223
f 872/649/225 871/652/225 869/650/224
f 874/651/226 873/654/226 871/652/225
f 876/653/227 875/656/227 873/654/226
f 878/655/228 877/658/228 875/656/227
f 880/657/229 879/660/229 877/658/228
f 442/659/4 441/202/4 879/660/229
