# Blender 4.4.1
# www.blender.org
mtllib 4.mtl
o テキスト
v 1.713666 0.015609 -1.064071
v 1.713666 0.015609 -1.156832
v 1.894550 0.015609 -1.156832
v 1.894550 0.015609 -1.484589
v 1.979581 0.015609 -1.484589
v 2.469155 0.015609 -1.139826
v 2.469155 0.015609 -1.064071
v 1.979581 0.015609 -1.064071
v 1.979581 0.015609 -0.962034
v 1.894550 0.015609 -0.962034
v 1.894550 0.015609 -1.064071
v 1.979581 0.015609 -1.393374
v 1.979581 0.015609 -1.156832
v 2.320221 0.015609 -1.156832
v 1.713666 0.001609 -1.064071
v 1.713666 0.001609 -1.156832
v 1.894550 0.001609 -1.156832
v 1.894550 0.001609 -1.484589
v 1.979581 0.001609 -1.484589
v 2.469155 0.001609 -1.139826
v 2.469155 0.001609 -1.064071
v 1.979581 0.001609 -1.064071
v 1.979581 0.001609 -0.962034
v 1.894550 0.001609 -0.962034
v 1.894550 0.001609 -1.064071
v 1.979581 0.001609 -1.393374
v 1.979581 0.001609 -1.156832
v 2.320221 0.001609 -1.156832
v 1.713666 0.001609 -1.064071
v 1.713666 0.015609 -1.064071
v 1.713666 0.001609 -1.156832
v 1.713666 0.015609 -1.156832
v 1.894550 0.001609 -1.156832
v 1.894550 0.015609 -1.156832
v 1.894550 0.001609 -1.484589
v 1.894550 0.015609 -1.484589
v 1.979581 0.001609 -1.484589
v 1.979581 0.015609 -1.484589
v 2.469155 0.001609 -1.139826
v 2.469155 0.015609 -1.139826
v 2.469155 0.001609 -1.064071
v 2.469155 0.015609 -1.064071
v 1.979581 0.001609 -1.064071
v 1.979581 0.015609 -1.064071
v 1.979581 0.001609 -0.962034
v 1.979581 0.015609 -0.962034
v 1.894550 0.001609 -0.962034
v 1.894550 0.015609 -0.962034
v 1.894550 0.001609 -1.064071
v 1.894550 0.015609 -1.064071
v 1.979581 0.001609 -1.393374
v 1.979581 0.015609 -1.393374
v 1.979581 0.001609 -1.156832
v 1.979581 0.015609 -1.156832
v 2.320221 0.001609 -1.156832
v 2.320221 0.015609 -1.156832
vn -0.0000 1.0000 -0.0000
vn -0.0000 -1.0000 -0.0000
vn -0.7071 -0.0000 -0.7071
vn -0.7071 -0.0000 0.7071
vn 0.3020 -0.0000 -0.9533
vn 0.8876 -0.0000 -0.4606
vn 0.7071 -0.0000 0.7071
vn 0.7071 -0.0000 -0.7071
vn 0.4635 -0.0000 0.8861
vn -0.9543 -0.0000 -0.2989
vn -0.9543 -0.0000 -0.2988
vt 0.307692 0.000000
vt 0.461538 0.000000
vt 0.384615 0.000000
vt 1.000000 0.000000
vt 0.538462 0.000000
vt 0.846154 0.000000
vt 0.923077 0.000000
vt 0.230769 0.000000
vt 0.615385 0.000000
vt 0.692308 0.000000
vt 0.153846 0.000000
vt 0.076923 0.000000
vt 0.769231 0.000000
vt 0.000000 0.000000
vt 0.090909 1.000000
vt 0.000000 1.000000
vt 0.181818 1.000000
vt 0.090909 0.000000
vt 0.272727 1.000000
vt 0.181818 0.000000
vt 0.363636 1.000000
vt 0.272727 0.000000
vt 0.454545 1.000000
vt 0.363636 0.000000
vt 0.545455 1.000000
vt 0.454545 0.000000
vt 0.636364 1.000000
vt 0.545455 0.000000
vt 0.727273 1.000000
vt 0.636364 0.000000
vt 0.818182 1.000000
vt 0.727273 0.000000
vt 0.909091 1.000000
vt 0.818182 0.000000
vt 1.000000 1.000000
vt 0.909091 0.000000
vt 0.333333 1.000000
vt 0.666667 1.000000
vt 0.333333 0.000000
vt 0.666667 0.000000
s 0
f 5/1/1 7/2/1 6/3/1
f 5/1/1 14/4/1 7/2/1
f 14/4/1 8/5/1 7/2/1
f 5/1/1 12/6/1 14/4/1
f 13/7/1 8/5/1 14/4/1
f 4/8/1 12/6/1 5/1/1
f 4/8/1 13/7/1 12/6/1
f 4/8/1 8/5/1 13/7/1
f 4/8/1 9/9/1 8/5/1
f 4/8/1 10/10/1 9/9/1
f 3/11/1 10/10/1 4/8/1
f 2/12/1 11/13/1 3/11/1
f 11/13/1 10/10/1 3/11/1
f 2/12/1 1/14/1 11/13/1
f 19/1/2 20/3/2 21/2/2
f 19/1/2 21/2/2 28/4/2
f 28/4/2 21/2/2 22/5/2
f 19/1/2 28/4/2 26/6/2
f 27/7/2 28/4/2 22/5/2
f 18/8/2 19/1/2 26/6/2
f 18/8/2 26/6/2 27/7/2
f 18/8/2 27/7/2 22/5/2
f 18/8/2 22/5/2 23/9/2
f 18/8/2 23/9/2 24/10/2
f 17/11/2 18/8/2 24/10/2
f 16/12/2 17/11/2 25/13/2
f 25/13/1 17/11/1 24/10/1
f 16/12/2 25/13/2 15/14/2
s 1
f 32/15/3 29/14/4 30/16/4
f 34/17/3 31/18/3 32/15/3
f 36/19/3 33/20/3 34/17/3
f 38/21/5 35/22/3 36/19/3
f 40/23/6 37/24/5 38/21/5
f 42/25/7 39/26/6 40/23/6
f 44/27/7 41/28/7 42/25/7
f 46/29/7 43/30/7 44/27/7
f 48/31/4 45/32/7 46/29/7
f 50/33/4 47/34/4 48/31/4
f 30/35/4 49/36/4 50/33/4
f 54/37/8 51/14/9 52/16/9
f 56/38/10 53/39/8 54/37/8
f 52/35/9 55/40/11 56/38/10
f 32/15/3 31/18/3 29/14/4
f 34/17/3 33/20/3 31/18/3
f 36/19/3 35/22/3 33/20/3
f 38/21/5 37/24/5 35/22/3
f 40/23/6 39/26/6 37/24/5
f 42/25/7 41/28/7 39/26/6
f 44/27/7 43/30/7 41/28/7
f 46/29/7 45/32/7 43/30/7
f 48/31/4 47/34/4 45/32/7
f 50/33/4 49/36/4 47/34/4
f 30/35/4 29/4/4 49/36/4
f 54/37/8 53/39/8 51/14/9
f 56/38/10 55/40/11 53/39/8
f 52/35/9 51/4/9 55/40/11
