# Blender 4.4.1
# www.blender.org
mtllib 5.mtl
o テキスト
v 1.758500 0.015609 -1.379717
v 1.768381 0.015609 -1.390194
v 1.778785 0.015609 -1.399894
v 1.789711 0.015609 -1.408818
v 1.801159 0.015609 -1.416965
v 1.813130 0.015609 -1.424335
v 1.825624 0.015609 -1.430929
v 1.838639 0.015609 -1.436746
v 1.852178 0.015609 -1.441787
v 1.866239 0.015609 -1.446051
v 1.880822 0.015609 -1.449539
v 1.895928 0.015609 -1.452250
v 1.911556 0.015609 -1.454184
v 1.919802 0.015609 -1.356784
v 1.908194 0.015609 -1.354782
v 1.897077 0.015609 -1.352383
v 1.886450 0.015609 -1.349586
v 1.876313 0.015609 -1.346392
v 1.866666 0.015609 -1.342800
v 1.857510 0.015609 -1.338812
v 1.848844 0.015609 -1.334426
v 1.840669 0.015609 -1.329643
v 1.832983 0.015609 -1.324463
v 1.825788 0.015609 -1.318886
v 1.819083 0.015609 -1.312911
v 1.812869 0.015609 -1.306539
v 1.807148 0.015609 -1.299855
v 1.801925 0.015609 -1.292947
v 1.797199 0.015609 -1.285812
v 1.792971 0.015609 -1.278453
v 1.789240 0.015609 -1.270868
v 1.786007 0.015609 -1.263057
v 1.783271 0.015609 -1.255021
v 1.781032 0.015609 -1.246759
v 1.779291 0.015609 -1.238272
v 1.778048 0.015609 -1.229560
v 1.777301 0.015609 -1.220622
v 1.777053 0.015609 -1.211459
v 1.777403 0.015609 -1.200436
v 1.778456 0.015609 -1.189700
v 1.780209 0.015609 -1.179250
v 1.782664 0.015609 -1.169086
v 1.785821 0.015609 -1.159209
v 1.789679 0.015609 -1.149618
v 1.794238 0.015609 -1.140313
v 1.799499 0.015609 -1.131294
v 1.805461 0.015609 -1.122562
v 1.812124 0.015609 -1.114117
v 1.819490 0.015609 -1.105957
v 1.827556 0.015609 -1.098084
v 1.836202 0.015609 -1.090676
v 1.845307 0.015609 -1.083912
v 1.854869 0.015609 -1.077792
v 1.864890 0.015609 -1.072317
v 1.875368 0.015609 -1.067485
v 1.886305 0.015609 -1.063298
v 1.897700 0.015609 -1.059755
v 1.909552 0.015609 -1.056857
v 1.921863 0.015609 -1.054602
v 1.934632 0.015609 -1.052991
v 1.947859 0.015609 -1.052025
v 1.961545 0.015609 -1.051703
v 1.974539 0.015609 -1.052013
v 1.987068 0.015609 -1.052941
v 1.999132 0.015609 -1.054489
v 2.010731 0.015609 -1.056656
v 2.021864 0.015609 -1.059442
v 2.032533 0.015609 -1.062847
v 2.042736 0.015609 -1.066872
v 2.052474 0.015609 -1.071515
v 2.061746 0.015609 -1.076778
v 2.070553 0.015609 -1.082659
v 2.078895 0.015609 -1.089160
v 2.086772 0.015609 -1.096280
v 2.094098 0.015609 -1.103901
v 2.100787 0.015609 -1.111905
v 2.106838 0.015609 -1.120292
v 2.112253 0.015609 -1.129061
v 2.117031 0.015609 -1.138214
v 2.121171 0.015609 -1.147750
v 2.124675 0.015609 -1.157668
v 2.127542 0.015609 -1.167969
v 2.129771 0.015609 -1.178654
v 2.131364 0.015609 -1.189721
v 2.132319 0.015609 -1.201171
v 2.132638 0.015609 -1.213005
v 2.132496 0.015609 -1.220416
v 2.132072 0.015609 -1.227706
v 2.131365 0.015609 -1.234874
v 2.130376 0.015609 -1.241921
v 2.129103 0.015609 -1.248846
v 2.127548 0.015609 -1.255649
v 2.125711 0.015609 -1.262331
v 2.123590 0.015609 -1.268890
v 2.121187 0.015609 -1.275329
v 2.118501 0.015609 -1.281645
v 2.115533 0.015609 -1.287840
v 2.112282 0.015609 -1.293913
v 2.108805 0.015609 -1.299818
v 2.105160 0.015609 -1.305508
v 2.101347 0.015609 -1.310984
v 2.097365 0.015609 -1.316244
v 2.093216 0.015609 -1.321290
v 2.088898 0.015609 -1.326122
v 2.084412 0.015609 -1.330738
v 2.079758 0.015609 -1.335140
v 2.074935 0.015609 -1.339327
v 2.069945 0.015609 -1.343300
v 2.064786 0.015609 -1.347057
v 2.059459 0.015609 -1.350600
v 2.070797 0.015609 -1.437693
v 2.458848 0.015609 -1.364515
v 2.458848 0.015609 -0.988832
v 2.370209 0.015609 -0.988832
v 2.370209 0.015609 -1.290306
v 2.167165 0.015609 -1.331017
v 2.174738 0.015609 -1.319633
v 2.181652 0.015609 -1.308156
v 2.187908 0.015609 -1.296586
v 2.193505 0.015609 -1.284923
v 2.198444 0.015609 -1.273167
v 2.202724 0.015609 -1.261318
v 2.206346 0.015609 -1.249375
v 2.209309 0.015609 -1.237340
v 2.211613 0.015609 -1.225212
v 2.213260 0.015609 -1.212990
v 2.214247 0.015609 -1.200676
v 2.214577 0.015609 -1.188268
v 2.214101 0.015609 -1.171992
v 2.212673 0.015609 -1.156145
v 2.210293 0.015609 -1.140728
v 2.206961 0.015609 -1.125740
v 2.202677 0.015609 -1.111182
v 2.197442 0.015609 -1.097053
v 2.191254 0.015609 -1.083354
v 2.184114 0.015609 -1.070083
v 2.176023 0.015609 -1.057243
v 2.166979 0.015609 -1.044832
v 2.156984 0.015609 -1.032850
v 2.146036 0.015609 -1.021298
v 2.134341 0.015609 -1.010433
v 2.122102 0.015609 -1.000513
v 2.109318 0.015609 -0.991537
v 2.095991 0.015609 -0.983506
v 2.082120 0.015609 -0.976420
v 2.067705 0.015609 -0.970279
v 2.052745 0.015609 -0.965083
v 2.037242 0.015609 -0.960831
v 2.021195 0.015609 -0.957525
v 2.004604 0.015609 -0.955163
v 1.987469 0.015609 -0.953745
v 1.969790 0.015609 -0.953273
v 1.952891 0.015609 -0.953688
v 1.936379 0.015609 -0.954934
v 1.920253 0.015609 -0.957009
v 1.904514 0.015609 -0.959915
v 1.889161 0.015609 -0.963651
v 1.874194 0.015609 -0.968218
v 1.859614 0.015609 -0.973615
v 1.845421 0.015609 -0.979842
v 1.831614 0.015609 -0.986899
v 1.818194 0.015609 -0.994787
v 1.805160 0.015609 -1.003504
v 1.792513 0.015609 -1.013052
v 1.777861 0.015609 -1.025532
v 1.764484 0.015609 -1.038748
v 1.752381 0.015609 -1.052701
v 1.741552 0.015609 -1.067392
v 1.731996 0.015609 -1.082820
v 1.723715 0.015609 -1.098985
v 1.716708 0.015609 -1.115888
v 1.710975 0.015609 -1.133528
v 1.706516 0.015609 -1.151905
v 1.703330 0.015609 -1.171019
v 1.701419 0.015609 -1.190870
v 1.700782 0.015609 -1.211459
v 1.701183 0.015609 -1.228374
v 1.702386 0.015609 -1.244762
v 1.704390 0.015609 -1.260625
v 1.707196 0.015609 -1.275962
v 1.710803 0.015609 -1.290773
v 1.715212 0.015609 -1.305057
v 1.720423 0.015609 -1.318816
v 1.726435 0.015609 -1.332048
v 1.733249 0.015609 -1.344755
v 1.740864 0.015609 -1.356935
v 1.749282 0.015609 -1.368589
v 1.758500 0.001609 -1.379717
v 1.768381 0.001609 -1.390194
v 1.778785 0.001609 -1.399894
v 1.789711 0.001609 -1.408818
v 1.801159 0.001609 -1.416965
v 1.813130 0.001609 -1.424335
v 1.825624 0.001609 -1.430929
v 1.838639 0.001609 -1.436746
v 1.852178 0.001609 -1.441787
v 1.866239 0.001609 -1.446051
v 1.880822 0.001609 -1.449539
v 1.895928 0.001609 -1.452250
v 1.911556 0.001609 -1.454184
v 1.919802 0.001609 -1.356784
v 1.908194 0.001609 -1.354782
v 1.897077 0.001609 -1.352383
v 1.886450 0.001609 -1.349586
v 1.876313 0.001609 -1.346392
v 1.866666 0.001609 -1.342800
v 1.857510 0.001609 -1.338812
v 1.848844 0.001609 -1.334426
v 1.840669 0.001609 -1.329643
v 1.832983 0.001609 -1.324463
v 1.825788 0.001609 -1.318886
v 1.819083 0.001609 -1.312911
v 1.812869 0.001609 -1.306539
v 1.807148 0.001609 -1.299855
v 1.801925 0.001609 -1.292947
v 1.797199 0.001609 -1.285812
v 1.792971 0.001609 -1.278453
v 1.789240 0.001609 -1.270868
v 1.786007 0.001609 -1.263057
v 1.783271 0.001609 -1.255021
v 1.781032 0.001609 -1.246759
v 1.779291 0.001609 -1.238272
v 1.778048 0.001609 -1.229560
v 1.777301 0.001609 -1.220622
v 1.777053 0.001609 -1.211459
v 1.777403 0.001609 -1.200436
v 1.778456 0.001609 -1.189700
v 1.780209 0.001609 -1.179250
v 1.782664 0.001609 -1.169086
v 1.785821 0.001609 -1.159209
v 1.789679 0.001609 -1.149618
v 1.794238 0.001609 -1.140313
v 1.799499 0.001609 -1.131294
v 1.805461 0.001609 -1.122562
v 1.812124 0.001609 -1.114117
v 1.819490 0.001609 -1.105957
v 1.827556 0.001609 -1.098084
v 1.836202 0.001609 -1.090676
v 1.845307 0.001609 -1.083912
v 1.854869 0.001609 -1.077792
v 1.864890 0.001609 -1.072317
v 1.875368 0.001609 -1.067485
v 1.886305 0.001609 -1.063298
v 1.897700 0.001609 -1.059755
v 1.909552 0.001609 -1.056857
v 1.921863 0.001609 -1.054602
v 1.934632 0.001609 -1.052991
v 1.947859 0.001609 -1.052025
v 1.961545 0.001609 -1.051703
v 1.974539 0.001609 -1.052013
v 1.987068 0.001609 -1.052941
v 1.999132 0.001609 -1.054489
v 2.010731 0.001609 -1.056656
v 2.021864 0.001609 -1.059442
v 2.032533 0.001609 -1.062847
v 2.042736 0.001609 -1.066872
v 2.052474 0.001609 -1.071515
v 2.061746 0.001609 -1.076778
v 2.070553 0.001609 -1.082659
v 2.078895 0.001609 -1.089160
v 2.086772 0.001609 -1.096280
v 2.094098 0.001609 -1.103901
v 2.100787 0.001609 -1.111905
v 2.106838 0.001609 -1.120292
v 2.112253 0.001609 -1.129061
v 2.117031 0.001609 -1.138214
v 2.121171 0.001609 -1.147750
v 2.124675 0.001609 -1.157668
v 2.127542 0.001609 -1.167969
v 2.129771 0.001609 -1.178654
v 2.131364 0.001609 -1.189721
v 2.132319 0.001609 -1.201171
v 2.132638 0.001609 -1.213005
v 2.132496 0.001609 -1.220416
v 2.132072 0.001609 -1.227706
v 2.131365 0.001609 -1.234874
v 2.130376 0.001609 -1.241921
v 2.129103 0.001609 -1.248846
v 2.127548 0.001609 -1.255649
v 2.125711 0.001609 -1.262331
v 2.123590 0.001609 -1.268890
v 2.121187 0.001609 -1.275329
v 2.118501 0.001609 -1.281645
v 2.115533 0.001609 -1.287840
v 2.112282 0.001609 -1.293913
v 2.108805 0.001609 -1.299818
v 2.105160 0.001609 -1.305508
v 2.101347 0.001609 -1.310984
v 2.097365 0.001609 -1.316244
v 2.093216 0.001609 -1.321290
v 2.088898 0.001609 -1.326122
v 2.084412 0.001609 -1.330738
v 2.079758 0.001609 -1.335140
v 2.074935 0.001609 -1.339327
v 2.069945 0.001609 -1.343300
v 2.064786 0.001609 -1.347057
v 2.059459 0.001609 -1.350600
v 2.070797 0.001609 -1.437693
v 2.458848 0.001609 -1.364515
v 2.458848 0.001609 -0.988832
v 2.370209 0.001609 -0.988832
v 2.370209 0.001609 -1.290306
v 2.167165 0.001609 -1.331017
v 2.174738 0.001609 -1.319633
v 2.181652 0.001609 -1.308156
v 2.187908 0.001609 -1.296586
v 2.193505 0.001609 -1.284923
v 2.198444 0.001609 -1.273167
v 2.202724 0.001609 -1.261318
v 2.206346 0.001609 -1.249375
v 2.209309 0.001609 -1.237340
v 2.211613 0.001609 -1.225212
v 2.213260 0.001609 -1.212990
v 2.214247 0.001609 -1.200676
v 2.214577 0.001609 -1.188268
v 2.214101 0.001609 -1.171992
v 2.212673 0.001609 -1.156145
v 2.210293 0.001609 -1.140728
v 2.206961 0.001609 -1.125740
v 2.202677 0.001609 -1.111182
v 2.197442 0.001609 -1.097053
v 2.191254 0.001609 -1.083354
v 2.184114 0.001609 -1.070083
v 2.176023 0.001609 -1.057243
v 2.166979 0.001609 -1.044832
v 2.156984 0.001609 -1.032850
v 2.146036 0.001609 -1.021298
v 2.134341 0.001609 -1.010433
v 2.122102 0.001609 -1.000513
v 2.109318 0.001609 -0.991537
v 2.095991 0.001609 -0.983506
v 2.082120 0.001609 -0.976420
v 2.067705 0.001609 -0.970279
v 2.052745 0.001609 -0.965083
v 2.037242 0.001609 -0.960831
v 2.021195 0.001609 -0.957525
v 2.004604 0.001609 -0.955163
v 1.987469 0.001609 -0.953745
v 1.969790 0.001609 -0.953273
v 1.952891 0.001609 -0.953688
v 1.936379 0.001609 -0.954934
v 1.920253 0.001609 -0.957009
v 1.904514 0.001609 -0.959915
v 1.889161 0.001609 -0.963651
v 1.874194 0.001609 -0.968218
v 1.859614 0.001609 -0.973615
v 1.845421 0.001609 -0.979842
v 1.831614 0.001609 -0.986899
v 1.818194 0.001609 -0.994787
v 1.805160 0.001609 -1.003504
v 1.792513 0.001609 -1.013052
v 1.777861 0.001609 -1.025532
v 1.764484 0.001609 -1.038748
v 1.752381 0.001609 -1.052701
v 1.741552 0.001609 -1.067392
v 1.731996 0.001609 -1.082820
v 1.723715 0.001609 -1.098985
v 1.716708 0.001609 -1.115888
v 1.710975 0.001609 -1.133528
v 1.706516 0.001609 -1.151905
v 1.703330 0.001609 -1.171019
v 1.701419 0.001609 -1.190870
v 1.700782 0.001609 -1.211459
v 1.701183 0.001609 -1.228374
v 1.702386 0.001609 -1.244762
v 1.704390 0.001609 -1.260625
v 1.707196 0.001609 -1.275962
v 1.710803 0.001609 -1.290773
v 1.715212 0.001609 -1.305057
v 1.720423 0.001609 -1.318816
v 1.726435 0.001609 -1.332048
v 1.733249 0.001609 -1.344755
v 1.740864 0.001609 -1.356935
v 1.749282 0.001609 -1.368589
v 1.758500 0.001609 -1.379717
v 1.758500 0.015609 -1.379717
v 1.768381 0.001609 -1.390194
v 1.768381 0.015609 -1.390194
v 1.778785 0.001609 -1.399894
v 1.778785 0.015609 -1.399894
v 1.789711 0.001609 -1.408818
v 1.789711 0.015609 -1.408818
v 1.801159 0.001609 -1.416965
v 1.801159 0.015609 -1.416965
v 1.813130 0.001609 -1.424335
v 1.813130 0.015609 -1.424335
v 1.825624 0.001609 -1.430929
v 1.825624 0.015609 -1.430929
v 1.838639 0.001609 -1.436746
v 1.838639 0.015609 -1.436746
v 1.852178 0.001609 -1.441787
v 1.852178 0.015609 -1.441787
v 1.866239 0.001609 -1.446051
v 1.866239 0.015609 -1.446051
v 1.880822 0.001609 -1.449539
v 1.880822 0.015609 -1.449539
v 1.895928 0.001609 -1.452250
v 1.895928 0.015609 -1.452250
v 1.911556 0.001609 -1.454184
v 1.911556 0.015609 -1.454184
v 1.919802 0.001609 -1.356784
v 1.919802 0.015609 -1.356784
v 1.908194 0.001609 -1.354782
v 1.908194 0.015609 -1.354782
v 1.897077 0.001609 -1.352383
v 1.897077 0.015609 -1.352383
v 1.886450 0.001609 -1.349586
v 1.886450 0.015609 -1.349586
v 1.876313 0.001609 -1.346392
v 1.876313 0.015609 -1.346392
v 1.866666 0.001609 -1.342800
v 1.866666 0.015609 -1.342800
v 1.857510 0.001609 -1.338812
v 1.857510 0.015609 -1.338812
v 1.848844 0.001609 -1.334426
v 1.848844 0.015609 -1.334426
v 1.840669 0.001609 -1.329643
v 1.840669 0.015609 -1.329643
v 1.832983 0.001609 -1.324463
v 1.832983 0.015609 -1.324463
v 1.825788 0.001609 -1.318886
v 1.825788 0.015609 -1.318886
v 1.819083 0.001609 -1.312911
v 1.819083 0.015609 -1.312911
v 1.812869 0.001609 -1.306539
v 1.812869 0.015609 -1.306539
v 1.807148 0.001609 -1.299855
v 1.807148 0.015609 -1.299855
v 1.801925 0.001609 -1.292947
v 1.801925 0.015609 -1.292947
v 1.797199 0.001609 -1.285812
v 1.797199 0.015609 -1.285812
v 1.792971 0.001609 -1.278453
v 1.792971 0.015609 -1.278453
v 1.789240 0.001609 -1.270868
v 1.789240 0.015609 -1.270868
v 1.786007 0.001609 -1.263057
v 1.786007 0.015609 -1.263057
v 1.783271 0.001609 -1.255021
v 1.783271 0.015609 -1.255021
v 1.781032 0.001609 -1.246759
v 1.781032 0.015609 -1.246759
v 1.779291 0.001609 -1.238272
v 1.779291 0.015609 -1.238272
v 1.778048 0.001609 -1.229560
v 1.778048 0.015609 -1.229560
v 1.777301 0.001609 -1.220622
v 1.777301 0.015609 -1.220622
v 1.777053 0.001609 -1.211459
v 1.777053 0.015609 -1.211459
v 1.777403 0.001609 -1.200436
v 1.777403 0.015609 -1.200436
v 1.778456 0.001609 -1.189700
v 1.778456 0.015609 -1.189700
v 1.780209 0.001609 -1.179250
v 1.780209 0.015609 -1.179250
v 1.782664 0.001609 -1.169086
v 1.782664 0.015609 -1.169086
v 1.785821 0.001609 -1.159209
v 1.785821 0.015609 -1.159209
v 1.789679 0.001609 -1.149618
v 1.789679 0.015609 -1.149618
v 1.794238 0.001609 -1.140313
v 1.794238 0.015609 -1.140313
v 1.799499 0.001609 -1.131294
v 1.799499 0.015609 -1.131294
v 1.805461 0.001609 -1.122562
v 1.805461 0.015609 -1.122562
v 1.812124 0.001609 -1.114117
v 1.812124 0.015609 -1.114117
v 1.819490 0.001609 -1.105957
v 1.819490 0.015609 -1.105957
v 1.827556 0.001609 -1.098084
v 1.827556 0.015609 -1.098084
v 1.836202 0.001609 -1.090676
v 1.836202 0.015609 -1.090676
v 1.845307 0.001609 -1.083912
v 1.845307 0.015609 -1.083912
v 1.854869 0.001609 -1.077792
v 1.854869 0.015609 -1.077792
v 1.864890 0.001609 -1.072317
v 1.864890 0.015609 -1.072317
v 1.875368 0.001609 -1.067485
v 1.875368 0.015609 -1.067485
v 1.886305 0.001609 -1.063298
v 1.886305 0.015609 -1.063298
v 1.897700 0.001609 -1.059755
v 1.897700 0.015609 -1.059755
v 1.909552 0.001609 -1.056857
v 1.909552 0.015609 -1.056857
v 1.921863 0.001609 -1.054602
v 1.921863 0.015609 -1.054602
v 1.934632 0.001609 -1.052991
v 1.934632 0.015609 -1.052991
v 1.947859 0.001609 -1.052025
v 1.947859 0.015609 -1.052025
v 1.961545 0.001609 -1.051703
v 1.961545 0.015609 -1.051703
v 1.974539 0.001609 -1.052013
v 1.974539 0.015609 -1.052013
v 1.987068 0.001609 -1.052941
v 1.987068 0.015609 -1.052941
v 1.999132 0.001609 -1.054489
v 1.999132 0.015609 -1.054489
v 2.010731 0.001609 -1.056656
v 2.010731 0.015609 -1.056656
v 2.021864 0.001609 -1.059442
v 2.021864 0.015609 -1.059442
v 2.032533 0.001609 -1.062847
v 2.032533 0.015609 -1.062847
v 2.042736 0.001609 -1.066872
v 2.042736 0.015609 -1.066872
v 2.052474 0.001609 -1.071515
v 2.052474 0.015609 -1.071515
v 2.061746 0.001609 -1.076778
v 2.061746 0.015609 -1.076778
v 2.070553 0.001609 -1.082659
v 2.070553 0.015609 -1.082659
v 2.078895 0.001609 -1.089160
v 2.078895 0.015609 -1.089160
v 2.086772 0.001609 -1.096280
v 2.086772 0.015609 -1.096280
v 2.094098 0.001609 -1.103901
v 2.094098 0.015609 -1.103901
v 2.100787 0.001609 -1.111905
v 2.100787 0.015609 -1.111905
v 2.106838 0.001609 -1.120292
v 2.106838 0.015609 -1.120292
v 2.112253 0.001609 -1.129061
v 2.112253 0.015609 -1.129061
v 2.117031 0.001609 -1.138214
v 2.117031 0.015609 -1.138214
v 2.121171 0.001609 -1.147750
v 2.121171 0.015609 -1.147750
v 2.124675 0.001609 -1.157668
v 2.124675 0.015609 -1.157668
v 2.127542 0.001609 -1.167969
v 2.127542 0.015609 -1.167969
v 2.129771 0.001609 -1.178654
v 2.129771 0.015609 -1.178654
v 2.131364 0.001609 -1.189721
v 2.131364 0.015609 -1.189721
v 2.132319 0.001609 -1.201171
v 2.132319 0.015609 -1.201171
v 2.132638 0.001609 -1.213005
v 2.132638 0.015609 -1.213005
v 2.132496 0.001609 -1.220416
v 2.132496 0.015609 -1.220416
v 2.132072 0.001609 -1.227706
v 2.132072 0.015609 -1.227706
v 2.131365 0.001609 -1.234874
v 2.131365 0.015609 -1.234874
v 2.130376 0.001609 -1.241921
v 2.130376 0.015609 -1.241921
v 2.129103 0.001609 -1.248846
v 2.129103 0.015609 -1.248846
v 2.127548 0.001609 -1.255649
v 2.127548 0.015609 -1.255649
v 2.125711 0.001609 -1.262331
v 2.125711 0.015609 -1.262331
v 2.123590 0.001609 -1.268890
v 2.123590 0.015609 -1.268890
v 2.121187 0.001609 -1.275329
v 2.121187 0.015609 -1.275329
v 2.118501 0.001609 -1.281645
v 2.118501 0.015609 -1.281645
v 2.115533 0.001609 -1.287840
v 2.115533 0.015609 -1.287840
v 2.112282 0.001609 -1.293913
v 2.112282 0.015609 -1.293913
v 2.108805 0.001609 -1.299818
v 2.108805 0.015609 -1.299818
v 2.105160 0.001609 -1.305508
v 2.105160 0.015609 -1.305508
v 2.101347 0.001609 -1.310984
v 2.101347 0.015609 -1.310984
v 2.097365 0.001609 -1.316244
v 2.097365 0.015609 -1.316244
v 2.093216 0.001609 -1.321290
v 2.093216 0.015609 -1.321290
v 2.088898 0.001609 -1.326122
v 2.088898 0.015609 -1.326122
v 2.084412 0.001609 -1.330738
v 2.084412 0.015609 -1.330738
v 2.079758 0.001609 -1.335140
v 2.079758 0.015609 -1.335140
v 2.074935 0.001609 -1.339327
v 2.074935 0.015609 -1.339327
v 2.069945 0.001609 -1.343300
v 2.069945 0.015609 -1.343300
v 2.064786 0.001609 -1.347057
v 2.064786 0.015609 -1.347057
v 2.059459 0.001609 -1.350600
v 2.059459 0.015609 -1.350600
v 2.070797 0.001609 -1.437693
v 2.070797 0.015609 -1.437693
v 2.458848 0.001609 -1.364515
v 2.458848 0.015609 -1.364515
v 2.458848 0.001609 -0.988832
v 2.458848 0.015609 -0.988832
v 2.370209 0.001609 -0.988832
v 2.370209 0.015609 -0.988832
v 2.370209 0.001609 -1.290306
v 2.370209 0.015609 -1.290306
v 2.167165 0.001609 -1.331017
v 2.167165 0.015609 -1.331017
v 2.174738 0.001609 -1.319633
v 2.174738 0.015609 -1.319633
v 2.181652 0.001609 -1.308156
v 2.181652 0.015609 -1.308156
v 2.187908 0.001609 -1.296586
v 2.187908 0.015609 -1.296586
v 2.193505 0.001609 -1.284923
v 2.193505 0.015609 -1.284923
v 2.198444 0.001609 -1.273167
v 2.198444 0.015609 -1.273167
v 2.202724 0.001609 -1.261318
v 2.202724 0.015609 -1.261318
v 2.206346 0.001609 -1.249375
v 2.206346 0.015609 -1.249375
v 2.209309 0.001609 -1.237340
v 2.209309 0.015609 -1.237340
v 2.211613 0.001609 -1.225212
v 2.211613 0.015609 -1.225212
v 2.213260 0.001609 -1.212990
v 2.213260 0.015609 -1.212990
v 2.214247 0.001609 -1.200676
v 2.214247 0.015609 -1.200676
v 2.214577 0.001609 -1.188268
v 2.214577 0.015609 -1.188268
v 2.214101 0.001609 -1.171992
v 2.214101 0.015609 -1.171992
v 2.212673 0.001609 -1.156145
v 2.212673 0.015609 -1.156145
v 2.210293 0.001609 -1.140728
v 2.210293 0.015609 -1.140728
v 2.206961 0.001609 -1.125740
v 2.206961 0.015609 -1.125740
v 2.202677 0.001609 -1.111182
v 2.202677 0.015609 -1.111182
v 2.197442 0.001609 -1.097053
v 2.197442 0.015609 -1.097053
v 2.191254 0.001609 -1.083354
v 2.191254 0.015609 -1.083354
v 2.184114 0.001609 -1.070083
v 2.184114 0.015609 -1.070083
v 2.176023 0.001609 -1.057243
v 2.176023 0.015609 -1.057243
v 2.166979 0.001609 -1.044832
v 2.166979 0.015609 -1.044832
v 2.156984 0.001609 -1.032850
v 2.156984 0.015609 -1.032850
v 2.146036 0.001609 -1.021298
v 2.146036 0.015609 -1.021298
v 2.134341 0.001609 -1.010433
v 2.134341 0.015609 -1.010433
v 2.122102 0.001609 -1.000513
v 2.122102 0.015609 -1.000513
v 2.109318 0.001609 -0.991537
v 2.109318 0.015609 -0.991537
v 2.095991 0.001609 -0.983506
v 2.095991 0.015609 -0.983506
v 2.082120 0.001609 -0.976420
v 2.082120 0.015609 -0.976420
v 2.067705 0.001609 -0.970279
v 2.067705 0.015609 -0.970279
v 2.052745 0.001609 -0.965083
v 2.052745 0.015609 -0.965083
v 2.037242 0.001609 -0.960831
v 2.037242 0.015609 -0.960831
v 2.021195 0.001609 -0.957525
v 2.021195 0.015609 -0.957525
v 2.004604 0.001609 -0.955163
v 2.004604 0.015609 -0.955163
v 1.987469 0.001609 -0.953745
v 1.987469 0.015609 -0.953745
v 1.969790 0.001609 -0.953273
v 1.969790 0.015609 -0.953273
v 1.952891 0.001609 -0.953688
v 1.952891 0.015609 -0.953688
v 1.936379 0.001609 -0.954934
v 1.936379 0.015609 -0.954934
v 1.920253 0.001609 -0.957009
v 1.920253 0.015609 -0.957009
v 1.904514 0.001609 -0.959915
v 1.904514 0.015609 -0.959915
v 1.889161 0.001609 -0.963651
v 1.889161 0.015609 -0.963651
v 1.874194 0.001609 -0.968218
v 1.874194 0.015609 -0.968218
v 1.859614 0.001609 -0.973615
v 1.859614 0.015609 -0.973615
v 1.845421 0.001609 -0.979842
v 1.845421 0.015609 -0.979842
v 1.831614 0.001609 -0.986899
v 1.831614 0.015609 -0.986899
v 1.818194 0.001609 -0.994787
v 1.818194 0.015609 -0.994787
v 1.805160 0.001609 -1.003504
v 1.805160 0.015609 -1.003504
v 1.792513 0.001609 -1.013052
v 1.792513 0.015609 -1.013052
v 1.777861 0.001609 -1.025532
v 1.777861 0.015609 -1.025532
v 1.764484 0.001609 -1.038748
v 1.764484 0.015609 -1.038748
v 1.752381 0.001609 -1.052701
v 1.752381 0.015609 -1.052701
v 1.741552 0.001609 -1.067392
v 1.741552 0.015609 -1.067392
v 1.731996 0.001609 -1.082820
v 1.731996 0.015609 -1.082820
v 1.723715 0.001609 -1.098985
v 1.723715 0.015609 -1.098985
v 1.716708 0.001609 -1.115888
v 1.716708 0.015609 -1.115888
v 1.710975 0.001609 -1.133528
v 1.710975 0.015609 -1.133528
v 1.706516 0.001609 -1.151905
v 1.706516 0.015609 -1.151905
v 1.703330 0.001609 -1.171019
v 1.703330 0.015609 -1.171019
v 1.701419 0.001609 -1.190870
v 1.701419 0.015609 -1.190870
v 1.700782 0.001609 -1.211459
v 1.700782 0.015609 -1.211459
v 1.701183 0.001609 -1.228374
v 1.701183 0.015609 -1.228374
v 1.702386 0.001609 -1.244762
v 1.702386 0.015609 -1.244762
v 1.704390 0.001609 -1.260625
v 1.704390 0.015609 -1.260625
v 1.707196 0.001609 -1.275962
v 1.707196 0.015609 -1.275962
v 1.710803 0.001609 -1.290773
v 1.710803 0.015609 -1.290773
v 1.715212 0.001609 -1.305057
v 1.715212 0.015609 -1.305057
v 1.720423 0.001609 -1.318816
v 1.720423 0.015609 -1.318816
v 1.726435 0.001609 -1.332048
v 1.726435 0.015609 -1.332048
v 1.733249 0.001609 -1.344755
v 1.733249 0.015609 -1.344755
v 1.740864 0.001609 -1.356935
v 1.740864 0.015609 -1.356935
v 1.749282 0.001609 -1.368589
v 1.749282 0.015609 -1.368589
vn -0.0000 1.0000 -0.0000
vn -0.0000 -1.0000 -0.0000
vn -0.7051 -0.0000 -0.7091
vn -0.7492 -0.0000 -0.6624
vn -0.6576 -0.0000 -0.7534
vn -0.6065 -0.0000 -0.7951
vn -0.5524 -0.0000 -0.8336
vn -0.4958 -0.0000 -0.8684
vn -0.4376 -0.0000 -0.8992
vn -0.3787 -0.0000 -0.9255
vn -0.3197 -0.0000 -0.9475
vn -0.2615 -0.0000 -0.9652
vn -0.2047 -0.0000 -0.9788
vn -0.1498 -0.0000 -0.9887
vn 0.6300 -0.0000 -0.7766
vn 0.7913 -0.0000 0.6114
vn 0.1905 -0.0000 0.9817
vn 0.7914 -0.0000 0.6113
vn 0.2328 -0.0000 0.9725
vn 0.2776 -0.0000 0.9607
vn 0.3248 -0.0000 0.9458
vn 0.3743 -0.0000 0.9273
vn 0.4256 -0.0000 0.9049
vn 0.4785 -0.0000 0.8781
vn 0.5322 -0.0000 0.8466
vn 0.5861 -0.0000 0.8102
vn 0.6394 -0.0000 0.7689
vn 0.6910 -0.0000 0.7228
vn 0.6393 -0.0000 0.7689
vn 0.7382 -0.0000 0.6746
vn 0.7791 -0.0000 0.6270
vn 0.8161 -0.0000 0.5779
vn 0.8508 -0.0000 0.5255
vn 0.8827 -0.0000 0.4700
vn 0.9111 -0.0000 0.4121
vn 0.9358 -0.0000 0.3526
vn 0.9564 -0.0000 0.2921
vn 0.9729 -0.0000 0.2314
vn 0.9852 -0.0000 0.1712
vn 0.9937 -0.0000 0.1123
vn 0.9985 -0.0000 0.0552
vn 1.0000 -0.0000 -0.0023
vn 0.9979 -0.0000 -0.0647
vn 0.9913 -0.0000 -0.1316
vn 0.9797 -0.0000 -0.2003
vn 0.9629 -0.0000 -0.2698
vn 0.9408 -0.0000 -0.3390
vn 0.9135 -0.0000 -0.4069
vn 0.8815 -0.0000 -0.4723
vn 0.8453 -0.0000 -0.5342
vn 0.8059 -0.0000 -0.5920
vn 0.7641 -0.0000 -0.6451
vn 0.7208 -0.0000 -0.6932
vn 0.6749 -0.0000 -0.7379
vn 0.6239 -0.0000 -0.7815
vn 0.5680 -0.0000 -0.8230
vn 0.5096 -0.0000 -0.8604
vn 0.4494 -0.0000 -0.8933
vn 0.3883 -0.0000 -0.9215
vn 0.3274 -0.0000 -0.9449
vn 0.2674 -0.0000 -0.9636
vn 0.2089 -0.0000 -0.9779
vn 0.1527 -0.0000 -0.9883
vn 0.0990 -0.0000 -0.9951
vn 0.0482 -0.0000 -0.9988
vn -0.0001 -0.0000 -1.0000
vn -0.0489 -0.0000 -0.9988
vn -0.1006 -0.0000 -0.9949
vn -0.1555 -0.0000 -0.9878
vn -0.2133 -0.0000 -0.9770
vn -0.2736 -0.0000 -0.9619
vn -0.3357 -0.0000 -0.9420
vn -0.3989 -0.0000 -0.9170
vn -0.4623 -0.0000 -0.8867
vn -0.5248 -0.0000 -0.8512
vn -0.5854 -0.0000 -0.8107
vn -0.6431 -0.0000 -0.7658
vn -0.6962 -0.0000 -0.7179
vn -0.7446 -0.0000 -0.6675
vn -0.7896 -0.0000 -0.6136
vn -0.8314 -0.0000 -0.5556
vn -0.8693 -0.0000 -0.4944
vn -0.9024 -0.0000 -0.4308
vn -0.8692 -0.0000 -0.4944
vn -0.9307 -0.0000 -0.3659
vn -0.9537 -0.0000 -0.3008
vn -0.9306 -0.0000 -0.3659
vn -0.9717 -0.0000 -0.2363
vn -0.9848 -0.0000 -0.1734
vn -0.9936 -0.0000 -0.1128
vn -0.9985 -0.0000 -0.0550
vn -1.0000 -0.0000 -0.0039
vn -0.9985 -0.0000 -0.0551
vn -0.9993 -0.0000 0.0386
vn -0.9969 -0.0000 0.0781
vn -0.9929 -0.0000 0.1186
vn -0.9871 -0.0000 0.1599
vn -0.9794 -0.0000 0.2018
vn -0.9698 -0.0000 0.2441
vn -0.9581 -0.0000 0.2865
vn -0.9444 -0.0000 0.3287
vn -0.9288 -0.0000 0.3706
vn -0.9113 -0.0000 0.4118
vn -0.8919 -0.0000 0.4522
vn -0.8718 -0.0000 0.4898
vn -0.8520 -0.0000 0.5235
vn -0.8315 -0.0000 0.5555
vn -0.8092 -0.0000 0.5876
vn -0.7850 -0.0000 0.6194
vn -0.7592 -0.0000 0.6509
vn -0.7316 -0.0000 0.6818
vn -0.7023 -0.0000 0.7119
vn -0.6715 -0.0000 0.7410
vn -0.6393 -0.0000 0.7689
vn -0.6059 -0.0000 0.7955
vn -0.5714 -0.0000 0.8207
vn -0.9101 -0.0000 0.4143
vn -0.5871 -0.0000 -0.8095
vn -0.9101 -0.0000 0.4144
vn 0.7698 -0.0000 -0.6382
vn 0.7071 -0.0000 0.7071
vn -0.7071 -0.0000 0.7071
vn -0.7735 -0.0000 0.6338
vn 0.8305 -0.0000 0.5571
vn 0.8448 -0.0000 -0.5351
vn 0.8304 -0.0000 0.5571
vn 0.8684 -0.0000 -0.4960
vn 0.8909 -0.0000 -0.4543
vn 0.9120 -0.0000 -0.4101
vn 0.9315 -0.0000 -0.3636
vn 0.9491 -0.0000 -0.3151
vn 0.9643 -0.0000 -0.2647
vn 0.9771 -0.0000 -0.2130
vn 0.9871 -0.0000 -0.1601
vn 0.9943 -0.0000 -0.1068
vn 0.9986 -0.0000 -0.0533
vn 1.0000 -0.0000 0.0014
vn 0.9982 -0.0000 0.0595
vn 0.9926 -0.0000 0.1212
vn 0.9828 -0.0000 0.1849
vn 0.9683 -0.0000 0.2498
vn 0.9491 -0.0000 0.3151
vn 0.9251 -0.0000 0.3798
vn 0.8965 -0.0000 0.4430
vn 0.8638 -0.0000 0.5038
vn 0.8276 -0.0000 0.5613
vn 0.7885 -0.0000 0.6151
vn 0.7472 -0.0000 0.6646
vn 0.7036 -0.0000 0.7106
vn 0.6555 -0.0000 0.7552
vn 0.6025 -0.0000 0.7981
vn 0.5457 -0.0000 0.8380
vn 0.4858 -0.0000 0.8741
vn 0.4237 -0.0000 0.9058
vn 0.3602 -0.0000 0.9329
vn 0.2965 -0.0000 0.9550
vn 0.2333 -0.0000 0.9724
vn 0.1715 -0.0000 0.9852
vn 0.1117 -0.0000 0.9937
vn 0.0546 -0.0000 0.9985
vn 0.0011 -0.0000 1.0000
vn -0.0499 -0.0000 0.9988
vn -0.1015 -0.0000 0.9948
vn -0.1547 -0.0000 0.9880
vn -0.2091 -0.0000 0.9779
vn -0.2643 -0.0000 0.9645
vn -0.3196 -0.0000 0.9475
vn -0.3746 -0.0000 0.9272
vn -0.4286 -0.0000 0.9035
vn -0.4811 -0.0000 0.8767
vn -0.5316 -0.0000 0.8470
vn -0.5795 -0.0000 0.8150
vn -0.6257 -0.0000 0.7800
vn -0.6761 -0.0000 0.7368
vn -0.7297 -0.0000 0.6838
vn -0.7808 -0.0000 0.6248
vn -0.8282 -0.0000 0.5604
vn -0.8708 -0.0000 0.4916
vn -0.9076 -0.0000 0.4198
vn -0.9381 -0.0000 0.3463
vn -0.9621 -0.0000 0.2727
vn -0.9798 -0.0000 0.2002
vn -0.9915 -0.0000 0.1302
vn -0.9980 -0.0000 0.0634
vn -1.0000 -0.0000 0.0036
vn -0.9988 -0.0000 -0.0484
vn -0.9951 -0.0000 -0.0993
vn -0.9883 -0.0000 -0.1527
vn -0.9780 -0.0000 -0.2084
vn -0.9640 -0.0000 -0.2659
vn -0.9458 -0.0000 -0.3247
vn -0.9233 -0.0000 -0.3841
vn -0.8963 -0.0000 -0.4434
vn -0.8651 -0.0000 -0.5016
vn -0.8297 -0.0000 -0.5581
vn -0.7908 -0.0000 -0.6121
vn -0.8298 -0.0000 -0.5581
vt 0.591398 0.000000
vt 0.612903 0.000000
vt 0.596774 0.000000
vt 0.602151 0.000000
vt 0.607527 0.000000
vt 0.618280 0.000000
vt 0.677419 0.000000
vt 0.688172 0.000000
vt 0.682796 0.000000
vt 0.672043 0.000000
vt 0.693548 0.000000
vt 0.666667 0.000000
vt 0.698925 0.000000
vt 0.661290 0.000000
vt 0.704301 0.000000
vt 0.655914 0.000000
vt 0.709677 0.000000
vt 0.650538 0.000000
vt 0.645161 0.000000
vt 0.715054 0.000000
vt 0.639785 0.000000
vt 0.720430 0.000000
vt 0.634409 0.000000
vt 0.725806 0.000000
vt 0.629032 0.000000
vt 0.731183 0.000000
vt 0.623656 0.000000
vt 0.736559 0.000000
vt 0.494624 0.000000
vt 0.489247 0.000000
vt 0.483871 0.000000
vt 0.478495 0.000000
vt 0.473118 0.000000
vt 0.741935 0.000000
vt 0.467742 0.000000
vt 0.747312 0.000000
vt 0.462366 0.000000
vt 0.456989 0.000000
vt 0.752688 0.000000
vt 0.451613 0.000000
vt 0.758065 0.000000
vt 0.446237 0.000000
vt 0.440860 0.000000
vt 0.435484 0.000000
vt 0.430108 0.000000
vt 0.500000 0.000000
vt 0.424731 0.000000
vt 0.505376 0.000000
vt 0.763441 0.000000
vt 0.510753 0.000000
vt 0.419355 0.000000
vt 0.516129 0.000000
vt 0.413978 0.000000
vt 0.521505 0.000000
vt 0.526882 0.000000
vt 0.408602 0.000000
vt 0.768817 0.000000
vt 0.532258 0.000000
vt 0.403226 0.000000
vt 0.537634 0.000000
vt 0.543011 0.000000
vt 0.397849 0.000000
vt 0.548387 0.000000
vt 0.774194 0.000000
vt 0.392473 0.000000
vt 0.553763 0.000000
vt 0.559140 0.000000
vt 0.387097 0.000000
vt 0.564516 0.000000
vt 0.779570 0.000000
vt 0.569892 0.000000
vt 0.381720 0.000000
vt 0.575269 0.000000
vt 0.586021 0.000000
vt 0.580645 0.000000
vt 0.376344 0.000000
vt 0.784946 0.000000
vt 0.370968 0.000000
vt 0.790323 0.000000
vt 0.365591 0.000000
vt 0.360215 0.000000
vt 0.795699 0.000000
vt 0.354839 0.000000
vt 0.349462 0.000000
vt 0.801075 0.000000
vt 0.344086 0.000000
vt 0.806452 0.000000
vt 0.338710 0.000000
vt 0.811828 0.000000
vt 0.333333 0.000000
vt 0.327957 0.000000
vt 0.817204 0.000000
vt 0.322581 0.000000
vt 0.822581 0.000000
vt 0.317204 0.000000
vt 0.827957 0.000000
vt 0.311828 0.000000
vt 0.306452 0.000000
vt 0.833333 0.000000
vt 0.064516 0.000000
vt 0.075269 0.000000
vt 0.069892 0.000000
vt 0.059140 0.000000
vt 0.301075 0.000000
vt 0.080645 0.000000
vt 0.838710 0.000000
vt 0.295699 0.000000
vt 0.086022 0.000000
vt 0.053763 0.000000
vt 0.844086 0.000000
vt 0.091398 0.000000
vt 0.290323 0.000000
vt 0.048387 0.000000
vt 0.096774 0.000000
vt 0.284946 0.000000
vt 0.849462 0.000000
vt 0.102151 0.000000
vt 0.043011 0.000000
vt 0.279570 0.000000
vt 0.854839 0.000000
vt 0.107527 0.000000
vt 0.274194 0.000000
vt 0.037634 0.000000
vt 0.112903 0.000000
vt 0.860215 0.000000
vt 0.268817 0.000000
vt 0.118280 0.000000
vt 0.032258 0.000000
vt 0.263441 0.000000
vt 0.123656 0.000000
vt 0.865591 0.000000
vt 0.258065 0.000000
vt 0.129032 0.000000
vt 0.026882 0.000000
vt 0.252688 0.000000
vt 0.134409 0.000000
vt 0.870968 0.000000
vt 0.021505 0.000000
vt 0.139785 0.000000
vt 0.247312 0.000000
vt 0.145161 0.000000
vt 0.241935 0.000000
vt 0.876344 0.000000
vt 0.150538 0.000000
vt 0.016129 0.000000
vt 0.236559 0.000000
vt 0.155914 0.000000
vt 0.231183 0.000000
vt 0.161290 0.000000
vt 0.881720 0.000000
vt 0.010753 0.000000
vt 0.225806 0.000000
vt 0.166667 0.000000
vt 0.172043 0.000000
vt 0.220430 0.000000
vt 0.177419 0.000000
vt 0.215054 0.000000
vt 0.182796 0.000000
vt 0.209677 0.000000
vt 0.188172 0.000000
vt 0.005376 0.000000
vt 0.204301 0.000000
vt 0.193548 0.000000
vt 0.887097 0.000000
vt 0.198925 0.000000
vt 0.000000 0.000000
vt 0.892473 0.000000
vt 1.000000 0.000000
vt 0.897849 0.000000
vt 0.994624 0.000000
vt 0.903226 0.000000
vt 0.989247 0.000000
vt 0.983871 0.000000
vt 0.908602 0.000000
vt 0.978495 0.000000
vt 0.913979 0.000000
vt 0.973118 0.000000
vt 0.919355 0.000000
vt 0.967742 0.000000
vt 0.924731 0.000000
vt 0.962366 0.000000
vt 0.956989 0.000000
vt 0.930108 0.000000
vt 0.951613 0.000000
vt 0.935484 0.000000
vt 0.946237 0.000000
vt 0.940860 0.000000
vt 0.005348 1.000000
vt 0.000000 1.000000
vt 0.010695 1.000000
vt 0.005348 0.000000
vt 0.016043 1.000000
vt 0.010695 0.000000
vt 0.021390 1.000000
vt 0.016043 0.000000
vt 0.026738 1.000000
vt 0.021390 0.000000
vt 0.032086 1.000000
vt 0.026738 0.000000
vt 0.037433 1.000000
vt 0.032086 0.000000
vt 0.042781 1.000000
vt 0.037433 0.000000
vt 0.048128 1.000000
vt 0.042781 0.000000
vt 0.053476 1.000000
vt 0.048128 0.000000
vt 0.058824 1.000000
vt 0.053476 0.000000
vt 0.064171 1.000000
vt 0.058824 0.000000
vt 0.069519 1.000000
vt 0.064171 0.000000
vt 0.074866 1.000000
vt 0.069519 0.000000
vt 0.080214 1.000000
vt 0.074866 0.000000
vt 0.085561 1.000000
vt 0.080214 0.000000
vt 0.090909 1.000000
vt 0.085561 0.000000
vt 0.096257 1.000000
vt 0.090909 0.000000
vt 0.101604 1.000000
vt 0.096257 0.000000
vt 0.106952 1.000000
vt 0.101604 0.000000
vt 0.112299 1.000000
vt 0.106952 0.000000
vt 0.117647 1.000000
vt 0.112299 0.000000
vt 0.122995 1.000000
vt 0.117647 0.000000
vt 0.128342 1.000000
vt 0.122995 0.000000
vt 0.133690 1.000000
vt 0.128342 0.000000
vt 0.139037 1.000000
vt 0.133690 0.000000
vt 0.144385 1.000000
vt 0.139037 0.000000
vt 0.149733 1.000000
vt 0.144385 0.000000
vt 0.155080 1.000000
vt 0.149733 0.000000
vt 0.160428 1.000000
vt 0.155080 0.000000
vt 0.165775 1.000000
vt 0.160428 0.000000
vt 0.171123 1.000000
vt 0.165775 0.000000
vt 0.176471 1.000000
vt 0.171123 0.000000
vt 0.181818 1.000000
vt 0.176471 0.000000
vt 0.187166 1.000000
vt 0.181818 0.000000
vt 0.192513 1.000000
vt 0.187166 0.000000
vt 0.197861 1.000000
vt 0.192513 0.000000
vt 0.203209 1.000000
vt 0.197861 0.000000
vt 0.208556 1.000000
vt 0.203209 0.000000
vt 0.213904 1.000000
vt 0.208556 0.000000
vt 0.219251 1.000000
vt 0.213904 0.000000
vt 0.224599 1.000000
vt 0.219251 0.000000
vt 0.229947 1.000000
vt 0.224599 0.000000
vt 0.235294 1.000000
vt 0.229947 0.000000
vt 0.240642 1.000000
vt 0.235294 0.000000
vt 0.245989 1.000000
vt 0.240642 0.000000
vt 0.251337 1.000000
vt 0.245989 0.000000
vt 0.256684 1.000000
vt 0.251337 0.000000
vt 0.262032 1.000000
vt 0.256684 0.000000
vt 0.267380 1.000000
vt 0.262032 0.000000
vt 0.272727 1.000000
vt 0.267380 0.000000
vt 0.278075 1.000000
vt 0.272727 0.000000
vt 0.283422 1.000000
vt 0.278075 0.000000
vt 0.288770 1.000000
vt 0.283422 0.000000
vt 0.294118 1.000000
vt 0.288770 0.000000
vt 0.299465 1.000000
vt 0.294118 0.000000
vt 0.304813 1.000000
vt 0.299465 0.000000
vt 0.310160 1.000000
vt 0.304813 0.000000
vt 0.315508 1.000000
vt 0.310160 0.000000
vt 0.320856 1.000000
vt 0.315508 0.000000
vt 0.326203 1.000000
vt 0.320856 0.000000
vt 0.331551 1.000000
vt 0.326203 0.000000
vt 0.336898 1.000000
vt 0.331551 0.000000
vt 0.342246 1.000000
vt 0.336898 0.000000
vt 0.347594 1.000000
vt 0.342246 0.000000
vt 0.352941 1.000000
vt 0.347594 0.000000
vt 0.358289 1.000000
vt 0.352941 0.000000
vt 0.363636 1.000000
vt 0.358289 0.000000
vt 0.368984 1.000000
vt 0.363636 0.000000
vt 0.374332 1.000000
vt 0.368984 0.000000
vt 0.379679 1.000000
vt 0.374332 0.000000
vt 0.385027 1.000000
vt 0.379679 0.000000
vt 0.390374 1.000000
vt 0.385027 0.000000
vt 0.395722 1.000000
vt 0.390374 0.000000
vt 0.401070 1.000000
vt 0.395722 0.000000
vt 0.406417 1.000000
vt 0.401070 0.000000
vt 0.411765 1.000000
vt 0.406417 0.000000
vt 0.417112 1.000000
vt 0.411765 0.000000
vt 0.422460 1.000000
vt 0.417112 0.000000
vt 0.427807 1.000000
vt 0.422460 0.000000
vt 0.433155 1.000000
vt 0.427807 0.000000
vt 0.438503 1.000000
vt 0.433155 0.000000
vt 0.443850 1.000000
vt 0.438503 0.000000
vt 0.449198 1.000000
vt 0.443850 0.000000
vt 0.454545 1.000000
vt 0.449198 0.000000
vt 0.459893 1.000000
vt 0.454545 0.000000
vt 0.465241 1.000000
vt 0.459893 0.000000
vt 0.470588 1.000000
vt 0.465241 0.000000
vt 0.475936 1.000000
vt 0.470588 0.000000
vt 0.481283 1.000000
vt 0.475936 0.000000
vt 0.486631 1.000000
vt 0.481283 0.000000
vt 0.491979 1.000000
vt 0.486631 0.000000
vt 0.497326 1.000000
vt 0.491979 0.000000
vt 0.502674 1.000000
vt 0.497326 0.000000
vt 0.508021 1.000000
vt 0.502674 0.000000
vt 0.513369 1.000000
vt 0.508021 0.000000
vt 0.518717 1.000000
vt 0.513369 0.000000
vt 0.524064 1.000000
vt 0.518717 0.000000
vt 0.529412 1.000000
vt 0.524064 0.000000
vt 0.534759 1.000000
vt 0.529412 0.000000
vt 0.540107 1.000000
vt 0.534759 0.000000
vt 0.545455 1.000000
vt 0.540107 0.000000
vt 0.550802 1.000000
vt 0.545455 0.000000
vt 0.556150 1.000000
vt 0.550802 0.000000
vt 0.561497 1.000000
vt 0.556150 0.000000
vt 0.566845 1.000000
vt 0.561497 0.000000
vt 0.572192 1.000000
vt 0.566845 0.000000
vt 0.577540 1.000000
vt 0.572192 0.000000
vt 0.582888 1.000000
vt 0.577540 0.000000
vt 0.588235 1.000000
vt 0.582888 0.000000
vt 0.593583 1.000000
vt 0.588235 0.000000
vt 0.598930 1.000000
vt 0.593583 0.000000
vt 0.604278 1.000000
vt 0.598930 0.000000
vt 0.609626 1.000000
vt 0.604278 0.000000
vt 0.614973 1.000000
vt 0.609626 0.000000
vt 0.620321 1.000000
vt 0.614973 0.000000
vt 0.625668 1.000000
vt 0.620321 0.000000
vt 0.631016 1.000000
vt 0.625668 0.000000
vt 0.636364 1.000000
vt 0.631016 0.000000
vt 0.641711 1.000000
vt 0.636364 0.000000
vt 0.647059 1.000000
vt 0.641711 0.000000
vt 0.652406 1.000000
vt 0.647059 0.000000
vt 0.657754 1.000000
vt 0.652406 0.000000
vt 0.663102 1.000000
vt 0.657754 0.000000
vt 0.668449 1.000000
vt 0.663102 0.000000
vt 0.673797 1.000000
vt 0.668449 0.000000
vt 0.679144 1.000000
vt 0.673797 0.000000
vt 0.684492 1.000000
vt 0.679144 0.000000
vt 0.689840 1.000000
vt 0.684492 0.000000
vt 0.695187 1.000000
vt 0.689840 0.000000
vt 0.700535 1.000000
vt 0.695187 0.000000
vt 0.705882 1.000000
vt 0.700535 0.000000
vt 0.711230 1.000000
vt 0.705882 0.000000
vt 0.716578 1.000000
vt 0.711230 0.000000
vt 0.721925 1.000000
vt 0.716578 0.000000
vt 0.727273 1.000000
vt 0.721925 0.000000
vt 0.732620 1.000000
vt 0.727273 0.000000
vt 0.737968 1.000000
vt 0.732620 0.000000
vt 0.743316 1.000000
vt 0.737968 0.000000
vt 0.748663 1.000000
vt 0.743316 0.000000
vt 0.754011 1.000000
vt 0.748663 0.000000
vt 0.759358 1.000000
vt 0.754011 0.000000
vt 0.764706 1.000000
vt 0.759358 0.000000
vt 0.770053 1.000000
vt 0.764706 0.000000
vt 0.775401 1.000000
vt 0.770053 0.000000
vt 0.780749 1.000000
vt 0.775401 0.000000
vt 0.786096 1.000000
vt 0.780749 0.000000
vt 0.791444 1.000000
vt 0.786096 0.000000
vt 0.796791 1.000000
vt 0.791444 0.000000
vt 0.802139 1.000000
vt 0.796791 0.000000
vt 0.807487 1.000000
vt 0.802139 0.000000
vt 0.812834 1.000000
vt 0.807487 0.000000
vt 0.818182 1.000000
vt 0.812834 0.000000
vt 0.823529 1.000000
vt 0.818182 0.000000
vt 0.828877 1.000000
vt 0.823529 0.000000
vt 0.834225 1.000000
vt 0.828877 0.000000
vt 0.839572 1.000000
vt 0.834225 0.000000
vt 0.844920 1.000000
vt 0.839572 0.000000
vt 0.850267 1.000000
vt 0.844920 0.000000
vt 0.855615 1.000000
vt 0.850267 0.000000
vt 0.860963 1.000000
vt 0.855615 0.000000
vt 0.866310 1.000000
vt 0.860963 0.000000
vt 0.871658 1.000000
vt 0.866310 0.000000
vt 0.877005 1.000000
vt 0.871658 0.000000
vt 0.882353 1.000000
vt 0.877005 0.000000
vt 0.887701 1.000000
vt 0.882353 0.000000
vt 0.893048 1.000000
vt 0.887701 0.000000
vt 0.898396 1.000000
vt 0.893048 0.000000
vt 0.903743 1.000000
vt 0.898396 0.000000
vt 0.909091 1.000000
vt 0.903743 0.000000
vt 0.914438 1.000000
vt 0.909091 0.000000
vt 0.919786 1.000000
vt 0.914438 0.000000
vt 0.925134 1.000000
vt 0.919786 0.000000
vt 0.930481 1.000000
vt 0.925134 0.000000
vt 0.935829 1.000000
vt 0.930481 0.000000
vt 0.941176 1.000000
vt 0.935829 0.000000
vt 0.946524 1.000000
vt 0.941176 0.000000
vt 0.951872 1.000000
vt 0.946524 0.000000
vt 0.957219 1.000000
vt 0.951872 0.000000
vt 0.962567 1.000000
vt 0.957219 0.000000
vt 0.967914 1.000000
vt 0.962567 0.000000
vt 0.973262 1.000000
vt 0.967914 0.000000
vt 0.978610 1.000000
vt 0.973262 0.000000
vt 0.983957 1.000000
vt 0.978610 0.000000
vt 0.989305 1.000000
vt 0.983957 0.000000
vt 0.994652 1.000000
vt 0.989305 0.000000
vt 1.000000 1.000000
vt 0.994652 0.000000
s 0
f 111/1/1 115/2/1 112/3/1
f 115/2/1 113/4/1 112/3/1
f 115/2/1 114/5/1 113/4/1
f 111/1/1 116/6/1 115/2/1
f 127/7/1 129/8/1 128/9/1
f 126/10/1 129/8/1 127/7/1
f 126/10/1 130/11/1 129/8/1
f 125/12/1 130/11/1 126/10/1
f 125/12/1 131/13/1 130/11/1
f 124/14/1 131/13/1 125/12/1
f 124/14/1 132/15/1 131/13/1
f 123/16/1 132/15/1 124/14/1
f 123/16/1 133/17/1 132/15/1
f 122/18/1 133/17/1 123/16/1
f 121/19/1 133/17/1 122/18/1
f 121/19/1 134/20/1 133/17/1
f 120/21/1 134/20/1 121/19/1
f 120/21/1 135/22/1 134/20/1
f 119/23/1 135/22/1 120/21/1
f 119/23/1 136/24/1 135/22/1
f 118/25/1 136/24/1 119/23/1
f 118/25/1 137/26/1 136/24/1
f 117/27/1 137/26/1 118/25/1
f 117/27/1 138/28/1 137/26/1
f 116/6/1 138/28/1 117/27/1
f 111/1/1 93/29/1 116/6/1
f 93/29/1 92/30/1 116/6/1
f 92/30/1 91/31/1 116/6/1
f 91/31/1 138/28/1 116/6/1
f 91/31/1 90/32/1 138/28/1
f 90/32/1 89/33/1 138/28/1
f 89/33/1 139/34/1 138/28/1
f 89/33/1 88/35/1 139/34/1
f 88/35/1 140/36/1 139/34/1
f 88/35/1 87/37/1 140/36/1
f 87/37/1 86/38/1 140/36/1
f 86/38/1 141/39/1 140/36/1
f 86/38/1 85/40/1 141/39/1
f 85/40/1 142/41/1 141/39/1
f 84/42/1 142/41/1 85/40/1
f 83/43/1 142/41/1 84/42/1
f 82/44/1 142/41/1 83/43/1
f 81/45/1 142/41/1 82/44/1
f 111/1/1 94/46/1 93/29/1
f 80/47/1 142/41/1 81/45/1
f 111/1/1 95/48/1 94/46/1
f 80/47/1 143/49/1 142/41/1
f 111/1/1 96/50/1 95/48/1
f 79/51/1 143/49/1 80/47/1
f 111/1/1 97/52/1 96/50/1
f 78/53/1 143/49/1 79/51/1
f 111/1/1 98/54/1 97/52/1
f 111/1/1 99/55/1 98/54/1
f 77/56/1 143/49/1 78/53/1
f 77/56/1 144/57/1 143/49/1
f 111/1/1 100/58/1 99/55/1
f 76/59/1 144/57/1 77/56/1
f 111/1/1 101/60/1 100/58/1
f 111/1/1 102/61/1 101/60/1
f 75/62/1 144/57/1 76/59/1
f 111/1/1 103/63/1 102/61/1
f 75/62/1 145/64/1 144/57/1
f 74/65/1 145/64/1 75/62/1
f 111/1/1 104/66/1 103/63/1
f 111/1/1 105/67/1 104/66/1
f 73/68/1 145/64/1 74/65/1
f 111/1/1 106/69/1 105/67/1
f 73/68/1 146/70/1 145/64/1
f 111/1/1 107/71/1 106/69/1
f 72/72/1 146/70/1 73/68/1
f 111/1/1 108/73/1 107/71/1
f 110/74/1 109/75/1 111/1/1
f 109/75/1 108/73/1 111/1/1
f 71/76/1 146/70/1 72/72/1
f 71/76/1 147/77/1 146/70/1
f 70/78/1 147/77/1 71/76/1
f 70/78/1 148/79/1 147/77/1
f 69/80/1 148/79/1 70/78/1
f 68/81/1 148/79/1 69/80/1
f 68/81/1 149/82/1 148/79/1
f 67/83/1 149/82/1 68/81/1
f 66/84/1 149/82/1 67/83/1
f 66/84/1 150/85/1 149/82/1
f 65/86/1 150/85/1 66/84/1
f 65/86/1 151/87/1 150/85/1
f 64/88/1 151/87/1 65/86/1
f 64/88/1 152/89/1 151/87/1
f 63/90/1 152/89/1 64/88/1
f 62/91/1 152/89/1 63/90/1
f 62/91/1 153/92/1 152/89/1
f 61/93/1 153/92/1 62/91/1
f 61/93/1 154/94/1 153/92/1
f 60/95/1 154/94/1 61/93/1
f 60/95/1 155/96/1 154/94/1
f 59/97/1 155/96/1 60/95/1
f 58/98/1 155/96/1 59/97/1
f 58/98/1 156/99/1 155/96/1
f 13/100/1 15/101/1 14/102/1
f 12/103/1 15/101/1 13/100/1
f 57/104/1 156/99/1 58/98/1
f 12/103/1 16/105/1 15/101/1
f 57/104/1 157/106/1 156/99/1
f 56/107/1 157/106/1 57/104/1
f 12/103/1 17/108/1 16/105/1
f 11/109/1 17/108/1 12/103/1
f 56/107/1 158/110/1 157/106/1
f 11/109/1 18/111/1 17/108/1
f 55/112/1 158/110/1 56/107/1
f 10/113/1 18/111/1 11/109/1
f 10/113/1 19/114/1 18/111/1
f 54/115/1 158/110/1 55/112/1
f 54/115/1 159/116/1 158/110/1
f 10/113/1 20/117/1 19/114/1
f 9/118/1 20/117/1 10/113/1
f 53/119/1 159/116/1 54/115/1
f 53/119/1 160/120/1 159/116/1
f 9/118/1 21/121/1 20/117/1
f 52/122/1 160/120/1 53/119/1
f 8/123/1 21/121/1 9/118/1
f 8/123/1 22/124/1 21/121/1
f 52/122/1 161/125/1 160/120/1
f 51/126/1 161/125/1 52/122/1
f 8/123/1 23/127/1 22/124/1
f 7/128/1 23/127/1 8/123/1
f 50/129/1 161/125/1 51/126/1
f 7/128/1 24/130/1 23/127/1
f 50/129/1 162/131/1 161/125/1
f 49/132/1 162/131/1 50/129/1
f 7/128/1 25/133/1 24/130/1
f 6/134/1 25/133/1 7/128/1
f 48/135/1 162/131/1 49/132/1
f 6/134/1 26/136/1 25/133/1
f 48/135/1 163/137/1 162/131/1
f 5/138/1 26/136/1 6/134/1
f 5/138/1 27/139/1 26/136/1
f 47/140/1 163/137/1 48/135/1
f 5/138/1 28/141/1 27/139/1
f 46/142/1 163/137/1 47/140/1
f 46/142/1 164/143/1 163/137/1
f 5/138/1 29/144/1 28/141/1
f 4/145/1 29/144/1 5/138/1
f 45/146/1 164/143/1 46/142/1
f 4/145/1 30/147/1 29/144/1
f 44/148/1 164/143/1 45/146/1
f 4/145/1 31/149/1 30/147/1
f 44/148/1 165/150/1 164/143/1
f 3/151/1 31/149/1 4/145/1
f 43/152/1 165/150/1 44/148/1
f 3/151/1 32/153/1 31/149/1
f 3/151/1 33/154/1 32/153/1
f 42/155/1 165/150/1 43/152/1
f 3/151/1 34/156/1 33/154/1
f 41/157/1 165/150/1 42/155/1
f 3/151/1 35/158/1 34/156/1
f 40/159/1 165/150/1 41/157/1
f 3/151/1 36/160/1 35/158/1
f 2/161/1 36/160/1 3/151/1
f 39/162/1 165/150/1 40/159/1
f 2/161/1 37/163/1 36/160/1
f 39/162/1 166/164/1 165/150/1
f 38/165/1 166/164/1 39/162/1
f 2/161/1 38/165/1 37/163/1
f 2/161/1 166/164/1 38/165/1
f 1/166/1 166/164/1 2/161/1
f 1/166/1 167/167/1 166/164/1
f 187/168/1 167/167/1 1/166/1
f 187/168/1 168/169/1 167/167/1
f 186/170/1 168/169/1 187/168/1
f 186/170/1 169/171/1 168/169/1
f 185/172/1 169/171/1 186/170/1
f 184/173/1 169/171/1 185/172/1
f 184/173/1 170/174/1 169/171/1
f 183/175/1 170/174/1 184/173/1
f 183/175/1 171/176/1 170/174/1
f 182/177/1 171/176/1 183/175/1
f 182/177/1 172/178/1 171/176/1
f 181/179/1 172/178/1 182/177/1
f 181/179/1 173/180/1 172/178/1
f 180/181/1 173/180/1 181/179/1
f 179/182/1 173/180/1 180/181/1
f 179/182/1 174/183/1 173/180/1
f 178/184/1 174/183/1 179/182/1
f 178/184/1 175/185/1 174/183/1
f 177/186/1 175/185/1 178/184/1
f 177/186/1 176/187/1 175/185/1
f 298/1/2 299/3/2 302/2/2
f 302/2/2 299/3/2 300/4/2
f 302/2/2 300/4/2 301/5/2
f 298/1/2 302/2/2 303/6/2
f 314/7/2 315/9/2 316/8/2
f 313/10/2 314/7/2 316/8/2
f 313/10/2 316/8/2 317/11/2
f 312/12/2 313/10/2 317/11/2
f 312/12/2 317/11/2 318/13/2
f 311/14/2 312/12/2 318/13/2
f 311/14/2 318/13/2 319/15/2
f 310/16/2 311/14/2 319/15/2
f 310/16/2 319/15/2 320/17/2
f 309/18/2 310/16/2 320/17/2
f 308/19/2 309/18/2 320/17/2
f 308/19/2 320/17/2 321/20/2
f 307/21/2 308/19/2 321/20/2
f 307/21/2 321/20/2 322/22/2
f 306/23/2 307/21/2 322/22/2
f 306/23/2 322/22/2 323/24/2
f 305/25/2 306/23/2 323/24/2
f 305/25/2 323/24/2 324/26/2
f 304/27/2 305/25/2 324/26/2
f 304/27/2 324/26/2 325/28/2
f 303/6/2 304/27/2 325/28/2
f 298/1/2 303/6/2 280/29/2
f 280/29/2 303/6/2 279/30/2
f 279/30/2 303/6/2 278/31/2
f 278/31/2 303/6/2 325/28/2
f 278/31/2 325/28/2 277/32/2
f 277/32/2 325/28/2 276/33/2
f 276/33/2 325/28/2 326/34/2
f 276/33/2 326/34/2 275/35/2
f 275/35/2 326/34/2 327/36/2
f 275/35/2 327/36/2 274/37/2
f 274/37/2 327/36/2 273/38/2
f 273/38/2 327/36/2 328/39/2
f 273/38/2 328/39/2 272/40/2
f 272/40/2 328/39/2 329/41/2
f 271/42/2 272/40/2 329/41/2
f 270/43/2 271/42/2 329/41/2
f 269/44/2 270/43/2 329/41/2
f 268/45/2 269/44/2 329/41/2
f 298/1/2 280/29/2 281/46/2
f 267/47/2 268/45/2 329/41/2
f 298/1/2 281/46/2 282/48/2
f 267/47/2 329/41/2 330/49/2
f 298/1/2 282/48/2 283/50/2
f 266/51/2 267/47/2 330/49/2
f 298/1/2 283/50/2 284/52/2
f 265/53/2 266/51/2 330/49/2
f 298/1/2 284/52/2 285/54/2
f 298/1/2 285/54/2 286/55/2
f 264/56/2 265/53/2 330/49/2
f 264/56/2 330/49/2 331/57/2
f 298/1/2 286/55/2 287/58/2
f 263/59/2 264/56/2 331/57/2
f 298/1/2 287/58/2 288/60/2
f 298/1/2 288/60/2 289/61/2
f 262/62/2 263/59/2 331/57/2
f 298/1/2 289/61/2 290/63/2
f 262/62/2 331/57/2 332/64/2
f 261/65/2 262/62/2 332/64/2
f 298/1/2 290/63/2 291/66/2
f 298/1/2 291/66/2 292/67/2
f 260/68/2 261/65/2 332/64/2
f 298/1/2 292/67/2 293/69/2
f 260/68/2 332/64/2 333/70/2
f 298/1/2 293/69/2 294/71/2
f 259/72/2 260/68/2 333/70/2
f 298/1/2 294/71/2 295/73/2
f 297/74/2 298/1/2 296/75/2
f 296/75/2 298/1/2 295/73/2
f 258/76/2 259/72/2 333/70/2
f 258/76/2 333/70/2 334/77/2
f 257/78/2 258/76/2 334/77/2
f 257/78/2 334/77/2 335/79/2
f 256/80/2 257/78/2 335/79/2
f 255/81/2 256/80/2 335/79/2
f 255/81/2 335/79/2 336/82/2
f 254/83/2 255/81/2 336/82/2
f 253/84/2 254/83/2 336/82/2
f 253/84/2 336/82/2 337/85/2
f 252/86/2 253/84/2 337/85/2
f 252/86/2 337/85/2 338/87/2
f 251/88/2 252/86/2 338/87/2
f 251/88/2 338/87/2 339/89/2
f 250/90/2 251/88/2 339/89/2
f 249/91/2 250/90/2 339/89/2
f 249/91/2 339/89/2 340/92/2
f 248/93/2 249/91/2 340/92/2
f 248/93/2 340/92/2 341/94/2
f 247/95/2 248/93/2 341/94/2
f 247/95/2 341/94/2 342/96/2
f 246/97/2 247/95/2 342/96/2
f 245/98/2 246/97/2 342/96/2
f 245/98/2 342/96/2 343/99/2
f 200/100/2 201/102/2 202/101/2
f 199/103/2 200/100/2 202/101/2
f 244/104/2 245/98/2 343/99/2
f 199/103/2 202/101/2 203/105/2
f 244/104/2 343/99/2 344/106/2
f 243/107/2 244/104/2 344/106/2
f 199/103/2 203/105/2 204/108/2
f 198/109/2 199/103/2 204/108/2
f 243/107/2 344/106/2 345/110/2
f 198/109/2 204/108/2 205/111/2
f 242/112/2 243/107/2 345/110/2
f 197/113/2 198/109/2 205/111/2
f 197/113/2 205/111/2 206/114/2
f 241/115/2 242/112/2 345/110/2
f 241/115/2 345/110/2 346/116/2
f 197/113/2 206/114/2 207/117/2
f 196/118/2 197/113/2 207/117/2
f 240/119/2 241/115/2 346/116/2
f 240/119/2 346/116/2 347/120/2
f 196/118/2 207/117/2 208/121/2
f 239/122/2 240/119/2 347/120/2
f 195/123/2 196/118/2 208/121/2
f 195/123/2 208/121/2 209/124/2
f 239/122/2 347/120/2 348/125/2
f 238/126/2 239/122/2 348/125/2
f 195/123/2 209/124/2 210/127/2
f 194/128/2 195/123/2 210/127/2
f 237/129/2 238/126/2 348/125/2
f 194/128/2 210/127/2 211/130/2
f 237/129/2 348/125/2 349/131/2
f 236/132/2 237/129/2 349/131/2
f 194/128/2 211/130/2 212/133/2
f 193/134/2 194/128/2 212/133/2
f 235/135/2 236/132/2 349/131/2
f 193/134/2 212/133/2 213/136/2
f 235/135/2 349/131/2 350/137/2
f 192/138/2 193/134/2 213/136/2
f 192/138/2 213/136/2 214/139/2
f 234/140/2 235/135/2 350/137/2
f 192/138/2 214/139/2 215/141/2
f 233/142/2 234/140/2 350/137/2
f 233/142/2 350/137/2 351/143/2
f 192/138/2 215/141/2 216/144/2
f 191/145/2 192/138/2 216/144/2
f 232/146/2 233/142/2 351/143/2
f 191/145/2 216/144/2 217/147/2
f 231/148/2 232/146/2 351/143/2
f 191/145/2 217/147/2 218/149/2
f 231/148/2 351/143/2 352/150/2
f 190/151/2 191/145/2 218/149/2
f 230/152/2 231/148/2 352/150/2
f 190/151/2 218/149/2 219/153/2
f 190/151/2 219/153/2 220/154/2
f 229/155/2 230/152/2 352/150/2
f 190/151/2 220/154/2 221/156/2
f 228/157/2 229/155/2 352/150/2
f 190/151/2 221/156/2 222/158/2
f 227/159/2 228/157/2 352/150/2
f 190/151/2 222/158/2 223/160/2
f 189/161/2 190/151/2 223/160/2
f 226/162/2 227/159/2 352/150/2
f 189/161/2 223/160/2 224/163/2
f 226/162/2 352/150/2 353/164/2
f 225/165/2 226/162/2 353/164/2
f 189/161/2 224/163/2 225/165/2
f 189/161/2 225/165/2 353/164/2
f 188/166/2 189/161/2 353/164/2
f 188/166/2 353/164/2 354/167/2
f 374/168/2 188/166/2 354/167/2
f 374/168/2 354/167/2 355/169/2
f 373/170/2 374/168/2 355/169/2
f 373/170/2 355/169/2 356/171/2
f 372/172/2 373/170/2 356/171/2
f 371/173/2 372/172/2 356/171/2
f 371/173/2 356/171/2 357/174/2
f 370/175/2 371/173/2 357/174/2
f 370/175/2 357/174/2 358/176/2
f 369/177/2 370/175/2 358/176/2
f 369/177/2 358/176/2 359/178/2
f 368/179/2 369/177/2 359/178/2
f 368/179/2 359/178/2 360/180/2
f 367/181/2 368/179/2 360/180/2
f 366/182/2 367/181/2 360/180/2
f 366/182/2 360/180/2 361/183/2
f 365/184/2 366/182/2 361/183/2
f 365/184/2 361/183/2 362/185/2
f 364/186/2 365/184/2 362/185/2
f 364/186/2 362/185/2 363/187/2
s 1
f 378/188/3 375/166/4 376/189/4
f 380/190/5 377/191/3 378/188/3
f 382/192/6 379/193/5 380/190/5
f 384/194/7 381/195/6 382/192/6
f 386/196/8 383/197/7 384/194/7
f 388/198/9 385/199/8 386/196/8
f 390/200/10 387/201/9 388/198/9
f 392/202/11 389/203/10 390/200/10
f 394/204/12 391/205/11 392/202/11
f 396/206/13 393/207/12 394/204/12
f 398/208/14 395/209/13 396/206/13
f 400/210/15 397/211/14 398/208/14
f 402/212/16 399/213/15 400/210/15
f 404/214/17 401/215/18 402/212/16
f 406/216/19 403/217/17 404/214/17
f 408/218/20 405/219/19 406/216/19
f 410/220/21 407/221/20 408/218/20
f 412/222/22 409/223/21 410/220/21
f 414/224/23 411/225/22 412/222/22
f 416/226/24 413/227/23 414/224/23
f 418/228/25 415/229/24 416/226/24
f 420/230/26 417/231/25 418/228/25
f 422/232/27 419/233/26 420/230/26
f 424/234/28 421/235/29 422/232/27
f 426/236/30 423/237/28 424/234/28
f 428/238/31 425/239/30 426/236/30
f 430/240/32 427/241/31 428/238/31
f 432/242/33 429/243/32 430/240/32
f 434/244/34 431/245/33 432/242/33
f 436/246/35 433/247/34 434/244/34
f 438/248/36 435/249/35 436/246/35
f 440/250/37 437/251/36 438/248/36
f 442/252/38 439/253/37 440/250/37
f 444/254/39 441/255/38 442/252/38
f 446/256/40 443/257/39 444/254/39
f 448/258/41 445/259/40 446/256/40
f 450/260/42 447/261/41 448/258/41
f 452/262/43 449/263/42 450/260/42
f 454/264/44 451/265/43 452/262/43
f 456/266/45 453/267/44 454/264/44
f 458/268/46 455/269/45 456/266/45
f 460/270/47 457/271/46 458/268/46
f 462/272/48 459/273/47 460/270/47
f 464/274/49 461/275/48 462/272/48
f 466/276/50 463/277/49 464/274/49
f 468/278/51 465/279/50 466/276/50
f 470/280/52 467/281/51 468/278/51
f 472/282/53 469/283/52 470/280/52
f 474/284/54 471/285/53 472/282/53
f 476/286/55 473/287/54 474/284/54
f 478/288/56 475/289/55 476/286/55
f 480/290/57 477/291/56 478/288/56
f 482/292/58 479/293/57 480/290/57
f 484/294/59 481/295/58 482/292/58
f 486/296/60 483/297/59 484/294/59
f 488/298/61 485/299/60 486/296/60
f 490/300/62 487/301/61 488/298/61
f 492/302/63 489/303/62 490/300/62
f 494/304/64 491/305/63 492/302/63
f 496/306/65 493/307/64 494/304/64
f 498/308/66 495/309/65 496/306/65
f 500/310/67 497/311/66 498/308/66
f 502/312/68 499/313/67 500/310/67
f 504/314/69 501/315/68 502/312/68
f 506/316/70 503/317/69 504/314/69
f 508/318/71 505/319/70 506/316/70
f 510/320/72 507/321/71 508/318/71
f 512/322/73 509/323/72 510/320/72
f 514/324/74 511/325/73 512/322/73
f 516/326/75 513/327/74 514/324/74
f 518/328/76 515/329/75 516/326/75
f 520/330/77 517/331/76 518/328/76
f 522/332/78 519/333/77 520/330/77
f 524/334/79 521/335/78 522/332/78
f 526/336/80 523/337/79 524/334/79
f 528/338/81 525/339/80 526/336/80
f 530/340/82 527/341/81 528/338/81
f 532/342/83 529/343/84 530/340/82
f 534/344/85 531/345/83 532/342/83
f 536/346/86 533/347/87 534/344/85
f 538/348/88 535/349/86 536/346/86
f 540/350/89 537/351/88 538/348/88
f 542/352/90 539/353/89 540/350/89
f 544/354/91 541/355/90 542/352/90
f 546/356/92 543/357/93 544/354/91
f 548/358/94 545/359/92 546/356/92
f 550/360/95 547/361/94 548/358/94
f 552/362/96 549/363/95 550/360/95
f 554/364/97 551/365/96 552/362/96
f 556/366/98 553/367/97 554/364/97
f 558/368/99 555/369/98 556/366/98
f 560/370/100 557/371/99 558/368/99
f 562/372/101 559/373/100 560/370/100
f 564/374/102 561/375/101 562/372/101
f 566/376/103 563/377/102 564/374/102
f 568/378/104 565/379/103 566/376/103
f 570/380/105 567/381/104 568/378/104
f 572/382/106 569/383/105 570/380/105
f 574/384/107 571/385/106 572/382/106
f 576/386/108 573/387/107 574/384/107
f 578/388/109 575/389/108 576/386/108
f 580/390/110 577/391/109 578/388/109
f 582/392/111 579/393/110 580/390/110
f 584/394/112 581/395/111 582/392/111
f 586/396/113 583/397/112 584/394/112
f 588/398/114 585/399/113 586/396/113
f 590/400/115 587/401/114 588/398/114
f 592/402/116 589/403/115 590/400/115
f 594/404/117 591/405/116 592/402/116
f 596/406/118 593/407/119 594/404/117
f 598/408/120 595/409/118 596/406/118
f 600/410/121 597/411/120 598/408/120
f 602/412/122 599/413/121 600/410/121
f 604/414/123 601/415/122 602/412/122
f 606/416/124 603/417/123 604/414/123
f 608/418/125 605/419/126 606/416/124
f 610/420/127 607/421/125 608/418/125
f 612/422/128 609/423/127 610/420/127
f 614/424/129 611/425/128 612/422/128
f 616/426/130 613/427/129 614/424/129
f 618/428/131 615/429/130 616/426/130
f 620/430/132 617/431/131 618/428/131
f 622/432/133 619/433/132 620/430/132
f 624/434/134 621/435/133 622/432/133
f 626/436/135 623/437/134 624/434/134
f 628/438/136 625/439/135 626/436/135
f 630/440/137 627/441/136 628/438/136
f 632/442/138 629/443/137 630/440/137
f 634/444/139 631/445/138 632/442/138
f 636/446/140 633/447/139 634/444/139
f 638/448/141 635/449/140 636/446/140
f 640/450/142 637/451/141 638/448/141
f 642/452/143 639/453/142 640/450/142
f 644/454/144 641/455/143 642/452/143
f 646/456/145 643/457/144 644/454/144
f 648/458/146 645/459/145 646/456/145
f 650/460/147 647/461/146 648/458/146
f 652/462/148 649/463/147 650/460/147
f 654/464/149 651/465/148 652/462/148
f 656/466/150 653/467/149 654/464/149
f 658/468/151 655/469/150 656/466/150
f 660/470/152 657/471/151 658/468/151
f 662/472/153 659/473/152 660/470/152
f 664/474/154 661/475/153 662/472/153
f 666/476/155 663/477/154 664/474/154
f 668/478/156 665/479/155 666/476/155
f 670/480/157 667/481/156 668/478/156
f 672/482/158 669/483/157 670/480/157
f 674/484/159 671/485/158 672/482/158
f 676/486/160 673/487/159 674/484/159
f 678/488/161 675/489/160 676/486/160
f 680/490/162 677/491/161 678/488/161
f 682/492/163 679/493/162 680/490/162
f 684/494/164 681/495/163 682/492/163
f 686/496/165 683/497/164 684/494/164
f 688/498/166 685/499/165 686/496/165
f 690/500/167 687/501/166 688/498/166
f 692/502/168 689/503/167 690/500/167
f 694/504/169 691/505/168 692/502/168
f 696/506/170 693/507/169 694/504/169
f 698/508/171 695/509/170 696/506/170
f 700/510/172 697/511/171 698/508/171
f 702/512/173 699/513/172 700/510/172
f 704/514/174 701/515/173 702/512/173
f 706/516/175 703/517/174 704/514/174
f 708/518/176 705/519/175 706/516/175
f 710/520/177 707/521/176 708/518/176
f 712/522/178 709/523/177 710/520/177
f 714/524/179 711/525/178 712/522/178
f 716/526/180 713/527/179 714/524/179
f 718/528/181 715/529/180 716/526/180
f 720/530/182 717/531/181 718/528/181
f 722/532/183 719/533/182 720/530/182
f 724/534/184 721/535/183 722/532/183
f 726/536/185 723/537/184 724/534/184
f 728/538/186 725/539/185 726/536/185
f 730/540/187 727/541/186 728/538/186
f 732/542/188 729/543/187 730/540/187
f 734/544/189 731/545/188 732/542/188
f 736/546/190 733/547/189 734/544/189
f 738/548/191 735/549/190 736/546/190
f 740/550/192 737/551/191 738/548/191
f 742/552/193 739/553/192 740/550/192
f 744/554/194 741/555/193 742/552/193
f 746/556/195 743/557/194 744/554/194
f 748/558/196 745/559/197 746/556/195
f 376/560/4 747/561/196 748/558/196
f 378/188/3 377/191/3 375/166/4
f 380/190/5 379/193/5 377/191/3
f 382/192/6 381/195/6 379/193/5
f 384/194/7 383/197/7 381/195/6
f 386/196/8 385/199/8 383/197/7
f 388/198/9 387/201/9 385/199/8
f 390/200/10 389/203/10 387/201/9
f 392/202/11 391/205/11 389/203/10
f 394/204/12 393/207/12 391/205/11
f 396/206/13 395/209/13 393/207/12
f 398/208/14 397/211/14 395/209/13
f 400/210/15 399/213/15 397/211/14
f 402/212/16 401/215/18 399/213/15
f 404/214/17 403/217/17 401/215/18
f 406/216/19 405/219/19 403/217/17
f 408/218/20 407/221/20 405/219/19
f 410/220/21 409/223/21 407/221/20
f 412/222/22 411/225/22 409/223/21
f 414/224/23 413/227/23 411/225/22
f 416/226/24 415/229/24 413/227/23
f 418/228/25 417/231/25 415/229/24
f 420/230/26 419/233/26 417/231/25
f 422/232/27 421/235/29 419/233/26
f 424/234/28 423/237/28 421/235/29
f 426/236/30 425/239/30 423/237/28
f 428/238/31 427/241/31 425/239/30
f 430/240/32 429/243/32 427/241/31
f 432/242/33 431/245/33 429/243/32
f 434/244/34 433/247/34 431/245/33
f 436/246/35 435/249/35 433/247/34
f 438/248/36 437/251/36 435/249/35
f 440/250/37 439/253/37 437/251/36
f 442/252/38 441/255/38 439/253/37
f 444/254/39 443/257/39 441/255/38
f 446/256/40 445/259/40 443/257/39
f 448/258/41 447/261/41 445/259/40
f 450/260/42 449/263/42 447/261/41
f 452/262/43 451/265/43 449/263/42
f 454/264/44 453/267/44 451/265/43
f 456/266/45 455/269/45 453/267/44
f 458/268/46 457/271/46 455/269/45
f 460/270/47 459/273/47 457/271/46
f 462/272/48 461/275/48 459/273/47
f 464/274/49 463/277/49 461/275/48
f 466/276/50 465/279/50 463/277/49
f 468/278/51 467/281/51 465/279/50
f 470/280/52 469/283/52 467/281/51
f 472/282/53 471/285/53 469/283/52
f 474/284/54 473/287/54 471/285/53
f 476/286/55 475/289/55 473/287/54
f 478/288/56 477/291/56 475/289/55
f 480/290/57 479/293/57 477/291/56
f 482/292/58 481/295/58 479/293/57
f 484/294/59 483/297/59 481/295/58
f 486/296/60 485/299/60 483/297/59
f 488/298/61 487/301/61 485/299/60
f 490/300/62 489/303/62 487/301/61
f 492/302/63 491/305/63 489/303/62
f 494/304/64 493/307/64 491/305/63
f 496/306/65 495/309/65 493/307/64
f 498/308/66 497/311/66 495/309/65
f 500/310/67 499/313/67 497/311/66
f 502/312/68 501/315/68 499/313/67
f 504/314/69 503/317/69 501/315/68
f 506/316/70 505/319/70 503/317/69
f 508/318/71 507/321/71 505/319/70
f 510/320/72 509/323/72 507/321/71
f 512/322/73 511/325/73 509/323/72
f 514/324/74 513/327/74 511/325/73
f 516/326/75 515/329/75 513/327/74
f 518/328/76 517/331/76 515/329/75
f 520/330/77 519/333/77 517/331/76
f 522/332/78 521/335/78 519/333/77
f 524/334/79 523/337/79 521/335/78
f 526/336/80 525/339/80 523/337/79
f 528/338/81 527/341/81 525/339/80
f 530/340/82 529/343/84 527/341/81
f 532/342/83 531/345/83 529/343/84
f 534/344/85 533/347/87 531/345/83
f 536/346/86 535/349/86 533/347/87
f 538/348/88 537/351/88 535/349/86
f 540/350/89 539/353/89 537/351/88
f 542/352/90 541/355/90 539/353/89
f 544/354/91 543/357/93 541/355/90
f 546/356/92 545/359/92 543/357/93
f 548/358/94 547/361/94 545/359/92
f 550/360/95 549/363/95 547/361/94
f 552/362/96 551/365/96 549/363/95
f 554/364/97 553/367/97 551/365/96
f 556/366/98 555/369/98 553/367/97
f 558/368/99 557/371/99 555/369/98
f 560/370/100 559/373/100 557/371/99
f 562/372/101 561/375/101 559/373/100
f 564/374/102 563/377/102 561/375/101
f 566/376/103 565/379/103 563/377/102
f 568/378/104 567/381/104 565/379/103
f 570/380/105 569/383/105 567/381/104
f 572/382/106 571/385/106 569/383/105
f 574/384/107 573/387/107 571/385/106
f 576/386/108 575/389/108 573/387/107
f 578/388/109 577/391/109 575/389/108
f 580/390/110 579/393/110 577/391/109
f 582/392/111 581/395/111 579/393/110
f 584/394/112 583/397/112 581/395/111
f 586/396/113 585/399/113 583/397/112
f 588/398/114 587/401/114 585/399/113
f 590/400/115 589/403/115 587/401/114
f 592/402/116 591/405/116 589/403/115
f 594/404/117 593/407/119 591/405/116
f 596/406/118 595/409/118 593/407/119
f 598/408/120 597/411/120 595/409/118
f 600/410/121 599/413/121 597/411/120
f 602/412/122 601/415/122 599/413/121
f 604/414/123 603/417/123 601/415/122
f 606/416/124 605/419/126 603/417/123
f 608/418/125 607/421/125 605/419/126
f 610/420/127 609/423/127 607/421/125
f 612/422/128 611/425/128 609/423/127
f 614/424/129 613/427/129 611/425/128
f 616/426/130 615/429/130 613/427/129
f 618/428/131 617/431/131 615/429/130
f 620/430/132 619/433/132 617/431/131
f 622/432/133 621/435/133 619/433/132
f 624/434/134 623/437/134 621/435/133
f 626/436/135 625/439/135 623/437/134
f 628/438/136 627/441/136 625/439/135
f 630/440/137 629/443/137 627/441/136
f 632/442/138 631/445/138 629/443/137
f 634/444/139 633/447/139 631/445/138
f 636/446/140 635/449/140 633/447/139
f 638/448/141 637/451/141 635/449/140
f 640/450/142 639/453/142 637/451/141
f 642/452/143 641/455/143 639/453/142
f 644/454/144 643/457/144 641/455/143
f 646/456/145 645/459/145 643/457/144
f 648/458/146 647/461/146 645/459/145
f 650/460/147 649/463/147 647/461/146
f 652/462/148 651/465/148 649/463/147
f 654/464/149 653/467/149 651/465/148
f 656/466/150 655/469/150 653/467/149
f 658/468/151 657/471/151 655/469/150
f 660/470/152 659/473/152 657/471/151
f 662/472/153 661/475/153 659/473/152
f 664/474/154 663/477/154 661/475/153
f 666/476/155 665/479/155 663/477/154
f 668/478/156 667/481/156 665/479/155
f 670/480/157 669/483/157 667/481/156
f 672/482/158 671/485/158 669/483/157
f 674/484/159 673/487/159 671/485/158
f 676/486/160 675/489/160 673/487/159
f 678/488/161 677/491/161 675/489/160
f 680/490/162 679/493/162 677/491/161
f 682/492/163 681/495/163 679/493/162
f 684/494/164 683/497/164 681/495/163
f 686/496/165 685/499/165 683/497/164
f 688/498/166 687/501/166 685/499/165
f 690/500/167 689/503/167 687/501/166
f 692/502/168 691/505/168 689/503/167
f 694/504/169 693/507/169 691/505/168
f 696/506/170 695/509/170 693/507/169
f 698/508/171 697/511/171 695/509/170
f 700/510/172 699/513/172 697/511/171
f 702/512/173 701/515/173 699/513/172
f 704/514/174 703/517/174 701/515/173
f 706/516/175 705/519/175 703/517/174
f 708/518/176 707/521/176 705/519/175
f 710/520/177 709/523/177 707/521/176
f 712/522/178 711/525/178 709/523/177
f 714/524/179 713/527/179 711/525/178
f 716/526/180 715/529/180 713/527/179
f 718/528/181 717/531/181 715/529/180
f 720/530/182 719/533/182 717/531/181
f 722/532/183 721/535/183 719/533/182
f 724/534/184 723/537/184 721/535/183
f 726/536/185 725/539/185 723/537/184
f 728/538/186 727/541/186 725/539/185
f 730/540/187 729/543/187 727/541/186
f 732/542/188 731/545/188 729/543/187
f 734/544/189 733/547/189 731/545/188
f 736/546/190 735/549/190 733/547/189
f 738/548/191 737/551/191 735/549/190
f 740/550/192 739/553/192 737/551/191
f 742/552/193 741/555/193 739/553/192
f 744/554/194 743/557/194 741/555/193
f 746/556/195 745/559/197 743/557/194
f 748/558/196 747/561/196 745/559/197
f 376/560/4 375/168/4 747/561/196
