# Blender 4.4.1
# www.blender.org
mtllib art_plane.mtl
o 平面
v 1.761966 -2.704988 -0.000000
v -1.734394 -2.775934 -0.000000
v 1.744647 2.754617 0.000000
v -1.751713 2.683672 0.000000
vn -0.0000 -0.0000 -1.0000
vt 1.000000 0.000000
vt 0.000000 1.000000
vt 0.000000 0.000000
vt 1.000000 1.000000
s 1
usemtl マテリアル
f 2/1/1 3/2/1 1/3/1
f 2/1/1 4/4/1 3/2/1
o 立方体
v 1.687221 -1.165742 -0.004047
v 1.687221 -1.165742 -0.015440
v -1.681516 -1.192769 -0.004047
v -1.681516 -1.192769 -0.015440
v 1.688061 -1.270369 -0.004047
v 1.688061 -1.270369 -0.015440
v -1.680677 -1.297396 -0.004047
v -1.680677 -1.297396 -0.015440
vn -0.0080 1.0000 -0.0000
vn -1.0000 -0.0080 -0.0000
vn 0.0080 -1.0000 -0.0000
vn 1.0000 0.0080 -0.0000
vn -0.0000 -0.0000 1.0000
vn -0.0000 -0.0000 -1.0000
vt 0.625000 0.000000
vt 0.375000 0.250000
vt 0.375000 0.000000
vt 0.625000 0.250000
vt 0.375000 0.500000
vt 0.625000 0.500000
vt 0.375000 0.750000
vt 0.625000 0.750000
vt 0.375000 1.000000
vt 0.125000 0.750000
vt 0.125000 0.500000
vt 0.875000 0.500000
vt 0.625000 1.000000
vt 0.875000 0.750000
s 1
f 6/5/2 7/6/2 5/7/2
f 8/8/3 11/9/3 7/6/3
f 12/10/4 9/11/4 11/9/4
f 10/12/5 5/13/5 9/11/5
f 11/9/6 5/14/6 7/15/6
f 8/16/7 10/12/7 12/10/7
f 6/5/2 8/8/2 7/6/2
f 8/8/3 12/10/3 11/9/3
f 12/10/4 10/12/4 9/11/4
f 10/12/5 6/17/5 5/13/5
f 11/9/6 9/11/6 5/14/6
f 8/16/7 6/18/7 10/12/7
o Cube.001
v -1.988000 -3.000000 -0.030000
v -1.675260 -2.715348 -0.030000
v -1.988000 -3.000000 0.030000
v -1.675260 -2.715348 0.030000
v 1.988000 -3.000000 -0.030000
v 1.675260 -2.715348 -0.030000
v 1.988000 -3.000000 0.030000
v 1.675260 -2.715348 0.030000
v -1.988000 3.000000 -0.030000
v -1.675260 2.715348 -0.030000
v -1.988000 3.000000 0.030000
v -1.675260 2.715348 0.030000
v 1.988000 3.000000 -0.030000
v 1.675260 2.715348 -0.030000
v 1.988000 3.000000 0.030000
v 1.675260 2.715348 0.030000
vn -0.0000 -0.0000 -1.0000
vn 1.0000 -0.0000 -0.0000
vn -0.0000 1.0000 -0.0000
vn -0.0000 -0.0000 1.0000
vn -0.0000 -1.0000 -0.0000
vn -1.0000 -0.0000 -0.0000
vt 0.625000 0.750000
vt 0.636861 0.519664
vt 0.636860 0.730336
vt 0.875000 0.500000
vt 0.875000 0.750000
vt 0.863139 0.519664
vt 0.375000 1.000000
vt 0.375000 0.750000
vt 0.625000 0.000000
vt 0.375000 0.250000
vt 0.375000 0.000000
vt 0.136861 0.519664
vt 0.125000 0.750000
vt 0.125000 0.500000
vt 0.375000 0.500000
vt 0.363139 0.519664
vt 0.625000 0.500000
vt 0.625000 0.250000
vt 0.625000 1.000000
vt 0.863139 0.730336
vt 0.136861 0.730336
vt 0.363139 0.730336
s 1
usemtl Material.001
f 17/19/8 14/20/8 18/21/8
f 21/22/8 25/23/8 22/24/8
f 17/19/9 27/25/9 19/26/9
f 25/27/10 23/28/10 27/29/10
f 24/30/11 27/31/11 23/32/11
f 15/33/11 19/26/11 16/34/11
f 13/35/12 19/26/12 15/33/12
f 21/36/13 15/33/13 23/28/13
f 18/19/13 28/25/13 26/37/13
f 24/28/12 26/27/12 28/29/12
f 14/35/10 20/26/10 18/19/10
f 14/35/9 24/28/9 16/33/9
f 17/19/8 13/35/8 14/20/8
f 22/24/8 14/20/8 13/35/8
f 25/23/8 17/19/8 18/21/8
f 25/23/8 18/21/8 26/38/8
f 22/24/8 13/35/8 21/22/8
f 25/23/8 26/38/8 22/24/8
f 17/19/9 25/37/9 27/25/9
f 25/27/10 21/36/10 23/28/10
f 24/30/11 28/39/11 27/31/11
f 16/34/11 24/30/11 23/32/11
f 19/26/11 27/31/11 28/39/11
f 19/26/11 28/39/11 20/40/11
f 16/34/11 23/32/11 15/33/11
f 19/26/11 20/40/11 16/34/11
f 13/35/12 17/19/12 19/26/12
f 21/36/13 13/35/13 15/33/13
f 18/19/13 20/26/13 28/25/13
f 24/28/12 22/36/12 26/27/12
f 14/35/10 16/33/10 20/26/10
f 14/35/9 22/36/9 24/28/9
