# Blender 4.4.1
# www.blender.org
mtllib daiya.mtl
o テキスト.003
v -0.956873 2.363478 -0.015609
v -0.977699 2.391626 -0.015609
v -0.997944 2.419520 -0.015609
v -1.017606 2.447161 -0.015609
v -1.036687 2.474549 -0.015609
v -1.055187 2.501683 -0.015609
v -1.073105 2.528563 -0.015609
v -1.090441 2.555191 -0.015609
v -1.107195 2.581564 -0.015609
v -1.123369 2.607684 -0.015609
v -1.138960 2.633550 -0.015609
v -1.153970 2.659163 -0.015609
v -1.168398 2.684523 -0.015609
v -1.184631 2.657336 -0.015609
v -1.201475 2.629822 -0.015609
v -1.218930 2.601980 -0.015609
v -1.236997 2.573809 -0.015609
v -1.255676 2.545310 -0.015609
v -1.274966 2.516484 -0.015609
v -1.294867 2.487329 -0.015609
v -1.315380 2.457846 -0.015609
v -1.336504 2.428035 -0.015609
v -1.358239 2.397897 -0.015609
v -1.380586 2.367429 -0.015609
v -1.403545 2.336634 -0.015609
v -1.429956 2.301567 -0.015609
v -1.455501 2.267945 -0.015609
v -1.480182 2.235771 -0.015609
v -1.503998 2.205043 -0.015609
v -1.526949 2.175761 -0.015609
v -1.549035 2.147926 -0.015609
v -1.570256 2.121538 -0.015609
v -1.590612 2.096596 -0.015609
v -1.610103 2.073101 -0.015609
v -1.628730 2.051052 -0.015609
v -1.646491 2.030450 -0.015609
v -1.663387 2.011294 -0.015609
v -1.649444 1.996247 -0.015609
v -1.634098 1.979023 -0.015609
v -1.617351 1.959621 -0.015609
v -1.599202 1.938042 -0.015609
v -1.579651 1.914286 -0.015609
v -1.558699 1.888352 -0.015609
v -1.536344 1.860241 -0.015609
v -1.512588 1.829953 -0.015609
v -1.487430 1.797488 -0.015609
v -1.460870 1.762845 -0.015609
v -1.432909 1.726025 -0.015609
v -1.403545 1.687028 -0.015609
v -1.379610 1.654742 -0.015609
v -1.356480 1.623022 -0.015609
v -1.334155 1.591869 -0.015609
v -1.312636 1.561282 -0.015609
v -1.291922 1.531263 -0.015609
v -1.272013 1.501810 -0.015609
v -1.252910 1.472923 -0.015609
v -1.234611 1.444604 -0.015609
v -1.217119 1.416851 -0.015609
v -1.200431 1.389665 -0.015609
v -1.184549 1.363045 -0.015609
v -1.169472 1.336992 -0.015609
v -1.164491 1.346425 -0.015609
v -1.159212 1.356111 -0.015609
v -1.153634 1.366050 -0.015609
v -1.147759 1.376243 -0.015609
v -1.141585 1.386690 -0.015609
v -1.135112 1.397390 -0.015609
v -1.128342 1.408343 -0.015609
v -1.121273 1.419550 -0.015609
v -1.113906 1.431011 -0.015609
v -1.106241 1.442725 -0.015609
v -1.098278 1.454692 -0.015609
v -1.090016 1.466913 -0.015609
v -1.075230 1.488679 -0.015609
v -1.059862 1.511026 -0.015609
v -1.043913 1.533955 -0.015609
v -1.027382 1.557465 -0.015609
v -1.010269 1.581556 -0.015609
v -0.992575 1.606230 -0.015609
v -0.974299 1.631485 -0.015609
v -0.955442 1.657321 -0.015609
v -0.936003 1.683740 -0.015609
v -0.915982 1.710739 -0.015609
v -0.895380 1.738321 -0.015609
v -0.874196 1.766484 -0.015609
v -0.868567 1.773926 -0.015609
v -0.860983 1.783723 -0.015609
v -0.851447 1.795877 -0.015609
v -0.839956 1.810388 -0.015609
v -0.826512 1.827254 -0.015609
v -0.811115 1.846477 -0.015609
v -0.793763 1.868056 -0.015609
v -0.774459 1.891991 -0.015609
v -0.753200 1.918283 -0.015609
v -0.729988 1.946930 -0.015609
v -0.704823 1.977934 -0.015609
v -0.677704 2.011294 -0.015609
v -0.696211 2.032605 -0.015609
v -0.715583 2.055377 -0.015609
v -0.735819 2.079610 -0.015609
v -0.756921 2.105305 -0.015609
v -0.778888 2.132462 -0.015609
v -0.801719 2.161079 -0.015609
v -0.825416 2.191159 -0.015609
v -0.849978 2.222700 -0.015609
v -0.875404 2.255702 -0.015609
v -0.901696 2.290166 -0.015609
v -0.928852 2.326091 -0.015609
v -0.956873 2.363478 -0.001609
v -0.977699 2.391626 -0.001609
v -0.997944 2.419520 -0.001609
v -1.017606 2.447161 -0.001609
v -1.036687 2.474549 -0.001609
v -1.055187 2.501683 -0.001609
v -1.073105 2.528563 -0.001609
v -1.090441 2.555191 -0.001609
v -1.107195 2.581564 -0.001609
v -1.123369 2.607684 -0.001609
v -1.138960 2.633550 -0.001609
v -1.153970 2.659163 -0.001609
v -1.168398 2.684523 -0.001609
v -1.184631 2.657336 -0.001609
v -1.201475 2.629822 -0.001609
v -1.218930 2.601980 -0.001609
v -1.236997 2.573809 -0.001609
v -1.255676 2.545310 -0.001609
v -1.274966 2.516484 -0.001609
v -1.294867 2.487329 -0.001609
v -1.315380 2.457846 -0.001609
v -1.336504 2.428035 -0.001609
v -1.358239 2.397897 -0.001609
v -1.380586 2.367429 -0.001609
v -1.403545 2.336634 -0.001609
v -1.429956 2.301567 -0.001609
v -1.455501 2.267945 -0.001609
v -1.480182 2.235771 -0.001609
v -1.503998 2.205043 -0.001609
v -1.526949 2.175761 -0.001609
v -1.549035 2.147926 -0.001609
v -1.570256 2.121538 -0.001609
v -1.590612 2.096596 -0.001609
v -1.610103 2.073101 -0.001609
v -1.628730 2.051052 -0.001609
v -1.646491 2.030450 -0.001609
v -1.663387 2.011294 -0.001609
v -1.649444 1.996247 -0.001609
v -1.634098 1.979023 -0.001609
v -1.617351 1.959621 -0.001609
v -1.599202 1.938042 -0.001609
v -1.579651 1.914286 -0.001609
v -1.558699 1.888352 -0.001609
v -1.536344 1.860241 -0.001609
v -1.512588 1.829953 -0.001609
v -1.487430 1.797488 -0.001609
v -1.460870 1.762845 -0.001609
v -1.432909 1.726025 -0.001609
v -1.403545 1.687028 -0.001609
v -1.379610 1.654742 -0.001609
v -1.356480 1.623022 -0.001609
v -1.334155 1.591869 -0.001609
v -1.312636 1.561282 -0.001609
v -1.291922 1.531263 -0.001609
v -1.272013 1.501810 -0.001609
v -1.252910 1.472923 -0.001609
v -1.234611 1.444604 -0.001609
v -1.217119 1.416851 -0.001609
v -1.200431 1.389665 -0.001609
v -1.184549 1.363045 -0.001609
v -1.169472 1.336992 -0.001609
v -1.164491 1.346425 -0.001609
v -1.159212 1.356111 -0.001609
v -1.153634 1.366050 -0.001609
v -1.147759 1.376243 -0.001609
v -1.141585 1.386690 -0.001609
v -1.135112 1.397390 -0.001609
v -1.128342 1.408343 -0.001609
v -1.121273 1.419550 -0.001609
v -1.113906 1.431011 -0.001609
v -1.106241 1.442725 -0.001609
v -1.098278 1.454692 -0.001609
v -1.090016 1.466913 -0.001609
v -1.075230 1.488679 -0.001609
v -1.059862 1.511026 -0.001609
v -1.043913 1.533955 -0.001609
v -1.027382 1.557465 -0.001609
v -1.010269 1.581556 -0.001609
v -0.992575 1.606230 -0.001609
v -0.974299 1.631485 -0.001609
v -0.955442 1.657321 -0.001609
v -0.936003 1.683740 -0.001609
v -0.915982 1.710739 -0.001609
v -0.895380 1.738321 -0.001609
v -0.874196 1.766484 -0.001609
v -0.868567 1.773926 -0.001609
v -0.860983 1.783723 -0.001609
v -0.851447 1.795877 -0.001609
v -0.839956 1.810388 -0.001609
v -0.826512 1.827254 -0.001609
v -0.811115 1.846477 -0.001609
v -0.793763 1.868056 -0.001609
v -0.774459 1.891991 -0.001609
v -0.753200 1.918283 -0.001609
v -0.729988 1.946930 -0.001609
v -0.704823 1.977934 -0.001609
v -0.677704 2.011294 -0.001609
v -0.696211 2.032605 -0.001609
v -0.715583 2.055377 -0.001609
v -0.735819 2.079610 -0.001609
v -0.756921 2.105305 -0.001609
v -0.778888 2.132462 -0.001609
v -0.801719 2.161079 -0.001609
v -0.825416 2.191159 -0.001609
v -0.849978 2.222700 -0.001609
v -0.875404 2.255702 -0.001609
v -0.901696 2.290166 -0.001609
v -0.928852 2.326091 -0.001609
v -0.956873 2.363478 -0.001609
v -0.956873 2.363478 -0.015609
v -0.977699 2.391626 -0.001609
v -0.977699 2.391626 -0.015609
v -0.997944 2.419520 -0.001609
v -0.997944 2.419520 -0.015609
v -1.017606 2.447161 -0.001609
v -1.017606 2.447161 -0.015609
v -1.036687 2.474549 -0.001609
v -1.036687 2.474549 -0.015609
v -1.055187 2.501683 -0.001609
v -1.055187 2.501683 -0.015609
v -1.073105 2.528563 -0.001609
v -1.073105 2.528563 -0.015609
v -1.090441 2.555191 -0.001609
v -1.090441 2.555191 -0.015609
v -1.107195 2.581564 -0.001609
v -1.107195 2.581564 -0.015609
v -1.123369 2.607684 -0.001609
v -1.123369 2.607684 -0.015609
v -1.138960 2.633550 -0.001609
v -1.138960 2.633550 -0.015609
v -1.153970 2.659163 -0.001609
v -1.153970 2.659163 -0.015609
v -1.168398 2.684523 -0.001609
v -1.168398 2.684523 -0.015609
v -1.184631 2.657336 -0.001609
v -1.184631 2.657336 -0.015609
v -1.201475 2.629822 -0.001609
v -1.201475 2.629822 -0.015609
v -1.218930 2.601980 -0.001609
v -1.218930 2.601980 -0.015609
v -1.236997 2.573809 -0.001609
v -1.236997 2.573809 -0.015609
v -1.255676 2.545310 -0.001609
v -1.255676 2.545310 -0.015609
v -1.274966 2.516484 -0.001609
v -1.274966 2.516484 -0.015609
v -1.294867 2.487329 -0.001609
v -1.294867 2.487329 -0.015609
v -1.315380 2.457846 -0.001609
v -1.315380 2.457846 -0.015609
v -1.336504 2.428035 -0.001609
v -1.336504 2.428035 -0.015609
v -1.358239 2.397897 -0.001609
v -1.358239 2.397897 -0.015609
v -1.380586 2.367429 -0.001609
v -1.380586 2.367429 -0.015609
v -1.403545 2.336634 -0.001609
v -1.403545 2.336634 -0.015609
v -1.429956 2.301567 -0.001609
v -1.429956 2.301567 -0.015609
v -1.455501 2.267945 -0.001609
v -1.455501 2.267945 -0.015609
v -1.480182 2.235771 -0.001609
v -1.480182 2.235771 -0.015609
v -1.503998 2.205043 -0.001609
v -1.503998 2.205043 -0.015609
v -1.526949 2.175761 -0.001609
v -1.526949 2.175761 -0.015609
v -1.549035 2.147926 -0.001609
v -1.549035 2.147926 -0.015609
v -1.570256 2.121538 -0.001609
v -1.570256 2.121538 -0.015609
v -1.590612 2.096596 -0.001609
v -1.590612 2.096596 -0.015609
v -1.610103 2.073101 -0.001609
v -1.610103 2.073101 -0.015609
v -1.628730 2.051052 -0.001609
v -1.628730 2.051052 -0.015609
v -1.646491 2.030450 -0.001609
v -1.646491 2.030450 -0.015609
v -1.663387 2.011294 -0.001609
v -1.663387 2.011294 -0.015609
v -1.649444 1.996247 -0.001609
v -1.649444 1.996247 -0.015609
v -1.634098 1.979023 -0.001609
v -1.634098 1.979023 -0.015609
v -1.617351 1.959621 -0.001609
v -1.617351 1.959621 -0.015609
v -1.599202 1.938042 -0.001609
v -1.599202 1.938042 -0.015609
v -1.579651 1.914286 -0.001609
v -1.579651 1.914286 -0.015609
v -1.558699 1.888352 -0.001609
v -1.558699 1.888352 -0.015609
v -1.536344 1.860241 -0.001609
v -1.536344 1.860241 -0.015609
v -1.512588 1.829953 -0.001609
v -1.512588 1.829953 -0.015609
v -1.487430 1.797488 -0.001609
v -1.487430 1.797488 -0.015609
v -1.460870 1.762845 -0.001609
v -1.460870 1.762845 -0.015609
v -1.432909 1.726025 -0.001609
v -1.432909 1.726025 -0.015609
v -1.403545 1.687028 -0.001609
v -1.403545 1.687028 -0.015609
v -1.379610 1.654742 -0.001609
v -1.379610 1.654742 -0.015609
v -1.356480 1.623022 -0.001609
v -1.356480 1.623022 -0.015609
v -1.334155 1.591869 -0.001609
v -1.334155 1.591869 -0.015609
v -1.312636 1.561282 -0.001609
v -1.312636 1.561282 -0.015609
v -1.291922 1.531263 -0.001609
v -1.291922 1.531263 -0.015609
v -1.272013 1.501810 -0.001609
v -1.272013 1.501810 -0.015609
v -1.252910 1.472923 -0.001609
v -1.252910 1.472923 -0.015609
v -1.234611 1.444604 -0.001609
v -1.234611 1.444604 -0.015609
v -1.217119 1.416851 -0.001609
v -1.217119 1.416851 -0.015609
v -1.200431 1.389665 -0.001609
v -1.200431 1.389665 -0.015609
v -1.184549 1.363045 -0.001609
v -1.184549 1.363045 -0.015609
v -1.169472 1.336992 -0.001609
v -1.169472 1.336992 -0.015609
v -1.164491 1.346425 -0.001609
v -1.164491 1.346425 -0.015609
v -1.159212 1.356111 -0.001609
v -1.159212 1.356111 -0.015609
v -1.153634 1.366050 -0.001609
v -1.153634 1.366050 -0.015609
v -1.147759 1.376243 -0.001609
v -1.147759 1.376243 -0.015609
v -1.141585 1.386690 -0.001609
v -1.141585 1.386690 -0.015609
v -1.135112 1.397390 -0.001609
v -1.135112 1.397390 -0.015609
v -1.128342 1.408343 -0.001609
v -1.128342 1.408343 -0.015609
v -1.121273 1.419550 -0.001609
v -1.121273 1.419550 -0.015609
v -1.113906 1.431011 -0.001609
v -1.113906 1.431011 -0.015609
v -1.106241 1.442725 -0.001609
v -1.106241 1.442725 -0.015609
v -1.098278 1.454692 -0.001609
v -1.098278 1.454692 -0.015609
v -1.090016 1.466913 -0.001609
v -1.090016 1.466913 -0.015609
v -1.075230 1.488679 -0.001609
v -1.075230 1.488679 -0.015609
v -1.059862 1.511026 -0.001609
v -1.059862 1.511026 -0.015609
v -1.043913 1.533955 -0.001609
v -1.043913 1.533955 -0.015609
v -1.027382 1.557465 -0.001609
v -1.027382 1.557465 -0.015609
v -1.010269 1.581556 -0.001609
v -1.010269 1.581556 -0.015609
v -0.992575 1.606230 -0.001609
v -0.992575 1.606230 -0.015609
v -0.974299 1.631485 -0.001609
v -0.974299 1.631485 -0.015609
v -0.955442 1.657321 -0.001609
v -0.955442 1.657321 -0.015609
v -0.936003 1.683740 -0.001609
v -0.936003 1.683740 -0.015609
v -0.915982 1.710739 -0.001609
v -0.915982 1.710739 -0.015609
v -0.895380 1.738321 -0.001609
v -0.895380 1.738321 -0.015609
v -0.874196 1.766484 -0.001609
v -0.874196 1.766484 -0.015609
v -0.868567 1.773926 -0.001609
v -0.868567 1.773926 -0.015609
v -0.860983 1.783723 -0.001609
v -0.860983 1.783723 -0.015609
v -0.851447 1.795877 -0.001609
v -0.851447 1.795877 -0.015609
v -0.839956 1.810388 -0.001609
v -0.839956 1.810388 -0.015609
v -0.826512 1.827254 -0.001609
v -0.826512 1.827254 -0.015609
v -0.811115 1.846477 -0.001609
v -0.811115 1.846477 -0.015609
v -0.793763 1.868056 -0.001609
v -0.793763 1.868056 -0.015609
v -0.774459 1.891991 -0.001609
v -0.774459 1.891991 -0.015609
v -0.753200 1.918283 -0.001609
v -0.753200 1.918283 -0.015609
v -0.729988 1.946930 -0.001609
v -0.729988 1.946930 -0.015609
v -0.704823 1.977934 -0.001609
v -0.704823 1.977934 -0.015609
v -0.677704 2.011294 -0.001609
v -0.677704 2.011294 -0.015609
v -0.696211 2.032605 -0.001609
v -0.696211 2.032605 -0.015609
v -0.715583 2.055377 -0.001609
v -0.715583 2.055377 -0.015609
v -0.735819 2.079610 -0.001609
v -0.735819 2.079610 -0.015609
v -0.756921 2.105305 -0.001609
v -0.756921 2.105305 -0.015609
v -0.778888 2.132462 -0.001609
v -0.778888 2.132462 -0.015609
v -0.801719 2.161079 -0.001609
v -0.801719 2.161079 -0.015609
v -0.825416 2.191159 -0.001609
v -0.825416 2.191159 -0.015609
v -0.849978 2.222700 -0.001609
v -0.849978 2.222700 -0.015609
v -0.875404 2.255702 -0.001609
v -0.875404 2.255702 -0.015609
v -0.901696 2.290166 -0.001609
v -0.901696 2.290166 -0.015609
v -0.928852 2.326091 -0.001609
v -0.928852 2.326091 -0.015609
vn -0.0000 -0.0000 -1.0000
vn -0.0000 -0.0000 1.0000
vn 0.8066 0.5911 -0.0000
vn 0.8020 0.5973 -0.0000
vn 0.8121 0.5835 -0.0000
vn 0.8177 0.5756 -0.0000
vn 0.8234 0.5675 -0.0000
vn 0.8292 0.5590 -0.0000
vn 0.8351 0.5501 -0.0000
vn 0.8411 0.5409 -0.0000
vn 0.8472 0.5313 -0.0000
vn 0.8533 0.5214 -0.0000
vn 0.8596 0.5109 -0.0000
vn 0.8660 0.5001 -0.0000
vn 0.0105 0.9999 -0.0000
vn -0.8557 0.5174 -0.0000
vn 0.0106 0.9999 -0.0000
vn -0.8501 0.5267 -0.0000
vn -0.8445 0.5355 -0.0000
vn -0.8391 0.5440 -0.0000
vn -0.8337 0.5522 -0.0000
vn -0.8285 0.5600 -0.0000
vn -0.8234 0.5675 -0.0000
vn -0.8184 0.5746 -0.0000
vn -0.8135 0.5816 -0.0000
vn -0.8087 0.5882 -0.0000
vn -0.8040 0.5946 -0.0000
vn -0.8003 0.5997 -0.0000
vn -0.7975 0.6033 -0.0000
vn -0.7948 0.6068 -0.0000
vn -0.7919 0.6106 -0.0000
vn -0.7887 0.6147 -0.0000
vn -0.7852 0.6192 -0.0000
vn -0.7813 0.6241 -0.0000
vn -0.7770 0.6295 -0.0000
vn -0.7722 0.6354 -0.0000
vn -0.7668 0.6419 -0.0000
vn -0.7607 0.6492 -0.0000
vn -0.7537 0.6572 -0.0000
vn -0.9999 -0.0123 -0.0000
vn -0.7401 -0.6725 -0.0000
vn -0.7518 -0.6593 -0.0000
vn -0.7612 -0.6486 -0.0000
vn -0.7687 -0.6396 -0.0000
vn -0.7750 -0.6320 -0.0000
vn -0.7803 -0.6254 -0.0000
vn -0.7848 -0.6198 -0.0000
vn -0.7886 -0.6148 -0.0000
vn -0.7920 -0.6105 -0.0000
vn -0.7950 -0.6066 -0.0000
vn -0.7976 -0.6032 -0.0000
vn -0.8011 -0.5985 -0.0000
vn -0.8057 -0.5924 -0.0000
vn -0.8104 -0.5858 -0.0000
vn -0.8154 -0.5790 -0.0000
vn -0.8205 -0.5717 -0.0000
vn -0.8258 -0.5640 -0.0000
vn -0.8313 -0.5558 -0.0000
vn -0.8370 -0.5472 -0.0000
vn -0.8430 -0.5380 -0.0000
vn -0.8491 -0.5282 -0.0000
vn -0.8555 -0.5178 -0.0000
vn -0.8622 -0.5066 -0.0000
vn 0.0194 -0.9998 -0.0000
vn 0.8812 -0.4728 -0.0000
vn 0.8751 -0.4840 -0.0000
vn 0.8692 -0.4944 -0.0000
vn 0.8637 -0.5041 -0.0000
vn 0.8583 -0.5132 -0.0000
vn 0.8531 -0.5217 -0.0000
vn 0.8482 -0.5296 -0.0000
vn 0.8435 -0.5371 -0.0000
vn 0.8390 -0.5441 -0.0000
vn 0.8347 -0.5508 -0.0000
vn 0.8305 -0.5570 -0.0000
vn 0.8278 -0.5610 -0.0000
vn 0.8256 -0.5643 -0.0000
vn 0.8225 -0.5688 -0.0000
vn 0.8195 -0.5731 -0.0000
vn 0.8166 -0.5772 -0.0000
vn 0.8140 -0.5809 -0.0000
vn 0.8114 -0.5845 -0.0000
vn 0.8139 -0.5809 -0.0000
vn 0.8089 -0.5879 -0.0000
vn 0.8066 -0.5911 -0.0000
vn 0.8044 -0.5941 -0.0000
vn 0.8022 -0.5970 -0.0000
vn 0.8002 -0.5998 -0.0000
vn 0.7984 -0.6022 -0.0000
vn 0.7942 -0.6077 -0.0000
vn 0.7888 -0.6147 -0.0000
vn 0.7854 -0.6190 -0.0000
vn 0.7830 -0.6221 -0.0000
vn 0.7812 -0.6242 -0.0000
vn 0.7799 -0.6259 -0.0000
vn 0.7788 -0.6272 -0.0000
vn 0.7780 -0.6283 -0.0000
vn 0.7773 -0.6292 -0.0000
vn 0.7767 -0.6299 -0.0000
vn 0.7762 -0.6305 -0.0000
vn 0.9999 0.0163 -0.0000
vn 0.7584 0.6518 -0.0000
vn 0.9999 0.0162 -0.0000
vn 0.7646 0.6445 -0.0000
vn 0.7702 0.6378 -0.0000
vn 0.7751 0.6318 -0.0000
vn 0.7796 0.6263 -0.0000
vn 0.7836 0.6212 -0.0000
vn 0.7873 0.6166 -0.0000
vn 0.7906 0.6124 -0.0000
vn 0.7936 0.6084 -0.0000
vn 0.7964 0.6048 -0.0000
vn 0.7990 0.6014 -0.0000
vt 0.102804 0.000000
vt 0.121495 0.000000
vt 0.112150 0.000000
vt 0.093458 0.000000
vt 0.130841 0.000000
vt 0.084112 0.000000
vt 0.140187 0.000000
vt 0.074766 0.000000
vt 0.149533 0.000000
vt 0.065421 0.000000
vt 0.158879 0.000000
vt 0.056075 0.000000
vt 0.168224 0.000000
vt 0.046729 0.000000
vt 0.177570 0.000000
vt 0.037383 0.000000
vt 0.186916 0.000000
vt 0.028037 0.000000
vt 0.196262 0.000000
vt 0.018692 0.000000
vt 0.205607 0.000000
vt 0.009346 0.000000
vt 0.214953 0.000000
vt 0.000000 0.000000
vt 0.224299 0.000000
vt 1.000000 0.000000
vt 0.233645 0.000000
vt 0.990654 0.000000
vt 0.242991 0.000000
vt 0.981308 0.000000
vt 0.252336 0.000000
vt 0.971963 0.000000
vt 0.261682 0.000000
vt 0.962617 0.000000
vt 0.271028 0.000000
vt 0.953271 0.000000
vt 0.280374 0.000000
vt 0.943925 0.000000
vt 0.289720 0.000000
vt 0.934579 0.000000
vt 0.299065 0.000000
vt 0.925234 0.000000
vt 0.308411 0.000000
vt 0.915888 0.000000
vt 0.317757 0.000000
vt 0.906542 0.000000
vt 0.327103 0.000000
vt 0.897196 0.000000
vt 0.336449 0.000000
vt 0.887850 0.000000
vt 0.345794 0.000000
vt 0.355140 0.000000
vt 0.364486 0.000000
vt 0.878505 0.000000
vt 0.373832 0.000000
vt 0.869159 0.000000
vt 0.383178 0.000000
vt 0.859813 0.000000
vt 0.392523 0.000000
vt 0.850467 0.000000
vt 0.401869 0.000000
vt 0.841121 0.000000
vt 0.411215 0.000000
vt 0.831776 0.000000
vt 0.420561 0.000000
vt 0.822430 0.000000
vt 0.813084 0.000000
vt 0.429907 0.000000
vt 0.803738 0.000000
vt 0.794393 0.000000
vt 0.785047 0.000000
vt 0.775701 0.000000
vt 0.439252 0.000000
vt 0.766355 0.000000
vt 0.448598 0.000000
vt 0.757009 0.000000
vt 0.457944 0.000000
vt 0.747664 0.000000
vt 0.738318 0.000000
vt 0.467290 0.000000
vt 0.728972 0.000000
vt 0.476636 0.000000
vt 0.719626 0.000000
vt 0.485981 0.000000
vt 0.710280 0.000000
vt 0.495327 0.000000
vt 0.700935 0.000000
vt 0.691589 0.000000
vt 0.504673 0.000000
vt 0.682243 0.000000
vt 0.514019 0.000000
vt 0.672897 0.000000
vt 0.523364 0.000000
vt 0.663551 0.000000
vt 0.654206 0.000000
vt 0.532710 0.000000
vt 0.644860 0.000000
vt 0.635514 0.000000
vt 0.626168 0.000000
vt 0.542056 0.000000
vt 0.616822 0.000000
vt 0.607477 0.000000
vt 0.551402 0.000000
vt 0.598131 0.000000
vt 0.588785 0.000000
vt 0.579439 0.000000
vt 0.570093 0.000000
vt 0.560748 0.000000
vt 0.009259 1.000000
vt 0.000000 1.000000
vt 0.018519 1.000000
vt 0.009259 0.000000
vt 0.027778 1.000000
vt 0.018519 0.000000
vt 0.037037 1.000000
vt 0.027778 0.000000
vt 0.046296 1.000000
vt 0.037037 0.000000
vt 0.055556 1.000000
vt 0.046296 0.000000
vt 0.064815 1.000000
vt 0.055556 0.000000
vt 0.074074 1.000000
vt 0.064815 0.000000
vt 0.083333 1.000000
vt 0.074074 0.000000
vt 0.092593 1.000000
vt 0.083333 0.000000
vt 0.101852 1.000000
vt 0.092593 0.000000
vt 0.111111 1.000000
vt 0.101852 0.000000
vt 0.120370 1.000000
vt 0.111111 0.000000
vt 0.129630 1.000000
vt 0.120370 0.000000
vt 0.138889 1.000000
vt 0.129630 0.000000
vt 0.148148 1.000000
vt 0.138889 0.000000
vt 0.157407 1.000000
vt 0.148148 0.000000
vt 0.166667 1.000000
vt 0.157407 0.000000
vt 0.175926 1.000000
vt 0.166667 0.000000
vt 0.185185 1.000000
vt 0.175926 0.000000
vt 0.194444 1.000000
vt 0.185185 0.000000
vt 0.203704 1.000000
vt 0.194444 0.000000
vt 0.212963 1.000000
vt 0.203704 0.000000
vt 0.222222 1.000000
vt 0.212963 0.000000
vt 0.231481 1.000000
vt 0.222222 0.000000
vt 0.240741 1.000000
vt 0.231481 0.000000
vt 0.250000 1.000000
vt 0.240741 0.000000
vt 0.259259 1.000000
vt 0.250000 0.000000
vt 0.268519 1.000000
vt 0.259259 0.000000
vt 0.277778 1.000000
vt 0.268519 0.000000
vt 0.287037 1.000000
vt 0.277778 0.000000
vt 0.296296 1.000000
vt 0.287037 0.000000
vt 0.305556 1.000000
vt 0.296296 0.000000
vt 0.314815 1.000000
vt 0.305556 0.000000
vt 0.324074 1.000000
vt 0.314815 0.000000
vt 0.333333 1.000000
vt 0.324074 0.000000
vt 0.342593 1.000000
vt 0.333333 0.000000
vt 0.351852 1.000000
vt 0.342593 0.000000
vt 0.361111 1.000000
vt 0.351852 0.000000
vt 0.370370 1.000000
vt 0.361111 0.000000
vt 0.379630 1.000000
vt 0.370370 0.000000
vt 0.388889 1.000000
vt 0.379630 0.000000
vt 0.398148 1.000000
vt 0.388889 0.000000
vt 0.407407 1.000000
vt 0.398148 0.000000
vt 0.416667 1.000000
vt 0.407407 0.000000
vt 0.425926 1.000000
vt 0.416667 0.000000
vt 0.435185 1.000000
vt 0.425926 0.000000
vt 0.444444 1.000000
vt 0.435185 0.000000
vt 0.453704 1.000000
vt 0.444444 0.000000
vt 0.462963 1.000000
vt 0.453704 0.000000
vt 0.472222 1.000000
vt 0.462963 0.000000
vt 0.481481 1.000000
vt 0.472222 0.000000
vt 0.490741 1.000000
vt 0.481481 0.000000
vt 0.500000 1.000000
vt 0.490741 0.000000
vt 0.509259 1.000000
vt 0.500000 0.000000
vt 0.518519 1.000000
vt 0.509259 0.000000
vt 0.527778 1.000000
vt 0.518519 0.000000
vt 0.537037 1.000000
vt 0.527778 0.000000
vt 0.546296 1.000000
vt 0.537037 0.000000
vt 0.555556 1.000000
vt 0.546296 0.000000
vt 0.564815 1.000000
vt 0.555556 0.000000
vt 0.574074 1.000000
vt 0.564815 0.000000
vt 0.583333 1.000000
vt 0.574074 0.000000
vt 0.592593 1.000000
vt 0.583333 0.000000
vt 0.601852 1.000000
vt 0.592593 0.000000
vt 0.611111 1.000000
vt 0.601852 0.000000
vt 0.620370 1.000000
vt 0.611111 0.000000
vt 0.629630 1.000000
vt 0.620370 0.000000
vt 0.638889 1.000000
vt 0.629630 0.000000
vt 0.648148 1.000000
vt 0.638889 0.000000
vt 0.657407 1.000000
vt 0.648148 0.000000
vt 0.666667 1.000000
vt 0.657407 0.000000
vt 0.675926 1.000000
vt 0.666667 0.000000
vt 0.685185 1.000000
vt 0.675926 0.000000
vt 0.694444 1.000000
vt 0.685185 0.000000
vt 0.703704 1.000000
vt 0.694444 0.000000
vt 0.712963 1.000000
vt 0.703704 0.000000
vt 0.722222 1.000000
vt 0.712963 0.000000
vt 0.731481 1.000000
vt 0.722222 0.000000
vt 0.740741 1.000000
vt 0.731481 0.000000
vt 0.750000 1.000000
vt 0.740741 0.000000
vt 0.759259 1.000000
vt 0.750000 0.000000
vt 0.768519 1.000000
vt 0.759259 0.000000
vt 0.777778 1.000000
vt 0.768519 0.000000
vt 0.787037 1.000000
vt 0.777778 0.000000
vt 0.796296 1.000000
vt 0.787037 0.000000
vt 0.805556 1.000000
vt 0.796296 0.000000
vt 0.814815 1.000000
vt 0.805556 0.000000
vt 0.824074 1.000000
vt 0.814815 0.000000
vt 0.833333 1.000000
vt 0.824074 0.000000
vt 0.842593 1.000000
vt 0.833333 0.000000
vt 0.851852 1.000000
vt 0.842593 0.000000
vt 0.861111 1.000000
vt 0.851852 0.000000
vt 0.870370 1.000000
vt 0.861111 0.000000
vt 0.879630 1.000000
vt 0.870370 0.000000
vt 0.888889 1.000000
vt 0.879630 0.000000
vt 0.898148 1.000000
vt 0.888889 0.000000
vt 0.907407 1.000000
vt 0.898148 0.000000
vt 0.916667 1.000000
vt 0.907407 0.000000
vt 0.925926 1.000000
vt 0.916667 0.000000
vt 0.935185 1.000000
vt 0.925926 0.000000
vt 0.944444 1.000000
vt 0.935185 0.000000
vt 0.953704 1.000000
vt 0.944444 0.000000
vt 0.962963 1.000000
vt 0.953704 0.000000
vt 0.972222 1.000000
vt 0.962963 0.000000
vt 0.981481 1.000000
vt 0.972222 0.000000
vt 0.990741 1.000000
vt 0.981481 0.000000
vt 1.000000 1.000000
vt 0.990741 0.000000
s 1
f 12/1/1 14/2/1 13/3/1
f 11/4/1 14/2/1 12/1/1
f 11/4/1 15/5/1 14/2/1
f 10/6/1 15/5/1 11/4/1
f 10/6/1 16/7/1 15/5/1
f 9/8/1 16/7/1 10/6/1
f 9/8/1 17/9/1 16/7/1
f 8/10/1 17/9/1 9/8/1
f 8/10/1 18/11/1 17/9/1
f 7/12/1 18/11/1 8/10/1
f 7/12/1 19/13/1 18/11/1
f 6/14/1 19/13/1 7/12/1
f 6/14/1 20/15/1 19/13/1
f 5/16/1 20/15/1 6/14/1
f 5/16/1 21/17/1 20/15/1
f 4/18/1 21/17/1 5/16/1
f 4/18/1 22/19/1 21/17/1
f 3/20/1 22/19/1 4/18/1
f 3/20/1 23/21/1 22/19/1
f 2/22/1 23/21/1 3/20/1
f 2/22/1 24/23/1 23/21/1
f 1/24/1 24/23/1 2/22/1
f 1/24/1 25/25/1 24/23/1
f 108/26/1 25/25/1 1/24/1
f 108/26/1 26/27/1 25/25/1
f 107/28/1 26/27/1 108/26/1
f 107/28/1 27/29/1 26/27/1
f 106/30/1 27/29/1 107/28/1
f 106/30/1 28/31/1 27/29/1
f 105/32/1 28/31/1 106/30/1
f 105/32/1 29/33/1 28/31/1
f 104/34/1 29/33/1 105/32/1
f 104/34/1 30/35/1 29/33/1
f 103/36/1 30/35/1 104/34/1
f 103/36/1 31/37/1 30/35/1
f 102/38/1 31/37/1 103/36/1
f 102/38/1 32/39/1 31/37/1
f 101/40/1 32/39/1 102/38/1
f 101/40/1 33/41/1 32/39/1
f 100/42/1 33/41/1 101/40/1
f 100/42/1 34/43/1 33/41/1
f 99/44/1 34/43/1 100/42/1
f 99/44/1 35/45/1 34/43/1
f 98/46/1 35/45/1 99/44/1
f 98/46/1 36/47/1 35/45/1
f 97/48/1 36/47/1 98/46/1
f 97/48/1 37/49/1 36/47/1
f 96/50/1 37/49/1 97/48/1
f 96/50/1 38/51/1 37/49/1
f 96/50/1 39/52/1 38/51/1
f 96/50/1 40/53/1 39/52/1
f 95/54/1 40/53/1 96/50/1
f 95/54/1 41/55/1 40/53/1
f 94/56/1 41/55/1 95/54/1
f 94/56/1 42/57/1 41/55/1
f 93/58/1 42/57/1 94/56/1
f 93/58/1 43/59/1 42/57/1
f 92/60/1 43/59/1 93/58/1
f 92/60/1 44/61/1 43/59/1
f 91/62/1 44/61/1 92/60/1
f 91/62/1 45/63/1 44/61/1
f 90/64/1 45/63/1 91/62/1
f 90/64/1 46/65/1 45/63/1
f 89/66/1 46/65/1 90/64/1
f 88/67/1 46/65/1 89/66/1
f 88/67/1 47/68/1 46/65/1
f 87/69/1 47/68/1 88/67/1
f 86/70/1 47/68/1 87/69/1
f 85/71/1 47/68/1 86/70/1
f 84/72/1 47/68/1 85/71/1
f 84/72/1 48/73/1 47/68/1
f 83/74/1 48/73/1 84/72/1
f 83/74/1 49/75/1 48/73/1
f 82/76/1 49/75/1 83/74/1
f 82/76/1 50/77/1 49/75/1
f 81/78/1 50/77/1 82/76/1
f 80/79/1 50/77/1 81/78/1
f 80/79/1 51/80/1 50/77/1
f 79/81/1 51/80/1 80/79/1
f 79/81/1 52/82/1 51/80/1
f 78/83/1 52/82/1 79/81/1
f 78/83/1 53/84/1 52/82/1
f 77/85/1 53/84/1 78/83/1
f 77/85/1 54/86/1 53/84/1
f 76/87/1 54/86/1 77/85/1
f 75/88/1 54/86/1 76/87/1
f 75/88/1 55/89/1 54/86/1
f 74/90/1 55/89/1 75/88/1
f 74/90/1 56/91/1 55/89/1
f 73/92/1 56/91/1 74/90/1
f 73/92/1 57/93/1 56/91/1
f 72/94/1 57/93/1 73/92/1
f 71/95/1 57/93/1 72/94/1
f 71/95/1 58/96/1 57/93/1
f 70/97/1 58/96/1 71/95/1
f 69/98/1 58/96/1 70/97/1
f 68/99/1 58/96/1 69/98/1
f 68/99/1 59/100/1 58/96/1
f 67/101/1 59/100/1 68/99/1
f 66/102/1 59/100/1 67/101/1
f 66/102/1 60/103/1 59/100/1
f 65/104/1 60/103/1 66/102/1
f 64/105/1 60/103/1 65/104/1
f 63/106/1 60/103/1 64/105/1
f 63/106/1 62/107/1 60/103/1
f 62/107/1 61/108/1 60/103/1
f 120/1/2 121/3/2 122/2/2
f 119/4/2 120/1/2 122/2/2
f 119/4/2 122/2/2 123/5/2
f 118/6/2 119/4/2 123/5/2
f 118/6/2 123/5/2 124/7/2
f 117/8/2 118/6/2 124/7/2
f 117/8/2 124/7/2 125/9/2
f 116/10/2 117/8/2 125/9/2
f 116/10/2 125/9/2 126/11/2
f 115/12/2 116/10/2 126/11/2
f 115/12/2 126/11/2 127/13/2
f 114/14/2 115/12/2 127/13/2
f 114/14/2 127/13/2 128/15/2
f 113/16/2 114/14/2 128/15/2
f 113/16/2 128/15/2 129/17/2
f 112/18/2 113/16/2 129/17/2
f 112/18/2 129/17/2 130/19/2
f 111/20/2 112/18/2 130/19/2
f 111/20/2 130/19/2 131/21/2
f 110/22/2 111/20/2 131/21/2
f 110/22/2 131/21/2 132/23/2
f 109/24/2 110/22/2 132/23/2
f 109/24/2 132/23/2 133/25/2
f 216/26/2 109/24/2 133/25/2
f 216/26/2 133/25/2 134/27/2
f 215/28/2 216/26/2 134/27/2
f 215/28/2 134/27/2 135/29/2
f 214/30/2 215/28/2 135/29/2
f 214/30/2 135/29/2 136/31/2
f 213/32/2 214/30/2 136/31/2
f 213/32/2 136/31/2 137/33/2
f 212/34/2 213/32/2 137/33/2
f 212/34/2 137/33/2 138/35/2
f 211/36/2 212/34/2 138/35/2
f 211/36/2 138/35/2 139/37/2
f 210/38/2 211/36/2 139/37/2
f 210/38/2 139/37/2 140/39/2
f 209/40/2 210/38/2 140/39/2
f 209/40/2 140/39/2 141/41/2
f 208/42/2 209/40/2 141/41/2
f 208/42/2 141/41/2 142/43/2
f 207/44/2 208/42/2 142/43/2
f 207/44/2 142/43/2 143/45/2
f 206/46/2 207/44/2 143/45/2
f 206/46/2 143/45/2 144/47/2
f 205/48/2 206/46/2 144/47/2
f 205/48/2 144/47/2 145/49/2
f 204/50/2 205/48/2 145/49/2
f 204/50/2 145/49/2 146/51/2
f 204/50/2 146/51/2 147/52/2
f 204/50/2 147/52/2 148/53/2
f 203/54/2 204/50/2 148/53/2
f 203/54/2 148/53/2 149/55/2
f 202/56/2 203/54/2 149/55/2
f 202/56/2 149/55/2 150/57/2
f 201/58/2 202/56/2 150/57/2
f 201/58/2 150/57/2 151/59/2
f 200/60/2 201/58/2 151/59/2
f 200/60/2 151/59/2 152/61/2
f 199/62/2 200/60/2 152/61/2
f 199/62/2 152/61/2 153/63/2
f 198/64/2 199/62/2 153/63/2
f 198/64/2 153/63/2 154/65/2
f 197/66/2 198/64/2 154/65/2
f 196/67/2 197/66/2 154/65/2
f 196/67/2 154/65/2 155/68/2
f 195/69/2 196/67/2 155/68/2
f 194/70/2 195/69/2 155/68/2
f 193/71/2 194/70/2 155/68/2
f 192/72/2 193/71/2 155/68/2
f 192/72/2 155/68/2 156/73/2
f 191/74/2 192/72/2 156/73/2
f 191/74/2 156/73/2 157/75/2
f 190/76/2 191/74/2 157/75/2
f 190/76/2 157/75/2 158/77/2
f 189/78/2 190/76/2 158/77/2
f 188/79/2 189/78/2 158/77/2
f 188/79/2 158/77/2 159/80/2
f 187/81/2 188/79/2 159/80/2
f 187/81/2 159/80/2 160/82/2
f 186/83/2 187/81/2 160/82/2
f 186/83/2 160/82/2 161/84/2
f 185/85/2 186/83/2 161/84/2
f 185/85/2 161/84/2 162/86/2
f 184/87/2 185/85/2 162/86/2
f 183/88/2 184/87/2 162/86/2
f 183/88/2 162/86/2 163/89/2
f 182/90/2 183/88/2 163/89/2
f 182/90/2 163/89/2 164/91/2
f 181/92/2 182/90/2 164/91/2
f 181/92/2 164/91/2 165/93/2
f 180/94/2 181/92/2 165/93/2
f 179/95/2 180/94/2 165/93/2
f 179/95/2 165/93/2 166/96/2
f 178/97/2 179/95/2 166/96/2
f 177/98/2 178/97/2 166/96/2
f 176/99/2 177/98/2 166/96/2
f 176/99/2 166/96/2 167/100/2
f 175/101/2 176/99/2 167/100/2
f 174/102/2 175/101/2 167/100/2
f 174/102/2 167/100/2 168/103/2
f 173/104/2 174/102/2 168/103/2
f 172/105/2 173/104/2 168/103/2
f 171/106/2 172/105/2 168/103/2
f 171/106/2 168/103/2 170/107/2
f 170/107/2 168/103/2 169/108/2
f 220/109/3 217/24/4 218/110/4
f 222/111/5 219/112/3 220/109/3
f 224/113/6 221/114/5 222/111/5
f 226/115/7 223/116/6 224/113/6
f 228/117/8 225/118/7 226/115/7
f 230/119/9 227/120/8 228/117/8
f 232/121/10 229/122/9 230/119/9
f 234/123/11 231/124/10 232/121/10
f 236/125/12 233/126/11 234/123/11
f 238/127/13 235/128/12 236/125/12
f 240/129/14 237/130/13 238/127/13
f 242/131/15 239/132/14 240/129/14
f 244/133/16 241/134/17 242/131/15
f 246/135/18 243/136/16 244/133/16
f 248/137/19 245/138/18 246/135/18
f 250/139/20 247/140/19 248/137/19
f 252/141/21 249/142/20 250/139/20
f 254/143/22 251/144/21 252/141/21
f 256/145/23 253/146/22 254/143/22
f 258/147/24 255/148/23 256/145/23
f 260/149/25 257/150/24 258/147/24
f 262/151/26 259/152/25 260/149/25
f 264/153/27 261/154/26 262/151/26
f 266/155/28 263/156/27 264/153/27
f 268/157/29 265/158/28 266/155/28
f 270/159/30 267/160/29 268/157/29
f 272/161/31 269/162/30 270/159/30
f 274/163/32 271/164/31 272/161/31
f 276/165/33 273/166/32 274/163/32
f 278/167/34 275/168/33 276/165/33
f 280/169/35 277/170/34 278/167/34
f 282/171/36 279/172/35 280/169/35
f 284/173/37 281/174/36 282/171/36
f 286/175/38 283/176/37 284/173/37
f 288/177/39 285/178/38 286/175/38
f 290/179/40 287/180/39 288/177/39
f 292/181/41 289/182/40 290/179/40
f 294/183/42 291/184/41 292/181/41
f 296/185/43 293/186/42 294/183/42
f 298/187/44 295/188/43 296/185/43
f 300/189/45 297/190/44 298/187/44
f 302/191/46 299/192/45 300/189/45
f 304/193/47 301/194/46 302/191/46
f 306/195/48 303/196/47 304/193/47
f 308/197/49 305/198/48 306/195/48
f 310/199/50 307/200/49 308/197/49
f 312/201/51 309/202/50 310/199/50
f 314/203/52 311/204/51 312/201/51
f 316/205/53 313/206/52 314/203/52
f 318/207/54 315/208/53 316/205/53
f 320/209/55 317/210/54 318/207/54
f 322/211/56 319/212/55 320/209/55
f 324/213/57 321/214/56 322/211/56
f 326/215/58 323/216/57 324/213/57
f 328/217/59 325/218/58 326/215/58
f 330/219/60 327/220/59 328/217/59
f 332/221/61 329/222/60 330/219/60
f 334/223/62 331/224/61 332/221/61
f 336/225/63 333/226/62 334/223/62
f 338/227/64 335/228/63 336/225/63
f 340/229/65 337/230/64 338/227/64
f 342/231/66 339/232/65 340/229/65
f 344/233/67 341/234/66 342/231/66
f 346/235/68 343/236/67 344/233/67
f 348/237/69 345/238/68 346/235/68
f 350/239/70 347/240/69 348/237/69
f 352/241/71 349/242/70 350/239/70
f 354/243/72 351/244/71 352/241/71
f 356/245/73 353/246/72 354/243/72
f 358/247/74 355/248/73 356/245/73
f 360/249/75 357/250/74 358/247/74
f 362/251/76 359/252/75 360/249/75
f 364/253/77 361/254/76 362/251/76
f 366/255/78 363/256/77 364/253/77
f 368/257/79 365/258/78 366/255/78
f 370/259/80 367/260/79 368/257/79
f 372/261/81 369/262/80 370/259/80
f 374/263/82 371/264/83 372/261/81
f 376/265/84 373/266/82 374/263/82
f 378/267/85 375/268/84 376/265/84
f 380/269/86 377/270/85 378/267/85
f 382/271/87 379/272/86 380/269/86
f 384/273/88 381/274/87 382/271/87
f 386/275/89 383/276/88 384/273/88
f 388/277/90 385/278/89 386/275/89
f 390/279/91 387/280/90 388/277/90
f 392/281/92 389/282/91 390/279/91
f 394/283/93 391/284/92 392/281/92
f 396/285/94 393/286/93 394/283/93
f 398/287/95 395/288/94 396/285/94
f 400/289/96 397/290/95 398/287/95
f 402/291/97 399/292/96 400/289/96
f 404/293/98 401/294/97 402/291/97
f 406/295/99 403/296/98 404/293/98
f 408/297/100 405/298/99 406/295/99
f 410/299/101 407/300/100 408/297/100
f 412/301/102 409/302/103 410/299/101
f 414/303/104 411/304/102 412/301/102
f 416/305/105 413/306/104 414/303/104
f 418/307/106 415/308/105 416/305/105
f 420/309/107 417/310/106 418/307/106
f 422/311/108 419/312/107 420/309/107
f 424/313/109 421/314/108 422/311/108
f 426/315/110 423/316/109 424/313/109
f 428/317/111 425/318/110 426/315/110
f 430/319/112 427/320/111 428/317/111
f 432/321/113 429/322/112 430/319/112
f 218/323/4 431/324/113 432/321/113
f 220/109/3 219/112/3 217/24/4
f 222/111/5 221/114/5 219/112/3
f 224/113/6 223/116/6 221/114/5
f 226/115/7 225/118/7 223/116/6
f 228/117/8 227/120/8 225/118/7
f 230/119/9 229/122/9 227/120/8
f 232/121/10 231/124/10 229/122/9
f 234/123/11 233/126/11 231/124/10
f 236/125/12 235/128/12 233/126/11
f 238/127/13 237/130/13 235/128/12
f 240/129/14 239/132/14 237/130/13
f 242/131/15 241/134/17 239/132/14
f 244/133/16 243/136/16 241/134/17
f 246/135/18 245/138/18 243/136/16
f 248/137/19 247/140/19 245/138/18
f 250/139/20 249/142/20 247/140/19
f 252/141/21 251/144/21 249/142/20
f 254/143/22 253/146/22 251/144/21
f 256/145/23 255/148/23 253/146/22
f 258/147/24 257/150/24 255/148/23
f 260/149/25 259/152/25 257/150/24
f 262/151/26 261/154/26 259/152/25
f 264/153/27 263/156/27 261/154/26
f 266/155/28 265/158/28 263/156/27
f 268/157/29 267/160/29 265/158/28
f 270/159/30 269/162/30 267/160/29
f 272/161/31 271/164/31 269/162/30
f 274/163/32 273/166/32 271/164/31
f 276/165/33 275/168/33 273/166/32
f 278/167/34 277/170/34 275/168/33
f 280/169/35 279/172/35 277/170/34
f 282/171/36 281/174/36 279/172/35
f 284/173/37 283/176/37 281/174/36
f 286/175/38 285/178/38 283/176/37
f 288/177/39 287/180/39 285/178/38
f 290/179/40 289/182/40 287/180/39
f 292/181/41 291/184/41 289/182/40
f 294/183/42 293/186/42 291/184/41
f 296/185/43 295/188/43 293/186/42
f 298/187/44 297/190/44 295/188/43
f 300/189/45 299/192/45 297/190/44
f 302/191/46 301/194/46 299/192/45
f 304/193/47 303/196/47 301/194/46
f 306/195/48 305/198/48 303/196/47
f 308/197/49 307/200/49 305/198/48
f 310/199/50 309/202/50 307/200/49
f 312/201/51 311/204/51 309/202/50
f 314/203/52 313/206/52 311/204/51
f 316/205/53 315/208/53 313/206/52
f 318/207/54 317/210/54 315/208/53
f 320/209/55 319/212/55 317/210/54
f 322/211/56 321/214/56 319/212/55
f 324/213/57 323/216/57 321/214/56
f 326/215/58 325/218/58 323/216/57
f 328/217/59 327/220/59 325/218/58
f 330/219/60 329/222/60 327/220/59
f 332/221/61 331/224/61 329/222/60
f 334/223/62 333/226/62 331/224/61
f 336/225/63 335/228/63 333/226/62
f 338/227/64 337/230/64 335/228/63
f 340/229/65 339/232/65 337/230/64
f 342/231/66 341/234/66 339/232/65
f 344/233/67 343/236/67 341/234/66
f 346/235/68 345/238/68 343/236/67
f 348/237/69 347/240/69 345/238/68
f 350/239/70 349/242/70 347/240/69
f 352/241/71 351/244/71 349/242/70
f 354/243/72 353/246/72 351/244/71
f 356/245/73 355/248/73 353/246/72
f 358/247/74 357/250/74 355/248/73
f 360/249/75 359/252/75 357/250/74
f 362/251/76 361/254/76 359/252/75
f 364/253/77 363/256/77 361/254/76
f 366/255/78 365/258/78 363/256/77
f 368/257/79 367/260/79 365/258/78
f 370/259/80 369/262/80 367/260/79
f 372/261/81 371/264/83 369/262/80
f 374/263/82 373/266/82 371/264/83
f 376/265/84 375/268/84 373/266/82
f 378/267/85 377/270/85 375/268/84
f 380/269/86 379/272/86 377/270/85
f 382/271/87 381/274/87 379/272/86
f 384/273/88 383/276/88 381/274/87
f 386/275/89 385/278/89 383/276/88
f 388/277/90 387/280/90 385/278/89
f 390/279/91 389/282/91 387/280/90
f 392/281/92 391/284/92 389/282/91
f 394/283/93 393/286/93 391/284/92
f 396/285/94 395/288/94 393/286/93
f 398/287/95 397/290/95 395/288/94
f 400/289/96 399/292/96 397/290/95
f 402/291/97 401/294/97 399/292/96
f 404/293/98 403/296/98 401/294/97
f 406/295/99 405/298/99 403/296/98
f 408/297/100 407/300/100 405/298/99
f 410/299/101 409/302/103 407/300/100
f 412/301/102 411/304/102 409/302/103
f 414/303/104 413/306/104 411/304/102
f 416/305/105 415/308/105 413/306/104
f 418/307/106 417/310/106 415/308/105
f 420/309/107 419/312/107 417/310/106
f 422/311/108 421/314/108 419/312/107
f 424/313/109 423/316/109 421/314/108
f 426/315/110 425/318/110 423/316/109
f 428/317/111 427/320/111 425/318/110
f 430/319/112 429/322/112 427/320/111
f 432/321/113 431/324/113 429/322/112
f 218/323/4 217/26/4 431/324/113
