# Blender 4.4.1
# www.blender.org
mtllib frame.mtl
o Cube
v 3.000000 0.500000 -2.000000
v 2.715348 0.500000 -1.685372
v 3.000000 -0.500000 -2.000000
v 2.715348 -0.500000 -1.685372
v 3.000000 0.500000 2.000000
v 2.715348 0.500000 1.685372
v 3.000000 -0.500000 2.000000
v 2.715348 -0.500000 1.685372
v -3.000000 0.500000 -2.000000
v -2.715348 0.500000 -1.685372
v -3.000000 -0.500000 -2.000000
v -2.715348 -0.500000 -1.685372
v -3.000000 0.500000 2.000000
v -2.715348 0.500000 1.685372
v -3.000000 -0.500000 2.000000
v -2.715348 -0.500000 1.685372
vn -0.0000 1.0000 -0.0000
vn -0.0000 -0.0000 1.0000
vn -1.0000 -0.0000 -0.0000
vn -0.0000 -1.0000 -0.0000
vn 1.0000 -0.0000 -0.0000
vn -0.0000 -0.0000 -1.0000
vt 0.625000 0.750000
vt 0.625000 0.500000
vt 0.636861 0.519664
vt 0.636860 0.730336
vt 0.875000 0.500000
vt 0.875000 0.750000
vt 0.863139 0.730336
vt 0.863139 0.519664
vt 0.375000 0.750000
vt 0.625000 1.000000
vt 0.375000 1.000000
vt 0.375000 0.000000
vt 0.625000 0.000000
vt 0.625000 0.250000
vt 0.375000 0.250000
vt 0.125000 0.500000
vt 0.136861 0.519664
vt 0.136861 0.730336
vt 0.125000 0.750000
vt 0.375000 0.500000
vt 0.363139 0.730336
vt 0.363139 0.519664
s 0
usemtl Material
f 5/1/1 1/2/1 2/3/1 6/4/1
f 2/3/1 1/2/1 9/5/1 13/6/1 5/1/1 6/4/1 14/7/1 10/8/1
f 7/9/2 5/1/2 13/10/2 15/11/2
f 15/12/3 13/13/3 9/14/3 11/15/3
f 11/16/4 12/17/4 16/18/4 15/19/4
f 12/17/4 11/16/4 3/20/4 7/9/4 15/19/4 16/18/4 8/21/4 4/22/4
f 3/20/5 1/2/5 5/1/5 7/9/5
f 11/15/6 9/14/6 1/2/6 3/20/6
f 14/10/6 6/1/6 8/9/6 16/11/6
f 16/12/5 12/15/5 10/14/5 14/13/5
f 6/1/3 2/2/3 4/20/3 8/9/3
f 4/20/2 2/2/2 10/14/2 12/15/2
