# Blender 4.4.1
# www.blender.org
mtllib heart.mtl
o テキスト.002
v -1.151075 1.539353 -0.015609
v -1.140726 1.520488 -0.015609
v -1.130794 1.501474 -0.015609
v -1.121279 1.482311 -0.015609
v -1.112182 1.462999 -0.015609
v -1.103503 1.443537 -0.015609
v -1.095241 1.423927 -0.015609
v -1.087397 1.404167 -0.015609
v -1.079970 1.384259 -0.015609
v -1.072961 1.364201 -0.015609
v -1.066370 1.343994 -0.015609
v -1.060196 1.323637 -0.015609
v -1.054440 1.303132 -0.015609
v -1.048694 1.324141 -0.015609
v -1.042554 1.344933 -0.015609
v -1.036018 1.365509 -0.015609
v -1.029088 1.385869 -0.015609
v -1.021762 1.406013 -0.015609
v -1.014040 1.425940 -0.015609
v -1.005924 1.445651 -0.015609
v -0.997413 1.465146 -0.015609
v -0.988506 1.484425 -0.015609
v -0.979204 1.503487 -0.015609
v -0.969507 1.522333 -0.015609
v -0.959414 1.540963 -0.015609
v -0.948323 1.560339 -0.015609
v -0.935628 1.581422 -0.015609
v -0.921331 1.604213 -0.015609
v -0.905430 1.628711 -0.015609
v -0.887926 1.654917 -0.015609
v -0.868819 1.682830 -0.015609
v -0.848108 1.712451 -0.015609
v -0.825795 1.743779 -0.015609
v -0.801878 1.776815 -0.015609
v -0.776358 1.811558 -0.015609
v -0.749236 1.848009 -0.015609
v -0.720510 1.886167 -0.015609
v -0.699550 1.913928 -0.015609
v -0.679976 1.939943 -0.015609
v -0.661790 1.964214 -0.015609
v -0.644991 1.986740 -0.015609
v -0.629578 2.007521 -0.015609
v -0.615553 2.026557 -0.015609
v -0.602914 2.043849 -0.015609
v -0.591662 2.059396 -0.015609
v -0.581797 2.073197 -0.015609
v -0.573319 2.085255 -0.015609
v -0.566228 2.095567 -0.015609
v -0.560524 2.104134 -0.015609
v -0.552482 2.116575 -0.015609
v -0.544821 2.128845 -0.015609
v -0.537539 2.140943 -0.015609
v -0.530639 2.152870 -0.015609
v -0.524118 2.164625 -0.015609
v -0.517977 2.176208 -0.015609
v -0.512217 2.187621 -0.015609
v -0.506838 2.198861 -0.015609
v -0.501838 2.209930 -0.015609
v -0.497219 2.220828 -0.015609
v -0.492980 2.231554 -0.015609
v -0.489121 2.242109 -0.015609
v -0.485605 2.252589 -0.015609
v -0.482395 2.263091 -0.015609
v -0.479491 2.273616 -0.015609
v -0.476892 2.284163 -0.015609
v -0.474600 2.294733 -0.015609
v -0.472612 2.305325 -0.015609
v -0.470931 2.315939 -0.015609
v -0.469555 2.326575 -0.015609
v -0.468485 2.337234 -0.015609
v -0.467721 2.347916 -0.015609
v -0.467262 2.358619 -0.015609
v -0.467110 2.369346 -0.015609
v -0.467661 2.388941 -0.015609
v -0.469317 2.408000 -0.015609
v -0.472076 2.426522 -0.015609
v -0.475938 2.444507 -0.015609
v -0.480904 2.461955 -0.015609
v -0.486974 2.478866 -0.015609
v -0.494147 2.495240 -0.015609
v -0.502423 2.511078 -0.015609
v -0.511804 2.526378 -0.015609
v -0.522287 2.541142 -0.015609
v -0.533875 2.555369 -0.015609
v -0.546566 2.569059 -0.015609
v -0.560069 2.581922 -0.015609
v -0.574095 2.593666 -0.015609
v -0.588642 2.604291 -0.015609
v -0.603712 2.613798 -0.015609
v -0.619303 2.622187 -0.015609
v -0.635417 2.629457 -0.015609
v -0.652052 2.635608 -0.015609
v -0.669209 2.640641 -0.015609
v -0.686889 2.644556 -0.015609
v -0.705090 2.647352 -0.015609
v -0.723813 2.649030 -0.015609
v -0.743058 2.649589 -0.015609
v -0.762527 2.649007 -0.015609
v -0.781563 2.647263 -0.015609
v -0.800167 2.644355 -0.015609
v -0.818338 2.640283 -0.015609
v -0.836077 2.635049 -0.015609
v -0.853384 2.628651 -0.015609
v -0.870258 2.621090 -0.015609
v -0.886699 2.612366 -0.015609
v -0.902708 2.602479 -0.015609
v -0.918285 2.591429 -0.015609
v -0.933429 2.579215 -0.015609
v -0.948140 2.565838 -0.015609
v -0.958885 2.555034 -0.015609
v -0.969287 2.543379 -0.015609
v -0.979346 2.530875 -0.015609
v -0.989061 2.517520 -0.015609
v -0.998434 2.503316 -0.015609
v -1.007464 2.488261 -0.015609
v -1.016151 2.472356 -0.015609
v -1.024494 2.455602 -0.015609
v -1.032495 2.437997 -0.015609
v -1.040153 2.419542 -0.015609
v -1.047468 2.400238 -0.015609
v -1.054440 2.380083 -0.015609
v -1.060546 2.399902 -0.015609
v -1.067056 2.418916 -0.015609
v -1.073968 2.437124 -0.015609
v -1.081283 2.454528 -0.015609
v -1.089000 2.471126 -0.015609
v -1.097120 2.486919 -0.015609
v -1.105643 2.501906 -0.015609
v -1.114568 2.516088 -0.015609
v -1.123896 2.529465 -0.015609
v -1.133627 2.542037 -0.015609
v -1.143760 2.553803 -0.015609
v -1.154296 2.564764 -0.015609
v -1.169343 2.578484 -0.015609
v -1.184778 2.591011 -0.015609
v -1.200601 2.602345 -0.015609
v -1.216811 2.612486 -0.015609
v -1.233409 2.621433 -0.015609
v -1.250395 2.629188 -0.015609
v -1.267769 2.635750 -0.015609
v -1.285530 2.641118 -0.015609
v -1.303679 2.645294 -0.015609
v -1.322216 2.648277 -0.015609
v -1.341140 2.650066 -0.015609
v -1.360452 2.650663 -0.015609
v -1.379534 2.650107 -0.015609
v -1.398122 2.648441 -0.015609
v -1.416219 2.645663 -0.015609
v -1.433824 2.641775 -0.015609
v -1.450937 2.636775 -0.015609
v -1.467557 2.630664 -0.015609
v -1.483685 2.623443 -0.015609
v -1.499321 2.615110 -0.015609
v -1.514465 2.605667 -0.015609
v -1.529117 2.595112 -0.015609
v -1.543277 2.583447 -0.015609
v -1.556945 2.570670 -0.015609
v -1.569807 2.557125 -0.015609
v -1.581551 2.543155 -0.015609
v -1.592177 2.528761 -0.015609
v -1.601684 2.513941 -0.015609
v -1.610072 2.498696 -0.015609
v -1.617342 2.483027 -0.015609
v -1.623494 2.466932 -0.015609
v -1.628527 2.450412 -0.015609
v -1.632441 2.433467 -0.015609
v -1.635238 2.416098 -0.015609
v -1.636915 2.398303 -0.015609
v -1.637475 2.380083 -0.015609
v -1.637146 2.363921 -0.015609
v -1.636162 2.347647 -0.015609
v -1.634522 2.331262 -0.015609
v -1.632225 2.314764 -0.015609
v -1.629272 2.298155 -0.015609
v -1.625664 2.281434 -0.015609
v -1.621398 2.264601 -0.015609
v -1.616477 2.247656 -0.015609
v -1.610900 2.230600 -0.015609
v -1.604666 2.213431 -0.015609
v -1.597776 2.196151 -0.015609
v -1.590230 2.178759 -0.015609
v -1.581745 2.160860 -0.015609
v -1.572037 2.142058 -0.015609
v -1.561105 2.122354 -0.015609
v -1.548952 2.101748 -0.015609
v -1.535575 2.080240 -0.015609
v -1.520975 2.057830 -0.015609
v -1.505152 2.034517 -0.015609
v -1.488107 2.010302 -0.015609
v -1.469839 1.985185 -0.015609
v -1.450347 1.959166 -0.015609
v -1.429633 1.932245 -0.015609
v -1.407696 1.904421 -0.015609
v -1.379012 1.867929 -0.015609
v -1.351654 1.832541 -0.015609
v -1.325623 1.798256 -0.015609
v -1.300920 1.765074 -0.015609
v -1.277544 1.732997 -0.015609
v -1.255495 1.702023 -0.015609
v -1.234774 1.672152 -0.015609
v -1.215380 1.643385 -0.015609
v -1.197313 1.615722 -0.015609
v -1.180573 1.589162 -0.015609
v -1.165160 1.563706 -0.015609
v -1.151075 1.539353 -0.001609
v -1.140726 1.520488 -0.001609
v -1.130794 1.501474 -0.001609
v -1.121279 1.482311 -0.001609
v -1.112182 1.462999 -0.001609
v -1.103503 1.443537 -0.001609
v -1.095241 1.423927 -0.001609
v -1.087397 1.404167 -0.001609
v -1.079970 1.384259 -0.001609
v -1.072961 1.364201 -0.001609
v -1.066370 1.343994 -0.001609
v -1.060196 1.323637 -0.001609
v -1.054440 1.303132 -0.001609
v -1.048694 1.324141 -0.001609
v -1.042554 1.344933 -0.001609
v -1.036018 1.365509 -0.001609
v -1.029088 1.385869 -0.001609
v -1.021762 1.406013 -0.001609
v -1.014040 1.425940 -0.001609
v -1.005924 1.445651 -0.001609
v -0.997413 1.465146 -0.001609
v -0.988506 1.484425 -0.001609
v -0.979204 1.503487 -0.001609
v -0.969507 1.522333 -0.001609
v -0.959414 1.540963 -0.001609
v -0.948323 1.560339 -0.001609
v -0.935628 1.581422 -0.001609
v -0.921331 1.604213 -0.001609
v -0.905430 1.628711 -0.001609
v -0.887926 1.654917 -0.001609
v -0.868819 1.682830 -0.001609
v -0.848108 1.712451 -0.001609
v -0.825795 1.743779 -0.001609
v -0.801878 1.776815 -0.001609
v -0.776358 1.811558 -0.001609
v -0.749236 1.848009 -0.001609
v -0.720510 1.886167 -0.001609
v -0.699550 1.913928 -0.001609
v -0.679976 1.939943 -0.001609
v -0.661790 1.964214 -0.001609
v -0.644991 1.986740 -0.001609
v -0.629578 2.007521 -0.001609
v -0.615553 2.026557 -0.001609
v -0.602914 2.043849 -0.001609
v -0.591662 2.059396 -0.001609
v -0.581797 2.073197 -0.001609
v -0.573319 2.085255 -0.001609
v -0.566228 2.095567 -0.001609
v -0.560524 2.104134 -0.001609
v -0.552482 2.116575 -0.001609
v -0.544821 2.128845 -0.001609
v -0.537539 2.140943 -0.001609
v -0.530639 2.152870 -0.001609
v -0.524118 2.164625 -0.001609
v -0.517977 2.176208 -0.001609
v -0.512217 2.187621 -0.001609
v -0.506838 2.198861 -0.001609
v -0.501838 2.209930 -0.001609
v -0.497219 2.220828 -0.001609
v -0.492980 2.231554 -0.001609
v -0.489121 2.242109 -0.001609
v -0.485605 2.252589 -0.001609
v -0.482395 2.263091 -0.001609
v -0.479491 2.273616 -0.001609
v -0.476892 2.284163 -0.001609
v -0.474600 2.294733 -0.001609
v -0.472612 2.305325 -0.001609
v -0.470931 2.315939 -0.001609
v -0.469555 2.326575 -0.001609
v -0.468485 2.337234 -0.001609
v -0.467721 2.347916 -0.001609
v -0.467262 2.358619 -0.001609
v -0.467110 2.369346 -0.001609
v -0.467661 2.388941 -0.001609
v -0.469317 2.408000 -0.001609
v -0.472076 2.426522 -0.001609
v -0.475938 2.444507 -0.001609
v -0.480904 2.461955 -0.001609
v -0.486974 2.478866 -0.001609
v -0.494147 2.495240 -0.001609
v -0.502423 2.511078 -0.001609
v -0.511804 2.526378 -0.001609
v -0.522287 2.541142 -0.001609
v -0.533875 2.555369 -0.001609
v -0.546566 2.569059 -0.001609
v -0.560069 2.581922 -0.001609
v -0.574095 2.593666 -0.001609
v -0.588642 2.604291 -0.001609
v -0.603712 2.613798 -0.001609
v -0.619303 2.622187 -0.001609
v -0.635417 2.629457 -0.001609
v -0.652052 2.635608 -0.001609
v -0.669209 2.640641 -0.001609
v -0.686889 2.644556 -0.001609
v -0.705090 2.647352 -0.001609
v -0.723813 2.649030 -0.001609
v -0.743058 2.649589 -0.001609
v -0.762527 2.649007 -0.001609
v -0.781563 2.647263 -0.001609
v -0.800167 2.644355 -0.001609
v -0.818338 2.640283 -0.001609
v -0.836077 2.635049 -0.001609
v -0.853384 2.628651 -0.001609
v -0.870258 2.621090 -0.001609
v -0.886699 2.612366 -0.001609
v -0.902708 2.602479 -0.001609
v -0.918285 2.591429 -0.001609
v -0.933429 2.579215 -0.001609
v -0.948140 2.565838 -0.001609
v -0.958885 2.555034 -0.001609
v -0.969287 2.543379 -0.001609
v -0.979346 2.530875 -0.001609
v -0.989061 2.517520 -0.001609
v -0.998434 2.503316 -0.001609
v -1.007464 2.488261 -0.001609
v -1.016151 2.472356 -0.001609
v -1.024494 2.455602 -0.001609
v -1.032495 2.437997 -0.001609
v -1.040153 2.419542 -0.001609
v -1.047468 2.400238 -0.001609
v -1.054440 2.380083 -0.001609
v -1.060546 2.399902 -0.001609
v -1.067056 2.418916 -0.001609
v -1.073968 2.437124 -0.001609
v -1.081283 2.454528 -0.001609
v -1.089000 2.471126 -0.001609
v -1.097120 2.486919 -0.001609
v -1.105643 2.501906 -0.001609
v -1.114568 2.516088 -0.001609
v -1.123896 2.529465 -0.001609
v -1.133627 2.542037 -0.001609
v -1.143760 2.553803 -0.001609
v -1.154296 2.564764 -0.001609
v -1.169343 2.578484 -0.001609
v -1.184778 2.591011 -0.001609
v -1.200601 2.602345 -0.001609
v -1.216811 2.612486 -0.001609
v -1.233409 2.621433 -0.001609
v -1.250395 2.629188 -0.001609
v -1.267769 2.635750 -0.001609
v -1.285530 2.641118 -0.001609
v -1.303679 2.645294 -0.001609
v -1.322216 2.648277 -0.001609
v -1.341140 2.650066 -0.001609
v -1.360452 2.650663 -0.001609
v -1.379534 2.650107 -0.001609
v -1.398122 2.648441 -0.001609
v -1.416219 2.645663 -0.001609
v -1.433824 2.641775 -0.001609
v -1.450937 2.636775 -0.001609
v -1.467557 2.630664 -0.001609
v -1.483685 2.623443 -0.001609
v -1.499321 2.615110 -0.001609
v -1.514465 2.605667 -0.001609
v -1.529117 2.595112 -0.001609
v -1.543277 2.583447 -0.001609
v -1.556945 2.570670 -0.001609
v -1.569807 2.557125 -0.001609
v -1.581551 2.543155 -0.001609
v -1.592177 2.528761 -0.001609
v -1.601684 2.513941 -0.001609
v -1.610072 2.498696 -0.001609
v -1.617342 2.483027 -0.001609
v -1.623494 2.466932 -0.001609
v -1.628527 2.450412 -0.001609
v -1.632441 2.433467 -0.001609
v -1.635238 2.416098 -0.001609
v -1.636915 2.398303 -0.001609
v -1.637475 2.380083 -0.001609
v -1.637146 2.363921 -0.001609
v -1.636162 2.347647 -0.001609
v -1.634522 2.331262 -0.001609
v -1.632225 2.314764 -0.001609
v -1.629272 2.298155 -0.001609
v -1.625664 2.281434 -0.001609
v -1.621398 2.264601 -0.001609
v -1.616477 2.247656 -0.001609
v -1.610900 2.230600 -0.001609
v -1.604666 2.213431 -0.001609
v -1.597776 2.196151 -0.001609
v -1.590230 2.178759 -0.001609
v -1.581745 2.160860 -0.001609
v -1.572037 2.142058 -0.001609
v -1.561105 2.122354 -0.001609
v -1.548952 2.101748 -0.001609
v -1.535575 2.080240 -0.001609
v -1.520975 2.057830 -0.001609
v -1.505152 2.034517 -0.001609
v -1.488107 2.010302 -0.001609
v -1.469839 1.985185 -0.001609
v -1.450347 1.959166 -0.001609
v -1.429633 1.932245 -0.001609
v -1.407696 1.904421 -0.001609
v -1.379012 1.867929 -0.001609
v -1.351654 1.832541 -0.001609
v -1.325623 1.798256 -0.001609
v -1.300920 1.765074 -0.001609
v -1.277544 1.732997 -0.001609
v -1.255495 1.702023 -0.001609
v -1.234774 1.672152 -0.001609
v -1.215380 1.643385 -0.001609
v -1.197313 1.615722 -0.001609
v -1.180573 1.589162 -0.001609
v -1.165160 1.563706 -0.001609
v -1.151075 1.539353 -0.001609
v -1.151075 1.539353 -0.015609
v -1.140726 1.520488 -0.001609
v -1.140726 1.520488 -0.015609
v -1.130794 1.501474 -0.001609
v -1.130794 1.501474 -0.015609
v -1.121279 1.482311 -0.001609
v -1.121279 1.482311 -0.015609
v -1.112182 1.462999 -0.001609
v -1.112182 1.462999 -0.015609
v -1.103503 1.443537 -0.001609
v -1.103503 1.443537 -0.015609
v -1.095241 1.423927 -0.001609
v -1.095241 1.423927 -0.015609
v -1.087397 1.404167 -0.001609
v -1.087397 1.404167 -0.015609
v -1.079970 1.384259 -0.001609
v -1.079970 1.384259 -0.015609
v -1.072961 1.364201 -0.001609
v -1.072961 1.364201 -0.015609
v -1.066370 1.343994 -0.001609
v -1.066370 1.343994 -0.015609
v -1.060196 1.323637 -0.001609
v -1.060196 1.323637 -0.015609
v -1.054440 1.303132 -0.001609
v -1.054440 1.303132 -0.015609
v -1.048694 1.324141 -0.001609
v -1.048694 1.324141 -0.015609
v -1.042554 1.344933 -0.001609
v -1.042554 1.344933 -0.015609
v -1.036018 1.365509 -0.001609
v -1.036018 1.365509 -0.015609
v -1.029088 1.385869 -0.001609
v -1.029088 1.385869 -0.015609
v -1.021762 1.406013 -0.001609
v -1.021762 1.406013 -0.015609
v -1.014040 1.425940 -0.001609
v -1.014040 1.425940 -0.015609
v -1.005924 1.445651 -0.001609
v -1.005924 1.445651 -0.015609
v -0.997413 1.465146 -0.001609
v -0.997413 1.465146 -0.015609
v -0.988506 1.484425 -0.001609
v -0.988506 1.484425 -0.015609
v -0.979204 1.503487 -0.001609
v -0.979204 1.503487 -0.015609
v -0.969507 1.522333 -0.001609
v -0.969507 1.522333 -0.015609
v -0.959414 1.540963 -0.001609
v -0.959414 1.540963 -0.015609
v -0.948323 1.560339 -0.001609
v -0.948323 1.560339 -0.015609
v -0.935628 1.581422 -0.001609
v -0.935628 1.581422 -0.015609
v -0.921331 1.604213 -0.001609
v -0.921331 1.604213 -0.015609
v -0.905430 1.628711 -0.001609
v -0.905430 1.628711 -0.015609
v -0.887926 1.654917 -0.001609
v -0.887926 1.654917 -0.015609
v -0.868819 1.682830 -0.001609
v -0.868819 1.682830 -0.015609
v -0.848108 1.712451 -0.001609
v -0.848108 1.712451 -0.015609
v -0.825795 1.743779 -0.001609
v -0.825795 1.743779 -0.015609
v -0.801878 1.776815 -0.001609
v -0.801878 1.776815 -0.015609
v -0.776358 1.811558 -0.001609
v -0.776358 1.811558 -0.015609
v -0.749236 1.848009 -0.001609
v -0.749236 1.848009 -0.015609
v -0.720510 1.886167 -0.001609
v -0.720510 1.886167 -0.015609
v -0.699550 1.913928 -0.001609
v -0.699550 1.913928 -0.015609
v -0.679976 1.939943 -0.001609
v -0.679976 1.939943 -0.015609
v -0.661790 1.964214 -0.001609
v -0.661790 1.964214 -0.015609
v -0.644991 1.986740 -0.001609
v -0.644991 1.986740 -0.015609
v -0.629578 2.007521 -0.001609
v -0.629578 2.007521 -0.015609
v -0.615553 2.026557 -0.001609
v -0.615553 2.026557 -0.015609
v -0.602914 2.043849 -0.001609
v -0.602914 2.043849 -0.015609
v -0.591662 2.059396 -0.001609
v -0.591662 2.059396 -0.015609
v -0.581797 2.073197 -0.001609
v -0.581797 2.073197 -0.015609
v -0.573319 2.085255 -0.001609
v -0.573319 2.085255 -0.015609
v -0.566228 2.095567 -0.001609
v -0.566228 2.095567 -0.015609
v -0.560524 2.104134 -0.001609
v -0.560524 2.104134 -0.015609
v -0.552482 2.116575 -0.001609
v -0.552482 2.116575 -0.015609
v -0.544821 2.128845 -0.001609
v -0.544821 2.128845 -0.015609
v -0.537539 2.140943 -0.001609
v -0.537539 2.140943 -0.015609
v -0.530639 2.152870 -0.001609
v -0.530639 2.152870 -0.015609
v -0.524118 2.164625 -0.001609
v -0.524118 2.164625 -0.015609
v -0.517977 2.176208 -0.001609
v -0.517977 2.176208 -0.015609
v -0.512217 2.187621 -0.001609
v -0.512217 2.187621 -0.015609
v -0.506838 2.198861 -0.001609
v -0.506838 2.198861 -0.015609
v -0.501838 2.209930 -0.001609
v -0.501838 2.209930 -0.015609
v -0.497219 2.220828 -0.001609
v -0.497219 2.220828 -0.015609
v -0.492980 2.231554 -0.001609
v -0.492980 2.231554 -0.015609
v -0.489121 2.242109 -0.001609
v -0.489121 2.242109 -0.015609
v -0.485605 2.252589 -0.001609
v -0.485605 2.252589 -0.015609
v -0.482395 2.263091 -0.001609
v -0.482395 2.263091 -0.015609
v -0.479491 2.273616 -0.001609
v -0.479491 2.273616 -0.015609
v -0.476892 2.284163 -0.001609
v -0.476892 2.284163 -0.015609
v -0.474600 2.294733 -0.001609
v -0.474600 2.294733 -0.015609
v -0.472612 2.305325 -0.001609
v -0.472612 2.305325 -0.015609
v -0.470931 2.315939 -0.001609
v -0.470931 2.315939 -0.015609
v -0.469555 2.326575 -0.001609
v -0.469555 2.326575 -0.015609
v -0.468485 2.337234 -0.001609
v -0.468485 2.337234 -0.015609
v -0.467721 2.347916 -0.001609
v -0.467721 2.347916 -0.015609
v -0.467262 2.358619 -0.001609
v -0.467262 2.358619 -0.015609
v -0.467110 2.369346 -0.001609
v -0.467110 2.369346 -0.015609
v -0.467661 2.388941 -0.001609
v -0.467661 2.388941 -0.015609
v -0.469317 2.408000 -0.001609
v -0.469317 2.408000 -0.015609
v -0.472076 2.426522 -0.001609
v -0.472076 2.426522 -0.015609
v -0.475938 2.444507 -0.001609
v -0.475938 2.444507 -0.015609
v -0.480904 2.461955 -0.001609
v -0.480904 2.461955 -0.015609
v -0.486974 2.478866 -0.001609
v -0.486974 2.478866 -0.015609
v -0.494147 2.495240 -0.001609
v -0.494147 2.495240 -0.015609
v -0.502423 2.511078 -0.001609
v -0.502423 2.511078 -0.015609
v -0.511804 2.526378 -0.001609
v -0.511804 2.526378 -0.015609
v -0.522287 2.541142 -0.001609
v -0.522287 2.541142 -0.015609
v -0.533875 2.555369 -0.001609
v -0.533875 2.555369 -0.015609
v -0.546566 2.569059 -0.001609
v -0.546566 2.569059 -0.015609
v -0.560069 2.581922 -0.001609
v -0.560069 2.581922 -0.015609
v -0.574095 2.593666 -0.001609
v -0.574095 2.593666 -0.015609
v -0.588642 2.604291 -0.001609
v -0.588642 2.604291 -0.015609
v -0.603712 2.613798 -0.001609
v -0.603712 2.613798 -0.015609
v -0.619303 2.622187 -0.001609
v -0.619303 2.622187 -0.015609
v -0.635417 2.629457 -0.001609
v -0.635417 2.629457 -0.015609
v -0.652052 2.635608 -0.001609
v -0.652052 2.635608 -0.015609
v -0.669209 2.640641 -0.001609
v -0.669209 2.640641 -0.015609
v -0.686889 2.644556 -0.001609
v -0.686889 2.644556 -0.015609
v -0.705090 2.647352 -0.001609
v -0.705090 2.647352 -0.015609
v -0.723813 2.649030 -0.001609
v -0.723813 2.649030 -0.015609
v -0.743058 2.649589 -0.001609
v -0.743058 2.649589 -0.015609
v -0.762527 2.649007 -0.001609
v -0.762527 2.649007 -0.015609
v -0.781563 2.647263 -0.001609
v -0.781563 2.647263 -0.015609
v -0.800167 2.644355 -0.001609
v -0.800167 2.644355 -0.015609
v -0.818338 2.640283 -0.001609
v -0.818338 2.640283 -0.015609
v -0.836077 2.635049 -0.001609
v -0.836077 2.635049 -0.015609
v -0.853384 2.628651 -0.001609
v -0.853384 2.628651 -0.015609
v -0.870258 2.621090 -0.001609
v -0.870258 2.621090 -0.015609
v -0.886699 2.612366 -0.001609
v -0.886699 2.612366 -0.015609
v -0.902708 2.602479 -0.001609
v -0.902708 2.602479 -0.015609
v -0.918285 2.591429 -0.001609
v -0.918285 2.591429 -0.015609
v -0.933429 2.579215 -0.001609
v -0.933429 2.579215 -0.015609
v -0.948140 2.565838 -0.001609
v -0.948140 2.565838 -0.015609
v -0.958885 2.555034 -0.001609
v -0.958885 2.555034 -0.015609
v -0.969287 2.543379 -0.001609
v -0.969287 2.543379 -0.015609
v -0.979346 2.530875 -0.001609
v -0.979346 2.530875 -0.015609
v -0.989061 2.517520 -0.001609
v -0.989061 2.517520 -0.015609
v -0.998434 2.503316 -0.001609
v -0.998434 2.503316 -0.015609
v -1.007464 2.488261 -0.001609
v -1.007464 2.488261 -0.015609
v -1.016151 2.472356 -0.001609
v -1.016151 2.472356 -0.015609
v -1.024494 2.455602 -0.001609
v -1.024494 2.455602 -0.015609
v -1.032495 2.437997 -0.001609
v -1.032495 2.437997 -0.015609
v -1.040153 2.419542 -0.001609
v -1.040153 2.419542 -0.015609
v -1.047468 2.400238 -0.001609
v -1.047468 2.400238 -0.015609
v -1.054440 2.380083 -0.001609
v -1.054440 2.380083 -0.015609
v -1.060546 2.399902 -0.001609
v -1.060546 2.399902 -0.015609
v -1.067056 2.418916 -0.001609
v -1.067056 2.418916 -0.015609
v -1.073968 2.437124 -0.001609
v -1.073968 2.437124 -0.015609
v -1.081283 2.454528 -0.001609
v -1.081283 2.454528 -0.015609
v -1.089000 2.471126 -0.001609
v -1.089000 2.471126 -0.015609
v -1.097120 2.486919 -0.001609
v -1.097120 2.486919 -0.015609
v -1.105643 2.501906 -0.001609
v -1.105643 2.501906 -0.015609
v -1.114568 2.516088 -0.001609
v -1.114568 2.516088 -0.015609
v -1.123896 2.529465 -0.001609
v -1.123896 2.529465 -0.015609
v -1.133627 2.542037 -0.001609
v -1.133627 2.542037 -0.015609
v -1.143760 2.553803 -0.001609
v -1.143760 2.553803 -0.015609
v -1.154296 2.564764 -0.001609
v -1.154296 2.564764 -0.015609
v -1.169343 2.578484 -0.001609
v -1.169343 2.578484 -0.015609
v -1.184778 2.591011 -0.001609
v -1.184778 2.591011 -0.015609
v -1.200601 2.602345 -0.001609
v -1.200601 2.602345 -0.015609
v -1.216811 2.612486 -0.001609
v -1.216811 2.612486 -0.015609
v -1.233409 2.621433 -0.001609
v -1.233409 2.621433 -0.015609
v -1.250395 2.629188 -0.001609
v -1.250395 2.629188 -0.015609
v -1.267769 2.635750 -0.001609
v -1.267769 2.635750 -0.015609
v -1.285530 2.641118 -0.001609
v -1.285530 2.641118 -0.015609
v -1.303679 2.645294 -0.001609
v -1.303679 2.645294 -0.015609
v -1.322216 2.648277 -0.001609
v -1.322216 2.648277 -0.015609
v -1.341140 2.650066 -0.001609
v -1.341140 2.650066 -0.015609
v -1.360452 2.650663 -0.001609
v -1.360452 2.650663 -0.015609
v -1.379534 2.650107 -0.001609
v -1.379534 2.650107 -0.015609
v -1.398122 2.648441 -0.001609
v -1.398122 2.648441 -0.015609
v -1.416219 2.645663 -0.001609
v -1.416219 2.645663 -0.015609
v -1.433824 2.641775 -0.001609
v -1.433824 2.641775 -0.015609
v -1.450937 2.636775 -0.001609
v -1.450937 2.636775 -0.015609
v -1.467557 2.630664 -0.001609
v -1.467557 2.630664 -0.015609
v -1.483685 2.623443 -0.001609
v -1.483685 2.623443 -0.015609
v -1.499321 2.615110 -0.001609
v -1.499321 2.615110 -0.015609
v -1.514465 2.605667 -0.001609
v -1.514465 2.605667 -0.015609
v -1.529117 2.595112 -0.001609
v -1.529117 2.595112 -0.015609
v -1.543277 2.583447 -0.001609
v -1.543277 2.583447 -0.015609
v -1.556945 2.570670 -0.001609
v -1.556945 2.570670 -0.015609
v -1.569807 2.557125 -0.001609
v -1.569807 2.557125 -0.015609
v -1.581551 2.543155 -0.001609
v -1.581551 2.543155 -0.015609
v -1.592177 2.528761 -0.001609
v -1.592177 2.528761 -0.015609
v -1.601684 2.513941 -0.001609
v -1.601684 2.513941 -0.015609
v -1.610072 2.498696 -0.001609
v -1.610072 2.498696 -0.015609
v -1.617342 2.483027 -0.001609
v -1.617342 2.483027 -0.015609
v -1.623494 2.466932 -0.001609
v -1.623494 2.466932 -0.015609
v -1.628527 2.450412 -0.001609
v -1.628527 2.450412 -0.015609
v -1.632441 2.433467 -0.001609
v -1.632441 2.433467 -0.015609
v -1.635238 2.416098 -0.001609
v -1.635238 2.416098 -0.015609
v -1.636915 2.398303 -0.001609
v -1.636915 2.398303 -0.015609
v -1.637475 2.380083 -0.001609
v -1.637475 2.380083 -0.015609
v -1.637146 2.363921 -0.001609
v -1.637146 2.363921 -0.015609
v -1.636162 2.347647 -0.001609
v -1.636162 2.347647 -0.015609
v -1.634522 2.331262 -0.001609
v -1.634522 2.331262 -0.015609
v -1.632225 2.314764 -0.001609
v -1.632225 2.314764 -0.015609
v -1.629272 2.298155 -0.001609
v -1.629272 2.298155 -0.015609
v -1.625664 2.281434 -0.001609
v -1.625664 2.281434 -0.015609
v -1.621398 2.264601 -0.001609
v -1.621398 2.264601 -0.015609
v -1.616477 2.247656 -0.001609
v -1.616477 2.247656 -0.015609
v -1.610900 2.230600 -0.001609
v -1.610900 2.230600 -0.015609
v -1.604666 2.213431 -0.001609
v -1.604666 2.213431 -0.015609
v -1.597776 2.196151 -0.001609
v -1.597776 2.196151 -0.015609
v -1.590230 2.178759 -0.001609
v -1.590230 2.178759 -0.015609
v -1.581745 2.160860 -0.001609
v -1.581745 2.160860 -0.015609
v -1.572037 2.142058 -0.001609
v -1.572037 2.142058 -0.015609
v -1.561105 2.122354 -0.001609
v -1.561105 2.122354 -0.015609
v -1.548952 2.101748 -0.001609
v -1.548952 2.101748 -0.015609
v -1.535575 2.080240 -0.001609
v -1.535575 2.080240 -0.015609
v -1.520975 2.057830 -0.001609
v -1.520975 2.057830 -0.015609
v -1.505152 2.034517 -0.001609
v -1.505152 2.034517 -0.015609
v -1.488107 2.010302 -0.001609
v -1.488107 2.010302 -0.015609
v -1.469839 1.985185 -0.001609
v -1.469839 1.985185 -0.015609
v -1.450347 1.959166 -0.001609
v -1.450347 1.959166 -0.015609
v -1.429633 1.932245 -0.001609
v -1.429633 1.932245 -0.015609
v -1.407696 1.904421 -0.001609
v -1.407696 1.904421 -0.015609
v -1.379012 1.867929 -0.001609
v -1.379012 1.867929 -0.015609
v -1.351654 1.832541 -0.001609
v -1.351654 1.832541 -0.015609
v -1.325623 1.798256 -0.001609
v -1.325623 1.798256 -0.015609
v -1.300920 1.765074 -0.001609
v -1.300920 1.765074 -0.015609
v -1.277544 1.732997 -0.001609
v -1.277544 1.732997 -0.015609
v -1.255495 1.702023 -0.001609
v -1.255495 1.702023 -0.015609
v -1.234774 1.672152 -0.001609
v -1.234774 1.672152 -0.015609
v -1.215380 1.643385 -0.001609
v -1.215380 1.643385 -0.015609
v -1.197313 1.615722 -0.001609
v -1.197313 1.615722 -0.015609
v -1.180573 1.589162 -0.001609
v -1.180573 1.589162 -0.015609
v -1.165160 1.563706 -0.001609
v -1.165160 1.563706 -0.015609
vn -0.0000 -0.0000 -1.0000
vn -0.0000 -0.0000 1.0000
vn -0.8816 -0.4720 -0.0000
vn -0.8712 -0.4908 -0.0000
vn -0.8911 -0.4539 -0.0000
vn -0.9002 -0.4355 -0.0000
vn -0.9090 -0.4167 -0.0000
vn -0.9175 -0.3978 -0.0000
vn -0.9255 -0.3786 -0.0000
vn -0.9332 -0.3593 -0.0000
vn -0.9405 -0.3397 -0.0000
vn -0.9474 -0.3200 -0.0000
vn -0.9539 -0.3002 -0.0000
vn -0.9599 -0.2803 -0.0000
vn 0.0033 -1.0000 -0.0000
vn 0.9619 -0.2735 -0.0000
vn 0.0034 -1.0000 -0.0000
vn 0.9561 -0.2930 -0.0000
vn 0.9499 -0.3125 -0.0000
vn 0.9433 -0.3320 -0.0000
vn 0.9362 -0.3516 -0.0000
vn 0.9286 -0.3711 -0.0000
vn 0.9206 -0.3904 -0.0000
vn 0.9122 -0.4098 -0.0000
vn 0.9033 -0.4290 -0.0000
vn 0.8940 -0.4481 -0.0000
vn 0.8843 -0.4670 -0.0000
vn 0.8736 -0.4866 -0.0000
vn 0.8623 -0.5063 -0.0000
vn 0.8519 -0.5236 -0.0000
vn 0.8430 -0.5379 -0.0000
vn 0.8352 -0.5500 -0.0000
vn 0.8284 -0.5602 -0.0000
vn 0.8352 -0.5499 -0.0000
vn 0.8224 -0.5689 -0.0000
vn 0.8170 -0.5766 -0.0000
vn 0.8123 -0.5833 -0.0000
vn 0.8080 -0.5892 -0.0000
vn 0.8041 -0.5945 -0.0000
vn 0.8006 -0.5992 -0.0000
vn 0.7985 -0.6020 -0.0000
vn 0.7986 -0.6019 -0.0000
vn 0.7997 -0.6004 -0.0000
vn 0.8010 -0.5987 -0.0000
vn 0.8024 -0.5968 -0.0000
vn 0.8041 -0.5944 -0.0000
vn 0.8062 -0.5916 -0.0000
vn 0.8087 -0.5882 -0.0000
vn 0.8118 -0.5839 -0.0000
vn 0.8158 -0.5783 -0.0000
vn 0.8210 -0.5709 -0.0000
vn 0.8282 -0.5604 -0.0000
vn 0.8361 -0.5485 -0.0000
vn 0.8441 -0.5363 -0.0000
vn 0.8525 -0.5227 -0.0000
vn 0.8612 -0.5083 -0.0000
vn 0.8701 -0.4930 -0.0000
vn 0.8790 -0.4768 -0.0000
vn 0.8701 -0.4929 -0.0000
vn 0.8882 -0.4595 -0.0000
vn 0.8974 -0.4411 -0.0000
vn 0.9067 -0.4217 -0.0000
vn 0.9161 -0.4010 -0.0000
vn 0.9254 -0.3789 -0.0000
vn 0.9347 -0.3555 -0.0000
vn 0.9437 -0.3308 -0.0000
vn 0.9523 -0.3052 -0.0000
vn 0.9602 -0.2792 -0.0000
vn 0.9676 -0.2526 -0.0000
vn 0.9742 -0.2256 -0.0000
vn 0.9802 -0.1982 -0.0000
vn 0.9854 -0.1705 -0.0000
vn 0.9898 -0.1424 -0.0000
vn 0.9935 -0.1141 -0.0000
vn 0.9963 -0.0856 -0.0000
vn 0.9984 -0.0571 -0.0000
vn 0.9996 -0.0285 -0.0000
vn 1.0000 0.0070 -0.0000
vn 0.9984 0.0574 -0.0000
vn 0.9931 0.1170 -0.0000
vn 0.9839 0.1787 -0.0000
vn 0.9703 0.2420 -0.0000
vn 0.9520 0.3060 -0.0000
vn 0.9291 0.3698 -0.0000
vn 0.9017 0.4324 -0.0000
vn 0.8699 0.4932 -0.0000
vn 0.8344 0.5511 -0.0000
vn 0.7958 0.6056 -0.0000
vn 0.7547 0.6560 -0.0000
vn 0.7119 0.7023 -0.0000
vn 0.6662 0.7458 -0.0000
vn 0.6162 0.7876 -0.0000
vn 0.5620 0.8271 -0.0000
vn 0.5040 0.8637 -0.0000
vn 0.4428 0.8966 -0.0000
vn 0.3793 0.9253 -0.0000
vn 0.3143 0.9493 -0.0000
vn 0.2490 0.9685 -0.0000
vn 0.1841 0.9829 -0.0000
vn 0.1206 0.9927 -0.0000
vn 0.0592 0.9982 -0.0000
vn -0.0004 1.0000 -0.0000
vn -0.0606 0.9982 -0.0000
vn -0.1229 0.9924 -0.0000
vn -0.1867 0.9824 -0.0000
vn -0.2510 0.9680 -0.0000
vn -0.3151 0.9491 -0.0000
vn -0.3780 0.9258 -0.0000
vn -0.4391 0.8985 -0.0000
vn -0.4974 0.8675 -0.0000
vn -0.5523 0.8336 -0.0000
vn -0.6035 0.7974 -0.0000
vn -0.6506 0.7595 -0.0000
vn -0.6911 0.7227 -0.0000
vn -0.7278 0.6858 -0.0000
vn -0.7629 0.6465 -0.0000
vn -0.7942 0.6077 -0.0000
vn -0.8219 0.5697 -0.0000
vn -0.8463 0.5327 -0.0000
vn -0.8678 0.4970 -0.0000
vn -0.8865 0.4626 -0.0000
vn -0.9029 0.4298 -0.0000
vn -0.9171 0.3986 -0.0000
vn -0.9295 0.3689 -0.0000
vn -0.9402 0.3407 -0.0000
vn -0.9295 0.3688 -0.0000
vn 0.0171 0.9999 -0.0000
vn 0.9510 0.3092 -0.0000
vn 0.0168 0.9999 -0.0000
vn 0.9406 0.3395 -0.0000
vn 0.9285 0.3712 -0.0000
vn 0.9145 0.4046 -0.0000
vn 0.8982 0.4395 -0.0000
vn 0.8795 0.4759 -0.0000
vn 0.8580 0.5136 -0.0000
vn 0.8335 0.5525 -0.0000
vn 0.8058 0.5922 -0.0000
vn 0.7745 0.6325 -0.0000
vn 0.7396 0.6730 -0.0000
vn 0.6977 0.7164 -0.0000
vn 0.6522 0.7580 -0.0000
vn 0.6065 0.7951 -0.0000
vn 0.5566 0.8308 -0.0000
vn 0.5027 0.8645 -0.0000
vn 0.4452 0.8955 -0.0000
vn 0.3845 0.9231 -0.0000
vn 0.3215 0.9469 -0.0000
vn 0.2569 0.9664 -0.0000
vn 0.1917 0.9815 -0.0000
vn 0.1266 0.9920 -0.0000
vn 0.0625 0.9980 -0.0000
vn 0.0009 1.0000 -0.0000
vn -0.0592 0.9982 -0.0000
vn -0.1206 0.9927 -0.0000
vn -0.1838 0.9830 -0.0000
vn -0.2482 0.9687 -0.0000
vn -0.3130 0.9498 -0.0000
vn -0.3771 0.9262 -0.0000
vn -0.4397 0.8981 -0.0000
vn -0.5000 0.8660 -0.0000
vn -0.5571 0.8304 -0.0000
vn -0.6105 0.7920 -0.0000
vn -0.6597 0.7515 -0.0000
vn -0.7043 0.7099 -0.0000
vn -0.7456 0.6663 -0.0000
vn -0.7854 0.6190 -0.0000
vn -0.8236 0.5672 -0.0000
vn -0.8594 0.5113 -0.0000
vn -0.8921 0.4517 -0.0000
vn -0.9212 0.3892 -0.0000
vn -0.8922 0.4517 -0.0000
vn -0.9459 0.3244 -0.0000
vn -0.9660 0.2584 -0.0000
vn -0.9814 0.1921 -0.0000
vn -0.9920 0.1265 -0.0000
vn -0.9981 0.0623 -0.0000
vn -1.0000 0.0052 -0.0000
vn -0.9992 -0.0404 -0.0000
vn -0.9968 -0.0800 -0.0000
vn -0.9929 -0.1188 -0.0000
vn -0.9877 -0.1565 -0.0000
vn -0.9812 -0.1930 -0.0000
vn -0.9736 -0.2283 -0.0000
vn -0.9650 -0.2623 -0.0000
vn -0.9555 -0.2949 -0.0000
vn -0.9453 -0.3261 -0.0000
vn -0.9345 -0.3559 -0.0000
vn -0.9232 -0.3842 -0.0000
vn -0.9106 -0.4132 -0.0000
vn -0.8962 -0.4436 -0.0000
vn -0.8680 -0.4966 -0.0000
vn -0.8553 -0.5181 -0.0000
vn -0.8436 -0.5370 -0.0000
vn -0.8327 -0.5538 -0.0000
vn -0.8226 -0.5686 -0.0000
vn -0.8132 -0.5819 -0.0000
vn -0.8045 -0.5939 -0.0000
vn -0.7965 -0.6047 -0.0000
vn -0.7889 -0.6145 -0.0000
vn -0.7857 -0.6186 -0.0000
vn -0.7887 -0.6148 -0.0000
vn -0.7938 -0.6082 -0.0000
vn -0.7993 -0.6009 -0.0000
vn -0.8052 -0.5931 -0.0000
vn -0.8114 -0.5844 -0.0000
vn -0.8182 -0.5750 -0.0000
vn -0.8254 -0.5645 -0.0000
vn -0.8332 -0.5529 -0.0000
vn -0.8416 -0.5400 -0.0000
vn -0.8507 -0.5256 -0.0000
vn -0.8606 -0.5093 -0.0000
vt 0.704434 0.000000
vt 0.714286 0.000000
vt 0.709360 0.000000
vt 0.719212 0.000000
vt 0.699507 0.000000
vt 0.467980 0.000000
vt 0.477833 0.000000
vt 0.472906 0.000000
vt 0.463054 0.000000
vt 0.482759 0.000000
vt 0.724138 0.000000
vt 0.694581 0.000000
vt 0.458128 0.000000
vt 0.487685 0.000000
vt 0.729064 0.000000
vt 0.689655 0.000000
vt 0.453202 0.000000
vt 0.492611 0.000000
vt 0.733990 0.000000
vt 0.684729 0.000000
vt 0.448276 0.000000
vt 0.497537 0.000000
vt 0.738916 0.000000
vt 0.679803 0.000000
vt 0.443350 0.000000
vt 0.502463 0.000000
vt 0.743842 0.000000
vt 0.438424 0.000000
vt 0.674877 0.000000
vt 0.507389 0.000000
vt 0.748768 0.000000
vt 0.433498 0.000000
vt 0.669951 0.000000
vt 0.512315 0.000000
vt 0.753695 0.000000
vt 0.428571 0.000000
vt 0.665025 0.000000
vt 0.517241 0.000000
vt 0.758621 0.000000
vt 0.423645 0.000000
vt 0.522168 0.000000
vt 0.660098 0.000000
vt 0.763547 0.000000
vt 0.418719 0.000000
vt 0.527094 0.000000
vt 0.655172 0.000000
vt 0.768473 0.000000
vt 0.413793 0.000000
vt 0.532020 0.000000
vt 0.650246 0.000000
vt 0.773399 0.000000
vt 0.408867 0.000000
vt 0.536946 0.000000
vt 0.645320 0.000000
vt 0.778325 0.000000
vt 0.403941 0.000000
vt 0.541872 0.000000
vt 0.640394 0.000000
vt 0.546798 0.000000
vt 0.783251 0.000000
vt 0.635468 0.000000
vt 0.399015 0.000000
vt 0.551724 0.000000
vt 0.630542 0.000000
vt 0.788177 0.000000
vt 0.394089 0.000000
vt 0.556650 0.000000
vt 0.625616 0.000000
vt 0.793103 0.000000
vt 0.389163 0.000000
vt 0.561576 0.000000
vt 0.620690 0.000000
vt 0.798030 0.000000
vt 0.384236 0.000000
vt 0.566502 0.000000
vt 0.615764 0.000000
vt 0.802956 0.000000
vt 0.379310 0.000000
vt 0.571429 0.000000
vt 0.610837 0.000000
vt 0.807882 0.000000
vt 0.374384 0.000000
vt 0.576355 0.000000
vt 0.605911 0.000000
vt 0.812808 0.000000
vt 0.369458 0.000000
vt 0.581281 0.000000
vt 0.600985 0.000000
vt 0.817734 0.000000
vt 0.364532 0.000000
vt 0.586207 0.000000
vt 0.596059 0.000000
vt 0.822660 0.000000
vt 0.359606 0.000000
vt 0.591133 0.000000
vt 0.827586 0.000000
vt 0.354680 0.000000
vt 0.832512 0.000000
vt 0.349754 0.000000
vt 0.837438 0.000000
vt 0.344828 0.000000
vt 0.339901 0.000000
vt 0.842365 0.000000
vt 0.334975 0.000000
vt 0.847291 0.000000
vt 0.330049 0.000000
vt 0.325123 0.000000
vt 0.852217 0.000000
vt 0.320197 0.000000
vt 0.857143 0.000000
vt 0.315271 0.000000
vt 0.310345 0.000000
vt 0.862069 0.000000
vt 0.305419 0.000000
vt 0.866995 0.000000
vt 0.300493 0.000000
vt 0.295566 0.000000
vt 0.871921 0.000000
vt 0.290640 0.000000
vt 0.285714 0.000000
vt 0.876847 0.000000
vt 0.280788 0.000000
vt 0.881773 0.000000
vt 0.275862 0.000000
vt 0.270936 0.000000
vt 0.886699 0.000000
vt 0.266010 0.000000
vt 0.891626 0.000000
vt 0.261084 0.000000
vt 0.256158 0.000000
vt 0.896552 0.000000
vt 0.251232 0.000000
vt 0.901478 0.000000
vt 0.246305 0.000000
vt 0.241379 0.000000
vt 0.906404 0.000000
vt 0.236453 0.000000
vt 0.231527 0.000000
vt 0.911330 0.000000
vt 0.226601 0.000000
vt 0.221675 0.000000
vt 0.916256 0.000000
vt 0.216749 0.000000
vt 0.211823 0.000000
vt 0.921182 0.000000
vt 0.206897 0.000000
vt 0.926108 0.000000
vt 0.201970 0.000000
vt 0.931035 0.000000
vt 0.197044 0.000000
vt 0.192118 0.000000
vt 0.935961 0.000000
vt 0.187192 0.000000
vt 0.940887 0.000000
vt 0.182266 0.000000
vt 0.945813 0.000000
vt 0.177340 0.000000
vt 0.950739 0.000000
vt 0.172414 0.000000
vt 0.955665 0.000000
vt 0.167488 0.000000
vt 0.960591 0.000000
vt 0.162562 0.000000
vt 0.965517 0.000000
vt 0.157635 0.000000
vt 0.970443 0.000000
vt 0.152709 0.000000
vt 0.975369 0.000000
vt 0.147783 0.000000
vt 0.980296 0.000000
vt 0.142857 0.000000
vt 0.985222 0.000000
vt 0.137931 0.000000
vt 0.990148 0.000000
vt 0.133005 0.000000
vt 0.995074 0.000000
vt 0.128079 0.000000
vt 1.000000 0.000000
vt 0.123153 0.000000
vt 0.000000 0.000000
vt 0.118227 0.000000
vt 0.113300 0.000000
vt 0.004926 0.000000
vt 0.108374 0.000000
vt 0.009852 0.000000
vt 0.103448 0.000000
vt 0.014778 0.000000
vt 0.098522 0.000000
vt 0.019704 0.000000
vt 0.093596 0.000000
vt 0.024631 0.000000
vt 0.088670 0.000000
vt 0.029557 0.000000
vt 0.083744 0.000000
vt 0.034483 0.000000
vt 0.078818 0.000000
vt 0.039409 0.000000
vt 0.073892 0.000000
vt 0.044335 0.000000
vt 0.068966 0.000000
vt 0.049261 0.000000
vt 0.064039 0.000000
vt 0.054187 0.000000
vt 0.059113 0.000000
vt 0.004902 1.000000
vt 0.000000 1.000000
vt 0.009804 1.000000
vt 0.004902 0.000000
vt 0.014706 1.000000
vt 0.009804 0.000000
vt 0.019608 1.000000
vt 0.014706 0.000000
vt 0.024510 1.000000
vt 0.019608 0.000000
vt 0.029412 1.000000
vt 0.024510 0.000000
vt 0.034314 1.000000
vt 0.029412 0.000000
vt 0.039216 1.000000
vt 0.034314 0.000000
vt 0.044118 1.000000
vt 0.039216 0.000000
vt 0.049020 1.000000
vt 0.044118 0.000000
vt 0.053922 1.000000
vt 0.049020 0.000000
vt 0.058824 1.000000
vt 0.053922 0.000000
vt 0.063725 1.000000
vt 0.058824 0.000000
vt 0.068627 1.000000
vt 0.063725 0.000000
vt 0.073529 1.000000
vt 0.068627 0.000000
vt 0.078431 1.000000
vt 0.073529 0.000000
vt 0.083333 1.000000
vt 0.078431 0.000000
vt 0.088235 1.000000
vt 0.083333 0.000000
vt 0.093137 1.000000
vt 0.088235 0.000000
vt 0.098039 1.000000
vt 0.093137 0.000000
vt 0.102941 1.000000
vt 0.098039 0.000000
vt 0.107843 1.000000
vt 0.102941 0.000000
vt 0.112745 1.000000
vt 0.107843 0.000000
vt 0.117647 1.000000
vt 0.112745 0.000000
vt 0.122549 1.000000
vt 0.117647 0.000000
vt 0.127451 1.000000
vt 0.122549 0.000000
vt 0.132353 1.000000
vt 0.127451 0.000000
vt 0.137255 1.000000
vt 0.132353 0.000000
vt 0.142157 1.000000
vt 0.137255 0.000000
vt 0.147059 1.000000
vt 0.142157 0.000000
vt 0.151961 1.000000
vt 0.147059 0.000000
vt 0.156863 1.000000
vt 0.151961 0.000000
vt 0.161765 1.000000
vt 0.156863 0.000000
vt 0.166667 1.000000
vt 0.161765 0.000000
vt 0.171569 1.000000
vt 0.166667 0.000000
vt 0.176471 1.000000
vt 0.171569 0.000000
vt 0.181373 1.000000
vt 0.176471 0.000000
vt 0.186275 1.000000
vt 0.181373 0.000000
vt 0.191176 1.000000
vt 0.186275 0.000000
vt 0.196078 1.000000
vt 0.191176 0.000000
vt 0.200980 1.000000
vt 0.196078 0.000000
vt 0.205882 1.000000
vt 0.200980 0.000000
vt 0.210784 1.000000
vt 0.205882 0.000000
vt 0.215686 1.000000
vt 0.210784 0.000000
vt 0.220588 1.000000
vt 0.215686 0.000000
vt 0.225490 1.000000
vt 0.220588 0.000000
vt 0.230392 1.000000
vt 0.225490 0.000000
vt 0.235294 1.000000
vt 0.230392 0.000000
vt 0.240196 1.000000
vt 0.235294 0.000000
vt 0.245098 1.000000
vt 0.240196 0.000000
vt 0.250000 1.000000
vt 0.245098 0.000000
vt 0.254902 1.000000
vt 0.250000 0.000000
vt 0.259804 1.000000
vt 0.254902 0.000000
vt 0.264706 1.000000
vt 0.259804 0.000000
vt 0.269608 1.000000
vt 0.264706 0.000000
vt 0.274510 1.000000
vt 0.269608 0.000000
vt 0.279412 1.000000
vt 0.274510 0.000000
vt 0.284314 1.000000
vt 0.279412 0.000000
vt 0.289216 1.000000
vt 0.284314 0.000000
vt 0.294118 1.000000
vt 0.289216 0.000000
vt 0.299020 1.000000
vt 0.294118 0.000000
vt 0.303922 1.000000
vt 0.299020 0.000000
vt 0.308824 1.000000
vt 0.303922 0.000000
vt 0.313726 1.000000
vt 0.308824 0.000000
vt 0.318627 1.000000
vt 0.313726 0.000000
vt 0.323529 1.000000
vt 0.318627 0.000000
vt 0.328431 1.000000
vt 0.323529 0.000000
vt 0.333333 1.000000
vt 0.328431 0.000000
vt 0.338235 1.000000
vt 0.333333 0.000000
vt 0.343137 1.000000
vt 0.338235 0.000000
vt 0.348039 1.000000
vt 0.343137 0.000000
vt 0.352941 1.000000
vt 0.348039 0.000000
vt 0.357843 1.000000
vt 0.352941 0.000000
vt 0.362745 1.000000
vt 0.357843 0.000000
vt 0.367647 1.000000
vt 0.362745 0.000000
vt 0.372549 1.000000
vt 0.367647 0.000000
vt 0.377451 1.000000
vt 0.372549 0.000000
vt 0.382353 1.000000
vt 0.377451 0.000000
vt 0.387255 1.000000
vt 0.382353 0.000000
vt 0.392157 1.000000
vt 0.387255 0.000000
vt 0.397059 1.000000
vt 0.392157 0.000000
vt 0.401961 1.000000
vt 0.397059 0.000000
vt 0.406863 1.000000
vt 0.401961 0.000000
vt 0.411765 1.000000
vt 0.406863 0.000000
vt 0.416667 1.000000
vt 0.411765 0.000000
vt 0.421569 1.000000
vt 0.416667 0.000000
vt 0.426471 1.000000
vt 0.421569 0.000000
vt 0.431373 1.000000
vt 0.426471 0.000000
vt 0.436274 1.000000
vt 0.431373 0.000000
vt 0.441176 1.000000
vt 0.436274 0.000000
vt 0.446078 1.000000
vt 0.441176 0.000000
vt 0.450980 1.000000
vt 0.446078 0.000000
vt 0.455882 1.000000
vt 0.450980 0.000000
vt 0.460784 1.000000
vt 0.455882 0.000000
vt 0.465686 1.000000
vt 0.460784 0.000000
vt 0.470588 1.000000
vt 0.465686 0.000000
vt 0.475490 1.000000
vt 0.470588 0.000000
vt 0.480392 1.000000
vt 0.475490 0.000000
vt 0.485294 1.000000
vt 0.480392 0.000000
vt 0.490196 1.000000
vt 0.485294 0.000000
vt 0.495098 1.000000
vt 0.490196 0.000000
vt 0.500000 1.000000
vt 0.495098 0.000000
vt 0.504902 1.000000
vt 0.500000 0.000000
vt 0.509804 1.000000
vt 0.504902 0.000000
vt 0.514706 1.000000
vt 0.509804 0.000000
vt 0.519608 1.000000
vt 0.514706 0.000000
vt 0.524510 1.000000
vt 0.519608 0.000000
vt 0.529412 1.000000
vt 0.524510 0.000000
vt 0.534314 1.000000
vt 0.529412 0.000000
vt 0.539216 1.000000
vt 0.534314 0.000000
vt 0.544118 1.000000
vt 0.539216 0.000000
vt 0.549020 1.000000
vt 0.544118 0.000000
vt 0.553922 1.000000
vt 0.549020 0.000000
vt 0.558824 1.000000
vt 0.553922 0.000000
vt 0.563725 1.000000
vt 0.558824 0.000000
vt 0.568627 1.000000
vt 0.563725 0.000000
vt 0.573529 1.000000
vt 0.568627 0.000000
vt 0.578431 1.000000
vt 0.573529 0.000000
vt 0.583333 1.000000
vt 0.578431 0.000000
vt 0.588235 1.000000
vt 0.583333 0.000000
vt 0.593137 1.000000
vt 0.588235 0.000000
vt 0.598039 1.000000
vt 0.593137 0.000000
vt 0.602941 1.000000
vt 0.598039 0.000000
vt 0.607843 1.000000
vt 0.602941 0.000000
vt 0.612745 1.000000
vt 0.607843 0.000000
vt 0.617647 1.000000
vt 0.612745 0.000000
vt 0.622549 1.000000
vt 0.617647 0.000000
vt 0.627451 1.000000
vt 0.622549 0.000000
vt 0.632353 1.000000
vt 0.627451 0.000000
vt 0.637255 1.000000
vt 0.632353 0.000000
vt 0.642157 1.000000
vt 0.637255 0.000000
vt 0.647059 1.000000
vt 0.642157 0.000000
vt 0.651961 1.000000
vt 0.647059 0.000000
vt 0.656863 1.000000
vt 0.651961 0.000000
vt 0.661765 1.000000
vt 0.656863 0.000000
vt 0.666667 1.000000
vt 0.661765 0.000000
vt 0.671569 1.000000
vt 0.666667 0.000000
vt 0.676471 1.000000
vt 0.671569 0.000000
vt 0.681373 1.000000
vt 0.676471 0.000000
vt 0.686275 1.000000
vt 0.681373 0.000000
vt 0.691176 1.000000
vt 0.686275 0.000000
vt 0.696078 1.000000
vt 0.691176 0.000000
vt 0.700980 1.000000
vt 0.696078 0.000000
vt 0.705882 1.000000
vt 0.700980 0.000000
vt 0.710784 1.000000
vt 0.705882 0.000000
vt 0.715686 1.000000
vt 0.710784 0.000000
vt 0.720588 1.000000
vt 0.715686 0.000000
vt 0.725490 1.000000
vt 0.720588 0.000000
vt 0.730392 1.000000
vt 0.725490 0.000000
vt 0.735294 1.000000
vt 0.730392 0.000000
vt 0.740196 1.000000
vt 0.735294 0.000000
vt 0.745098 1.000000
vt 0.740196 0.000000
vt 0.750000 1.000000
vt 0.745098 0.000000
vt 0.754902 1.000000
vt 0.750000 0.000000
vt 0.759804 1.000000
vt 0.754902 0.000000
vt 0.764706 1.000000
vt 0.759804 0.000000
vt 0.769608 1.000000
vt 0.764706 0.000000
vt 0.774510 1.000000
vt 0.769608 0.000000
vt 0.779412 1.000000
vt 0.774510 0.000000
vt 0.784314 1.000000
vt 0.779412 0.000000
vt 0.789216 1.000000
vt 0.784314 0.000000
vt 0.794118 1.000000
vt 0.789216 0.000000
vt 0.799020 1.000000
vt 0.794118 0.000000
vt 0.803922 1.000000
vt 0.799020 0.000000
vt 0.808824 1.000000
vt 0.803922 0.000000
vt 0.813725 1.000000
vt 0.808824 0.000000
vt 0.818627 1.000000
vt 0.813725 0.000000
vt 0.823529 1.000000
vt 0.818627 0.000000
vt 0.828431 1.000000
vt 0.823529 0.000000
vt 0.833333 1.000000
vt 0.828431 0.000000
vt 0.838235 1.000000
vt 0.833333 0.000000
vt 0.843137 1.000000
vt 0.838235 0.000000
vt 0.848039 1.000000
vt 0.843137 0.000000
vt 0.852941 1.000000
vt 0.848039 0.000000
vt 0.857843 1.000000
vt 0.852941 0.000000
vt 0.862745 1.000000
vt 0.857843 0.000000
vt 0.867647 1.000000
vt 0.862745 0.000000
vt 0.872549 1.000000
vt 0.867647 0.000000
vt 0.877451 1.000000
vt 0.872549 0.000000
vt 0.882353 1.000000
vt 0.877451 0.000000
vt 0.887255 1.000000
vt 0.882353 0.000000
vt 0.892157 1.000000
vt 0.887255 0.000000
vt 0.897059 1.000000
vt 0.892157 0.000000
vt 0.901961 1.000000
vt 0.897059 0.000000
vt 0.906863 1.000000
vt 0.901961 0.000000
vt 0.911765 1.000000
vt 0.906863 0.000000
vt 0.916667 1.000000
vt 0.911765 0.000000
vt 0.921569 1.000000
vt 0.916667 0.000000
vt 0.926471 1.000000
vt 0.921569 0.000000
vt 0.931373 1.000000
vt 0.926471 0.000000
vt 0.936275 1.000000
vt 0.931373 0.000000
vt 0.941176 1.000000
vt 0.936275 0.000000
vt 0.946078 1.000000
vt 0.941176 0.000000
vt 0.950980 1.000000
vt 0.946078 0.000000
vt 0.955882 1.000000
vt 0.950980 0.000000
vt 0.960784 1.000000
vt 0.955882 0.000000
vt 0.965686 1.000000
vt 0.960784 0.000000
vt 0.970588 1.000000
vt 0.965686 0.000000
vt 0.975490 1.000000
vt 0.970588 0.000000
vt 0.980392 1.000000
vt 0.975490 0.000000
vt 0.985294 1.000000
vt 0.980392 0.000000
vt 0.990196 1.000000
vt 0.985294 0.000000
vt 0.995098 1.000000
vt 0.990196 0.000000
vt 1.000000 1.000000
vt 0.995098 0.000000
s 1
f 144/1/1 146/2/1 145/3/1
f 144/1/1 147/4/1 146/2/1
f 143/5/1 147/4/1 144/1/1
f 96/6/1 98/7/1 97/8/1
f 95/9/1 98/7/1 96/6/1
f 95/9/1 99/10/1 98/7/1
f 143/5/1 148/11/1 147/4/1
f 142/12/1 148/11/1 143/5/1
f 94/13/1 99/10/1 95/9/1
f 94/13/1 100/14/1 99/10/1
f 142/12/1 149/15/1 148/11/1
f 141/16/1 149/15/1 142/12/1
f 93/17/1 100/14/1 94/13/1
f 93/17/1 101/18/1 100/14/1
f 141/16/1 150/19/1 149/15/1
f 140/20/1 150/19/1 141/16/1
f 92/21/1 101/18/1 93/17/1
f 92/21/1 102/22/1 101/18/1
f 140/20/1 151/23/1 150/19/1
f 139/24/1 151/23/1 140/20/1
f 91/25/1 102/22/1 92/21/1
f 91/25/1 103/26/1 102/22/1
f 139/24/1 152/27/1 151/23/1
f 90/28/1 103/26/1 91/25/1
f 138/29/1 152/27/1 139/24/1
f 90/28/1 104/30/1 103/26/1
f 138/29/1 153/31/1 152/27/1
f 89/32/1 104/30/1 90/28/1
f 137/33/1 153/31/1 138/29/1
f 89/32/1 105/34/1 104/30/1
f 137/33/1 154/35/1 153/31/1
f 88/36/1 105/34/1 89/32/1
f 136/37/1 154/35/1 137/33/1
f 88/36/1 106/38/1 105/34/1
f 136/37/1 155/39/1 154/35/1
f 87/40/1 106/38/1 88/36/1
f 87/40/1 107/41/1 106/38/1
f 135/42/1 155/39/1 136/37/1
f 135/42/1 156/43/1 155/39/1
f 86/44/1 107/41/1 87/40/1
f 86/44/1 108/45/1 107/41/1
f 134/46/1 156/43/1 135/42/1
f 134/46/1 157/47/1 156/43/1
f 85/48/1 108/45/1 86/44/1
f 85/48/1 109/49/1 108/45/1
f 133/50/1 157/47/1 134/46/1
f 133/50/1 158/51/1 157/47/1
f 84/52/1 109/49/1 85/48/1
f 84/52/1 110/53/1 109/49/1
f 132/54/1 158/51/1 133/50/1
f 132/54/1 159/55/1 158/51/1
f 83/56/1 110/53/1 84/52/1
f 83/56/1 111/57/1 110/53/1
f 131/58/1 159/55/1 132/54/1
f 83/56/1 112/59/1 111/57/1
f 131/58/1 160/60/1 159/55/1
f 130/61/1 160/60/1 131/58/1
f 82/62/1 112/59/1 83/56/1
f 82/62/1 113/63/1 112/59/1
f 129/64/1 160/60/1 130/61/1
f 129/64/1 161/65/1 160/60/1
f 81/66/1 113/63/1 82/62/1
f 81/66/1 114/67/1 113/63/1
f 128/68/1 161/65/1 129/64/1
f 128/68/1 162/69/1 161/65/1
f 80/70/1 114/67/1 81/66/1
f 80/70/1 115/71/1 114/67/1
f 127/72/1 162/69/1 128/68/1
f 127/72/1 163/73/1 162/69/1
f 79/74/1 115/71/1 80/70/1
f 79/74/1 116/75/1 115/71/1
f 126/76/1 163/73/1 127/72/1
f 126/76/1 164/77/1 163/73/1
f 78/78/1 116/75/1 79/74/1
f 78/78/1 117/79/1 116/75/1
f 125/80/1 164/77/1 126/76/1
f 125/80/1 165/81/1 164/77/1
f 77/82/1 117/79/1 78/78/1
f 77/82/1 118/83/1 117/79/1
f 124/84/1 165/81/1 125/80/1
f 124/84/1 166/85/1 165/81/1
f 76/86/1 118/83/1 77/82/1
f 76/86/1 119/87/1 118/83/1
f 123/88/1 166/85/1 124/84/1
f 123/88/1 167/89/1 166/85/1
f 75/90/1 119/87/1 76/86/1
f 75/90/1 120/91/1 119/87/1
f 122/92/1 167/89/1 123/88/1
f 122/92/1 168/93/1 167/89/1
f 74/94/1 120/91/1 75/90/1
f 74/94/1 121/95/1 120/91/1
f 121/95/1 168/93/1 122/92/1
f 121/95/1 169/96/1 168/93/1
f 73/97/1 121/95/1 74/94/1
f 73/97/1 169/96/1 121/95/1
f 73/97/1 170/98/1 169/96/1
f 72/99/1 170/98/1 73/97/1
f 72/99/1 171/100/1 170/98/1
f 71/101/1 171/100/1 72/99/1
f 70/102/1 171/100/1 71/101/1
f 70/102/1 172/103/1 171/100/1
f 69/104/1 172/103/1 70/102/1
f 69/104/1 173/105/1 172/103/1
f 68/106/1 173/105/1 69/104/1
f 67/107/1 173/105/1 68/106/1
f 67/107/1 174/108/1 173/105/1
f 66/109/1 174/108/1 67/107/1
f 66/109/1 175/110/1 174/108/1
f 65/111/1 175/110/1 66/109/1
f 64/112/1 175/110/1 65/111/1
f 64/112/1 176/113/1 175/110/1
f 63/114/1 176/113/1 64/112/1
f 63/114/1 177/115/1 176/113/1
f 62/116/1 177/115/1 63/114/1
f 61/117/1 177/115/1 62/116/1
f 61/117/1 178/118/1 177/115/1
f 60/119/1 178/118/1 61/117/1
f 59/120/1 178/118/1 60/119/1
f 59/120/1 179/121/1 178/118/1
f 58/122/1 179/121/1 59/120/1
f 58/122/1 180/123/1 179/121/1
f 57/124/1 180/123/1 58/122/1
f 56/125/1 180/123/1 57/124/1
f 56/125/1 181/126/1 180/123/1
f 55/127/1 181/126/1 56/125/1
f 55/127/1 182/128/1 181/126/1
f 54/129/1 182/128/1 55/127/1
f 53/130/1 182/128/1 54/129/1
f 53/130/1 183/131/1 182/128/1
f 52/132/1 183/131/1 53/130/1
f 52/132/1 184/133/1 183/131/1
f 51/134/1 184/133/1 52/132/1
f 50/135/1 184/133/1 51/134/1
f 50/135/1 185/136/1 184/133/1
f 49/137/1 185/136/1 50/135/1
f 48/138/1 185/136/1 49/137/1
f 48/138/1 186/139/1 185/136/1
f 47/140/1 186/139/1 48/138/1
f 46/141/1 186/139/1 47/140/1
f 46/141/1 187/142/1 186/139/1
f 45/143/1 187/142/1 46/141/1
f 44/144/1 187/142/1 45/143/1
f 44/144/1 188/145/1 187/142/1
f 43/146/1 188/145/1 44/144/1
f 43/146/1 189/147/1 188/145/1
f 42/148/1 189/147/1 43/146/1
f 42/148/1 190/149/1 189/147/1
f 41/150/1 190/149/1 42/148/1
f 40/151/1 190/149/1 41/150/1
f 40/151/1 191/152/1 190/149/1
f 39/153/1 191/152/1 40/151/1
f 39/153/1 192/154/1 191/152/1
f 38/155/1 192/154/1 39/153/1
f 38/155/1 193/156/1 192/154/1
f 37/157/1 193/156/1 38/155/1
f 37/157/1 194/158/1 193/156/1
f 36/159/1 194/158/1 37/157/1
f 36/159/1 195/160/1 194/158/1
f 35/161/1 195/160/1 36/159/1
f 35/161/1 196/162/1 195/160/1
f 34/163/1 196/162/1 35/161/1
f 34/163/1 197/164/1 196/162/1
f 33/165/1 197/164/1 34/163/1
f 33/165/1 198/166/1 197/164/1
f 32/167/1 198/166/1 33/165/1
f 32/167/1 199/168/1 198/166/1
f 31/169/1 199/168/1 32/167/1
f 31/169/1 200/170/1 199/168/1
f 30/171/1 200/170/1 31/169/1
f 30/171/1 201/172/1 200/170/1
f 29/173/1 201/172/1 30/171/1
f 29/173/1 202/174/1 201/172/1
f 28/175/1 202/174/1 29/173/1
f 28/175/1 203/176/1 202/174/1
f 27/177/1 203/176/1 28/175/1
f 27/177/1 204/178/1 203/176/1
f 26/179/1 204/178/1 27/177/1
f 26/179/1 1/180/1 204/178/1
f 25/181/1 1/180/1 26/179/1
f 24/182/1 1/180/1 25/181/1
f 24/182/1 2/183/1 1/180/1
f 23/184/1 2/183/1 24/182/1
f 23/184/1 3/185/1 2/183/1
f 22/186/1 3/185/1 23/184/1
f 22/186/1 4/187/1 3/185/1
f 21/188/1 4/187/1 22/186/1
f 21/188/1 5/189/1 4/187/1
f 20/190/1 5/189/1 21/188/1
f 20/190/1 6/191/1 5/189/1
f 19/192/1 6/191/1 20/190/1
f 19/192/1 7/193/1 6/191/1
f 18/194/1 7/193/1 19/192/1
f 18/194/1 8/195/1 7/193/1
f 17/196/1 8/195/1 18/194/1
f 17/196/1 9/197/1 8/195/1
f 16/198/1 9/197/1 17/196/1
f 16/198/1 10/199/1 9/197/1
f 15/200/1 10/199/1 16/198/1
f 15/200/1 11/201/1 10/199/1
f 14/202/1 11/201/1 15/200/1
f 14/202/1 12/203/1 11/201/1
f 13/204/1 12/203/1 14/202/1
f 348/1/2 349/3/2 350/2/2
f 348/1/2 350/2/2 351/4/2
f 347/5/2 348/1/2 351/4/2
f 300/6/2 301/8/2 302/7/2
f 299/9/2 300/6/2 302/7/2
f 299/9/2 302/7/2 303/10/2
f 347/5/2 351/4/2 352/11/2
f 346/12/2 347/5/2 352/11/2
f 298/13/2 299/9/2 303/10/2
f 298/13/2 303/10/2 304/14/2
f 346/12/2 352/11/2 353/15/2
f 345/16/2 346/12/2 353/15/2
f 297/17/2 298/13/2 304/14/2
f 297/17/2 304/14/2 305/18/2
f 345/16/2 353/15/2 354/19/2
f 344/20/2 345/16/2 354/19/2
f 296/21/2 297/17/2 305/18/2
f 296/21/2 305/18/2 306/22/2
f 344/20/2 354/19/2 355/23/2
f 343/24/2 344/20/2 355/23/2
f 295/25/2 296/21/2 306/22/2
f 295/25/2 306/22/2 307/26/2
f 343/24/2 355/23/2 356/27/2
f 294/28/2 295/25/2 307/26/2
f 342/29/2 343/24/2 356/27/2
f 294/28/2 307/26/2 308/30/2
f 342/29/2 356/27/2 357/31/2
f 293/32/2 294/28/2 308/30/2
f 341/33/2 342/29/2 357/31/2
f 293/32/2 308/30/2 309/34/2
f 341/33/2 357/31/2 358/35/2
f 292/36/2 293/32/2 309/34/2
f 340/37/2 341/33/2 358/35/2
f 292/36/2 309/34/2 310/38/2
f 340/37/2 358/35/2 359/39/2
f 291/40/2 292/36/2 310/38/2
f 291/40/2 310/38/2 311/41/2
f 339/42/2 340/37/2 359/39/2
f 339/42/2 359/39/2 360/43/2
f 290/44/2 291/40/2 311/41/2
f 290/44/2 311/41/2 312/45/2
f 338/46/2 339/42/2 360/43/2
f 338/46/2 360/43/2 361/47/2
f 289/48/2 290/44/2 312/45/2
f 289/48/2 312/45/2 313/49/2
f 337/50/2 338/46/2 361/47/2
f 337/50/2 361/47/2 362/51/2
f 288/52/2 289/48/2 313/49/2
f 288/52/2 313/49/2 314/53/2
f 336/54/2 337/50/2 362/51/2
f 336/54/2 362/51/2 363/55/2
f 287/56/2 288/52/2 314/53/2
f 287/56/2 314/53/2 315/57/2
f 335/58/2 336/54/2 363/55/2
f 287/56/2 315/57/2 316/59/2
f 335/58/2 363/55/2 364/60/2
f 334/61/2 335/58/2 364/60/2
f 286/62/2 287/56/2 316/59/2
f 286/62/2 316/59/2 317/63/2
f 333/64/2 334/61/2 364/60/2
f 333/64/2 364/60/2 365/65/2
f 285/66/2 286/62/2 317/63/2
f 285/66/2 317/63/2 318/67/2
f 332/68/2 333/64/2 365/65/2
f 332/68/2 365/65/2 366/69/2
f 284/70/2 285/66/2 318/67/2
f 284/70/2 318/67/2 319/71/2
f 331/72/2 332/68/2 366/69/2
f 331/72/2 366/69/2 367/73/2
f 283/74/2 284/70/2 319/71/2
f 283/74/2 319/71/2 320/75/2
f 330/76/2 331/72/2 367/73/2
f 330/76/2 367/73/2 368/77/2
f 282/78/2 283/74/2 320/75/2
f 282/78/2 320/75/2 321/79/2
f 329/80/2 330/76/2 368/77/2
f 329/80/2 368/77/2 369/81/2
f 281/82/2 282/78/2 321/79/2
f 281/82/2 321/79/2 322/83/2
f 328/84/2 329/80/2 369/81/2
f 328/84/2 369/81/2 370/85/2
f 280/86/2 281/82/2 322/83/2
f 280/86/2 322/83/2 323/87/2
f 327/88/2 328/84/2 370/85/2
f 327/88/2 370/85/2 371/89/2
f 279/90/2 280/86/2 323/87/2
f 279/90/2 323/87/2 324/91/2
f 326/92/2 327/88/2 371/89/2
f 326/92/2 371/89/2 372/93/2
f 278/94/2 279/90/2 324/91/2
f 278/94/2 324/91/2 325/95/2
f 325/95/2 326/92/2 372/93/2
f 325/95/2 372/93/2 373/96/2
f 277/97/2 278/94/2 325/95/2
f 277/97/2 325/95/2 373/96/2
f 277/97/2 373/96/2 374/98/2
f 276/99/2 277/97/2 374/98/2
f 276/99/2 374/98/2 375/100/2
f 275/101/2 276/99/2 375/100/2
f 274/102/2 275/101/2 375/100/2
f 274/102/2 375/100/2 376/103/2
f 273/104/2 274/102/2 376/103/2
f 273/104/2 376/103/2 377/105/2
f 272/106/2 273/104/2 377/105/2
f 271/107/2 272/106/2 377/105/2
f 271/107/2 377/105/2 378/108/2
f 270/109/2 271/107/2 378/108/2
f 270/109/2 378/108/2 379/110/2
f 269/111/2 270/109/2 379/110/2
f 268/112/2 269/111/2 379/110/2
f 268/112/2 379/110/2 380/113/2
f 267/114/2 268/112/2 380/113/2
f 267/114/2 380/113/2 381/115/2
f 266/116/2 267/114/2 381/115/2
f 265/117/2 266/116/2 381/115/2
f 265/117/2 381/115/2 382/118/2
f 264/119/2 265/117/2 382/118/2
f 263/120/2 264/119/2 382/118/2
f 263/120/2 382/118/2 383/121/2
f 262/122/2 263/120/2 383/121/2
f 262/122/2 383/121/2 384/123/2
f 261/124/2 262/122/2 384/123/2
f 260/125/2 261/124/2 384/123/2
f 260/125/2 384/123/2 385/126/2
f 259/127/2 260/125/2 385/126/2
f 259/127/2 385/126/2 386/128/2
f 258/129/2 259/127/2 386/128/2
f 257/130/2 258/129/2 386/128/2
f 257/130/2 386/128/2 387/131/2
f 256/132/2 257/130/2 387/131/2
f 256/132/2 387/131/2 388/133/2
f 255/134/2 256/132/2 388/133/2
f 254/135/2 255/134/2 388/133/2
f 254/135/2 388/133/2 389/136/2
f 253/137/2 254/135/2 389/136/2
f 252/138/2 253/137/2 389/136/2
f 252/138/2 389/136/2 390/139/2
f 251/140/2 252/138/2 390/139/2
f 250/141/2 251/140/2 390/139/2
f 250/141/2 390/139/2 391/142/2
f 249/143/2 250/141/2 391/142/2
f 248/144/2 249/143/2 391/142/2
f 248/144/2 391/142/2 392/145/2
f 247/146/2 248/144/2 392/145/2
f 247/146/2 392/145/2 393/147/2
f 246/148/2 247/146/2 393/147/2
f 246/148/2 393/147/2 394/149/2
f 245/150/2 246/148/2 394/149/2
f 244/151/2 245/150/2 394/149/2
f 244/151/2 394/149/2 395/152/2
f 243/153/2 244/151/2 395/152/2
f 243/153/2 395/152/2 396/154/2
f 242/155/2 243/153/2 396/154/2
f 242/155/2 396/154/2 397/156/2
f 241/157/2 242/155/2 397/156/2
f 241/157/2 397/156/2 398/158/2
f 240/159/2 241/157/2 398/158/2
f 240/159/2 398/158/2 399/160/2
f 239/161/2 240/159/2 399/160/2
f 239/161/2 399/160/2 400/162/2
f 238/163/2 239/161/2 400/162/2
f 238/163/2 400/162/2 401/164/2
f 237/165/2 238/163/2 401/164/2
f 237/165/2 401/164/2 402/166/2
f 236/167/2 237/165/2 402/166/2
f 236/167/2 402/166/2 403/168/2
f 235/169/2 236/167/2 403/168/2
f 235/169/2 403/168/2 404/170/2
f 234/171/2 235/169/2 404/170/2
f 234/171/2 404/170/2 405/172/2
f 233/173/2 234/171/2 405/172/2
f 233/173/2 405/172/2 406/174/2
f 232/175/2 233/173/2 406/174/2
f 232/175/2 406/174/2 407/176/2
f 231/177/2 232/175/2 407/176/2
f 231/177/2 407/176/2 408/178/2
f 230/179/2 231/177/2 408/178/2
f 230/179/2 408/178/2 205/180/2
f 229/181/2 230/179/2 205/180/2
f 228/182/2 229/181/2 205/180/2
f 228/182/2 205/180/2 206/183/2
f 227/184/2 228/182/2 206/183/2
f 227/184/2 206/183/2 207/185/2
f 226/186/2 227/184/2 207/185/2
f 226/186/2 207/185/2 208/187/2
f 225/188/2 226/186/2 208/187/2
f 225/188/2 208/187/2 209/189/2
f 224/190/2 225/188/2 209/189/2
f 224/190/2 209/189/2 210/191/2
f 223/192/2 224/190/2 210/191/2
f 223/192/2 210/191/2 211/193/2
f 222/194/2 223/192/2 211/193/2
f 222/194/2 211/193/2 212/195/2
f 221/196/2 222/194/2 212/195/2
f 221/196/2 212/195/2 213/197/2
f 220/198/2 221/196/2 213/197/2
f 220/198/2 213/197/2 214/199/2
f 219/200/2 220/198/2 214/199/2
f 219/200/2 214/199/2 215/201/2
f 218/202/2 219/200/2 215/201/2
f 218/202/2 215/201/2 216/203/2
f 217/204/2 218/202/2 216/203/2
f 412/205/3 409/180/4 410/206/4
f 414/207/5 411/208/3 412/205/3
f 416/209/6 413/210/5 414/207/5
f 418/211/7 415/212/6 416/209/6
f 420/213/8 417/214/7 418/211/7
f 422/215/9 419/216/8 420/213/8
f 424/217/10 421/218/9 422/215/9
f 426/219/11 423/220/10 424/217/10
f 428/221/12 425/222/11 426/219/11
f 430/223/13 427/224/12 428/221/12
f 432/225/14 429/226/13 430/223/13
f 434/227/15 431/228/14 432/225/14
f 436/229/16 433/230/17 434/227/15
f 438/231/18 435/232/16 436/229/16
f 440/233/19 437/234/18 438/231/18
f 442/235/20 439/236/19 440/233/19
f 444/237/21 441/238/20 442/235/20
f 446/239/22 443/240/21 444/237/21
f 448/241/23 445/242/22 446/239/22
f 450/243/24 447/244/23 448/241/23
f 452/245/25 449/246/24 450/243/24
f 454/247/26 451/248/25 452/245/25
f 456/249/27 453/250/26 454/247/26
f 458/251/28 455/252/27 456/249/27
f 460/253/29 457/254/28 458/251/28
f 462/255/30 459/256/29 460/253/29
f 464/257/31 461/258/30 462/255/30
f 466/259/32 463/260/31 464/257/31
f 468/261/33 465/262/34 466/259/32
f 470/263/35 467/264/33 468/261/33
f 472/265/36 469/266/35 470/263/35
f 474/267/37 471/268/36 472/265/36
f 476/269/38 473/270/37 474/267/37
f 478/271/39 475/272/38 476/269/38
f 480/273/40 477/274/39 478/271/39
f 482/275/41 479/276/40 480/273/40
f 484/277/42 481/278/41 482/275/41
f 486/279/43 483/280/42 484/277/42
f 488/281/44 485/282/43 486/279/43
f 490/283/45 487/284/44 488/281/44
f 492/285/46 489/286/45 490/283/45
f 494/287/47 491/288/46 492/285/46
f 496/289/48 493/290/47 494/287/47
f 498/291/49 495/292/48 496/289/48
f 500/293/50 497/294/49 498/291/49
f 502/295/51 499/296/50 500/293/50
f 504/297/52 501/298/51 502/295/51
f 506/299/53 503/300/52 504/297/52
f 508/301/54 505/302/53 506/299/53
f 510/303/55 507/304/54 508/301/54
f 512/305/56 509/306/55 510/303/55
f 514/307/57 511/308/56 512/305/56
f 516/309/58 513/310/59 514/307/57
f 518/311/60 515/312/58 516/309/58
f 520/313/61 517/314/60 518/311/60
f 522/315/62 519/316/61 520/313/61
f 524/317/63 521/318/62 522/315/62
f 526/319/64 523/320/63 524/317/63
f 528/321/65 525/322/64 526/319/64
f 530/323/66 527/324/65 528/321/65
f 532/325/67 529/326/66 530/323/66
f 534/327/68 531/328/67 532/325/67
f 536/329/69 533/330/68 534/327/68
f 538/331/70 535/332/69 536/329/69
f 540/333/71 537/334/70 538/331/70
f 542/335/72 539/336/71 540/333/71
f 544/337/73 541/338/72 542/335/72
f 546/339/74 543/340/73 544/337/73
f 548/341/75 545/342/74 546/339/74
f 550/343/76 547/344/75 548/341/75
f 552/345/77 549/346/76 550/343/76
f 554/347/78 551/348/77 552/345/77
f 556/349/79 553/350/78 554/347/78
f 558/351/80 555/352/79 556/349/79
f 560/353/81 557/354/80 558/351/80
f 562/355/82 559/356/81 560/353/81
f 564/357/83 561/358/82 562/355/82
f 566/359/84 563/360/83 564/357/83
f 568/361/85 565/362/84 566/359/84
f 570/363/86 567/364/85 568/361/85
f 572/365/87 569/366/86 570/363/86
f 574/367/88 571/368/87 572/365/87
f 576/369/89 573/370/88 574/367/88
f 578/371/90 575/372/89 576/369/89
f 580/373/91 577/374/90 578/371/90
f 582/375/92 579/376/91 580/373/91
f 584/377/93 581/378/92 582/375/92
f 586/379/94 583/380/93 584/377/93
f 588/381/95 585/382/94 586/379/94
f 590/383/96 587/384/95 588/381/95
f 592/385/97 589/386/96 590/383/96
f 594/387/98 591/388/97 592/385/97
f 596/389/99 593/390/98 594/387/98
f 598/391/100 595/392/99 596/389/99
f 600/393/101 597/394/100 598/391/100
f 602/395/102 599/396/101 600/393/101
f 604/397/103 601/398/102 602/395/102
f 606/399/104 603/400/103 604/397/103
f 608/401/105 605/402/104 606/399/104
f 610/403/106 607/404/105 608/401/105
f 612/405/107 609/406/106 610/403/106
f 614/407/108 611/408/107 612/405/107
f 616/409/109 613/410/108 614/407/108
f 618/411/110 615/412/109 616/409/109
f 620/413/111 617/414/110 618/411/110
f 622/415/112 619/416/111 620/413/111
f 624/417/113 621/418/112 622/415/112
f 626/419/114 623/420/113 624/417/113
f 628/421/115 625/422/114 626/419/114
f 630/423/116 627/424/115 628/421/115
f 632/425/117 629/426/116 630/423/116
f 634/427/118 631/428/117 632/425/117
f 636/429/119 633/430/118 634/427/118
f 638/431/120 635/432/119 636/429/119
f 640/433/121 637/434/120 638/431/120
f 642/435/122 639/436/121 640/433/121
f 644/437/123 641/438/122 642/435/122
f 646/439/124 643/440/123 644/437/123
f 648/441/125 645/442/126 646/439/124
f 650/443/127 647/444/125 648/441/125
f 652/445/128 649/446/129 650/443/127
f 654/447/130 651/448/128 652/445/128
f 656/449/131 653/450/130 654/447/130
f 658/451/132 655/452/131 656/449/131
f 660/453/133 657/454/132 658/451/132
f 662/455/134 659/456/133 660/453/133
f 664/457/135 661/458/134 662/455/134
f 666/459/136 663/460/135 664/457/135
f 668/461/137 665/462/136 666/459/136
f 670/463/138 667/464/137 668/461/137
f 672/465/139 669/466/138 670/463/138
f 674/467/140 671/468/139 672/465/139
f 676/469/141 673/470/140 674/467/140
f 678/471/142 675/472/141 676/469/141
f 680/473/143 677/474/142 678/471/142
f 682/475/144 679/476/143 680/473/143
f 684/477/145 681/478/144 682/475/144
f 686/479/146 683/480/145 684/477/145
f 688/481/147 685/482/146 686/479/146
f 690/483/148 687/484/147 688/481/147
f 692/485/149 689/486/148 690/483/148
f 694/487/150 691/488/149 692/485/149
f 696/489/151 693/490/150 694/487/150
f 698/491/152 695/492/151 696/489/151
f 700/493/153 697/494/152 698/491/152
f 702/495/154 699/496/153 700/493/153
f 704/497/155 701/498/154 702/495/154
f 706/499/156 703/500/155 704/497/155
f 708/501/157 705/502/156 706/499/156
f 710/503/158 707/504/157 708/501/157
f 712/505/159 709/506/158 710/503/158
f 714/507/160 711/508/159 712/505/159
f 716/509/161 713/510/160 714/507/160
f 718/511/162 715/512/161 716/509/161
f 720/513/163 717/514/162 718/511/162
f 722/515/164 719/516/163 720/513/163
f 724/517/165 721/518/164 722/515/164
f 726/519/166 723/520/165 724/517/165
f 728/521/167 725/522/166 726/519/166
f 730/523/168 727/524/167 728/521/167
f 732/525/169 729/526/168 730/523/168
f 734/527/170 731/528/171 732/525/169
f 736/529/172 733/530/170 734/527/170
f 738/531/173 735/532/172 736/529/172
f 740/533/174 737/534/173 738/531/173
f 742/535/175 739/536/174 740/533/174
f 744/537/176 741/538/175 742/535/175
f 746/539/177 743/540/176 744/537/176
f 748/541/178 745/542/177 746/539/177
f 750/543/179 747/544/178 748/541/178
f 752/545/180 749/546/179 750/543/179
f 754/547/181 751/548/180 752/545/180
f 756/549/182 753/550/181 754/547/181
f 758/551/183 755/552/182 756/549/182
f 760/553/184 757/554/183 758/551/183
f 762/555/185 759/556/184 760/553/184
f 764/557/186 761/558/185 762/555/185
f 766/559/187 763/560/186 764/557/186
f 768/561/188 765/562/187 766/559/187
f 770/563/189 767/564/188 768/561/188
f 772/565/190 769/566/189 770/563/189
f 774/567/3 771/568/190 772/565/190
f 776/569/191 773/570/3 774/567/3
f 778/571/192 775/572/191 776/569/191
f 780/573/193 777/574/192 778/571/192
f 782/575/194 779/576/193 780/573/193
f 784/577/195 781/578/194 782/575/194
f 786/579/196 783/580/195 784/577/195
f 788/581/197 785/582/196 786/579/196
f 790/583/198 787/584/197 788/581/197
f 792/585/199 789/586/198 790/583/198
f 794/587/200 791/588/199 792/585/199
f 796/589/201 793/590/200 794/587/200
f 798/591/202 795/592/201 796/589/201
f 800/593/203 797/594/202 798/591/202
f 802/595/204 799/596/203 800/593/203
f 804/597/205 801/598/204 802/595/204
f 806/599/206 803/600/205 804/597/205
f 808/601/207 805/602/206 806/599/206
f 810/603/208 807/604/207 808/601/207
f 812/605/209 809/606/208 810/603/208
f 814/607/210 811/608/209 812/605/209
f 816/609/211 813/610/210 814/607/210
f 410/611/4 815/612/211 816/609/211
f 412/205/3 411/208/3 409/180/4
f 414/207/5 413/210/5 411/208/3
f 416/209/6 415/212/6 413/210/5
f 418/211/7 417/214/7 415/212/6
f 420/213/8 419/216/8 417/214/7
f 422/215/9 421/218/9 419/216/8
f 424/217/10 423/220/10 421/218/9
f 426/219/11 425/222/11 423/220/10
f 428/221/12 427/224/12 425/222/11
f 430/223/13 429/226/13 427/224/12
f 432/225/14 431/228/14 429/226/13
f 434/227/15 433/230/17 431/228/14
f 436/229/16 435/232/16 433/230/17
f 438/231/18 437/234/18 435/232/16
f 440/233/19 439/236/19 437/234/18
f 442/235/20 441/238/20 439/236/19
f 444/237/21 443/240/21 441/238/20
f 446/239/22 445/242/22 443/240/21
f 448/241/23 447/244/23 445/242/22
f 450/243/24 449/246/24 447/244/23
f 452/245/25 451/248/25 449/246/24
f 454/247/26 453/250/26 451/248/25
f 456/249/27 455/252/27 453/250/26
f 458/251/28 457/254/28 455/252/27
f 460/253/29 459/256/29 457/254/28
f 462/255/30 461/258/30 459/256/29
f 464/257/31 463/260/31 461/258/30
f 466/259/32 465/262/34 463/260/31
f 468/261/33 467/264/33 465/262/34
f 470/263/35 469/266/35 467/264/33
f 472/265/36 471/268/36 469/266/35
f 474/267/37 473/270/37 471/268/36
f 476/269/38 475/272/38 473/270/37
f 478/271/39 477/274/39 475/272/38
f 480/273/40 479/276/40 477/274/39
f 482/275/41 481/278/41 479/276/40
f 484/277/42 483/280/42 481/278/41
f 486/279/43 485/282/43 483/280/42
f 488/281/44 487/284/44 485/282/43
f 490/283/45 489/286/45 487/284/44
f 492/285/46 491/288/46 489/286/45
f 494/287/47 493/290/47 491/288/46
f 496/289/48 495/292/48 493/290/47
f 498/291/49 497/294/49 495/292/48
f 500/293/50 499/296/50 497/294/49
f 502/295/51 501/298/51 499/296/50
f 504/297/52 503/300/52 501/298/51
f 506/299/53 505/302/53 503/300/52
f 508/301/54 507/304/54 505/302/53
f 510/303/55 509/306/55 507/304/54
f 512/305/56 511/308/56 509/306/55
f 514/307/57 513/310/59 511/308/56
f 516/309/58 515/312/58 513/310/59
f 518/311/60 517/314/60 515/312/58
f 520/313/61 519/316/61 517/314/60
f 522/315/62 521/318/62 519/316/61
f 524/317/63 523/320/63 521/318/62
f 526/319/64 525/322/64 523/320/63
f 528/321/65 527/324/65 525/322/64
f 530/323/66 529/326/66 527/324/65
f 532/325/67 531/328/67 529/326/66
f 534/327/68 533/330/68 531/328/67
f 536/329/69 535/332/69 533/330/68
f 538/331/70 537/334/70 535/332/69
f 540/333/71 539/336/71 537/334/70
f 542/335/72 541/338/72 539/336/71
f 544/337/73 543/340/73 541/338/72
f 546/339/74 545/342/74 543/340/73
f 548/341/75 547/344/75 545/342/74
f 550/343/76 549/346/76 547/344/75
f 552/345/77 551/348/77 549/346/76
f 554/347/78 553/350/78 551/348/77
f 556/349/79 555/352/79 553/350/78
f 558/351/80 557/354/80 555/352/79
f 560/353/81 559/356/81 557/354/80
f 562/355/82 561/358/82 559/356/81
f 564/357/83 563/360/83 561/358/82
f 566/359/84 565/362/84 563/360/83
f 568/361/85 567/364/85 565/362/84
f 570/363/86 569/366/86 567/364/85
f 572/365/87 571/368/87 569/366/86
f 574/367/88 573/370/88 571/368/87
f 576/369/89 575/372/89 573/370/88
f 578/371/90 577/374/90 575/372/89
f 580/373/91 579/376/91 577/374/90
f 582/375/92 581/378/92 579/376/91
f 584/377/93 583/380/93 581/378/92
f 586/379/94 585/382/94 583/380/93
f 588/381/95 587/384/95 585/382/94
f 590/383/96 589/386/96 587/384/95
f 592/385/97 591/388/97 589/386/96
f 594/387/98 593/390/98 591/388/97
f 596/389/99 595/392/99 593/390/98
f 598/391/100 597/394/100 595/392/99
f 600/393/101 599/396/101 597/394/100
f 602/395/102 601/398/102 599/396/101
f 604/397/103 603/400/103 601/398/102
f 606/399/104 605/402/104 603/400/103
f 608/401/105 607/404/105 605/402/104
f 610/403/106 609/406/106 607/404/105
f 612/405/107 611/408/107 609/406/106
f 614/407/108 613/410/108 611/408/107
f 616/409/109 615/412/109 613/410/108
f 618/411/110 617/414/110 615/412/109
f 620/413/111 619/416/111 617/414/110
f 622/415/112 621/418/112 619/416/111
f 624/417/113 623/420/113 621/418/112
f 626/419/114 625/422/114 623/420/113
f 628/421/115 627/424/115 625/422/114
f 630/423/116 629/426/116 627/424/115
f 632/425/117 631/428/117 629/426/116
f 634/427/118 633/430/118 631/428/117
f 636/429/119 635/432/119 633/430/118
f 638/431/120 637/434/120 635/432/119
f 640/433/121 639/436/121 637/434/120
f 642/435/122 641/438/122 639/436/121
f 644/437/123 643/440/123 641/438/122
f 646/439/124 645/442/126 643/440/123
f 648/441/125 647/444/125 645/442/126
f 650/443/127 649/446/129 647/444/125
f 652/445/128 651/448/128 649/446/129
f 654/447/130 653/450/130 651/448/128
f 656/449/131 655/452/131 653/450/130
f 658/451/132 657/454/132 655/452/131
f 660/453/133 659/456/133 657/454/132
f 662/455/134 661/458/134 659/456/133
f 664/457/135 663/460/135 661/458/134
f 666/459/136 665/462/136 663/460/135
f 668/461/137 667/464/137 665/462/136
f 670/463/138 669/466/138 667/464/137
f 672/465/139 671/468/139 669/466/138
f 674/467/140 673/470/140 671/468/139
f 676/469/141 675/472/141 673/470/140
f 678/471/142 677/474/142 675/472/141
f 680/473/143 679/476/143 677/474/142
f 682/475/144 681/478/144 679/476/143
f 684/477/145 683/480/145 681/478/144
f 686/479/146 685/482/146 683/480/145
f 688/481/147 687/484/147 685/482/146
f 690/483/148 689/486/148 687/484/147
f 692/485/149 691/488/149 689/486/148
f 694/487/150 693/490/150 691/488/149
f 696/489/151 695/492/151 693/490/150
f 698/491/152 697/494/152 695/492/151
f 700/493/153 699/496/153 697/494/152
f 702/495/154 701/498/154 699/496/153
f 704/497/155 703/500/155 701/498/154
f 706/499/156 705/502/156 703/500/155
f 708/501/157 707/504/157 705/502/156
f 710/503/158 709/506/158 707/504/157
f 712/505/159 711/508/159 709/506/158
f 714/507/160 713/510/160 711/508/159
f 716/509/161 715/512/161 713/510/160
f 718/511/162 717/514/162 715/512/161
f 720/513/163 719/516/163 717/514/162
f 722/515/164 721/518/164 719/516/163
f 724/517/165 723/520/165 721/518/164
f 726/519/166 725/522/166 723/520/165
f 728/521/167 727/524/167 725/522/166
f 730/523/168 729/526/168 727/524/167
f 732/525/169 731/528/171 729/526/168
f 734/527/170 733/530/170 731/528/171
f 736/529/172 735/532/172 733/530/170
f 738/531/173 737/534/173 735/532/172
f 740/533/174 739/536/174 737/534/173
f 742/535/175 741/538/175 739/536/174
f 744/537/176 743/540/176 741/538/175
f 746/539/177 745/542/177 743/540/176
f 748/541/178 747/544/178 745/542/177
f 750/543/179 749/546/179 747/544/178
f 752/545/180 751/548/180 749/546/179
f 754/547/181 753/550/181 751/548/180
f 756/549/182 755/552/182 753/550/181
f 758/551/183 757/554/183 755/552/182
f 760/553/184 759/556/184 757/554/183
f 762/555/185 761/558/185 759/556/184
f 764/557/186 763/560/186 761/558/185
f 766/559/187 765/562/187 763/560/186
f 768/561/188 767/564/188 765/562/187
f 770/563/189 769/566/189 767/564/188
f 772/565/190 771/568/190 769/566/189
f 774/567/3 773/570/3 771/568/190
f 776/569/191 775/572/191 773/570/3
f 778/571/192 777/574/192 775/572/191
f 780/573/193 779/576/193 777/574/192
f 782/575/194 781/578/194 779/576/193
f 784/577/195 783/580/195 781/578/194
f 786/579/196 785/582/196 783/580/195
f 788/581/197 787/584/197 785/582/196
f 790/583/198 789/586/198 787/584/197
f 792/585/199 791/588/199 789/586/198
f 794/587/200 793/590/200 791/588/199
f 796/589/201 795/592/201 793/590/200
f 798/591/202 797/594/202 795/592/201
f 800/593/203 799/596/203 797/594/202
f 802/595/204 801/598/204 799/596/203
f 804/597/205 803/600/205 801/598/204
f 806/599/206 805/602/206 803/600/205
f 808/601/207 807/604/207 805/602/206
f 810/603/208 809/606/208 807/604/207
f 812/605/209 811/608/209 809/606/208
f 814/607/210 813/610/210 811/608/209
f 816/609/211 815/612/211 813/610/210
f 410/611/4 409/178/4 815/612/211
