# Blender 4.4.1
# www.blender.org
mtllib spade.mtl
o テキスト.001
v 2.486382 0.015609 0.928276
v 2.498186 0.015609 0.934163
v 2.510332 0.015609 0.939834
v 2.522822 0.015609 0.945288
v 2.535654 0.015609 0.950526
v 2.548830 0.015609 0.955548
v 2.562348 0.015609 0.960354
v 2.576210 0.015609 0.964943
v 2.590415 0.015609 0.969317
v 2.604962 0.015609 0.973474
v 2.619853 0.015609 0.977414
v 2.635086 0.015609 0.981139
v 2.650663 0.015609 0.984647
v 2.631507 0.015609 0.989509
v 2.612694 0.015609 0.994788
v 2.594225 0.015609 1.000485
v 2.576098 0.015609 1.006599
v 2.558314 0.015609 1.013131
v 2.540874 0.015609 1.020080
v 2.523776 0.015609 1.027447
v 2.507021 0.015609 1.035232
v 2.490610 0.015609 1.043434
v 2.474541 0.015609 1.052053
v 2.458816 0.015609 1.061091
v 2.443433 0.015609 1.070545
v 2.427920 0.015609 1.080839
v 2.411803 0.015609 1.092393
v 2.395082 0.015609 1.105207
v 2.377756 0.015609 1.119281
v 2.359827 0.015609 1.134615
v 2.341294 0.015609 1.151209
v 2.322157 0.015609 1.169064
v 2.302416 0.015609 1.188178
v 2.282071 0.015609 1.208553
v 2.261122 0.015609 1.230188
v 2.239570 0.015609 1.253083
v 2.217413 0.015609 1.277238
v 2.195390 0.015609 1.301267
v 2.174240 0.015609 1.323781
v 2.153962 0.015609 1.344783
v 2.134557 0.015609 1.364270
v 2.116024 0.015609 1.382244
v 2.098363 0.015609 1.398704
v 2.081575 0.015609 1.413650
v 2.065659 0.015609 1.427083
v 2.050616 0.015609 1.439002
v 2.036445 0.015609 1.449408
v 2.023146 0.015609 1.458299
v 2.010720 0.015609 1.465678
v 1.998715 0.015609 1.472023
v 1.986680 0.015609 1.477817
v 1.974616 0.015609 1.483059
v 1.962521 0.015609 1.487749
v 1.950397 0.015609 1.491887
v 1.938243 0.015609 1.495474
v 1.926059 0.015609 1.498508
v 1.913846 0.015609 1.500992
v 1.901602 0.015609 1.502923
v 1.889329 0.015609 1.504302
v 1.877026 0.015609 1.505130
v 1.864693 0.015609 1.505406
v 1.847752 0.015609 1.504929
v 1.831288 0.015609 1.503497
v 1.815301 0.015609 1.501111
v 1.799792 0.015609 1.497770
v 1.784760 0.015609 1.493475
v 1.770205 0.015609 1.488226
v 1.756127 0.015609 1.482022
v 1.742526 0.015609 1.474864
v 1.729403 0.015609 1.466752
v 1.716757 0.015609 1.457685
v 1.704588 0.015609 1.447663
v 1.692896 0.015609 1.436687
v 1.681920 0.015609 1.425025
v 1.671899 0.015609 1.412946
v 1.662832 0.015609 1.400449
v 1.654719 0.015609 1.387534
v 1.647561 0.015609 1.374202
v 1.641357 0.015609 1.360452
v 1.636108 0.015609 1.346285
v 1.631813 0.015609 1.331700
v 1.628472 0.015609 1.316698
v 1.626086 0.015609 1.301278
v 1.624655 0.015609 1.285441
v 1.624177 0.015609 1.269185
v 1.624539 0.015609 1.255335
v 1.625624 0.015609 1.241701
v 1.627432 0.015609 1.228283
v 1.629964 0.015609 1.215081
v 1.633218 0.015609 1.202096
v 1.637196 0.015609 1.189327
v 1.641898 0.015609 1.176774
v 1.647322 0.015609 1.164437
v 1.653470 0.015609 1.152317
v 1.660341 0.015609 1.140412
v 1.667936 0.015609 1.128724
v 1.676253 0.015609 1.117253
v 1.685264 0.015609 1.105997
v 1.694939 0.015609 1.094958
v 1.705277 0.015609 1.084135
v 1.716280 0.015609 1.073528
v 1.727945 0.015609 1.063138
v 1.740274 0.015609 1.052963
v 1.753267 0.015609 1.043005
v 1.766924 0.015609 1.033263
v 1.781244 0.015609 1.023738
v 1.796228 0.015609 1.014428
v 1.811875 0.015609 1.005335
v 1.828186 0.015609 0.996458
v 1.802331 0.015609 0.996909
v 1.777378 0.015609 0.997905
v 1.753327 0.015609 0.999444
v 1.730178 0.015609 1.001529
v 1.707932 0.015609 1.004157
v 1.686588 0.015609 1.007330
v 1.666146 0.015609 1.011047
v 1.646606 0.015609 1.015308
v 1.627969 0.015609 1.020114
v 1.610234 0.015609 1.025464
v 1.593401 0.015609 1.031358
v 1.577470 0.015609 1.037797
v 1.562266 0.015609 1.044843
v 1.547615 0.015609 1.052561
v 1.533514 0.015609 1.060949
v 1.519966 0.015609 1.070009
v 1.506969 0.015609 1.079739
v 1.494525 0.015609 1.090141
v 1.482632 0.015609 1.101214
v 1.471290 0.015609 1.112958
v 1.460501 0.015609 1.125373
v 1.450263 0.015609 1.138459
v 1.440577 0.015609 1.152216
v 1.431443 0.015609 1.166644
v 1.422887 0.015609 1.181814
v 1.414934 0.015609 1.197797
v 1.407586 0.015609 1.214593
v 1.400842 0.015609 1.232201
v 1.394701 0.015609 1.250623
v 1.389165 0.015609 1.269856
v 1.384232 0.015609 1.289903
v 1.379904 0.015609 1.310763
v 1.376179 0.015609 1.332435
v 1.373059 0.015609 1.354920
v 1.370542 0.015609 1.378217
v 1.368630 0.015609 1.402328
v 1.328902 0.015609 1.409844
v 1.328902 0.015609 0.558377
v 1.368630 0.015609 0.566966
v 1.369431 0.015609 0.599279
v 1.371836 0.015609 0.630361
v 1.375844 0.015609 0.660213
v 1.381455 0.015609 0.688835
v 1.388669 0.015609 0.716226
v 1.397486 0.015609 0.742387
v 1.407907 0.015609 0.767318
v 1.419930 0.015609 0.791018
v 1.433557 0.015609 0.813488
v 1.448787 0.015609 0.834728
v 1.465620 0.015609 0.854737
v 1.484056 0.015609 0.873516
v 1.504080 0.015609 0.890893
v 1.525678 0.015609 0.906697
v 1.548849 0.015609 0.920928
v 1.573593 0.015609 0.933585
v 1.599910 0.015609 0.944669
v 1.627801 0.015609 0.954180
v 1.657265 0.015609 0.962117
v 1.688303 0.015609 0.968482
v 1.720914 0.015609 0.973272
v 1.755098 0.015609 0.976490
v 1.790855 0.015609 0.978134
v 1.828186 0.015609 0.978205
v 1.811539 0.015609 0.969991
v 1.795601 0.015609 0.961458
v 1.780371 0.015609 0.952603
v 1.765850 0.015609 0.943428
v 1.752037 0.015609 0.933932
v 1.738932 0.015609 0.924116
v 1.726536 0.015609 0.913979
v 1.714848 0.015609 0.903521
v 1.703868 0.015609 0.892743
v 1.693597 0.015609 0.881644
v 1.684034 0.015609 0.870224
v 1.675179 0.015609 0.858484
v 1.667033 0.015609 0.846453
v 1.659595 0.015609 0.834161
v 1.652866 0.015609 0.821608
v 1.646845 0.015609 0.808794
v 1.641532 0.015609 0.795719
v 1.636928 0.015609 0.782383
v 1.633032 0.015609 0.768787
v 1.629844 0.015609 0.754929
v 1.627365 0.015609 0.740810
v 1.625594 0.015609 0.726430
v 1.624532 0.015609 0.711789
v 1.624177 0.015609 0.696888
v 1.624662 0.015609 0.680972
v 1.626116 0.015609 0.665436
v 1.628539 0.015609 0.650281
v 1.631932 0.015609 0.635506
v 1.636294 0.015609 0.621111
v 1.641625 0.015609 0.607097
v 1.647926 0.015609 0.593463
v 1.655196 0.015609 0.580209
v 1.663436 0.015609 0.567335
v 1.672644 0.015609 0.554842
v 1.682822 0.015609 0.542729
v 1.693970 0.015609 0.530996
v 1.705796 0.015609 0.519935
v 1.718009 0.015609 0.509835
v 1.730611 0.015609 0.500697
v 1.743600 0.015609 0.492521
v 1.756977 0.015609 0.485307
v 1.770741 0.015609 0.479055
v 1.784894 0.015609 0.473764
v 1.799434 0.015609 0.469436
v 1.814362 0.015609 0.466069
v 1.829677 0.015609 0.463665
v 1.845381 0.015609 0.462222
v 1.861472 0.015609 0.461741
v 1.874431 0.015609 0.461987
v 1.887181 0.015609 0.462725
v 1.899723 0.015609 0.463955
v 1.912056 0.015609 0.465678
v 1.924180 0.015609 0.467892
v 1.936096 0.015609 0.470599
v 1.947802 0.015609 0.473798
v 1.959300 0.015609 0.477489
v 1.970589 0.015609 0.481672
v 1.981670 0.015609 0.486347
v 1.992541 0.015609 0.491515
v 2.003204 0.015609 0.497174
v 2.017886 0.015609 0.505645
v 2.032582 0.015609 0.514950
v 2.047294 0.015609 0.525091
v 2.062020 0.015609 0.536067
v 2.076762 0.015609 0.547878
v 2.091518 0.015609 0.560524
v 2.106289 0.015609 0.574005
v 2.121076 0.015609 0.588322
v 2.135877 0.015609 0.603473
v 2.150692 0.015609 0.619460
v 2.165524 0.015609 0.636282
v 2.180369 0.015609 0.653938
v 2.195006 0.015609 0.671618
v 2.209211 0.015609 0.688507
v 2.222983 0.015609 0.704605
v 2.236322 0.015609 0.719913
v 2.249229 0.015609 0.734431
v 2.261704 0.015609 0.748158
v 2.273746 0.015609 0.761095
v 2.285356 0.015609 0.773242
v 2.296533 0.015609 0.784598
v 2.307278 0.015609 0.795164
v 2.317590 0.015609 0.804939
v 2.327470 0.015609 0.813924
v 2.342189 0.015609 0.826693
v 2.356640 0.015609 0.838874
v 2.370822 0.015609 0.850465
v 2.384736 0.015609 0.861467
v 2.398381 0.015609 0.871880
v 2.411758 0.015609 0.881703
v 2.424866 0.015609 0.890938
v 2.437706 0.015609 0.899584
v 2.450278 0.015609 0.907641
v 2.462581 0.015609 0.915108
v 2.474616 0.015609 0.921987
v 2.486382 0.001609 0.928276
v 2.498186 0.001609 0.934163
v 2.510332 0.001609 0.939834
v 2.522822 0.001609 0.945288
v 2.535654 0.001609 0.950526
v 2.548830 0.001609 0.955548
v 2.562348 0.001609 0.960354
v 2.576210 0.001609 0.964943
v 2.590415 0.001609 0.969317
v 2.604962 0.001609 0.973474
v 2.619853 0.001609 0.977414
v 2.635086 0.001609 0.981139
v 2.650663 0.001609 0.984647
v 2.631507 0.001609 0.989509
v 2.612694 0.001609 0.994788
v 2.594225 0.001609 1.000485
v 2.576098 0.001609 1.006599
v 2.558314 0.001609 1.013131
v 2.540874 0.001609 1.020080
v 2.523776 0.001609 1.027447
v 2.507021 0.001609 1.035232
v 2.490610 0.001609 1.043434
v 2.474541 0.001609 1.052053
v 2.458816 0.001609 1.061091
v 2.443433 0.001609 1.070545
v 2.427920 0.001609 1.080839
v 2.411803 0.001609 1.092393
v 2.395082 0.001609 1.105207
v 2.377756 0.001609 1.119281
v 2.359827 0.001609 1.134615
v 2.341294 0.001609 1.151209
v 2.322157 0.001609 1.169064
v 2.302416 0.001609 1.188178
v 2.282071 0.001609 1.208553
v 2.261122 0.001609 1.230188
v 2.239570 0.001609 1.253083
v 2.217413 0.001609 1.277238
v 2.195390 0.001609 1.301267
v 2.174240 0.001609 1.323781
v 2.153962 0.001609 1.344783
v 2.134557 0.001609 1.364270
v 2.116024 0.001609 1.382244
v 2.098363 0.001609 1.398704
v 2.081575 0.001609 1.413650
v 2.065659 0.001609 1.427083
v 2.050616 0.001609 1.439002
v 2.036445 0.001609 1.449408
v 2.023146 0.001609 1.458299
v 2.010720 0.001609 1.465678
v 1.998715 0.001609 1.472023
v 1.986680 0.001609 1.477817
v 1.974616 0.001609 1.483059
v 1.962521 0.001609 1.487749
v 1.950397 0.001609 1.491887
v 1.938243 0.001609 1.495474
v 1.926059 0.001609 1.498508
v 1.913846 0.001609 1.500992
v 1.901602 0.001609 1.502923
v 1.889329 0.001609 1.504302
v 1.877026 0.001609 1.505130
v 1.864693 0.001609 1.505406
v 1.847752 0.001609 1.504929
v 1.831288 0.001609 1.503497
v 1.815301 0.001609 1.501111
v 1.799792 0.001609 1.497770
v 1.784760 0.001609 1.493475
v 1.770205 0.001609 1.488226
v 1.756127 0.001609 1.482022
v 1.742526 0.001609 1.474864
v 1.729403 0.001609 1.466752
v 1.716757 0.001609 1.457685
v 1.704588 0.001609 1.447663
v 1.692896 0.001609 1.436687
v 1.681920 0.001609 1.425025
v 1.671899 0.001609 1.412946
v 1.662832 0.001609 1.400449
v 1.654719 0.001609 1.387534
v 1.647561 0.001609 1.374202
v 1.641357 0.001609 1.360452
v 1.636108 0.001609 1.346285
v 1.631813 0.001609 1.331700
v 1.628472 0.001609 1.316698
v 1.626086 0.001609 1.301278
v 1.624655 0.001609 1.285441
v 1.624177 0.001609 1.269185
v 1.624539 0.001609 1.255335
v 1.625624 0.001609 1.241701
v 1.627432 0.001609 1.228283
v 1.629964 0.001609 1.215081
v 1.633218 0.001609 1.202096
v 1.637196 0.001609 1.189327
v 1.641898 0.001609 1.176774
v 1.647322 0.001609 1.164437
v 1.653470 0.001609 1.152317
v 1.660341 0.001609 1.140412
v 1.667936 0.001609 1.128724
v 1.676253 0.001609 1.117253
v 1.685264 0.001609 1.105997
v 1.694939 0.001609 1.094958
v 1.705277 0.001609 1.084135
v 1.716280 0.001609 1.073528
v 1.727945 0.001609 1.063138
v 1.740274 0.001609 1.052963
v 1.753267 0.001609 1.043005
v 1.766924 0.001609 1.033263
v 1.781244 0.001609 1.023738
v 1.796228 0.001609 1.014428
v 1.811875 0.001609 1.005335
v 1.828186 0.001609 0.996458
v 1.802331 0.001609 0.996909
v 1.777378 0.001609 0.997905
v 1.753327 0.001609 0.999444
v 1.730178 0.001609 1.001529
v 1.707932 0.001609 1.004157
v 1.686588 0.001609 1.007330
v 1.666146 0.001609 1.011047
v 1.646606 0.001609 1.015308
v 1.627969 0.001609 1.020114
v 1.610234 0.001609 1.025464
v 1.593401 0.001609 1.031358
v 1.577470 0.001609 1.037797
v 1.562266 0.001609 1.044843
v 1.547615 0.001609 1.052561
v 1.533514 0.001609 1.060949
v 1.519966 0.001609 1.070009
v 1.506969 0.001609 1.079739
v 1.494525 0.001609 1.090141
v 1.482632 0.001609 1.101214
v 1.471290 0.001609 1.112958
v 1.460501 0.001609 1.125373
v 1.450263 0.001609 1.138459
v 1.440577 0.001609 1.152216
v 1.431443 0.001609 1.166644
v 1.422887 0.001609 1.181814
v 1.414934 0.001609 1.197797
v 1.407586 0.001609 1.214593
v 1.400842 0.001609 1.232201
v 1.394701 0.001609 1.250623
v 1.389165 0.001609 1.269856
v 1.384232 0.001609 1.289903
v 1.379904 0.001609 1.310763
v 1.376179 0.001609 1.332435
v 1.373059 0.001609 1.354920
v 1.370542 0.001609 1.378217
v 1.368630 0.001609 1.402328
v 1.328902 0.001609 1.409844
v 1.328902 0.001609 0.558377
v 1.368630 0.001609 0.566966
v 1.369431 0.001609 0.599279
v 1.371836 0.001609 0.630361
v 1.375844 0.001609 0.660213
v 1.381455 0.001609 0.688835
v 1.388669 0.001609 0.716226
v 1.397486 0.001609 0.742387
v 1.407907 0.001609 0.767318
v 1.419930 0.001609 0.791018
v 1.433557 0.001609 0.813488
v 1.448787 0.001609 0.834728
v 1.465620 0.001609 0.854737
v 1.484056 0.001609 0.873516
v 1.504080 0.001609 0.890893
v 1.525678 0.001609 0.906697
v 1.548849 0.001609 0.920928
v 1.573593 0.001609 0.933585
v 1.599910 0.001609 0.944669
v 1.627801 0.001609 0.954180
v 1.657265 0.001609 0.962117
v 1.688303 0.001609 0.968482
v 1.720914 0.001609 0.973272
v 1.755098 0.001609 0.976490
v 1.790855 0.001609 0.978134
v 1.828186 0.001609 0.978205
v 1.811539 0.001609 0.969991
v 1.795601 0.001609 0.961458
v 1.780371 0.001609 0.952603
v 1.765850 0.001609 0.943428
v 1.752037 0.001609 0.933932
v 1.738932 0.001609 0.924116
v 1.726536 0.001609 0.913979
v 1.714848 0.001609 0.903521
v 1.703868 0.001609 0.892743
v 1.693597 0.001609 0.881644
v 1.684034 0.001609 0.870224
v 1.675179 0.001609 0.858484
v 1.667033 0.001609 0.846453
v 1.659595 0.001609 0.834161
v 1.652866 0.001609 0.821608
v 1.646845 0.001609 0.808794
v 1.641532 0.001609 0.795719
v 1.636928 0.001609 0.782383
v 1.633032 0.001609 0.768787
v 1.629844 0.001609 0.754929
v 1.627365 0.001609 0.740810
v 1.625594 0.001609 0.726430
v 1.624532 0.001609 0.711789
v 1.624177 0.001609 0.696888
v 1.624662 0.001609 0.680972
v 1.626116 0.001609 0.665436
v 1.628539 0.001609 0.650281
v 1.631932 0.001609 0.635506
v 1.636294 0.001609 0.621111
v 1.641625 0.001609 0.607097
v 1.647926 0.001609 0.593463
v 1.655196 0.001609 0.580209
v 1.663436 0.001609 0.567335
v 1.672644 0.001609 0.554842
v 1.682822 0.001609 0.542729
v 1.693970 0.001609 0.530996
v 1.705796 0.001609 0.519935
v 1.718009 0.001609 0.509835
v 1.730611 0.001609 0.500697
v 1.743600 0.001609 0.492521
v 1.756977 0.001609 0.485307
v 1.770741 0.001609 0.479055
v 1.784894 0.001609 0.473764
v 1.799434 0.001609 0.469436
v 1.814362 0.001609 0.466069
v 1.829677 0.001609 0.463665
v 1.845381 0.001609 0.462222
v 1.861472 0.001609 0.461741
v 1.874431 0.001609 0.461987
v 1.887181 0.001609 0.462725
v 1.899723 0.001609 0.463955
v 1.912056 0.001609 0.465678
v 1.924180 0.001609 0.467892
v 1.936096 0.001609 0.470599
v 1.947802 0.001609 0.473798
v 1.959300 0.001609 0.477489
v 1.970589 0.001609 0.481672
v 1.981670 0.001609 0.486347
v 1.992541 0.001609 0.491515
v 2.003204 0.001609 0.497174
v 2.017886 0.001609 0.505645
v 2.032582 0.001609 0.514950
v 2.047294 0.001609 0.525091
v 2.062020 0.001609 0.536067
v 2.076762 0.001609 0.547878
v 2.091518 0.001609 0.560524
v 2.106289 0.001609 0.574005
v 2.121076 0.001609 0.588322
v 2.135877 0.001609 0.603473
v 2.150692 0.001609 0.619460
v 2.165524 0.001609 0.636282
v 2.180369 0.001609 0.653938
v 2.195006 0.001609 0.671618
v 2.209211 0.001609 0.688507
v 2.222983 0.001609 0.704605
v 2.236322 0.001609 0.719913
v 2.249229 0.001609 0.734431
v 2.261704 0.001609 0.748158
v 2.273746 0.001609 0.761095
v 2.285356 0.001609 0.773242
v 2.296533 0.001609 0.784598
v 2.307278 0.001609 0.795164
v 2.317590 0.001609 0.804939
v 2.327470 0.001609 0.813924
v 2.342189 0.001609 0.826693
v 2.356640 0.001609 0.838874
v 2.370822 0.001609 0.850465
v 2.384736 0.001609 0.861467
v 2.398381 0.001609 0.871880
v 2.411758 0.001609 0.881703
v 2.424866 0.001609 0.890938
v 2.437706 0.001609 0.899584
v 2.450278 0.001609 0.907641
v 2.462581 0.001609 0.915108
v 2.474616 0.001609 0.921987
v 2.486382 0.001609 0.928276
v 2.486382 0.015609 0.928276
v 2.498186 0.001609 0.934163
v 2.498186 0.015609 0.934163
v 2.510332 0.001609 0.939834
v 2.510332 0.015609 0.939834
v 2.522822 0.001609 0.945288
v 2.522822 0.015609 0.945288
v 2.535654 0.001609 0.950526
v 2.535654 0.015609 0.950526
v 2.548830 0.001609 0.955548
v 2.548830 0.015609 0.955548
v 2.562348 0.001609 0.960354
v 2.562348 0.015609 0.960354
v 2.576210 0.001609 0.964943
v 2.576210 0.015609 0.964943
v 2.590415 0.001609 0.969317
v 2.590415 0.015609 0.969317
v 2.604962 0.001609 0.973474
v 2.604962 0.015609 0.973474
v 2.619853 0.001609 0.977414
v 2.619853 0.015609 0.977414
v 2.635086 0.001609 0.981139
v 2.635086 0.015609 0.981139
v 2.650663 0.001609 0.984647
v 2.650663 0.015609 0.984647
v 2.631507 0.001609 0.989509
v 2.631507 0.015609 0.989509
v 2.612694 0.001609 0.994788
v 2.612694 0.015609 0.994788
v 2.594225 0.001609 1.000485
v 2.594225 0.015609 1.000485
v 2.576098 0.001609 1.006599
v 2.576098 0.015609 1.006599
v 2.558314 0.001609 1.013131
v 2.558314 0.015609 1.013131
v 2.540874 0.001609 1.020080
v 2.540874 0.015609 1.020080
v 2.523776 0.001609 1.027447
v 2.523776 0.015609 1.027447
v 2.507021 0.001609 1.035232
v 2.507021 0.015609 1.035232
v 2.490610 0.001609 1.043434
v 2.490610 0.015609 1.043434
v 2.474541 0.001609 1.052053
v 2.474541 0.015609 1.052053
v 2.458816 0.001609 1.061091
v 2.458816 0.015609 1.061091
v 2.443433 0.001609 1.070545
v 2.443433 0.015609 1.070545
v 2.427920 0.001609 1.080839
v 2.427920 0.015609 1.080839
v 2.411803 0.001609 1.092393
v 2.411803 0.015609 1.092393
v 2.395082 0.001609 1.105207
v 2.395082 0.015609 1.105207
v 2.377756 0.001609 1.119281
v 2.377756 0.015609 1.119281
v 2.359827 0.001609 1.134615
v 2.359827 0.015609 1.134615
v 2.341294 0.001609 1.151209
v 2.341294 0.015609 1.151209
v 2.322157 0.001609 1.169064
v 2.322157 0.015609 1.169064
v 2.302416 0.001609 1.188178
v 2.302416 0.015609 1.188178
v 2.282071 0.001609 1.208553
v 2.282071 0.015609 1.208553
v 2.261122 0.001609 1.230188
v 2.261122 0.015609 1.230188
v 2.239570 0.001609 1.253083
v 2.239570 0.015609 1.253083
v 2.217413 0.001609 1.277238
v 2.217413 0.015609 1.277238
v 2.195390 0.001609 1.301267
v 2.195390 0.015609 1.301267
v 2.174240 0.001609 1.323781
v 2.174240 0.015609 1.323781
v 2.153962 0.001609 1.344783
v 2.153962 0.015609 1.344783
v 2.134557 0.001609 1.364270
v 2.134557 0.015609 1.364270
v 2.116024 0.001609 1.382244
v 2.116024 0.015609 1.382244
v 2.098363 0.001609 1.398704
v 2.098363 0.015609 1.398704
v 2.081575 0.001609 1.413650
v 2.081575 0.015609 1.413650
v 2.065659 0.001609 1.427083
v 2.065659 0.015609 1.427083
v 2.050616 0.001609 1.439002
v 2.050616 0.015609 1.439002
v 2.036445 0.001609 1.449408
v 2.036445 0.015609 1.449408
v 2.023146 0.001609 1.458299
v 2.023146 0.015609 1.458299
v 2.010720 0.001609 1.465678
v 2.010720 0.015609 1.465678
v 1.998715 0.001609 1.472023
v 1.998715 0.015609 1.472023
v 1.986680 0.001609 1.477817
v 1.986680 0.015609 1.477817
v 1.974616 0.001609 1.483059
v 1.974616 0.015609 1.483059
v 1.962521 0.001609 1.487749
v 1.962521 0.015609 1.487749
v 1.950397 0.001609 1.491887
v 1.950397 0.015609 1.491887
v 1.938243 0.001609 1.495474
v 1.938243 0.015609 1.495474
v 1.926059 0.001609 1.498508
v 1.926059 0.015609 1.498508
v 1.913846 0.001609 1.500992
v 1.913846 0.015609 1.500992
v 1.901602 0.001609 1.502923
v 1.901602 0.015609 1.502923
v 1.889329 0.001609 1.504302
v 1.889329 0.015609 1.504302
v 1.877026 0.001609 1.505130
v 1.877026 0.015609 1.505130
v 1.864693 0.001609 1.505406
v 1.864693 0.015609 1.505406
v 1.847752 0.001609 1.504929
v 1.847752 0.015609 1.504929
v 1.831288 0.001609 1.503497
v 1.831288 0.015609 1.503497
v 1.815301 0.001609 1.501111
v 1.815301 0.015609 1.501111
v 1.799792 0.001609 1.497770
v 1.799792 0.015609 1.497770
v 1.784760 0.001609 1.493475
v 1.784760 0.015609 1.493475
v 1.770205 0.001609 1.488226
v 1.770205 0.015609 1.488226
v 1.756127 0.001609 1.482022
v 1.756127 0.015609 1.482022
v 1.742526 0.001609 1.474864
v 1.742526 0.015609 1.474864
v 1.729403 0.001609 1.466752
v 1.729403 0.015609 1.466752
v 1.716757 0.001609 1.457685
v 1.716757 0.015609 1.457685
v 1.704588 0.001609 1.447663
v 1.704588 0.015609 1.447663
v 1.692896 0.001609 1.436687
v 1.692896 0.015609 1.436687
v 1.681920 0.001609 1.425025
v 1.681920 0.015609 1.425025
v 1.671899 0.001609 1.412946
v 1.671899 0.015609 1.412946
v 1.662832 0.001609 1.400449
v 1.662832 0.015609 1.400449
v 1.654719 0.001609 1.387534
v 1.654719 0.015609 1.387534
v 1.647561 0.001609 1.374202
v 1.647561 0.015609 1.374202
v 1.641357 0.001609 1.360452
v 1.641357 0.015609 1.360452
v 1.636108 0.001609 1.346285
v 1.636108 0.015609 1.346285
v 1.631813 0.001609 1.331700
v 1.631813 0.015609 1.331700
v 1.628472 0.001609 1.316698
v 1.628472 0.015609 1.316698
v 1.626086 0.001609 1.301278
v 1.626086 0.015609 1.301278
v 1.624655 0.001609 1.285441
v 1.624655 0.015609 1.285441
v 1.624177 0.001609 1.269185
v 1.624177 0.015609 1.269185
v 1.624539 0.001609 1.255335
v 1.624539 0.015609 1.255335
v 1.625624 0.001609 1.241701
v 1.625624 0.015609 1.241701
v 1.627432 0.001609 1.228283
v 1.627432 0.015609 1.228283
v 1.629964 0.001609 1.215081
v 1.629964 0.015609 1.215081
v 1.633218 0.001609 1.202096
v 1.633218 0.015609 1.202096
v 1.637196 0.001609 1.189327
v 1.637196 0.015609 1.189327
v 1.641898 0.001609 1.176774
v 1.641898 0.015609 1.176774
v 1.647322 0.001609 1.164437
v 1.647322 0.015609 1.164437
v 1.653470 0.001609 1.152317
v 1.653470 0.015609 1.152317
v 1.660341 0.001609 1.140412
v 1.660341 0.015609 1.140412
v 1.667936 0.001609 1.128724
v 1.667936 0.015609 1.128724
v 1.676253 0.001609 1.117253
v 1.676253 0.015609 1.117253
v 1.685264 0.001609 1.105997
v 1.685264 0.015609 1.105997
v 1.694939 0.001609 1.094958
v 1.694939 0.015609 1.094958
v 1.705277 0.001609 1.084135
v 1.705277 0.015609 1.084135
v 1.716280 0.001609 1.073528
v 1.716280 0.015609 1.073528
v 1.727945 0.001609 1.063138
v 1.727945 0.015609 1.063138
v 1.740274 0.001609 1.052963
v 1.740274 0.015609 1.052963
v 1.753267 0.001609 1.043005
v 1.753267 0.015609 1.043005
v 1.766924 0.001609 1.033263
v 1.766924 0.015609 1.033263
v 1.781244 0.001609 1.023738
v 1.781244 0.015609 1.023738
v 1.796228 0.001609 1.014428
v 1.796228 0.015609 1.014428
v 1.811875 0.001609 1.005335
v 1.811875 0.015609 1.005335
v 1.828186 0.001609 0.996458
v 1.828186 0.015609 0.996458
v 1.802331 0.001609 0.996909
v 1.802331 0.015609 0.996909
v 1.777378 0.001609 0.997905
v 1.777378 0.015609 0.997905
v 1.753327 0.001609 0.999444
v 1.753327 0.015609 0.999444
v 1.730178 0.001609 1.001529
v 1.730178 0.015609 1.001529
v 1.707932 0.001609 1.004157
v 1.707932 0.015609 1.004157
v 1.686588 0.001609 1.007330
v 1.686588 0.015609 1.007330
v 1.666146 0.001609 1.011047
v 1.666146 0.015609 1.011047
v 1.646606 0.001609 1.015308
v 1.646606 0.015609 1.015308
v 1.627969 0.001609 1.020114
v 1.627969 0.015609 1.020114
v 1.610234 0.001609 1.025464
v 1.610234 0.015609 1.025464
v 1.593401 0.001609 1.031358
v 1.593401 0.015609 1.031358
v 1.577470 0.001609 1.037797
v 1.577470 0.015609 1.037797
v 1.562266 0.001609 1.044843
v 1.562266 0.015609 1.044843
v 1.547615 0.001609 1.052561
v 1.547615 0.015609 1.052561
v 1.533514 0.001609 1.060949
v 1.533514 0.015609 1.060949
v 1.519966 0.001609 1.070009
v 1.519966 0.015609 1.070009
v 1.506969 0.001609 1.079739
v 1.506969 0.015609 1.079739
v 1.494525 0.001609 1.090141
v 1.494525 0.015609 1.090141
v 1.482632 0.001609 1.101214
v 1.482632 0.015609 1.101214
v 1.471290 0.001609 1.112958
v 1.471290 0.015609 1.112958
v 1.460501 0.001609 1.125373
v 1.460501 0.015609 1.125373
v 1.450263 0.001609 1.138459
v 1.450263 0.015609 1.138459
v 1.440577 0.001609 1.152216
v 1.440577 0.015609 1.152216
v 1.431443 0.001609 1.166644
v 1.431443 0.015609 1.166644
v 1.422887 0.001609 1.181814
v 1.422887 0.015609 1.181814
v 1.414934 0.001609 1.197797
v 1.414934 0.015609 1.197797
v 1.407586 0.001609 1.214593
v 1.407586 0.015609 1.214593
v 1.400842 0.001609 1.232201
v 1.400842 0.015609 1.232201
v 1.394701 0.001609 1.250623
v 1.394701 0.015609 1.250623
v 1.389165 0.001609 1.269856
v 1.389165 0.015609 1.269856
v 1.384232 0.001609 1.289903
v 1.384232 0.015609 1.289903
v 1.379904 0.001609 1.310763
v 1.379904 0.015609 1.310763
v 1.376179 0.001609 1.332435
v 1.376179 0.015609 1.332435
v 1.373059 0.001609 1.354920
v 1.373059 0.015609 1.354920
v 1.370542 0.001609 1.378217
v 1.370542 0.015609 1.378217
v 1.368630 0.001609 1.402328
v 1.368630 0.015609 1.402328
v 1.328902 0.001609 1.409844
v 1.328902 0.015609 1.409844
v 1.328902 0.001609 0.558377
v 1.328902 0.015609 0.558377
v 1.368630 0.001609 0.566966
v 1.368630 0.015609 0.566966
v 1.369431 0.001609 0.599279
v 1.369431 0.015609 0.599279
v 1.371836 0.001609 0.630361
v 1.371836 0.015609 0.630361
v 1.375844 0.001609 0.660213
v 1.375844 0.015609 0.660213
v 1.381455 0.001609 0.688835
v 1.381455 0.015609 0.688835
v 1.388669 0.001609 0.716226
v 1.388669 0.015609 0.716226
v 1.397486 0.001609 0.742387
v 1.397486 0.015609 0.742387
v 1.407907 0.001609 0.767318
v 1.407907 0.015609 0.767318
v 1.419930 0.001609 0.791018
v 1.419930 0.015609 0.791018
v 1.433557 0.001609 0.813488
v 1.433557 0.015609 0.813488
v 1.448787 0.001609 0.834728
v 1.448787 0.015609 0.834728
v 1.465620 0.001609 0.854737
v 1.465620 0.015609 0.854737
v 1.484056 0.001609 0.873516
v 1.484056 0.015609 0.873516
v 1.504080 0.001609 0.890893
v 1.504080 0.015609 0.890893
v 1.525678 0.001609 0.906697
v 1.525678 0.015609 0.906697
v 1.548849 0.001609 0.920928
v 1.548849 0.015609 0.920928
v 1.573593 0.001609 0.933585
v 1.573593 0.015609 0.933585
v 1.599910 0.001609 0.944669
v 1.599910 0.015609 0.944669
v 1.627801 0.001609 0.954180
v 1.627801 0.015609 0.954180
v 1.657265 0.001609 0.962117
v 1.657265 0.015609 0.962117
v 1.688303 0.001609 0.968482
v 1.688303 0.015609 0.968482
v 1.720914 0.001609 0.973272
v 1.720914 0.015609 0.973272
v 1.755098 0.001609 0.976490
v 1.755098 0.015609 0.976490
v 1.790855 0.001609 0.978134
v 1.790855 0.015609 0.978134
v 1.828186 0.001609 0.978205
v 1.828186 0.015609 0.978205
v 1.811539 0.001609 0.969991
v 1.811539 0.015609 0.969991
v 1.795601 0.001609 0.961458
v 1.795601 0.015609 0.961458
v 1.780371 0.001609 0.952603
v 1.780371 0.015609 0.952603
v 1.765850 0.001609 0.943428
v 1.765850 0.015609 0.943428
v 1.752037 0.001609 0.933932
v 1.752037 0.015609 0.933932
v 1.738932 0.001609 0.924116
v 1.738932 0.015609 0.924116
v 1.726536 0.001609 0.913979
v 1.726536 0.015609 0.913979
v 1.714848 0.001609 0.903521
v 1.714848 0.015609 0.903521
v 1.703868 0.001609 0.892743
v 1.703868 0.015609 0.892743
v 1.693597 0.001609 0.881644
v 1.693597 0.015609 0.881644
v 1.684034 0.001609 0.870224
v 1.684034 0.015609 0.870224
v 1.675179 0.001609 0.858484
v 1.675179 0.015609 0.858484
v 1.667033 0.001609 0.846453
v 1.667033 0.015609 0.846453
v 1.659595 0.001609 0.834161
v 1.659595 0.015609 0.834161
v 1.652866 0.001609 0.821608
v 1.652866 0.015609 0.821608
v 1.646845 0.001609 0.808794
v 1.646845 0.015609 0.808794
v 1.641532 0.001609 0.795719
v 1.641532 0.015609 0.795719
v 1.636928 0.001609 0.782383
v 1.636928 0.015609 0.782383
v 1.633032 0.001609 0.768787
v 1.633032 0.015609 0.768787
v 1.629844 0.001609 0.754929
v 1.629844 0.015609 0.754929
v 1.627365 0.001609 0.740810
v 1.627365 0.015609 0.740810
v 1.625594 0.001609 0.726430
v 1.625594 0.015609 0.726430
v 1.624532 0.001609 0.711789
v 1.624532 0.015609 0.711789
v 1.624177 0.001609 0.696888
v 1.624177 0.015609 0.696888
v 1.624662 0.001609 0.680972
v 1.624662 0.015609 0.680972
v 1.626116 0.001609 0.665436
v 1.626116 0.015609 0.665436
v 1.628539 0.001609 0.650281
v 1.628539 0.015609 0.650281
v 1.631932 0.001609 0.635506
v 1.631932 0.015609 0.635506
v 1.636294 0.001609 0.621111
v 1.636294 0.015609 0.621111
v 1.641625 0.001609 0.607097
v 1.641625 0.015609 0.607097
v 1.647926 0.001609 0.593463
v 1.647926 0.015609 0.593463
v 1.655196 0.001609 0.580209
v 1.655196 0.015609 0.580209
v 1.663436 0.001609 0.567335
v 1.663436 0.015609 0.567335
v 1.672644 0.001609 0.554842
v 1.672644 0.015609 0.554842
v 1.682822 0.001609 0.542729
v 1.682822 0.015609 0.542729
v 1.693970 0.001609 0.530996
v 1.693970 0.015609 0.530996
v 1.705796 0.001609 0.519935
v 1.705796 0.015609 0.519935
v 1.718009 0.001609 0.509835
v 1.718009 0.015609 0.509835
v 1.730611 0.001609 0.500697
v 1.730611 0.015609 0.500697
v 1.743600 0.001609 0.492521
v 1.743600 0.015609 0.492521
v 1.756977 0.001609 0.485307
v 1.756977 0.015609 0.485307
v 1.770741 0.001609 0.479055
v 1.770741 0.015609 0.479055
v 1.784894 0.001609 0.473764
v 1.784894 0.015609 0.473764
v 1.799434 0.001609 0.469436
v 1.799434 0.015609 0.469436
v 1.814362 0.001609 0.466069
v 1.814362 0.015609 0.466069
v 1.829677 0.001609 0.463665
v 1.829677 0.015609 0.463665
v 1.845381 0.001609 0.462222
v 1.845381 0.015609 0.462222
v 1.861472 0.001609 0.461741
v 1.861472 0.015609 0.461741
v 1.874431 0.001609 0.461987
v 1.874431 0.015609 0.461987
v 1.887181 0.001609 0.462725
v 1.887181 0.015609 0.462725
v 1.899723 0.001609 0.463955
v 1.899723 0.015609 0.463955
v 1.912056 0.001609 0.465678
v 1.912056 0.015609 0.465678
v 1.924180 0.001609 0.467892
v 1.924180 0.015609 0.467892
v 1.936096 0.001609 0.470599
v 1.936096 0.015609 0.470599
v 1.947802 0.001609 0.473798
v 1.947802 0.015609 0.473798
v 1.959300 0.001609 0.477489
v 1.959300 0.015609 0.477489
v 1.970589 0.001609 0.481672
v 1.970589 0.015609 0.481672
v 1.981670 0.001609 0.486347
v 1.981670 0.015609 0.486347
v 1.992541 0.001609 0.491515
v 1.992541 0.015609 0.491515
v 2.003204 0.001609 0.497174
v 2.003204 0.015609 0.497174
v 2.017886 0.001609 0.505645
v 2.017886 0.015609 0.505645
v 2.032582 0.001609 0.514950
v 2.032582 0.015609 0.514950
v 2.047294 0.001609 0.525091
v 2.047294 0.015609 0.525091
v 2.062020 0.001609 0.536067
v 2.062020 0.015609 0.536067
v 2.076762 0.001609 0.547878
v 2.076762 0.015609 0.547878
v 2.091518 0.001609 0.560524
v 2.091518 0.015609 0.560524
v 2.106289 0.001609 0.574005
v 2.106289 0.015609 0.574005
v 2.121076 0.001609 0.588322
v 2.121076 0.015609 0.588322
v 2.135877 0.001609 0.603473
v 2.135877 0.015609 0.603473
v 2.150692 0.001609 0.619460
v 2.150692 0.015609 0.619460
v 2.165524 0.001609 0.636282
v 2.165524 0.015609 0.636282
v 2.180369 0.001609 0.653938
v 2.180369 0.015609 0.653938
v 2.195006 0.001609 0.671618
v 2.195006 0.015609 0.671618
v 2.209211 0.001609 0.688507
v 2.209211 0.015609 0.688507
v 2.222983 0.001609 0.704605
v 2.222983 0.015609 0.704605
v 2.236322 0.001609 0.719913
v 2.236322 0.015609 0.719913
v 2.249229 0.001609 0.734431
v 2.249229 0.015609 0.734431
v 2.261704 0.001609 0.748158
v 2.261704 0.015609 0.748158
v 2.273746 0.001609 0.761095
v 2.273746 0.015609 0.761095
v 2.285356 0.001609 0.773242
v 2.285356 0.015609 0.773242
v 2.296533 0.001609 0.784598
v 2.296533 0.015609 0.784598
v 2.307278 0.001609 0.795164
v 2.307278 0.015609 0.795164
v 2.317590 0.001609 0.804939
v 2.317590 0.015609 0.804939
v 2.327470 0.001609 0.813924
v 2.327470 0.015609 0.813924
v 2.342189 0.001609 0.826693
v 2.342189 0.015609 0.826693
v 2.356640 0.001609 0.838874
v 2.356640 0.015609 0.838874
v 2.370822 0.001609 0.850465
v 2.370822 0.015609 0.850465
v 2.384736 0.001609 0.861467
v 2.384736 0.015609 0.861467
v 2.398381 0.001609 0.871880
v 2.398381 0.015609 0.871880
v 2.411758 0.001609 0.881703
v 2.411758 0.015609 0.881703
v 2.424866 0.001609 0.890938
v 2.424866 0.015609 0.890938
v 2.437706 0.001609 0.899584
v 2.437706 0.015609 0.899584
v 2.450278 0.001609 0.907641
v 2.450278 0.015609 0.907641
v 2.462581 0.001609 0.915108
v 2.462581 0.015609 0.915108
v 2.474616 0.001609 0.921987
v 2.474616 0.015609 0.921987
vn -0.0000 1.0000 -0.0000
vn -0.0000 -1.0000 -0.0000
vn 0.4347 -0.0000 -0.9006
vn 0.4589 -0.0000 -0.8885
vn 0.4117 -0.0000 -0.9113
vn 0.3891 -0.0000 -0.9212
vn 0.3671 -0.0000 -0.9302
vn 0.3456 -0.0000 -0.9384
vn 0.3247 -0.0000 -0.9458
vn 0.3043 -0.0000 -0.9526
vn 0.2845 -0.0000 -0.9587
vn 0.2653 -0.0000 -0.9642
vn 0.2467 -0.0000 -0.9691
vn 0.2286 -0.0000 -0.9735
vn 0.9999 -0.0000 -0.0134
vn 0.2581 -0.0000 0.9661
vn 0.9999 -0.0000 -0.0136
vn 0.2825 -0.0000 0.9593
vn 0.3072 -0.0000 0.9516
vn 0.3322 -0.0000 0.9432
vn 0.3575 -0.0000 0.9339
vn 0.3830 -0.0000 0.9238
vn 0.4086 -0.0000 0.9127
vn 0.4343 -0.0000 0.9008
vn 0.4599 -0.0000 0.8880
vn 0.4342 -0.0000 0.9008
vn 0.4855 -0.0000 0.8742
vn 0.5110 -0.0000 0.8596
vn 0.5383 -0.0000 0.8427
vn 0.5679 -0.0000 0.8231
vn 0.5955 -0.0000 0.8033
vn 0.6195 -0.0000 0.7850
vn 0.6403 -0.0000 0.7681
vn 0.6586 -0.0000 0.7525
vn 0.6747 -0.0000 0.7381
vn 0.6889 -0.0000 0.7248
vn 0.7016 -0.0000 0.7125
vn 0.7130 -0.0000 0.7011
vn 0.7233 -0.0000 0.6906
vn 0.7325 -0.0000 0.6807
vn 0.7371 -0.0000 0.6758
vn 0.7330 -0.0000 0.6802
vn 0.7241 -0.0000 0.6897
vn 0.7140 -0.0000 0.7001
vn 0.7024 -0.0000 0.7118
vn 0.6890 -0.0000 0.7247
vn 0.6734 -0.0000 0.7393
vn 0.6550 -0.0000 0.7556
vn 0.6331 -0.0000 0.7741
vn 0.6065 -0.0000 0.7951
vn 0.5740 -0.0000 0.8189
vn 0.5334 -0.0000 0.8459
vn 0.4891 -0.0000 0.8722
vn 0.4506 -0.0000 0.8927
vn 0.4162 -0.0000 0.9093
vn 0.3801 -0.0000 0.9249
vn 0.3424 -0.0000 0.9396
vn 0.3031 -0.0000 0.9530
vn 0.2624 -0.0000 0.9650
vn 0.2205 -0.0000 0.9754
vn 0.1776 -0.0000 0.9841
vn 0.1338 -0.0000 0.9910
vn 0.0894 -0.0000 0.9960
vn 0.0448 -0.0000 0.9990
vn -0.0029 -0.0000 1.0000
vn -0.0574 -0.0000 0.9984
vn -0.1172 -0.0000 0.9931
vn -0.0574 -0.0000 0.9983
vn -0.1792 -0.0000 0.9838
vn -0.2428 -0.0000 0.9701
vn -0.3072 -0.0000 0.9517
vn -0.3715 -0.0000 0.9284
vn -0.4348 -0.0000 0.9005
vn -0.4961 -0.0000 0.8683
vn -0.5546 -0.0000 0.8321
vn -0.6095 -0.0000 0.7928
vn -0.6604 -0.0000 0.7509
vn -0.7067 -0.0000 0.7076
vn -0.7493 -0.0000 0.6623
vn -0.7899 -0.0000 0.6132
vn -0.8286 -0.0000 0.5599
vn -0.8644 -0.0000 0.5028
vn -0.8968 -0.0000 0.4424
vn -0.9252 -0.0000 0.3796
vn -0.9490 -0.0000 0.3151
vn -0.9682 -0.0000 0.2501
vn -0.9827 -0.0000 0.1852
vn -0.9926 -0.0000 0.1215
vn -0.9982 -0.0000 0.0597
vn -1.0000 -0.0000 0.0016
vn -0.9986 -0.0000 -0.0527
vn -0.9943 -0.0000 -0.1065
vn -0.9870 -0.0000 -0.1610
vn -0.9764 -0.0000 -0.2158
vn -0.9628 -0.0000 -0.2704
vn -0.9460 -0.0000 -0.3242
vn -0.9263 -0.0000 -0.3768
vn -0.9040 -0.0000 -0.4276
vn -0.8793 -0.0000 -0.4763
vn -0.8526 -0.0000 -0.5226
vn -0.8243 -0.0000 -0.5661
vn -0.7953 -0.0000 -0.6062
vn -0.7665 -0.0000 -0.6422
vn -0.7378 -0.0000 -0.6751
vn -0.7087 -0.0000 -0.7055
vn -0.6797 -0.0000 -0.7335
vn -0.6509 -0.0000 -0.7591
vn -0.6225 -0.0000 -0.7826
vn -0.5946 -0.0000 -0.8040
vn -0.5674 -0.0000 -0.8235
vn -0.5409 -0.0000 -0.8411
vn -0.5151 -0.0000 -0.8571
vn -0.4903 -0.0000 -0.8716
vn -0.5152 -0.0000 -0.8571
vn -0.9669 -0.0000 0.2552
vn 0.0287 -0.0000 0.9996
vn -0.9669 -0.0000 0.2550
vn 0.0519 -0.0000 0.9987
vn 0.0768 -0.0000 0.9970
vn 0.1035 -0.0000 0.9946
vn 0.1322 -0.0000 0.9912
vn 0.1630 -0.0000 0.9866
vn 0.1960 -0.0000 0.9806
vn 0.2314 -0.0000 0.9729
vn 0.2693 -0.0000 0.9631
vn 0.3097 -0.0000 0.9508
vn 0.3527 -0.0000 0.9357
vn 0.3977 -0.0000 0.9175
vn 0.4434 -0.0000 0.8963
vn 0.4888 -0.0000 0.8724
vn 0.5338 -0.0000 0.8456
vn 0.5778 -0.0000 0.8162
vn 0.6205 -0.0000 0.7842
vn 0.6616 -0.0000 0.7499
vn 0.7006 -0.0000 0.7135
vn 0.7373 -0.0000 0.6755
vn 0.7715 -0.0000 0.6363
vn 0.8029 -0.0000 0.5961
vn 0.8315 -0.0000 0.5555
vn 0.8582 -0.0000 0.5133
vn 0.8835 -0.0000 0.4685
vn 0.8582 -0.0000 0.5132
vn 0.9060 -0.0000 0.4233
vn 0.9253 -0.0000 0.3794
vn 0.9415 -0.0000 0.3370
vn 0.9252 -0.0000 0.3794
vn 0.9550 -0.0000 0.2965
vn 0.9662 -0.0000 0.2578
vn 0.9753 -0.0000 0.2211
vn 0.9825 -0.0000 0.1863
vn 0.9882 -0.0000 0.1534
vn 0.9925 -0.0000 0.1224
vn 0.9956 -0.0000 0.0932
vn 0.7442 -0.0000 0.6680
vn -0.6380 -0.0000 0.7700
vn -0.6280 -0.0000 -0.7782
vn 0.7704 -0.0000 -0.6376
vn -0.6280 -0.0000 -0.7783
vn 0.9987 -0.0000 -0.0510
vn 0.9945 -0.0000 -0.1051
vn 0.9867 -0.0000 -0.1628
vn 0.9747 -0.0000 -0.2236
vn 0.9579 -0.0000 -0.2872
vn 0.9357 -0.0000 -0.3527
vn 0.9078 -0.0000 -0.4193
vn 0.8741 -0.0000 -0.4858
vn 0.8345 -0.0000 -0.5510
vn 0.7895 -0.0000 -0.6137
vn 0.7400 -0.0000 -0.6727
vn 0.6851 -0.0000 -0.7285
vn 0.6235 -0.0000 -0.7818
vn 0.5574 -0.0000 -0.8303
vn 0.4897 -0.0000 -0.8719
vn 0.5574 -0.0000 -0.8302
vn 0.4221 -0.0000 -0.9066
vn 0.3557 -0.0000 -0.9346
vn 0.2916 -0.0000 -0.9565
vn 0.2306 -0.0000 -0.9730
vn 0.1732 -0.0000 -0.9849
vn 0.1196 -0.0000 -0.9928
vn 0.0698 -0.0000 -0.9976
vn 0.0239 -0.0000 -0.9997
vn -0.9736 -0.0000 -0.2281
vn -0.4573 -0.0000 0.8893
vn -0.9736 -0.0000 -0.2282
vn -0.4874 -0.0000 0.8732
vn -0.5185 -0.0000 0.8551
vn -0.5504 -0.0000 0.8349
vn -0.5831 -0.0000 0.8124
vn -0.6164 -0.0000 0.7874
vn -0.6501 -0.0000 0.7599
vn -0.6838 -0.0000 0.7296
vn -0.7174 -0.0000 0.6966
vn -0.7505 -0.0000 0.6608
vn -0.7828 -0.0000 0.6223
vn -0.8135 -0.0000 0.5816
vn -0.8421 -0.0000 0.5394
vn -0.8687 -0.0000 0.4953
vn -0.8935 -0.0000 0.4490
vn -0.9161 -0.0000 0.4010
vn -0.9362 -0.0000 0.3515
vn -0.9536 -0.0000 0.3010
vn -0.9683 -0.0000 0.2499
vn -0.9801 -0.0000 0.1986
vn -0.9890 -0.0000 0.1476
vn -0.9953 -0.0000 0.0973
vn -0.9988 -0.0000 0.0481
vn -1.0000 -0.0000 -0.0033
vn -0.9981 -0.0000 -0.0618
vn -0.9921 -0.0000 -0.1256
vn -0.9816 -0.0000 -0.1910
vn -0.9664 -0.0000 -0.2571
vn -0.9464 -0.0000 -0.3230
vn -0.9218 -0.0000 -0.3878
vn -0.8928 -0.0000 -0.4505
vn -0.8600 -0.0000 -0.5103
vn -0.8241 -0.0000 -0.5665
vn -0.7857 -0.0000 -0.6186
vn -0.7456 -0.0000 -0.6664
vn -0.7043 -0.0000 -0.7099
vn -0.6605 -0.0000 -0.7508
vn -0.6125 -0.0000 -0.7905
vn -0.5602 -0.0000 -0.8284
vn -0.5040 -0.0000 -0.8637
vn -0.4444 -0.0000 -0.8958
vn -0.3821 -0.0000 -0.9241
vn -0.3179 -0.0000 -0.9481
vn -0.2528 -0.0000 -0.9675
vn -0.1877 -0.0000 -0.9822
vn -0.1234 -0.0000 -0.9924
vn -0.0607 -0.0000 -0.9982
vn -0.0054 -0.0000 -1.0000
vn 0.0384 -0.0000 -0.9993
vn 0.0777 -0.0000 -0.9970
vn 0.1180 -0.0000 -0.9930
vn 0.1590 -0.0000 -0.9873
vn 0.2006 -0.0000 -0.9797
vn 0.2426 -0.0000 -0.9701
vn 0.2847 -0.0000 -0.9586
vn 0.3266 -0.0000 -0.9452
vn 0.3682 -0.0000 -0.9297
vn 0.4091 -0.0000 -0.9125
vn 0.4492 -0.0000 -0.8934
vn 0.4844 -0.0000 -0.8749
vn 0.5175 -0.0000 -0.8557
vn 0.5514 -0.0000 -0.8343
vn 0.5827 -0.0000 -0.8127
vn 0.6115 -0.0000 -0.7912
vn 0.6381 -0.0000 -0.7700
vn 0.6625 -0.0000 -0.7491
vn 0.6849 -0.0000 -0.7286
vn 0.7055 -0.0000 -0.7087
vn 0.7245 -0.0000 -0.6893
vn 0.7418 -0.0000 -0.6706
vn 0.7578 -0.0000 -0.6525
vn 0.7678 -0.0000 -0.6406
vn 0.7678 -0.0000 -0.6407
vn 0.7626 -0.0000 -0.6469
vn 0.7569 -0.0000 -0.6535
vn 0.7506 -0.0000 -0.6607
vn 0.7437 -0.0000 -0.6685
vn 0.7360 -0.0000 -0.6769
vn 0.7275 -0.0000 -0.6862
vn 0.7178 -0.0000 -0.6962
vn 0.7069 -0.0000 -0.7073
vn 0.6946 -0.0000 -0.7194
vn 0.6804 -0.0000 -0.7328
vn 0.6641 -0.0000 -0.7476
vn 0.6499 -0.0000 -0.7600
vn 0.6387 -0.0000 -0.7695
vn 0.6266 -0.0000 -0.7794
vn 0.6135 -0.0000 -0.7897
vn 0.5993 -0.0000 -0.8005
vn 0.5839 -0.0000 -0.8118
vn 0.5673 -0.0000 -0.8235
vn 0.5840 -0.0000 -0.8118
vn 0.5491 -0.0000 -0.8358
vn 0.5293 -0.0000 -0.8485
vn 0.5076 -0.0000 -0.8616
vn 0.4839 -0.0000 -0.8751
vt 0.041353 0.000000
vt 0.048872 0.000000
vt 0.045113 0.000000
vt 0.037594 0.000000
vt 0.052632 0.000000
vt 0.033835 0.000000
vt 0.056391 0.000000
vt 0.030075 0.000000
vt 0.060150 0.000000
vt 0.026316 0.000000
vt 0.022556 0.000000
vt 0.063910 0.000000
vt 0.018797 0.000000
vt 0.067669 0.000000
vt 0.015038 0.000000
vt 0.071429 0.000000
vt 0.011278 0.000000
vt 0.075188 0.000000
vt 0.007519 0.000000
vt 0.003759 0.000000
vt 0.078947 0.000000
vt 0.000000 0.000000
vt 0.082707 0.000000
vt 1.000000 0.000000
vt 0.996241 0.000000
vt 0.086466 0.000000
vt 0.992481 0.000000
vt 0.090226 0.000000
vt 0.988722 0.000000
vt 0.093985 0.000000
vt 0.984962 0.000000
vt 0.097744 0.000000
vt 0.981203 0.000000
vt 0.101504 0.000000
vt 0.977444 0.000000
vt 0.973684 0.000000
vt 0.105263 0.000000
vt 0.969925 0.000000
vt 0.109023 0.000000
vt 0.966165 0.000000
vt 0.112782 0.000000
vt 0.962406 0.000000
vt 0.958647 0.000000
vt 0.116541 0.000000
vt 0.954887 0.000000
vt 0.120301 0.000000
vt 0.951128 0.000000
vt 0.947368 0.000000
vt 0.124060 0.000000
vt 0.943609 0.000000
vt 0.939850 0.000000
vt 0.127820 0.000000
vt 0.936090 0.000000
vt 0.932331 0.000000
vt 0.131579 0.000000
vt 0.928571 0.000000
vt 0.135338 0.000000
vt 0.924812 0.000000
vt 0.921053 0.000000
vt 0.139098 0.000000
vt 0.917293 0.000000
vt 0.142857 0.000000
vt 0.913534 0.000000
vt 0.909774 0.000000
vt 0.146617 0.000000
vt 0.906015 0.000000
vt 0.150376 0.000000
vt 0.902256 0.000000
vt 0.898496 0.000000
vt 0.154135 0.000000
vt 0.894737 0.000000
vt 0.157895 0.000000
vt 0.890977 0.000000
vt 0.161654 0.000000
vt 0.887218 0.000000
vt 0.165414 0.000000
vt 0.883459 0.000000
vt 0.169173 0.000000
vt 0.879699 0.000000
vt 0.172932 0.000000
vt 0.875940 0.000000
vt 0.176692 0.000000
vt 0.872180 0.000000
vt 0.180451 0.000000
vt 0.868421 0.000000
vt 0.184211 0.000000
vt 0.864662 0.000000
vt 0.187970 0.000000
vt 0.860902 0.000000
vt 0.191729 0.000000
vt 0.857143 0.000000
vt 0.195489 0.000000
vt 0.853383 0.000000
vt 0.199248 0.000000
vt 0.849624 0.000000
vt 0.203008 0.000000
vt 0.845865 0.000000
vt 0.206767 0.000000
vt 0.842105 0.000000
vt 0.210526 0.000000
vt 0.838346 0.000000
vt 0.214286 0.000000
vt 0.834586 0.000000
vt 0.218045 0.000000
vt 0.830827 0.000000
vt 0.221805 0.000000
vt 0.827068 0.000000
vt 0.225564 0.000000
vt 0.823308 0.000000
vt 0.229323 0.000000
vt 0.819549 0.000000
vt 0.233083 0.000000
vt 0.815789 0.000000
vt 0.406015 0.000000
vt 0.236842 0.000000
vt 0.812030 0.000000
vt 0.642857 0.000000
vt 0.646617 0.000000
vt 0.639098 0.000000
vt 0.409774 0.000000
vt 0.402256 0.000000
vt 0.240602 0.000000
vt 0.808271 0.000000
vt 0.398496 0.000000
vt 0.650376 0.000000
vt 0.413534 0.000000
vt 0.244361 0.000000
vt 0.804511 0.000000
vt 0.394737 0.000000
vt 0.654135 0.000000
vt 0.635338 0.000000
vt 0.800752 0.000000
vt 0.248120 0.000000
vt 0.390977 0.000000
vt 0.657895 0.000000
vt 0.417293 0.000000
vt 0.796992 0.000000
vt 0.251880 0.000000
vt 0.387218 0.000000
vt 0.661654 0.000000
vt 0.793233 0.000000
vt 0.255639 0.000000
vt 0.631579 0.000000
vt 0.421053 0.000000
vt 0.383459 0.000000
vt 0.665414 0.000000
vt 0.789474 0.000000
vt 0.259398 0.000000
vt 0.379699 0.000000
vt 0.669173 0.000000
vt 0.785714 0.000000
vt 0.424812 0.000000
vt 0.263158 0.000000
vt 0.375940 0.000000
vt 0.672932 0.000000
vt 0.627820 0.000000
vt 0.781955 0.000000
vt 0.266917 0.000000
vt 0.372180 0.000000
vt 0.676692 0.000000
vt 0.428571 0.000000
vt 0.778196 0.000000
vt 0.368421 0.000000
vt 0.270677 0.000000
vt 0.680451 0.000000
vt 0.364662 0.000000
vt 0.774436 0.000000
vt 0.684211 0.000000
vt 0.274436 0.000000
vt 0.624060 0.000000
vt 0.432331 0.000000
vt 0.360902 0.000000
vt 0.687970 0.000000
vt 0.770677 0.000000
vt 0.278196 0.000000
vt 0.357143 0.000000
vt 0.691729 0.000000
vt 0.766917 0.000000
vt 0.281955 0.000000
vt 0.353383 0.000000
vt 0.695489 0.000000
vt 0.436090 0.000000
vt 0.763158 0.000000
vt 0.285714 0.000000
vt 0.349624 0.000000
vt 0.699248 0.000000
vt 0.620301 0.000000
vt 0.759399 0.000000
vt 0.289474 0.000000
vt 0.345865 0.000000
vt 0.703008 0.000000
vt 0.755639 0.000000
vt 0.293233 0.000000
vt 0.342105 0.000000
vt 0.706767 0.000000
vt 0.439850 0.000000
vt 0.338346 0.000000
vt 0.751880 0.000000
vt 0.710526 0.000000
vt 0.296992 0.000000
vt 0.334586 0.000000
vt 0.714286 0.000000
vt 0.748120 0.000000
vt 0.300752 0.000000
vt 0.330827 0.000000
vt 0.718045 0.000000
vt 0.744361 0.000000
vt 0.304511 0.000000
vt 0.327068 0.000000
vt 0.721804 0.000000
vt 0.740601 0.000000
vt 0.308271 0.000000
vt 0.443609 0.000000
vt 0.616541 0.000000
vt 0.323308 0.000000
vt 0.725564 0.000000
vt 0.736842 0.000000
vt 0.312030 0.000000
vt 0.319549 0.000000
vt 0.729323 0.000000
vt 0.733083 0.000000
vt 0.315789 0.000000
vt 0.447368 0.000000
vt 0.612782 0.000000
vt 0.451128 0.000000
vt 0.454887 0.000000
vt 0.609023 0.000000
vt 0.458647 0.000000
vt 0.605263 0.000000
vt 0.462406 0.000000
vt 0.466165 0.000000
vt 0.601504 0.000000
vt 0.469925 0.000000
vt 0.473684 0.000000
vt 0.597744 0.000000
vt 0.477444 0.000000
vt 0.593985 0.000000
vt 0.481203 0.000000
vt 0.484962 0.000000
vt 0.590226 0.000000
vt 0.488722 0.000000
vt 0.492481 0.000000
vt 0.586466 0.000000
vt 0.496241 0.000000
vt 0.582707 0.000000
vt 0.500000 0.000000
vt 0.503759 0.000000
vt 0.578947 0.000000
vt 0.507519 0.000000
vt 0.575188 0.000000
vt 0.511278 0.000000
vt 0.515038 0.000000
vt 0.571429 0.000000
vt 0.518797 0.000000
vt 0.522556 0.000000
vt 0.567669 0.000000
vt 0.526316 0.000000
vt 0.563910 0.000000
vt 0.530075 0.000000
vt 0.533835 0.000000
vt 0.560150 0.000000
vt 0.537594 0.000000
vt 0.556391 0.000000
vt 0.541353 0.000000
vt 0.552632 0.000000
vt 0.548872 0.000000
vt 0.545113 0.000000
vt 0.003745 1.000000
vt 0.000000 1.000000
vt 0.007491 1.000000
vt 0.003745 0.000000
vt 0.011236 1.000000
vt 0.007491 0.000000
vt 0.014981 1.000000
vt 0.011236 0.000000
vt 0.018727 1.000000
vt 0.014981 0.000000
vt 0.022472 1.000000
vt 0.018727 0.000000
vt 0.026217 1.000000
vt 0.022472 0.000000
vt 0.029963 1.000000
vt 0.026217 0.000000
vt 0.033708 1.000000
vt 0.029963 0.000000
vt 0.037453 1.000000
vt 0.033708 0.000000
vt 0.041199 1.000000
vt 0.037453 0.000000
vt 0.044944 1.000000
vt 0.041199 0.000000
vt 0.048689 1.000000
vt 0.044944 0.000000
vt 0.052434 1.000000
vt 0.048689 0.000000
vt 0.056180 1.000000
vt 0.052434 0.000000
vt 0.059925 1.000000
vt 0.056180 0.000000
vt 0.063670 1.000000
vt 0.059925 0.000000
vt 0.067416 1.000000
vt 0.063670 0.000000
vt 0.071161 1.000000
vt 0.067416 0.000000
vt 0.074906 1.000000
vt 0.071161 0.000000
vt 0.078652 1.000000
vt 0.074906 0.000000
vt 0.082397 1.000000
vt 0.078652 0.000000
vt 0.086142 1.000000
vt 0.082397 0.000000
vt 0.089888 1.000000
vt 0.086142 0.000000
vt 0.093633 1.000000
vt 0.089888 0.000000
vt 0.097378 1.000000
vt 0.093633 0.000000
vt 0.101124 1.000000
vt 0.097378 0.000000
vt 0.104869 1.000000
vt 0.101124 0.000000
vt 0.108614 1.000000
vt 0.104869 0.000000
vt 0.112360 1.000000
vt 0.108614 0.000000
vt 0.116105 1.000000
vt 0.112360 0.000000
vt 0.119850 1.000000
vt 0.116105 0.000000
vt 0.123596 1.000000
vt 0.119850 0.000000
vt 0.127341 1.000000
vt 0.123596 0.000000
vt 0.131086 1.000000
vt 0.127341 0.000000
vt 0.134831 1.000000
vt 0.131086 0.000000
vt 0.138577 1.000000
vt 0.134831 0.000000
vt 0.142322 1.000000
vt 0.138577 0.000000
vt 0.146067 1.000000
vt 0.142322 0.000000
vt 0.149813 1.000000
vt 0.146067 0.000000
vt 0.153558 1.000000
vt 0.149813 0.000000
vt 0.157303 1.000000
vt 0.153558 0.000000
vt 0.161049 1.000000
vt 0.157303 0.000000
vt 0.164794 1.000000
vt 0.161049 0.000000
vt 0.168539 1.000000
vt 0.164794 0.000000
vt 0.172285 1.000000
vt 0.168539 0.000000
vt 0.176030 1.000000
vt 0.172285 0.000000
vt 0.179775 1.000000
vt 0.176030 0.000000
vt 0.183521 1.000000
vt 0.179775 0.000000
vt 0.187266 1.000000
vt 0.183521 0.000000
vt 0.191011 1.000000
vt 0.187266 0.000000
vt 0.194757 1.000000
vt 0.191011 0.000000
vt 0.198502 1.000000
vt 0.194757 0.000000
vt 0.202247 1.000000
vt 0.198502 0.000000
vt 0.205993 1.000000
vt 0.202247 0.000000
vt 0.209738 1.000000
vt 0.205993 0.000000
vt 0.213483 1.000000
vt 0.209738 0.000000
vt 0.217228 1.000000
vt 0.213483 0.000000
vt 0.220974 1.000000
vt 0.217228 0.000000
vt 0.224719 1.000000
vt 0.220974 0.000000
vt 0.228464 1.000000
vt 0.224719 0.000000
vt 0.232210 1.000000
vt 0.228464 0.000000
vt 0.235955 1.000000
vt 0.232210 0.000000
vt 0.239700 1.000000
vt 0.235955 0.000000
vt 0.243446 1.000000
vt 0.239700 0.000000
vt 0.247191 1.000000
vt 0.243446 0.000000
vt 0.250936 1.000000
vt 0.247191 0.000000
vt 0.254682 1.000000
vt 0.250936 0.000000
vt 0.258427 1.000000
vt 0.254682 0.000000
vt 0.262172 1.000000
vt 0.258427 0.000000
vt 0.265918 1.000000
vt 0.262172 0.000000
vt 0.269663 1.000000
vt 0.265918 0.000000
vt 0.273408 1.000000
vt 0.269663 0.000000
vt 0.277154 1.000000
vt 0.273408 0.000000
vt 0.280899 1.000000
vt 0.277154 0.000000
vt 0.284644 1.000000
vt 0.280899 0.000000
vt 0.288390 1.000000
vt 0.284644 0.000000
vt 0.292135 1.000000
vt 0.288390 0.000000
vt 0.295880 1.000000
vt 0.292135 0.000000
vt 0.299625 1.000000
vt 0.295880 0.000000
vt 0.303371 1.000000
vt 0.299625 0.000000
vt 0.307116 1.000000
vt 0.303371 0.000000
vt 0.310861 1.000000
vt 0.307116 0.000000
vt 0.314607 1.000000
vt 0.310861 0.000000
vt 0.318352 1.000000
vt 0.314607 0.000000
vt 0.322097 1.000000
vt 0.318352 0.000000
vt 0.325843 1.000000
vt 0.322097 0.000000
vt 0.329588 1.000000
vt 0.325843 0.000000
vt 0.333333 1.000000
vt 0.329588 0.000000
vt 0.337079 1.000000
vt 0.333333 0.000000
vt 0.340824 1.000000
vt 0.337079 0.000000
vt 0.344569 1.000000
vt 0.340824 0.000000
vt 0.348315 1.000000
vt 0.344569 0.000000
vt 0.352060 1.000000
vt 0.348315 0.000000
vt 0.355805 1.000000
vt 0.352060 0.000000
vt 0.359551 1.000000
vt 0.355805 0.000000
vt 0.363296 1.000000
vt 0.359551 0.000000
vt 0.367041 1.000000
vt 0.363296 0.000000
vt 0.370787 1.000000
vt 0.367041 0.000000
vt 0.374532 1.000000
vt 0.370787 0.000000
vt 0.378277 1.000000
vt 0.374532 0.000000
vt 0.382022 1.000000
vt 0.378277 0.000000
vt 0.385768 1.000000
vt 0.382022 0.000000
vt 0.389513 1.000000
vt 0.385768 0.000000
vt 0.393258 1.000000
vt 0.389513 0.000000
vt 0.397004 1.000000
vt 0.393258 0.000000
vt 0.400749 1.000000
vt 0.397004 0.000000
vt 0.404494 1.000000
vt 0.400749 0.000000
vt 0.408240 1.000000
vt 0.404494 0.000000
vt 0.411985 1.000000
vt 0.408240 0.000000
vt 0.415730 1.000000
vt 0.411985 0.000000
vt 0.419476 1.000000
vt 0.415730 0.000000
vt 0.423221 1.000000
vt 0.419476 0.000000
vt 0.426966 1.000000
vt 0.423221 0.000000
vt 0.430712 1.000000
vt 0.426966 0.000000
vt 0.434457 1.000000
vt 0.430712 0.000000
vt 0.438202 1.000000
vt 0.434457 0.000000
vt 0.441948 1.000000
vt 0.438202 0.000000
vt 0.445693 1.000000
vt 0.441948 0.000000
vt 0.449438 1.000000
vt 0.445693 0.000000
vt 0.453184 1.000000
vt 0.449438 0.000000
vt 0.456929 1.000000
vt 0.453184 0.000000
vt 0.460674 1.000000
vt 0.456929 0.000000
vt 0.464419 1.000000
vt 0.460674 0.000000
vt 0.468165 1.000000
vt 0.464419 0.000000
vt 0.471910 1.000000
vt 0.468165 0.000000
vt 0.475655 1.000000
vt 0.471910 0.000000
vt 0.479401 1.000000
vt 0.475655 0.000000
vt 0.483146 1.000000
vt 0.479401 0.000000
vt 0.486891 1.000000
vt 0.483146 0.000000
vt 0.490637 1.000000
vt 0.486891 0.000000
vt 0.494382 1.000000
vt 0.490637 0.000000
vt 0.498127 1.000000
vt 0.494382 0.000000
vt 0.501873 1.000000
vt 0.498127 0.000000
vt 0.505618 1.000000
vt 0.501873 0.000000
vt 0.509363 1.000000
vt 0.505618 0.000000
vt 0.513109 1.000000
vt 0.509363 0.000000
vt 0.516854 1.000000
vt 0.513109 0.000000
vt 0.520599 1.000000
vt 0.516854 0.000000
vt 0.524345 1.000000
vt 0.520599 0.000000
vt 0.528090 1.000000
vt 0.524345 0.000000
vt 0.531835 1.000000
vt 0.528090 0.000000
vt 0.535581 1.000000
vt 0.531835 0.000000
vt 0.539326 1.000000
vt 0.535581 0.000000
vt 0.543071 1.000000
vt 0.539326 0.000000
vt 0.546816 1.000000
vt 0.543071 0.000000
vt 0.550562 1.000000
vt 0.546816 0.000000
vt 0.554307 1.000000
vt 0.550562 0.000000
vt 0.558052 1.000000
vt 0.554307 0.000000
vt 0.561798 1.000000
vt 0.558052 0.000000
vt 0.565543 1.000000
vt 0.561798 0.000000
vt 0.569288 1.000000
vt 0.565543 0.000000
vt 0.573034 1.000000
vt 0.569288 0.000000
vt 0.576779 1.000000
vt 0.573034 0.000000
vt 0.580524 1.000000
vt 0.576779 0.000000
vt 0.584270 1.000000
vt 0.580524 0.000000
vt 0.588015 1.000000
vt 0.584270 0.000000
vt 0.591760 1.000000
vt 0.588015 0.000000
vt 0.595506 1.000000
vt 0.591760 0.000000
vt 0.599251 1.000000
vt 0.595506 0.000000
vt 0.602996 1.000000
vt 0.599251 0.000000
vt 0.606742 1.000000
vt 0.602996 0.000000
vt 0.610487 1.000000
vt 0.606742 0.000000
vt 0.614232 1.000000
vt 0.610487 0.000000
vt 0.617977 1.000000
vt 0.614232 0.000000
vt 0.621723 1.000000
vt 0.617977 0.000000
vt 0.625468 1.000000
vt 0.621723 0.000000
vt 0.629214 1.000000
vt 0.625468 0.000000
vt 0.632959 1.000000
vt 0.629214 0.000000
vt 0.636704 1.000000
vt 0.632959 0.000000
vt 0.640449 1.000000
vt 0.636704 0.000000
vt 0.644195 1.000000
vt 0.640449 0.000000
vt 0.647940 1.000000
vt 0.644195 0.000000
vt 0.651685 1.000000
vt 0.647940 0.000000
vt 0.655431 1.000000
vt 0.651685 0.000000
vt 0.659176 1.000000
vt 0.655431 0.000000
vt 0.662921 1.000000
vt 0.659176 0.000000
vt 0.666667 1.000000
vt 0.662921 0.000000
vt 0.670412 1.000000
vt 0.666667 0.000000
vt 0.674157 1.000000
vt 0.670412 0.000000
vt 0.677903 1.000000
vt 0.674157 0.000000
vt 0.681648 1.000000
vt 0.677903 0.000000
vt 0.685393 1.000000
vt 0.681648 0.000000
vt 0.689139 1.000000
vt 0.685393 0.000000
vt 0.692884 1.000000
vt 0.689139 0.000000
vt 0.696629 1.000000
vt 0.692884 0.000000
vt 0.700375 1.000000
vt 0.696629 0.000000
vt 0.704120 1.000000
vt 0.700375 0.000000
vt 0.707865 1.000000
vt 0.704120 0.000000
vt 0.711610 1.000000
vt 0.707865 0.000000
vt 0.715356 1.000000
vt 0.711610 0.000000
vt 0.719101 1.000000
vt 0.715356 0.000000
vt 0.722846 1.000000
vt 0.719101 0.000000
vt 0.726592 1.000000
vt 0.722846 0.000000
vt 0.730337 1.000000
vt 0.726592 0.000000
vt 0.734082 1.000000
vt 0.730337 0.000000
vt 0.737828 1.000000
vt 0.734082 0.000000
vt 0.741573 1.000000
vt 0.737828 0.000000
vt 0.745318 1.000000
vt 0.741573 0.000000
vt 0.749064 1.000000
vt 0.745318 0.000000
vt 0.752809 1.000000
vt 0.749064 0.000000
vt 0.756554 1.000000
vt 0.752809 0.000000
vt 0.760300 1.000000
vt 0.756554 0.000000
vt 0.764045 1.000000
vt 0.760300 0.000000
vt 0.767790 1.000000
vt 0.764045 0.000000
vt 0.771536 1.000000
vt 0.767790 0.000000
vt 0.775281 1.000000
vt 0.771536 0.000000
vt 0.779026 1.000000
vt 0.775281 0.000000
vt 0.782772 1.000000
vt 0.779026 0.000000
vt 0.786517 1.000000
vt 0.782772 0.000000
vt 0.790262 1.000000
vt 0.786517 0.000000
vt 0.794007 1.000000
vt 0.790262 0.000000
vt 0.797753 1.000000
vt 0.794007 0.000000
vt 0.801498 1.000000
vt 0.797753 0.000000
vt 0.805243 1.000000
vt 0.801498 0.000000
vt 0.808989 1.000000
vt 0.805243 0.000000
vt 0.812734 1.000000
vt 0.808989 0.000000
vt 0.816479 1.000000
vt 0.812734 0.000000
vt 0.820225 1.000000
vt 0.816479 0.000000
vt 0.823970 1.000000
vt 0.820225 0.000000
vt 0.827715 1.000000
vt 0.823970 0.000000
vt 0.831461 1.000000
vt 0.827715 0.000000
vt 0.835206 1.000000
vt 0.831461 0.000000
vt 0.838951 1.000000
vt 0.835206 0.000000
vt 0.842697 1.000000
vt 0.838951 0.000000
vt 0.846442 1.000000
vt 0.842697 0.000000
vt 0.850187 1.000000
vt 0.846442 0.000000
vt 0.853933 1.000000
vt 0.850187 0.000000
vt 0.857678 1.000000
vt 0.853933 0.000000
vt 0.861423 1.000000
vt 0.857678 0.000000
vt 0.865169 1.000000
vt 0.861423 0.000000
vt 0.868914 1.000000
vt 0.865169 0.000000
vt 0.872659 1.000000
vt 0.868914 0.000000
vt 0.876405 1.000000
vt 0.872659 0.000000
vt 0.880150 1.000000
vt 0.876405 0.000000
vt 0.883895 1.000000
vt 0.880150 0.000000
vt 0.887640 1.000000
vt 0.883895 0.000000
vt 0.891386 1.000000
vt 0.887640 0.000000
vt 0.895131 1.000000
vt 0.891386 0.000000
vt 0.898876 1.000000
vt 0.895131 0.000000
vt 0.902622 1.000000
vt 0.898876 0.000000
vt 0.906367 1.000000
vt 0.902622 0.000000
vt 0.910112 1.000000
vt 0.906367 0.000000
vt 0.913858 1.000000
vt 0.910112 0.000000
vt 0.917603 1.000000
vt 0.913858 0.000000
vt 0.921348 1.000000
vt 0.917603 0.000000
vt 0.925094 1.000000
vt 0.921348 0.000000
vt 0.928839 1.000000
vt 0.925094 0.000000
vt 0.932584 1.000000
vt 0.928839 0.000000
vt 0.936330 1.000000
vt 0.932584 0.000000
vt 0.940075 1.000000
vt 0.936330 0.000000
vt 0.943820 1.000000
vt 0.940075 0.000000
vt 0.947566 1.000000
vt 0.943820 0.000000
vt 0.951311 1.000000
vt 0.947566 0.000000
vt 0.955056 1.000000
vt 0.951311 0.000000
vt 0.958802 1.000000
vt 0.955056 0.000000
vt 0.962547 1.000000
vt 0.958802 0.000000
vt 0.966292 1.000000
vt 0.962547 0.000000
vt 0.970037 1.000000
vt 0.966292 0.000000
vt 0.973783 1.000000
vt 0.970037 0.000000
vt 0.977528 1.000000
vt 0.973783 0.000000
vt 0.981273 1.000000
vt 0.977528 0.000000
vt 0.985019 1.000000
vt 0.981273 0.000000
vt 0.988764 1.000000
vt 0.985019 0.000000
vt 0.992509 1.000000
vt 0.988764 0.000000
vt 0.996255 1.000000
vt 0.992509 0.000000
vt 1.000000 1.000000
vt 0.996255 0.000000
s 0
f 12/1/1 14/2/1 13/3/1
f 11/4/1 14/2/1 12/1/1
f 11/4/1 15/5/1 14/2/1
f 10/6/1 15/5/1 11/4/1
f 10/6/1 16/7/1 15/5/1
f 9/8/1 16/7/1 10/6/1
f 9/8/1 17/9/1 16/7/1
f 8/10/1 17/9/1 9/8/1
f 7/11/1 17/9/1 8/10/1
f 7/11/1 18/12/1 17/9/1
f 6/13/1 18/12/1 7/11/1
f 6/13/1 19/14/1 18/12/1
f 5/15/1 19/14/1 6/13/1
f 5/15/1 20/16/1 19/14/1
f 4/17/1 20/16/1 5/15/1
f 4/17/1 21/18/1 20/16/1
f 3/19/1 21/18/1 4/17/1
f 2/20/1 21/18/1 3/19/1
f 2/20/1 22/21/1 21/18/1
f 1/22/1 22/21/1 2/20/1
f 1/22/1 23/23/1 22/21/1
f 267/24/1 23/23/1 1/22/1
f 266/25/1 23/23/1 267/24/1
f 266/25/1 24/26/1 23/23/1
f 265/27/1 24/26/1 266/25/1
f 265/27/1 25/28/1 24/26/1
f 264/29/1 25/28/1 265/27/1
f 264/29/1 26/30/1 25/28/1
f 263/31/1 26/30/1 264/29/1
f 263/31/1 27/32/1 26/30/1
f 262/33/1 27/32/1 263/31/1
f 262/33/1 28/34/1 27/32/1
f 261/35/1 28/34/1 262/33/1
f 260/36/1 28/34/1 261/35/1
f 260/36/1 29/37/1 28/34/1
f 259/38/1 29/37/1 260/36/1
f 259/38/1 30/39/1 29/37/1
f 258/40/1 30/39/1 259/38/1
f 258/40/1 31/41/1 30/39/1
f 257/42/1 31/41/1 258/40/1
f 256/43/1 31/41/1 257/42/1
f 256/43/1 32/44/1 31/41/1
f 255/45/1 32/44/1 256/43/1
f 255/45/1 33/46/1 32/44/1
f 254/47/1 33/46/1 255/45/1
f 253/48/1 33/46/1 254/47/1
f 253/48/1 34/49/1 33/46/1
f 252/50/1 34/49/1 253/48/1
f 251/51/1 34/49/1 252/50/1
f 251/51/1 35/52/1 34/49/1
f 250/53/1 35/52/1 251/51/1
f 249/54/1 35/52/1 250/53/1
f 249/54/1 36/55/1 35/52/1
f 248/56/1 36/55/1 249/54/1
f 248/56/1 37/57/1 36/55/1
f 247/58/1 37/57/1 248/56/1
f 246/59/1 37/57/1 247/58/1
f 246/59/1 38/60/1 37/57/1
f 245/61/1 38/60/1 246/59/1
f 245/61/1 39/62/1 38/60/1
f 244/63/1 39/62/1 245/61/1
f 243/64/1 39/62/1 244/63/1
f 243/64/1 40/65/1 39/62/1
f 242/66/1 40/65/1 243/64/1
f 242/66/1 41/67/1 40/65/1
f 241/68/1 41/67/1 242/66/1
f 240/69/1 41/67/1 241/68/1
f 240/69/1 42/70/1 41/67/1
f 239/71/1 42/70/1 240/69/1
f 239/71/1 43/72/1 42/70/1
f 238/73/1 43/72/1 239/71/1
f 238/73/1 44/74/1 43/72/1
f 237/75/1 44/74/1 238/73/1
f 237/75/1 45/76/1 44/74/1
f 236/77/1 45/76/1 237/75/1
f 236/77/1 46/78/1 45/76/1
f 235/79/1 46/78/1 236/77/1
f 235/79/1 47/80/1 46/78/1
f 234/81/1 47/80/1 235/79/1
f 234/81/1 48/82/1 47/80/1
f 233/83/1 48/82/1 234/81/1
f 233/83/1 49/84/1 48/82/1
f 232/85/1 49/84/1 233/83/1
f 232/85/1 50/86/1 49/84/1
f 231/87/1 50/86/1 232/85/1
f 231/87/1 51/88/1 50/86/1
f 230/89/1 51/88/1 231/87/1
f 230/89/1 52/90/1 51/88/1
f 229/91/1 52/90/1 230/89/1
f 229/91/1 53/92/1 52/90/1
f 228/93/1 53/92/1 229/91/1
f 228/93/1 54/94/1 53/92/1
f 227/95/1 54/94/1 228/93/1
f 227/95/1 55/96/1 54/94/1
f 226/97/1 55/96/1 227/95/1
f 226/97/1 56/98/1 55/96/1
f 225/99/1 56/98/1 226/97/1
f 225/99/1 57/100/1 56/98/1
f 224/101/1 57/100/1 225/99/1
f 224/101/1 58/102/1 57/100/1
f 223/103/1 58/102/1 224/101/1
f 223/103/1 59/104/1 58/102/1
f 222/105/1 59/104/1 223/103/1
f 222/105/1 60/106/1 59/104/1
f 221/107/1 60/106/1 222/105/1
f 221/107/1 61/108/1 60/106/1
f 220/109/1 61/108/1 221/107/1
f 220/109/1 62/110/1 61/108/1
f 219/111/1 62/110/1 220/109/1
f 219/111/1 63/112/1 62/110/1
f 218/113/1 63/112/1 219/111/1
f 218/113/1 109/114/1 63/112/1
f 109/114/1 64/115/1 63/112/1
f 217/116/1 172/117/1 218/113/1
f 172/117/1 109/114/1 218/113/1
f 217/116/1 173/118/1 172/117/1
f 171/119/1 109/114/1 172/117/1
f 171/119/1 110/120/1 109/114/1
f 108/121/1 64/115/1 109/114/1
f 108/121/1 65/122/1 64/115/1
f 216/123/1 173/118/1 217/116/1
f 107/124/1 65/122/1 108/121/1
f 216/123/1 174/125/1 173/118/1
f 171/119/1 111/126/1 110/120/1
f 107/124/1 66/127/1 65/122/1
f 215/128/1 174/125/1 216/123/1
f 106/129/1 66/127/1 107/124/1
f 215/128/1 175/130/1 174/125/1
f 170/131/1 111/126/1 171/119/1
f 214/132/1 175/130/1 215/128/1
f 106/129/1 67/133/1 66/127/1
f 105/134/1 67/133/1 106/129/1
f 214/132/1 176/135/1 175/130/1
f 170/131/1 112/136/1 111/126/1
f 213/137/1 176/135/1 214/132/1
f 105/134/1 68/138/1 67/133/1
f 104/139/1 68/138/1 105/134/1
f 213/137/1 177/140/1 176/135/1
f 212/141/1 177/140/1 213/137/1
f 104/139/1 69/142/1 68/138/1
f 169/143/1 112/136/1 170/131/1
f 169/143/1 113/144/1 112/136/1
f 103/145/1 69/142/1 104/139/1
f 212/141/1 178/146/1 177/140/1
f 211/147/1 178/146/1 212/141/1
f 103/145/1 70/148/1 69/142/1
f 102/149/1 70/148/1 103/145/1
f 211/147/1 179/150/1 178/146/1
f 210/151/1 179/150/1 211/147/1
f 169/143/1 114/152/1 113/144/1
f 102/149/1 71/153/1 70/148/1
f 101/154/1 71/153/1 102/149/1
f 210/151/1 180/155/1 179/150/1
f 168/156/1 114/152/1 169/143/1
f 209/157/1 180/155/1 210/151/1
f 101/154/1 72/158/1 71/153/1
f 100/159/1 72/158/1 101/154/1
f 209/157/1 181/160/1 180/155/1
f 168/156/1 115/161/1 114/152/1
f 208/162/1 181/160/1 209/157/1
f 99/163/1 72/158/1 100/159/1
f 99/163/1 73/164/1 72/158/1
f 208/162/1 182/165/1 181/160/1
f 98/166/1 73/164/1 99/163/1
f 207/167/1 182/165/1 208/162/1
f 207/167/1 183/168/1 182/165/1
f 98/166/1 74/169/1 73/164/1
f 167/170/1 115/161/1 168/156/1
f 167/170/1 116/171/1 115/161/1
f 97/172/1 74/169/1 98/166/1
f 207/167/1 184/173/1 183/168/1
f 206/174/1 184/173/1 207/167/1
f 97/172/1 75/175/1 74/169/1
f 96/176/1 75/175/1 97/172/1
f 206/174/1 185/177/1 184/173/1
f 205/178/1 185/177/1 206/174/1
f 96/176/1 76/179/1 75/175/1
f 95/180/1 76/179/1 96/176/1
f 205/178/1 186/181/1 185/177/1
f 167/170/1 117/182/1 116/171/1
f 204/183/1 186/181/1 205/178/1
f 95/180/1 77/184/1 76/179/1
f 94/185/1 77/184/1 95/180/1
f 204/183/1 187/186/1 186/181/1
f 166/187/1 117/182/1 167/170/1
f 203/188/1 187/186/1 204/183/1
f 94/185/1 78/189/1 77/184/1
f 93/190/1 78/189/1 94/185/1
f 203/188/1 188/191/1 187/186/1
f 202/192/1 188/191/1 203/188/1
f 93/190/1 79/193/1 78/189/1
f 92/194/1 79/193/1 93/190/1
f 202/192/1 189/195/1 188/191/1
f 166/187/1 118/196/1 117/182/1
f 91/197/1 79/193/1 92/194/1
f 201/198/1 189/195/1 202/192/1
f 201/198/1 190/199/1 189/195/1
f 91/197/1 80/200/1 79/193/1
f 90/201/1 80/200/1 91/197/1
f 201/198/1 191/202/1 190/199/1
f 200/203/1 191/202/1 201/198/1
f 90/201/1 81/204/1 80/200/1
f 89/205/1 81/204/1 90/201/1
f 200/203/1 192/206/1 191/202/1
f 199/207/1 192/206/1 200/203/1
f 89/205/1 82/208/1 81/204/1
f 88/209/1 82/208/1 89/205/1
f 199/207/1 193/210/1 192/206/1
f 198/211/1 193/210/1 199/207/1
f 88/209/1 83/212/1 82/208/1
f 166/187/1 119/213/1 118/196/1
f 165/214/1 119/213/1 166/187/1
f 87/215/1 83/212/1 88/209/1
f 198/211/1 194/216/1 193/210/1
f 197/217/1 194/216/1 198/211/1
f 87/215/1 84/218/1 83/212/1
f 86/219/1 84/218/1 87/215/1
f 197/217/1 195/220/1 194/216/1
f 196/221/1 195/220/1 197/217/1
f 86/219/1 85/222/1 84/218/1
f 165/214/1 120/223/1 119/213/1
f 164/224/1 120/223/1 165/214/1
f 164/224/1 121/225/1 120/223/1
f 164/224/1 122/226/1 121/225/1
f 163/227/1 122/226/1 164/224/1
f 163/227/1 123/228/1 122/226/1
f 162/229/1 123/228/1 163/227/1
f 162/229/1 124/230/1 123/228/1
f 162/229/1 125/231/1 124/230/1
f 161/232/1 125/231/1 162/229/1
f 161/232/1 126/233/1 125/231/1
f 161/232/1 127/234/1 126/233/1
f 160/235/1 127/234/1 161/232/1
f 160/235/1 128/236/1 127/234/1
f 159/237/1 128/236/1 160/235/1
f 159/237/1 129/238/1 128/236/1
f 159/237/1 130/239/1 129/238/1
f 158/240/1 130/239/1 159/237/1
f 158/240/1 131/241/1 130/239/1
f 158/240/1 132/242/1 131/241/1
f 157/243/1 132/242/1 158/240/1
f 157/243/1 133/244/1 132/242/1
f 156/245/1 133/244/1 157/243/1
f 156/245/1 134/246/1 133/244/1
f 156/245/1 135/247/1 134/246/1
f 155/248/1 135/247/1 156/245/1
f 155/248/1 136/249/1 135/247/1
f 154/250/1 136/249/1 155/248/1
f 154/250/1 137/251/1 136/249/1
f 154/250/1 138/252/1 137/251/1
f 153/253/1 138/252/1 154/250/1
f 153/253/1 139/254/1 138/252/1
f 153/253/1 140/255/1 139/254/1
f 152/256/1 140/255/1 153/253/1
f 152/256/1 141/257/1 140/255/1
f 151/258/1 141/257/1 152/256/1
f 151/258/1 142/259/1 141/257/1
f 151/258/1 143/260/1 142/259/1
f 150/261/1 143/260/1 151/258/1
f 150/261/1 144/262/1 143/260/1
f 149/263/1 144/262/1 150/261/1
f 149/263/1 145/264/1 144/262/1
f 148/265/1 145/264/1 149/263/1
f 147/266/1 145/264/1 148/265/1
f 147/266/1 146/267/1 145/264/1
f 279/1/2 280/3/2 281/2/2
f 278/4/2 279/1/2 281/2/2
f 278/4/2 281/2/2 282/5/2
f 277/6/2 278/4/2 282/5/2
f 277/6/2 282/5/2 283/7/2
f 276/8/2 277/6/2 283/7/2
f 276/8/2 283/7/2 284/9/2
f 275/10/2 276/8/2 284/9/2
f 274/11/2 275/10/2 284/9/2
f 274/11/2 284/9/2 285/12/2
f 273/13/2 274/11/2 285/12/2
f 273/13/2 285/12/2 286/14/2
f 272/15/2 273/13/2 286/14/2
f 272/15/2 286/14/2 287/16/2
f 271/17/2 272/15/2 287/16/2
f 271/17/2 287/16/2 288/18/2
f 270/19/2 271/17/2 288/18/2
f 269/20/2 270/19/2 288/18/2
f 269/20/2 288/18/2 289/21/2
f 268/22/2 269/20/2 289/21/2
f 268/22/2 289/21/2 290/23/2
f 534/24/2 268/22/2 290/23/2
f 533/25/2 534/24/2 290/23/2
f 533/25/2 290/23/2 291/26/2
f 532/27/2 533/25/2 291/26/2
f 532/27/2 291/26/2 292/28/2
f 531/29/2 532/27/2 292/28/2
f 531/29/2 292/28/2 293/30/2
f 530/31/2 531/29/2 293/30/2
f 530/31/2 293/30/2 294/32/2
f 529/33/2 530/31/2 294/32/2
f 529/33/2 294/32/2 295/34/2
f 528/35/2 529/33/2 295/34/2
f 527/36/2 528/35/2 295/34/2
f 527/36/2 295/34/2 296/37/2
f 526/38/2 527/36/2 296/37/2
f 526/38/2 296/37/2 297/39/2
f 525/40/2 526/38/2 297/39/2
f 525/40/2 297/39/2 298/41/2
f 524/42/2 525/40/2 298/41/2
f 523/43/2 524/42/2 298/41/2
f 523/43/2 298/41/2 299/44/2
f 522/45/2 523/43/2 299/44/2
f 522/45/2 299/44/2 300/46/2
f 521/47/2 522/45/2 300/46/2
f 520/48/2 521/47/2 300/46/2
f 520/48/2 300/46/2 301/49/2
f 519/50/2 520/48/2 301/49/2
f 518/51/2 519/50/2 301/49/2
f 518/51/2 301/49/2 302/52/2
f 517/53/2 518/51/2 302/52/2
f 516/54/2 517/53/2 302/52/2
f 516/54/2 302/52/2 303/55/2
f 515/56/2 516/54/2 303/55/2
f 515/56/2 303/55/2 304/57/2
f 514/58/2 515/56/2 304/57/2
f 513/59/2 514/58/2 304/57/2
f 513/59/2 304/57/2 305/60/2
f 512/61/2 513/59/2 305/60/2
f 512/61/2 305/60/2 306/62/2
f 511/63/2 512/61/2 306/62/2
f 510/64/2 511/63/2 306/62/2
f 510/64/2 306/62/2 307/65/2
f 509/66/2 510/64/2 307/65/2
f 509/66/2 307/65/2 308/67/2
f 508/68/2 509/66/2 308/67/2
f 507/69/2 508/68/2 308/67/2
f 507/69/2 308/67/2 309/70/2
f 506/71/2 507/69/2 309/70/2
f 506/71/2 309/70/2 310/72/2
f 505/73/2 506/71/2 310/72/2
f 505/73/2 310/72/2 311/74/2
f 504/75/2 505/73/2 311/74/2
f 504/75/2 311/74/2 312/76/2
f 503/77/2 504/75/2 312/76/2
f 503/77/2 312/76/2 313/78/2
f 502/79/2 503/77/2 313/78/2
f 502/79/2 313/78/2 314/80/2
f 501/81/2 502/79/2 314/80/2
f 501/81/2 314/80/2 315/82/2
f 500/83/2 501/81/2 315/82/2
f 500/83/2 315/82/2 316/84/2
f 499/85/2 500/83/2 316/84/2
f 499/85/2 316/84/2 317/86/2
f 498/87/2 499/85/2 317/86/2
f 498/87/2 317/86/2 318/88/2
f 497/89/2 498/87/2 318/88/2
f 497/89/2 318/88/2 319/90/2
f 496/91/2 497/89/2 319/90/2
f 496/91/2 319/90/2 320/92/2
f 495/93/2 496/91/2 320/92/2
f 495/93/2 320/92/2 321/94/2
f 494/95/2 495/93/2 321/94/2
f 494/95/2 321/94/2 322/96/2
f 493/97/2 494/95/2 322/96/2
f 493/97/2 322/96/2 323/98/2
f 492/99/2 493/97/2 323/98/2
f 492/99/2 323/98/2 324/100/2
f 491/101/2 492/99/2 324/100/2
f 491/101/2 324/100/2 325/102/2
f 490/103/2 491/101/2 325/102/2
f 490/103/2 325/102/2 326/104/2
f 489/105/2 490/103/2 326/104/2
f 489/105/2 326/104/2 327/106/2
f 488/107/2 489/105/2 327/106/2
f 488/107/2 327/106/2 328/108/2
f 487/109/2 488/107/2 328/108/2
f 487/109/2 328/108/2 329/110/2
f 486/111/2 487/109/2 329/110/2
f 486/111/2 329/110/2 330/112/2
f 485/113/2 486/111/2 330/112/2
f 485/113/2 330/112/2 376/114/2
f 376/114/2 330/112/2 331/115/2
f 484/116/2 485/113/2 439/117/2
f 439/117/2 485/113/2 376/114/2
f 484/116/2 439/117/2 440/118/2
f 438/119/2 439/117/2 376/114/2
f 438/119/2 376/114/2 377/120/2
f 375/121/2 376/114/2 331/115/2
f 375/121/2 331/115/2 332/122/2
f 483/123/2 484/116/2 440/118/2
f 374/124/2 375/121/2 332/122/2
f 483/123/2 440/118/2 441/125/2
f 438/119/2 377/120/2 378/126/2
f 374/124/2 332/122/2 333/127/2
f 482/128/2 483/123/2 441/125/2
f 373/129/2 374/124/2 333/127/2
f 482/128/2 441/125/2 442/130/2
f 437/131/2 438/119/2 378/126/2
f 481/132/2 482/128/2 442/130/2
f 373/129/2 333/127/2 334/133/2
f 372/134/2 373/129/2 334/133/2
f 481/132/2 442/130/2 443/135/2
f 437/131/2 378/126/2 379/136/2
f 480/137/2 481/132/2 443/135/2
f 372/134/2 334/133/2 335/138/2
f 371/139/2 372/134/2 335/138/2
f 480/137/2 443/135/2 444/140/2
f 479/141/2 480/137/2 444/140/2
f 371/139/2 335/138/2 336/142/2
f 436/143/2 437/131/2 379/136/2
f 436/143/2 379/136/2 380/144/2
f 370/145/2 371/139/2 336/142/2
f 479/141/2 444/140/2 445/146/2
f 478/147/2 479/141/2 445/146/2
f 370/145/2 336/142/2 337/148/2
f 369/149/2 370/145/2 337/148/2
f 478/147/2 445/146/2 446/150/2
f 477/151/2 478/147/2 446/150/2
f 436/143/2 380/144/2 381/152/2
f 369/149/2 337/148/2 338/153/2
f 368/154/2 369/149/2 338/153/2
f 477/151/2 446/150/2 447/155/2
f 435/156/2 436/143/2 381/152/2
f 476/157/2 477/151/2 447/155/2
f 368/154/2 338/153/2 339/158/2
f 367/159/2 368/154/2 339/158/2
f 476/157/2 447/155/2 448/160/2
f 435/156/2 381/152/2 382/161/2
f 475/162/2 476/157/2 448/160/2
f 366/163/2 367/159/2 339/158/2
f 366/163/2 339/158/2 340/164/2
f 475/162/2 448/160/2 449/165/2
f 365/166/2 366/163/2 340/164/2
f 474/167/2 475/162/2 449/165/2
f 474/167/2 449/165/2 450/168/2
f 365/166/2 340/164/2 341/169/2
f 434/170/2 435/156/2 382/161/2
f 434/170/2 382/161/2 383/171/2
f 364/172/2 365/166/2 341/169/2
f 474/167/2 450/168/2 451/173/2
f 473/174/2 474/167/2 451/173/2
f 364/172/2 341/169/2 342/175/2
f 363/176/2 364/172/2 342/175/2
f 473/174/2 451/173/2 452/177/2
f 472/178/2 473/174/2 452/177/2
f 363/176/2 342/175/2 343/179/2
f 362/180/2 363/176/2 343/179/2
f 472/178/2 452/177/2 453/181/2
f 434/170/2 383/171/2 384/182/2
f 471/183/2 472/178/2 453/181/2
f 362/180/2 343/179/2 344/184/2
f 361/185/2 362/180/2 344/184/2
f 471/183/2 453/181/2 454/186/2
f 433/187/2 434/170/2 384/182/2
f 470/188/2 471/183/2 454/186/2
f 361/185/2 344/184/2 345/189/2
f 360/190/2 361/185/2 345/189/2
f 470/188/2 454/186/2 455/191/2
f 469/192/2 470/188/2 455/191/2
f 360/190/2 345/189/2 346/193/2
f 359/194/2 360/190/2 346/193/2
f 469/192/2 455/191/2 456/195/2
f 433/187/2 384/182/2 385/196/2
f 358/197/2 359/194/2 346/193/2
f 468/198/2 469/192/2 456/195/2
f 468/198/2 456/195/2 457/199/2
f 358/197/2 346/193/2 347/200/2
f 357/201/2 358/197/2 347/200/2
f 468/198/2 457/199/2 458/202/2
f 467/203/2 468/198/2 458/202/2
f 357/201/2 347/200/2 348/204/2
f 356/205/2 357/201/2 348/204/2
f 467/203/2 458/202/2 459/206/2
f 466/207/2 467/203/2 459/206/2
f 356/205/2 348/204/2 349/208/2
f 355/209/2 356/205/2 349/208/2
f 466/207/2 459/206/2 460/210/2
f 465/211/2 466/207/2 460/210/2
f 355/209/2 349/208/2 350/212/2
f 433/187/2 385/196/2 386/213/2
f 432/214/2 433/187/2 386/213/2
f 354/215/2 355/209/2 350/212/2
f 465/211/2 460/210/2 461/216/2
f 464/217/2 465/211/2 461/216/2
f 354/215/2 350/212/2 351/218/2
f 353/219/2 354/215/2 351/218/2
f 464/217/2 461/216/2 462/220/2
f 463/221/2 464/217/2 462/220/2
f 353/219/2 351/218/2 352/222/2
f 432/214/2 386/213/2 387/223/2
f 431/224/2 432/214/2 387/223/2
f 431/224/2 387/223/2 388/225/2
f 431/224/2 388/225/2 389/226/2
f 430/227/2 431/224/2 389/226/2
f 430/227/2 389/226/2 390/228/2
f 429/229/2 430/227/2 390/228/2
f 429/229/2 390/228/2 391/230/2
f 429/229/2 391/230/2 392/231/2
f 428/232/2 429/229/2 392/231/2
f 428/232/2 392/231/2 393/233/2
f 428/232/2 393/233/2 394/234/2
f 427/235/2 428/232/2 394/234/2
f 427/235/2 394/234/2 395/236/2
f 426/237/2 427/235/2 395/236/2
f 426/237/2 395/236/2 396/238/2
f 426/237/2 396/238/2 397/239/2
f 425/240/2 426/237/2 397/239/2
f 425/240/2 397/239/2 398/241/2
f 425/240/2 398/241/2 399/242/2
f 424/243/2 425/240/2 399/242/2
f 424/243/2 399/242/2 400/244/2
f 423/245/2 424/243/2 400/244/2
f 423/245/2 400/244/2 401/246/2
f 423/245/2 401/246/2 402/247/2
f 422/248/2 423/245/2 402/247/2
f 422/248/2 402/247/2 403/249/2
f 421/250/2 422/248/2 403/249/2
f 421/250/2 403/249/2 404/251/2
f 421/250/2 404/251/2 405/252/2
f 420/253/2 421/250/2 405/252/2
f 420/253/2 405/252/2 406/254/2
f 420/253/2 406/254/2 407/255/2
f 419/256/2 420/253/2 407/255/2
f 419/256/2 407/255/2 408/257/2
f 418/258/2 419/256/2 408/257/2
f 418/258/2 408/257/2 409/259/2
f 418/258/2 409/259/2 410/260/2
f 417/261/2 418/258/2 410/260/2
f 417/261/2 410/260/2 411/262/2
f 416/263/2 417/261/2 411/262/2
f 416/263/2 411/262/2 412/264/2
f 415/265/2 416/263/2 412/264/2
f 414/266/2 415/265/2 412/264/2
f 414/266/2 412/264/2 413/267/2
s 1
f 538/268/3 535/22/4 536/269/4
f 540/270/5 537/271/3 538/268/3
f 542/272/6 539/273/5 540/270/5
f 544/274/7 541/275/6 542/272/6
f 546/276/8 543/277/7 544/274/7
f 548/278/9 545/279/8 546/276/8
f 550/280/10 547/281/9 548/278/9
f 552/282/11 549/283/10 550/280/10
f 554/284/12 551/285/11 552/282/11
f 556/286/13 553/287/12 554/284/12
f 558/288/14 555/289/13 556/286/13
f 560/290/15 557/291/14 558/288/14
f 562/292/16 559/293/17 560/290/15
f 564/294/18 561/295/16 562/292/16
f 566/296/19 563/297/18 564/294/18
f 568/298/20 565/299/19 566/296/19
f 570/300/21 567/301/20 568/298/20
f 572/302/22 569/303/21 570/300/21
f 574/304/23 571/305/22 572/302/22
f 576/306/24 573/307/23 574/304/23
f 578/308/25 575/309/26 576/306/24
f 580/310/27 577/311/25 578/308/25
f 582/312/28 579/313/27 580/310/27
f 584/314/29 581/315/28 582/312/28
f 586/316/30 583/317/29 584/314/29
f 588/318/31 585/319/30 586/316/30
f 590/320/32 587/321/31 588/318/31
f 592/322/33 589/323/32 590/320/32
f 594/324/34 591/325/33 592/322/33
f 596/326/35 593/327/34 594/324/34
f 598/328/36 595/329/35 596/326/35
f 600/330/37 597/331/36 598/328/36
f 602/332/38 599/333/37 600/330/37
f 604/334/39 601/335/38 602/332/38
f 606/336/40 603/337/39 604/334/39
f 608/338/41 605/339/40 606/336/40
f 610/340/42 607/341/41 608/338/41
f 612/342/43 609/343/42 610/340/42
f 614/344/44 611/345/43 612/342/43
f 616/346/45 613/347/44 614/344/44
f 618/348/46 615/349/45 616/346/45
f 620/350/47 617/351/46 618/348/46
f 622/352/48 619/353/47 620/350/47
f 624/354/49 621/355/48 622/352/48
f 626/356/50 623/357/49 624/354/49
f 628/358/51 625/359/50 626/356/50
f 630/360/52 627/361/51 628/358/51
f 632/362/53 629/363/52 630/360/52
f 634/364/54 631/365/53 632/362/53
f 636/366/55 633/367/54 634/364/54
f 638/368/56 635/369/55 636/366/55
f 640/370/57 637/371/56 638/368/56
f 642/372/58 639/373/57 640/370/57
f 644/374/59 641/375/58 642/372/58
f 646/376/60 643/377/59 644/374/59
f 648/378/61 645/379/60 646/376/60
f 650/380/62 647/381/61 648/378/61
f 652/382/63 649/383/62 650/380/62
f 654/384/64 651/385/63 652/382/63
f 656/386/65 653/387/64 654/384/64
f 658/388/66 655/389/65 656/386/65
f 660/390/67 657/391/68 658/388/66
f 662/392/69 659/393/67 660/390/67
f 664/394/70 661/395/69 662/392/69
f 666/396/71 663/397/70 664/394/70
f 668/398/72 665/399/71 666/396/71
f 670/400/73 667/401/72 668/398/72
f 672/402/74 669/403/73 670/400/73
f 674/404/75 671/405/74 672/402/74
f 676/406/76 673/407/75 674/404/75
f 678/408/77 675/409/76 676/406/76
f 680/410/78 677/411/77 678/408/77
f 682/412/79 679/413/78 680/410/78
f 684/414/80 681/415/79 682/412/79
f 686/416/81 683/417/80 684/414/80
f 688/418/82 685/419/81 686/416/81
f 690/420/83 687/421/82 688/418/82
f 692/422/84 689/423/83 690/420/83
f 694/424/85 691/425/84 692/422/84
f 696/426/86 693/427/85 694/424/85
f 698/428/87 695/429/86 696/426/86
f 700/430/88 697/431/87 698/428/87
f 702/432/89 699/433/88 700/430/88
f 704/434/90 701/435/89 702/432/89
f 706/436/91 703/437/90 704/434/90
f 708/438/92 705/439/91 706/436/91
f 710/440/93 707/441/92 708/438/92
f 712/442/94 709/443/93 710/440/93
f 714/444/95 711/445/94 712/442/94
f 716/446/96 713/447/95 714/444/95
f 718/448/97 715/449/96 716/446/96
f 720/450/98 717/451/97 718/448/97
f 722/452/99 719/453/98 720/450/98
f 724/454/100 721/455/99 722/452/99
f 726/456/101 723/457/100 724/454/100
f 728/458/102 725/459/101 726/456/101
f 730/460/103 727/461/102 728/458/102
f 732/462/104 729/463/103 730/460/103
f 734/464/105 731/465/104 732/462/104
f 736/466/106 733/467/105 734/464/105
f 738/468/107 735/469/106 736/466/106
f 740/470/108 737/471/107 738/468/107
f 742/472/109 739/473/108 740/470/108
f 744/474/110 741/475/109 742/472/109
f 746/476/111 743/477/110 744/474/110
f 748/478/112 745/479/111 746/476/111
f 750/480/113 747/481/114 748/478/112
f 752/482/115 749/483/113 750/480/113
f 754/484/116 751/485/117 752/482/115
f 756/486/118 753/487/116 754/484/116
f 758/488/119 755/489/118 756/486/118
f 760/490/120 757/491/119 758/488/119
f 762/492/121 759/493/120 760/490/120
f 764/494/122 761/495/121 762/492/121
f 766/496/123 763/497/122 764/494/122
f 768/498/124 765/499/123 766/496/123
f 770/500/125 767/501/124 768/498/124
f 772/502/126 769/503/125 770/500/125
f 774/504/127 771/505/126 772/502/126
f 776/506/128 773/507/127 774/504/127
f 778/508/129 775/509/128 776/506/128
f 780/510/130 777/511/129 778/508/129
f 782/512/131 779/513/130 780/510/130
f 784/514/132 781/515/131 782/512/131
f 786/516/133 783/517/132 784/514/132
f 788/518/134 785/519/133 786/516/133
f 790/520/135 787/521/134 788/518/134
f 792/522/136 789/523/135 790/520/135
f 794/524/137 791/525/136 792/522/136
f 796/526/138 793/527/137 794/524/137
f 798/528/139 795/529/138 796/526/138
f 800/530/140 797/531/139 798/528/139
f 802/532/141 799/533/142 800/530/140
f 804/534/143 801/535/141 802/532/141
f 806/536/144 803/537/143 804/534/143
f 808/538/145 805/539/146 806/536/144
f 810/540/147 807/541/145 808/538/145
f 812/542/148 809/543/147 810/540/147
f 814/544/149 811/545/148 812/542/148
f 816/546/150 813/547/149 814/544/149
f 818/548/151 815/549/150 816/546/150
f 820/550/152 817/551/151 818/548/151
f 822/552/153 819/553/152 820/550/152
f 824/554/154 821/555/153 822/552/153
f 826/556/155 823/557/154 824/554/154
f 828/558/156 825/559/155 826/556/155
f 830/560/157 827/561/158 828/558/156
f 832/562/159 829/563/157 830/560/157
f 834/564/160 831/565/159 832/562/159
f 836/566/161 833/567/160 834/564/160
f 838/568/162 835/569/161 836/566/161
f 840/570/163 837/571/162 838/568/162
f 842/572/164 839/573/163 840/570/163
f 844/574/165 841/575/164 842/572/164
f 846/576/166 843/577/165 844/574/165
f 848/578/167 845/579/166 846/576/166
f 850/580/168 847/581/167 848/578/167
f 852/582/169 849/583/168 850/580/168
f 854/584/170 851/585/169 852/582/169
f 856/586/171 853/587/170 854/584/170
f 858/588/172 855/589/171 856/586/171
f 860/590/173 857/591/174 858/588/172
f 862/592/175 859/593/173 860/590/173
f 864/594/176 861/595/175 862/592/175
f 866/596/177 863/597/176 864/594/176
f 868/598/178 865/599/177 866/596/177
f 870/600/179 867/601/178 868/598/178
f 872/602/180 869/603/179 870/600/179
f 874/604/181 871/605/180 872/602/180
f 876/606/182 873/607/181 874/604/181
f 878/608/183 875/609/182 876/606/182
f 880/610/184 877/611/185 878/608/183
f 882/612/186 879/613/184 880/610/184
f 884/614/187 881/615/186 882/612/186
f 886/616/188 883/617/187 884/614/187
f 888/618/189 885/619/188 886/616/188
f 890/620/190 887/621/189 888/618/189
f 892/622/191 889/623/190 890/620/190
f 894/624/192 891/625/191 892/622/191
f 896/626/193 893/627/192 894/624/192
f 898/628/194 895/629/193 896/626/193
f 900/630/195 897/631/194 898/628/194
f 902/632/196 899/633/195 900/630/195
f 904/634/197 901/635/196 902/632/196
f 906/636/198 903/637/197 904/634/197
f 908/638/199 905/639/198 906/636/198
f 910/640/200 907/641/199 908/638/199
f 912/642/201 909/643/200 910/640/200
f 914/644/202 911/645/201 912/642/201
f 916/646/203 913/647/202 914/644/202
f 918/648/204 915/649/203 916/646/203
f 920/650/205 917/651/204 918/648/204
f 922/652/206 919/653/205 920/650/205
f 924/654/207 921/655/206 922/652/206
f 926/656/208 923/657/207 924/654/207
f 928/658/209 925/659/208 926/656/208
f 930/660/210 927/661/209 928/658/209
f 932/662/211 929/663/210 930/660/210
f 934/664/212 931/665/211 932/662/211
f 936/666/213 933/667/212 934/664/212
f 938/668/214 935/669/213 936/666/213
f 940/670/215 937/671/214 938/668/214
f 942/672/216 939/673/215 940/670/215
f 944/674/217 941/675/216 942/672/216
f 946/676/218 943/677/217 944/674/217
f 948/678/219 945/679/218 946/676/218
f 950/680/220 947/681/219 948/678/219
f 952/682/221 949/683/220 950/680/220
f 954/684/222 951/685/221 952/682/221
f 956/686/223 953/687/222 954/684/222
f 958/688/224 955/689/223 956/686/223
f 960/690/225 957/691/224 958/688/224
f 962/692/226 959/693/225 960/690/225
f 964/694/227 961/695/226 962/692/226
f 966/696/228 963/697/227 964/694/227
f 968/698/229 965/699/228 966/696/228
f 970/700/230 967/701/229 968/698/229
f 972/702/231 969/703/230 970/700/230
f 974/704/232 971/705/231 972/702/231
f 976/706/233 973/707/232 974/704/232
f 978/708/234 975/709/233 976/706/233
f 980/710/235 977/711/234 978/708/234
f 982/712/236 979/713/235 980/710/235
f 984/714/237 981/715/236 982/712/236
f 986/716/238 983/717/237 984/714/237
f 988/718/239 985/719/238 986/716/238
f 990/720/240 987/721/239 988/718/239
f 992/722/241 989/723/240 990/720/240
f 994/724/242 991/725/241 992/722/241
f 996/726/243 993/727/242 994/724/242
f 998/728/244 995/729/243 996/726/243
f 1000/730/245 997/731/244 998/728/244
f 1002/732/246 999/733/245 1000/730/245
f 1004/734/247 1001/735/246 1002/732/246
f 1006/736/248 1003/737/247 1004/734/247
f 1008/738/249 1005/739/248 1006/736/248
f 1010/740/250 1007/741/249 1008/738/249
f 1012/742/251 1009/743/250 1010/740/250
f 1014/744/252 1011/745/251 1012/742/251
f 1016/746/253 1013/747/252 1014/744/252
f 1018/748/254 1015/749/253 1016/746/253
f 1020/750/255 1017/751/254 1018/748/254
f 1022/752/256 1019/753/255 1020/750/255
f 1024/754/257 1021/755/256 1022/752/256
f 1026/756/258 1023/757/257 1024/754/257
f 1028/758/259 1025/759/258 1026/756/258
f 1030/760/260 1027/761/259 1028/758/259
f 1032/762/261 1029/763/260 1030/760/260
f 1034/764/262 1031/765/261 1032/762/261
f 1036/766/263 1033/767/262 1034/764/262
f 1038/768/264 1035/769/263 1036/766/263
f 1040/770/265 1037/771/264 1038/768/264
f 1042/772/266 1039/773/265 1040/770/265
f 1044/774/267 1041/775/266 1042/772/266
f 1046/776/268 1043/777/267 1044/774/267
f 1048/778/269 1045/779/268 1046/776/268
f 1050/780/270 1047/781/269 1048/778/269
f 1052/782/271 1049/783/270 1050/780/270
f 1054/784/272 1051/785/271 1052/782/271
f 1056/786/273 1053/787/272 1054/784/272
f 1058/788/274 1055/789/273 1056/786/273
f 1060/790/275 1057/791/276 1058/788/274
f 1062/792/277 1059/793/275 1060/790/275
f 1064/794/278 1061/795/277 1062/792/277
f 1066/796/279 1063/797/278 1064/794/278
f 1068/798/280 1065/799/279 1066/796/279
f 536/800/4 1067/801/280 1068/798/280
f 538/268/3 537/271/3 535/22/4
f 540/270/5 539/273/5 537/271/3
f 542/272/6 541/275/6 539/273/5
f 544/274/7 543/277/7 541/275/6
f 546/276/8 545/279/8 543/277/7
f 548/278/9 547/281/9 545/279/8
f 550/280/10 549/283/10 547/281/9
f 552/282/11 551/285/11 549/283/10
f 554/284/12 553/287/12 551/285/11
f 556/286/13 555/289/13 553/287/12
f 558/288/14 557/291/14 555/289/13
f 560/290/15 559/293/17 557/291/14
f 562/292/16 561/295/16 559/293/17
f 564/294/18 563/297/18 561/295/16
f 566/296/19 565/299/19 563/297/18
f 568/298/20 567/301/20 565/299/19
f 570/300/21 569/303/21 567/301/20
f 572/302/22 571/305/22 569/303/21
f 574/304/23 573/307/23 571/305/22
f 576/306/24 575/309/26 573/307/23
f 578/308/25 577/311/25 575/309/26
f 580/310/27 579/313/27 577/311/25
f 582/312/28 581/315/28 579/313/27
f 584/314/29 583/317/29 581/315/28
f 586/316/30 585/319/30 583/317/29
f 588/318/31 587/321/31 585/319/30
f 590/320/32 589/323/32 587/321/31
f 592/322/33 591/325/33 589/323/32
f 594/324/34 593/327/34 591/325/33
f 596/326/35 595/329/35 593/327/34
f 598/328/36 597/331/36 595/329/35
f 600/330/37 599/333/37 597/331/36
f 602/332/38 601/335/38 599/333/37
f 604/334/39 603/337/39 601/335/38
f 606/336/40 605/339/40 603/337/39
f 608/338/41 607/341/41 605/339/40
f 610/340/42 609/343/42 607/341/41
f 612/342/43 611/345/43 609/343/42
f 614/344/44 613/347/44 611/345/43
f 616/346/45 615/349/45 613/347/44
f 618/348/46 617/351/46 615/349/45
f 620/350/47 619/353/47 617/351/46
f 622/352/48 621/355/48 619/353/47
f 624/354/49 623/357/49 621/355/48
f 626/356/50 625/359/50 623/357/49
f 628/358/51 627/361/51 625/359/50
f 630/360/52 629/363/52 627/361/51
f 632/362/53 631/365/53 629/363/52
f 634/364/54 633/367/54 631/365/53
f 636/366/55 635/369/55 633/367/54
f 638/368/56 637/371/56 635/369/55
f 640/370/57 639/373/57 637/371/56
f 642/372/58 641/375/58 639/373/57
f 644/374/59 643/377/59 641/375/58
f 646/376/60 645/379/60 643/377/59
f 648/378/61 647/381/61 645/379/60
f 650/380/62 649/383/62 647/381/61
f 652/382/63 651/385/63 649/383/62
f 654/384/64 653/387/64 651/385/63
f 656/386/65 655/389/65 653/387/64
f 658/388/66 657/391/68 655/389/65
f 660/390/67 659/393/67 657/391/68
f 662/392/69 661/395/69 659/393/67
f 664/394/70 663/397/70 661/395/69
f 666/396/71 665/399/71 663/397/70
f 668/398/72 667/401/72 665/399/71
f 670/400/73 669/403/73 667/401/72
f 672/402/74 671/405/74 669/403/73
f 674/404/75 673/407/75 671/405/74
f 676/406/76 675/409/76 673/407/75
f 678/408/77 677/411/77 675/409/76
f 680/410/78 679/413/78 677/411/77
f 682/412/79 681/415/79 679/413/78
f 684/414/80 683/417/80 681/415/79
f 686/416/81 685/419/81 683/417/80
f 688/418/82 687/421/82 685/419/81
f 690/420/83 689/423/83 687/421/82
f 692/422/84 691/425/84 689/423/83
f 694/424/85 693/427/85 691/425/84
f 696/426/86 695/429/86 693/427/85
f 698/428/87 697/431/87 695/429/86
f 700/430/88 699/433/88 697/431/87
f 702/432/89 701/435/89 699/433/88
f 704/434/90 703/437/90 701/435/89
f 706/436/91 705/439/91 703/437/90
f 708/438/92 707/441/92 705/439/91
f 710/440/93 709/443/93 707/441/92
f 712/442/94 711/445/94 709/443/93
f 714/444/95 713/447/95 711/445/94
f 716/446/96 715/449/96 713/447/95
f 718/448/97 717/451/97 715/449/96
f 720/450/98 719/453/98 717/451/97
f 722/452/99 721/455/99 719/453/98
f 724/454/100 723/457/100 721/455/99
f 726/456/101 725/459/101 723/457/100
f 728/458/102 727/461/102 725/459/101
f 730/460/103 729/463/103 727/461/102
f 732/462/104 731/465/104 729/463/103
f 734/464/105 733/467/105 731/465/104
f 736/466/106 735/469/106 733/467/105
f 738/468/107 737/471/107 735/469/106
f 740/470/108 739/473/108 737/471/107
f 742/472/109 741/475/109 739/473/108
f 744/474/110 743/477/110 741/475/109
f 746/476/111 745/479/111 743/477/110
f 748/478/112 747/481/114 745/479/111
f 750/480/113 749/483/113 747/481/114
f 752/482/115 751/485/117 749/483/113
f 754/484/116 753/487/116 751/485/117
f 756/486/118 755/489/118 753/487/116
f 758/488/119 757/491/119 755/489/118
f 760/490/120 759/493/120 757/491/119
f 762/492/121 761/495/121 759/493/120
f 764/494/122 763/497/122 761/495/121
f 766/496/123 765/499/123 763/497/122
f 768/498/124 767/501/124 765/499/123
f 770/500/125 769/503/125 767/501/124
f 772/502/126 771/505/126 769/503/125
f 774/504/127 773/507/127 771/505/126
f 776/506/128 775/509/128 773/507/127
f 778/508/129 777/511/129 775/509/128
f 780/510/130 779/513/130 777/511/129
f 782/512/131 781/515/131 779/513/130
f 784/514/132 783/517/132 781/515/131
f 786/516/133 785/519/133 783/517/132
f 788/518/134 787/521/134 785/519/133
f 790/520/135 789/523/135 787/521/134
f 792/522/136 791/525/136 789/523/135
f 794/524/137 793/527/137 791/525/136
f 796/526/138 795/529/138 793/527/137
f 798/528/139 797/531/139 795/529/138
f 800/530/140 799/533/142 797/531/139
f 802/532/141 801/535/141 799/533/142
f 804/534/143 803/537/143 801/535/141
f 806/536/144 805/539/146 803/537/143
f 808/538/145 807/541/145 805/539/146
f 810/540/147 809/543/147 807/541/145
f 812/542/148 811/545/148 809/543/147
f 814/544/149 813/547/149 811/545/148
f 816/546/150 815/549/150 813/547/149
f 818/548/151 817/551/151 815/549/150
f 820/550/152 819/553/152 817/551/151
f 822/552/153 821/555/153 819/553/152
f 824/554/154 823/557/154 821/555/153
f 826/556/155 825/559/155 823/557/154
f 828/558/156 827/561/158 825/559/155
f 830/560/157 829/563/157 827/561/158
f 832/562/159 831/565/159 829/563/157
f 834/564/160 833/567/160 831/565/159
f 836/566/161 835/569/161 833/567/160
f 838/568/162 837/571/162 835/569/161
f 840/570/163 839/573/163 837/571/162
f 842/572/164 841/575/164 839/573/163
f 844/574/165 843/577/165 841/575/164
f 846/576/166 845/579/166 843/577/165
f 848/578/167 847/581/167 845/579/166
f 850/580/168 849/583/168 847/581/167
f 852/582/169 851/585/169 849/583/168
f 854/584/170 853/587/170 851/585/169
f 856/586/171 855/589/171 853/587/170
f 858/588/172 857/591/174 855/589/171
f 860/590/173 859/593/173 857/591/174
f 862/592/175 861/595/175 859/593/173
f 864/594/176 863/597/176 861/595/175
f 866/596/177 865/599/177 863/597/176
f 868/598/178 867/601/178 865/599/177
f 870/600/179 869/603/179 867/601/178
f 872/602/180 871/605/180 869/603/179
f 874/604/181 873/607/181 871/605/180
f 876/606/182 875/609/182 873/607/181
f 878/608/183 877/611/185 875/609/182
f 880/610/184 879/613/184 877/611/185
f 882/612/186 881/615/186 879/613/184
f 884/614/187 883/617/187 881/615/186
f 886/616/188 885/619/188 883/617/187
f 888/618/189 887/621/189 885/619/188
f 890/620/190 889/623/190 887/621/189
f 892/622/191 891/625/191 889/623/190
f 894/624/192 893/627/192 891/625/191
f 896/626/193 895/629/193 893/627/192
f 898/628/194 897/631/194 895/629/193
f 900/630/195 899/633/195 897/631/194
f 902/632/196 901/635/196 899/633/195
f 904/634/197 903/637/197 901/635/196
f 906/636/198 905/639/198 903/637/197
f 908/638/199 907/641/199 905/639/198
f 910/640/200 909/643/200 907/641/199
f 912/642/201 911/645/201 909/643/200
f 914/644/202 913/647/202 911/645/201
f 916/646/203 915/649/203 913/647/202
f 918/648/204 917/651/204 915/649/203
f 920/650/205 919/653/205 917/651/204
f 922/652/206 921/655/206 919/653/205
f 924/654/207 923/657/207 921/655/206
f 926/656/208 925/659/208 923/657/207
f 928/658/209 927/661/209 925/659/208
f 930/660/210 929/663/210 927/661/209
f 932/662/211 931/665/211 929/663/210
f 934/664/212 933/667/212 931/665/211
f 936/666/213 935/669/213 933/667/212
f 938/668/214 937/671/214 935/669/213
f 940/670/215 939/673/215 937/671/214
f 942/672/216 941/675/216 939/673/215
f 944/674/217 943/677/217 941/675/216
f 946/676/218 945/679/218 943/677/217
f 948/678/219 947/681/219 945/679/218
f 950/680/220 949/683/220 947/681/219
f 952/682/221 951/685/221 949/683/220
f 954/684/222 953/687/222 951/685/221
f 956/686/223 955/689/223 953/687/222
f 958/688/224 957/691/224 955/689/223
f 960/690/225 959/693/225 957/691/224
f 962/692/226 961/695/226 959/693/225
f 964/694/227 963/697/227 961/695/226
f 966/696/228 965/699/228 963/697/227
f 968/698/229 967/701/229 965/699/228
f 970/700/230 969/703/230 967/701/229
f 972/702/231 971/705/231 969/703/230
f 974/704/232 973/707/232 971/705/231
f 976/706/233 975/709/233 973/707/232
f 978/708/234 977/711/234 975/709/233
f 980/710/235 979/713/235 977/711/234
f 982/712/236 981/715/236 979/713/235
f 984/714/237 983/717/237 981/715/236
f 986/716/238 985/719/238 983/717/237
f 988/718/239 987/721/239 985/719/238
f 990/720/240 989/723/240 987/721/239
f 992/722/241 991/725/241 989/723/240
f 994/724/242 993/727/242 991/725/241
f 996/726/243 995/729/243 993/727/242
f 998/728/244 997/731/244 995/729/243
f 1000/730/245 999/733/245 997/731/244
f 1002/732/246 1001/735/246 999/733/245
f 1004/734/247 1003/737/247 1001/735/246
f 1006/736/248 1005/739/248 1003/737/247
f 1008/738/249 1007/741/249 1005/739/248
f 1010/740/250 1009/743/250 1007/741/249
f 1012/742/251 1011/745/251 1009/743/250
f 1014/744/252 1013/747/252 1011/745/251
f 1016/746/253 1015/749/253 1013/747/252
f 1018/748/254 1017/751/254 1015/749/253
f 1020/750/255 1019/753/255 1017/751/254
f 1022/752/256 1021/755/256 1019/753/255
f 1024/754/257 1023/757/257 1021/755/256
f 1026/756/258 1025/759/258 1023/757/257
f 1028/758/259 1027/761/259 1025/759/258
f 1030/760/260 1029/763/260 1027/761/259
f 1032/762/261 1031/765/261 1029/763/260
f 1034/764/262 1033/767/262 1031/765/261
f 1036/766/263 1035/769/263 1033/767/262
f 1038/768/264 1037/771/264 1035/769/263
f 1040/770/265 1039/773/265 1037/771/264
f 1042/772/266 1041/775/266 1039/773/265
f 1044/774/267 1043/777/267 1041/775/266
f 1046/776/268 1045/779/268 1043/777/267
f 1048/778/269 1047/781/269 1045/779/268
f 1050/780/270 1049/783/270 1047/781/269
f 1052/782/271 1051/785/271 1049/783/270
f 1054/784/272 1053/787/272 1051/785/271
f 1056/786/273 1055/789/273 1053/787/272
f 1058/788/274 1057/791/276 1055/789/273
f 1060/790/275 1059/793/275 1057/791/276
f 1062/792/277 1061/795/277 1059/793/275
f 1064/794/278 1063/797/278 1061/795/277
f 1066/796/279 1065/799/279 1063/797/278
f 1068/798/280 1067/801/280 1065/799/279
f 536/800/4 535/24/4 1067/801/280
