# Blender 4.4.1
# www.blender.org
mtllib deck_Question_Player.mtl
o Cube
v 0.350000 6.377925 -0.324752
v 0.350000 6.377925 -0.324752
v 0.350000 6.377925 -0.324752
v 0.350000 6.377925 -0.324752
v 0.350000 6.377925 -0.324752
v 0.350000 6.377925 -0.324752
v 0.350000 5.678080 -0.339458
v 0.350000 5.678080 -0.339458
v 0.350000 5.678080 -0.339458
v 0.350000 5.678080 -0.339458
v 0.350000 5.678080 -0.339458
v 0.350000 5.678080 -0.339458
v 0.350000 6.363219 0.375094
v 0.350000 6.363219 0.375094
v 0.350000 6.363219 0.375094
v 0.350000 6.363219 0.375094
v 0.350000 6.363219 0.375094
v 0.350000 6.363219 0.375094
v 0.350000 5.663374 0.360388
v 0.350000 5.663374 0.360388
v 0.350000 5.663374 0.360388
v 0.350000 5.663374 0.360388
v 0.350000 5.663374 0.360388
v -0.350000 6.377925 -0.324752
v -0.350000 6.377925 -0.324752
v -0.350000 6.377925 -0.324752
v -0.350000 6.377925 -0.324752
v -0.350000 6.377925 -0.324752
v -0.350000 6.377925 -0.324752
v -0.350000 5.678080 -0.339458
v -0.350000 5.678080 -0.339458
v -0.350000 5.678080 -0.339458
v -0.350000 5.678080 -0.339458
v -0.350000 5.678080 -0.339458
v -0.350000 5.678080 -0.339458
v -0.350000 6.363219 0.375094
v -0.350000 6.363219 0.375094
v -0.350000 6.363219 0.375094
v -0.350000 6.363219 0.375094
v -0.350000 6.363219 0.375094
v -0.350000 6.363219 0.375094
v -0.350000 5.663374 0.360388
v -0.350000 5.663374 0.360388
v -0.350000 5.663374 0.360388
v -0.350000 5.663374 0.360388
v -0.350000 5.663374 0.360388
v -0.401053 5.624048 -0.198217
v -0.401053 5.624048 -0.198217
v -0.401053 5.624048 -0.198217
v -0.401053 5.624048 -0.198217
v -0.401053 5.624048 -0.198217
v -0.388169 5.594045 0.008854
v -0.388169 5.594045 0.008854
v -0.388169 5.594045 0.008854
v -0.388169 5.594045 0.008854
v -0.388169 5.594045 0.008854
v -0.377760 5.615323 0.217002
v -0.377760 5.615323 0.217002
v -0.377760 5.615323 0.217002
v -0.377760 5.615323 0.217002
v -0.377760 5.615323 0.217002
v -0.377760 5.615323 0.217002
v -0.377760 5.615323 0.217002
v 0.207655 5.628110 -0.391572
v 0.207655 5.628110 -0.391572
v 0.207655 5.628110 -0.391572
v 0.207655 5.628110 -0.391572
v 0.207655 5.628110 -0.391572
v 0.207655 5.628110 -0.391572
v -0.000000 5.603011 -0.417749
v -0.000000 5.603011 -0.417749
v -0.000000 5.603011 -0.417749
v -0.000000 5.603011 -0.417749
v -0.207655 5.628111 -0.391572
v -0.207655 5.628111 -0.391572
v -0.207655 5.628111 -0.391572
v -0.207655 5.628111 -0.391572
v -0.207655 5.628111 -0.391572
v -0.207655 5.628111 -0.391572
v 0.401053 6.236684 -0.378784
v 0.401053 6.236684 -0.378784
v 0.401053 6.236684 -0.378784
v 0.401053 6.236684 -0.378784
v 0.401053 6.236684 -0.378784
v 0.401053 6.236684 -0.378784
v 0.426697 6.029613 -0.408785
v 0.426697 6.029613 -0.408785
v 0.426697 6.029613 -0.408785
v 0.426697 6.029613 -0.408785
v 0.401053 5.821466 -0.387509
v 0.401053 5.821466 -0.387509
v 0.401053 5.821466 -0.387509
v 0.401053 5.821466 -0.387509
v 0.401053 5.821466 -0.387509
v 0.401053 5.821466 -0.387509
v -0.401053 5.802977 0.492404
v -0.401053 5.802977 0.492404
v -0.401053 5.802977 0.492404
v -0.401053 5.802977 0.492404
v -0.401053 5.802977 0.492404
v -0.426698 5.857644 0.441184
v -0.426698 5.857644 0.441184
v -0.426698 5.857644 0.441184
v -0.426698 5.857644 0.441184
v -0.426698 5.857644 0.441184
v -0.401053 6.219833 0.423145
v -0.401053 6.219833 0.423145
v -0.401053 6.219833 0.423145
v -0.401053 6.219833 0.423145
v -0.401053 6.219833 0.423145
v -0.401053 6.219833 0.423145
v 0.401053 6.219833 0.423145
v 0.401053 6.219833 0.423145
v 0.401053 6.219833 0.423145
v 0.401053 6.219833 0.423145
v 0.401053 6.219833 0.423145
v 0.401053 6.219833 0.423145
v 0.426697 5.857644 0.441184
v 0.426697 5.857644 0.441184
v 0.426697 5.857644 0.441184
v 0.426697 5.857644 0.441184
v 0.426697 5.857644 0.441184
v 0.401053 5.802977 0.492404
v 0.401053 5.802977 0.492404
v 0.401053 5.802977 0.492404
v 0.401053 5.802977 0.492404
v 0.401053 5.802977 0.492404
v -0.401053 6.236684 -0.378784
v -0.401053 6.236684 -0.378784
v -0.401053 6.236684 -0.378784
v -0.401053 6.236684 -0.378784
v -0.401053 6.236684 -0.378784
v -0.401053 6.236684 -0.378784
v -0.426698 6.029614 -0.408785
v -0.426698 6.029614 -0.408785
v -0.426698 6.029614 -0.408785
v -0.426698 6.029614 -0.408785
v -0.401053 5.821466 -0.387509
v -0.401053 5.821466 -0.387509
v -0.401053 5.821466 -0.387509
v -0.401053 5.821466 -0.387509
v -0.401053 5.821466 -0.387509
v -0.401053 5.821466 -0.387509
v 0.207655 6.413188 0.427208
v 0.207655 6.413188 0.427208
v 0.207655 6.413188 0.427208
v 0.207655 6.413188 0.427208
v 0.207655 6.413188 0.427208
v 0.207655 6.413188 0.427208
v -0.000000 6.438288 0.453386
v -0.000000 6.438288 0.453386
v -0.000000 6.438288 0.453386
v -0.000000 6.438288 0.453386
v -0.207655 6.413188 0.427208
v -0.207655 6.413188 0.427208
v -0.207655 6.413188 0.427208
v -0.207655 6.413188 0.427208
v -0.207655 6.413188 0.427208
v -0.207655 6.413188 0.427208
v 0.401053 6.425976 -0.181366
v 0.401053 6.425976 -0.181366
v 0.401053 6.425976 -0.181366
v 0.401053 6.425976 -0.181366
v 0.401053 6.425976 -0.181366
v 0.401053 6.425976 -0.181366
v 0.426697 6.447253 0.026782
v 0.426697 6.447253 0.026782
v 0.426697 6.447253 0.026782
v 0.426697 6.447253 0.026782
v 0.401053 6.417251 0.233853
v 0.401053 6.417251 0.233853
v 0.401053 6.417251 0.233853
v 0.401053 6.417251 0.233853
v 0.401053 6.417251 0.233853
v 0.401053 6.417251 0.233853
v -0.207655 5.557932 0.409236
v -0.207655 5.557932 0.409236
v -0.207655 5.557932 0.409236
v -0.207655 5.557932 0.409236
v -0.207655 5.557932 0.409236
v -0.207655 5.557932 0.409236
v -0.000000 5.531755 0.434336
v -0.000000 5.531755 0.434336
v -0.000000 5.531755 0.434336
v -0.000000 5.531755 0.434336
v -0.000000 5.531755 0.434336
v -0.000000 5.531755 0.434336
v 0.207655 5.557933 0.409236
v 0.207655 5.557933 0.409236
v 0.207655 5.557933 0.409236
v 0.207655 5.557933 0.409236
v 0.207655 5.557933 0.409236
v 0.207655 5.557933 0.409236
v -0.401053 6.417251 0.233853
v -0.401053 6.417251 0.233853
v -0.401053 6.417251 0.233853
v -0.401053 6.417251 0.233853
v -0.401053 6.417251 0.233853
v -0.401053 6.417251 0.233853
v -0.426698 6.447253 0.026782
v -0.426698 6.447253 0.026782
v -0.426698 6.447253 0.026782
v -0.426698 6.447253 0.026782
v -0.401053 6.425976 -0.181366
v -0.401053 6.425976 -0.181366
v -0.401053 6.425976 -0.181366
v -0.401053 6.425976 -0.181366
v -0.401053 6.425976 -0.181366
v -0.401053 6.425976 -0.181366
v -0.207655 6.430039 -0.374721
v -0.207655 6.430039 -0.374721
v -0.207655 6.430039 -0.374721
v -0.207655 6.430039 -0.374721
v -0.207655 6.430039 -0.374721
v -0.207655 6.430039 -0.374721
v -0.000000 6.456217 -0.399821
v -0.000000 6.456217 -0.399821
v -0.000000 6.456217 -0.399821
v -0.000000 6.456217 -0.399821
v 0.207655 6.430039 -0.374721
v 0.207655 6.430039 -0.374721
v 0.207655 6.430039 -0.374721
v 0.207655 6.430039 -0.374721
v 0.207655 6.430039 -0.374721
v 0.207655 6.430039 -0.374721
v 0.377760 5.615323 0.217002
v 0.377760 5.615323 0.217002
v 0.377760 5.615323 0.217002
v 0.377760 5.615323 0.217002
v 0.377760 5.615323 0.217002
v 0.377760 5.615323 0.217002
v 0.377760 5.615323 0.217002
v 0.388169 5.594045 0.008854
v 0.388169 5.594045 0.008854
v 0.388169 5.594045 0.008854
v 0.388169 5.594045 0.008854
v 0.388169 5.594045 0.008854
v 0.401053 5.624047 -0.198217
v 0.401053 5.624047 -0.198217
v 0.401053 5.624047 -0.198217
v 0.401053 5.624047 -0.198217
v 0.401053 5.624047 -0.198217
v 0.221310 6.535479 -0.192723
v 0.221310 6.535479 -0.192723
v 0.221310 6.535479 -0.192723
v 0.221310 6.535479 -0.192723
v 0.221310 6.535479 -0.192723
v 0.221310 6.535479 -0.192723
v -0.000000 6.572707 -0.203831
v -0.000000 6.572707 -0.203831
v -0.000000 6.572707 -0.203831
v -0.000000 6.572707 -0.203831
v -0.000000 6.572707 -0.203831
v -0.000000 6.572707 -0.203831
v -0.221310 6.535479 -0.192723
v -0.221310 6.535479 -0.192723
v -0.221310 6.535479 -0.192723
v -0.221310 6.535479 -0.192723
v -0.221310 6.535479 -0.192723
v -0.221310 6.535479 -0.192723
v 0.233198 6.567808 0.029316
v 0.233198 6.567808 0.029316
v 0.233198 6.567808 0.029316
v 0.233198 6.567808 0.029316
v 0.233198 6.567808 0.029316
v 0.233198 6.567808 0.029316
v -0.000000 6.608174 0.030164
v -0.000000 6.608174 0.030164
v -0.000000 6.608174 0.030164
v -0.000000 6.608174 0.030164
v -0.000000 6.608174 0.030164
v -0.000000 6.608174 0.030164
v -0.000000 6.608174 0.030164
v -0.000000 6.608174 0.030164
v -0.233198 6.567808 0.029316
v -0.233198 6.567808 0.029316
v -0.233198 6.567808 0.029316
v -0.233198 6.567808 0.029316
v -0.233198 6.567808 0.029316
v -0.233198 6.567808 0.029316
v 0.221310 6.526179 0.249800
v 0.221310 6.526179 0.249800
v 0.221310 6.526179 0.249800
v 0.221310 6.526179 0.249800
v 0.221310 6.526179 0.249800
v 0.221310 6.526179 0.249800
v -0.000000 6.562909 0.262462
v -0.000000 6.562909 0.262462
v -0.000000 6.562909 0.262462
v -0.000000 6.562909 0.262462
v -0.000000 6.562909 0.262462
v -0.000000 6.562909 0.262462
v -0.221310 6.526179 0.249800
v -0.221310 6.526179 0.249800
v -0.221310 6.526179 0.249800
v -0.221310 6.526179 0.249800
v -0.221310 6.526179 0.249800
v -0.221310 6.526179 0.249800
v 0.221310 5.787029 0.601333
v 0.221310 5.787029 0.601333
v 0.221310 5.787029 0.601333
v 0.221310 5.787029 0.601333
v 0.221310 5.787029 0.601333
v 0.221310 5.787029 0.601333
v 0.221310 5.787029 0.601333
v 0.233198 5.855110 0.561740
v 0.233198 5.855110 0.561740
v 0.233198 5.855110 0.561740
v 0.233198 5.855110 0.561740
v 0.233198 5.855110 0.561740
v 0.233198 5.855110 0.561740
v 0.233198 5.855110 0.561740
v 0.221310 6.231189 0.532648
v 0.221310 6.231189 0.532648
v 0.221310 6.231189 0.532648
v 0.221310 6.231189 0.532648
v 0.221310 6.231189 0.532648
v -0.000000 5.772329 0.734984
v -0.000000 5.772329 0.734984
v -0.000000 5.772329 0.734984
v -0.000000 5.772329 0.734984
v -0.000000 5.853173 0.653941
v -0.000000 5.853173 0.653941
v -0.000000 5.853173 0.653941
v -0.000000 5.853173 0.653941
v -0.000000 5.853173 0.653941
v -0.000000 5.853173 0.653941
v -0.000000 6.242298 0.569876
v -0.000000 6.242298 0.569876
v -0.000000 6.242298 0.569876
v -0.000000 6.242298 0.569876
v -0.000000 6.242298 0.569876
v -0.000000 6.242298 0.569876
v -0.000000 6.242298 0.569876
v -0.000000 6.242298 0.569876
v -0.221310 5.787029 0.601333
v -0.221310 5.787029 0.601333
v -0.221310 5.787029 0.601333
v -0.221310 5.787029 0.601333
v -0.221310 5.787029 0.601333
v -0.221310 5.787029 0.601333
v -0.221310 5.787029 0.601333
v -0.233198 5.855111 0.561740
v -0.233198 5.855111 0.561740
v -0.233198 5.855111 0.561740
v -0.233198 5.855111 0.561740
v -0.233198 5.855111 0.561740
v -0.233198 5.855111 0.561740
v -0.233198 5.855111 0.561740
v -0.221310 6.231189 0.532648
v -0.221310 6.231189 0.532648
v -0.221310 6.231189 0.532648
v -0.221310 6.231189 0.532648
v -0.221310 6.231189 0.532648
v -0.484171 5.794738 0.234430
v -0.484171 5.794738 0.234430
v -0.484171 5.794738 0.234430
v -0.484171 5.794738 0.234430
v -0.484171 5.794738 0.234430
v -0.484171 5.794738 0.234430
v -0.484171 5.794738 0.234430
v -0.520200 6.015749 0.250965
v -0.520200 6.015749 0.250965
v -0.520200 6.015749 0.250965
v -0.520200 6.015749 0.250965
v -0.520200 6.015749 0.250965
v -0.510293 6.237260 0.243728
v -0.510293 6.237260 0.243728
v -0.510293 6.237260 0.243728
v -0.510293 6.237260 0.243728
v -0.510293 6.237260 0.243728
v -0.510293 6.237260 0.243728
v -0.508752 5.787503 0.012919
v -0.508752 5.787503 0.012919
v -0.508752 5.787503 0.012919
v -0.508752 5.787503 0.012919
v -0.508752 5.787503 0.012919
v -0.508752 5.787503 0.012919
v -0.549126 6.020649 0.017818
v -0.549126 6.020649 0.017818
v -0.549126 6.020649 0.017818
v -0.549126 6.020649 0.017818
v -0.549126 6.020649 0.017818
v -0.549126 6.020649 0.017818
v -0.549126 6.020649 0.017818
v -0.549126 6.020649 0.017818
v -0.547280 6.253796 0.022717
v -0.547280 6.253796 0.022717
v -0.547280 6.253796 0.022717
v -0.547280 6.253796 0.022717
v -0.547280 6.253796 0.022717
v -0.547280 6.253796 0.022717
v -0.510293 5.804038 -0.208092
v -0.510293 5.804038 -0.208092
v -0.510293 5.804038 -0.208092
v -0.510293 5.804038 -0.208092
v -0.510293 5.804038 -0.208092
v -0.510293 5.804038 -0.208092
v -0.547280 6.025548 -0.215329
v -0.547280 6.025548 -0.215329
v -0.547280 6.025548 -0.215329
v -0.547280 6.025548 -0.215329
v -0.547280 6.025548 -0.215329
v -0.547280 6.025548 -0.215329
v -0.510293 6.246560 -0.198794
v -0.510293 6.246560 -0.198794
v -0.510293 6.246560 -0.198794
v -0.510293 6.246560 -0.198794
v -0.510293 6.246560 -0.198794
v -0.510293 6.246560 -0.198794
v -0.221310 5.515119 -0.214164
v -0.221310 5.515119 -0.214164
v -0.221310 5.515119 -0.214164
v -0.221310 5.515119 -0.214164
v -0.221310 5.515119 -0.214164
v -0.221310 5.515119 -0.214164
v -0.221310 5.515119 -0.214164
v -0.000000 5.478390 -0.226826
v -0.000000 5.478390 -0.226826
v -0.000000 5.478390 -0.226826
v -0.000000 5.478390 -0.226826
v -0.000000 5.478390 -0.226826
v -0.000000 5.478390 -0.226826
v 0.221310 5.515119 -0.214163
v 0.221310 5.515119 -0.214163
v 0.221310 5.515119 -0.214163
v 0.221310 5.515119 -0.214163
v 0.221310 5.515119 -0.214163
v 0.221310 5.515119 -0.214163
v 0.221310 5.515119 -0.214163
v -0.233198 5.473490 0.006321
v -0.233198 5.473490 0.006321
v -0.233198 5.473490 0.006321
v -0.233198 5.473490 0.006321
v -0.233198 5.473490 0.006321
v -0.000000 5.433125 0.005472
v -0.000000 5.433125 0.005472
v -0.000000 5.433125 0.005472
v -0.000000 5.433125 0.005472
v -0.000000 5.433125 0.005472
v -0.000000 5.433125 0.005472
v -0.000000 5.433125 0.005472
v -0.000000 5.433125 0.005472
v 0.233198 5.473490 0.006321
v 0.233198 5.473490 0.006321
v 0.233198 5.473490 0.006321
v 0.233198 5.473490 0.006321
v 0.233198 5.473490 0.006321
v -0.221310 5.452493 0.227238
v -0.221310 5.452493 0.227238
v -0.221310 5.452493 0.227238
v -0.221310 5.452493 0.227238
v -0.221310 5.452493 0.227238
v -0.000000 5.415264 0.238347
v -0.000000 5.415264 0.238347
v -0.000000 5.415264 0.238347
v -0.000000 5.415264 0.238347
v -0.000000 5.415264 0.238347
v -0.000000 5.415264 0.238347
v 0.221310 5.452494 0.227238
v 0.221310 5.452494 0.227238
v 0.221310 5.452494 0.227238
v 0.221310 5.452494 0.227238
v 0.221310 5.452494 0.227238
v 0.510293 5.804038 -0.208092
v 0.510293 5.804038 -0.208092
v 0.510293 5.804038 -0.208092
v 0.510293 5.804038 -0.208092
v 0.510293 5.804038 -0.208092
v 0.510293 5.804038 -0.208092
v 0.547280 6.025548 -0.215329
v 0.547280 6.025548 -0.215329
v 0.547280 6.025548 -0.215329
v 0.547280 6.025548 -0.215329
v 0.547280 6.025548 -0.215329
v 0.547280 6.025548 -0.215329
v 0.510293 6.246560 -0.198794
v 0.510293 6.246560 -0.198794
v 0.510293 6.246560 -0.198794
v 0.510293 6.246560 -0.198794
v 0.510293 6.246560 -0.198794
v 0.510293 6.246560 -0.198794
v 0.508752 5.787504 0.012919
v 0.508752 5.787504 0.012919
v 0.508752 5.787504 0.012919
v 0.508752 5.787504 0.012919
v 0.508752 5.787504 0.012919
v 0.508752 5.787504 0.012919
v 0.549126 6.020649 0.017818
v 0.549126 6.020649 0.017818
v 0.549126 6.020649 0.017818
v 0.549126 6.020649 0.017818
v 0.549126 6.020649 0.017818
v 0.549126 6.020649 0.017818
v 0.549126 6.020649 0.017818
v 0.549126 6.020649 0.017818
v 0.547280 6.253796 0.022717
v 0.547280 6.253796 0.022717
v 0.547280 6.253796 0.022717
v 0.547280 6.253796 0.022717
v 0.547280 6.253796 0.022717
v 0.547280 6.253796 0.022717
v 0.484171 5.794738 0.234430
v 0.484171 5.794738 0.234430
v 0.484171 5.794738 0.234430
v 0.484171 5.794738 0.234430
v 0.484171 5.794738 0.234430
v 0.484171 5.794738 0.234430
v 0.484171 5.794738 0.234430
v 0.520200 6.015750 0.250965
v 0.520200 6.015750 0.250965
v 0.520200 6.015750 0.250965
v 0.520200 6.015750 0.250965
v 0.520200 6.015750 0.250965
v 0.510293 6.237260 0.243728
v 0.510293 6.237260 0.243728
v 0.510293 6.237260 0.243728
v 0.510293 6.237260 0.243728
v 0.510293 6.237260 0.243728
v 0.510293 6.237260 0.243728
v -0.221310 5.810109 -0.497012
v -0.221310 5.810109 -0.497012
v -0.221310 5.810109 -0.497012
v -0.221310 5.810109 -0.497012
v -0.221310 5.810109 -0.497012
v -0.221310 5.810109 -0.497012
v -0.233198 6.032147 -0.529341
v -0.233198 6.032147 -0.529341
v -0.233198 6.032147 -0.529341
v -0.233198 6.032147 -0.529341
v -0.233198 6.032147 -0.529341
v -0.233198 6.032147 -0.529341
v -0.221310 6.252631 -0.487713
v -0.221310 6.252631 -0.487713
v -0.221310 6.252631 -0.487713
v -0.221310 6.252631 -0.487713
v -0.221310 6.252631 -0.487713
v -0.221310 6.252631 -0.487713
v -0.000000 5.799001 -0.534240
v -0.000000 5.799001 -0.534240
v -0.000000 5.799001 -0.534240
v -0.000000 5.799001 -0.534240
v -0.000000 5.799001 -0.534240
v -0.000000 5.799001 -0.534240
v -0.000000 6.032995 -0.569706
v -0.000000 6.032995 -0.569706
v -0.000000 6.032995 -0.569706
v -0.000000 6.032995 -0.569706
v -0.000000 6.032995 -0.569706
v -0.000000 6.032995 -0.569706
v -0.000000 6.032995 -0.569706
v -0.000000 6.032995 -0.569706
v -0.000000 6.265293 -0.524442
v -0.000000 6.265293 -0.524442
v -0.000000 6.265293 -0.524442
v -0.000000 6.265293 -0.524442
v -0.000000 6.265293 -0.524442
v -0.000000 6.265293 -0.524442
v 0.221310 5.810109 -0.497012
v 0.221310 5.810109 -0.497012
v 0.221310 5.810109 -0.497012
v 0.221310 5.810109 -0.497012
v 0.221310 5.810109 -0.497012
v 0.221310 5.810109 -0.497012
v 0.233198 6.032146 -0.529341
v 0.233198 6.032146 -0.529341
v 0.233198 6.032146 -0.529341
v 0.233198 6.032146 -0.529341
v 0.233198 6.032146 -0.529341
v 0.233198 6.032146 -0.529341
v 0.221310 6.252631 -0.487713
v 0.221310 6.252631 -0.487713
v 0.221310 6.252631 -0.487713
v 0.221310 6.252631 -0.487713
v 0.221310 6.252631 -0.487713
v 0.221310 6.252631 -0.487713
v -0.473212 3.262942 0.402714
v -0.473212 3.262942 0.402714
v -0.473212 3.262942 0.402714
v -0.473212 3.262942 0.402714
v -0.473212 3.262942 0.402714
v -0.473212 3.262942 0.402714
v -0.681337 5.282633 0.024386
v -0.681337 5.282633 0.024386
v -0.681337 5.282633 0.024386
v -0.681337 5.282633 0.024386
v -0.681337 5.282633 0.024386
v -0.479851 3.248186 -0.164988
v -0.479851 3.248186 -0.164988
v -0.479851 3.248186 -0.164988
v -0.479851 3.248186 -0.164988
v -0.479851 3.248186 -0.164988
v -0.479851 3.248186 -0.164988
v -0.684618 5.246148 -0.226886
v -0.684618 5.246148 -0.226886
v -0.684618 5.246148 -0.226886
v -0.684618 5.246148 -0.226886
v 0.471342 3.262942 0.402714
v 0.471342 3.262942 0.402714
v 0.471342 3.262942 0.402714
v 0.471342 3.262942 0.402714
v 0.471342 3.262942 0.402714
v 0.471342 3.262942 0.402714
v 0.471342 3.262942 0.402714
v 0.679079 5.262427 0.040263
v 0.679079 5.262427 0.040263
v 0.679079 5.262427 0.040263
v 0.679079 5.262427 0.040263
v 0.679079 5.262427 0.040263
v 0.477980 3.248186 -0.164988
v 0.477980 3.248186 -0.164988
v 0.477980 3.248186 -0.164988
v 0.477980 3.248186 -0.164988
v 0.477980 3.248186 -0.164988
v 0.477980 3.248186 -0.164988
v 0.707403 5.150880 -0.216780
v 0.707403 5.150880 -0.216780
v 0.707403 5.150880 -0.216780
v 0.707403 5.150880 -0.216780
v 0.120976 3.248186 -0.164988
v 0.120976 3.248186 -0.164988
v 0.120976 3.248186 -0.164988
v 0.120976 3.248186 -0.164988
v 0.120976 3.248186 -0.164988
v 0.120976 3.248186 -0.164988
v 0.120976 3.248186 -0.164988
v -0.001055 3.245173 -0.179100
v -0.001055 3.245173 -0.179100
v -0.001055 3.245173 -0.179100
v -0.001055 3.245173 -0.179100
v -0.001055 3.245173 -0.179100
v -0.001055 3.245173 -0.179100
v -0.122847 3.248186 -0.164988
v -0.122847 3.248186 -0.164988
v -0.122847 3.248186 -0.164988
v -0.122847 3.248186 -0.164988
v -0.122847 3.248186 -0.164988
v -0.122847 3.248186 -0.164988
v -0.122847 3.248186 -0.164988
v -0.340199 5.363271 -0.314781
v -0.340199 5.363271 -0.314781
v -0.340199 5.363271 -0.314781
v -0.340199 5.363271 -0.314781
v -0.340199 5.363271 -0.314781
v -0.001054 5.363271 -0.314781
v -0.001054 5.363271 -0.314781
v -0.001054 5.363271 -0.314781
v -0.001054 5.363271 -0.314781
v -0.001054 5.363271 -0.314781
v 0.394718 5.364057 -0.337323
v 0.394718 5.364057 -0.337323
v 0.394718 5.364057 -0.337323
v 0.394718 5.364057 -0.337323
v 0.394718 5.364057 -0.337323
v -0.200087 3.262942 0.402714
v -0.200087 3.262942 0.402714
v -0.200087 3.262942 0.402714
v -0.200087 3.262942 0.402714
v -0.200087 3.262942 0.402714
v -0.200087 3.262942 0.402714
v -0.200087 3.262942 0.402714
v -0.001054 3.254152 0.408179
v -0.001054 3.254152 0.408179
v -0.001054 3.254152 0.408179
v -0.001054 3.254152 0.408179
v -0.001054 3.254152 0.408179
v -0.001054 3.254152 0.408179
v 0.198217 3.262941 0.402714
v 0.198217 3.262941 0.402714
v 0.198217 3.262941 0.402714
v 0.198217 3.262941 0.402714
v 0.198217 3.262941 0.402714
v 0.198217 3.262941 0.402714
v 0.198217 3.262941 0.402714
v 0.338091 5.028139 0.485251
v 0.338091 5.028139 0.485251
v 0.338091 5.028139 0.485251
v 0.338091 5.028139 0.485251
v 0.338091 5.028139 0.485251
v -0.001054 5.027773 0.486040
v -0.001054 5.027773 0.486040
v -0.001054 5.027773 0.486040
v -0.001054 5.027773 0.486040
v -0.356726 5.127562 0.404052
v -0.356726 5.127562 0.404052
v -0.356726 5.127562 0.404052
v -0.356726 5.127562 0.404052
v -0.437450 3.862992 0.458481
v -0.437450 3.862992 0.458481
v -0.437450 3.862992 0.458481
v -0.437450 3.862992 0.458481
v -0.437450 3.862992 0.458481
v -0.450369 4.247299 0.350800
v -0.450369 4.247299 0.350800
v -0.450369 4.247299 0.350800
v -0.450369 4.247299 0.350800
v -0.450369 4.247299 0.350800
v -0.450369 4.247299 0.350800
v -0.450369 4.247299 0.350800
v -0.634346 5.303697 -0.019089
v -0.634346 5.303697 -0.019089
v -0.634346 5.303697 -0.019089
v -0.634346 5.303697 -0.019089
v -0.634346 5.303697 -0.019089
v -0.675655 5.170568 -0.217139
v -0.675655 5.170568 -0.217139
v -0.675655 5.170568 -0.217139
v -0.675655 5.170568 -0.217139
v -0.675655 5.170568 -0.217139
v -0.371816 4.354892 -0.163211
v -0.371816 4.354892 -0.163211
v -0.371816 4.354892 -0.163211
v -0.371816 4.354892 -0.163211
v -0.371816 4.354892 -0.163211
v -0.371816 4.354892 -0.163211
v -0.371816 4.354892 -0.163211
v -0.371816 4.354892 -0.163211
v -0.480771 3.844981 -0.234419
v -0.480771 3.844981 -0.234419
v -0.480771 3.844981 -0.234419
v -0.480771 3.844981 -0.234419
v 0.653358 5.144985 -0.214909
v 0.653358 5.144985 -0.214909
v 0.653358 5.144985 -0.214909
v 0.653358 5.144985 -0.214909
v 0.653358 5.144985 -0.214909
v 0.450740 4.233366 -0.111684
v 0.450740 4.233366 -0.111684
v 0.450740 4.233366 -0.111684
v 0.450740 4.233366 -0.111684
v 0.450740 4.233366 -0.111684
v 0.450740 4.233366 -0.111684
v 0.450740 4.233366 -0.111684
v 0.450740 4.233366 -0.111684
v 0.478662 3.845059 -0.234508
v 0.478662 3.845059 -0.234508
v 0.478662 3.845059 -0.234508
v 0.478662 3.845059 -0.234508
v 0.676808 5.196247 0.039748
v 0.676808 5.196247 0.039748
v 0.676808 5.196247 0.039748
v 0.676808 5.196247 0.039748
v 0.676808 5.196247 0.039748
v 0.450740 4.242461 0.353186
v 0.450740 4.242461 0.353186
v 0.450740 4.242461 0.353186
v 0.450740 4.242461 0.353186
v 0.450740 4.242461 0.353186
v 0.450740 4.242461 0.353186
v 0.450740 4.242461 0.353186
v 0.435341 3.862992 0.458481
v 0.435341 3.862992 0.458481
v 0.435341 3.862992 0.458481
v 0.435341 3.862992 0.458481
v 0.435341 3.862992 0.458481
v 0.338091 4.849227 0.479894
v 0.338091 4.849227 0.479894
v 0.338091 4.849227 0.479894
v 0.338091 4.849227 0.479894
v 0.224843 4.242824 0.353218
v 0.224843 4.242824 0.353218
v 0.224843 4.242824 0.353218
v 0.224843 4.242824 0.353218
v 0.224843 4.242824 0.353218
v 0.238804 3.863323 0.471227
v 0.238804 3.863323 0.471227
v 0.238804 3.863323 0.471227
v 0.238804 3.863323 0.471227
v 0.238804 3.863323 0.471227
v -0.001054 4.848696 0.480772
v -0.001054 4.848696 0.480772
v -0.001054 4.243161 0.353248
v -0.001054 4.243161 0.353248
v -0.001054 3.863629 0.483004
v -0.001054 3.863629 0.483004
v -0.001054 3.863629 0.483004
v -0.001054 3.863629 0.483004
v -0.001054 3.863629 0.483004
v -0.001054 3.863629 0.483004
v -0.001054 3.863629 0.483004
v -0.337010 4.950421 0.406786
v -0.337010 4.950421 0.406786
v -0.337010 4.950421 0.406786
v -0.337010 4.950421 0.406786
v -0.226951 4.242818 0.353218
v -0.226951 4.242818 0.353218
v -0.226951 4.242818 0.353218
v -0.226951 4.242818 0.353218
v -0.226951 4.242818 0.353218
v -0.240912 3.863323 0.471227
v -0.240912 3.863323 0.471227
v -0.240912 3.863323 0.471227
v -0.240912 3.863323 0.471227
v -0.240912 3.863323 0.471227
v -0.345531 4.876557 -0.343722
v -0.345531 4.876557 -0.343722
v -0.345531 4.876557 -0.343722
v -0.345531 4.876557 -0.343722
v -0.219970 4.251085 -0.122531
v -0.219970 4.251085 -0.122531
v -0.219970 4.251085 -0.122531
v -0.219970 4.251085 -0.122531
v -0.240912 3.844507 -0.252692
v -0.240912 3.844507 -0.252692
v -0.240912 3.844507 -0.252692
v -0.240912 3.844507 -0.252692
v -0.240912 3.844507 -0.252692
v -0.240912 3.844507 -0.252692
v -0.001054 4.861304 -0.328025
v -0.001054 4.861304 -0.328025
v -0.001054 4.231464 -0.111492
v -0.001054 4.231464 -0.111492
v -0.001054 3.844044 -0.270502
v -0.001054 3.844044 -0.270502
v -0.001054 3.844044 -0.270502
v -0.001054 3.844044 -0.270502
v -0.001054 3.844044 -0.270502
v -0.001054 3.844044 -0.270502
v -0.001054 3.844044 -0.270502
v 0.327716 4.925275 -0.344500
v 0.327716 4.925275 -0.344500
v 0.327716 4.925275 -0.344500
v 0.327716 4.925275 -0.344500
v 0.224843 4.232188 -0.111565
v 0.224843 4.232188 -0.111565
v 0.224843 4.232188 -0.111565
v 0.224843 4.232188 -0.111565
v 0.238804 3.844506 -0.252692
v 0.238804 3.844506 -0.252692
v 0.238804 3.844506 -0.252692
v 0.238804 3.844506 -0.252692
v 0.238804 3.844506 -0.252692
v 0.238804 3.844506 -0.252692
v -0.484230 5.412962 0.606453
v -0.484230 5.412962 0.606453
v -0.484230 5.412962 0.606453
v -0.484230 5.412962 0.606453
v -0.537742 5.429816 0.641153
v -0.537742 5.429816 0.641153
v -0.537742 5.429816 0.641153
v -0.537742 5.429816 0.641153
v -0.271293 5.583312 0.874929
v -0.271293 5.583312 0.874929
v -0.271293 5.583312 0.874929
v -0.271293 5.583312 0.874929
v -0.216314 5.573342 0.840229
v -0.216314 5.573342 0.840229
v -0.216314 5.573342 0.840229
v -0.216314 5.573342 0.840229
v 0.024988 4.563841 0.598568
v 0.024988 4.563841 0.598568
v 0.024988 4.563841 0.598568
v 0.024988 4.563841 0.598568
v 0.046164 4.590797 0.655267
v 0.046164 4.590797 0.655267
v 0.046164 4.590797 0.655267
v 0.046164 4.590797 0.655267
v 0.043544 4.844975 0.535403
v 0.043544 4.844975 0.535403
v 0.043544 4.844975 0.535403
v 0.043544 4.844975 0.535403
v 0.022369 4.818018 0.478704
v 0.022369 4.818018 0.478704
v 0.022369 4.818018 0.478704
v 0.022369 4.818018 0.478704
v 0.234340 0.489317 -0.206750
v 0.234340 0.489317 -0.206750
v 0.234340 0.489317 -0.206750
v 0.234340 0.489317 -0.206750
v 0.234340 0.489317 -0.206750
v 0.469647 0.489286 -0.206791
v 0.469647 0.489286 -0.206791
v 0.469647 0.489286 -0.206791
v 0.469647 0.489286 -0.206791
v 0.469647 0.489286 -0.206791
v 0.521597 0.468790 0.360388
v 0.521597 0.468790 0.360388
v 0.521597 0.468790 0.360388
v 0.521597 0.468790 0.360388
v 0.521597 0.468790 0.360388
v 0.521597 0.468790 0.360388
v 0.521597 0.468790 0.360388
v 0.169331 0.468719 0.360434
v 0.169331 0.468719 0.360434
v 0.169331 0.468719 0.360434
v 0.169331 0.468719 0.360434
v 0.169331 0.468719 0.360434
v 0.169331 0.468719 0.360434
v -0.451808 0.489147 -0.205271
v -0.451808 0.489147 -0.205271
v -0.451808 0.489147 -0.205271
v -0.451808 0.489147 -0.205271
v -0.451808 0.489147 -0.205271
v -0.225367 0.489149 -0.205269
v -0.225367 0.489149 -0.205269
v -0.225367 0.489149 -0.205269
v -0.225367 0.489149 -0.205269
v -0.225367 0.489149 -0.205269
v -0.157705 0.469433 0.361372
v -0.157705 0.469433 0.361372
v -0.157705 0.469433 0.361372
v -0.157705 0.469433 0.361372
v -0.157705 0.469433 0.361372
v -0.157705 0.469433 0.361372
v -0.509971 0.469406 0.361390
v -0.509971 0.469406 0.361390
v -0.509971 0.469406 0.361390
v -0.509971 0.469406 0.361390
v -0.509971 0.469406 0.361390
v -0.509971 0.469406 0.361390
v -0.247617 5.858411 0.581206
v -0.247617 5.858411 0.581206
v -0.247617 5.858411 0.581206
v -0.467734 5.923619 0.722348
v -0.467734 5.923619 0.722348
v -0.467734 5.923619 0.722348
v -0.275160 5.785946 1.085553
v -0.275160 5.785946 1.085553
v -0.275160 5.785946 1.085553
v -0.054520 5.722912 0.944411
v -0.054520 5.722912 0.944411
v -0.054520 5.722912 0.944411
v -0.484913 4.516901 0.692577
v -0.484913 4.516901 0.692577
v -0.484913 4.516901 0.692577
v -0.398781 4.626544 0.923196
v -0.398781 4.626544 0.923196
v -0.398781 4.626544 0.923196
v -0.402852 5.021444 0.736969
v -0.402852 5.021444 0.736969
v -0.402852 5.021444 0.736969
v -0.488983 4.911801 0.506350
v -0.488983 4.911801 0.506350
v -0.488983 4.911801 0.506350
v 0.263260 -0.001593 -0.218587
v 0.263260 -0.001593 -0.218587
v 0.263260 -0.001593 -0.218587
v 0.449036 -0.001549 -0.218637
v 0.449036 -0.001549 -0.218637
v 0.449036 -0.001549 -0.218637
v 0.517684 -0.006481 0.349826
v 0.517684 -0.006481 0.349826
v 0.517684 -0.006481 0.349826
v 0.517684 -0.006481 0.349826
v 0.170399 -0.006563 0.349771
v 0.170399 -0.006563 0.349771
v 0.170399 -0.006563 0.349771
v 0.170399 -0.006563 0.349771
v -0.413920 -0.002230 -0.216533
v -0.413920 -0.002230 -0.216533
v -0.413920 -0.002230 -0.216533
v -0.238325 -0.002186 -0.216581
v -0.238325 -0.002186 -0.216581
v -0.238325 -0.002186 -0.216581
v -0.158773 -0.005748 0.351902
v -0.158773 -0.005748 0.351902
v -0.158773 -0.005748 0.351902
v -0.158773 -0.005748 0.351902
v -0.446670 -0.005485 0.352077
v -0.446670 -0.005485 0.352077
v -0.446670 -0.005485 0.352077
v -0.446670 -0.005485 0.352077
v 0.183616 0.273549 0.759641
v 0.183616 0.273549 0.759641
v 0.183616 0.273549 0.759641
v 0.183616 0.273549 0.759641
v 0.183616 0.273549 0.759641
v 0.177008 -0.008348 0.757855
v 0.177008 -0.008348 0.757855
v 0.177008 -0.008348 0.757855
v 0.177008 -0.008348 0.757855
v 0.522919 -0.008348 0.757855
v 0.522919 -0.008348 0.757855
v 0.522919 -0.008348 0.757855
v 0.522919 -0.008348 0.757855
v 0.518421 0.273610 0.759638
v 0.518421 0.273610 0.759638
v 0.518421 0.273610 0.759638
v 0.518421 0.273610 0.759638
v 0.518421 0.273610 0.759638
v -0.506795 0.275437 0.761025
v -0.506795 0.275437 0.761025
v -0.506795 0.275437 0.761025
v -0.506795 0.275437 0.761025
v -0.506795 0.275437 0.761025
v -0.511292 -0.006442 0.759991
v -0.511292 -0.006442 0.759991
v -0.511292 -0.006442 0.759991
v -0.511292 -0.006442 0.759991
v -0.165381 -0.006442 0.759991
v -0.165381 -0.006442 0.759991
v -0.165381 -0.006442 0.759991
v -0.165381 -0.006442 0.759991
v -0.171990 0.275540 0.761021
v -0.171990 0.275540 0.761021
v -0.171990 0.275540 0.761021
v -0.171990 0.275540 0.761021
v -0.171990 0.275540 0.761021
v -0.615041 3.251875 -0.023062
v -0.615041 3.251875 -0.023062
v -0.615041 3.251875 -0.023062
v -0.615041 3.251875 -0.023062
v -0.615041 3.251875 -0.023062
v -0.615041 3.259253 0.260789
v -0.615041 3.259253 0.260789
v -0.615041 3.259253 0.260789
v -0.615041 3.259253 0.260789
v -0.615041 3.259253 0.260789
v -0.689781 5.358007 0.010982
v -0.689781 5.358007 0.010982
v -0.689781 5.358007 0.010982
v -0.689781 5.358007 0.010982
v -0.689781 5.358007 0.010982
v -0.686463 5.354680 -0.199874
v -0.686463 5.354680 -0.199874
v -0.686463 5.354680 -0.199874
v -0.686463 5.354680 -0.199874
v -0.686463 5.354680 -0.199874
v 0.613171 3.259253 0.260789
v 0.613171 3.259253 0.260789
v 0.613171 3.259253 0.260789
v 0.613171 3.259253 0.260789
v 0.613171 3.251875 -0.023062
v 0.613171 3.251875 -0.023062
v 0.613171 3.251875 -0.023062
v 0.613171 3.251875 -0.023062
v 0.613171 3.251875 -0.023062
v 0.791178 5.195192 -0.199379
v 0.791178 5.195192 -0.199379
v 0.791178 5.195192 -0.199379
v 0.791178 5.195192 -0.199379
v 0.791178 5.195192 -0.199379
v 0.697994 5.352348 0.007278
v 0.697994 5.352348 0.007278
v 0.697994 5.352348 0.007278
v 0.697994 5.352348 0.007278
v 0.697994 5.352348 0.007278
v 0.201717 5.416167 -0.124762
v 0.201717 5.416167 -0.124762
v 0.201717 5.416167 -0.124762
v 0.201717 5.416167 -0.124762
v 0.201717 5.416167 -0.124762
v 0.201717 5.416167 -0.124762
v 0.201717 5.416167 -0.124762
v 0.253362 5.321281 0.137897
v 0.253362 5.321281 0.137897
v 0.253362 5.321281 0.137897
v 0.253362 5.321281 0.137897
v 0.253362 5.321281 0.137897
v 0.253362 5.321281 0.137897
v -0.001054 5.404050 -0.186071
v -0.001054 5.404050 -0.186071
v -0.001054 5.404050 -0.186071
v -0.001054 5.404050 -0.186071
v -0.001054 5.404050 -0.186071
v -0.001054 5.404050 -0.186071
v -0.001054 5.319214 0.217285
v -0.001054 5.319214 0.217285
v -0.001054 5.319214 0.217285
v -0.001054 5.319214 0.217285
v -0.001054 5.319214 0.217285
v -0.001054 5.319214 0.217285
v -0.001054 5.319214 0.217285
v -0.234698 5.405163 -0.124295
v -0.234698 5.405163 -0.124295
v -0.234698 5.405163 -0.124295
v -0.234698 5.405163 -0.124295
v -0.234698 5.405163 -0.124295
v -0.234698 5.405163 -0.124295
v -0.234698 5.405163 -0.124295
v -0.233126 5.334597 0.142248
v -0.233126 5.334597 0.142248
v -0.233126 5.334597 0.142248
v -0.233126 5.334597 0.142248
v -0.233126 5.334597 0.142248
v -0.233126 5.334597 0.142248
v -0.233126 5.334597 0.142248
v -0.026801 3.251875 -0.023062
v -0.026801 3.251875 -0.023062
v -0.026801 3.251875 -0.023062
v -0.026801 3.251875 -0.023062
v -0.026801 3.251875 -0.023062
v -0.026801 3.251875 -0.023062
v -0.026801 3.251875 -0.023062
v -0.009229 3.259253 0.260788
v -0.009229 3.259253 0.260788
v -0.009229 3.259253 0.260788
v -0.009229 3.259253 0.260788
v -0.009229 3.259253 0.260788
v -0.001055 3.348001 -0.111755
v -0.001055 3.348001 -0.111755
v -0.001055 3.348001 -0.111755
v -0.001055 3.348001 -0.111755
v -0.001054 3.358526 0.293157
v -0.001054 3.358526 0.293157
v -0.001054 3.358526 0.293157
v -0.001054 3.358526 0.293157
v -0.001054 3.358526 0.293157
v -0.001054 3.358526 0.293157
v 0.024930 3.251875 -0.023062
v 0.024930 3.251875 -0.023062
v 0.024930 3.251875 -0.023062
v 0.024930 3.251875 -0.023062
v 0.024930 3.251875 -0.023062
v 0.024930 3.251875 -0.023062
v 0.024930 3.251875 -0.023062
v 0.007358 3.259253 0.260788
v 0.007358 3.259253 0.260788
v 0.007358 3.259253 0.260788
v 0.007358 3.259253 0.260788
v 0.007358 3.259253 0.260788
v 0.528705 3.847377 -0.146918
v 0.528705 3.847377 -0.146918
v 0.528705 3.847377 -0.146918
v 0.528705 3.847377 -0.146918
v 0.528705 3.847377 -0.146918
v 0.528705 3.847377 -0.146918
v 0.528705 3.858815 0.297799
v 0.528705 3.858815 0.297799
v 0.528705 3.858815 0.297799
v 0.528705 3.858815 0.297799
v 0.528705 3.858815 0.297799
v 0.528705 3.858815 0.297799
v 0.528705 3.858815 0.297799
v 0.488150 4.235158 0.004561
v 0.488150 4.235158 0.004561
v 0.488150 4.235158 0.004561
v 0.488150 4.235158 0.004561
v 0.488150 4.235158 0.004561
v 0.488150 4.235158 0.004561
v 0.499815 4.239769 0.236958
v 0.499815 4.239769 0.236958
v 0.499815 4.239769 0.236958
v 0.499815 4.239769 0.236958
v 0.629204 5.112282 -0.197752
v 0.629204 5.112282 -0.197752
v 0.629204 5.112282 -0.197752
v 0.629204 5.112282 -0.197752
v 0.629204 5.112282 -0.197752
v 0.669239 5.104480 0.006005
v 0.669239 5.104480 0.006005
v 0.669239 5.104480 0.006005
v 0.669239 5.104480 0.006005
v 0.669239 5.104480 0.006005
v 0.669239 5.104480 0.006005
v -0.538042 3.858815 0.297799
v -0.538042 3.858815 0.297799
v -0.538042 3.858815 0.297799
v -0.538042 3.858815 0.297799
v -0.538042 3.858815 0.297799
v -0.538042 3.858815 0.297799
v -0.538042 3.858815 0.297799
v -0.538042 3.847260 -0.146742
v -0.538042 3.847260 -0.146742
v -0.538042 3.847260 -0.146742
v -0.538042 3.847260 -0.146742
v -0.538042 3.847260 -0.146742
v -0.538042 3.847260 -0.146742
v -0.463448 4.323815 0.199313
v -0.463448 4.323815 0.199313
v -0.463448 4.323815 0.199313
v -0.463448 4.323815 0.199313
v -0.439327 4.344044 -0.039633
v -0.439327 4.344044 -0.039633
v -0.439327 4.344044 -0.039633
v -0.439327 4.344044 -0.039633
v -0.439327 4.344044 -0.039633
v -0.439327 4.344044 -0.039633
v -0.545861 5.276942 -0.065444
v -0.545861 5.276942 -0.065444
v -0.545861 5.276942 -0.065444
v -0.545861 5.276942 -0.065444
v -0.545861 5.276942 -0.065444
v -0.545861 5.276942 -0.065444
v -0.610743 5.099160 -0.180977
v -0.610743 5.099160 -0.180977
v -0.610743 5.099160 -0.180977
v -0.610743 5.099160 -0.180977
v -0.610743 5.099160 -0.180977
v -0.384305 5.584211 0.902063
v -0.384305 5.584211 0.902063
v -0.595114 5.463702 0.720460
v -0.595114 5.463702 0.720460
v -0.374638 5.401759 0.579319
v -0.374638 5.401759 0.579319
v -0.158355 5.546185 0.760921
v -0.158355 5.546185 0.760921
v 0.076314 4.857954 0.635737
v 0.076314 4.857954 0.635737
v 0.078350 4.660504 0.728852
v 0.078350 4.660504 0.728852
v -0.007782 4.550861 0.498233
v -0.007782 4.550861 0.498233
v -0.009817 4.748312 0.405119
v -0.009817 4.748312 0.405119
v 0.586082 0.473594 0.218787
v 0.586082 0.473594 0.218787
v 0.586082 0.473594 0.218787
v 0.586082 0.473594 0.218787
v 0.586082 0.473594 0.218787
v 0.586082 0.473594 0.218787
v 0.604775 0.484046 -0.064901
v 0.604775 0.484046 -0.064901
v 0.604775 0.484046 -0.064901
v 0.604775 0.484046 -0.064901
v 0.604775 0.484046 -0.064901
v 0.135778 0.484078 -0.064747
v 0.135778 0.484078 -0.064747
v 0.135778 0.484078 -0.064747
v 0.135778 0.484078 -0.064747
v 0.135778 0.484078 -0.064747
v 0.135778 0.484078 -0.064747
v 0.115954 0.473523 0.218863
v 0.115954 0.473523 0.218863
v 0.115954 0.473523 0.218863
v 0.115954 0.473523 0.218863
v 0.115954 0.473523 0.218863
v 0.115954 0.473523 0.218863
v -0.089250 0.473820 0.219885
v -0.089250 0.473820 0.219885
v -0.089250 0.473820 0.219885
v -0.089250 0.473820 0.219885
v -0.089250 0.473820 0.219885
v -0.089250 0.473820 0.219885
v -0.109074 0.483884 -0.063442
v -0.109074 0.483884 -0.063442
v -0.109074 0.483884 -0.063442
v -0.109074 0.483884 -0.063442
v -0.109074 0.483884 -0.063442
v -0.109074 0.483884 -0.063442
v -0.578071 0.483878 -0.063466
v -0.578071 0.483878 -0.063466
v -0.578071 0.483878 -0.063466
v -0.578071 0.483878 -0.063466
v -0.578071 0.483878 -0.063466
v -0.559377 0.473799 0.219907
v -0.559377 0.473799 0.219907
v -0.559377 0.473799 0.219907
v -0.559377 0.473799 0.219907
v -0.559377 0.473799 0.219907
v -0.559377 0.473799 0.219907
v -0.559377 0.473799 0.219907
v -0.323907 5.818807 0.994752
v -0.323907 5.818807 0.994752
v -0.323907 5.818807 0.994752
v -0.323907 5.818807 0.994752
v -0.420893 5.885197 0.813150
v -0.420893 5.885197 0.813150
v -0.420893 5.885197 0.813150
v -0.420893 5.885197 0.813150
v -0.200776 5.819988 0.672008
v -0.200776 5.819988 0.672008
v -0.200776 5.819988 0.672008
v -0.200776 5.819988 0.672008
v -0.103367 5.755302 0.853611
v -0.103367 5.755302 0.853611
v -0.103367 5.755302 0.853611
v -0.103367 5.755302 0.853611
v -0.401834 4.922719 0.783525
v -0.401834 4.922719 0.783525
v -0.401834 4.922719 0.783525
v -0.401834 4.922719 0.783525
v -0.399799 4.725269 0.876639
v -0.399799 4.725269 0.876639
v -0.399799 4.725269 0.876639
v -0.399799 4.725269 0.876639
v -0.485931 4.615626 0.646021
v -0.485931 4.615626 0.646021
v -0.485931 4.615626 0.646021
v -0.485931 4.615626 0.646021
v -0.487966 4.813076 0.552907
v -0.487966 4.813076 0.552907
v -0.487966 4.813076 0.552907
v -0.487966 4.813076 0.552907
v 0.560292 -0.005591 0.207635
v 0.560292 -0.005591 0.207635
v 0.560292 -0.005591 0.207635
v 0.560292 -0.005591 0.207635
v 0.560292 -0.003066 -0.076509
v 0.560292 -0.003066 -0.076509
v 0.560292 -0.003066 -0.076509
v 0.560292 -0.003066 -0.076509
v 0.560292 -0.003066 -0.076509
v 0.135228 -0.003059 -0.076534
v 0.135228 -0.003059 -0.076534
v 0.135228 -0.003059 -0.076534
v 0.135228 -0.003059 -0.076534
v 0.135228 -0.005607 0.207617
v 0.135228 -0.005607 0.207617
v 0.135228 -0.005607 0.207617
v 0.135228 -0.005607 0.207617
v 0.135228 -0.005607 0.207617
v -0.108523 -0.005188 0.209726
v -0.108523 -0.005188 0.209726
v -0.108523 -0.005188 0.209726
v -0.108523 -0.005188 0.209726
v -0.108523 -0.005188 0.209726
v -0.114879 -0.003368 -0.074442
v -0.114879 -0.003368 -0.074442
v -0.114879 -0.003368 -0.074442
v -0.114879 -0.003368 -0.074442
v -0.553457 -0.003357 -0.074484
v -0.553457 -0.003357 -0.074484
v -0.553457 -0.003357 -0.074484
v -0.553457 -0.003357 -0.074484
v -0.553457 -0.003357 -0.074484
v -0.553457 -0.005218 0.209693
v -0.553457 -0.005218 0.209693
v -0.553457 -0.005218 0.209693
v -0.553457 -0.005218 0.209693
v 0.123832 5.647058 -0.097312
v 0.123832 5.647058 -0.097312
v 0.123832 5.647058 -0.097312
v 0.175477 5.552172 0.165347
v 0.175477 5.552172 0.165347
v 0.175477 5.552172 0.165347
v -0.001054 5.649212 -0.180919
v -0.001054 5.649212 -0.180919
v -0.001054 5.564376 0.222436
v -0.001054 5.564376 0.222436
v -0.148285 5.634427 -0.134344
v -0.148285 5.634427 -0.134344
v -0.148285 5.634427 -0.134344
v -0.146712 5.563862 0.132200
v -0.146712 5.563862 0.132200
v -0.146712 5.563862 0.132200
v 0.423328 1.929642 -0.021602
v 0.423328 1.929642 -0.021602
v 0.423328 1.929642 -0.021602
v 0.423328 1.929642 -0.021602
v 0.423328 1.929642 -0.021602
v 0.243829 1.929456 -0.021762
v 0.243829 1.929456 -0.021762
v 0.243829 1.929456 -0.021762
v 0.243829 1.929456 -0.021762
v 0.243829 1.929456 -0.021762
v 0.395279 1.934523 0.331584
v 0.395279 1.934523 0.331584
v 0.395279 1.934523 0.331584
v 0.395279 1.934523 0.331584
v 0.227272 1.934500 0.331601
v 0.227272 1.934500 0.331601
v 0.227272 1.934500 0.331601
v 0.227272 1.934500 0.331601
v 0.227272 1.934500 0.331601
v 0.127256 1.930831 0.066673
v 0.127256 1.930831 0.066673
v 0.127256 1.930831 0.066673
v 0.127256 1.930831 0.066673
v 0.127256 1.930831 0.066673
v 0.127256 1.930831 0.066673
v 0.109684 1.933213 0.243388
v 0.109684 1.933213 0.243388
v 0.109684 1.933213 0.243388
v 0.109684 1.933213 0.243388
v 0.109684 1.933213 0.243388
v 0.109684 1.933213 0.243388
v 0.528576 1.933129 0.243507
v 0.528576 1.933129 0.243507
v 0.528576 1.933129 0.243507
v 0.528576 1.933129 0.243507
v 0.528576 1.933129 0.243507
v 0.528576 1.933129 0.243507
v 0.528576 1.930930 0.066855
v 0.528576 1.930930 0.066855
v 0.528576 1.930930 0.066855
v 0.528576 1.930930 0.066855
v 0.528576 1.930930 0.066855
v 0.528576 1.930930 0.066855
v -0.254565 1.929386 -0.021823
v -0.254565 1.929386 -0.021823
v -0.254565 1.929386 -0.021823
v -0.254565 1.929386 -0.021823
v -0.254565 1.929386 -0.021823
v -0.425199 1.929619 -0.021623
v -0.425199 1.929619 -0.021623
v -0.425199 1.929619 -0.021623
v -0.425199 1.929619 -0.021623
v -0.425199 1.929619 -0.021623
v -0.238008 1.934573 0.331547
v -0.238008 1.934573 0.331547
v -0.238008 1.934573 0.331547
v -0.238008 1.934573 0.331547
v -0.430151 1.934396 0.331681
v -0.430151 1.934396 0.331681
v -0.430151 1.934396 0.331681
v -0.430151 1.934396 0.331681
v -0.430151 1.934396 0.331681
v -0.539312 1.930952 0.066894
v -0.539312 1.930952 0.066894
v -0.539312 1.930952 0.066894
v -0.539312 1.930952 0.066894
v -0.539312 1.930952 0.066894
v -0.539312 1.930952 0.066894
v -0.539312 1.933122 0.243520
v -0.539312 1.933122 0.243520
v -0.539312 1.933122 0.243520
v -0.539312 1.933122 0.243520
v -0.539312 1.933122 0.243520
v -0.120420 1.933273 0.243303
v -0.120420 1.933273 0.243303
v -0.120420 1.933273 0.243303
v -0.120420 1.933273 0.243303
v -0.120420 1.933273 0.243303
v -0.120420 1.933273 0.243303
v -0.120420 1.933273 0.243303
v -0.137992 1.930778 0.066575
v -0.137992 1.930778 0.066575
v -0.137992 1.930778 0.066575
v -0.137992 1.930778 0.066575
v -0.137992 1.930778 0.066575
v -0.137992 1.930778 0.066575
v 0.805644 4.506050 0.282902
v 0.805644 4.506050 0.282902
v 0.750165 4.495605 0.273579
v 0.750165 4.495605 0.273579
v 0.791438 4.725344 0.353531
v 0.791438 4.725344 0.353531
v 0.757421 4.704678 0.314105
v 0.757421 4.704678 0.314105
v 0.670037 4.496305 0.277973
v 0.670037 4.496305 0.277973
v 0.702530 4.646723 0.268330
v 0.702530 4.646723 0.268330
v 0.848795 4.727448 0.415776
v 0.848795 4.727448 0.415776
v 0.884011 4.545028 0.329352
v 0.884011 4.545028 0.329352
v -0.529779 4.998566 0.624638
v -0.529779 4.998566 0.624638
v -0.467522 4.994864 0.603526
v -0.467522 4.994864 0.603526
v -0.482080 4.835629 0.689175
v -0.482080 4.835629 0.689175
v -0.423745 4.829359 0.659658
v -0.423745 4.829359 0.659658
v -0.376447 4.961548 0.559201
v -0.376447 4.961548 0.559201
v -0.347652 4.829463 0.591687
v -0.347652 4.829463 0.591687
v -0.585555 4.855004 0.710166
v -0.585555 4.855004 0.710166
v -0.626909 4.978767 0.650811
v -0.626909 4.978767 0.650811
v 0.177008 -0.009850 1.005599
v 0.177008 -0.009850 1.005599
v 0.177008 -0.009850 1.005599
v 0.183616 0.160216 1.006630
v 0.183616 0.160216 1.006630
v 0.183616 0.160216 1.006630
v 0.183616 0.160216 1.006630
v 0.522919 -0.009850 1.005599
v 0.522919 -0.009850 1.005599
v 0.522919 -0.009850 1.005599
v 0.518421 0.160216 1.006630
v 0.518421 0.160216 1.006630
v 0.518421 0.160216 1.006630
v 0.518421 0.160216 1.006630
v -0.511292 -0.007284 1.007738
v -0.511292 -0.007284 1.007738
v -0.511292 -0.007284 1.007738
v -0.506794 0.162784 1.008316
v -0.506794 0.162784 1.008316
v -0.506794 0.162784 1.008316
v -0.506794 0.162784 1.008316
v -0.165381 -0.007284 1.007738
v -0.165381 -0.007284 1.007738
v -0.165381 -0.007284 1.007738
v -0.171990 0.162784 1.008316
v -0.171990 0.162784 1.008316
v -0.171990 0.162784 1.008316
v -0.171990 0.162784 1.008316
v 0.220029 1.743389 0.341931
v 0.220029 1.743389 0.341931
v 0.220029 1.743389 0.341931
v 0.220029 1.743389 0.341931
v 0.411068 1.743297 0.341912
v 0.411068 1.743297 0.341912
v 0.411068 1.743297 0.341912
v 0.411068 1.743297 0.341912
v 0.429118 1.756586 -0.038012
v 0.429118 1.756586 -0.038012
v 0.429118 1.756586 -0.038012
v 0.429118 1.756586 -0.038012
v 0.538101 1.753224 0.056980
v 0.538101 1.753224 0.056980
v 0.538101 1.753224 0.056980
v 0.538101 1.753224 0.056980
v 0.538101 1.753224 0.056980
v 0.538101 1.753224 0.056980
v 0.535764 1.746644 0.246946
v 0.535764 1.746644 0.246946
v 0.535764 1.746644 0.246946
v 0.535764 1.746644 0.246946
v 0.535764 1.746644 0.246946
v 0.535764 1.746644 0.246946
v 0.110468 1.746696 0.246967
v 0.110468 1.746696 0.246967
v 0.110468 1.746696 0.246967
v 0.110468 1.746696 0.246967
v 0.110468 1.746696 0.246967
v 0.110468 1.746696 0.246967
v 0.128321 1.753213 0.056985
v 0.128321 1.753213 0.056985
v 0.128321 1.753213 0.056985
v 0.128321 1.753213 0.056985
v 0.128321 1.753213 0.056985
v 0.128321 1.753213 0.056985
v 0.242643 1.756591 -0.038013
v 0.242643 1.756591 -0.038013
v 0.242643 1.756591 -0.038013
v 0.242643 1.756591 -0.038013
v -0.503428 5.020536 0.506693
v -0.503428 5.020536 0.506693
v -0.403206 4.997553 0.479551
v -0.403206 4.997553 0.479551
v -0.310575 4.931996 0.635079
v -0.310575 4.931996 0.635079
v -0.539982 4.962226 0.772258
v -0.539982 4.962226 0.772258
v -0.633351 5.028137 0.614681
v -0.633351 5.028137 0.614681
v -0.559842 5.028067 0.540326
v -0.559842 5.028067 0.540326
v -0.436917 4.947392 0.747702
v -0.436917 4.947392 0.747702
v -0.380557 4.940223 0.713727
v -0.380557 4.940223 0.713727
v 0.228472 2.092666 -0.041069
v 0.228472 2.092666 -0.041069
v 0.228472 2.092666 -0.041069
v 0.228472 2.092666 -0.041069
v 0.539150 2.095136 0.053946
v 0.539150 2.095136 0.053946
v 0.539150 2.100075 0.243977
v 0.539150 2.100075 0.243977
v 0.539150 2.100075 0.243977
v 0.539150 2.100075 0.243977
v 0.096893 2.100075 0.243977
v 0.096893 2.100075 0.243977
v 0.096893 2.100075 0.243977
v 0.096893 2.100075 0.243977
v 0.096893 2.100075 0.243977
v 0.096893 2.100075 0.243977
v 0.114465 2.095136 0.053946
v 0.114465 2.095136 0.053946
v 0.114465 2.095136 0.053946
v 0.114465 2.095136 0.053946
v 0.114465 2.095136 0.053946
v 0.114465 2.095136 0.053946
v 0.223640 2.102545 0.338992
v 0.223640 2.102545 0.338992
v 0.223640 2.102545 0.338992
v 0.223640 2.102545 0.338992
v 0.404787 2.102545 0.338992
v 0.404787 2.102545 0.338992
v 0.404787 2.102545 0.338992
v 0.404787 2.102545 0.338992
v 0.430159 2.092666 -0.041069
v 0.430159 2.092666 -0.041069
v 0.430159 2.092666 -0.041069
v 0.430159 2.092666 -0.041069
v -0.532243 5.052185 0.580892
v -0.532243 5.052185 0.580892
v -0.562706 4.799009 0.499673
v -0.562706 4.799009 0.499673
v -0.500031 4.795806 0.479330
v -0.500031 4.795806 0.479330
v -0.468257 5.050320 0.563093
v -0.468257 5.050320 0.563093
v -0.377003 5.012958 0.521476
v -0.377003 5.012958 0.521476
v -0.400330 4.817149 0.458748
v -0.400330 4.817149 0.458748
v -0.655554 4.830324 0.540665
v -0.655554 4.830324 0.540665
v -0.635249 5.023569 0.597241
v -0.635249 5.023569 0.597241
v 0.800639 4.587631 0.184326
v 0.800639 4.587631 0.184326
v 0.814604 4.751921 0.394799
v 0.814604 4.751921 0.394799
v 0.753608 4.743753 0.394732
v 0.753608 4.743753 0.394732
v 0.734633 4.582292 0.189387
v 0.734633 4.582292 0.189387
v 0.640509 4.587008 0.224847
v 0.640509 4.587008 0.224847
v 0.659405 4.711664 0.373315
v 0.659405 4.711664 0.373315
v 0.906973 4.745028 0.374796
v 0.906973 4.745028 0.374796
v 0.901841 4.612666 0.211969
v 0.901841 4.612666 0.211969
v -0.124093 2.095136 0.053946
v -0.124093 2.095136 0.053946
v -0.124093 2.095136 0.053946
v -0.124093 2.095136 0.053946
v -0.124093 2.095136 0.053946
v -0.124093 2.095136 0.053946
v -0.106521 2.100075 0.243977
v -0.106521 2.100075 0.243977
v -0.106521 2.100075 0.243977
v -0.106521 2.100075 0.243977
v -0.106521 2.100075 0.243977
v -0.106521 2.100075 0.243977
v -0.548778 2.100075 0.243977
v -0.548778 2.100075 0.243977
v -0.548778 2.100075 0.243977
v -0.548778 2.100075 0.243977
v -0.548778 2.095136 0.053946
v -0.548778 2.095136 0.053946
v -0.432030 2.092666 -0.041069
v -0.432030 2.092666 -0.041069
v -0.432030 2.092666 -0.041069
v -0.432030 2.092666 -0.041069
v -0.435533 2.102545 0.338992
v -0.435533 2.102545 0.338992
v -0.435533 2.102545 0.338992
v -0.435533 2.102545 0.338992
v -0.233268 2.102545 0.338992
v -0.233268 2.102545 0.338992
v -0.233268 2.102545 0.338992
v -0.233268 2.102545 0.338992
v -0.238100 2.092666 -0.041069
v -0.238100 2.092666 -0.041069
v -0.238100 2.092666 -0.041069
v -0.238100 2.092666 -0.041069
v 0.676172 4.472751 0.391982
v 0.676172 4.472751 0.391982
v 0.638532 4.461155 0.302510
v 0.638532 4.461155 0.302510
v 0.636254 4.655395 0.224080
v 0.636254 4.655395 0.224080
v 0.734791 4.758498 0.440013
v 0.734791 4.758498 0.440013
v 0.742709 4.562113 0.508201
v 0.742709 4.562113 0.508201
v 0.701270 4.497826 0.443228
v 0.701270 4.497826 0.443228
v 0.695249 4.749514 0.345862
v 0.695249 4.749514 0.345862
v 0.671404 4.724162 0.291472
v 0.671404 4.724162 0.291472
v -0.440128 1.743608 0.341983
v -0.440128 1.743608 0.341983
v -0.440128 1.743608 0.341983
v -0.440128 1.743608 0.341983
v -0.227970 1.743490 0.341958
v -0.227970 1.743490 0.341958
v -0.227970 1.743490 0.341958
v -0.227970 1.743490 0.341958
v -0.250915 1.756482 -0.037996
v -0.250915 1.756482 -0.037996
v -0.250915 1.756482 -0.037996
v -0.250915 1.756482 -0.037996
v -0.134378 1.753172 0.056999
v -0.134378 1.753172 0.056999
v -0.134378 1.753172 0.056999
v -0.134378 1.753172 0.056999
v -0.134378 1.753172 0.056999
v -0.134378 1.753172 0.056999
v -0.116524 1.746743 0.246989
v -0.116524 1.746743 0.246989
v -0.116524 1.746743 0.246989
v -0.116524 1.746743 0.246989
v -0.541820 1.746796 0.247011
v -0.541820 1.746796 0.247011
v -0.541820 1.746796 0.247011
v -0.541820 1.746796 0.247011
v -0.544157 1.753104 0.057029
v -0.544157 1.753104 0.057029
v -0.544157 1.753104 0.057029
v -0.544157 1.753104 0.057029
v -0.544157 1.753104 0.057029
v -0.544157 1.753104 0.057029
v -0.428525 1.756389 -0.037976
v -0.428525 1.756389 -0.037976
v -0.428525 1.756389 -0.037976
v -0.428525 1.756389 -0.037976
vn 0.1681 0.9742 -0.1508
vn -0.1713 0.9741 -0.1476
vn 0.1681 0.9670 0.1916
vn -0.1713 0.9670 0.1884
vn 0.4896 0.7592 -0.4288
vn 0.1678 0.8475 -0.5036
vn -0.1677 0.8474 -0.5037
vn -0.4446 0.7602 -0.4738
vn -0.5213 0.8401 -0.1502
vn -0.5213 0.8330 0.1854
vn -0.4446 0.7396 0.5053
vn -0.1677 0.8255 0.5389
vn 0.1678 0.8256 0.5387
vn 0.4896 0.7405 0.4603
vn 0.5214 0.8330 0.1853
vn 0.5214 0.8400 -0.1501
vn 0.3548 0.6619 0.6603
vn 0.3591 0.1971 0.9123
vn -0.3548 0.6619 0.6603
vn -0.3591 0.1971 0.9123
vn 0.6002 -0.5346 0.5949
vn 0.4522 0.3881 0.8031
vn 0.5264 0.0794 0.8465
vn 0.4896 0.4288 0.7592
vn 0.1678 0.5036 0.8475
vn -0.1678 0.5036 0.8475
vn -0.4896 0.4288 0.7592
vn -0.5264 0.0794 0.8465
vn -0.4522 0.3880 0.8031
vn -0.6002 -0.5346 0.5949
vn -0.1712 -0.6390 0.7499
vn 0.1712 -0.6390 0.7499
vn -0.9785 -0.1718 0.1142
vn -0.9911 0.0484 0.1240
vn -0.9853 -0.1705 -0.0059
vn -0.9862 0.1654 -0.0043
vn -0.7995 -0.5057 0.3242
vn -0.9393 -0.1525 0.3075
vn -0.8640 0.0859 0.4961
vn -0.7501 0.4342 0.4989
vn -0.8367 0.5176 0.1788
vn -0.8367 0.5247 -0.1569
vn -0.7501 0.4548 -0.4802
vn -0.8367 0.1786 -0.5178
vn -0.8367 -0.1569 -0.5247
vn -0.7501 -0.4802 -0.4548
vn -0.8486 -0.5285 -0.0238
vn -0.8438 -0.5280 0.0962
vn -0.1681 -0.9670 -0.1916
vn 0.1713 -0.9670 -0.1884
vn -0.1702 -0.9818 -0.0842
vn 0.1617 -0.9839 -0.0755
vn -0.4896 -0.7405 -0.4603
vn -0.1678 -0.8256 -0.5387
vn 0.1677 -0.8255 -0.5389
vn 0.4446 -0.7396 -0.5053
vn 0.6059 -0.7751 -0.1790
vn 0.7200 -0.6935 -0.0272
vn 0.6708 -0.6188 0.4088
vn 0.1677 -0.8474 0.5037
vn -0.1678 -0.8475 0.5036
vn -0.6321 -0.6896 0.3535
vn -0.6091 -0.7853 0.1107
vn -0.5220 -0.8481 -0.0904
vn 0.9853 -0.1705 -0.0059
vn 0.9862 0.1654 -0.0043
vn 0.9785 -0.1718 0.1142
vn 0.9911 0.0484 0.1240
vn 0.7501 -0.4802 -0.4548
vn 0.8367 -0.1569 -0.5247
vn 0.8367 0.1786 -0.5178
vn 0.7501 0.4548 -0.4802
vn 0.8367 0.5247 -0.1569
vn 0.8367 0.5176 0.1788
vn 0.7501 0.4342 0.4989
vn 0.8640 0.0859 0.4961
vn 0.9393 -0.1525 0.3075
vn 0.7995 -0.5057 0.3242
vn 0.8438 -0.5280 0.0962
vn 0.8486 -0.5285 -0.0238
vn -0.1713 -0.1476 -0.9741
vn -0.1681 0.1916 -0.9670
vn 0.1713 -0.1476 -0.9741
vn 0.1681 0.1916 -0.9670
vn -0.4446 -0.4738 -0.7602
vn -0.5213 -0.1502 -0.8401
vn -0.5214 0.1853 -0.8330
vn -0.4896 0.4603 -0.7405
vn -0.1678 0.5387 -0.8256
vn 0.1678 0.5387 -0.8256
vn 0.4896 0.4603 -0.7405
vn 0.5214 0.1853 -0.8330
vn 0.5213 -0.1502 -0.8401
vn 0.4446 -0.4738 -0.7602
vn 0.1677 -0.5037 -0.8474
vn -0.1677 -0.5037 -0.8474
vn 0.1713 0.9741 -0.1476
vn -0.1681 0.9742 -0.1508
vn 0.1713 0.9670 0.1884
vn -0.1681 0.9670 0.1916
vn 0.4446 0.7602 -0.4738
vn 0.1677 0.8474 -0.5037
vn -0.1678 0.8475 -0.5036
vn -0.4896 0.7592 -0.4288
vn -0.5214 0.8400 -0.1501
vn -0.5214 0.8330 0.1853
vn -0.4896 0.7405 0.4603
vn -0.1678 0.8256 0.5387
vn 0.1677 0.8255 0.5389
vn 0.4446 0.7396 0.5053
vn 0.5213 0.8330 0.1854
vn 0.5213 0.8401 -0.1502
vn 0.3286 0.4313 0.8402
vn 0.1693 0.0813 0.9822
vn -0.3286 0.4313 0.8402
vn -0.1693 0.0813 0.9822
vn 0.4142 -0.7008 0.5809
vn 0.4582 0.4837 0.7457
vn 0.5223 0.0822 0.8488
vn 0.4446 0.4738 0.7602
vn 0.1677 0.5037 0.8474
vn -0.1677 0.5037 0.8474
vn -0.4446 0.4738 0.7602
vn -0.5223 0.0822 0.8488
vn -0.4583 0.4837 0.7457
vn -0.4142 -0.7008 0.5809
vn -0.3944 -0.7175 0.5741
vn 0.3944 -0.7175 0.5741
vn -0.9787 -0.1684 0.1179
vn -0.9862 0.0043 0.1654
vn -0.9862 -0.1650 -0.0113
vn -0.9862 0.0113 -0.1650
vn -0.7915 -0.5471 0.2725
vn -0.9334 -0.1756 0.3129
vn -0.8504 0.0551 0.5232
vn -0.7501 0.4802 0.4548
vn -0.8367 0.5177 0.1786
vn -0.8367 0.5248 -0.1567
vn -0.7501 0.4989 -0.4342
vn -0.8367 0.1788 -0.5176
vn -0.8367 -0.1567 -0.5248
vn -0.7500 -0.4342 -0.4989
vn -0.8536 -0.5199 -0.0329
vn -0.8500 -0.5149 0.1111
vn -0.1713 -0.9670 -0.1884
vn 0.1681 -0.9670 -0.1916
vn -0.1617 -0.9839 -0.0755
vn 0.1703 -0.9818 -0.0842
vn -0.4446 -0.7396 -0.5053
vn -0.1677 -0.8255 -0.5389
vn 0.1678 -0.8256 -0.5387
vn 0.4896 -0.7405 -0.4603
vn 0.5220 -0.8481 -0.0904
vn 0.6091 -0.7853 0.1107
vn 0.6321 -0.6896 0.3535
vn 0.1678 -0.8475 0.5036
vn -0.1677 -0.8474 0.5037
vn -0.6708 -0.6188 0.4088
vn -0.7200 -0.6935 -0.0272
vn -0.6059 -0.7751 -0.1790
vn 0.9862 -0.1650 -0.0113
vn 0.9862 0.0113 -0.1650
vn 0.9787 -0.1684 0.1179
vn 0.9862 0.0043 0.1654
vn 0.7501 -0.4342 -0.4989
vn 0.8367 -0.1567 -0.5248
vn 0.8367 0.1788 -0.5176
vn 0.7501 0.4989 -0.4342
vn 0.8367 0.5248 -0.1567
vn 0.8367 0.5177 0.1786
vn 0.7501 0.4802 0.4548
vn 0.8504 0.0551 0.5232
vn 0.9334 -0.1756 0.3129
vn 0.7915 -0.5471 0.2725
vn 0.8500 -0.5149 0.1111
vn 0.8536 -0.5199 -0.0329
vn -0.1681 -0.1508 -0.9742
vn -0.1713 0.1884 -0.9670
vn 0.1681 -0.1508 -0.9742
vn 0.1713 0.1884 -0.9670
vn -0.4896 -0.4288 -0.7592
vn -0.5214 -0.1501 -0.8400
vn -0.5213 0.1854 -0.8330
vn -0.4446 0.5053 -0.7396
vn -0.1677 0.5388 -0.8255
vn 0.1677 0.5388 -0.8255
vn 0.4446 0.5053 -0.7396
vn 0.5213 0.1854 -0.8330
vn 0.5214 -0.1501 -0.8400
vn 0.4896 -0.4288 -0.7592
vn 0.1678 -0.5036 -0.8475
vn -0.1678 -0.5036 -0.8475
vn 0.3957 -0.0454 -0.9173
vn -0.8491 -0.0865 0.5211
vn -0.4851 0.2084 -0.8493
vn -0.2343 0.8133 0.5325
vn 0.2516 0.2862 0.9245
vn 0.1833 0.7729 0.6075
vn -0.1893 0.6657 0.7219
vn 0.3550 0.9245 0.1388
vn -0.0432 -0.9985 -0.0322
vn -0.9961 -0.0651 -0.0591
vn 0.7992 -0.0180 0.6008
vn 0.0026 -0.0299 0.9995
vn -0.2233 -0.0287 0.9743
vn -0.3105 0.0598 -0.9487
vn 0.0480 0.0588 -0.9971
vn -0.0551 0.0263 -0.9981
vn 0.1172 -0.1498 -0.9817
vn 0.0689 0.3434 -0.9366
vn 0.0007 -0.3251 -0.9457
vn -0.1175 -0.1498 -0.9817
vn -0.0699 0.3074 -0.9490
vn 0.0185 -0.3251 -0.9455
vn -0.0000 -0.1455 -0.9894
vn -0.0748 0.1536 -0.9853
vn 0.0286 -0.3282 -0.9442
vn -0.0326 -0.1218 0.9920
vn -0.0472 0.2982 0.9533
vn 0.0002 -0.2061 0.9785
vn 0.0326 -0.1218 0.9920
vn 0.0472 0.2982 0.9533
vn -0.0002 -0.2061 0.9785
vn -0.0000 -0.1134 0.9936
vn 0.0623 0.2984 0.9524
vn -0.0002 -0.2044 0.9789
vn -0.0623 0.2984 0.9524
vn -0.0123 -0.0774 0.9969
vn 0.7070 0.0561 0.7050
vn 0.8612 0.1032 0.4977
vn 0.9180 -0.0759 0.3894
vn 0.0713 0.3055 -0.9495
vn 0.0012 -0.3187 -0.9478
vn -0.7238 -0.0493 -0.6882
vn -0.8083 0.2473 -0.5344
vn -0.8323 -0.2786 -0.4792
vn -0.4743 0.2388 -0.8474
vn -0.0000 -0.0548 0.9985
vn 0.0097 -0.9045 0.4264
vn -0.6114 0.0604 -0.7890
vn 0.7215 -0.1033 -0.6846
vn -0.6474 0.4090 -0.6431
vn 0.2665 -0.7282 0.6315
vn 0.6435 -0.4452 0.6227
vn -0.9475 0.1283 0.2929
vn 0.1536 -0.9134 0.3769
vn 0.1032 -0.7442 0.6599
vn 0.1352 0.8743 -0.4662
vn -0.1032 0.7442 -0.6599
vn 0.0002 -1.0000 -0.0068
vn -0.0002 0.0241 -0.9997
vn 0.7223 -0.0495 -0.6898
vn -0.9352 -0.0459 0.3511
vn 0.0001 -1.0000 -0.0019
vn -0.0000 0.0229 -0.9997
vn 0.7734 0.0051 -0.6339
vn -0.9441 -0.0187 0.3291
vn -0.0000 -1.0000 -0.0061
vn -0.9994 -0.0030 0.0343
vn 0.0002 -1.0000 -0.0044
vn 1.0000 -0.0083 0.0039
vn -0.0001 0.8984 0.4392
vn -0.0002 0.9088 0.4172
vn -0.9898 -0.1308 -0.0556
vn -0.0009 -1.0000 -0.0017
vn 0.9994 -0.0029 0.0343
vn -0.0000 0.8997 0.4365
vn -0.7462 -0.0227 -0.6653
vn 0.9967 -0.0386 -0.0711
vn 0.8998 -0.0454 0.4339
vn 0.0001 -1.0000 -0.0064
vn -0.0000 -1.0000 -0.0080
vn -1.0000 0.0011 -0.0000
vn -0.8217 0.0147 -0.5698
vn 0.9986 -0.0537 -0.0005
vn 0.9093 -0.0585 0.4121
vn -0.0000 -1.0000 -0.0089
vn -0.0000 -0.9999 -0.0103
vn -0.3196 -0.4069 -0.8558
vn -0.0853 -0.9842 0.1552
vn 0.3196 0.4069 0.8558
vn 0.0853 0.9842 -0.1552
vn 0.8225 -0.2263 -0.5218
vn -0.2018 0.2911 -0.9352
vn -0.8761 0.0356 0.4809
vn 0.2103 -0.4056 0.8895
vn 0.9991 0.0392 0.0136
vn -0.9583 0.2075 0.1962
vn 0.9290 -0.1092 -0.3537
vn -0.0000 -0.1066 -0.9943
vn -0.0000 0.1309 -0.9914
vn -0.0002 0.1320 -0.9912
vn -0.9872 -0.1158 -0.1095
vn -0.9961 -0.0724 0.0494
vn -0.9863 0.1396 -0.0877
vn -0.8430 0.1187 0.5247
vn -0.9918 0.1276 -0.0033
vn -0.7072 0.0473 0.7055
vn 0.9600 -0.1997 -0.1963
vn 0.9300 -0.2178 -0.2959
vn 0.9945 0.1051 -0.0027
vn 0.8454 0.2154 -0.4887
vn 0.9902 0.1397 -0.0036
vn 0.7240 -0.0405 -0.6886
vn -0.9669 -0.2552 0.0066
vn -0.9797 -0.1099 0.1679
vn 0.9674 -0.2530 0.0066
vn -0.0201 -0.9990 0.0396
vn 0.3586 0.9221 0.1455
vn 0.3856 0.9042 0.1837
vn -0.9297 0.3548 0.0994
vn -0.0751 0.9506 -0.3012
vn 0.3064 -0.0200 0.9517
vn -0.0163 0.9676 -0.2520
vn 0.2428 0.8218 -0.5155
vn 0.2717 -0.1398 -0.9522
vn -0.1082 0.9940 -0.0174
vn -0.0811 0.9819 -0.1710
vn -0.9966 -0.0518 0.0639
vn -0.2949 0.1525 0.9433
vn 0.9429 0.3261 -0.0676
vn 0.2722 0.2036 -0.9405
vn -0.3034 0.0200 -0.9527
vn 0.5765 -0.0388 0.8162
vn 0.9993 0.0385 -0.0005
vn -0.6378 -0.1087 -0.7625
vn -0.9956 -0.0009 -0.0936
vn -0.5985 -0.0487 0.7996
vn -0.0000 -0.0440 0.9990
vn 0.6551 -0.1010 -0.7488
vn -0.0000 -0.1175 -0.9931
vn 0.5983 -0.0531 0.7995
vn 0.9949 0.0188 -0.0992
vn -0.6295 -0.0971 -0.7709
vn -0.9996 0.0265 0.0132
vn -0.6411 -0.0538 0.7655
vn -0.0000 -0.0434 0.9991
vn 0.6376 -0.1125 -0.7621
vn -0.0000 -0.1171 -0.9931
vn 0.0493 -0.8521 0.5211
vn 0.2805 0.3249 0.9032
vn -0.2841 -0.6937 -0.6619
vn -0.2875 -0.3615 -0.8869
vn 0.1486 -0.8125 0.5637
vn 0.1189 -0.8913 0.4376
vn 0.3263 -0.8396 -0.4342
vn 0.0134 -0.7700 -0.6379
vn -0.1999 -0.9427 0.2672
vn -0.8485 0.0559 0.5262
vn 0.5208 0.5074 0.6865
vn 0.1049 -0.8925 -0.4387
vn 0.2107 -0.9775 0.0071
vn 0.0080 -0.9837 0.1796
vn -0.1068 0.7545 0.6476
vn 0.2266 0.6220 0.7495
vn -0.0000 -0.0061 1.0000
vn -0.0000 -0.0034 1.0000
vn 0.9992 0.0388 0.0001
vn -0.9998 0.0159 0.0073
vn 0.9997 0.0264 0.0002
vn -0.0003 0.9099 0.4149
vn -0.9997 0.0234 0.0107
vn -0.0000 -1.0000 -0.0034
vn 0.9920 -0.0894 -0.0894
vn 0.6310 0.0857 -0.7711
vn 0.0001 0.0152 0.9999
vn -0.6826 -0.0061 0.7307
vn 0.9954 0.0233 -0.0928
vn 0.6486 -0.0023 0.7611
vn -0.7439 0.2187 -0.6315
vn 0.4729 -0.2890 0.8324
vn 0.7157 -0.3060 0.6278
vn -0.2085 0.2505 -0.9454
vn 0.2244 -0.2470 0.9427
vn 0.5707 0.1585 -0.8057
vn -0.9983 -0.0575 0.0007
vn -0.9916 -0.0847 -0.0975
vn 0.0846 -0.4889 0.8682
vn -0.3846 -0.9176 -0.1006
vn 0.5825 -0.4863 0.6513
vn 0.3419 -0.5162 0.7853
vn -0.0935 -0.5959 -0.7976
vn -0.1507 -0.9486 -0.2782
vn -0.6547 0.0061 0.7559
vn 0.6409 0.0768 -0.7637
vn -0.7215 -0.1033 -0.6846
vn -0.9984 -0.0571 0.0015
vn -0.9831 -0.1824 -0.0126
vn -0.0479 0.9183 0.3931
vn 0.0001 0.0540 0.9985
vn -0.6001 0.0128 0.7998
vn -0.6036 0.0398 -0.7963
vn 0.5497 0.0902 0.8305
vn -0.8252 -0.1009 -0.5558
vn 0.5948 -0.0615 0.8015
vn -0.9120 -0.1160 0.3935
vn 0.8824 0.2845 0.3747
vn 0.9704 0.0674 -0.2320
vn -0.9761 -0.0903 0.1976
vn -0.6653 -0.7145 -0.2167
vn 0.4039 0.8754 0.2657
vn -0.9896 -0.0504 0.1350
vn -0.5950 -0.0576 0.8017
vn 0.9328 0.3085 0.1860
vn 0.0345 -0.5759 -0.8168
vn 0.6065 -0.2417 0.7574
vn -0.6808 0.1924 0.7068
vn 0.4117 -0.4722 -0.7795
vn -0.9679 0.0313 0.2493
vn -0.9968 0.0661 0.0440
vn 0.1781 -0.5571 -0.8111
vn -0.5226 0.3883 0.7590
vn 0.9980 -0.0638 0.0017
vn 0.5747 -0.0777 0.8147
vn 0.0008 0.0936 -0.9956
vn -0.7052 -0.0617 0.7063
vn 0.8248 -0.1063 -0.5554
vn 0.1083 -0.7449 0.6583
vn 0.0061 0.9022 -0.4312
vn -0.0803 0.7409 -0.6668
vn -0.0881 -0.9838 0.1561
vn 0.0986 0.9826 -0.1571
vn 0.1065 0.9843 -0.1409
vn 0.0977 0.9824 -0.1590
vn -0.3160 -0.4073 -0.8569
vn -0.9953 -0.0760 -0.0596
vn 0.2548 0.9296 -0.2662
vn -0.0196 -0.9793 -0.2013
vn 0.5620 0.1148 -0.8192
vn 0.3262 0.6919 -0.6441
vn 0.2739 -0.9126 0.3036
vn 0.1744 -0.9827 0.0631
vn 0.3162 0.4073 0.8568
vn 0.9980 -0.0632 0.0008
vn 0.9926 -0.0823 -0.0896
vn 0.5991 0.0749 0.7972
vn -0.9976 0.0203 0.0665
vn -0.7449 0.1008 -0.6595
vn -0.0010 0.0940 -0.9956
vn 0.6029 0.0552 -0.7959
vn 0.0006 0.0539 0.9985
vn -0.6271 0.0747 0.7754
vn 0.6552 0.1062 -0.7479
vn 0.0001 0.0145 0.9999
vn -0.6552 -0.0195 0.7552
vn -0.8202 0.0808 -0.5663
vn 0.6036 0.0639 0.7948
vn -0.9976 0.0008 -0.0697
vn 0.0206 -0.4691 -0.8829
vn 0.0359 -0.9140 -0.4040
vn -0.4834 0.2086 -0.8502
vn -0.2669 0.1397 0.9535
vn 0.2419 0.7698 0.5907
vn 0.0010 0.6779 0.7351
vn 0.0679 0.7667 0.6384
vn 0.3556 0.9236 0.1434
vn 0.9963 -0.0633 -0.0574
vn 0.0432 -0.9986 -0.0321
vn 0.8014 -0.0322 0.5972
vn 0.0024 -0.0294 0.9996
vn -0.2274 -0.0103 0.9738
vn -0.1969 -0.1483 -0.9691
vn -0.0000 0.0264 -0.9997
vn -0.0569 0.0250 -0.9981
vn 0.0734 -0.1593 -0.9845
vn -0.0015 0.3797 -0.9251
vn 0.0149 -0.3205 -0.9471
vn -0.0734 -0.1593 -0.9845
vn 0.0804 0.3785 -0.9221
vn 0.0285 -0.3282 -0.9442
vn -0.0757 -0.1153 -0.9904
vn 0.4110 0.2587 -0.8742
vn -0.5341 -0.2523 -0.8069
vn -0.0486 -0.1165 0.9920
vn -0.0006 0.3235 0.9462
vn -0.2457 -0.1111 0.9630
vn 0.0486 -0.1165 0.9920
vn 0.0006 0.3235 0.9462
vn 0.0029 -0.2050 0.9788
vn 0.0643 -0.0885 0.9940
vn 0.0006 0.2674 0.9636
vn 0.7859 0.0168 0.6181
vn -0.0643 -0.0885 0.9940
vn -0.0050 0.2696 0.9629
vn -0.7860 0.0779 0.6133
vn 0.8647 0.0052 0.5023
vn 0.9144 0.1305 0.3831
vn 0.9640 -0.1582 0.2139
vn 0.0754 -0.1154 -0.9905
vn -0.0023 0.3420 -0.9397
vn 0.4772 -0.2029 -0.8551
vn -0.8362 -0.0646 -0.5446
vn -0.8556 0.2658 -0.4441
vn -0.6238 -0.1821 0.7601
vn -0.4736 0.2387 -0.8478
vn 0.0120 -0.9005 0.4347
vn -0.6340 0.0847 -0.7687
vn 0.6555 -0.0918 -0.7496
vn -0.8795 0.0468 0.4735
vn 0.2331 -0.6986 0.6764
vn 0.7316 -0.4143 -0.5414
vn 0.5004 0.3735 0.7811
vn 0.1351 0.8743 -0.4662
vn -0.1263 -0.4242 -0.8967
vn -0.0000 -1.0000 -0.0062
vn -0.0003 0.0241 -0.9997
vn 0.7872 -0.0182 -0.6164
vn -0.9707 -0.0076 0.2401
vn -0.0009 -1.0000 -0.0043
vn -0.0003 0.0230 -0.9997
vn 0.7550 -0.0048 -0.6557
vn -0.7946 -0.1176 0.5957
vn -0.9996 0.0233 0.0163
vn -0.0000 -1.0000 -0.0046
vn 0.9998 0.0160 -0.0128
vn -0.0002 0.8984 0.4392
vn -0.0000 0.9089 0.4171
vn -0.9876 0.0163 -0.1564
vn -0.0000 -1.0000 -0.0023
vn 0.9996 0.0234 0.0162
vn -0.0003 0.8996 0.4367
vn -0.7127 -0.0389 -0.7004
vn 0.9997 -0.0114 -0.0224
vn 0.9428 -0.0088 0.3332
vn -0.0000 -1.0000 -0.0065
vn 0.0002 -1.0000 -0.0085
vn -0.9967 -0.0384 -0.0711
vn -0.7424 -0.0276 -0.6694
vn 0.9938 -0.0922 0.0621
vn 0.9578 -0.0143 0.2869
vn -0.0000 -1.0000 -0.0090
vn 0.0002 -0.9999 -0.0109
vn 0.5371 0.2198 -0.8144
vn 0.7244 -0.4160 -0.5497
vn -0.6881 0.1274 0.7143
vn -0.8690 -0.3644 0.3347
vn 0.9967 0.0459 0.0674
vn -0.9951 0.0480 0.0863
vn 0.9580 -0.0226 -0.2858
vn -0.0002 0.1309 -0.9914
vn -0.0000 0.1320 -0.9913
vn -0.8140 -0.0770 0.5757
vn -0.5161 -0.3617 -0.7764
vn -0.9806 0.1960 -0.0051
vn -0.9644 0.1930 0.1807
vn -0.8476 0.0012 0.5306
vn 0.9780 -0.2037 -0.0450
vn 0.6224 -0.0499 0.7811
vn 0.9964 0.0674 -0.0513
vn 0.9287 0.2152 -0.3022
vn 0.8675 -0.0585 -0.4941
vn -0.9961 -0.0649 -0.0600
vn 0.0201 -0.9990 0.0396
vn 0.9962 -0.0625 -0.0601
vn 0.9800 -0.1090 0.1664
vn 0.3603 0.9229 0.1355
vn -0.0000 0.9767 -0.2148
vn 0.2979 -0.0130 0.9545
vn 0.0343 0.9527 -0.3019
vn 0.0323 0.9420 0.3340
vn 0.3603 0.9275 0.0998
vn -0.0240 0.9664 0.2560
vn -0.3119 0.2245 -0.9232
vn -0.9999 -0.0124 -0.0001
vn -0.5265 -0.0179 0.8500
vn 0.5564 0.0175 -0.8307
vn -0.2550 0.0538 -0.9654
vn 0.5495 -0.0678 0.8327
vn 0.9985 0.0527 0.0141
vn -0.5987 -0.1494 -0.7869
vn -0.9951 -0.0061 -0.0989
vn -0.5991 -0.0481 0.7993
vn 0.0001 -0.0439 0.9990
vn 0.6398 -0.1175 -0.7595
vn 0.0010 -0.1186 -0.9929
vn 0.5990 -0.0523 0.7990
vn 0.9954 0.0253 -0.0927
vn -0.6094 -0.1190 -0.7839
vn -0.9999 0.0135 -0.0002
vn -0.6276 -0.0377 0.7776
vn 0.0007 -0.0443 0.9990
vn 0.5983 -0.1530 -0.7865
vn -0.0013 -0.1185 -0.9930
vn -0.1919 0.9708 0.1440
vn 0.7694 -0.1461 0.6218
vn -0.0514 -0.5171 -0.8544
vn 0.5321 -0.1681 -0.8298
vn 0.4870 -0.7767 0.3995
vn -0.2876 -0.7236 0.6275
vn 0.6075 -0.5965 -0.5245
vn 0.2434 -0.6530 -0.7172
vn -0.1411 -0.9697 0.1995
vn 0.6785 0.4894 0.5478
vn 0.5200 0.5090 0.6859
vn 0.7559 0.0037 -0.6547
vn 0.1197 -0.9839 0.1325
vn -0.0078 -0.9812 0.1929
vn 0.0788 0.6324 0.7706
vn 0.2948 0.5655 0.7703
vn 0.9997 0.0234 0.0107
vn -0.9997 0.0264 0.0001
vn 0.9998 0.0159 0.0073
vn -0.0000 0.9100 0.4146
vn -0.9992 0.0388 0.0002
vn 0.9948 -0.0826 -0.0594
vn 0.7713 0.0985 -0.6288
vn -0.0000 0.0152 0.9999
vn -0.9420 0.0567 0.3307
vn 0.9973 0.0264 -0.0688
vn 0.8981 0.0562 0.4363
vn -0.6951 0.2107 -0.6874
vn 0.4671 -0.2888 0.8357
vn 0.6940 -0.3099 0.6499
vn -0.1998 0.2481 -0.9479
vn 0.1910 -0.2461 0.9502
vn 0.8366 -0.0969 -0.5391
vn -0.9984 -0.0566 0.0015
vn -0.9931 -0.0758 -0.0899
vn 0.1220 -0.5357 0.8356
vn -0.2916 -0.9046 -0.3109
vn 0.6069 -0.5267 0.5952
vn 0.3809 -0.5451 0.7469
vn -0.2449 -0.9390 -0.2412
vn -0.2289 -0.9586 -0.1693
vn -0.8675 -0.0442 0.4955
vn 0.6558 0.0930 -0.7491
vn -0.6299 -0.0875 -0.7717
vn -0.9925 0.0763 0.0955
vn 0.1283 0.9222 0.3648
vn 0.0001 0.0539 0.9985
vn -0.6524 0.0655 0.7550
vn -0.6386 0.0764 -0.7658
vn 0.6048 0.0380 0.7955
vn -0.6357 -0.1405 -0.7591
vn 0.5979 -0.0610 0.7992
vn -0.9803 0.0469 0.1918
vn 0.9294 0.0075 -0.3690
vn -0.1571 0.8515 0.5003
vn -0.2020 -0.8489 -0.4885
vn 0.1034 -0.8971 -0.4295
vn 0.4622 0.8509 0.2497
vn -0.4664 -0.7310 -0.4981
vn -0.5981 -0.0570 0.7994
vn 0.9574 0.2086 -0.1997
vn -0.0149 -0.5849 -0.8110
vn 0.9886 -0.1305 0.0750
vn 0.3072 -0.7477 0.5887
vn 0.3416 -0.5070 -0.7914
vn -0.0753 0.5552 0.8283
vn -0.3569 0.5383 0.7634
vn -0.3081 -0.6004 -0.7380
vn 0.2151 0.5587 0.8010
vn 0.7055 -0.0553 0.7065
vn -0.0000 0.0944 -0.9955
vn -0.6414 -0.0478 0.7657
vn 0.6353 -0.1447 -0.7586
vn 0.1095 -0.7406 0.6630
vn 0.0088 0.9049 -0.4256
vn -0.0938 0.7209 -0.6867
vn -0.0868 -0.9827 0.1639
vn 0.1074 0.9844 -0.1390
vn -0.2994 -0.3603 -0.8835
vn -0.9925 -0.0828 -0.0896
vn 0.2216 0.9575 -0.1844
vn 0.6639 -0.7245 -0.1854
vn 0.3274 0.5707 -0.7531
vn 0.2486 0.8316 -0.4966
vn 0.5894 -0.7299 0.3463
vn 0.5154 -0.8420 0.1596
vn 0.3410 0.3206 0.8837
vn 0.9979 -0.0641 0.0017
vn 0.9911 -0.0913 -0.0973
vn 0.6478 0.0286 0.7612
vn -0.9998 0.0135 0.0127
vn -0.6338 0.0899 -0.7683
vn -0.0002 0.0931 -0.9957
vn 0.6310 0.0854 -0.7711
vn 0.0001 0.0544 0.9985
vn -0.6820 0.0229 0.7310
vn 0.7215 0.1140 -0.6829
vn -0.9344 0.0423 0.3537
vn -0.6388 0.0697 -0.7662
vn 0.9094 0.0268 0.4151
vn -0.9956 -0.0022 -0.0936
vt 0.687500 0.562500
vt 0.750000 0.625000
vt 0.687500 0.625000
vt 0.812500 0.562500
vt 0.750000 0.562500
vt 0.687500 0.687500
vt 0.812500 0.687500
vt 0.750000 0.687500
vt 0.625000 0.500000
vt 0.625000 0.562500
vt 0.687500 0.500000
vt 0.812500 0.500000
vt 0.750000 0.500000
vt 0.875000 0.500000
vt 0.875000 0.562500
vt 0.812500 0.625000
vt 0.875000 0.687500
vt 0.875000 0.750000
vt 0.812500 0.750000
vt 0.750000 0.750000
vt 0.687500 0.750000
vt 0.625000 0.750000
vt 0.625000 0.687500
vt 0.625000 0.625000
vt 0.437500 0.812500
vt 0.500000 0.875000
vt 0.437500 0.875000
vt 0.500000 0.812500
vt 0.562500 0.875000
vt 0.437500 0.937500
vt 0.500000 0.937500
vt 0.375000 0.750000
vt 0.375000 0.812500
vt 0.437500 0.750000
vt 0.562500 0.750000
vt 0.500000 0.750000
vt 0.562500 0.812500
vt 0.625000 0.812500
vt 0.625000 0.937500
vt 0.562500 0.937500
vt 0.625000 1.000000
vt 0.562500 1.000000
vt 0.500000 1.000000
vt 0.437500 1.000000
vt 0.375000 1.000000
vt 0.375000 0.937500
vt 0.375000 0.875000
vt 0.437500 0.062500
vt 0.500000 0.125000
vt 0.437500 0.125000
vt 0.562500 0.062500
vt 0.500000 0.062500
vt 0.437500 0.187500
vt 0.562500 0.187500
vt 0.500000 0.187500
vt 0.375000 0.000000
vt 0.375000 0.062500
vt 0.500000 0.000000
vt 0.437500 0.000000
vt 0.562500 0.000000
vt 0.625000 0.000000
vt 0.625000 0.062500
vt 0.562500 0.125000
vt 0.625000 0.187500
vt 0.625000 0.250000
vt 0.562500 0.250000
vt 0.500000 0.250000
vt 0.437500 0.250000
vt 0.375000 0.250000
vt 0.375000 0.187500
vt 0.375000 0.125000
vt 0.187500 0.562500
vt 0.250000 0.625000
vt 0.187500 0.625000
vt 0.312500 0.562500
vt 0.250000 0.562500
vt 0.187500 0.687500
vt 0.312500 0.687500
vt 0.250000 0.687500
vt 0.125000 0.500000
vt 0.125000 0.562500
vt 0.187500 0.500000
vt 0.312500 0.500000
vt 0.250000 0.500000
vt 0.375000 0.500000
vt 0.375000 0.625000
vt 0.312500 0.625000
vt 0.375000 0.687500
vt 0.312500 0.750000
vt 0.250000 0.750000
vt 0.187500 0.750000
vt 0.125000 0.687500
vt 0.125000 0.750000
vt 0.125000 0.625000
vt 0.437500 0.562500
vt 0.500000 0.625000
vt 0.437500 0.625000
vt 0.562500 0.562500
vt 0.500000 0.562500
vt 0.437500 0.687500
vt 0.562500 0.687500
vt 0.500000 0.687500
vt 0.375000 0.562500
vt 0.437500 0.500000
vt 0.562500 0.500000
vt 0.500000 0.500000
vt 0.562500 0.625000
vt 0.437500 0.312500
vt 0.500000 0.375000
vt 0.437500 0.375000
vt 0.562500 0.312500
vt 0.500000 0.312500
vt 0.437500 0.437500
vt 0.562500 0.437500
vt 0.500000 0.437500
vt 0.375000 0.312500
vt 0.625000 0.312500
vt 0.562500 0.375000
vt 0.625000 0.437500
vt 0.375000 0.437500
vt 0.375000 0.375000
vt 0.875000 0.625000
vt 0.625000 0.875000
vt 0.625000 0.125000
vt 0.625000 0.375000
vt 0.000000 0.000000
s 0
usemtl Material.001
f 245/1/1 274/2/1 266/3/1
f 256/4/2 271/2/2 249/5/2
f 270/2/3 283/6/3 263/3/3
f 267/2/4 294/7/4 287/8/4
f 2/9/5 246/1/5 165/10/5
f 221/11/6 252/5/6 248/1/6
f 212/12/7 253/5/7 216/13/7
f 27/14/8 259/4/8 210/12/8
f 207/15/9 279/16/9 255/4/9
f 276/16/10 197/17/10 293/7/10
f 297/7/11 39/18/11 154/19/11
f 291/8/12 156/19/12 150/20/12
f 290/8/13 145/21/13 286/6/13
f 284/6/14 14/22/14 175/23/14
f 261/3/15 171/23/15 167/24/15
f 160/10/16 264/3/16 168/24/16
f 302/25/17 323/26/17 321/27/17
f 311/28/18 333/29/18 327/26/18
f 322/26/19 339/30/19 320/27/19
f 332/29/20 348/31/20 326/26/20
f 23/32/21 301/25/21 192/33/21
f 127/34/22 307/28/22 304/25/22
f 116/35/23 309/28/23 122/36/23
s 1
f 17/22/24 313/37/24 115/35/24
s 0
f 149/38/25 331/29/25 315/37/25
f 330/29/26 159/39/26 352/40/26
f 350/40/27 40/41/27 109/42/27
f 346/31/28 110/42/28 105/43/28
f 344/31/29 100/44/29 341/30/29
f 338/30/30 46/45/30 180/46/30
f 186/47/31 340/30/31 181/46/31
f 303/25/32 187/47/32 193/33/32
f 355/48/33 379/49/33 374/50/33
f 367/51/34 381/49/34 363/52/34
f 383/49/35 393/53/35 376/50/35
f 384/49/36 405/54/36 399/55/36
f 43/56/37 361/48/37 60/57/37
f 101/58/38 359/48/38 97/59/38
f 107/60/39 365/52/39 103/58/39
f 38/61/40 371/51/40 106/60/40
f 196/62/41 389/63/41 369/51/41
f 392/63/42 206/64/42 407/54/42
f 409/54/43 26/65/43 128/66/43
f 403/55/44 130/66/44 134/67/44
f 402/55/45 139/68/45 398/53/45
f 396/53/46 30/69/46 50/70/46
f 377/50/47 47/70/47 54/71/47
f 57/57/48 373/50/48 52/71/48
f 414/72/49 442/73/49 435/74/49
f 426/75/50 441/73/50 419/76/50
f 439/73/51 453/77/51 433/74/51
f 437/73/52 463/78/52 459/79/52
f 31/80/53 415/72/53 51/81/53
f 75/82/54 420/76/54 417/72/54
f 66/83/55 423/76/55 71/84/55
f 10/85/56 429/75/56 64/83/56
f 425/75/57 237/86/57 447/87/57
f 445/87/58 232/88/58 462/78/58
f 231/88/59 189/89/59 460/78/59
f 457/79/60 191/89/60 183/90/60
f 454/79/61 178/91/61 450/77/61
f 61/92/62 176/91/62 44/93/62
f 431/74/63 59/92/63 53/94/63
f 411/72/64 55/94/64 49/81/64
f 465/95/65 493/96/65 486/97/65
f 477/98/66 494/96/66 471/99/66
f 489/96/67 503/100/67 484/97/67
f 491/96/68 515/101/68 511/102/68
f 7/85/69 468/95/69 241/103/69
f 91/104/70 474/99/70 470/95/70
f 82/105/71 475/99/71 86/106/71
f 3/9/72 481/98/72 80/105/72
f 162/10/73 502/107/73 479/98/73
f 499/107/74 172/23/74 517/101/74
f 519/101/75 15/22/75 112/35/75
f 513/102/76 113/35/76 120/36/76
f 507/100/77 118/36/77 124/34/77
f 509/100/78 20/32/78 229/88/78
f 483/97/79 226/88/79 233/86/79
f 238/103/80 487/97/80 235/86/80
f 525/108/81 549/109/81 543/110/81
f 538/111/82 547/109/82 531/112/82
f 550/109/83 563/113/83 544/110/83
f 548/109/84 576/114/84 569/115/84
f 35/69/85 522/108/85 77/116/85
f 143/68/86 530/112/86 523/108/86
f 132/66/87 527/112/87 136/67/87
f 28/65/88 533/111/88 131/66/88
f 215/117/89 555/118/89 536/111/89
f 556/118/90 225/119/90 573/114/90
s 1
f 571/114/91 5/9/91 83/105/91
s 0
f 565/115/92 84/105/92 88/106/92
s 1
f 568/115/93 95/104/93 562/113/93
s 0
f 560/113/94 12/85/94 67/120/94
f 540/110/95 68/120/95 73/121/95
f 78/116/96 539/110/96 72/121/96
f 244/1/97 250/5/97 272/2/97
f 257/4/98 280/16/98 273/2/98
f 268/2/99 288/8/99 282/6/99
f 269/2/100 277/16/100 295/7/100
f 4/9/101 220/11/101 247/1/101
f 222/11/102 217/13/102 254/5/102
f 211/12/103 260/4/103 251/5/103
f 25/14/104 209/15/104 258/4/104
f 205/15/105 203/122/105 278/16/105
f 275/16/106 200/122/106 194/17/106
f 296/7/107 199/17/107 37/18/107
f 289/8/108 298/7/108 155/19/108
f 292/8/109 151/20/109 146/21/109
f 285/6/110 144/21/110 16/22/110
f 262/3/111 281/6/111 173/23/111
f 163/10/112 243/1/112 265/3/112
f 305/25/113 308/28/113 325/26/113
f 312/28/114 317/37/114 335/29/114
f 324/26/115 345/31/115 342/30/115
f 334/29/116 354/40/116 349/31/116
f 22/32/117 125/34/117 300/25/117
f 126/34/118 121/36/118 306/28/118
f 117/35/119 316/37/119 310/28/119
f 18/22/120 147/38/120 314/37/120
f 148/38/121 153/123/121 329/29/121
f 328/29/122 152/123/122 158/39/122
f 351/40/123 157/39/123 41/41/123
f 347/31/124 353/40/124 111/42/124
f 343/31/125 104/43/125 99/44/125
f 337/30/126 98/44/126 45/45/126
f 185/47/127 319/27/127 336/30/127
f 299/25/128 318/27/128 184/47/128
f 356/48/129 362/52/129 380/49/129
f 368/51/130 387/63/130 382/49/130
f 385/49/131 400/55/131 394/53/131
f 386/49/132 390/63/132 406/54/132
f 42/56/133 96/59/133 358/48/133
f 102/58/134 364/52/134 360/48/134
f 108/60/135 372/51/135 366/52/135
f 36/61/136 198/62/136 370/51/136
f 195/62/137 201/124/137 388/63/137
f 391/63/138 202/124/138 204/64/138
f 408/54/139 208/64/139 24/65/139
f 401/55/140 410/54/140 129/66/140
f 404/55/141 135/67/141 140/68/141
f 397/53/142 138/68/142 32/69/142
f 378/50/143 395/53/143 48/70/143
f 58/57/144 357/48/144 375/50/144
f 413/72/145 418/76/145 440/73/145
f 427/75/146 448/87/146 443/73/146
f 436/73/147 458/79/147 452/77/147
f 438/73/148 446/87/148 464/78/148
f 33/80/149 74/82/149 416/72/149
f 76/82/150 70/84/150 422/76/150
f 65/83/151 430/75/151 421/76/151
s 1
f 8/85/152 242/103/152 428/75/152
s 0
f 424/75/153 240/103/153 236/86/153
s 1
f 444/87/154 234/86/154 228/88/154
s 0
f 230/88/155 21/32/155 188/89/155
f 455/79/156 461/78/156 190/89/156
f 456/79/157 182/90/157 179/91/157
f 62/92/158 449/77/158 177/91/158
f 432/74/159 451/77/159 63/92/159
f 412/72/160 434/74/160 56/94/160
f 466/95/161 472/99/161 495/96/161
f 478/98/162 500/107/162 496/96/162
f 490/96/163 510/102/163 504/100/163
f 492/96/164 497/107/164 516/101/164
f 9/85/165 90/104/165 469/95/165
f 92/104/166 87/106/166 476/99/166
f 81/105/167 482/98/167 473/99/167
s 1
f 1/9/168 164/10/168 480/98/168
s 0
f 161/10/169 169/24/169 501/107/169
f 498/107/170 166/24/170 170/23/170
f 518/101/171 174/23/171 13/22/171
f 514/102/172 520/101/172 114/35/172
f 508/100/173 512/102/173 119/36/173
f 506/100/174 123/34/174 19/32/174
f 485/97/175 505/100/175 227/88/175
f 239/103/176 467/95/176 488/97/176
f 526/108/177 532/112/177 551/109/177
f 537/111/178 557/118/178 545/109/178
f 552/109/179 570/115/179 564/113/179
f 546/109/180 558/118/180 575/114/180
f 34/69/181 141/68/181 521/108/181
f 142/68/182 137/67/182 528/112/182
f 133/66/183 535/111/183 529/112/183
s 1
f 29/65/184 213/117/184 534/111/184
s 0
f 214/117/185 218/125/185 553/118/185
f 554/118/186 219/125/186 224/119/186
s 1
f 572/114/187 223/119/187 6/9/187
s 0
f 567/115/188 574/114/188 85/105/188
f 566/115/189 89/106/189 94/104/189
f 559/113/190 93/104/190 11/85/190
f 542/110/191 561/113/191 69/120/191
f 79/116/192 524/108/192 541/110/192
usemtl 
f 653/126/193 725/126/193 822/126/193
f 685/126/194 701/126/194 781/126/194
f 915/126/195 835/126/195 839/126/195
f 1073/126/196 583/126/196 684/126/196
f 1048/126/197 607/126/197 1035/126/197
f 1057/126/198 676/126/198 1047/126/198
f 1075/126/199 681/126/199 1058/126/199
f 1244/126/200 920/126/200 1256/126/200
f 1086/126/201 665/126/201 661/126/201
f 1109/126/202 667/126/202 1097/126/202
f 740/126/203 677/126/203 756/126/203
f 679/126/204 771/126/204 759/126/204
f 683/126/205 784/126/205 771/126/205
f 708/126/206 643/126/206 797/126/206
f 644/126/207 810/126/207 798/126/207
f 649/126/208 823/126/208 810/126/208
f 817/126/209 623/126/209 632/126/209
f 815/126/210 825/126/210 828/126/210
f 809/126/211 827/126/211 812/126/211
f 636/126/212 816/126/212 631/126/212
f 800/126/213 814/126/213 803/126/213
f 802/126/214 809/126/214 812/126/214
f 591/126/215 807/126/215 638/126/215
f 717/126/216 805/126/216 720/126/216
f 716/126/217 796/126/217 802/126/217
f 777/126/218 657/126/218 662/126/218
f 775/126/219 787/126/219 791/126/219
f 770/126/220 789/126/220 773/126/220
f 670/126/221 778/126/221 663/126/221
f 762/126/222 776/126/222 766/126/222
f 764/126/223 770/126/223 773/126/223
f 602/126/224 768/126/224 672/126/224
f 753/126/225 761/126/225 765/126/225
f 750/126/226 758/126/226 764/126/226
f 793/126/224 580/126/224 659/126/224
f 786/126/227 690/126/227 790/126/227
f 783/126/228 699/126/228 789/126/228
f 1121/126/229 600/126/229 1020/126/229
f 1119/126/230 747/126/230 751/126/230
f 1142/126/231 746/126/231 1132/126/231
f 832/126/215 613/126/215 625/126/215
f 830/126/232 734/126/232 737/126/232
f 821/126/233 733/126/233 827/126/233
f 1158/126/234 590/126/234 1002/126/234
f 1156/126/235 712/126/235 718/126/235
f 1177/126/236 710/126/236 1167/126/236
f 836/126/237 1524/126/237 840/126/237
f 673/126/238 1558/126/238 604/126/238
f 853/126/239 1640/126/239 857/126/239
f 1377/126/240 1676/126/240 1394/126/240
f 1620/126/238 660/126/238 582/126/238
f 1025/126/241 1559/126/241 611/126/241
f 1249/126/242 838/126/242 1183/126/242
f 922/126/243 844/126/243 848/126/243
f 1258/126/244 847/126/244 1187/126/244
f 1262/126/245 934/126/245 1274/126/245
f 928/126/246 852/126/246 856/126/246
f 1266/126/247 855/126/247 1191/126/247
f 933/126/248 860/126/248 864/126/248
f 1273/126/249 863/126/249 1195/126/249
f 1288/126/250 941/126/250 945/126/250
f 875/126/251 937/126/251 870/126/251
f 1283/126/252 873/126/252 1205/126/252
f 1291/126/253 886/126/253 1214/126/253
f 1293/126/254 959/126/254 1307/126/254
f 898/126/255 951/126/255 893/126/255
f 1300/126/256 895/126/256 1229/126/256
f 1309/126/257 906/126/257 1241/126/257
f 972/126/258 1445/126/258 968/126/258
f 947/126/259 965/126/259 883/126/259
f 941/126/260 968/126/260 945/126/260
f 976/126/261 942/126/261 876/126/261
f 967/126/262 880/126/262 887/126/262
f 966/126/263 1456/126/263 978/126/263
f 961/126/264 984/126/264 910/126/264
f 990/126/265 959/126/265 955/126/265
f 996/126/266 957/126/266 899/126/266
f 907/126/267 998/126/267 903/126/267
f 890/126/268 1305/126/268 1234/126/268
f 1297/126/269 1226/126/269 1222/126/269
f 902/126/270 1295/126/270 1220/126/270
f 1307/126/271 1298/126/271 1293/126/271
f 949/126/272 1298/126/272 1302/126/272
f 1289/126/273 1207/126/273 1285/126/273
f 867/126/274 1286/126/274 1211/126/274
f 1281/126/275 1201/126/275 1278/126/275
f 878/126/276 1277/126/276 1199/126/276
f 1288/126/277 1279/126/277 1275/126/277
f 935/126/278 1279/126/278 1284/126/278
f 1271/126/279 1192/126/279 1267/126/279
f 851/126/280 1270/126/280 1193/126/280
f 1263/126/281 1188/126/281 1259/126/281
f 859/126/282 1261/126/282 1189/126/282
f 1274/126/245 1265/126/245 1262/126/245
f 927/126/245 1269/126/245 924/126/245
f 1255/126/283 1184/126/283 1251/126/283
f 834/126/284 1253/126/284 1185/126/284
f 1247/126/285 1180/126/285 1243/126/285
f 843/126/286 1246/126/286 1181/126/286
f 1196/126/287 1486/126/287 1492/126/287
f 1135/126/288 1589/126/288 1140/126/288
f 1169/126/289 1573/126/289 1175/126/289
f 615/126/290 1532/126/290 626/126/290
f 892/126/291 1656/126/291 897/126/291
f 869/126/292 1484/126/292 874/126/292
f 1171/126/293 1165/126/293 1159/126/293
f 695/126/294 1173/126/294 1162/126/294
f 1166/126/295 1148/126/295 1160/126/295
f 696/126/296 1150/126/296 688/126/296
f 1146/126/297 999/126/297 1004/126/297
f 579/126/298 1152/126/298 1007/126/298
f 1144/126/299 1125/126/299 1136/126/299
f 727/126/300 1137/126/300 1129/126/300
f 1126/126/301 1123/126/301 1113/126/301
f 729/126/302 1115/126/302 735/126/302
f 1122/126/303 1023/126/303 1112/126/303
f 612/126/304 1117/126/304 1026/126/304
f 1100/126/305 1094/126/305 1090/126/305
f 630/126/306 1102/126/306 1092/126/306
f 1095/126/307 1080/126/307 1093/126/307
f 628/126/308 1078/126/308 633/126/308
f 1256/126/309 1248/126/309 1244/126/309
f 914/126/310 1252/126/310 911/126/310
f 1065/126/311 1324/126/311 1321/126/311
f 647/126/312 1069/126/312 1051/126/312
f 1062/126/313 1314/126/313 1320/126/313
f 646/126/314 1042/126/314 651/126/314
f 1039/126/315 1037/126/315 1029/126/315
f 652/126/316 1031/126/316 616/126/316
f 1010/126/317 1064/126/317 1015/126/317
f 640/126/318 1016/126/318 1067/126/318
f 1304/126/319 1238/126/319 1231/126/319
s 1
f 1061/126/320 1326/126/320 1077/126/320
s 0
f 1040/126/321 1316/126/321 1050/126/321
f 1054/126/322 1313/126/322 1044/126/322
f 1055/126/323 1322/126/323 1318/126/323
f 1556/126/324 1359/126/324 1537/126/324
f 1496/126/325 1366/126/325 1363/126/325
f 1530/126/326 1349/126/326 1550/126/326
f 1501/126/327 1346/126/327 1505/126/327
f 1353/126/328 1552/126/328 1539/126/328
f 1554/126/329 1339/126/329 1558/126/329
f 1367/126/330 1560/126/330 1534/126/330
f 1562/126/331 1336/126/331 1532/126/331
f 1622/126/332 1403/126/332 1601/126/332
f 1666/126/333 1409/126/333 1406/126/333
f 1614/126/334 1392/126/334 1612/126/334
f 1668/126/335 1391/126/335 1671/126/335
f 1608/126/336 1384/126/336 1618/126/336
f 1387/126/337 1624/126/337 1620/126/337
f 1410/126/338 1626/126/338 1600/126/338
f 1374/126/339 1616/126/339 1628/126/339
f 1417/126/340 1592/126/340 1581/126/340
f 1637/126/341 1425/126/341 1635/126/341
f 1415/126/342 1588/126/342 1585/126/342
f 1633/126/343 1421/126/343 1631/126/343
f 1424/126/344 1583/126/344 1590/126/344
f 1420/126/345 1582/126/345 1584/126/345
f 1428/126/346 1579/126/346 1594/126/346
f 1414/126/347 1586/126/347 1580/126/347
f 1433/126/348 1576/126/348 1565/126/348
f 1521/126/349 1441/126/349 1519/126/349
f 1431/126/350 1572/126/350 1569/126/350
f 1517/126/351 1437/126/351 1515/126/351
f 1440/126/352 1567/126/352 1574/126/352
f 1436/126/353 1566/126/353 1568/126/353
f 1444/126/354 1563/126/354 1578/126/354
f 1430/126/355 1570/126/355 1564/126/355
f 1451/126/356 1453/126/356 1457/126/356
f 1461/126/357 1471/126/357 1465/126/357
f 993/126/358 1472/126/358 1468/126/358
f 988/126/359 1463/126/359 981/126/359
f 974/126/360 1458/126/360 1454/126/360
s 1
f 982/126/361 1470/126/361 997/126/361
s 0
f 970/126/362 1449/126/362 963/126/362
f 990/126/363 1459/126/363 986/126/363
f 1083/126/364 1605/126/364 1595/126/364
f 1230/126/365 1655/126/365 1661/126/365
f 909/126/366 1652/126/366 1648/126/366
f 1242/126/367 1646/126/367 1670/126/367
f 1224/126/368 1659/126/368 1665/126/368
f 1650/126/369 1221/126/369 1663/126/369
f 838/126/370 1522/126/370 1183/126/370
f 845/126/371 1528/126/371 849/126/371
f 847/126/372 1518/126/372 1187/126/372
f 1185/126/373 1513/126/373 834/126/373
f 1181/126/374 1525/126/374 843/126/374
f 1186/126/375 1515/126/375 1184/126/375
f 1395/126/376 1611/126/376 1389/126/376
f 1356/126/377 1547/126/377 1347/126/377
f 1525/126/378 1442/126/378 1433/126/378
f 1513/126/379 1438/126/379 1431/126/379
f 1518/126/380 1435/126/380 1440/126/380
f 1528/126/381 1434/126/381 1436/126/381
f 1522/126/382 1429/126/382 1444/126/382
f 1524/126/383 1432/126/383 1430/126/383
f 1182/126/384 1519/126/384 1180/126/384
f 1490/126/385 1329/126/385 1369/126/385
s 1
f 1613/126/386 1001/126/386 589/126/386
s 0
f 1005/126/387 1611/126/387 1607/126/387
f 1014/126/388 1577/126/388 1009/126/388
f 1564/126/389 704/126/389 587/126/389
f 1476/126/390 1340/126/390 1345/126/390
f 1499/126/391 1343/126/391 1354/126/391
f 1334/126/392 1508/126/392 1351/126/392
f 1479/126/393 1361/126/393 1338/126/393
f 621/126/394 1548/126/394 1106/126/394
f 656/126/395 1603/126/395 1085/126/395
f 1443/126/396 1575/126/396 1441/126/396
f 1439/126/397 1571/126/397 1437/126/397
s 1
f 1013/126/398 1563/126/398 586/126/398
s 0
f 1568/126/399 597/126/399 709/126/399
f 1179/126/400 1567/126/400 707/126/400
f 1569/126/401 1174/126/401 703/126/401
f 1565/126/402 1018/126/402 595/126/402
f 1541/126/403 669/126/403 1107/126/403
f 1033/126/404 1593/126/404 1028/126/404
f 1580/126/405 726/126/405 619/126/405
f 1427/126/406 1591/126/406 1425/126/406
f 1423/126/407 1587/126/407 1421/126/407
f 1594/126/408 617/126/408 1032/126/408
f 1584/126/409 609/126/409 743/126/409
f 1590/126/410 742/126/410 1143/126/410
f 1585/126/411 1139/126/411 724/126/411
f 1581/126/412 1036/126/412 608/126/412
f 1022/126/413 1533/126/413 1024/126/413
f 1536/126/414 601/126/414 1555/126/414
f 1330/126/415 1512/126/415 1335/126/415
f 1006/126/416 1617/126/416 578/126/416
f 1598/126/417 634/126/417 1084/126/417
f 855/126/418 1638/126/418 1191/126/418
f 861/126/419 1644/126/419 865/126/419
f 863/126/420 1634/126/420 1195/126/420
f 1193/126/421 1629/126/421 851/126/421
s 1
f 1189/126/422 1641/126/423 859/126/424
s 0
f 1194/126/425 1631/126/425 1192/126/425
f 1628/126/290 593/126/290 639/126/290
f 1104/126/426 1542/126/426 1111/126/426
f 1641/126/427 1426/126/427 1417/126/427
f 1629/126/428 1422/126/428 1415/126/428
f 1634/126/429 1419/126/429 1424/126/429
f 1644/126/430 1418/126/430 1420/126/430
f 1638/126/431 1413/126/431 1428/126/431
f 1640/126/432 1416/126/432 1414/126/432
f 1190/126/433 1635/126/433 1188/126/433
f 1365/126/434 1538/126/434 1362/126/434
f 1404/126/435 1596/126/435 1606/126/435
f 1651/126/436 1402/126/436 1381/126/436
f 1239/126/437 1673/126/437 1232/126/437
f 1233/126/438 1677/126/438 889/126/438
f 1373/126/439 1680/126/439 1378/126/439
f 1662/126/440 1372/126/440 1412/126/440
f 1648/126/441 1383/126/441 1388/126/441
f 1398/126/442 1647/126/442 1385/126/442
f 1206/126/443 1483/126/443 1489/126/443
f 888/126/444 1480/126/444 1476/126/444
f 1215/126/445 1475/126/445 1498/126/445
f 1210/126/446 1509/126/446 866/126/446
f 881/126/447 1494/126/447 1477/126/447
f 1216/126/448 1503/126/448 1208/126/448
f 653/126/449 618/126/449 725/126/449
f 685/126/450 584/126/450 701/126/450
f 915/126/451 912/126/451 835/126/451
f 1076/126/452 1012/126/452 585/126/452
f 1046/126/453 675/126/453 605/126/453
f 1059/126/454 682/126/454 678/126/454
f 1074/126/455 686/126/455 680/126/455
f 1244/126/456 917/126/456 920/126/456
f 1087/126/457 1096/126/457 666/126/457
f 1108/126/458 674/126/458 664/126/458
f 740/126/459 606/126/459 677/126/459
f 679/126/460 683/126/460 771/126/460
f 683/126/461 687/126/461 784/126/461
f 708/126/462 596/126/462 643/126/462
f 644/126/463 649/126/463 810/126/463
f 649/126/464 654/126/464 823/126/464
f 819/126/465 831/126/465 624/126/465
f 813/126/466 811/126/466 824/126/466
f 809/126/467 821/126/467 827/126/467
f 637/126/468 806/126/468 818/126/468
f 799/126/469 811/126/469 813/126/469
f 802/126/470 796/126/470 809/126/470
f 592/126/471 721/126/471 808/126/471
f 715/126/472 801/126/472 804/126/472
f 714/126/473 706/126/473 795/126/473
f 779/126/474 792/126/474 658/126/474
f 774/126/475 772/126/475 785/126/475
f 770/126/476 783/126/476 789/126/476
f 671/126/477 767/126/477 780/126/477
f 760/126/478 772/126/478 774/126/478
f 764/126/479 758/126/479 770/126/479
f 603/126/480 755/126/480 769/126/480
f 754/126/481 749/126/481 763/126/481
f 748/126/482 741/126/482 757/126/482
f 794/126/483 692/126/483 581/126/483
f 788/126/484 698/126/484 691/126/484
f 782/126/485 702/126/485 697/126/485
f 1120/126/486 752/126/486 598/126/486
f 1118/126/487 1131/126/487 745/126/487
f 1141/126/488 739/126/488 744/126/488
f 833/126/489 738/126/489 614/126/489
f 829/126/490 826/126/490 732/126/490
f 820/126/491 723/126/491 731/126/491
f 1157/126/492 719/126/492 588/126/492
f 1155/126/493 1168/126/493 711/126/493
f 1178/126/494 705/126/494 713/126/494
f 836/126/495 1514/126/495 1524/126/495
f 673/126/238 1554/126/238 1558/126/238
f 853/126/496 1630/126/496 1640/126/496
f 1375/126/497 1678/126/497 1674/126/497
f 1620/126/238 1624/126/238 660/126/238
f 1027/126/498 1534/126/498 1560/126/498
f 1250/126/499 916/126/499 841/126/499
f 922/126/500 919/126/500 844/126/500
f 1257/126/501 921/126/501 846/126/501
f 1262/126/245 931/126/245 934/126/245
f 928/126/246 925/126/246 852/126/246
f 1264/126/502 926/126/502 854/126/502
f 933/126/503 930/126/503 860/126/503
f 1272/126/504 932/126/504 862/126/504
f 1288/126/505 1275/126/505 941/126/505
f 875/126/506 940/126/506 937/126/506
f 1282/126/507 939/126/507 871/126/507
f 1290/126/508 948/126/508 884/126/508
f 1293/126/509 955/126/509 959/126/509
f 898/126/510 954/126/510 951/126/510
f 1301/126/511 953/126/511 896/126/511
f 1310/126/512 960/126/512 908/126/512
f 972/126/258 1452/126/258 1445/126/258
f 946/126/513 971/126/513 964/126/513
f 941/126/514 972/126/514 968/126/514
f 980/126/515 975/126/515 944/126/515
f 967/126/516 979/126/516 880/126/516
f 966/126/517 1450/126/517 1456/126/517
f 962/126/518 989/126/518 985/126/518
f 990/126/519 986/126/519 959/126/519
f 995/126/520 992/126/520 956/126/520
f 907/126/521 983/126/521 998/126/521
f 891/126/522 950/126/522 1306/126/522
f 1296/126/523 1299/126/523 1225/126/523
f 900/126/524 958/126/524 1294/126/524
f 1307/126/525 1302/126/525 1298/126/525
f 949/126/526 952/126/526 1298/126/526
f 1292/126/527 1217/126/527 1209/126/527
f 868/126/528 936/126/528 1287/126/528
f 1280/126/529 1202/126/529 1197/126/529
f 877/126/530 943/126/530 1276/126/530
f 1288/126/531 1284/126/531 1279/126/531
f 935/126/532 938/126/532 1279/126/532
f 1271/126/279 1194/126/279 1192/126/279
f 850/126/504 923/126/504 1268/126/504
f 1263/126/281 1190/126/281 1188/126/281
f 858/126/502 929/126/502 1260/126/502
f 1274/126/245 1269/126/245 1265/126/245
f 927/126/245 1265/126/245 1269/126/245
f 1255/126/533 1186/126/533 1184/126/533
f 837/126/534 913/126/534 1254/126/534
f 1247/126/535 1182/126/535 1180/126/535
f 842/126/536 918/126/536 1245/126/536
f 1198/126/537 1203/126/537 1487/126/537
f 1135/126/538 1587/126/538 1589/126/538
f 1169/126/539 1571/126/539 1573/126/539
f 615/126/290 1562/126/290 1532/126/290
f 892/126/540 1680/126/540 1656/126/540
f 869/126/541 1512/126/541 1484/126/541
f 1170/126/542 1176/126/542 1163/126/542
s 1
f 693/126/543 700/126/543 1172/126/543
s 0
f 1164/126/544 1154/126/544 1147/126/544
f 694/126/545 1161/126/545 1149/126/545
f 1146/126/297 1153/126/297 999/126/297
f 577/126/546 689/126/546 1151/126/546
f 1145/126/547 1133/126/547 1127/126/547
f 730/126/548 722/126/548 1138/126/548
f 1128/126/549 1134/126/549 1124/126/549
f 728/126/550 1130/126/550 1114/126/550
f 1122/126/303 1021/126/303 1023/126/303
f 610/126/551 736/126/551 1116/126/551
f 1103/126/552 1110/126/552 1098/126/552
f 627/126/553 620/126/553 1101/126/553
f 1099/126/554 1089/126/554 1082/126/554
f 629/126/555 1091/126/555 1079/126/555
f 1256/126/556 1252/126/556 1248/126/556
f 914/126/310 1248/126/310 1252/126/310
s 1
f 1065/126/311 1071/126/311 1324/126/311
s 0
f 645/126/557 641/126/557 1068/126/557
f 1063/126/558 1049/126/558 1315/126/558
f 648/126/559 1052/126/559 1043/126/559
f 1038/126/560 1045/126/560 1034/126/560
f 650/126/561 1041/126/561 1030/126/561
f 1011/126/562 1072/126/562 1066/126/562
f 642/126/563 594/126/563 1017/126/563
f 1303/126/564 1308/126/564 1236/126/564
f 1060/126/565 1319/126/565 1325/126/565
f 1040/126/321 1311/126/321 1316/126/321
f 1053/126/566 1317/126/566 1312/126/566
f 1056/126/567 1070/126/567 1323/126/567
f 1557/126/568 1337/126/568 1360/126/568
f 1491/126/569 1485/126/569 1364/126/569
f 1531/126/570 1333/126/570 1350/126/570
f 1502/126/571 1357/126/571 1348/126/571
f 1352/126/572 1342/126/572 1551/126/572
f 1554/126/573 1344/126/573 1339/126/573
f 1368/126/574 1328/126/574 1561/126/574
f 1562/126/575 1331/126/575 1336/126/575
f 1621/126/576 1380/126/576 1401/126/576
f 1664/126/577 1658/126/577 1407/126/577
f 1615/126/578 1376/126/578 1393/126/578
f 1667/126/579 1396/126/579 1390/126/579
f 1610/126/580 1399/126/580 1386/126/580
f 1387/126/581 1382/126/581 1624/126/581
f 1411/126/582 1371/126/582 1627/126/582
f 1374/126/583 1379/126/583 1616/126/583
f 1417/126/584 1426/126/584 1592/126/584
f 1637/126/585 1427/126/585 1425/126/585
f 1415/126/586 1422/126/586 1588/126/586
f 1633/126/587 1423/126/587 1421/126/587
f 1424/126/588 1419/126/588 1583/126/588
f 1420/126/589 1418/126/589 1582/126/589
f 1428/126/590 1413/126/590 1579/126/590
f 1414/126/591 1416/126/591 1586/126/591
f 1433/126/592 1442/126/592 1576/126/592
f 1521/126/593 1443/126/593 1441/126/593
f 1431/126/594 1438/126/594 1572/126/594
f 1517/126/595 1439/126/595 1437/126/595
f 1440/126/596 1435/126/596 1567/126/596
f 1436/126/597 1434/126/597 1566/126/597
f 1444/126/598 1429/126/598 1563/126/598
f 1430/126/599 1432/126/599 1570/126/599
f 1451/126/356 1447/126/356 1453/126/356
f 1461/126/357 1467/126/357 1471/126/357
f 991/126/600 994/126/600 1469/126/600
f 987/126/601 1460/126/601 1462/126/601
f 973/126/602 977/126/602 1455/126/602
f 982/126/603 1464/126/603 1470/126/603
f 969/126/604 1446/126/604 1448/126/604
f 990/126/363 1466/126/363 1459/126/363
f 1081/126/605 1088/126/605 1604/126/605
f 1228/126/606 894/126/606 1653/126/606
f 909/126/607 904/126/607 1652/126/607
f 1240/126/608 905/126/608 1645/126/608
f 1223/126/609 1227/126/609 1657/126/609
f 1649/126/610 901/126/610 1219/126/610
f 838/126/611 1523/126/611 1522/126/611
f 845/126/612 1526/126/612 1528/126/612
f 847/126/613 1527/126/613 1518/126/613
f 1185/126/614 1516/126/614 1513/126/614
f 1181/126/615 1520/126/615 1525/126/615
f 1186/126/616 1517/126/616 1515/126/616
f 1395/126/617 1607/126/617 1611/126/617
f 1355/126/618 1544/126/618 1546/126/618
f 1525/126/619 1520/126/619 1442/126/619
f 1513/126/620 1516/126/620 1438/126/620
f 1518/126/621 1527/126/621 1435/126/621
f 1528/126/622 1526/126/622 1434/126/622
f 1522/126/623 1523/126/623 1429/126/623
f 1524/126/624 1514/126/624 1432/126/624
f 1182/126/625 1521/126/625 1519/126/625
f 1488/126/626 1482/126/626 1327/126/626
f 1614/126/627 1612/126/627 1003/126/627
f 1005/126/387 1000/126/387 1611/126/387
f 1014/126/628 1575/126/628 1577/126/628
f 1564/126/629 1570/126/629 704/126/629
f 1476/126/630 1480/126/630 1340/126/630
f 1497/126/631 1474/126/631 1341/126/631
f 1332/126/632 1510/126/632 1506/126/632
f 1478/126/633 1495/126/633 1358/126/633
f 622/126/634 1529/126/634 1549/126/634
f 655/126/635 1623/126/635 1602/126/635
f 1443/126/636 1577/126/636 1575/126/636
f 1439/126/637 1573/126/637 1571/126/637
f 1013/126/638 1578/126/638 1563/126/638
f 1568/126/639 1566/126/639 597/126/639
f 1179/126/640 1574/126/640 1567/126/640
f 1569/126/641 1572/126/641 1174/126/641
f 1565/126/642 1576/126/642 1018/126/642
f 1540/126/643 1553/126/643 668/126/643
f 1033/126/644 1591/126/644 1593/126/644
f 1580/126/645 1586/126/645 726/126/645
f 1427/126/646 1593/126/646 1591/126/646
f 1423/126/647 1589/126/647 1587/126/647
f 1594/126/648 1579/126/648 617/126/648
f 1584/126/649 1582/126/649 609/126/649
f 1590/126/650 1583/126/650 742/126/650
f 1585/126/651 1588/126/651 1139/126/651
f 1581/126/652 1592/126/652 1036/126/652
f 1022/126/413 1538/126/413 1533/126/413
f 1535/126/653 1019/126/653 599/126/653
f 1330/126/654 1484/126/654 1512/126/654
s 1
f 1008/126/655 1609/126/655 1619/126/655
s 0
f 1599/126/656 1625/126/656 635/126/656
f 855/126/657 1639/126/657 1638/126/657
f 861/126/658 1642/126/658 1644/126/658
f 863/126/659 1643/126/659 1634/126/659
f 1193/126/660 1632/126/660 1629/126/660
s 1
f 1189/126/422 1636/126/661 1641/126/423
s 0
f 1194/126/662 1633/126/662 1631/126/662
f 1628/126/290 1616/126/290 593/126/290
f 1105/126/663 1545/126/663 1543/126/663
f 1641/126/664 1636/126/664 1426/126/664
f 1629/126/665 1632/126/665 1422/126/665
f 1634/126/666 1643/126/666 1419/126/666
f 1644/126/667 1642/126/667 1418/126/667
f 1638/126/668 1639/126/668 1413/126/668
f 1640/126/669 1630/126/669 1416/126/669
f 1190/126/670 1637/126/670 1635/126/670
f 1365/126/671 1533/126/671 1538/126/671
f 1405/126/672 1408/126/672 1597/126/672
f 1650/126/673 1663/126/673 1400/126/673
f 1237/126/674 1669/126/674 1672/126/674
f 1235/126/675 1675/126/675 1679/126/675
f 1373/126/676 1656/126/676 1680/126/676
f 1660/126/677 1654/126/677 1370/126/677
f 1648/126/678 1652/126/678 1383/126/678
f 1397/126/679 1670/126/679 1646/126/679
f 1204/126/680 872/126/680 1481/126/680
f 888/126/444 882/126/444 1480/126/444
f 1213/126/681 885/126/681 1473/126/681
f 1212/126/682 1507/126/682 1511/126/682
f 879/126/683 1200/126/683 1493/126/683
f 1218/126/684 1500/126/684 1504/126/684
