# Blender 4.4.1
# www.blender.org
mtllib BossField.mtl
o Cube
v -26.693201 41.274712 7.742860
v -28.746807 42.316513 11.543224
v -33.099201 38.942131 4.920678
v -35.152809 39.983929 8.721043
v -23.943041 19.648823 14.631575
v -28.114414 21.154400 14.351769
v -25.165300 17.557690 21.601204
v -29.336674 19.063267 21.321400
v -24.460514 15.438564 -13.168222
v -20.775373 13.153580 -14.139816
v -25.606157 16.647354 -20.356327
v -21.921017 14.362368 -21.327919
v -18.814436 10.376993 11.458031
v -19.720457 8.197521 7.693136
v -26.012680 10.594425 13.064421
v -26.918701 8.414951 9.299524
v -7.673786 52.301136 -12.143475
v -6.056390 56.299282 -11.073769
v -11.631408 55.354279 -17.571001
v -10.014011 59.352425 -16.501295
v 25.513268 22.977282 0.486743
v 25.606730 26.749725 2.833091
v 31.605169 25.066132 -3.114354
v 31.698631 28.838575 -0.768006
v -22.025690 26.241570 -31.620588
v -25.585659 24.279066 -29.825975
v -22.935898 22.268402 -37.771030
v -26.495867 20.305901 -35.976418
v -26.085367 49.802261 -1.493792
v -28.744595 46.916885 -3.579104
v -27.553518 54.877670 -6.644251
v -30.212746 51.992294 -8.729564
v -23.010506 16.694458 9.435559
v -21.962227 12.873970 7.423001
v -29.834089 16.285242 6.658198
v -28.785810 12.464754 4.645639
v 12.511158 9.534307 -5.406004
v 14.970938 9.512569 -1.705407
v 18.558863 10.865070 -9.418087
v 21.018642 10.843330 -5.717490
v 16.196823 33.120518 -3.812990
v 16.649359 36.893967 -6.115534
v 20.329227 29.583012 -8.798141
v 20.781765 33.356461 -11.100685
v -8.713304 46.015614 37.488358
v -12.007177 44.010082 39.695992
v -9.856680 52.178535 41.381119
v -13.150554 50.173000 43.588753
v 2.321817 41.514366 18.166903
v -1.768250 42.027679 19.826197
v 2.348422 48.581505 16.046211
v -1.741646 49.094818 17.705505
v 8.231000 11.598190 -21.975660
v 11.213298 9.326324 -19.590302
v 12.838931 11.596413 -27.738422
v 15.821229 9.324545 -25.353065
v -10.521612 -2.661194 3.109142
v -14.671426 -3.319569 1.663108
v -10.447407 -9.454094 5.988975
v -14.597220 -10.112473 4.542941
v -24.231264 25.378931 -14.918007
v -20.906303 26.332382 -17.707447
v -28.889038 29.225029 -19.155361
v -25.564077 30.178480 -21.944799
v -1.808226 34.355747 -16.350794
v -5.967876 35.529800 -17.382454
v -0.935409 31.513996 -23.103952
v -5.095059 32.688049 -24.135612
v -15.363899 48.714149 18.812496
v -11.229500 49.381912 20.297842
v -17.953894 49.475307 25.679451
v -13.819493 50.143070 27.164795
v 0.921780 20.870241 20.414234
v 1.912604 17.060436 18.352907
v -3.912995 17.297911 24.692772
v -2.922171 13.488106 22.631445
v -29.515074 47.529652 -1.321613
v -30.089546 50.910164 1.504613
v -36.820198 47.063858 -2.249341
v -37.394669 50.444366 0.576885
v -4.146013 32.971291 23.973392
v -3.198021 28.639061 23.693235
v -9.793748 31.444683 28.469503
v -8.845757 27.112452 28.189344
v -5.004434 48.182625 25.663448
v -0.623908 48.111248 26.405949
v -6.206389 49.280533 32.860142
v -1.825864 49.209160 33.602642
v 20.541107 14.023661 -6.904062
v 21.943516 11.760286 -3.346562
v 27.329254 13.710817 -9.779070
v 28.731663 11.447443 -6.221570
v -28.211441 28.638428 12.566918
v -29.440067 25.242264 15.155735
v -34.571526 28.115915 8.863029
v -35.800152 24.719751 11.451846
v -0.928486 39.628658 -7.391366
v 3.249065 40.892494 -6.556983
v -3.261958 46.515717 -6.140037
v 0.915593 47.779552 -5.305654
v -15.472331 10.455450 -0.487497
v -12.434114 8.882336 -3.322979
v -19.989130 11.914333 -6.136626
v -16.950912 10.341219 -8.972109
v 12.443804 6.401192 5.930885
v 10.230387 2.974468 4.169135
v 16.108097 1.763565 10.347654
v 13.894681 -1.663158 8.585905
v 11.360702 24.223562 -15.540194
v 8.406180 25.856216 -18.429943
v 12.523376 18.453136 -19.989111
v 9.568854 20.085793 -22.878860
v -14.669823 15.322454 -2.046773
v -16.406679 15.724333 -6.117060
v -21.434937 14.393215 0.748260
v -23.171791 14.795094 -3.322027
v -17.805212 29.049566 10.227059
v -16.692711 31.422363 13.815594
v -21.956600 24.632931 14.434404
v -20.844099 27.005728 18.022940
v -13.270723 7.222965 0.309827
v -11.694363 5.466637 -3.455249
v -20.162712 6.410732 -2.196817
v -18.586349 4.654402 -5.961894
v -18.611996 -2.112896 3.342558
v -22.976419 -1.311577 3.107823
v -19.969646 -8.502140 6.774293
v -24.334070 -7.700821 6.539558
v 6.269451 43.149574 18.966452
v 5.630731 46.614861 16.259190
v 13.522257 44.505562 18.990963
v 12.883535 47.970848 16.283701
v 25.700069 17.010521 10.195187
v 24.570095 14.117069 13.372684
v 32.588642 17.215061 12.831134
v 31.458668 14.321609 16.008633
v -16.114866 16.613932 -10.625975
v -12.677206 13.802124 -10.478853
v -16.345507 15.947659 -17.970726
v -12.907846 13.135851 -17.823603
v -12.010153 54.855724 -8.034218
v -12.983073 56.569996 -4.051741
v -18.686411 56.799866 -10.502092
v -19.659330 58.514133 -6.519615
v -7.707071 7.027575 19.263424
v -11.942244 6.121788 20.257542
v -5.478426 2.647833 24.767378
v -9.713599 1.742044 25.761494
v -15.611943 15.822334 16.518057
v -14.608022 14.294792 12.467850
v -22.738426 14.339678 15.310807
v -21.734505 12.812138 11.260600
v 25.575939 41.267586 -2.032379
v 27.615398 38.389679 0.670152
v 31.583458 45.551437 -2.004103
v 33.622917 42.673531 0.698429
v -21.734222 59.006233 -10.198136
v -25.761053 57.414200 -9.200393
v -24.201630 61.089367 -16.832512
v -28.228458 59.497337 -15.834769
v -14.740862 50.201138 28.023014
v -10.816802 49.180679 29.841206
v -18.117722 48.509521 34.361603
v -14.193663 47.489063 36.179794
v -2.848296 59.454521 -9.285496
v -6.974278 60.372589 -7.914787
v -4.537768 61.928947 -16.028297
v -8.663750 62.847012 -14.657591
v -21.849424 39.208157 -2.300436
v -25.185608 36.279686 -2.102070
v -22.671074 39.648407 -9.619832
v -26.007259 36.719933 -9.421466
v -13.302989 38.103111 24.159908
v -16.211672 40.865807 22.248762
v -10.559933 43.711475 28.092382
v -13.468616 46.474174 26.181236
v -13.393600 19.885494 23.598454
v -17.002647 17.512379 22.555140
v -16.092829 21.012390 30.372431
v -19.701878 18.639275 29.329117
v 13.100561 25.542620 36.849842
v 13.933520 21.193756 36.477036
v 13.321255 24.954662 44.201580
v 14.154214 20.605801 43.828773
v -15.494499 27.587309 -3.333255
v -15.939761 28.684919 -7.616058
v -22.831640 27.646675 -2.555233
v -23.276901 28.744286 -6.838037
v -25.285702 38.919464 18.099285
v -25.200560 39.545097 22.497778
v -31.659481 35.258514 18.743389
v -31.574341 35.884151 23.141884
v -12.174921 20.144707 10.391765
v -13.098130 18.093637 6.559505
v -19.385626 20.584986 11.893215
v -20.308836 18.533916 8.060956
v -4.239468 15.181870 0.348847
v -3.618036 13.765356 -3.816813
v -10.285110 10.984646 0.874207
v -9.663679 9.568132 -3.291453
v -11.229001 30.575739 -25.731308
v -7.570368 28.100185 -26.212421
v -10.032798 33.628262 -32.341427
v -6.374166 31.152708 -32.822540
v 16.905443 15.582241 22.694395
v 13.924684 13.976303 25.572147
v 22.171711 15.011908 27.830891
v 19.190954 13.405972 30.708645
v 5.330117 45.950817 -21.898197
v 1.872331 45.702805 -24.678057
v 9.940728 44.701714 -27.521765
v 6.482942 44.453701 -30.301624
v -14.968470 40.958553 -34.094204
v -16.891287 44.201931 -31.742893
v -19.820841 42.035221 -39.547440
v -21.743658 45.278599 -37.196125
v 4.880589 3.801563 -10.938630
v 4.738144 0.180981 -8.366375
v 11.533241 1.783434 -13.410847
v 11.390796 -1.837151 -10.838593
v 1.696972 28.124481 -18.632759
v -1.511995 28.268723 -21.703125
v 4.800853 22.425684 -22.144474
v 1.591886 22.569925 -25.214840
v -14.685495 31.697540 15.807604
v -16.952284 35.487621 15.315287
v -10.477163 34.884144 20.962986
v -12.743952 38.674225 20.470669
v -4.224569 43.423798 -9.017796
v -6.405545 45.777775 -5.944110
v -7.428893 47.404625 -14.340180
v -9.609870 49.758606 -11.266495
v 11.114500 34.657043 -30.125324
v 12.427439 38.853748 -29.485580
v 12.409616 35.354073 -37.355770
v 13.722555 39.550777 -36.716026
v 10.811771 43.507984 -28.852970
v 7.985877 45.574036 -31.589968
v 15.973850 43.585037 -34.124542
v 13.147956 45.651093 -36.861542
v 10.108988 51.895500 -16.524542
v 14.270501 50.373444 -16.857079
v 12.691388 58.728054 -15.480589
v 16.852901 57.206001 -15.813127
v -10.386927 47.895699 -16.845177
v -14.297729 49.746120 -15.831775
v -12.482184 47.329590 -23.897263
v -16.392986 49.180012 -22.883858
v -24.917183 24.912830 -4.904023
v -27.384375 22.447987 -2.150313
v -27.861549 21.400131 -10.686249
v -30.328741 18.935287 -7.932539
v 9.201721 37.267914 -30.554724
v 6.737570 40.946465 -30.178371
v 8.642086 37.644768 -37.902328
v 6.177935 41.323318 -37.525974
v 4.380628 37.131599 15.488429
v 3.343365 34.037735 18.504635
v 2.058998 42.404224 20.098412
v 1.021734 39.310360 23.114616
v -8.427754 24.865759 29.700815
v -7.205956 20.622589 30.198954
v -11.954725 24.610443 36.176754
v -10.732927 20.367275 36.674892
v -13.614965 49.291252 -0.021727
v -15.236596 51.712181 -3.376550
v -11.296209 55.455261 3.305560
v -12.917839 57.876190 -0.049263
v -5.839214 11.350639 -29.904329
v -2.287012 9.506514 -27.973921
v -2.200174 11.648460 -36.316132
v 1.352028 9.804333 -34.385723
v -28.220694 18.940481 6.339400
v -25.971422 15.188055 7.117534
v -34.185719 14.990576 4.534080
v -31.936447 11.238150 5.312213
v -5.012916 7.463324 -21.218727
v -1.186674 5.872517 -19.614166
v -3.098898 5.238655 -27.988503
v 0.727344 3.647848 -26.383942
v -25.577217 5.976482 4.667122
v -28.222389 8.416788 7.273536
v -26.640049 0.139378 9.053585
v -29.285221 2.579681 11.659999
v 16.761652 10.889778 9.924353
v 14.443049 8.733185 13.041821
v 22.701853 10.829647 14.300755
v 20.383251 8.673058 17.418222
v -9.804238 5.141233 11.755354
v -13.011328 7.004082 14.202759
v -7.750138 1.063047 17.551176
v -10.957227 2.925896 19.998581
v -0.776125 32.410713 18.325480
v -2.373291 28.486609 19.665581
v -6.633949 35.799145 21.266039
v -8.231114 31.875042 22.606142
v 24.486900 9.563190 6.472196
v 24.421040 9.597878 10.915154
v 31.738863 8.207630 6.590281
v 31.673002 8.242317 11.033239
v 10.864040 12.996357 10.599332
v 12.869206 16.780588 11.784372
v 17.263426 10.427578 7.974120
v 19.268591 14.211809 9.159161
v 9.041082 33.024143 -26.220325
v 6.077466 31.704306 -29.256840
v 14.502602 30.299343 -30.366379
v 11.538984 28.979504 -33.402893
v -15.175936 41.290100 -21.240366
v -18.302835 43.454136 -18.941479
v -20.150665 39.608093 -26.423550
v -23.277565 41.772125 -24.124662
v 0.172926 55.194386 -18.841753
v -3.464247 55.254414 -21.393768
v 3.451222 59.980232 -23.401463
v -0.185951 60.040260 -25.953480
v -17.425598 8.905947 -19.889996
v -13.695456 7.225712 -21.624430
v -20.715399 8.400078 -26.475113
v -16.985256 6.719843 -28.209549
v -18.174082 10.005116 -6.703280
v -15.125481 7.909195 -9.164694
v -22.807446 10.009399 -12.445614
v -19.758846 7.913479 -14.907027
v 5.352361 58.495411 9.646030
v 4.062346 61.357281 6.501037
v 10.581139 63.230358 11.809975
v 9.291122 66.092224 8.664981
v -18.665009 17.016100 -4.099579
v -16.842653 14.487823 -7.266953
v -24.623796 18.024200 -8.332671
v -22.801441 15.495924 -11.500045
v -21.720196 44.322441 -12.402424
v -25.660973 44.256554 -10.350269
v -24.610376 48.412251 -17.821171
v -28.551155 48.346359 -15.769015
v -5.031543 33.754902 25.726013
v -1.056749 35.692951 25.289677
v -3.159658 31.435459 32.475731
v 0.815136 33.373508 32.039394
v -2.101617 35.998276 -22.983654
v 1.885773 36.786961 -21.188072
v -1.763741 42.441113 -26.563896
v 2.223649 43.229801 -24.768316
v 15.747094 15.311966 10.784555
v 14.231277 14.317055 14.841385
v 22.682819 14.656483 13.215305
v 21.167002 13.661572 17.272135
v -26.514433 44.739838 -5.249019
v -26.142044 47.381462 -1.695352
v -32.621025 41.748100 -2.385195
v -32.248638 44.389729 1.168472
v 17.953997 50.475063 7.508983
v 15.572072 53.095238 10.193480
v 23.361412 55.494240 7.408000
v 20.979485 58.114418 10.092497
v -3.854650 28.178894 24.178959
v -7.964755 26.490461 24.138451
v -4.850622 30.436533 31.132631
v -8.960728 28.748100 31.092125
v -9.048881 59.840805 3.354122
v -12.552705 60.886543 0.829231
v -5.997023 66.383095 1.828638
v -9.500847 67.428833 -0.696253
v -8.835699 51.451729 -14.310463
v -10.858346 53.552700 -10.957815
v -14.827894 52.388603 -18.512648
v -16.850540 54.489574 -15.160000
v -18.783989 17.445000 -5.105817
v -18.838829 15.605618 -9.150453
v -26.142271 17.972752 -5.246054
v -26.197109 16.133369 -9.290689
v -5.827558 57.715881 -31.534529
v -6.088161 60.856541 -28.401840
v -10.161399 61.748989 -35.938427
v -10.422001 64.889648 -32.805740
v -27.113483 33.083443 -11.852800
v -28.344807 32.795864 -16.112677
v -32.852856 37.516651 -10.493106
v -34.084179 37.229073 -14.752981
v 2.207904 10.251560 -10.955370
v 4.482916 9.368910 -14.668949
v -0.704401 3.474325 -11.128681
v 1.570611 2.591675 -14.842260
v 16.809416 46.567699 -10.277509
v 19.500668 43.473396 -11.988609
v 22.416565 49.243446 -6.297214
v 25.107819 46.149139 -8.008314
v 3.610193 55.341770 5.048929
v 0.439561 54.546806 8.059004
v -0.303392 61.020542 2.426362
v -3.474024 60.225578 5.436436
v -2.811471 50.393024 29.055473
v -6.525807 48.130661 29.966969
v -5.395352 56.166100 32.855164
v -9.109688 53.903732 33.766659
v 12.829144 15.262148 18.114487
v 12.239141 12.162458 14.985712
v 12.055764 10.122753 23.351946
v 11.465761 7.023064 20.223171
v 7.337423 45.429798 8.754222
v 4.668704 48.951607 9.223492
v 13.150468 49.924232 8.082621
v 10.481749 53.446041 8.551891
v 25.753284 55.398705 -14.160250
v 29.254911 53.434067 -12.256510
v 29.240644 61.894634 -13.870962
v 32.742271 59.929996 -11.967222
v 8.122878 53.886120 -16.156393
v 7.508054 56.024567 -12.310038
v 4.371047 59.165432 -19.691235
v 3.756223 61.303879 -15.844878
v -16.168201 28.695717 -34.343124
v -12.898112 31.044638 -36.223148
v -21.051645 31.867247 -38.874775
v -17.781555 34.216167 -40.754799
v -9.046168 12.071976 11.033254
v -5.571729 9.828896 9.407748
v -13.073350 10.074005 5.182409
v -9.598911 7.830925 3.556903
v 3.393821 31.494528 28.543251
v 0.754439 34.900711 27.458361
v 8.885014 36.208035 29.982750
v 6.245632 39.614216 28.897860
v 26.204594 10.805151 3.457049
v 29.809464 13.293415 2.709472
v 29.239799 5.263195 -0.353030
v 32.844669 7.751457 -1.100607
v 0.063806 37.633659 -8.009975
v 2.991205 36.368019 -11.104149
v 3.351112 44.226475 -7.596578
v 6.278511 42.960835 -10.690751
v -14.619880 15.564138 -21.535900
v -16.858192 19.036013 -23.173412
v -19.331787 10.959446 -24.858128
v -21.570101 14.431320 -26.495640
v 19.694614 40.077141 -10.821207
v 20.920444 35.910336 -11.759548
v 26.775064 42.152874 -10.788960
v 28.000893 37.986069 -11.727303
v 36.255600 22.431889 -3.175564
v 36.433392 26.727823 -4.297505
v 40.652054 20.764866 -8.861922
v 40.829849 25.060801 -9.983864
v 27.066792 7.015005 12.673895
v 25.034161 3.708977 14.838151
v 33.516281 4.982161 15.625854
v 31.483652 1.676132 17.790110
v -21.034397 24.434269 28.354616
v -18.127552 23.760376 31.647261
v -26.315727 21.182476 32.351601
v -23.408880 20.508581 35.644245
v 8.809123 9.279709 -16.786402
v 9.718005 11.365734 -20.603188
v 6.051515 3.571951 -20.562584
v 6.960397 5.657978 -24.379370
v -21.198208 9.805328 0.715039
v -25.280962 11.557314 0.799286
v -23.809748 3.576647 3.685878
v -27.892502 5.328632 3.770125
v -11.079695 45.276611 -24.583033
v -14.252270 47.475224 -22.381601
v -15.348951 45.140255 -30.599457
v -18.521526 47.338867 -28.398026
v 9.955114 55.094078 23.748150
v 9.441463 58.622803 21.096798
v 14.767598 58.884682 27.860790
v 14.253946 62.413410 25.209436
v 2.648419 10.940746 19.903893
v 0.883631 7.313820 18.039396
v -1.862185 10.160629 25.690805
v -3.626973 6.533703 23.826309
v 30.274544 16.468197 -17.241810
v 32.526779 13.532425 -14.781301
v 36.488895 18.258326 -20.794237
v 38.741131 15.322554 -18.333729
v 29.638287 12.461096 22.174204
v 27.599247 9.984818 25.249226
v 35.647884 12.810978 26.440905
v 33.608849 10.334698 29.515926
v 9.317658 17.026085 31.170918
v 13.358538 15.701927 29.881226
v 8.482464 10.764231 34.983276
v 12.523342 9.440073 33.693584
v 28.495670 40.222233 -7.766138
v 27.603821 42.678516 -11.360119
v 34.765518 37.915657 -10.898417
v 33.873672 40.371941 -14.492396
v -21.771332 47.389114 -6.665921
v -24.719688 47.004391 -3.363712
v -27.288343 48.210709 -11.496037
v -30.236702 47.825985 -8.193828
v -9.326974 41.818989 -23.637533
v -8.997106 38.762264 -26.845810
v -8.684555 47.173622 -28.673174
v -8.354687 44.116898 -31.881451
v 29.190140 6.881069 -15.735645
v 28.593719 3.261055 -13.228619
v 36.085426 4.715742 -17.221878
v 35.489006 1.095728 -14.714851
v 15.948062 28.643497 30.326504
v 14.543903 32.857929 30.215603
v 22.138420 30.795198 33.716511
v 20.734261 35.009632 33.605610
v 27.627237 19.894012 17.328207
v 26.765602 18.878750 21.567574
v 34.772404 20.713509 18.976692
v 33.910767 19.698246 23.216061
v 22.736179 9.417439 -4.361929
v 23.526354 6.341423 -1.254007
v 29.274235 7.967434 -7.459317
v 30.064409 4.891418 -4.351396
v -3.640402 11.601032 3.840256
v -8.042975 12.203331 3.838332
v -4.326293 6.604641 9.226173
v -8.728866 7.206940 9.224250
v -7.095706 15.185760 2.950051
v -6.053702 13.148693 -0.859148
v -13.249281 17.828867 -0.146723
v -12.207277 15.791800 -3.955922
v 9.519586 -1.583652 27.274782
v 5.168042 -1.861965 26.419201
v 8.284163 -3.680595 34.240341
v 3.932619 -3.958912 33.384758
v 25.866850 -2.123474 3.088337
v 21.982803 -3.997952 4.158813
v 29.416752 -7.164150 7.142009
v 25.532705 -9.038631 8.212484
v 9.525613 14.372423 21.359110
v 5.695580 12.137815 21.646835
v 10.120663 14.299437 28.713228
v 6.290630 12.064827 29.000954
v -10.357542 21.046295 -13.331127
v -6.377071 19.234407 -14.117469
v -11.050308 22.636810 -20.502796
v -7.069838 20.824923 -21.289137
v -1.348696 11.681530 23.297497
v -0.914019 13.469374 27.342255
v 2.158116 5.612837 25.603083
v 2.592793 7.400681 29.647842
v 27.236839 15.293791 25.101593
v 25.012699 13.136419 28.286612
v 33.415443 14.840797 29.109352
v 31.191301 12.683426 32.294373
v -25.052530 50.149467 22.655174
v -22.635357 51.617577 26.082613
v -31.010296 49.824764 26.995924
v -28.593122 51.292873 30.423363
v -12.035019 25.883049 -14.647776
v -9.367706 27.510773 -17.807106
v -17.903387 27.207611 -18.919807
v -15.236074 28.835335 -22.079140
v -1.135489 58.398727 -12.209038
v -4.652031 59.074970 -9.578057
v -4.834276 61.297020 -17.897745
v -8.350818 61.973259 -15.266766
v 13.173330 17.253790 -16.092196
v 16.446512 16.354574 -13.224602
v 18.093588 17.682386 -21.573967
v 21.366770 16.783171 -18.706375
v 3.178308 54.869995 -6.944923
v 6.999300 56.202560 -8.780602
v 2.410120 61.475758 -3.748636
v 6.231112 62.808323 -5.584314
v 7.767212 26.705503 -12.050042
v 11.295619 28.892672 -13.634989
v 4.498358 27.198719 -18.646544
v 8.026765 29.385887 -20.231491
v 16.709961 50.180885 30.353544
v 13.371990 52.964684 31.277569
v 21.464346 54.811508 33.577770
v 18.126373 57.595306 34.501793
v 19.492041 50.549820 -8.199160
v 16.694052 53.259644 -10.337742
v 23.987085 50.573376 -14.050355
v 21.189098 53.283203 -16.188936
v -19.991783 35.613792 -8.286648
v -20.059746 39.775764 -6.731405
v -27.165730 34.908272 -6.712098
v -27.233692 39.070244 -5.156856
v 13.842178 52.851212 -21.399538
v 10.062947 54.093674 -23.379213
v 17.452045 53.659119 -27.783787
v 13.672813 54.901581 -29.763462
v -5.873915 55.115086 -25.128298
v -6.068750 58.411442 -22.154831
v -11.687713 57.963982 -28.667511
v -11.882547 61.260338 -25.694046
v 22.342487 42.915649 30.654339
v 19.596733 46.172165 31.919781
v 27.903795 46.228771 34.195179
v 25.158043 49.485291 35.460621
v -3.245255 18.343914 6.375875
v -2.610985 17.000523 2.187987
v -10.476241 19.009365 5.067255
v -9.841971 17.665972 0.879367
v 26.533268 40.296059 12.170198
v 28.724113 39.340660 8.424156
v 30.789913 35.540424 15.872547
v 32.980759 34.585030 12.126505
v 31.079952 10.810865 11.803493
v 28.610050 7.702942 13.799939
v 36.972855 8.602104 15.655449
v 34.502953 5.494179 17.651894
v 1.658255 -10.180180 -5.237225
v -1.780671 -11.270401 -7.831569
v 1.506940 -16.907272 -2.209723
v -1.931986 -17.997494 -4.804067
v 7.108804 50.993465 5.284304
v 3.948503 52.013351 2.331722
v 11.341307 56.423073 2.629543
v 8.181005 57.442959 -0.323040
v -1.374555 49.029167 -0.783923
v 1.796684 48.909966 2.326454
v -6.306841 51.040398 4.321953
v -3.135602 50.921196 7.432330
v -3.948122 10.488308 -23.420578
v -0.087907 8.374268 -22.808218
v -2.815580 10.444395 -30.711521
v 1.044634 8.330353 -30.099163
v 34.801216 35.303944 -1.727631
v 35.139374 31.388588 0.346267
v 40.597984 37.821648 2.080405
v 40.936142 33.906292 4.154303
v 16.702736 28.847919 -20.069454
v 19.086826 31.928633 -17.931522
v 16.224892 33.291847 -25.940199
v 18.608982 36.372562 -23.802269
v -1.572804 41.925846 12.514450
v 2.566748 43.495926 12.894415
v -2.361565 42.231583 19.844311
v 1.777988 43.801659 20.224276
v -6.877339 55.518120 -22.353403
v -8.989193 53.320251 -25.586800
v -5.428813 61.026642 -27.043861
v -7.540667 58.828773 -30.277260
v -28.758720 45.115166 -8.911304
v -26.058216 48.488388 -9.947661
v -33.081703 49.740334 -5.121569
v -30.381199 53.113560 -6.157925
v -26.004068 39.613686 -7.131266
v -24.607250 43.169750 -4.862192
v -32.158085 39.436005 -3.064454
v -30.761269 42.992069 -0.795380
v -17.086252 27.865955 -17.437378
v -19.132103 28.110294 -13.500347
v -19.480993 20.934526 -18.251612
v -21.526842 21.178864 -14.314583
v -0.786333 27.045460 10.642445
v -4.254143 24.435894 11.596323
v -4.110111 32.698570 14.024357
v -7.577920 30.089005 14.978235
v 24.250032 43.749001 -23.134623
v 27.903374 44.890778 -20.877441
v 25.630171 49.067764 -28.058895
v 29.283512 50.209541 -25.801716
v -18.929218 42.558311 -14.143524
v -20.062773 45.385521 -10.908195
v -25.694664 43.147404 -17.028696
v -26.828217 45.974613 -13.793365
v -9.962281 44.218994 -4.213769
v -9.902834 45.765900 -0.048562
v -17.217642 45.507973 -4.588928
v -17.158195 47.054882 -0.423721
v 25.779003 -5.265186 2.148312
v 26.104040 -6.085030 6.503496
v 31.926775 -9.166904 0.955012
v 32.251812 -9.986752 5.310196
v 34.532368 13.288738 15.180578
v 31.506393 12.365690 18.300976
v 39.514450 14.713442 20.433348
v 36.488472 13.790394 23.553743
v 8.335114 -0.547962 -9.981675
v 9.094285 -3.689842 -6.932467
v 11.328865 -4.858250 -15.168327
v 12.088037 -8.000134 -12.119120
v 8.513819 8.475430 -18.317356
v 8.366188 11.485176 -21.583097
v 4.224145 3.965473 -22.279865
v 4.076515 6.975218 -25.545607
v -4.652999 19.348251 22.748619
v -5.467964 23.588863 23.796692
v -2.478608 18.053152 29.679508
v -3.293574 22.293762 30.727581
v 9.320241 11.413940 -32.850967
v 7.037053 14.864721 -34.471024
v 5.616846 6.863136 -37.325058
v 3.333658 10.313915 -38.945118
v -19.265102 16.336899 -25.560135
v -21.813755 19.800722 -24.441330
v -25.307608 12.364964 -27.027905
v -27.856258 15.828787 -25.909100
v -0.227875 14.015560 16.327242
v 2.708623 13.684011 19.645748
v -3.796613 8.089077 18.893059
v -0.860115 7.757530 22.211567
v -13.871169 27.831495 -18.784697
v -11.805588 24.977335 -21.492565
v -14.177834 32.787510 -24.242384
v -12.112253 29.933350 -26.950253
v -15.563009 48.343395 -25.547525
v -18.583065 47.535858 -22.389591
v -20.728846 47.395966 -30.730093
v -23.748901 46.588425 -27.572157
v 18.575024 44.920258 1.628888
v 20.942020 44.668056 -2.123330
v 24.520668 42.920738 5.513951
v 26.887665 42.668537 1.761733
v 23.349924 41.877861 -10.684857
v 26.409433 40.359249 -13.527150
v 28.570539 42.785706 -5.550320
v 31.630049 41.267097 -8.392613
v 13.782487 41.051685 4.307938
v 18.017637 42.387787 4.462030
v 12.956240 42.850960 11.415850
v 17.191391 44.187057 11.569941
v -2.816355 25.220350 23.086176
v -2.506677 29.631977 22.653679
v -0.567354 25.749456 30.093636
v -0.257676 30.161083 29.661140
v -11.022728 22.948292 -16.751232
v -8.693892 19.816187 -18.875345
v -14.431932 24.690924 -23.058609
v -12.103098 21.558819 -25.182724
v -12.932445 48.698631 -20.457779
v -14.054314 51.884552 -17.570440
v -19.236216 49.806091 -24.129084
v -20.358086 52.992012 -21.241745
v 17.728157 40.897690 -17.344776
v 13.941417 43.060921 -16.492455
v 16.389626 41.406479 -24.583004
v 12.602884 43.569706 -23.730682
v -13.381314 43.423908 11.246128
v -11.006613 47.167870 10.947844
v -16.482300 45.886803 17.471922
v -14.107599 49.630760 17.173637
v -0.926248 51.772816 7.158785
v 3.077582 51.786415 9.086110
v -4.087113 52.974995 13.716696
v -0.083283 52.988598 15.644021
v 8.160132 47.553917 14.600647
v 10.932189 50.321243 12.502308
v 10.328675 50.305565 21.094362
v 13.100733 53.072887 18.996025
v -18.293173 24.735126 -12.770310
v -16.846016 20.606369 -13.547827
v -22.720480 24.291759 -18.656298
v -21.273325 20.163002 -19.433815
v 42.033073 41.507225 -13.086153
v 42.704144 40.076469 -8.933081
v 47.035255 46.833275 -12.059579
v 47.706329 45.402519 -7.906507
v 19.021547 18.238632 12.452375
v 17.577724 16.091431 16.064899
v 25.872761 18.240299 15.191605
v 24.428936 16.093098 18.804129
v -2.453611 12.320265 14.495819
v -5.546195 12.313568 17.686634
v 1.594087 7.550941 18.408897
v -1.498497 7.544245 21.599712
v 26.174187 24.446213 -1.600095
v 28.405323 24.702757 2.234178
v 32.549782 24.502071 -5.313745
v 34.780918 24.758615 -1.479472
v 10.294163 26.450893 17.027979
v 10.783323 30.440622 18.922235
v 16.219732 23.993469 20.673685
v 16.708891 27.983196 22.567942
v 23.820419 37.767673 -22.651339
v 23.725067 41.771290 -24.576794
v 27.317978 35.019691 -28.538460
v 27.222624 39.023308 -30.463915
v 34.263458 38.050209 -16.626757
v 36.144230 34.627731 -14.506670
v 40.694885 41.664429 -16.497738
v 42.575661 38.241951 -14.377651
v -23.512119 39.545883 -3.341935
v -25.188309 35.430595 -3.356543
v -29.696983 42.076130 -6.470480
v -31.373173 37.960842 -6.485087
v 26.616467 15.804401 -18.944466
v 28.715569 14.356810 -15.305281
v 32.777248 14.829012 -22.886026
v 34.876350 13.381422 -19.246841
v -5.889214 45.822815 12.311321
v -2.561589 48.755325 12.041640
v -4.806500 45.263451 19.588499
v -1.478876 48.195957 19.318817
v 28.528242 26.946646 21.442696
v 25.146240 24.894157 23.466246
v 31.588360 28.372662 28.003538
v 28.206358 26.320173 30.027088
v 0.176688 13.119766 6.863862
v -3.119554 10.775780 5.023774
v -1.776825 10.633415 13.530518
v -5.073067 8.289427 11.690431
v -0.016798 21.528536 25.493345
v 4.368910 20.862202 25.752155
v -1.177743 15.445377 29.504564
v 3.207965 14.779041 29.763374
v -10.040075 26.518158 -10.165458
v -11.519672 30.503851 -11.457919
v -15.297077 26.243179 -4.995271
v -16.776674 30.228872 -6.287732
v 33.404839 11.646349 -1.498223
v 30.631716 10.149170 1.634456
v 39.164764 9.374821 2.514987
v 36.391644 7.877642 5.647665
v 6.809849 26.052010 -32.967369
v 11.137573 25.314976 -33.655117
v 5.975914 27.799171 -40.087376
v 10.303639 27.062140 -40.775116
vn 0.1807 -0.9193 0.3496
vn 0.3022 0.8972 0.3222
vn 0.5368 0.8419 0.0560
vn -0.0818 0.8710 -0.4845
vn -0.7615 0.1386 0.6332
vn -0.5638 0.4462 -0.6950
vn 0.5856 -0.7176 0.3769
vn 0.7761 -0.3244 -0.5408
vn 0.2985 0.5076 -0.8082
vn -0.1475 0.9836 0.1038
vn -0.8222 -0.2214 -0.5244
vn -0.6531 0.3141 -0.6891
vn -0.3909 -0.2632 -0.8820
vn 0.3994 0.8594 0.3191
vn -0.3574 0.3612 0.8613
vn 0.2040 0.8260 0.5255
vn -0.3312 -0.8842 0.3293
vn 0.1054 -0.9832 0.1487
vn -0.7218 0.1747 -0.6697
vn -0.0555 -0.6460 0.7614
vn -0.6071 -0.0817 -0.7904
vn -0.0405 -0.9887 0.1441
vn 0.2324 0.8595 0.4552
vn 0.4249 -0.6410 -0.6392
vn -0.1270 -0.2188 0.9675
vn 0.3972 0.9141 -0.0815
vn -0.7108 0.1013 0.6961
vn -0.7301 -0.5034 0.4621
vn -0.0811 0.9879 0.1321
vn 0.7879 -0.5971 0.1506
vn 0.0410 0.9120 -0.4082
vn 0.0381 0.4665 0.8837
vn 0.1146 -0.5984 -0.7930
vn -0.2524 0.7584 0.6009
vn 0.6329 0.7690 -0.0896
vn -0.3652 -0.8842 0.2914
vn -0.0193 0.7785 0.6273
vn -0.1269 0.9173 -0.3774
vn -0.3556 0.4934 0.7938
vn 0.2588 -0.8899 -0.3757
vn -0.1035 -0.9459 -0.3076
vn -0.2923 -0.9192 -0.2641
vn 0.6511 -0.7497 -0.1182
vn 0.6583 0.1890 -0.7287
vn -0.4544 0.8315 -0.3194
vn -0.9818 -0.1893 0.0143
vn 0.0338 0.9690 0.2448
vn 0.5034 -0.8567 0.1121
vn -0.0425 0.8851 -0.4635
vn -0.5560 0.7582 -0.3407
vn 0.5439 0.7201 0.4309
vn -0.2015 0.9292 0.3098
vn -0.0634 -0.9840 0.1666
vn -0.6167 -0.6678 0.4169
vn 0.4313 0.5112 0.7434
vn -0.5491 -0.6344 0.5441
vn 0.6438 0.2932 -0.7068
vn -0.7553 -0.6544 -0.0347
vn -0.9391 0.3148 -0.1379
vn -0.3258 -0.8853 -0.3319
vn 0.0208 -0.1587 0.9871
vn -0.3805 -0.9059 0.1858
vn 0.7297 -0.6824 0.0430
vn -0.8287 -0.5586 0.0345
vn -0.9201 -0.0677 -0.3859
vn -0.8342 -0.2949 -0.4660
vn 0.8764 -0.0727 -0.4761
vn 0.3431 0.9089 0.2369
vn 0.3004 -0.0177 -0.9537
vn 0.4373 0.8837 -0.1668
vn 0.7905 0.2694 0.5500
vn -0.2821 0.8743 0.3950
vn 0.6337 0.7203 0.2822
vn -0.4904 -0.0962 -0.8662
vn 0.1838 0.9829 -0.0049
vn -0.2102 0.3918 -0.8957
vn -0.0855 -0.8806 0.4661
vn -0.2242 -0.8431 0.4888
vn 0.3642 -0.7610 -0.5369
vn 0.3107 0.9232 -0.2261
vn 0.3674 0.8818 -0.2958
vn 0.6431 -0.4164 -0.6427
vn 0.4238 0.8109 -0.4035
vn -0.2451 -0.8322 -0.4974
vn 0.3681 -0.8432 -0.3918
vn -0.4390 0.4539 0.7754
vn 0.0073 0.9706 0.2408
vn 0.5550 -0.6944 0.4580
vn -0.4190 0.4354 -0.7968
vn -0.3553 0.8729 -0.3343
vn 0.4552 -0.3980 -0.7965
vn -0.3651 -0.8720 0.3262
vn 0.0730 0.9075 -0.4137
vn -0.8072 -0.4491 0.3831
vn 0.5641 0.7968 -0.2168
vn -0.7629 0.3419 -0.5487
vn -0.2360 -0.6193 0.7488
vn -0.4578 -0.6129 -0.6440
vn -0.4227 0.3586 -0.8323
vn -0.9856 0.1680 0.0194
vn -0.1365 0.0285 -0.9902
vn -0.3945 0.1716 0.9027
vn -0.8499 -0.5064 0.1457
vn -0.1428 0.7320 0.6662
vn 0.3012 0.8197 -0.4872
vn 0.3055 -0.0658 -0.9499
vn -0.4155 0.3497 -0.8397
vn 0.6062 -0.3471 0.7155
vn -0.5818 0.0085 0.8133
vn 0.0553 -0.2038 0.9774
vn -0.8021 -0.1196 -0.5851
vn -0.1635 0.6087 0.7764
vn 0.2444 -0.8847 -0.3968
vn -0.9047 0.4257 0.0172
vn 0.1748 0.3632 0.9152
vn -0.3943 -0.8688 0.2995
vn 0.7492 -0.3247 -0.5773
vn -0.6845 0.5680 -0.4570
vn 0.1837 0.7104 0.6794
vn -0.3551 0.8290 0.4321
vn -0.4003 -0.4370 -0.8055
vn -0.4875 -0.7725 -0.4070
vn -0.0261 -0.9900 -0.1386
vn 0.9934 -0.0122 0.1138
vn 0.3297 0.5002 0.8007
vn 0.4430 0.1242 -0.8879
vn -0.1570 0.9672 0.1997
vn 0.4280 0.6944 0.5784
vn 0.0986 0.7232 0.6835
vn 0.4995 0.8133 -0.2983
vn -0.1138 0.9567 0.2678
vn -0.0672 0.5961 0.8001
vn -0.5006 0.8643 0.0491
vn 0.4345 0.8873 0.1548
vn 0.8744 0.4021 -0.2717
vn -0.2197 0.8721 0.4373
vn 0.2283 -0.9428 0.2428
vn -0.0845 0.9130 0.3991
vn -0.3499 -0.9069 -0.2346
vn 0.1129 0.9776 0.1777
vn 0.4997 -0.3295 0.8011
vn -0.4162 0.8679 0.2711
vn 0.1433 0.4622 -0.8751
vn -0.4821 -0.7925 -0.3735
vn 0.2333 -0.3370 0.9121
vn -0.1931 -0.9539 -0.2299
vn -0.6142 -0.5483 0.5676
vn 0.2238 0.5112 -0.8298
vn 0.1386 0.9489 -0.2834
vn -0.6512 -0.7337 -0.1937
vn -0.2306 0.6490 0.7250
vn -0.6330 0.3295 0.7006
vn 0.4064 -0.6370 -0.6550
vn -0.2094 -0.9618 0.1766
vn 0.4709 0.8796 0.0679
vn -0.6140 0.3274 0.7182
vn -0.8414 0.3957 0.3680
vn 0.3475 -0.9346 0.0764
vn 0.8577 -0.4450 -0.2577
vn 0.5361 -0.1755 0.8257
vn 0.4534 -0.5992 0.6599
vn 0.8263 -0.3384 0.4504
vn -0.4336 0.2610 -0.8625
vn -0.5376 0.6437 0.5446
vn -0.3069 -0.7673 0.5630
vn -0.1814 -0.9210 0.3446
vn 0.5481 0.8285 0.1150
vn -0.2835 0.9589 0.0088
vn 0.8979 0.3985 0.1871
vn -0.8130 0.4094 0.4141
vn 0.9378 0.2418 -0.2490
vn -0.6958 -0.1286 0.7067
vn -0.0195 -0.3203 0.9471
vn 0.5739 -0.5910 -0.5669
vn 0.8844 0.3692 0.2855
vn 0.2189 -0.9749 -0.0400
vn -0.2587 -0.9609 -0.0986
vn -0.1591 -0.9317 0.3265
vn 0.2812 -0.9220 0.2661
vn 0.9499 -0.0959 -0.2976
vn 0.7154 0.6689 -0.2019
vn -0.4543 -0.6808 0.5746
vn -0.4908 -0.8708 0.0296
vn 0.7333 -0.4227 0.5325
vn -0.0679 -0.9866 0.1481
vn 0.7242 -0.6878 0.0496
vn 0.7307 0.3648 -0.5771
vn -0.7194 0.6126 0.3273
vn -0.1796 0.8755 0.4486
vn 0.4633 0.7630 0.4507
vn -0.0356 0.9983 -0.0461
vn 0.5856 0.2880 -0.7577
vn -0.8803 -0.2225 -0.4191
vn -0.2472 0.4085 0.8787
vn 0.3938 -0.1572 -0.9057
vn 0.2823 0.9362 0.2096
vn 0.6463 -0.7475 -0.1536
vn -0.4987 0.8656 0.0445
vn -0.6161 0.7799 0.1103
vn -0.0335 -0.5457 -0.8373
vn 0.6177 0.4405 0.6515
vn 0.0338 0.8898 0.4551
vn 0.1967 0.9573 0.2119
vt 0.000000 0.000000
vt 1.000000 0.000000
vt 1.000000 1.000000
vt 0.000000 1.000000
s 0
usemtl マテリアル
f 21/1/6 22/2/6 24/3/6 23/4/6
f 25/1/7 26/2/7 28/3/7 27/4/7
f 213/1/54 214/2/54 216/3/54 215/4/54
f 253/1/64 254/2/64 256/3/64 255/4/64
f 337/1/85 338/2/85 340/3/85 339/4/85
f 357/1/90 358/2/90 360/3/90 359/4/90
f 373/1/94 374/2/94 376/3/94 375/4/94
f 393/1/99 394/2/99 396/3/99 395/4/99
f 397/1/100 398/2/100 400/3/100 399/4/100
f 441/1/111 442/2/111 444/3/111 443/4/111
f 521/1/131 522/2/131 524/3/131 523/4/131
f 525/1/132 526/2/132 528/3/132 527/4/132
f 585/1/147 586/2/147 588/3/147 587/4/147
f 621/1/156 622/2/156 624/3/156 623/4/156
f 637/1/160 638/2/160 640/3/160 639/4/160
f 669/1/168 670/2/168 672/3/168 671/4/168
f 701/1/176 702/2/176 704/3/176 703/4/176
f 749/1/188 750/2/188 752/3/188 751/4/188
f 789/1/198 790/2/198 792/3/198 791/4/198
f 797/1/200 798/2/200 800/3/200 799/4/200
f 805/1/202 806/2/202 808/3/202 807/4/202
usemtl マテリアル.001
f 53/1/14 54/2/14 56/3/14 55/4/14
f 89/1/23 90/2/23 92/3/23 91/4/23
f 153/1/39 154/2/39 156/3/39 155/4/39
f 157/1/40 158/2/40 160/3/40 159/4/40
f 281/1/71 282/2/71 284/3/71 283/4/71
f 289/1/73 290/2/73 292/3/73 291/4/73
f 313/1/79 314/2/79 316/3/79 315/4/79
f 325/1/82 326/2/82 328/3/82 327/4/82
f 353/1/89 354/2/89 356/3/89 355/4/89
f 449/1/113 450/2/113 452/3/113 451/4/113
f 461/1/116 462/2/116 464/3/116 463/4/116
f 465/1/117 466/2/117 468/3/117 467/4/117
f 473/1/119 474/2/119 476/3/119 475/4/119
f 493/1/124 494/2/124 496/3/124 495/4/124
f 497/1/125 498/2/125 500/3/125 499/4/125
f 545/1/137 546/2/137 548/3/137 547/4/137
f 569/1/143 570/2/143 572/3/143 571/4/143
f 589/1/148 590/2/148 592/3/148 591/4/148
f 633/1/159 634/2/159 636/3/159 635/4/159
f 689/1/173 690/2/173 692/3/173 691/4/173
f 733/1/184 734/2/184 736/3/184 735/4/184
f 741/1/186 742/2/186 744/3/186 743/4/186
f 781/1/196 782/2/196 784/3/196 783/4/196
usemtl マテリアル.002
f 9/1/3 10/2/3 12/3/3 11/4/3
f 29/1/8 30/2/8 32/3/8 31/4/8
f 37/1/10 38/2/10 40/3/10 39/4/10
f 61/1/16 62/2/16 64/3/16 63/4/16
f 69/1/18 70/2/18 72/3/18 71/4/18
f 85/1/22 86/2/22 88/3/22 87/4/22
f 161/1/41 162/2/41 164/3/41 163/4/41
f 165/1/42 166/2/42 168/3/42 167/4/42
f 201/1/51 202/2/51 204/3/51 203/4/51
f 269/1/68 270/2/68 272/3/68 271/4/68
f 273/1/69 274/2/69 276/3/69 275/4/69
f 317/1/80 318/2/80 320/3/80 319/4/80
f 413/1/104 414/2/104 416/3/104 415/4/104
f 437/1/110 438/2/110 440/3/110 439/4/110
f 481/1/121 482/2/121 484/3/121 483/4/121
f 501/1/126 502/2/126 504/3/126 503/4/126
f 533/1/134 534/2/134 536/3/134 535/4/134
f 553/1/139 554/2/139 556/3/139 555/4/139
f 557/1/140 558/2/140 560/3/140 559/4/140
f 577/1/145 578/2/145 580/3/145 579/4/145
f 609/1/153 610/2/153 612/3/153 611/4/153
f 617/1/155 618/2/155 620/3/155 619/4/155
f 641/1/161 642/2/161 644/3/161 643/4/161
f 677/1/170 678/2/170 680/3/170 679/4/170
f 681/1/171 682/2/171 684/3/171 683/4/171
f 685/1/172 686/2/172 688/3/172 687/4/172
f 717/1/180 718/2/180 720/3/180 719/4/180
f 737/1/185 738/2/185 740/3/185 739/4/185
f 745/1/187 746/2/187 748/3/187 747/4/187
usemtl マテリアル.003
f 109/1/28 110/2/28 112/3/28 111/4/28
f 137/1/35 138/2/35 140/3/35 139/4/35
f 277/1/70 278/2/70 280/3/70 279/4/70
f 309/1/78 310/2/78 312/3/78 311/4/78
f 361/1/91 362/2/91 364/3/91 363/4/91
f 537/1/135 538/2/135 540/3/135 539/4/135
f 549/1/138 550/2/138 552/3/138 551/4/138
f 629/1/158 630/2/158 632/3/158 631/4/158
f 661/1/166 662/2/166 664/3/166 663/4/166
f 721/1/181 722/2/181 724/3/181 723/4/181
f 765/1/192 766/2/192 768/3/192 767/4/192
f 777/1/195 778/2/195 780/3/195 779/4/195
f 809/1/203 810/2/203 812/3/203 811/4/203
usemtl マテリアル.004
f 49/1/13 50/2/13 52/3/13 51/4/13
f 73/1/19 74/2/19 76/3/19 75/4/19
f 81/1/21 82/2/21 84/3/21 83/4/21
f 101/1/26 102/2/26 104/3/26 103/4/26
f 129/1/33 130/2/33 132/3/33 131/4/33
f 141/1/36 142/2/36 144/3/36 143/4/36
f 149/1/38 150/2/38 152/3/38 151/4/38
f 173/1/44 174/2/44 176/3/44 175/4/44
f 293/1/74 294/2/74 296/3/74 295/4/74
f 301/1/76 302/2/76 304/3/76 303/4/76
f 321/1/81 322/2/81 324/3/81 323/4/81
f 329/1/83 330/2/83 332/3/83 331/4/83
f 341/1/86 342/2/86 344/3/86 343/4/86
f 365/1/92 366/2/92 368/3/92 367/4/92
f 389/1/98 390/2/98 392/3/98 391/4/98
f 409/1/103 410/2/103 412/3/103 411/4/103
f 417/1/105 418/2/105 420/3/105 419/4/105
f 421/1/106 422/2/106 424/3/106 423/4/106
f 597/1/150 598/2/150 600/3/150 599/4/150
f 613/1/154 614/2/154 616/3/154 615/4/154
f 625/1/157 626/2/157 628/3/157 627/4/157
f 645/1/162 646/2/162 648/3/162 647/4/162
f 697/1/175 698/2/175 700/3/175 699/4/175
f 705/1/177 706/2/177 708/3/177 707/4/177
f 729/1/183 730/2/183 732/3/183 731/4/183
f 785/1/197 786/2/197 788/3/197 787/4/197
f 801/1/201 802/2/201 804/3/201 803/4/201
usemtl マテリアル.005
f 13/1/4 14/2/4 16/3/4 15/4/4
f 33/1/9 34/2/9 36/3/9 35/4/9
f 65/1/17 66/2/17 68/3/17 67/4/17
f 97/1/25 98/2/25 100/3/25 99/4/25
f 117/1/30 118/2/30 120/3/30 119/4/30
f 121/1/31 122/2/31 124/3/31 123/4/31
f 193/1/49 194/2/49 196/3/49 195/4/49
f 221/1/56 222/2/56 224/3/56 223/4/56
f 225/1/57 226/2/57 228/3/57 227/4/57
f 229/1/58 230/2/58 232/3/58 231/4/58
f 245/1/62 246/2/62 248/3/62 247/4/62
f 257/1/65 258/2/65 260/3/65 259/4/65
f 349/1/88 350/2/88 352/3/88 351/4/88
f 369/1/93 370/2/93 372/3/93 371/4/93
f 401/1/101 402/2/101 404/3/101 403/4/101
f 429/1/108 430/2/108 432/3/108 431/4/108
f 517/1/130 518/2/130 520/3/130 519/4/130
f 565/1/142 566/2/142 568/3/142 567/4/142
f 593/1/149 594/2/149 596/3/149 595/4/149
f 649/1/163 650/2/163 652/3/163 651/4/163
usemtl マテリアル.006
f 1/1/1 2/2/1 4/3/1 3/4/1
f 5/1/2 6/2/2 8/3/2 7/4/2
f 113/1/29 114/2/29 116/3/29 115/4/29
f 169/1/43 170/2/43 172/3/43 171/4/43
f 185/1/47 186/2/47 188/3/47 187/4/47
f 197/1/50 198/2/50 200/3/50 199/4/50
f 249/1/63 250/2/63 252/3/63 251/4/63
f 377/1/95 378/2/95 380/3/95 379/4/95
f 469/1/118 470/2/118 472/3/118 471/4/118
f 513/1/129 514/2/129 516/3/129 515/4/129
f 561/1/141 562/2/141 564/3/141 563/4/141
f 709/1/178 710/2/178 712/3/178 711/4/178
f 713/1/179 714/2/179 716/3/179 715/4/179
usemtl マテリアル.007
f 41/1/11 42/2/11 44/3/11 43/4/11
f 93/1/24 94/2/24 96/3/24 95/4/24
f 105/1/27 106/2/27 108/3/27 107/4/27
f 177/1/45 178/2/45 180/3/45 179/4/45
f 189/1/48 190/2/48 192/3/48 191/4/48
f 209/1/53 210/2/53 212/3/53 211/4/53
f 305/1/77 306/2/77 308/3/77 307/4/77
f 381/1/96 382/2/96 384/3/96 383/4/96
f 385/1/97 386/2/97 388/3/97 387/4/97
f 453/1/114 454/2/114 456/3/114 455/4/114
f 529/1/133 530/2/133 532/3/133 531/4/133
f 573/1/144 574/2/144 576/3/144 575/4/144
f 769/1/193 770/2/193 772/3/193 771/4/193
f 793/1/199 794/2/199 796/3/199 795/4/199
usemtl マテリアル.008
f 45/1/12 46/2/12 48/3/12 47/4/12
f 57/1/15 58/2/15 60/3/15 59/4/15
f 125/1/32 126/2/32 128/3/32 127/4/32
f 133/1/34 134/2/34 136/3/34 135/4/34
f 145/1/37 146/2/37 148/3/37 147/4/37
f 181/1/46 182/2/46 184/3/46 183/4/46
f 205/1/52 206/2/52 208/3/52 207/4/52
f 233/1/59 234/2/59 236/3/59 235/4/59
f 237/1/60 238/2/60 240/3/60 239/4/60
f 241/1/61 242/2/61 244/3/61 243/4/61
f 261/1/66 262/2/66 264/3/66 263/4/66
f 285/1/72 286/2/72 288/3/72 287/4/72
f 297/1/75 298/2/75 300/3/75 299/4/75
f 345/1/87 346/2/87 348/3/87 347/4/87
f 405/1/102 406/2/102 408/3/102 407/4/102
f 433/1/109 434/2/109 436/3/109 435/4/109
f 445/1/112 446/2/112 448/3/112 447/4/112
f 477/1/120 478/2/120 480/3/120 479/4/120
f 489/1/123 490/2/123 492/3/123 491/4/123
f 541/1/136 542/2/136 544/3/136 543/4/136
f 581/1/146 582/2/146 584/3/146 583/4/146
f 601/1/151 602/2/151 604/3/151 603/4/151
f 605/1/152 606/2/152 608/3/152 607/4/152
f 657/1/165 658/2/165 660/3/165 659/4/165
f 665/1/167 666/2/167 668/3/167 667/4/167
f 725/1/182 726/2/182 728/3/182 727/4/182
f 773/1/194 774/2/194 776/3/194 775/4/194
usemtl マテリアル.009
f 17/1/5 18/2/5 20/3/5 19/4/5
f 77/1/20 78/2/20 80/3/20 79/4/20
f 217/1/55 218/2/55 220/3/55 219/4/55
f 265/1/67 266/2/67 268/3/67 267/4/67
f 333/1/84 334/2/84 336/3/84 335/4/84
f 425/1/107 426/2/107 428/3/107 427/4/107
f 457/1/115 458/2/115 460/3/115 459/4/115
f 485/1/122 486/2/122 488/3/122 487/4/122
f 505/1/127 506/2/127 508/3/127 507/4/127
f 509/1/128 510/2/128 512/3/128 511/4/128
f 653/1/164 654/2/164 656/3/164 655/4/164
f 673/1/169 674/2/169 676/3/169 675/4/169
f 693/1/174 694/2/174 696/3/174 695/4/174
f 753/1/189 754/2/189 756/3/189 755/4/189
f 757/1/190 758/2/190 760/3/190 759/4/190
f 761/1/191 762/2/191 764/3/191 763/4/191
o field
v -41.204662 -0.997147 41.204662
v -41.204662 81.412170 41.204662
v -41.204662 -0.997147 -41.204662
v -41.204662 81.412170 -41.204662
v 41.204662 -0.997147 41.204662
v 41.204662 81.412170 41.204662
v 41.204662 -0.997147 -41.204662
v 41.204662 81.412170 -41.204662
vn 1.0000 -0.0000 -0.0000
vn -0.0000 -0.0000 1.0000
vn -1.0000 -0.0000 -0.0000
vn -0.0000 -0.0000 -1.0000
vn -0.0000 1.0000 -0.0000
vn -0.0000 -1.0000 -0.0000
vt -29.287655 8.043045
vt -14.384672 8.006298
vt -14.421415 -6.896684
vt -29.324398 -6.859937
vt 0.518313 7.969559
vt 0.481566 -6.933427
vt 15.421292 7.932816
vt 15.384549 -6.970170
vt 30.324278 7.896069
vt 30.287533 -7.006914
vt 0.555056 22.872538
vt 15.458039 22.835796
vt 15.347806 -21.873152
vt 0.444821 -21.836407
s 0
usemtl マテリアル.010
f 813/5/204 815/6/204 816/7/204 814/8/204
f 815/6/205 819/9/205 820/10/205 816/7/205
f 819/9/206 817/11/206 818/12/206 820/10/206
f 817/11/207 813/13/207 814/14/207 818/12/207
f 815/15/208 813/16/208 817/11/208 819/9/208
f 820/10/209 818/12/209 814/17/209 816/18/209
o 平面.008
v -16.084560 29.386702 9.902136
v -18.204403 29.138426 6.004696
v -16.084560 36.750290 9.433060
v -18.204403 36.502014 5.535619
vn 0.8789 -0.0303 -0.4761
vt 0.000000 0.000000
vt 1.000000 0.000000
vt 1.000000 1.000000
vt 0.000000 1.000000
s 0
usemtl マテリアル
f 821/19/210 822/20/210 824/21/210 823/22/210
o 平面.001
v -16.084560 29.386702 2.955405
v -18.204403 29.138426 -0.942036
v -16.084560 36.750290 2.486328
v -18.204403 36.502014 -1.411112
vn 0.8789 -0.0303 -0.4761
vt 0.000000 0.000000
vt 1.000000 0.000000
vt 1.000000 1.000000
vt 0.000000 1.000000
s 0
usemtl マテリアル.001
f 825/23/211 826/24/211 828/25/211 827/26/211
o 平面.002
v -16.084560 20.959192 9.902136
v -18.204403 20.710917 6.004696
v -16.084560 28.322783 9.433060
v -18.204403 28.074507 5.535619
vn 0.8789 -0.0303 -0.4761
vt 0.000000 0.000000
vt 1.000000 0.000000
vt 1.000000 1.000000
vt 0.000000 1.000000
s 0
usemtl マテリアル.002
f 829/27/212 830/28/212 832/29/212 831/30/212
o 平面.003
v -16.084560 20.959192 2.955405
v -18.204403 20.710917 -0.942036
v -16.084560 28.322783 2.486328
v -18.204403 28.074507 -1.411112
vn 0.8789 -0.0303 -0.4761
vt 0.000000 0.000000
vt 1.000000 0.000000
vt 1.000000 1.000000
vt 0.000000 1.000000
s 0
usemtl マテリアル.003
f 833/31/213 834/32/213 836/33/213 835/34/213
o 平面.004
v -16.084560 11.558258 9.902136
v -18.204403 11.309983 6.004696
v -16.084560 18.921848 9.433060
v -18.204403 18.673573 5.535619
vn 0.8789 -0.0303 -0.4761
vt 0.000000 0.000000
vt 1.000000 0.000000
vt 1.000000 1.000000
vt 0.000000 1.000000
s 0
usemtl マテリアル.004
f 837/35/214 838/36/214 840/37/214 839/38/214
o 平面.005
v -16.084560 11.558258 2.955405
v -18.204403 11.309983 -0.942036
v -16.084560 18.921848 2.486328
v -18.204403 18.673573 -1.411112
vn 0.8789 -0.0303 -0.4761
vt 0.000000 0.000000
vt 1.000000 0.000000
vt 1.000000 1.000000
vt 0.000000 1.000000
s 0
usemtl マテリアル.005
f 841/39/215 842/40/215 844/41/215 843/42/215
o 平面.006
v -16.084560 11.558258 -3.230875
v -18.204403 11.309983 -7.128315
v -16.084560 18.921848 -3.699951
v -18.204403 18.673573 -7.597392
vn 0.8789 -0.0303 -0.4761
vt 0.000000 0.000000
vt 1.000000 0.000000
vt 1.000000 1.000000
vt 0.000000 1.000000
s 0
usemtl マテリアル.006
f 845/43/216 846/44/216 848/45/216 847/46/216
o 平面.007
v -16.084560 20.959192 -3.230875
v -18.204403 20.710917 -7.128315
v -16.084560 28.322783 -3.699951
v -18.204403 28.074507 -7.597392
vn 0.8789 -0.0303 -0.4761
vt 0.000000 0.000000
vt 1.000000 0.000000
vt 1.000000 1.000000
vt 0.000000 1.000000
s 0
usemtl マテリアル.007
f 849/47/217 850/48/217 852/49/217 851/50/217
o 平面.009
v -16.084560 29.386702 -3.230875
v -18.204403 29.138426 -7.128315
v -16.084560 36.750290 -3.699951
v -18.204403 36.502014 -7.597392
vn 0.8789 -0.0303 -0.4761
vt 0.000000 0.000000
vt 1.000000 0.000000
vt 1.000000 1.000000
vt 0.000000 1.000000
s 0
usemtl マテリアル.008
f 853/51/218 854/52/218 856/53/218 855/54/218
o 平面.010
v -16.084560 20.959192 -8.229525
v -18.204403 20.710917 -12.126966
v -16.084560 28.322783 -8.698602
v -18.204403 28.074507 -12.596043
vn 0.8789 -0.0303 -0.4761
vt 0.000000 0.000000
vt 1.000000 0.000000
vt 1.000000 1.000000
vt 0.000000 1.000000
s 0
usemtl マテリアル.009
f 857/55/219 858/56/219 860/57/219 859/58/219
