# Blender 4.4.1
# www.blender.org
mtllib needle.mtl
o 立方体.002
v -0.106302 -1.008953 0.337829
v -0.106302 -0.192369 0.337829
v -0.106302 -1.008953 0.072927
v -0.106302 -0.192369 0.072927
v 0.158599 -1.008953 0.337829
v 0.158599 -0.192369 0.337829
v 0.158599 -1.008953 0.072927
v 0.158599 -0.192369 0.072927
v -0.106302 -0.600661 0.337829
v -0.106302 -0.600661 0.072927
v 0.158599 -0.600661 0.072927
v 0.158599 -0.600661 0.337829
v -0.106302 -0.804807 0.072927
v 0.158599 -0.804807 0.072927
v 0.158599 -0.804807 0.337829
v -0.106302 -0.804807 0.337829
v -0.106302 -0.702734 0.337829
v -0.106302 -0.702734 0.072927
v 0.158599 -0.702734 0.072927
v 0.158599 -0.702734 0.337829
vn -1.0000 -0.0000 -0.0000
vn -0.0000 -0.0000 -1.0000
vn 1.0000 -0.0000 -0.0000
vn -0.0000 -0.0000 1.0000
vn -0.0000 -1.0000 -0.0000
vn -0.0000 1.0000 -0.0000
vt 0.546910 0.481497
vt 0.607058 0.361200
vt 0.607058 0.481497
vt 0.546910 0.361200
vt 0.607058 0.240903
vt 0.546910 0.240903
vt 0.607058 0.120606
vt 0.546910 0.120606
vt 0.607058 0.000309
vt 0.667207 0.240903
vt 0.787504 0.120606
vt 0.787504 0.240903
vt 0.426613 0.240903
vt 0.622095 0.000309
vt 0.622095 0.120606
vt 0.622095 0.240903
vt 0.622095 0.361200
vt 0.622095 0.481497
vt 0.637133 0.481497
vt 0.667207 0.361200
vt 0.667207 0.481497
vt 0.637133 0.361200
vt 0.637133 0.240903
vt 0.667207 0.120606
vt 0.637133 0.120606
vt 0.667207 0.000309
vt 0.637133 0.000309
vt 0.546910 0.000309
vt 0.426613 0.120606
s 0
usemtl マテリアル.002
f 2/1/1 10/2/1 9/3/1
f 4/4/2 11/5/2 10/2/2
f 8/6/3 12/7/3 11/5/3
f 6/8/4 9/9/4 12/7/4
f 7/10/5 1/11/5 3/12/5
f 4/13/6 6/8/6 8/6/6
f 12/7/4 17/14/4 20/15/4
f 11/5/3 20/15/3 19/16/3
f 10/2/2 19/16/2 18/17/2
f 9/3/1 18/17/1 17/18/1
f 16/19/1 3/20/1 1/21/1
f 13/22/2 7/10/2 3/20/2
f 14/23/3 5/24/3 7/10/3
f 15/25/4 1/26/4 5/24/4
f 17/18/1 13/22/1 16/19/1
f 18/17/2 14/23/2 13/22/2
f 19/16/3 15/25/3 14/23/3
f 20/15/4 16/27/4 15/25/4
f 2/1/1 4/4/1 10/2/1
f 4/4/2 8/6/2 11/5/2
f 8/6/3 6/8/3 12/7/3
f 6/8/4 2/28/4 9/9/4
f 7/10/5 5/24/5 1/11/5
f 4/13/6 2/29/6 6/8/6
f 12/7/4 9/9/4 17/14/4
f 11/5/3 12/7/3 20/15/3
f 10/2/2 11/5/2 19/16/2
f 9/3/1 10/2/1 18/17/1
f 16/19/1 13/22/1 3/20/1
f 13/22/2 14/23/2 7/10/2
f 14/23/3 15/25/3 5/24/3
f 15/25/4 16/27/4 1/26/4
f 17/18/1 18/17/1 13/22/1
f 18/17/2 19/16/2 14/23/2
f 19/16/3 20/15/3 15/25/3
f 20/15/4 17/14/4 16/27/4
o 立方体.003
v -0.106302 -1.008953 -0.072927
v -0.106302 -0.192369 -0.072927
v -0.106302 -1.008953 -0.337829
v -0.106302 -0.192369 -0.337829
v 0.158599 -1.008953 -0.072927
v 0.158599 -0.192369 -0.072927
v 0.158599 -1.008953 -0.337829
v 0.158599 -0.192369 -0.337829
v -0.106302 -0.600661 -0.072927
v -0.106302 -0.600661 -0.337829
v 0.158599 -0.600661 -0.337829
v 0.158599 -0.600661 -0.072927
v -0.106302 -0.804807 -0.337829
v 0.158599 -0.804807 -0.337829
v 0.158599 -0.804807 -0.072927
v -0.106302 -0.804807 -0.072927
v -0.106302 -0.702734 -0.072927
v -0.106302 -0.702734 -0.337829
v 0.158599 -0.702734 -0.337829
v 0.158599 -0.702734 -0.072927
vn -1.0000 -0.0000 -0.0000
vn -0.0000 -0.0000 -1.0000
vn 1.0000 -0.0000 -0.0000
vn -0.0000 -0.0000 1.0000
vn -0.0000 -1.0000 -0.0000
vn -0.0000 1.0000 -0.0000
vt 0.546910 0.963302
vt 0.607058 0.843005
vt 0.607058 0.963302
vt 0.546910 0.843005
vt 0.607058 0.722708
vt 0.546910 0.722708
vt 0.607058 0.602411
vt 0.546910 0.602411
vt 0.607058 0.482114
vt 0.667207 0.722708
vt 0.787504 0.602411
vt 0.787504 0.722708
vt 0.426613 0.722708
vt 0.622095 0.482114
vt 0.622095 0.602411
vt 0.622095 0.722708
vt 0.622095 0.843005
vt 0.622095 0.963302
vt 0.637133 0.963302
vt 0.667207 0.843005
vt 0.667207 0.963302
vt 0.637133 0.843005
vt 0.637133 0.722708
vt 0.667207 0.602411
vt 0.637133 0.602411
vt 0.667207 0.482114
vt 0.637133 0.482114
vt 0.546910 0.482114
vt 0.426613 0.602411
s 0
usemtl マテリアル.003
f 22/30/7 30/31/7 29/32/7
f 24/33/8 31/34/8 30/31/8
f 28/35/9 32/36/9 31/34/9
f 26/37/10 29/38/10 32/36/10
f 27/39/11 21/40/11 23/41/11
f 24/42/12 26/37/12 28/35/12
f 32/36/10 37/43/10 40/44/10
f 31/34/9 40/44/9 39/45/9
f 30/31/8 39/45/8 38/46/8
f 29/32/7 38/46/7 37/47/7
f 36/48/7 23/49/7 21/50/7
f 33/51/8 27/39/8 23/49/8
f 34/52/9 25/53/9 27/39/9
f 35/54/10 21/55/10 25/53/10
f 37/47/7 33/51/7 36/48/7
f 38/46/8 34/52/8 33/51/8
f 39/45/9 35/54/9 34/52/9
f 40/44/10 36/56/10 35/54/10
f 22/30/7 24/33/7 30/31/7
f 24/33/8 28/35/8 31/34/8
f 28/35/9 26/37/9 32/36/9
f 26/37/10 22/57/10 29/38/10
f 27/39/11 25/53/11 21/40/11
f 24/42/12 22/58/12 26/37/12
f 32/36/10 29/38/10 37/43/10
f 31/34/9 32/36/9 40/44/9
f 30/31/8 31/34/8 39/45/8
f 29/32/7 30/31/7 38/46/7
f 36/48/7 33/51/7 23/49/7
f 33/51/8 34/52/8 27/39/8
f 34/52/9 35/54/9 25/53/9
f 35/54/10 36/56/10 21/55/10
f 37/47/7 38/46/7 33/51/7
f 38/46/8 39/45/8 34/52/8
f 39/45/9 40/44/9 35/54/9
f 40/44/10 37/43/10 36/56/10
o 円錐.004
v 0.374535 -0.166827 -0.394215
v 0.374535 -0.243735 -0.386641
v 0.374535 -0.317687 -0.364208
v 0.374535 -0.385841 -0.327778
v 0.374535 -0.445579 -0.278752
v 0.374535 -0.494605 -0.219014
v 0.374535 -0.531034 -0.150860
v 0.374535 -0.553468 -0.076908
v 0.374535 -0.561042 0.000000
v 0.374535 -0.553468 0.076908
v 0.374535 -0.531034 0.150860
v 0.374535 -0.494605 0.219014
v 0.374535 -0.445579 0.278753
v 0.374535 -0.385841 0.327778
v 0.374535 -0.317687 0.364208
v 0.374535 -0.243735 0.386641
v 0.374535 -0.166827 0.394216
v 0.374535 -0.089919 0.386641
v 0.374535 -0.015967 0.364208
v 0.374535 0.052187 0.327778
v 0.374535 0.111926 0.278753
v 0.374535 0.160951 0.219014
v 0.374535 0.197381 0.150860
v 0.374535 0.219814 0.076908
v 0.374535 0.227389 0.000000
v 0.374535 0.219814 -0.076908
v 0.374535 0.197381 -0.150860
v 0.374535 0.160951 -0.219014
v 0.374535 0.111926 -0.278752
v 0.374535 0.052187 -0.327778
v 0.374535 -0.015967 -0.364208
v 0.374535 -0.089919 -0.386641
v 1.162966 -0.166827 0.000000
v 0.026149 0.196535 -0.394215
v 0.103056 0.196535 -0.386641
v 0.177008 0.196535 -0.364208
v 0.245163 0.196535 -0.327778
v 0.304901 0.196535 -0.278752
v 0.353927 0.196535 -0.219014
v 0.390356 0.196535 -0.150860
v 0.412789 0.196535 -0.076908
v 0.420364 0.196535 0.000000
v 0.412789 0.196535 0.076908
v 0.390356 0.196535 0.150860
v 0.353927 0.196535 0.219014
v 0.304901 0.196535 0.278753
v 0.245163 0.196535 0.327778
v 0.177008 0.196535 0.364208
v 0.103056 0.196535 0.386641
v 0.026149 0.196535 0.394216
v -0.050759 0.196535 0.386641
v -0.124711 0.196535 0.364208
v -0.192866 0.196535 0.327778
v -0.252604 0.196535 0.278753
v -0.301629 0.196535 0.219014
v -0.338059 0.196535 0.150860
v -0.360492 0.196535 0.076908
v -0.368067 0.196535 0.000000
v -0.360492 0.196535 -0.076908
v -0.338059 0.196535 -0.150860
v -0.301629 0.196535 -0.219014
v -0.252604 0.196535 -0.278752
v -0.192866 0.196535 -0.327778
v -0.124711 0.196535 -0.364208
v -0.050759 0.196535 -0.386641
v 0.026149 0.984966 0.000000
v 0.420364 0.227389 -0.394215
v 0.420364 -0.561042 -0.394215
v 0.420364 0.227389 0.394216
v 0.420364 -0.561042 0.394216
v -0.368067 0.227389 -0.394215
v -0.368067 -0.561042 -0.394215
v -0.368067 0.227389 0.394216
v -0.368067 -0.561042 0.394216
v 0.420364 -0.166827 -0.394215
v -0.368067 -0.166827 0.394216
v 0.420364 -0.166827 0.394216
v -0.368067 -0.166827 -0.394215
v -0.368067 -0.561042 0.000000
v 0.420364 0.227389 0.000000
v -0.368067 0.227389 0.000000
v 0.420364 -0.561042 0.000000
v 0.420364 -0.166827 0.000000
v -0.368067 -0.166827 0.000000
v -0.368067 -0.561042 0.197108
v 0.420364 0.227389 0.197108
v 0.420364 -0.166827 0.197108
v -0.368067 0.227389 0.197108
v 0.420364 -0.561042 0.197108
v -0.368067 -0.166827 0.197108
v -0.368067 0.227389 -0.197108
v 0.420364 -0.561042 -0.197108
v -0.368067 -0.166827 -0.197108
v -0.368067 -0.561042 -0.197108
v 0.420364 0.227389 -0.197108
v 0.420364 -0.166827 -0.197108
v -0.368067 0.030281 0.394216
v 0.420364 0.030281 -0.394215
v 0.420364 0.030281 0.394216
v -0.368067 0.030281 -0.394215
v 0.420364 0.030281 0.000000
v -0.368067 0.030281 0.000000
v -0.368067 0.030281 0.197108
v 0.420364 0.030281 0.197108
v 0.420364 0.030281 -0.197108
v -0.368067 0.030281 -0.197108
v 0.420364 -0.363935 -0.394215
v 0.420364 -0.363935 0.394216
v -0.368067 -0.363935 -0.394215
v -0.368067 -0.363935 0.394216
v -0.368067 -0.363935 0.000000
v 0.420364 -0.363935 0.000000
v -0.368067 -0.363935 0.197108
v 0.420364 -0.363935 0.197108
v 0.420364 -0.363935 -0.197108
v -0.368067 -0.363935 -0.197108
v -0.368067 0.227389 0.098554
v 0.420364 -0.561042 0.098554
v -0.368067 -0.166827 0.098554
v -0.368067 -0.561042 0.098554
v 0.420364 0.227389 0.098554
v 0.420364 -0.166827 0.098554
v 0.420364 0.030281 0.098554
v -0.368067 0.030281 0.098554
v 0.420364 -0.363935 0.098554
v -0.368067 -0.363935 0.098554
v -0.368067 -0.561042 -0.097104
v 0.420364 0.227389 -0.097104
v 0.420364 -0.166827 -0.097104
v -0.368067 0.227389 -0.097104
v 0.420364 -0.561042 -0.097104
v -0.368067 -0.166827 -0.097104
v -0.368067 0.030281 -0.097104
v 0.420364 0.030281 -0.097104
v -0.368067 -0.363935 -0.097104
v 0.420364 -0.363935 -0.097104
v 0.420364 -0.068273 -0.394215
v 0.420364 -0.068273 0.394216
v -0.368067 -0.068273 -0.394215
v 0.420364 -0.068273 0.000000
v -0.368067 -0.068273 0.000000
v -0.368067 -0.068273 0.197108
v 0.420364 -0.068273 0.197108
v 0.420364 -0.068273 -0.197108
v -0.368067 -0.068273 -0.197108
v -0.368067 -0.068273 0.394216
v -0.368067 -0.068273 0.098554
v 0.420364 -0.068273 0.098554
v 0.420364 -0.068273 -0.097104
v -0.368067 -0.068273 -0.097104
v -0.368067 -0.265381 0.394216
v 0.420364 -0.265381 -0.394215
v 0.420364 -0.265381 0.394216
v -0.368067 -0.265381 -0.394215
v -0.368067 -0.265381 0.000000
v 0.420364 -0.265381 0.000000
v -0.368067 -0.265381 0.197108
v 0.420364 -0.265381 0.197108
v 0.420364 -0.265381 -0.197108
v -0.368067 -0.265381 -0.197108
v 0.420364 -0.265381 0.098554
v -0.368067 -0.265381 0.098554
v -0.368067 -0.265381 -0.097104
v 0.420364 -0.265381 -0.097104
v -0.368067 0.128835 0.394216
v 0.420364 0.128835 -0.394215
v 0.420364 0.128835 0.394216
v -0.368067 0.128835 -0.394215
v 0.420364 0.128835 0.000000
v -0.368067 0.128835 0.000000
v -0.368067 0.128835 0.197108
v 0.420364 0.128835 0.197108
v 0.420364 0.128835 -0.197108
v -0.368067 0.128835 -0.197108
v 0.420364 0.128835 0.098554
v -0.368067 0.128835 0.098554
v -0.368067 0.128835 -0.097104
v 0.420364 0.128835 -0.097104
v 0.420364 -0.462489 -0.394215
v 0.420364 -0.462489 0.394216
v -0.368067 -0.462489 -0.394215
v -0.368067 -0.462489 0.000000
v 0.420364 -0.462489 0.000000
v -0.368067 -0.462489 0.197108
v 0.420364 -0.462489 0.197108
v 0.420364 -0.462489 -0.197108
v -0.368067 -0.462489 -0.197108
v -0.368067 -0.462489 0.394216
v -0.368067 -0.462489 0.098554
v 0.420364 -0.462489 0.098554
v 0.420364 -0.462489 -0.097104
v -0.368067 -0.462489 -0.097104
v -0.368067 -0.561042 0.295662
v 0.420364 0.227389 0.295662
v 0.420364 -0.166827 0.295662
v -0.368067 0.227389 0.295662
v 0.420364 -0.561042 0.295662
v -0.368067 -0.166827 0.295662
v -0.368067 0.030281 0.295662
v 0.420364 0.030281 0.295662
v -0.368067 -0.363935 0.295662
v 0.420364 -0.363935 0.295662
v 0.420364 -0.068273 0.295662
v -0.368067 -0.068273 0.295662
v -0.368067 -0.265381 0.295662
v 0.420364 -0.265381 0.295662
v -0.368067 0.128835 0.295662
v 0.420364 0.128835 0.295662
v 0.420364 -0.462489 0.295662
v -0.368067 -0.462489 0.295662
v -0.368067 0.227389 -0.295662
v 0.420364 -0.561042 -0.295662
v -0.368067 -0.166827 -0.295662
v -0.368067 -0.561042 -0.295662
v 0.420364 0.227389 -0.295662
v 0.420364 -0.166827 -0.295662
v 0.420364 0.030281 -0.295662
v -0.368067 0.030281 -0.295662
v 0.420364 -0.363935 -0.295662
v -0.368067 -0.363935 -0.295662
v -0.368067 -0.068273 -0.295662
v 0.420364 -0.068273 -0.295662
v 0.420364 -0.265381 -0.295662
v -0.368067 -0.265381 -0.295662
v 0.420364 0.128835 -0.295662
v -0.368067 0.128835 -0.295662
v -0.368067 -0.462489 -0.295662
v 0.420364 -0.462489 -0.295662
v 0.026149 -0.561042 -0.314994
v 0.103056 -0.553468 -0.314994
v 0.177008 -0.531034 -0.314994
v 0.245163 -0.494605 -0.314994
v 0.304901 -0.445579 -0.314994
v 0.353927 -0.385841 -0.314994
v 0.390356 -0.317687 -0.314994
v 0.412789 -0.243735 -0.314994
v 0.420364 -0.166827 -0.314994
v 0.412789 -0.089919 -0.314994
v 0.390356 -0.015967 -0.314994
v 0.353927 0.052187 -0.314994
v 0.304901 0.111926 -0.314994
v 0.245163 0.160951 -0.314994
v 0.177008 0.197381 -0.314994
v 0.103056 0.219814 -0.314994
v 0.026149 0.227389 -0.314994
v -0.050759 0.219814 -0.314994
v -0.124711 0.197381 -0.314994
v -0.192866 0.160951 -0.314994
v -0.252604 0.111925 -0.314994
v -0.301629 0.052187 -0.314994
v -0.338059 -0.015967 -0.314994
v -0.360492 -0.089919 -0.314994
v -0.368067 -0.166827 -0.314994
v -0.360492 -0.243735 -0.314994
v -0.338059 -0.317687 -0.314994
v -0.301629 -0.385841 -0.314994
v -0.252604 -0.445579 -0.314994
v -0.192866 -0.494605 -0.314994
v -0.124711 -0.531034 -0.314994
v -0.050759 -0.553468 -0.314994
v 0.026149 -0.166827 -1.103425
v 0.026149 0.227389 0.314995
v 0.103056 0.219814 0.314995
v 0.177008 0.197381 0.314995
v 0.245163 0.160951 0.314995
v 0.304901 0.111926 0.314995
v 0.353927 0.052187 0.314995
v 0.390356 -0.015967 0.314995
v 0.412789 -0.089919 0.314995
v 0.420364 -0.166827 0.314995
v 0.412789 -0.243735 0.314995
v 0.390356 -0.317687 0.314995
v 0.353927 -0.385841 0.314995
v 0.304901 -0.445579 0.314995
v 0.245163 -0.494605 0.314995
v 0.177008 -0.531034 0.314995
v 0.103056 -0.553468 0.314995
v 0.026149 -0.561042 0.314995
v -0.050759 -0.553468 0.314995
v -0.124711 -0.531034 0.314995
v -0.192866 -0.494605 0.314995
v -0.252604 -0.445579 0.314995
v -0.301629 -0.385841 0.314995
v -0.338059 -0.317687 0.314995
v -0.360492 -0.243735 0.314995
v -0.368067 -0.166827 0.314995
v -0.360492 -0.089919 0.314995
v -0.338059 -0.015967 0.314995
v -0.301629 0.052187 0.314995
v -0.252604 0.111925 0.314995
v -0.192866 0.160951 0.314995
v -0.124711 0.197381 0.314995
v -0.050759 0.219814 0.314995
v 0.026149 -0.166827 1.103426
v -0.322239 -0.166827 -0.394215
v -0.322239 -0.089919 -0.386641
v -0.322239 -0.015967 -0.364208
v -0.322239 0.052187 -0.327778
v -0.322239 0.111926 -0.278752
v -0.322239 0.160951 -0.219014
v -0.322239 0.197381 -0.150860
v -0.322239 0.219814 -0.076908
v -0.322239 0.227389 0.000000
v -0.322239 0.219814 0.076908
v -0.322239 0.197381 0.150860
v -0.322239 0.160951 0.219014
v -0.322239 0.111926 0.278753
v -0.322239 0.052187 0.327778
v -0.322239 -0.015967 0.364208
v -0.322239 -0.089919 0.386641
v -0.322239 -0.166827 0.394216
v -0.322239 -0.243735 0.386641
v -0.322239 -0.317687 0.364208
v -0.322239 -0.385841 0.327778
v -0.322239 -0.445579 0.278753
v -0.322239 -0.494605 0.219014
v -0.322239 -0.531034 0.150860
v -0.322239 -0.553468 0.076908
v -0.322239 -0.561042 0.000000
v -0.322239 -0.553468 -0.076908
v -0.322239 -0.531034 -0.150860
v -0.322239 -0.494605 -0.219014
v -0.322239 -0.445579 -0.278752
v -0.322239 -0.385841 -0.327778
v -0.322239 -0.317687 -0.364208
v -0.322239 -0.243735 -0.386641
v -1.110670 -0.166827 0.000000
vn 0.4455 -0.0878 -0.8910
vn 0.4455 -0.2599 -0.8567
vn 0.4455 -0.4220 -0.7896
vn 0.4455 -0.5680 -0.6921
vn 0.4455 -0.6921 -0.5680
vn 0.4455 -0.7896 -0.4220
vn 0.4455 -0.8567 -0.2599
vn 0.4455 -0.8910 -0.0878
vn 0.4455 -0.8910 0.0878
vn 0.4455 -0.8567 0.2599
vn 0.4455 -0.7896 0.4220
vn 0.4455 -0.6921 0.5680
vn 0.4455 -0.5680 0.6921
vn 0.4455 -0.4220 0.7896
vn 0.4455 -0.2599 0.8567
vn 0.4455 -0.0878 0.8910
vn 0.4455 0.0878 0.8910
vn 0.4455 0.2599 0.8567
vn 0.4455 0.4220 0.7896
vn 0.4455 0.5680 0.6921
vn 0.4455 0.6921 0.5680
vn 0.4455 0.7896 0.4220
vn 0.4455 0.8567 0.2599
vn 0.4455 0.8910 0.0878
vn 0.4455 0.8910 -0.0878
vn 0.4455 0.8567 -0.2599
vn 0.4455 0.7896 -0.4220
vn 0.4455 0.6921 -0.5680
vn 0.4455 0.5680 -0.6921
vn 0.4455 0.4220 -0.7896
vn -1.0000 -0.0000 -0.0000
vn 0.4455 0.2599 -0.8567
vn 0.4455 0.0878 -0.8910
vn 0.0878 0.4455 -0.8910
vn 0.2599 0.4455 -0.8567
vn 0.4220 0.4455 -0.7896
vn 0.5680 0.4455 -0.6921
vn 0.6921 0.4455 -0.5680
vn 0.7896 0.4455 -0.4220
vn 0.8567 0.4455 -0.2599
vn 0.8910 0.4455 -0.0878
vn 0.8910 0.4455 0.0878
vn 0.8567 0.4455 0.2599
vn 0.7896 0.4455 0.4220
vn 0.6921 0.4455 0.5680
vn 0.5680 0.4455 0.6921
vn 0.4220 0.4455 0.7896
vn 0.2599 0.4455 0.8567
vn 0.0878 0.4455 0.8910
vn -0.0878 0.4455 0.8910
vn -0.2599 0.4455 0.8567
vn -0.4220 0.4455 0.7896
vn -0.5680 0.4455 0.6921
vn -0.6921 0.4455 0.5680
vn -0.7896 0.4455 0.4220
vn -0.8567 0.4455 0.2599
vn -0.8910 0.4455 0.0878
vn -0.8910 0.4455 -0.0878
vn -0.8567 0.4455 -0.2599
vn -0.7896 0.4455 -0.4220
vn -0.6921 0.4455 -0.5680
vn -0.5680 0.4455 -0.6921
vn -0.4220 0.4455 -0.7896
vn -0.0000 -1.0000 -0.0000
vn -0.2599 0.4455 -0.8567
vn -0.0878 0.4455 -0.8910
vn -0.0000 1.0000 -0.0000
vn -0.0000 -0.0000 1.0000
vn 1.0000 -0.0000 -0.0000
vn -0.0000 -0.0000 -1.0000
vn 0.0878 -0.8910 -0.4455
vn 0.2599 -0.8567 -0.4455
vn 0.4220 -0.7896 -0.4455
vn 0.5680 -0.6921 -0.4455
vn 0.6921 -0.5680 -0.4455
vn 0.7896 -0.4220 -0.4455
vn 0.8567 -0.2599 -0.4455
vn 0.8910 -0.0878 -0.4455
vn 0.8910 0.0878 -0.4455
vn 0.8567 0.2599 -0.4455
vn 0.7896 0.4220 -0.4455
vn 0.6921 0.5680 -0.4455
vn 0.5680 0.6921 -0.4455
vn 0.4220 0.7896 -0.4455
vn 0.2599 0.8567 -0.4455
vn 0.0878 0.8910 -0.4455
vn -0.0878 0.8910 -0.4455
vn -0.2599 0.8567 -0.4455
vn -0.4220 0.7896 -0.4455
vn -0.5680 0.6921 -0.4455
vn -0.6921 0.5680 -0.4455
vn -0.7896 0.4220 -0.4455
vn -0.8567 0.2599 -0.4455
vn -0.8910 0.0878 -0.4455
vn -0.8910 -0.0878 -0.4455
vn -0.8567 -0.2599 -0.4455
vn -0.7896 -0.4220 -0.4455
vn -0.6921 -0.5680 -0.4455
vn -0.5680 -0.6921 -0.4455
vn -0.4220 -0.7896 -0.4455
vn -0.2599 -0.8567 -0.4455
vn -0.0878 -0.8910 -0.4455
vn 0.0878 0.8910 0.4455
vn 0.2599 0.8567 0.4455
vn 0.4220 0.7896 0.4455
vn 0.5680 0.6921 0.4455
vn 0.6921 0.5680 0.4455
vn 0.7896 0.4220 0.4455
vn 0.8567 0.2599 0.4455
vn 0.8910 0.0878 0.4455
vn 0.8910 -0.0878 0.4455
vn 0.8567 -0.2599 0.4455
vn 0.7896 -0.4220 0.4455
vn 0.6921 -0.5680 0.4455
vn 0.5680 -0.6921 0.4455
vn 0.4220 -0.7896 0.4455
vn 0.2599 -0.8567 0.4455
vn 0.0878 -0.8910 0.4455
vn -0.0878 -0.8910 0.4455
vn -0.2599 -0.8567 0.4455
vn -0.4220 -0.7896 0.4455
vn -0.5680 -0.6921 0.4455
vn -0.6921 -0.5680 0.4455
vn -0.7896 -0.4220 0.4455
vn -0.8567 -0.2599 0.4455
vn -0.8910 -0.0878 0.4455
vn -0.8910 0.0878 0.4455
vn -0.8567 0.2599 0.4455
vn -0.7896 0.4220 0.4455
vn -0.6921 0.5680 0.4455
vn -0.5680 0.6921 0.4455
vn -0.4220 0.7896 0.4455
vn -0.2599 0.8567 0.4455
vn -0.0878 0.8910 0.4455
vn -0.4455 0.0878 -0.8910
vn -0.4455 0.2599 -0.8567
vn -0.4455 0.4220 -0.7896
vn -0.4455 0.5680 -0.6921
vn -0.4455 0.6921 -0.5680
vn -0.4455 0.7896 -0.4220
vn -0.4455 0.8567 -0.2599
vn -0.4455 0.8910 -0.0878
vn -0.4455 0.8910 0.0878
vn -0.4455 0.8567 0.2599
vn -0.4455 0.7896 0.4220
vn -0.4455 0.6921 0.5680
vn -0.4455 0.5680 0.6921
vn -0.4455 0.4220 0.7896
vn -0.4455 0.2599 0.8567
vn -0.4455 0.0878 0.8910
vn -0.4455 -0.0878 0.8910
vn -0.4455 -0.2599 0.8567
vn -0.4455 -0.4220 0.7896
vn -0.4455 -0.5680 0.6921
vn -0.4455 -0.6921 0.5680
vn -0.4455 -0.7896 0.4220
vn -0.4455 -0.8567 0.2599
vn -0.4455 -0.8910 0.0878
vn -0.4455 -0.8910 -0.0878
vn -0.4455 -0.8567 -0.2599
vn -0.4455 -0.7896 -0.4220
vn -0.4455 -0.6921 -0.5680
vn -0.4455 -0.5680 -0.6921
vn -0.4455 -0.4220 -0.7896
vn -0.4455 -0.2599 -0.8567
vn -0.4455 -0.0878 -0.8910
vt 0.307862 0.992265
vt 0.318281 0.886481
vt 0.328700 0.992265
vt 0.349137 0.988200
vt 0.368389 0.980226
vt 0.385715 0.968649
vt 0.400449 0.953914
vt 0.412026 0.936588
vt 0.420001 0.917337
vt 0.424066 0.896899
vt 0.424066 0.876062
vt 0.420001 0.855624
vt 0.412026 0.836373
vt 0.400450 0.819047
vt 0.385715 0.804312
vt 0.368389 0.792735
vt 0.349137 0.784761
vt 0.328700 0.780696
vt 0.307862 0.780696
vt 0.287425 0.784761
vt 0.268173 0.792735
vt 0.250847 0.804312
vt 0.236113 0.819047
vt 0.224536 0.836373
vt 0.216561 0.855624
vt 0.212496 0.876062
vt 0.212496 0.896899
vt 0.216561 0.917337
vt 0.224536 0.936588
vt 0.236113 0.953914
vt 0.250847 0.968649
vt 0.268173 0.980226
vt 0.929333 0.431886
vt 0.851773 0.495538
vt 0.788122 0.417978
vt 0.287425 0.988200
vt 0.368389 0.768038
vt 0.318281 0.674293
vt 0.385715 0.756462
vt 0.400450 0.741727
vt 0.412026 0.724401
vt 0.420001 0.705149
vt 0.424066 0.684712
vt 0.424066 0.663874
vt 0.420001 0.643437
vt 0.412026 0.624185
vt 0.400450 0.606859
vt 0.385715 0.592125
vt 0.368389 0.580548
vt 0.349137 0.572574
vt 0.328700 0.568508
vt 0.307862 0.568508
vt 0.287425 0.572574
vt 0.268173 0.580548
vt 0.250847 0.592125
vt 0.236113 0.606859
vt 0.224536 0.624185
vt 0.216562 0.643437
vt 0.212496 0.663874
vt 0.212496 0.684712
vt 0.216562 0.705149
vt 0.224536 0.724401
vt 0.236113 0.741727
vt 0.250847 0.756462
vt 0.268173 0.768038
vt 0.287425 0.776013
vt 0.307862 0.780078
vt 0.328700 0.780078
vt 0.825283 0.912991
vt 0.796157 0.816977
vt 0.892172 0.787851
vt 0.349137 0.776013
vt 0.903736 0.795578
vt 0.913571 0.805413
vt 0.921298 0.816977
vt 0.926620 0.829826
vt 0.929333 0.843467
vt 0.929333 0.857375
vt 0.926620 0.871016
vt 0.921298 0.883866
vt 0.913571 0.895430
vt 0.903736 0.905265
vt 0.892172 0.912991
vt 0.879322 0.918314
vt 0.865682 0.921027
vt 0.851773 0.921027
vt 0.838132 0.918314
vt 0.813719 0.905264
vt 0.803884 0.895430
vt 0.796157 0.883866
vt 0.790835 0.871016
vt 0.788121 0.857375
vt 0.788121 0.843467
vt 0.790835 0.829826
vt 0.803884 0.805413
vt 0.813719 0.795578
vt 0.825283 0.787851
vt 0.838132 0.782529
vt 0.851773 0.779815
vt 0.865681 0.779815
vt 0.879322 0.782529
vt 0.000309 0.159941
vt 0.142204 0.142204
vt 0.142204 0.159941
vt 0.159941 0.000309
vt 0.159941 0.142204
vt 0.142204 0.443732
vt 0.159941 0.425995
vt 0.159941 0.443732
vt 0.284100 0.159941
vt 0.425995 0.142204
vt 0.425995 0.159941
vt 0.159941 0.159941
vt 0.142204 0.425995
vt 0.159941 0.284100
vt 0.213152 0.425995
vt 0.230889 0.284100
vt 0.230889 0.425995
vt 0.213152 0.159941
vt 0.230889 0.142204
vt 0.230889 0.159941
vt 0.213152 0.443732
vt 0.230889 0.443732
vt 0.213152 0.142204
vt 0.230889 0.000309
vt 0.213152 0.514680
vt 0.230889 0.496943
vt 0.230889 0.514680
vt 0.213152 0.230628
vt 0.230889 0.213152
vt 0.230889 0.230628
vt 0.142204 0.230628
vt 0.159941 0.213152
vt 0.159941 0.230628
vt 0.284100 0.230628
vt 0.425995 0.213152
vt 0.425995 0.230628
vt 0.142204 0.514680
vt 0.159941 0.496943
vt 0.159941 0.514680
vt 0.000309 0.230628
vt 0.142204 0.213152
vt 0.142204 0.550153
vt 0.159941 0.532417
vt 0.159941 0.550153
vt 0.213152 0.550154
vt 0.230889 0.532417
vt 0.230889 0.550154
vt 0.213152 0.195415
vt 0.230889 0.177678
vt 0.230889 0.195415
vt 0.142204 0.195415
vt 0.159941 0.177678
vt 0.159941 0.195415
vt 0.284100 0.195415
vt 0.425995 0.177678
vt 0.425995 0.195415
vt 0.000309 0.195415
vt 0.142204 0.177678
vt 0.000309 0.266363
vt 0.142204 0.248626
vt 0.142204 0.266363
vt 0.284100 0.266363
vt 0.425995 0.248626
vt 0.425995 0.266363
vt 0.159941 0.248626
vt 0.159941 0.266363
vt 0.213152 0.266363
vt 0.230889 0.248626
vt 0.230889 0.266363
vt 0.213152 0.479467
vt 0.230889 0.461469
vt 0.230889 0.479467
vt 0.142204 0.479467
vt 0.159941 0.461469
vt 0.159941 0.479467
vt 0.177678 0.479467
vt 0.195415 0.461469
vt 0.195415 0.479467
vt 0.177678 0.266363
vt 0.195415 0.248626
vt 0.195415 0.266363
vt 0.177678 0.195415
vt 0.195415 0.177678
vt 0.195415 0.195415
vt 0.177678 0.550153
vt 0.195415 0.532417
vt 0.195415 0.550154
vt 0.177678 0.514680
vt 0.195415 0.496943
vt 0.195415 0.514680
vt 0.177678 0.230628
vt 0.195415 0.213152
vt 0.195415 0.230628
vt 0.177678 0.425995
vt 0.195415 0.284100
vt 0.195415 0.425995
vt 0.177678 0.159941
vt 0.195415 0.142204
vt 0.195415 0.159941
vt 0.177678 0.443732
vt 0.195415 0.443732
vt 0.177678 0.142204
vt 0.195415 0.000309
vt 0.248626 0.479467
vt 0.266363 0.461469
vt 0.266363 0.479467
vt 0.248626 0.266363
vt 0.266363 0.248626
vt 0.266363 0.266363
vt 0.248626 0.195415
vt 0.266363 0.177678
vt 0.266363 0.195415
vt 0.248626 0.550154
vt 0.266363 0.532417
vt 0.266363 0.550154
vt 0.248626 0.230628
vt 0.266363 0.213152
vt 0.266363 0.230628
vt 0.248626 0.514680
vt 0.266363 0.496943
vt 0.266363 0.514680
vt 0.248626 0.142204
vt 0.266363 0.000309
vt 0.266363 0.142204
vt 0.248626 0.443732
vt 0.266363 0.425995
vt 0.266363 0.443732
vt 0.248626 0.159941
vt 0.266363 0.159941
vt 0.248626 0.425995
vt 0.266363 0.284100
vt 0.248626 0.532417
vt 0.248626 0.213152
vt 0.177678 0.532417
vt 0.177678 0.213152
vt 0.000309 0.213152
vt 0.284100 0.213152
vt 0.213152 0.213152
vt 0.142204 0.532417
vt 0.213152 0.532417
vt 0.248626 0.248626
vt 0.248626 0.496943
vt 0.177678 0.248626
vt 0.177678 0.496943
vt 0.142204 0.496943
vt 0.213152 0.496943
vt 0.000309 0.248626
vt 0.284100 0.248626
vt 0.213152 0.248626
vt 0.213152 0.000309
vt 0.213152 0.284100
vt 0.213152 0.177678
vt 0.213152 0.461469
vt 0.248626 0.461469
vt 0.248626 0.177678
vt 0.248626 0.000309
vt 0.248626 0.284100
vt 0.177678 0.461469
vt 0.177678 0.177678
vt 0.177678 0.284100
vt 0.177678 0.000309
vt 0.284100 0.479467
vt 0.284100 0.496943
vt 0.284100 0.514680
vt 0.284100 0.532417
vt 0.284100 0.284100
vt 0.284100 0.425995
vt 0.284100 0.142204
vt 0.284100 0.443732
vt 0.284100 0.000309
vt 0.284100 0.550154
vt 0.284100 0.177678
vt 0.284100 0.461469
vt 0.266363 0.567890
vt 0.284100 0.567890
vt 0.159941 0.567890
vt 0.177678 0.567890
vt 0.230889 0.567890
vt 0.248626 0.567890
vt 0.195415 0.567890
vt 0.213152 0.567890
vt 0.142204 0.567890
vt 0.000309 0.177678
vt 0.142204 0.284100
vt 0.425995 0.284100
vt 0.000309 0.284100
vt 0.142204 0.461469
vt 0.000309 0.142204
vt 0.142204 0.000309
vt 0.207813 0.705149
vt 0.106094 0.674293
vt 0.211879 0.684712
vt 0.211879 0.663874
vt 0.207813 0.643437
vt 0.199839 0.624185
vt 0.188262 0.606859
vt 0.173528 0.592125
vt 0.156202 0.580548
vt 0.136950 0.572574
vt 0.116513 0.568508
vt 0.095675 0.568508
vt 0.075237 0.572574
vt 0.055986 0.580548
vt 0.038660 0.592125
vt 0.023925 0.606859
vt 0.012348 0.624185
vt 0.004374 0.643437
vt 0.000309 0.663874
vt 0.000309 0.684712
vt 0.004374 0.705149
vt 0.012348 0.724401
vt 0.023925 0.741727
vt 0.038660 0.756462
vt 0.055986 0.768038
vt 0.075237 0.776013
vt 0.095675 0.780078
vt 0.116513 0.780078
vt 0.136950 0.776013
vt 0.156202 0.768038
vt 0.173528 0.756462
vt 0.188262 0.741727
vt 0.788121 0.559808
vt 0.865681 0.496156
vt 0.929333 0.573716
vt 0.199839 0.724401
vt 0.055986 0.980226
vt 0.106094 0.886480
vt 0.075237 0.988200
vt 0.095675 0.992265
vt 0.116513 0.992265
vt 0.136950 0.988200
vt 0.156202 0.980226
vt 0.173528 0.968649
vt 0.188262 0.953914
vt 0.199839 0.936588
vt 0.207813 0.917337
vt 0.211879 0.896899
vt 0.211879 0.876062
vt 0.207813 0.855624
vt 0.199839 0.836373
vt 0.188262 0.819047
vt 0.173528 0.804312
vt 0.156202 0.792735
vt 0.136950 0.784761
vt 0.116513 0.780696
vt 0.095675 0.780696
vt 0.075237 0.784761
vt 0.055986 0.792735
vt 0.038660 0.804312
vt 0.023925 0.819047
vt 0.012348 0.836373
vt 0.004374 0.855624
vt 0.000309 0.876062
vt 0.000309 0.896899
vt 0.004374 0.917337
vt 0.012349 0.936588
vt 0.023925 0.953914
vt 0.851773 0.779198
vt 0.788121 0.701637
vt 0.865681 0.637986
vt 0.038660 0.968649
vt 0.883487 0.000309
vt 0.893906 0.106094
vt 0.863050 0.004374
vt 0.843798 0.012348
vt 0.826472 0.023925
vt 0.811738 0.038660
vt 0.800161 0.055986
vt 0.792187 0.075237
vt 0.788122 0.095675
vt 0.788122 0.116513
vt 0.792187 0.136950
vt 0.800161 0.156202
vt 0.811738 0.173528
vt 0.826472 0.188262
vt 0.843798 0.199839
vt 0.863050 0.207813
vt 0.883487 0.211879
vt 0.904325 0.211879
vt 0.924763 0.207813
vt 0.944014 0.199839
vt 0.961340 0.188262
vt 0.976075 0.173528
vt 0.987652 0.156202
vt 0.995626 0.136950
vt 0.999691 0.116513
vt 0.999691 0.095675
vt 0.995626 0.075237
vt 0.987652 0.055986
vt 0.976075 0.038660
vt 0.961340 0.023925
vt 0.944014 0.012348
vt 0.924763 0.004374
vt 0.865682 0.212496
vt 0.929333 0.290056
vt 0.851773 0.353708
vt 0.904325 0.000309
vt 0.790835 0.404337
vt 0.796157 0.391488
vt 0.803884 0.379923
vt 0.813719 0.370089
vt 0.825283 0.362362
vt 0.838133 0.357039
vt 0.851773 0.354326
vt 0.865682 0.354326
vt 0.879322 0.357039
vt 0.892172 0.362362
vt 0.903736 0.370089
vt 0.913571 0.379923
vt 0.921298 0.391488
vt 0.926620 0.404337
vt 0.929333 0.417978
vt 0.926620 0.445527
vt 0.921298 0.458377
vt 0.913571 0.469941
vt 0.903736 0.479775
vt 0.892172 0.487502
vt 0.879323 0.492825
vt 0.865682 0.495538
vt 0.838133 0.492825
vt 0.825283 0.487502
vt 0.813719 0.479775
vt 0.803884 0.469941
vt 0.796157 0.458377
vt 0.790835 0.445527
vt 0.788122 0.431886
vt 0.926620 0.587357
vt 0.921298 0.600206
vt 0.913571 0.611770
vt 0.903736 0.621605
vt 0.892172 0.629332
vt 0.879322 0.634654
vt 0.865682 0.637368
vt 0.851773 0.637368
vt 0.838132 0.634654
vt 0.825283 0.629332
vt 0.813719 0.621605
vt 0.803884 0.611771
vt 0.796157 0.600206
vt 0.790835 0.587357
vt 0.788121 0.573716
vt 0.790835 0.546167
vt 0.796157 0.533317
vt 0.803884 0.521753
vt 0.813719 0.511919
vt 0.825283 0.504192
vt 0.838132 0.498869
vt 0.851773 0.496156
vt 0.879322 0.498869
vt 0.892172 0.504192
vt 0.903736 0.511919
vt 0.913571 0.521753
vt 0.921298 0.533317
vt 0.926620 0.546167
vt 0.929333 0.559808
vt 0.879322 0.640699
vt 0.892172 0.646021
vt 0.903736 0.653748
vt 0.913571 0.663583
vt 0.921298 0.675147
vt 0.926620 0.687997
vt 0.929333 0.701637
vt 0.929333 0.715546
vt 0.926620 0.729187
vt 0.921298 0.742036
vt 0.913571 0.753600
vt 0.903736 0.763435
vt 0.892172 0.771162
vt 0.879322 0.776484
vt 0.865681 0.779198
vt 0.838132 0.776484
vt 0.825283 0.771162
vt 0.813719 0.763435
vt 0.803884 0.753600
vt 0.796157 0.742036
vt 0.790835 0.729187
vt 0.788121 0.715546
vt 0.790835 0.687997
vt 0.796157 0.675147
vt 0.803884 0.663583
vt 0.813719 0.653748
vt 0.825283 0.646021
vt 0.838132 0.640699
vt 0.851773 0.637986
vt 0.838132 0.350995
vt 0.825283 0.345672
vt 0.813719 0.337946
vt 0.803884 0.328111
vt 0.796157 0.316547
vt 0.790835 0.303697
vt 0.788121 0.290056
vt 0.788121 0.276148
vt 0.790835 0.262507
vt 0.796157 0.249658
vt 0.803884 0.238094
vt 0.813719 0.228259
vt 0.825283 0.220532
vt 0.838132 0.215210
vt 0.851773 0.212496
vt 0.879322 0.215210
vt 0.892172 0.220532
vt 0.903736 0.228259
vt 0.913571 0.238094
vt 0.921298 0.249658
vt 0.926620 0.262507
vt 0.929333 0.276148
vt 0.926620 0.303697
vt 0.921298 0.316547
vt 0.913571 0.328111
vt 0.903736 0.337945
vt 0.892172 0.345672
vt 0.879322 0.350995
vt 0.865682 0.353708
s 0
usemtl 
f 41/59/13 73/60/13 42/61/13
f 42/61/14 73/60/14 43/62/14
f 43/62/15 73/60/15 44/63/15
f 44/63/16 73/60/16 45/64/16
f 45/64/17 73/60/17 46/65/17
f 46/65/18 73/60/18 47/66/18
f 47/66/19 73/60/19 48/67/19
f 48/67/20 73/60/20 49/68/20
f 49/68/21 73/60/21 50/69/21
f 50/69/22 73/60/22 51/70/22
f 51/70/23 73/60/23 52/71/23
f 52/71/24 73/60/24 53/72/24
f 53/72/25 73/60/25 54/73/25
f 54/73/26 73/60/26 55/74/26
f 55/74/27 73/60/27 56/75/27
f 56/75/28 73/60/28 57/76/28
f 57/76/29 73/60/29 58/77/29
f 58/77/30 73/60/30 59/78/30
f 59/78/31 73/60/31 60/79/31
f 60/79/32 73/60/32 61/80/32
f 61/80/33 73/60/33 62/81/33
f 62/81/34 73/60/34 63/82/34
f 63/82/35 73/60/35 64/83/35
f 64/83/36 73/60/36 65/84/36
f 65/84/37 73/60/37 66/85/37
f 66/85/38 73/60/38 67/86/38
f 67/86/39 73/60/39 68/87/39
f 68/87/40 73/60/40 69/88/40
f 69/88/41 73/60/41 70/89/41
f 70/89/42 73/60/42 71/90/42
f 56/91/43 64/92/43 72/93/43
f 71/90/44 73/60/44 72/94/44
f 72/94/45 73/60/45 41/59/45
f 269/349/83 301/350/83 270/351/83
f 270/351/84 301/350/84 271/352/84
f 271/352/85 301/350/85 272/353/85
f 272/353/86 301/350/86 273/354/86
f 273/354/87 301/350/87 274/355/87
f 274/355/88 301/350/88 275/356/88
f 275/356/89 301/350/89 276/357/89
f 276/357/90 301/350/90 277/358/90
f 277/358/91 301/350/91 278/359/91
f 278/359/92 301/350/92 279/360/92
f 279/360/93 301/350/93 280/361/93
f 280/361/94 301/350/94 281/362/94
f 281/362/95 301/350/95 282/363/95
f 282/363/96 301/350/96 283/364/96
f 283/364/97 301/350/97 284/365/97
f 284/365/98 301/350/98 285/366/98
f 285/366/99 301/350/99 286/367/99
f 286/367/100 301/350/100 287/368/100
f 287/368/101 301/350/101 288/369/101
f 288/369/102 301/350/102 289/370/102
f 289/370/103 301/350/103 290/371/103
f 290/371/104 301/350/104 291/372/104
f 291/372/105 301/350/105 292/373/105
f 292/373/106 301/350/106 293/374/106
f 293/374/107 301/350/107 294/375/107
f 294/375/108 301/350/108 295/376/108
f 295/376/109 301/350/109 296/377/109
f 296/377/110 301/350/110 297/378/110
f 297/378/111 301/350/111 298/379/111
f 298/379/112 301/350/112 299/380/112
f 284/381/80 292/382/80 300/383/80
f 299/380/113 301/350/113 300/384/113
f 300/384/114 301/350/114 269/349/114
f 302/385/115 334/386/115 303/387/115
f 303/387/116 334/386/116 304/388/116
f 304/388/117 334/386/117 305/389/117
f 305/389/118 334/386/118 306/390/118
f 306/390/119 334/386/119 307/391/119
f 307/391/120 334/386/120 308/392/120
f 308/392/121 334/386/121 309/393/121
f 309/393/122 334/386/122 310/394/122
f 310/394/123 334/386/123 311/395/123
f 311/395/124 334/386/124 312/396/124
f 312/396/125 334/386/125 313/397/125
f 313/397/126 334/386/126 314/398/126
f 314/398/127 334/386/127 315/399/127
f 315/399/128 334/386/128 316/400/128
f 316/400/129 334/386/129 317/401/129
f 317/401/130 334/386/130 318/402/130
f 318/402/131 334/386/131 319/403/131
f 319/403/132 334/386/132 320/404/132
f 320/404/133 334/386/133 321/405/133
f 321/405/134 334/386/134 322/406/134
f 322/406/135 334/386/135 323/407/135
f 323/407/136 334/386/136 324/408/136
f 324/408/137 334/386/137 325/409/137
f 325/409/138 334/386/138 326/410/138
f 326/410/139 334/386/139 327/411/139
f 327/411/140 334/386/140 328/412/140
f 328/412/141 334/386/141 329/413/141
f 329/413/142 334/386/142 330/414/142
f 330/414/143 334/386/143 331/415/143
f 331/415/144 334/386/144 332/416/144
f 317/417/82 325/418/82 333/419/82
f 332/416/145 334/386/145 333/420/145
f 333/420/146 334/386/146 302/385/146
f 335/421/147 367/422/147 336/423/147
f 336/423/148 367/422/148 337/424/148
f 337/424/149 367/422/149 338/425/149
f 338/425/150 367/422/150 339/426/150
f 339/426/151 367/422/151 340/427/151
f 340/427/152 367/422/152 341/428/152
f 341/428/153 367/422/153 342/429/153
f 342/429/154 367/422/154 343/430/154
f 343/430/155 367/422/155 344/431/155
f 344/431/156 367/422/156 345/432/156
f 345/432/157 367/422/157 346/433/157
f 346/433/158 367/422/158 347/434/158
f 347/434/159 367/422/159 348/435/159
f 348/435/160 367/422/160 349/436/160
f 349/436/161 367/422/161 350/437/161
f 350/437/162 367/422/162 351/438/162
f 351/438/163 367/422/163 352/439/163
f 352/439/164 367/422/164 353/440/164
f 353/440/165 367/422/165 354/441/165
f 354/441/166 367/422/166 355/442/166
f 355/442/167 367/422/167 356/443/167
f 356/443/168 367/422/168 357/444/168
f 357/444/169 367/422/169 358/445/169
f 358/445/170 367/422/170 359/446/170
f 359/446/171 367/422/171 360/447/171
f 360/447/172 367/422/172 361/448/172
f 361/448/173 367/422/173 362/449/173
f 362/449/174 367/422/174 363/450/174
f 363/450/175 367/422/175 364/451/175
f 364/451/176 367/422/176 365/452/176
f 350/453/81 358/454/81 366/455/81
f 365/452/177 367/422/177 366/456/177
f 366/456/178 367/422/178 335/421/178
f 72/93/43 41/457/43 42/458/43
f 42/458/43 43/459/43 44/460/43
f 44/460/43 45/461/43 46/462/43
f 46/462/43 47/463/43 48/464/43
f 48/464/43 49/465/43 50/466/43
f 50/466/43 51/467/43 52/468/43
f 52/468/43 53/469/43 54/470/43
f 54/470/43 55/471/43 56/91/43
f 56/91/43 57/472/43 58/473/43
f 58/473/43 59/474/43 60/475/43
f 60/475/43 61/476/43 62/477/43
f 62/477/43 63/478/43 64/92/43
f 64/92/43 65/479/43 66/480/43
f 66/480/43 67/481/43 68/482/43
f 68/482/43 69/483/43 70/484/43
f 70/484/43 71/485/43 72/93/43
f 72/93/43 42/458/43 44/460/43
f 44/460/43 46/462/43 48/464/43
f 48/464/43 50/466/43 52/468/43
f 52/468/43 54/470/43 56/91/43
f 56/91/43 58/473/43 60/475/43
f 60/475/43 62/477/43 64/92/43
f 64/92/43 66/480/43 68/482/43
f 68/482/43 70/484/43 72/93/43
f 72/93/43 44/460/43 48/464/43
f 48/464/43 52/468/43 56/91/43
f 56/91/43 60/475/43 64/92/43
f 64/92/43 68/482/43 72/93/43
f 72/93/43 48/464/43 56/91/43
f 300/383/80 269/486/80 270/487/80
f 270/487/80 271/488/80 272/489/80
f 272/489/80 273/490/80 274/491/80
f 274/491/80 275/492/80 276/493/80
f 276/493/80 277/494/80 278/495/80
f 278/495/80 279/496/80 280/497/80
f 280/497/80 281/498/80 282/499/80
f 282/499/80 283/500/80 284/381/80
f 284/381/80 285/501/80 286/502/80
f 286/502/80 287/503/80 288/504/80
f 288/504/80 289/505/80 290/506/80
f 290/506/80 291/507/80 292/382/80
f 292/382/80 293/508/80 294/509/80
f 294/509/80 295/510/80 296/511/80
f 296/511/80 297/512/80 298/513/80
f 298/513/80 299/514/80 300/383/80
f 300/383/80 270/487/80 272/489/80
f 272/489/80 274/491/80 276/493/80
f 276/493/80 278/495/80 280/497/80
f 280/497/80 282/499/80 284/381/80
f 284/381/80 286/502/80 288/504/80
f 288/504/80 290/506/80 292/382/80
f 292/382/80 294/509/80 296/511/80
f 296/511/80 298/513/80 300/383/80
f 300/383/80 272/489/80 276/493/80
f 276/493/80 280/497/80 284/381/80
f 284/381/80 288/504/80 292/382/80
f 292/382/80 296/511/80 300/383/80
f 300/383/80 276/493/80 284/381/80
f 333/419/82 302/515/82 303/516/82
f 303/516/82 304/517/82 305/518/82
f 305/518/82 306/519/82 307/520/82
f 307/520/82 308/521/82 309/522/82
f 309/522/82 310/523/82 311/524/82
f 311/524/82 312/525/82 313/526/82
f 313/526/82 314/527/82 315/528/82
f 315/528/82 316/529/82 317/417/82
f 317/417/82 318/530/82 319/531/82
f 319/531/82 320/532/82 321/533/82
f 321/533/82 322/534/82 323/535/82
f 323/535/82 324/536/82 325/418/82
f 325/418/82 326/537/82 327/538/82
f 327/538/82 328/539/82 329/540/82
f 329/540/82 330/541/82 331/542/82
f 331/542/82 332/543/82 333/419/82
f 333/419/82 303/516/82 305/518/82
f 305/518/82 307/520/82 309/522/82
f 309/522/82 311/524/82 313/526/82
f 313/526/82 315/528/82 317/417/82
f 317/417/82 319/531/82 321/533/82
f 321/533/82 323/535/82 325/418/82
f 325/418/82 327/538/82 329/540/82
f 329/540/82 331/542/82 333/419/82
f 333/419/82 305/518/82 309/522/82
f 309/522/82 313/526/82 317/417/82
f 317/417/82 321/533/82 325/418/82
f 325/418/82 329/540/82 333/419/82
f 333/419/82 309/522/82 317/417/82
f 366/455/81 335/544/81 336/545/81
f 336/545/81 337/546/81 338/547/81
f 338/547/81 339/548/81 340/549/81
f 340/549/81 341/550/81 342/551/81
f 342/551/81 343/552/81 344/553/81
f 344/553/81 345/554/81 346/555/81
f 346/555/81 347/556/81 348/557/81
f 348/557/81 349/558/81 350/453/81
f 350/453/81 351/559/81 352/560/81
f 352/560/81 353/561/81 354/562/81
f 354/562/81 355/563/81 356/564/81
f 356/564/81 357/565/81 358/454/81
f 358/454/81 359/566/81 360/567/81
f 360/567/81 361/568/81 362/569/81
f 362/569/81 363/570/81 364/571/81
f 364/571/81 365/572/81 366/455/81
f 366/455/81 336/545/81 338/547/81
f 338/547/81 340/549/81 342/551/81
f 342/551/81 344/553/81 346/555/81
f 346/555/81 348/557/81 350/453/81
f 350/453/81 352/560/81 354/562/81
f 354/562/81 356/564/81 358/454/81
f 358/454/81 360/567/81 362/569/81
f 362/569/81 364/571/81 366/455/81
f 366/455/81 338/547/81 342/551/81
f 342/551/81 346/555/81 350/453/81
f 350/453/81 354/562/81 358/454/81
f 358/454/81 362/569/81 366/455/81
f 366/455/81 342/551/81 350/453/81
usemtl マテリアル.004
f 74/95/46 106/96/46 75/97/46
f 75/97/47 106/96/47 76/98/47
f 76/98/48 106/96/48 77/99/48
f 77/99/49 106/96/49 78/100/49
f 78/100/50 106/96/50 79/101/50
f 79/101/51 106/96/51 80/102/51
f 80/102/52 106/96/52 81/103/52
f 81/103/53 106/96/53 82/104/53
f 82/104/54 106/96/54 83/105/54
f 83/105/55 106/96/55 84/106/55
f 84/106/56 106/96/56 85/107/56
f 85/107/57 106/96/57 86/108/57
f 86/108/58 106/96/58 87/109/58
f 87/109/59 106/96/59 88/110/59
f 88/110/60 106/96/60 89/111/60
f 89/111/61 106/96/61 90/112/61
f 90/112/62 106/96/62 91/113/62
f 91/113/63 106/96/63 92/114/63
f 92/114/64 106/96/64 93/115/64
f 93/115/65 106/96/65 94/116/65
f 94/116/66 106/96/66 95/117/66
f 95/117/67 106/96/67 96/118/67
f 96/118/68 106/96/68 97/119/68
f 97/119/69 106/96/69 98/120/69
f 98/120/70 106/96/70 99/121/70
f 99/121/71 106/96/71 100/122/71
f 100/122/72 106/96/72 101/123/72
f 101/123/73 106/96/73 102/124/73
f 102/124/74 106/96/74 103/125/74
f 103/125/75 106/96/75 104/126/75
f 89/127/76 97/128/76 105/129/76
f 104/126/77 106/96/77 105/130/77
f 105/130/78 106/96/78 74/95/78
f 105/129/76 74/131/76 75/132/76
f 75/132/76 76/133/76 77/134/76
f 77/134/76 78/135/76 79/136/76
f 79/136/76 80/137/76 81/138/76
f 81/138/76 82/139/76 83/140/76
f 83/140/76 84/141/76 85/142/76
f 85/142/76 86/143/76 87/144/76
f 87/144/76 88/145/76 89/127/76
f 89/127/76 90/146/76 91/147/76
f 91/147/76 92/148/76 93/149/76
f 93/149/76 94/150/76 95/151/76
f 95/151/76 96/152/76 97/128/76
f 97/128/76 98/153/76 99/154/76
f 99/154/76 100/155/76 101/156/76
f 101/156/76 102/157/76 103/158/76
f 103/158/76 104/159/76 105/129/76
f 105/129/76 75/132/76 81/138/76
f 75/132/76 77/134/76 81/138/76
f 77/134/76 79/136/76 81/138/76
f 81/138/76 83/140/76 89/127/76
f 83/140/76 85/142/76 89/127/76
f 85/142/76 87/144/76 89/127/76
f 89/127/76 91/147/76 97/128/76
f 91/147/76 93/149/76 97/128/76
f 93/149/76 95/151/76 97/128/76
f 97/128/76 99/154/76 105/129/76
f 99/154/76 101/156/76 105/129/76
f 101/156/76 103/158/76 105/129/76
f 105/129/76 81/138/76 89/127/76
usemtl Material
f 236/160/79 109/161/79 234/162/79
f 109/161/80 205/163/80 207/164/80
f 251/165/43 208/166/43 266/167/43
f 237/168/76 114/169/76 233/170/76
f 234/162/81 207/164/81 248/171/81
f 111/172/82 206/173/82 208/166/82
f 118/174/82 192/175/82 194/176/82
f 235/177/81 193/178/81 246/179/81
f 253/180/43 194/176/43 264/181/43
f 117/182/80 191/183/80 193/178/80
f 159/184/43 195/185/43 202/186/43
f 169/187/81 196/188/81 204/189/81
f 168/190/81 209/191/81 218/192/81
f 171/193/76 119/194/76 167/195/76
f 157/196/43 210/197/43 216/198/43
f 170/199/79 120/200/79 168/190/79
f 236/201/43 211/202/43 247/203/43
f 238/204/43 197/205/43 245/206/43
f 162/207/81 198/208/81 201/209/81
f 161/210/81 212/211/81 215/212/81
f 158/213/76 125/214/76 160/215/76
f 157/216/79 126/217/79 161/210/79
f 251/218/79 135/219/79 255/220/79
f 252/221/76 134/222/76 254/223/76
f 255/220/81 213/224/81 265/225/81
f 256/226/81 199/227/81 263/228/81
f 172/229/43 200/230/43 203/231/43
f 170/232/43 214/233/43 217/234/43
f 173/235/43 185/236/43 190/237/43
f 257/238/81 184/239/81 262/240/81
f 163/241/81 183/242/81 188/243/81
f 239/244/43 182/245/43 244/246/43
f 164/247/43 181/248/43 187/249/43
f 174/250/81 180/251/81 189/252/81
f 140/253/82 177/254/82 179/255/82
f 240/256/81 178/257/81 243/258/81
f 258/259/43 179/255/43 261/260/43
f 139/261/80 186/262/80 178/257/80
f 175/263/43 227/264/43 232/265/43
f 259/266/81 226/267/81 268/268/81
f 165/269/81 225/270/81 230/271/81
f 241/272/43 224/273/43 250/274/43
f 176/275/81 223/276/81 231/277/81
f 166/278/43 222/279/43 229/280/43
f 148/281/80 228/282/80 220/283/80
f 260/284/43 221/285/43 267/286/43
f 242/287/81 220/283/81 249/288/81
f 149/289/82 219/290/82 221/285/82
f 153/291/43 229/280/43 224/273/43
f 152/292/81 230/271/81 223/276/81
f 143/293/43 187/249/43 182/245/43
f 141/294/81 188/243/81 180/251/81
f 121/295/79 161/210/79 120/200/79
f 122/296/76 160/215/76 119/194/76
f 120/200/81 215/212/81 209/191/81
f 123/297/81 201/209/81 196/188/81
f 128/298/43 216/198/43 211/202/43
f 130/299/43 202/186/43 197/205/43
f 155/300/81 231/277/81 226/267/81
f 151/301/43 232/265/43 222/279/43
f 145/302/81 189/252/81 184/239/81
f 142/303/43 190/237/43 181/248/43
f 121/304/43 217/234/43 210/197/43
f 124/305/43 203/231/43 195/185/43
f 131/306/79 168/190/79 135/219/79
f 132/307/76 167/195/76 134/222/76
f 135/219/81 218/192/81 213/224/81
f 136/308/81 204/189/81 199/227/81
f 181/248/43 172/229/43 124/305/43
f 184/239/81 169/187/81 136/308/81
f 180/251/81 162/207/81 123/297/81
f 182/245/43 159/184/43 130/299/43
f 178/257/80 116/309/80 117/182/80
f 261/260/43 118/174/43 253/180/43
f 243/258/81 117/182/81 235/177/81
f 179/255/82 115/310/82 118/174/82
f 189/252/81 123/297/81 169/187/81
f 187/249/43 124/305/43 159/184/43
f 244/246/43 130/299/43 238/204/43
f 188/243/81 127/311/81 162/207/81
f 262/240/81 136/308/81 256/226/81
f 190/237/43 133/312/43 172/229/43
f 199/227/81 176/275/81 155/300/81
f 195/185/43 175/263/43 151/301/43
f 197/205/43 166/278/43 153/291/43
f 196/188/81 165/269/81 152/292/81
f 203/231/43 156/313/43 175/263/43
f 263/228/81 155/300/81 259/266/81
f 201/209/81 154/314/81 165/269/81
f 245/206/43 153/291/43 241/272/43
f 204/189/81 152/292/81 176/275/81
f 202/186/43 151/301/43 166/278/43
f 193/178/80 150/315/80 148/281/80
f 264/181/43 149/289/43 260/284/43
f 246/179/81 148/281/81 242/287/81
f 194/176/82 147/316/82 149/289/82
f 213/224/81 174/250/81 145/302/81
f 210/197/43 173/235/43 142/303/43
f 211/202/43 164/247/43 143/293/43
f 209/191/81 163/241/81 141/294/81
f 217/234/43 146/317/43 173/235/43
f 265/225/81 145/302/81 257/238/81
f 215/212/81 144/318/81 163/241/81
f 247/203/43 143/293/43 239/244/43
f 216/198/43 142/303/43 164/247/43
f 218/192/81 141/294/81 174/250/81
f 208/166/82 138/319/82 140/253/82
f 248/171/81 139/261/81 240/256/81
f 266/167/43 140/253/43 258/259/43
f 207/164/80 137/320/80 139/261/80
f 222/279/43 167/321/43 119/322/43
f 226/267/81 171/193/81 132/307/81
f 223/276/81 158/213/81 122/296/81
f 224/273/43 160/323/43 125/324/43
f 221/285/82 108/325/82 112/326/82
f 249/288/81 110/327/81 237/168/81
f 267/286/43 112/326/43 254/328/43
f 220/283/80 114/329/80 110/327/80
f 229/280/43 119/322/43 160/323/43
f 231/277/81 122/296/81 171/193/81
f 250/274/43 125/324/43 233/330/43
f 230/271/81 129/331/81 158/213/81
f 268/268/81 132/307/81 252/221/81
f 232/265/43 134/332/43 167/321/43
f 228/333/43 233/330/43 114/334/43
f 225/270/81 237/168/81 129/331/81
f 212/211/81 240/256/81 144/318/81
f 205/335/43 239/244/43 137/336/43
f 198/208/81 242/287/81 154/314/81
f 191/337/43 241/272/43 150/338/43
f 186/339/43 238/204/43 116/340/43
f 183/242/81 235/177/81 127/311/81
f 154/314/81 249/288/81 225/270/81
f 150/338/43 250/274/43 228/333/43
f 144/318/81 243/258/81 183/242/81
f 137/336/43 244/246/43 186/339/43
f 116/340/43 245/206/43 191/337/43
f 113/341/43 247/203/43 205/335/43
f 127/311/81 246/179/81 198/208/81
f 126/217/81 248/171/81 212/211/81
f 129/331/76 233/170/76 125/214/76
f 128/342/79 234/162/79 126/217/79
f 219/290/81 252/221/81 108/325/81
f 227/264/43 254/328/43 134/332/43
f 214/233/43 258/259/43 146/317/43
f 206/173/81 257/238/81 138/319/81
f 200/230/43 260/284/43 156/313/43
f 192/175/81 259/266/81 147/316/81
f 177/254/81 256/226/81 115/310/81
f 185/236/43 253/180/43 133/312/43
f 156/313/43 267/286/43 227/264/43
f 147/316/81 268/268/81 219/290/81
f 146/317/43 261/260/43 185/236/43
f 138/319/81 262/240/81 177/254/81
f 115/310/81 263/228/81 192/175/81
f 107/343/81 265/225/81 206/173/81
f 108/325/76 254/223/76 112/344/76
f 111/345/79 255/220/79 107/343/79
f 133/312/43 264/181/43 200/230/43
f 131/346/43 266/167/43 214/233/43
f 236/160/79 113/347/79 109/161/79
f 109/161/80 113/348/80 205/163/80
f 251/165/43 111/172/43 208/166/43
f 237/168/76 110/327/76 114/169/76
f 234/162/81 109/161/81 207/164/81
f 111/172/82 107/343/82 206/173/82
f 118/174/82 115/310/82 192/175/82
f 235/177/81 117/182/81 193/178/81
f 253/180/43 118/174/43 194/176/43
f 117/182/80 116/309/80 191/183/80
f 159/184/43 124/305/43 195/185/43
f 169/187/81 123/297/81 196/188/81
f 168/190/81 120/200/81 209/191/81
f 171/193/76 122/296/76 119/194/76
f 157/196/43 121/304/43 210/197/43
f 170/199/79 121/295/79 120/200/79
f 236/201/43 128/298/43 211/202/43
f 238/204/43 130/299/43 197/205/43
f 162/207/81 127/311/81 198/208/81
f 161/210/81 126/217/81 212/211/81
f 158/213/76 129/331/76 125/214/76
f 157/216/79 128/342/79 126/217/79
f 251/218/79 131/306/79 135/219/79
f 252/221/76 132/307/76 134/222/76
f 255/220/81 135/219/81 213/224/81
f 256/226/81 136/308/81 199/227/81
f 172/229/43 133/312/43 200/230/43
f 170/232/43 131/346/43 214/233/43
f 173/235/43 146/317/43 185/236/43
f 257/238/81 145/302/81 184/239/81
f 163/241/81 144/318/81 183/242/81
f 239/244/43 143/293/43 182/245/43
f 164/247/43 142/303/43 181/248/43
f 174/250/81 141/294/81 180/251/81
f 140/253/82 138/319/82 177/254/82
f 240/256/81 139/261/81 178/257/81
f 258/259/43 140/253/43 179/255/43
f 139/261/80 137/320/80 186/262/80
f 175/263/43 156/313/43 227/264/43
f 259/266/81 155/300/81 226/267/81
f 165/269/81 154/314/81 225/270/81
f 241/272/43 153/291/43 224/273/43
f 176/275/81 152/292/81 223/276/81
f 166/278/43 151/301/43 222/279/43
f 148/281/80 150/315/80 228/282/80
f 260/284/43 149/289/43 221/285/43
f 242/287/81 148/281/81 220/283/81
f 149/289/82 147/316/82 219/290/82
f 153/291/43 166/278/43 229/280/43
f 152/292/81 165/269/81 230/271/81
f 143/293/43 164/247/43 187/249/43
f 141/294/81 163/241/81 188/243/81
f 121/295/79 157/216/79 161/210/79
f 122/296/76 158/213/76 160/215/76
f 120/200/81 161/210/81 215/212/81
f 123/297/81 162/207/81 201/209/81
f 128/298/43 157/196/43 216/198/43
f 130/299/43 159/184/43 202/186/43
f 155/300/81 176/275/81 231/277/81
f 151/301/43 175/263/43 232/265/43
f 145/302/81 174/250/81 189/252/81
f 142/303/43 173/235/43 190/237/43
f 121/304/43 170/232/43 217/234/43
f 124/305/43 172/229/43 203/231/43
f 131/306/79 170/199/79 168/190/79
f 132/307/76 171/193/76 167/195/76
f 135/219/81 168/190/81 218/192/81
f 136/308/81 169/187/81 204/189/81
f 181/248/43 190/237/43 172/229/43
f 184/239/81 189/252/81 169/187/81
f 180/251/81 188/243/81 162/207/81
f 182/245/43 187/249/43 159/184/43
f 178/257/80 186/262/80 116/309/80
f 261/260/43 179/255/43 118/174/43
f 243/258/81 178/257/81 117/182/81
f 179/255/82 177/254/82 115/310/82
f 189/252/81 180/251/81 123/297/81
f 187/249/43 181/248/43 124/305/43
f 244/246/43 182/245/43 130/299/43
f 188/243/81 183/242/81 127/311/81
f 262/240/81 184/239/81 136/308/81
f 190/237/43 185/236/43 133/312/43
f 199/227/81 204/189/81 176/275/81
f 195/185/43 203/231/43 175/263/43
f 197/205/43 202/186/43 166/278/43
f 196/188/81 201/209/81 165/269/81
f 203/231/43 200/230/43 156/313/43
f 263/228/81 199/227/81 155/300/81
f 201/209/81 198/208/81 154/314/81
f 245/206/43 197/205/43 153/291/43
f 204/189/81 196/188/81 152/292/81
f 202/186/43 195/185/43 151/301/43
f 193/178/80 191/183/80 150/315/80
f 264/181/43 194/176/43 149/289/43
f 246/179/81 193/178/81 148/281/81
f 194/176/82 192/175/82 147/316/82
f 213/224/81 218/192/81 174/250/81
f 210/197/43 217/234/43 173/235/43
f 211/202/43 216/198/43 164/247/43
f 209/191/81 215/212/81 163/241/81
f 217/234/43 214/233/43 146/317/43
f 265/225/81 213/224/81 145/302/81
f 215/212/81 212/211/81 144/318/81
f 247/203/43 211/202/43 143/293/43
f 216/198/43 210/197/43 142/303/43
f 218/192/81 209/191/81 141/294/81
f 208/166/82 206/173/82 138/319/82
f 248/171/81 207/164/81 139/261/81
f 266/167/43 208/166/43 140/253/43
f 207/164/80 205/163/80 137/320/80
f 222/279/43 232/265/43 167/321/43
f 226/267/81 231/277/81 171/193/81
f 223/276/81 230/271/81 158/213/81
f 224/273/43 229/280/43 160/323/43
f 221/285/82 219/290/82 108/325/82
f 249/288/81 220/283/81 110/327/81
f 267/286/43 221/285/43 112/326/43
f 220/283/80 228/282/80 114/329/80
f 229/280/43 222/279/43 119/322/43
f 231/277/81 223/276/81 122/296/81
f 250/274/43 224/273/43 125/324/43
f 230/271/81 225/270/81 129/331/81
f 268/268/81 226/267/81 132/307/81
f 232/265/43 227/264/43 134/332/43
f 228/333/43 250/274/43 233/330/43
f 225/270/81 249/288/81 237/168/81
f 212/211/81 248/171/81 240/256/81
f 205/335/43 247/203/43 239/244/43
f 198/208/81 246/179/81 242/287/81
f 191/337/43 245/206/43 241/272/43
f 186/339/43 244/246/43 238/204/43
f 183/242/81 243/258/81 235/177/81
f 154/314/81 242/287/81 249/288/81
f 150/338/43 241/272/43 250/274/43
f 144/318/81 240/256/81 243/258/81
f 137/336/43 239/244/43 244/246/43
f 116/340/43 238/204/43 245/206/43
f 113/341/43 236/201/43 247/203/43
f 127/311/81 235/177/81 246/179/81
f 126/217/81 234/162/81 248/171/81
f 129/331/76 237/168/76 233/170/76
f 128/342/79 236/160/79 234/162/79
f 219/290/81 268/268/81 252/221/81
f 227/264/43 267/286/43 254/328/43
f 214/233/43 266/167/43 258/259/43
f 206/173/81 265/225/81 257/238/81
f 200/230/43 264/181/43 260/284/43
f 192/175/81 263/228/81 259/266/81
f 177/254/81 262/240/81 256/226/81
f 185/236/43 261/260/43 253/180/43
f 156/313/43 260/284/43 267/286/43
f 147/316/81 259/266/81 268/268/81
f 146/317/43 258/259/43 261/260/43
f 138/319/81 257/238/81 262/240/81
f 115/310/81 256/226/81 263/228/81
f 107/343/81 255/220/81 265/225/81
f 108/325/76 252/221/76 254/223/76
f 111/345/79 251/218/79 255/220/79
f 133/312/43 253/180/43 264/181/43
f 131/346/43 251/165/43 266/167/43
