# Blender 4.4.1
# www.blender.org
mtllib Golem.mtl
o Cube
v 1.000000 12.692927 -1.000000
v 1.000000 10.692927 -1.000000
v 1.000000 12.692927 1.000000
v 1.000000 10.692927 1.000000
v -1.000000 12.692927 -1.000000
v -1.000000 10.692927 -1.000000
v -1.000000 12.692927 1.000000
v -1.000000 10.692927 1.000000
vn -0.0000 1.0000 -0.0000
vn -0.0000 -0.0000 1.0000
vn -1.0000 -0.0000 -0.0000
vn -0.0000 -1.0000 -0.0000
vn 1.0000 -0.0000 -0.0000
vn -0.0000 -0.0000 -1.0000
vt 0.625000 0.500000
vt 0.875000 0.500000
vt 0.875000 0.750000
vt 0.625000 0.750000
vt 0.375000 0.750000
vt 0.625000 1.000000
vt 0.375000 1.000000
vt 0.375000 0.000000
vt 0.625000 0.000000
vt 0.625000 0.250000
vt 0.375000 0.250000
vt 0.125000 0.500000
vt 0.375000 0.500000
vt 0.125000 0.750000
s 0
usemtl Material
f 1/1/1 5/2/1 7/3/1 3/4/1
f 4/5/2 3/4/2 7/6/2 8/7/2
f 8/8/3 7/9/3 5/10/3 6/11/3
f 6/12/4 2/13/4 4/5/4 8/14/4
f 2/13/5 1/1/5 3/4/5 4/5/5
f 6/11/6 5/10/6 1/1/6 2/13/6
o Cube.001
v 1.151974 10.214996 -2.375724
v 1.151974 3.008659 -1.151974
v 1.151974 10.214996 2.375724
v 1.151974 3.008659 1.151974
v -1.151974 10.214996 -2.375724
v -1.151974 3.008659 -1.151974
v -1.151974 10.214996 2.375724
v -1.151974 3.008659 1.151974
v 1.151974 6.211540 -1.151974
v -1.151974 6.211540 1.151974
v 1.151974 6.211540 1.151974
v -1.151974 6.211540 -1.151974
v 1.151974 4.610100 -1.151974
v 1.151974 4.610100 1.151974
v -1.151974 4.610100 -1.151974
v -1.151974 4.610100 1.151974
v -1.151974 6.912334 2.375724
v 1.151974 6.912334 -2.375724
v 1.151974 6.912334 2.375724
v -1.151974 6.912334 -2.375724
v -1.151974 3.008659 0.000000
v 1.151974 10.214996 0.000000
v -1.151974 10.214996 0.000000
v 1.151974 3.008659 0.000000
v 1.151974 6.211540 0.000000
v -1.151974 6.211540 0.000000
v -1.151974 4.610100 0.000000
v 1.151974 4.610100 0.000000
v 1.151974 6.912334 0.000000
v -1.151974 6.912334 0.000000
v 0.000000 3.008659 -1.151974
v 0.000000 10.214996 2.375724
v 0.000000 3.008659 1.151974
v 0.000000 10.214996 -2.375724
v 0.000000 6.211540 -1.151974
v 0.000000 6.211540 1.151974
v 0.000000 4.610100 1.151974
v 0.000000 4.610100 -1.151974
v 0.000000 6.912334 -2.375724
v 0.000000 6.912334 2.375724
v 0.000000 3.008659 0.000000
v 0.000000 10.214996 0.000000
vn -0.0000 1.0000 -0.0000
vn -0.0000 -0.0000 1.0000
vn -1.0000 -0.0000 -0.0000
vn -0.0000 -1.0000 -0.0000
vn 1.0000 -0.0000 -0.0000
vn -0.0000 -0.0000 -1.0000
vn -0.0000 -0.8678 -0.4969
vn -0.0000 -0.8678 0.4969
vt 0.750000 0.625000
vt 0.875000 0.625000
vt 0.875000 0.750000
vt 0.750000 0.750000
vt 0.562500 0.875000
vt 0.625000 0.875000
vt 0.625000 1.000000
vt 0.562500 1.000000
vt 0.562500 0.125000
vt 0.625000 0.125000
vt 0.625000 0.250000
vt 0.562500 0.250000
vt 0.250000 0.625000
vt 0.375000 0.625000
vt 0.375000 0.750000
vt 0.250000 0.750000
vt 0.562500 0.625000
vt 0.625000 0.625000
vt 0.625000 0.750000
vt 0.562500 0.750000
vt 0.562500 0.375000
vt 0.625000 0.375000
vt 0.625000 0.500000
vt 0.562500 0.500000
vt 0.437500 0.375000
vt 0.500000 0.375000
vt 0.500000 0.500000
vt 0.437500 0.500000
vt 0.437500 0.625000
vt 0.500000 0.625000
vt 0.500000 0.750000
vt 0.437500 0.750000
vt 0.437500 0.125000
vt 0.500000 0.125000
vt 0.500000 0.250000
vt 0.437500 0.250000
vt 0.437500 0.875000
vt 0.500000 0.875000
vt 0.500000 1.000000
vt 0.437500 1.000000
vt 0.375000 0.875000
vt 0.375000 1.000000
vt 0.375000 0.125000
vt 0.375000 0.250000
vt 0.375000 0.375000
vt 0.375000 0.500000
vt 0.500000 0.000000
vt 0.562500 0.000000
vt 0.375000 0.000000
vt 0.437500 0.000000
vt 0.250000 0.500000
vt 0.625000 0.000000
vt 0.750000 0.500000
vt 0.875000 0.500000
vt 0.125000 0.500000
vt 0.125000 0.625000
vt 0.125000 0.750000
s 0
usemtl Material.001
f 50/15/7 31/16/7 15/17/7 40/18/7
f 48/19/8 40/20/8 15/21/8 25/22/8
f 38/23/9 31/24/9 13/25/9 28/26/9
f 49/27/10 32/28/10 12/29/10 41/30/10
f 37/31/11 30/32/11 11/33/11 27/34/11
f 47/35/12 42/36/12 9/37/12 26/38/12
f 46/39/12 43/40/12 17/41/12 21/42/12
f 36/43/11 33/44/11 19/45/11 22/46/11
f 35/47/9 34/48/9 20/49/9 23/50/9
f 45/51/8 44/52/8 18/53/8 24/54/8
f 41/55/8 45/51/8 24/54/8 16/56/8
f 29/57/9 35/47/9 23/50/9 14/58/9
f 32/28/11 36/43/11 22/46/11 12/29/11
f 39/59/12 46/39/12 21/42/12 10/60/12
f 43/40/13 47/35/13 26/38/13 17/41/13
f 33/44/11 37/31/11 27/34/11 19/45/11
f 34/48/9 38/23/9 28/26/9 20/49/9
f 44/52/14 48/19/14 25/22/14 18/53/14
f 18/61/9 25/62/9 38/23/9 34/48/9
f 17/41/11 26/38/11 37/31/11 33/44/11
f 10/60/11 21/42/11 36/43/11 32/28/11
f 16/63/9 24/64/9 35/47/9 29/57/9
f 24/64/9 18/61/9 34/48/9 35/47/9
f 21/42/11 17/41/11 33/44/11 36/43/11
f 26/38/11 9/37/11 30/32/11 37/31/11
f 39/65/10 10/60/10 32/28/10 49/27/10
f 25/62/9 15/66/9 31/24/9 38/23/9
f 42/67/7 13/68/7 31/16/7 50/15/7
f 9/37/7 42/67/7 50/15/7 30/32/7
f 14/69/10 39/65/10 49/27/10 29/70/10
f 19/45/14 27/34/14 48/19/14 44/52/14
f 20/49/13 28/26/13 47/35/13 43/40/13
f 14/58/12 23/50/12 46/39/12 39/59/12
f 12/29/8 22/46/8 45/51/8 41/55/8
f 22/46/8 19/45/8 44/52/8 45/51/8
f 23/50/12 20/49/12 43/40/12 46/39/12
f 28/26/12 13/25/12 42/36/12 47/35/12
f 29/70/10 49/27/10 41/30/10 16/71/10
f 27/34/8 11/33/8 40/20/8 48/19/8
f 30/32/7 50/15/7 40/18/7 11/33/7
o Cube.002
v 1.442002 10.962077 -6.379479
v 1.442002 9.078185 -6.379479
v 1.442002 10.962077 6.379479
v 1.442002 9.078185 6.379479
v -1.442002 10.962077 -6.379479
v -1.442002 9.078185 -6.379479
v -1.442002 10.962077 6.379479
v -1.442002 9.078185 6.379479
v -1.442002 9.078185 0.000000
v 1.442002 10.962077 0.000000
v -1.442002 10.962077 0.000000
v 1.442002 9.078185 0.000000
v -1.442002 9.078185 3.189739
v 1.442002 10.962077 3.189739
v -1.442002 10.962077 3.189739
v 1.442002 9.078185 3.189739
v -1.442002 9.078185 4.784609
v 1.442002 10.962077 4.784609
v -1.442002 10.962077 4.784609
v 1.442002 9.078185 4.784609
v -1.442002 10.962077 -3.189739
v 1.442002 9.078185 -3.189739
v -1.442002 9.078185 -3.189739
v 1.442002 10.962077 -3.189739
v -1.442002 10.962077 -4.784609
v 1.442002 9.078185 -4.784609
v -1.442002 9.078185 -4.784609
v 1.442002 10.962077 -4.784609
v -1.442002 9.078185 5.582044
v 1.442002 10.962077 5.582044
v -1.442002 10.962077 5.582044
v 1.442002 9.078185 5.582044
v -1.442002 10.962077 -5.582044
v 1.442002 9.078185 -5.582044
v -1.442002 9.078185 -5.582044
v 1.442002 10.962077 -5.582044
v -1.442002 9.078185 -3.987174
v 1.442002 10.962077 -3.987174
v -1.442002 10.962077 -3.987174
v 1.442002 9.078185 -3.987174
v -1.442002 10.962077 3.987174
v 1.442002 9.078185 3.987174
v -1.442002 9.078185 3.987174
v 1.442002 10.962077 3.987174
v -1.442002 10.962077 1.595560
v 1.442002 9.078185 1.595560
v -1.442002 9.078185 1.595560
v 1.442002 10.962077 1.595560
v -1.442002 9.078185 -1.580716
v 1.442002 10.962077 -1.580716
v -1.442002 10.962077 -1.580716
v 1.442002 9.078185 -1.580716
v -1.442002 10.962077 0.797780
v 1.442002 9.078185 0.797780
v -1.442002 9.078185 0.797780
v 1.442002 10.962077 0.797780
v -1.442002 9.078185 -0.790358
v 1.442002 10.962077 -0.790358
v -1.442002 10.962077 -0.790358
v 1.442002 9.078185 -0.790358
vn -0.0000 1.0000 -0.0000
vn -0.0000 -0.0000 1.0000
vn -1.0000 -0.0000 -0.0000
vn -0.0000 -1.0000 -0.0000
vn 1.0000 -0.0000 -0.0000
vn -0.0000 -0.0000 -1.0000
vt 0.625000 0.734375
vt 0.875000 0.734375
vt 0.875000 0.750000
vt 0.625000 0.750000
vt 0.375000 0.750000
vt 0.625000 1.000000
vt 0.375000 1.000000
vt 0.375000 0.234375
vt 0.625000 0.234375
vt 0.625000 0.250000
vt 0.375000 0.250000
vt 0.125000 0.734375
vt 0.375000 0.734375
vt 0.125000 0.750000
vt 0.625000 0.500000
vt 0.375000 0.500000
vt 0.375000 0.609514
vt 0.625000 0.609514
vt 0.625000 0.625000
vt 0.375000 0.625000
vt 0.125000 0.609514
vt 0.125000 0.625000
vt 0.375000 0.109368
vt 0.625000 0.109368
vt 0.625000 0.125000
vt 0.375000 0.125000
vt 0.875000 0.609514
vt 0.875000 0.625000
vt 0.375000 0.046875
vt 0.625000 0.046875
vt 0.625000 0.062500
vt 0.375000 0.062500
vt 0.375000 0.656264
vt 0.625000 0.656264
vt 0.625000 0.687500
vt 0.375000 0.687500
vt 0.125000 0.656264
vt 0.125000 0.687500
vt 0.875000 0.656264
vt 0.875000 0.687500
vt 0.375000 0.015625
vt 0.625000 0.015625
vt 0.625000 0.031250
vt 0.375000 0.031250
vt 0.375000 0.703125
vt 0.625000 0.703125
vt 0.625000 0.718750
vt 0.375000 0.718750
vt 0.125000 0.703125
vt 0.125000 0.718750
vt 0.875000 0.703125
vt 0.875000 0.718750
vt 0.625000 0.546875
vt 0.875000 0.546875
vt 0.875000 0.562500
vt 0.625000 0.562500
vt 0.125000 0.546875
vt 0.375000 0.546875
vt 0.375000 0.562500
vt 0.125000 0.562500
vt 0.375000 0.155973
vt 0.625000 0.155973
vt 0.625000 0.187500
vt 0.375000 0.187500
vt 0.375000 0.515625
vt 0.625000 0.515625
vt 0.625000 0.531250
vt 0.375000 0.531250
vt 0.125000 0.515625
vt 0.125000 0.531250
vt 0.875000 0.515625
vt 0.875000 0.531250
vt 0.375000 0.203125
vt 0.625000 0.203125
vt 0.625000 0.218750
vt 0.375000 0.218750
vt 0.375000 0.000000
vt 0.625000 0.000000
vt 0.875000 0.500000
vt 0.125000 0.500000
vt 0.625000 0.640632
vt 0.875000 0.640632
vt 0.125000 0.640632
vt 0.375000 0.640632
vt 0.625000 0.093736
vt 0.375000 0.093736
vt 0.375000 0.140486
vt 0.625000 0.140486
vt 0.875000 0.594027
vt 0.625000 0.594027
vt 0.375000 0.594027
vt 0.125000 0.594027
s 0
usemtl Material.002
f 80/72/15 81/73/15 57/74/15 53/75/15
f 54/76/16 53/75/16 57/77/16 58/78/16
f 85/79/17 83/80/17 55/81/17 56/82/17
f 79/83/18 82/84/18 54/76/18 58/85/18
f 82/84/19 80/72/19 53/75/19 54/76/19
f 56/82/20 55/81/20 51/86/20 52/87/20
f 110/88/19 108/89/19 60/90/19 62/91/19
f 107/92/18 110/88/18 62/91/18 59/93/18
f 105/94/17 103/95/17 61/96/17 59/97/17
f 108/89/15 109/98/15 61/99/15 60/90/15
f 93/100/17 91/101/17 65/102/17 63/103/17
f 96/104/19 98/105/19 64/106/19 66/107/19
f 97/108/18 96/104/18 66/107/18 63/109/18
f 98/105/15 95/110/15 65/111/15 64/106/15
f 79/112/17 81/113/17 69/114/17 67/115/17
f 92/116/19 94/117/19 68/118/19 70/119/19
f 93/120/18 92/116/18 70/119/18 67/121/18
f 94/117/15 91/122/15 69/123/15 68/118/15
f 88/124/15 89/125/15 71/126/15 74/127/15
f 87/128/18 90/129/18 72/130/18 73/131/18
f 90/129/19 88/124/19 74/127/19 72/130/19
f 99/132/17 101/133/17 71/134/17 73/135/17
f 84/136/19 86/137/19 78/138/19 76/139/19
f 85/140/18 84/136/18 76/139/18 77/141/18
f 86/137/15 83/142/15 75/143/15 78/138/15
f 87/144/17 89/145/17 75/146/17 77/147/17
f 58/148/17 57/149/17 81/113/17 79/112/17
f 70/119/19 68/118/19 80/72/19 82/84/19
f 67/121/18 70/119/18 82/84/18 79/83/18
f 68/118/15 69/123/15 81/73/15 80/72/15
f 51/86/15 55/150/15 83/142/15 86/137/15
f 56/151/18 52/87/18 84/136/18 85/140/18
f 52/87/19 51/86/19 86/137/19 84/136/19
f 77/147/17 75/146/17 83/80/17 85/79/17
f 73/135/17 71/134/17 89/145/17 87/144/17
f 76/139/19 78/138/19 88/124/19 90/129/19
f 77/141/18 76/139/18 90/129/18 87/128/18
f 78/138/15 75/143/15 89/125/15 88/124/15
f 64/106/15 65/111/15 91/122/15 94/117/15
f 63/109/18 66/107/18 92/116/18 93/120/18
f 66/107/19 64/106/19 94/117/19 92/116/19
f 67/115/17 69/114/17 91/101/17 93/100/17
f 106/152/15 103/153/15 95/110/15 98/105/15
f 105/154/18 104/155/18 96/104/18 97/108/18
f 104/155/19 106/152/19 98/105/19 96/104/19
f 63/103/17 65/102/17 95/156/17 97/157/17
f 107/158/17 109/159/17 101/133/17 99/132/17
f 74/127/15 71/126/15 101/160/15 100/161/15
f 73/131/18 72/130/18 102/162/18 99/163/18
f 72/130/19 74/127/19 100/161/19 102/162/19
f 62/91/19 60/90/19 106/152/19 104/155/19
f 59/93/18 62/91/18 104/155/18 105/154/18
f 60/90/15 61/99/15 103/153/15 106/152/15
f 97/157/17 95/156/17 103/95/17 105/94/17
f 59/97/17 61/96/17 109/159/17 107/158/17
f 100/161/15 101/160/15 109/98/15 108/89/15
f 99/163/18 102/162/18 110/88/18 107/92/18
f 102/162/19 100/161/19 108/89/19 110/88/19
o 立方体
v 1.511912 3.629667 5.928840
v -1.372362 9.868877 5.928840
v 1.511912 3.629667 4.257018
v -1.372362 9.868877 4.257018
v 3.427942 4.515413 5.928840
v 0.543668 10.754623 5.928840
v 3.427942 4.515413 4.257018
v 0.543668 10.754623 4.257018
vn -0.9077 -0.4196 -0.0000
vn -0.0000 -0.0000 -1.0000
vn 0.9077 0.4196 -0.0000
vn -0.0000 -0.0000 1.0000
vn 0.4196 -0.9077 -0.0000
vn -0.4196 0.9077 -0.0000
vt 0.375000 0.000000
vt 0.625000 0.000000
vt 0.625000 0.250000
vt 0.375000 0.250000
vt 0.625000 0.500000
vt 0.375000 0.500000
vt 0.625000 0.750000
vt 0.375000 0.750000
vt 0.625000 1.000000
vt 0.375000 1.000000
vt 0.125000 0.500000
vt 0.125000 0.750000
vt 0.875000 0.500000
vt 0.875000 0.750000
s 0
f 111/164/21 112/165/21 114/166/21 113/167/21
f 113/167/22 114/166/22 118/168/22 117/169/22
f 117/169/23 118/168/23 116/170/23 115/171/23
f 115/171/24 116/170/24 112/172/24 111/173/24
f 113/174/25 117/169/25 115/171/25 111/175/25
f 118/168/26 114/176/26 112/177/26 116/170/26
o 立方体.001
v 1.511912 3.629667 -4.210882
v -1.372362 9.868877 -4.210882
v 1.511912 3.629667 -5.882704
v -1.372362 9.868877 -5.882704
v 3.427942 4.515413 -4.210882
v 0.543668 10.754623 -4.210882
v 3.427942 4.515413 -5.882704
v 0.543668 10.754623 -5.882704
vn -0.9077 -0.4196 -0.0000
vn -0.0000 -0.0000 -1.0000
vn 0.9077 0.4196 -0.0000
vn -0.0000 -0.0000 1.0000
vn 0.4196 -0.9077 -0.0000
vn -0.4196 0.9077 -0.0000
vt 0.375000 0.000000
vt 0.625000 0.000000
vt 0.625000 0.250000
vt 0.375000 0.250000
vt 0.625000 0.500000
vt 0.375000 0.500000
vt 0.625000 0.750000
vt 0.375000 0.750000
vt 0.625000 1.000000
vt 0.375000 1.000000
vt 0.125000 0.500000
vt 0.125000 0.750000
vt 0.875000 0.500000
vt 0.875000 0.750000
s 0
f 119/178/27 120/179/27 122/180/27 121/181/27
f 121/181/28 122/180/28 126/182/28 125/183/28
f 125/183/29 126/182/29 124/184/29 123/185/29
f 123/185/30 124/184/30 120/186/30 119/187/30
f 121/188/31 125/183/31 123/185/31 119/189/31
f 126/182/32 122/190/32 120/191/32 124/184/32
o 立方体.002
v -1.309026 -0.348021 2.346330
v -1.314737 3.797985 2.323611
v -1.063480 -0.358673 0.340746
v -1.069191 3.787333 0.318027
v 1.011207 -0.343269 2.630374
v 1.005497 3.802737 2.607655
v 1.256753 -0.353921 0.624790
v 1.251043 3.792085 0.602071
vn -0.9926 -0.0020 -0.1215
vn 0.1215 -0.0053 -0.9926
vn 0.9926 0.0020 0.1215
vn -0.1215 0.0053 0.9926
vn 0.0014 -1.0000 0.0055
vn -0.0014 1.0000 -0.0055
vt 0.375000 0.000000
vt 0.625000 0.000000
vt 0.625000 0.250000
vt 0.375000 0.250000
vt 0.625000 0.500000
vt 0.375000 0.500000
vt 0.625000 0.750000
vt 0.375000 0.750000
vt 0.625000 1.000000
vt 0.375000 1.000000
vt 0.125000 0.500000
vt 0.125000 0.750000
vt 0.875000 0.500000
vt 0.875000 0.750000
s 0
f 127/192/33 128/193/33 130/194/33 129/195/33
f 129/195/34 130/194/34 134/196/34 133/197/34
f 133/197/35 134/196/35 132/198/35 131/199/35
f 131/199/36 132/198/36 128/200/36 127/201/36
f 129/202/37 133/197/37 131/199/37 127/203/37
f 134/196/38 130/204/38 128/205/38 132/198/38
o 立方体.003
v -1.309026 -0.348021 -2.320131
v -1.314736 3.797985 -2.297412
v -1.063480 -0.358673 -0.314548
v -1.069190 3.787333 -0.291829
v 1.011207 -0.343269 -2.604175
v 1.005497 3.802737 -2.581456
v 1.256753 -0.353921 -0.598591
v 1.251043 3.792085 -0.575873
vn -0.9926 -0.0020 0.1215
vn 0.1215 -0.0053 0.9926
vn 0.9926 0.0020 -0.1215
vn -0.1215 0.0053 -0.9926
vn 0.0014 -1.0000 -0.0055
vn -0.0014 1.0000 0.0055
vt 0.375000 0.000000
vt 0.625000 0.000000
vt 0.625000 0.250000
vt 0.375000 0.250000
vt 0.625000 0.500000
vt 0.375000 0.500000
vt 0.625000 0.750000
vt 0.375000 0.750000
vt 0.625000 1.000000
vt 0.375000 1.000000
vt 0.125000 0.500000
vt 0.125000 0.750000
vt 0.875000 0.500000
vt 0.875000 0.750000
s 0
f 135/206/39 137/209/39 138/208/39 136/207/39
f 137/209/40 141/211/40 142/210/40 138/208/40
f 141/211/41 139/213/41 140/212/41 142/210/41
f 139/213/42 135/215/42 136/214/42 140/212/42
f 137/216/43 135/217/43 139/213/43 141/211/43
f 142/210/44 140/212/44 136/219/44 138/218/44
o ICO球
v 2.871360 1.352975 5.131494
v 4.295196 2.440677 6.165959
v 2.327513 2.440676 6.805310
v 1.111405 2.440684 5.131494
v 2.327513 2.440676 3.457678
v 4.295196 2.440677 4.097029
v 3.415206 4.200658 6.805310
v 1.447523 4.200657 6.165959
v 1.447523 4.200657 4.097029
v 3.415206 4.200658 3.457678
v 4.631315 4.200650 5.131494
v 2.871360 5.288359 5.131494
v 2.551697 1.646841 6.115331
v 3.708264 1.646842 5.739533
v 3.388605 2.286177 6.723380
v 4.545173 2.286180 5.131494
v 3.708264 1.646842 4.523455
v 1.836886 1.646847 5.131494
v 1.517215 2.286180 6.115334
v 2.551697 1.646841 4.147657
v 1.517215 2.286180 4.147654
v 3.388605 2.286177 3.539608
v 4.742749 3.320667 5.739536
v 4.742749 3.320667 4.523452
v 2.871360 3.320667 7.099186
v 4.027941 3.320667 6.723390
v 0.999971 3.320667 5.739536
v 1.714779 3.320667 6.723390
v 1.714779 3.320667 3.539598
v 0.999971 3.320667 4.523452
v 4.027941 3.320667 3.539598
v 2.871360 3.320667 3.163802
v 4.225505 4.355154 6.115334
v 2.354115 4.355157 6.723380
v 1.197547 4.355154 5.131494
v 2.354115 4.355157 3.539608
v 4.225505 4.355154 4.147654
v 3.191022 4.994493 6.115331
v 3.905834 4.994488 5.131494
v 2.034456 4.994493 5.739533
v 2.034456 4.994493 4.523455
v 3.191022 4.994493 4.147657
vn 0.1024 -0.9435 0.3151
vn 0.7002 -0.6617 0.2680
vn -0.2680 -0.9435 0.1947
vn -0.2680 -0.9435 -0.1947
vn 0.1024 -0.9435 -0.3151
vn 0.9050 -0.3304 0.2680
vn 0.0247 -0.3304 0.9435
vn -0.8897 -0.3304 0.3151
vn -0.5746 -0.3304 -0.7488
vn 0.5346 -0.3304 -0.7779
vn 0.8026 -0.1256 0.5831
vn -0.3066 -0.1256 0.9435
vn -0.9921 -0.1256 -0.0000
vn -0.3066 -0.1256 -0.9435
vn 0.8026 -0.1256 -0.5831
vn 0.4089 0.6617 0.6284
vn -0.4713 0.6617 0.5831
vn -0.7002 0.6617 -0.2680
vn 0.0385 0.6617 -0.7488
vn 0.7240 0.6617 -0.1947
vn 0.2680 0.9435 -0.1947
vn 0.4911 0.7947 -0.3568
vn 0.4089 0.6617 -0.6284
vn -0.1024 0.9435 -0.3151
vn -0.1876 0.7947 -0.5773
vn -0.4713 0.6617 -0.5831
vn -0.3313 0.9435 -0.0000
vn -0.6071 0.7947 -0.0000
vn -0.7002 0.6617 0.2680
vn -0.1024 0.9435 0.3151
vn -0.1876 0.7947 0.5773
vn 0.0385 0.6617 0.7488
vn 0.2680 0.9435 0.1947
vn 0.4911 0.7947 0.3568
vn 0.7240 0.6617 0.1947
vn 0.8897 0.3304 -0.3151
vn 0.7947 0.1876 -0.5773
vn 0.5746 0.3304 -0.7488
vn -0.0247 0.3304 -0.9435
vn -0.3035 0.1876 -0.9342
vn -0.5346 0.3304 -0.7779
vn -0.9050 0.3304 -0.2680
vn -0.9822 0.1876 -0.0000
vn -0.9050 0.3304 0.2680
vn -0.5346 0.3304 0.7779
vn -0.3035 0.1876 0.9342
vn -0.0247 0.3304 0.9435
vn 0.5746 0.3304 0.7488
vn 0.7947 0.1876 0.5773
vn 0.8897 0.3304 0.3151
vn 0.3066 0.1256 -0.9435
vn 0.3035 -0.1876 -0.9342
vn 0.0247 -0.3304 -0.9435
vn -0.8026 0.1256 -0.5831
vn -0.7947 -0.1876 -0.5773
vn -0.8897 -0.3304 -0.3151
vn -0.8026 0.1256 0.5831
vn -0.7947 -0.1876 0.5773
vn -0.5746 -0.3304 0.7488
vn 0.3066 0.1256 0.9435
vn 0.3035 -0.1876 0.9342
vn 0.5346 -0.3304 0.7779
vn 0.9921 0.1256 -0.0000
vn 0.9822 -0.1876 -0.0000
vn 0.9050 -0.3304 -0.2680
vn 0.4713 -0.6617 -0.5831
vn 0.1876 -0.7947 -0.5773
vn -0.0385 -0.6617 -0.7488
vn -0.4089 -0.6617 -0.6284
vn -0.4911 -0.7947 -0.3568
vn -0.7240 -0.6617 -0.1947
vn -0.7240 -0.6617 0.1947
vn -0.4911 -0.7947 0.3568
vn -0.4089 -0.6617 0.6284
vn 0.7002 -0.6617 -0.2680
vn 0.6071 -0.7947 -0.0000
vn 0.3313 -0.9435 -0.0000
vn -0.0385 -0.6617 0.7488
vn 0.1876 -0.7947 0.5773
vn 0.4713 -0.6617 0.5831
vt 0.181819 0.000000
vt 0.227273 0.078731
vt 0.136365 0.078731
vt 0.272728 0.157461
vt 0.318182 0.078731
vt 0.363637 0.157461
vt 0.909091 0.000000
vt 0.954545 0.078731
vt 0.863636 0.078731
vt 0.727273 0.000000
vt 0.772727 0.078731
vt 0.681818 0.078731
vt 0.545455 0.000000
vt 0.590909 0.078731
vt 0.500000 0.078731
vt 0.318182 0.236191
vt 0.090910 0.157461
vt 0.181819 0.157461
vt 0.136365 0.236191
vt 0.818182 0.157461
vt 0.909091 0.157461
vt 0.863636 0.236191
vt 0.636364 0.157461
vt 0.727273 0.157461
vt 0.681818 0.236191
vt 0.454546 0.157461
vt 0.545455 0.157461
vt 0.500000 0.236191
vt 0.227273 0.236191
vt 0.045455 0.236191
vt 0.772727 0.236191
vt 0.590909 0.236191
vt 0.409092 0.236191
vt 0.181819 0.314921
vt 0.272728 0.314921
vt 0.227273 0.393651
vt 0.000000 0.314921
vt 0.090910 0.314921
vt 0.045455 0.393651
vt 0.727273 0.314921
vt 0.818182 0.314921
vt 0.772727 0.393651
vt 0.545455 0.314921
vt 0.636364 0.314921
vt 0.590909 0.393651
vt 0.363637 0.314921
vt 0.454546 0.314921
vt 0.409092 0.393651
vt 0.500000 0.393651
vt 0.454546 0.472382
vt 0.681818 0.393651
vt 0.636364 0.472382
vt 0.863636 0.393651
vt 0.818182 0.472382
vt 0.909091 0.314921
vt 0.136365 0.393651
vt 0.090910 0.472382
vt 0.318182 0.393651
vt 0.272728 0.472382
vt 0.954545 0.236191
vt 1.000000 0.157461
vt 0.409092 0.078731
vt 0.363637 0.000000
s 0
f 143/220/45 156/221/45 155/222/45
f 144/223/46 156/224/46 158/225/46
f 143/226/47 155/227/47 160/228/47
f 143/229/48 160/230/48 162/231/48
f 143/232/49 162/233/49 159/234/49
f 144/223/50 158/225/50 165/235/50
f 145/236/51 157/237/51 167/238/51
f 146/239/52 161/240/52 169/241/52
f 147/242/53 163/243/53 171/244/53
f 148/245/54 164/246/54 173/247/54
f 144/223/55 165/235/55 168/248/55
f 145/236/56 167/238/56 170/249/56
f 146/239/57 169/241/57 172/250/57
f 147/242/58 171/244/58 174/251/58
f 148/245/59 173/247/59 166/252/59
f 149/253/60 175/254/60 180/255/60
f 150/256/61 176/257/61 182/258/61
f 151/259/62 177/260/62 183/261/62
f 152/262/63 178/263/63 184/264/63
f 153/265/64 179/266/64 181/267/64
f 181/267/65 184/268/65 154/269/65
f 181/267/66 179/266/66 184/268/66
f 179/266/67 152/262/67 184/268/67
f 184/264/68 183/270/68 154/271/68
f 184/264/69 178/263/69 183/270/69
f 178/263/70 151/259/70 183/270/70
f 183/261/71 182/272/71 154/273/71
f 183/261/72 177/260/72 182/272/72
f 177/260/73 150/274/73 182/272/73
f 182/258/74 180/275/74 154/276/74
f 182/258/75 176/257/75 180/275/75
f 176/257/76 149/253/76 180/275/76
f 180/255/77 181/277/77 154/278/77
f 180/255/78 175/254/78 181/277/78
f 175/254/79 153/265/79 181/277/79
f 166/252/80 179/266/80 153/265/80
f 166/252/81 173/247/81 179/266/81
f 173/247/82 152/262/82 179/266/82
f 174/251/83 178/263/83 152/262/83
f 174/251/84 171/244/84 178/263/84
f 171/244/85 151/259/85 178/263/85
f 172/250/86 177/260/86 151/259/86
f 172/250/87 169/241/87 177/260/87
f 169/241/88 150/274/88 177/260/88
f 170/249/89 176/257/89 150/256/89
f 170/249/90 167/238/90 176/257/90
f 167/238/91 149/253/91 176/257/91
f 168/248/92 175/254/92 149/253/92
f 168/248/93 165/235/93 175/254/93
f 165/235/94 153/265/94 175/254/94
f 173/247/95 174/251/95 152/262/95
f 173/247/96 164/246/96 174/251/96
f 164/246/97 147/242/97 174/251/97
f 171/244/98 172/250/98 151/259/98
f 171/244/99 163/243/99 172/250/99
f 163/243/100 146/239/100 172/250/100
f 169/241/101 170/279/101 150/274/101
f 169/241/102 161/240/102 170/279/102
f 161/240/103 145/280/103 170/279/103
f 167/238/104 168/248/104 149/253/104
f 167/238/105 157/237/105 168/248/105
f 157/237/106 144/223/106 168/248/106
f 165/235/107 166/252/107 153/265/107
f 165/235/108 158/225/108 166/252/108
f 158/225/109 148/245/109 166/252/109
f 159/234/110 164/246/110 148/245/110
f 159/234/111 162/233/111 164/246/111
f 162/233/112 147/242/112 164/246/112
f 162/231/113 163/243/113 147/242/113
f 162/231/114 160/230/114 163/243/114
f 160/230/115 146/239/115 163/243/115
f 160/228/116 161/240/116 146/239/116
f 160/228/117 155/227/117 161/240/117
f 155/227/118 145/280/118 161/240/118
f 158/225/119 159/281/119 148/245/119
f 158/225/120 156/224/120 159/281/120
f 156/224/121 143/282/121 159/281/121
f 155/222/122 157/237/122 145/236/122
f 155/222/123 156/221/123 157/237/123
f 156/221/124 144/223/124 157/237/124
o ICO球.001
v 2.871360 1.352975 -5.338345
v 4.295196 2.440677 -4.303880
v 2.327513 2.440676 -3.664529
v 1.111405 2.440684 -5.338345
v 2.327513 2.440676 -7.012161
v 4.295196 2.440677 -6.372810
v 3.415206 4.200658 -3.664529
v 1.447523 4.200657 -4.303880
v 1.447523 4.200657 -6.372810
v 3.415206 4.200658 -7.012161
v 4.631315 4.200650 -5.338345
v 2.871360 5.288359 -5.338345
v 2.551697 1.646841 -4.354508
v 3.708264 1.646842 -4.730306
v 3.388605 2.286177 -3.746459
v 4.545173 2.286180 -5.338345
v 3.708264 1.646842 -5.946384
v 1.836886 1.646847 -5.338345
v 1.517215 2.286180 -4.354505
v 2.551697 1.646841 -6.322182
v 1.517215 2.286180 -6.322185
v 3.388605 2.286177 -6.930231
v 4.742749 3.320667 -4.730303
v 4.742749 3.320667 -5.946387
v 2.871360 3.320667 -3.370653
v 4.027941 3.320667 -3.746449
v 0.999971 3.320667 -4.730303
v 1.714779 3.320667 -3.746449
v 1.714779 3.320667 -6.930241
v 0.999971 3.320667 -5.946387
v 4.027941 3.320667 -6.930241
v 2.871360 3.320667 -7.306037
v 4.225505 4.355154 -4.354505
v 2.354115 4.355157 -3.746459
v 1.197547 4.355154 -5.338345
v 2.354115 4.355157 -6.930231
v 4.225505 4.355154 -6.322185
v 3.191022 4.994493 -4.354508
v 3.905834 4.994488 -5.338345
v 2.034456 4.994493 -4.730306
v 2.034456 4.994493 -5.946384
v 3.191022 4.994493 -6.322182
vn 0.1024 -0.9435 0.3151
vn 0.7002 -0.6617 0.2680
vn -0.2680 -0.9435 0.1947
vn -0.2680 -0.9435 -0.1947
vn 0.1024 -0.9435 -0.3151
vn 0.9050 -0.3304 0.2680
vn 0.0247 -0.3304 0.9435
vn -0.8897 -0.3304 0.3151
vn -0.5746 -0.3304 -0.7488
vn 0.5346 -0.3304 -0.7779
vn 0.8026 -0.1256 0.5831
vn -0.3066 -0.1256 0.9435
vn -0.9921 -0.1256 -0.0000
vn -0.3066 -0.1256 -0.9435
vn 0.8026 -0.1256 -0.5831
vn 0.4089 0.6617 0.6284
vn -0.4713 0.6617 0.5831
vn -0.7002 0.6617 -0.2680
vn 0.0385 0.6617 -0.7488
vn 0.7240 0.6617 -0.1947
vn 0.2680 0.9435 -0.1947
vn 0.4911 0.7947 -0.3568
vn 0.4089 0.6617 -0.6284
vn -0.1024 0.9435 -0.3151
vn -0.1876 0.7947 -0.5773
vn -0.4713 0.6617 -0.5831
vn -0.3313 0.9435 -0.0000
vn -0.6071 0.7947 -0.0000
vn -0.7002 0.6617 0.2680
vn -0.1024 0.9435 0.3151
vn -0.1876 0.7947 0.5773
vn 0.0385 0.6617 0.7488
vn 0.2680 0.9435 0.1947
vn 0.4911 0.7947 0.3568
vn 0.7240 0.6617 0.1947
vn 0.8897 0.3304 -0.3151
vn 0.7947 0.1876 -0.5773
vn 0.5746 0.3304 -0.7488
vn -0.0247 0.3304 -0.9435
vn -0.3035 0.1876 -0.9342
vn -0.5346 0.3304 -0.7779
vn -0.9050 0.3304 -0.2680
vn -0.9822 0.1876 -0.0000
vn -0.9050 0.3304 0.2680
vn -0.5346 0.3304 0.7779
vn -0.3035 0.1876 0.9342
vn -0.0247 0.3304 0.9435
vn 0.5746 0.3304 0.7488
vn 0.7947 0.1876 0.5773
vn 0.8897 0.3304 0.3151
vn 0.3066 0.1256 -0.9435
vn 0.3035 -0.1876 -0.9342
vn 0.0247 -0.3304 -0.9435
vn -0.8026 0.1256 -0.5831
vn -0.7947 -0.1876 -0.5773
vn -0.8897 -0.3304 -0.3151
vn -0.8026 0.1256 0.5831
vn -0.7947 -0.1876 0.5773
vn -0.5746 -0.3304 0.7488
vn 0.3066 0.1256 0.9435
vn 0.3035 -0.1876 0.9342
vn 0.5346 -0.3304 0.7779
vn 0.9921 0.1256 -0.0000
vn 0.9822 -0.1876 -0.0000
vn 0.9050 -0.3304 -0.2680
vn 0.4713 -0.6617 -0.5831
vn 0.1876 -0.7947 -0.5773
vn -0.0385 -0.6617 -0.7488
vn -0.4089 -0.6617 -0.6284
vn -0.4911 -0.7947 -0.3568
vn -0.7240 -0.6617 -0.1947
vn -0.7240 -0.6617 0.1947
vn -0.4911 -0.7947 0.3568
vn -0.4089 -0.6617 0.6284
vn 0.7002 -0.6617 -0.2680
vn 0.6071 -0.7947 -0.0000
vn 0.3313 -0.9435 -0.0000
vn -0.0385 -0.6617 0.7488
vn 0.1876 -0.7947 0.5773
vn 0.4713 -0.6617 0.5831
vt 0.181819 0.000000
vt 0.227273 0.078731
vt 0.136365 0.078731
vt 0.272728 0.157461
vt 0.318182 0.078731
vt 0.363637 0.157461
vt 0.909091 0.000000
vt 0.954545 0.078731
vt 0.863636 0.078731
vt 0.727273 0.000000
vt 0.772727 0.078731
vt 0.681818 0.078731
vt 0.545455 0.000000
vt 0.590909 0.078731
vt 0.500000 0.078731
vt 0.318182 0.236191
vt 0.090910 0.157461
vt 0.181819 0.157461
vt 0.136365 0.236191
vt 0.818182 0.157461
vt 0.909091 0.157461
vt 0.863636 0.236191
vt 0.636364 0.157461
vt 0.727273 0.157461
vt 0.681818 0.236191
vt 0.454546 0.157461
vt 0.545455 0.157461
vt 0.500000 0.236191
vt 0.227273 0.236191
vt 0.045455 0.236191
vt 0.772727 0.236191
vt 0.590909 0.236191
vt 0.409092 0.236191
vt 0.181819 0.314921
vt 0.272728 0.314921
vt 0.227273 0.393651
vt 0.000000 0.314921
vt 0.090910 0.314921
vt 0.045455 0.393651
vt 0.727273 0.314921
vt 0.818182 0.314921
vt 0.772727 0.393651
vt 0.545455 0.314921
vt 0.636364 0.314921
vt 0.590909 0.393651
vt 0.363637 0.314921
vt 0.454546 0.314921
vt 0.409092 0.393651
vt 0.500000 0.393651
vt 0.454546 0.472382
vt 0.681818 0.393651
vt 0.636364 0.472382
vt 0.863636 0.393651
vt 0.818182 0.472382
vt 0.909091 0.314921
vt 0.136365 0.393651
vt 0.090910 0.472382
vt 0.318182 0.393651
vt 0.272728 0.472382
vt 0.954545 0.236191
vt 1.000000 0.157461
vt 0.409092 0.078731
vt 0.363637 0.000000
s 0
f 185/283/125 198/284/125 197/285/125
f 186/286/126 198/287/126 200/288/126
f 185/289/127 197/290/127 202/291/127
f 185/292/128 202/293/128 204/294/128
f 185/295/129 204/296/129 201/297/129
f 186/286/130 200/288/130 207/298/130
f 187/299/131 199/300/131 209/301/131
f 188/302/132 203/303/132 211/304/132
f 189/305/133 205/306/133 213/307/133
f 190/308/134 206/309/134 215/310/134
f 186/286/135 207/298/135 210/311/135
f 187/299/136 209/301/136 212/312/136
f 188/302/137 211/304/137 214/313/137
f 189/305/138 213/307/138 216/314/138
f 190/308/139 215/310/139 208/315/139
f 191/316/140 217/317/140 222/318/140
f 192/319/141 218/320/141 224/321/141
f 193/322/142 219/323/142 225/324/142
f 194/325/143 220/326/143 226/327/143
f 195/328/144 221/329/144 223/330/144
f 223/330/145 226/331/145 196/332/145
f 223/330/146 221/329/146 226/331/146
f 221/329/147 194/325/147 226/331/147
f 226/327/148 225/333/148 196/334/148
f 226/327/149 220/326/149 225/333/149
f 220/326/150 193/322/150 225/333/150
f 225/324/151 224/335/151 196/336/151
f 225/324/152 219/323/152 224/335/152
f 219/323/153 192/337/153 224/335/153
f 224/321/154 222/338/154 196/339/154
f 224/321/155 218/320/155 222/338/155
f 218/320/156 191/316/156 222/338/156
f 222/318/157 223/340/157 196/341/157
f 222/318/158 217/317/158 223/340/158
f 217/317/159 195/328/159 223/340/159
f 208/315/160 221/329/160 195/328/160
f 208/315/161 215/310/161 221/329/161
f 215/310/162 194/325/162 221/329/162
f 216/314/163 220/326/163 194/325/163
f 216/314/164 213/307/164 220/326/164
f 213/307/165 193/322/165 220/326/165
f 214/313/166 219/323/166 193/322/166
f 214/313/167 211/304/167 219/323/167
f 211/304/168 192/337/168 219/323/168
f 212/312/169 218/320/169 192/319/169
f 212/312/170 209/301/170 218/320/170
f 209/301/171 191/316/171 218/320/171
f 210/311/172 217/317/172 191/316/172
f 210/311/173 207/298/173 217/317/173
f 207/298/174 195/328/174 217/317/174
f 215/310/175 216/314/175 194/325/175
f 215/310/176 206/309/176 216/314/176
f 206/309/177 189/305/177 216/314/177
f 213/307/178 214/313/178 193/322/178
f 213/307/179 205/306/179 214/313/179
f 205/306/180 188/302/180 214/313/180
f 211/304/181 212/342/181 192/337/181
f 211/304/182 203/303/182 212/342/182
f 203/303/183 187/343/183 212/342/183
f 209/301/184 210/311/184 191/316/184
f 209/301/185 199/300/185 210/311/185
f 199/300/186 186/286/186 210/311/186
f 207/298/187 208/315/187 195/328/187
f 207/298/188 200/288/188 208/315/188
f 200/288/189 190/308/189 208/315/189
f 201/297/190 206/309/190 190/308/190
f 201/297/191 204/296/191 206/309/191
f 204/296/192 189/305/192 206/309/192
f 204/294/193 205/306/193 189/305/193
f 204/294/194 202/293/194 205/306/194
f 202/293/195 188/302/195 205/306/195
f 202/291/196 203/303/196 188/302/196
f 202/291/197 197/290/197 203/303/197
f 197/290/198 187/343/198 203/303/198
f 200/288/199 201/344/199 190/308/199
f 200/288/200 198/287/200 201/344/200
f 198/287/201 185/345/201 201/344/201
f 197/285/202 199/300/202 187/299/202
f 197/285/203 198/284/203 199/300/203
f 198/284/204 186/286/204 199/300/204
